<svg xmlns="http://www.w3.org/2000/svg" xmlns:xlink="http://www.w3.org/1999/xlink" viewBox="0 0 238.79 158.5"><defs><linearGradient id="Degradado_sin_nombre_8" x1="149.47" y1="91.91" x2="223.89" y2="91.91" gradientUnits="userSpaceOnUse"><stop offset="0.12" stop-color="#30c2c9"/><stop offset="0.23" stop-color="#39a8cd"/><stop offset="0.49" stop-color="#4c6dd6"/><stop offset="0.72" stop-color="#5943dd"/><stop offset="0.89" stop-color="#6229e1"/><stop offset="1" stop-color="#651fe3"/></linearGradient><linearGradient id="Degradado_sin_nombre_8-2" x1="152.49" y1="47.9" x2="209.37" y2="47.9" xlink:href="#Degradado_sin_nombre_8"/><linearGradient id="Degradado_sin_nombre_8-3" x1="78.58" y1="102.95" x2="21.08" y2="69.75" xlink:href="#Degradado_sin_nombre_8"/><linearGradient id="Degradado_sin_nombre_8-4" x1="85.87" y1="68.44" x2="23.19" y2="32.25" xlink:href="#Degradado_sin_nombre_8"/><linearGradient id="Degradado_sin_nombre_8-5" x1="-118.9" y1="170.38" x2="-105.8" y2="147.7" gradientTransform="matrix(-1.15, 0.51, -1.35, -0.26, 171.77, 250.46)" xlink:href="#Degradado_sin_nombre_8"/><linearGradient id="Degradado_sin_nombre_8-6" x1="-112.54" y1="159.45" x2="-103.83" y2="174.54" gradientTransform="matrix(-1.15, 0.51, -1.35, -0.26, 171.77, 250.46)" xlink:href="#Degradado_sin_nombre_8"/><linearGradient id="Degradado_sin_nombre_8-7" x1="-119.18" y1="163.38" x2="-106.46" y2="185.41" gradientTransform="matrix(-1.15, 0.51, -1.35, -0.26, 171.77, 250.46)" xlink:href="#Degradado_sin_nombre_8"/><linearGradient id="Degradado_sin_nombre_8-8" x1="78.04" y1="146.47" x2="78.04" y2="110.92" xlink:href="#Degradado_sin_nombre_8"/><linearGradient id="Degradado_sin_nombre_8-9" x1="-295.22" y1="-174.36" x2="-282.12" y2="-197.03" gradientTransform="matrix(1.15, 0.51, 1.35, -0.26, 739.22, 250.46)" xlink:href="#Degradado_sin_nombre_8"/><linearGradient id="Degradado_sin_nombre_8-10" x1="-288.86" y1="-185.28" x2="-280.15" y2="-170.2" gradientTransform="matrix(1.15, 0.51, 1.35, -0.26, 739.22, 250.46)" xlink:href="#Degradado_sin_nombre_8"/><linearGradient id="Degradado_sin_nombre_8-11" x1="-295.5" y1="-181.36" x2="-282.78" y2="-159.33" gradientTransform="matrix(1.15, 0.51, 1.35, -0.26, 739.22, 250.46)" xlink:href="#Degradado_sin_nombre_8"/><linearGradient id="Degradado_sin_nombre_8-12" x1="747.75" y1="146.47" x2="747.75" y2="110.92" gradientTransform="matrix(1, 0, 0, -1, -584.5, 257.39)" xlink:href="#Degradado_sin_nombre_8"/><linearGradient id="Degradado_sin_nombre_8-13" x1="119.05" y1="13.16" x2="119.05" y2="142.25" xlink:href="#Degradado_sin_nombre_8"/><linearGradient id="Degradado_sin_nombre_2" x1="-31.25" y1="726.7" x2="-31.25" y2="739.71" gradientTransform="matrix(0.87, 0.49, 0.49, -0.87, -114.34, 722.36)" gradientUnits="userSpaceOnUse"><stop offset="0" stop-color="#ff8410"/><stop offset="1" stop-color="#bf0f00"/></linearGradient><linearGradient id="Degradado_sin_nombre_2-2" x1="-18.27" y1="726.7" x2="-18.27" y2="739.71" xlink:href="#Degradado_sin_nombre_2"/><linearGradient id="Degradado_sin_nombre_2-3" x1="-162.61" y1="725.29" x2="-151.31" y2="725.29" gradientTransform="translate(-284.97 625.3) rotate(-150.46)" xlink:href="#Degradado_sin_nombre_2"/><linearGradient id="Degradado_sin_nombre_8-14" x1="-24.84" y1="737.18" x2="-24.84" y2="712.61" gradientTransform="matrix(1, 0, 0, -1, 246.25, 804.33)" xlink:href="#Degradado_sin_nombre_8"/><linearGradient id="Degradado_sin_nombre_8-15" x1="-27.75" y1="727.02" x2="-34.75" y2="739.38" gradientTransform="matrix(0.87, 0.49, 0.49, -0.87, -114.34, 722.36)" xlink:href="#Degradado_sin_nombre_8"/><linearGradient id="Degradado_sin_nombre_8-16" x1="-14.77" y1="727.02" x2="-21.77" y2="739.38" gradientTransform="matrix(0.87, 0.49, 0.49, -0.87, -114.34, 722.36)" xlink:href="#Degradado_sin_nombre_8"/><linearGradient id="Degradado_sin_nombre_8-17" x1="-161.7" y1="716.91" x2="-152.21" y2="733.66" gradientTransform="translate(-284.97 625.3) rotate(-150.46)" xlink:href="#Degradado_sin_nombre_8"/><linearGradient id="Degradado_sin_nombre_2-4" x1="115.83" y1="942.78" x2="115.83" y2="955.79" gradientTransform="matrix(1, 0.03, 0.03, -1, 51.29, 958.9)" xlink:href="#Degradado_sin_nombre_2"/><linearGradient id="Degradado_sin_nombre_2-5" x1="128.81" y1="942.78" x2="128.81" y2="955.79" gradientTransform="matrix(1, 0.03, 0.03, -1, 51.29, 958.9)" xlink:href="#Degradado_sin_nombre_2"/><linearGradient id="Degradado_sin_nombre_2-6" x1="-309.21" y1="941.55" x2="-297.92" y2="941.55" gradientTransform="matrix(-1, -0.03, 0.03, -1, -144.45, 952.99)" xlink:href="#Degradado_sin_nombre_2"/><linearGradient id="Degradado_sin_nombre_8-18" x1="122.24" y1="953.26" x2="122.24" y2="928.69" gradientTransform="matrix(1, 0, 0, -1, 78.89, 962.9)" xlink:href="#Degradado_sin_nombre_8"/><linearGradient id="Degradado_sin_nombre_8-19" x1="116.02" y1="942.74" x2="115.63" y2="955.82" gradientTransform="matrix(1, 0.03, 0.03, -1, 51.29, 958.9)" xlink:href="#Degradado_sin_nombre_8"/><linearGradient id="Degradado_sin_nombre_8-20" x1="129.01" y1="942.74" x2="128.62" y2="955.82" gradientTransform="matrix(1, 0.03, 0.03, -1, 51.29, 958.9)" xlink:href="#Degradado_sin_nombre_8"/><linearGradient id="Degradado_sin_nombre_8-21" x1="-303.86" y1="931.33" x2="-303.26" y2="951.77" gradientTransform="matrix(-1, -0.03, 0.03, -1, -144.45, 952.99)" xlink:href="#Degradado_sin_nombre_8"/><linearGradient id="Degradado_sin_nombre_2-7" x1="115.92" y1="810.08" x2="115.92" y2="823.09" gradientTransform="translate(522.3 722.36) rotate(150.46)" xlink:href="#Degradado_sin_nombre_2"/><linearGradient id="Degradado_sin_nombre_2-8" x1="128.9" y1="810.08" x2="128.9" y2="823.09" gradientTransform="translate(522.3 722.36) rotate(150.46)" xlink:href="#Degradado_sin_nombre_2"/><linearGradient id="Degradado_sin_nombre_2-9" x1="-309.78" y1="808.67" x2="-298.48" y2="808.67" gradientTransform="matrix(0.87, -0.49, -0.49, -0.87, 692.92, 625.3)" xlink:href="#Degradado_sin_nombre_2"/><linearGradient id="Degradado_sin_nombre_8-22" x1="122.33" y1="820.57" x2="122.33" y2="796" gradientTransform="translate(-104.97 -728.95)" xlink:href="#Degradado_sin_nombre_8"/><linearGradient id="Degradado_sin_nombre_8-23" x1="119.42" y1="810.41" x2="112.42" y2="822.76" gradientTransform="translate(522.3 722.36) rotate(150.46)" xlink:href="#Degradado_sin_nombre_8"/><linearGradient id="Degradado_sin_nombre_8-24" x1="132.4" y1="810.41" x2="125.4" y2="822.76" gradientTransform="translate(522.3 722.36) rotate(150.46)" xlink:href="#Degradado_sin_nombre_8"/><linearGradient id="Degradado_sin_nombre_8-25" x1="-308.87" y1="800.3" x2="-299.38" y2="817.05" gradientTransform="matrix(0.87, -0.49, -0.49, -0.87, 692.92, 625.3)" xlink:href="#Degradado_sin_nombre_8"/><linearGradient id="Degradado_sin_nombre_2-10" x1="287.38" y1="947.82" x2="287.38" y2="960.83" gradientTransform="matrix(-1, 0.03, -0.03, -1, 356.67, 958.9)" xlink:href="#Degradado_sin_nombre_2"/><linearGradient id="Degradado_sin_nombre_2-11" x1="300.36" y1="947.82" x2="300.36" y2="960.83" gradientTransform="matrix(-1, 0.03, -0.03, -1, 356.67, 958.9)" xlink:href="#Degradado_sin_nombre_2"/><linearGradient id="Degradado_sin_nombre_2-12" x1="-480.76" y1="946.6" x2="-469.47" y2="946.6" gradientTransform="matrix(1, -0.03, -0.03, -1, 552.4, 952.99)" xlink:href="#Degradado_sin_nombre_2"/><linearGradient id="Degradado_sin_nombre_8-26" x1="293.78" y1="958.31" x2="293.78" y2="933.74" gradientTransform="translate(-258.62 -924.16)" xlink:href="#Degradado_sin_nombre_8"/><linearGradient id="Degradado_sin_nombre_8-27" x1="287.57" y1="947.79" x2="287.18" y2="960.87" gradientTransform="matrix(-1, 0.03, -0.03, -1, 356.67, 958.9)" xlink:href="#Degradado_sin_nombre_8"/><linearGradient id="Degradado_sin_nombre_8-28" x1="300.55" y1="947.79" x2="300.17" y2="960.87" gradientTransform="matrix(-1, 0.03, -0.03, -1, 356.67, 958.9)" xlink:href="#Degradado_sin_nombre_8"/><linearGradient id="Degradado_sin_nombre_8-29" x1="-475.41" y1="936.38" x2="-474.81" y2="956.81" gradientTransform="matrix(1, -0.03, -0.03, -1, 552.4, 952.99)" xlink:href="#Degradado_sin_nombre_8"/></defs><g style="isolation:isolate"><g id="Layer_2" data-name="Layer 2"><g id="OBJECTS"><path d="M154.29,23.58A21,21,0,0,0,157.68,16a19.81,19.81,0,0,0,.13-7.85A18.49,18.49,0,0,0,155,1.29c-.2-.3-.4-.59-.62-.87a1.09,1.09,0,0,0-1.89,1q.12.44.21.87a14.47,14.47,0,0,1,.06,5.93,13,13,0,0,1-2.13,5,12.22,12.22,0,0,1-3.56,3.37,5.3,5.3,0,0,0-1.81,7.13,5.18,5.18,0,0,0,7.13,1.75,5,5,0,0,0,1.52-1.41Z" style="fill:#fcedb6"/><path d="M157.81,8.11A18.49,18.49,0,0,0,155,1.29c-.2-.3-.4-.59-.62-.87A1,1,0,0,0,154,.1a18.38,18.38,0,0,1,1.59,4.74,19.81,19.81,0,0,1-.13,7.85,21,21,0,0,1-3.39,7.62l-.35.5a5.14,5.14,0,0,1-1.52,1.41,5.2,5.2,0,0,1-5.53-.09,5.12,5.12,0,0,0,7.74,3.36,5,5,0,0,0,1.52-1.41l.35-.5A21,21,0,0,0,157.68,16,19.81,19.81,0,0,0,157.81,8.11Z" style="fill:#fada81"/><path d="M157.93,29.37c-1.52,2.5-7.18,1.83-12.64-1.5s-8.65-8-7.13-10.54,7.18-1.82,12.64,1.5S159.45,26.88,157.93,29.37Z" style="fill:#651fe3"/><path d="M84,23.58A21,21,0,0,1,80.63,16a19.81,19.81,0,0,1-.13-7.85,18.49,18.49,0,0,1,2.78-6.82c.2-.3.4-.59.62-.87a1.09,1.09,0,0,1,1.89,1q-.12.44-.21.87a14.47,14.47,0,0,0-.06,5.93,13,13,0,0,0,2.13,5,12.22,12.22,0,0,0,3.56,3.37A5.3,5.3,0,0,1,93,23.74a5.18,5.18,0,0,1-7.13,1.75,5,5,0,0,1-1.52-1.41Z" style="fill:#fcedb6"/><path d="M80.5,8.11a18.49,18.49,0,0,1,2.78-6.82c.2-.3.4-.59.62-.87A1,1,0,0,1,84.3.1a18.38,18.38,0,0,0-1.59,4.74,19.81,19.81,0,0,0,.13,7.85,21,21,0,0,0,3.39,7.62l.35.5a5.14,5.14,0,0,0,1.52,1.41,5.2,5.2,0,0,0,5.53-.09,5.12,5.12,0,0,1-7.74,3.36,5,5,0,0,1-1.52-1.41l-.35-.5A21,21,0,0,1,80.63,16,19.81,19.81,0,0,1,80.5,8.11Z" style="fill:#fada81"/><path d="M80.38,29.37c1.52,2.5,7.18,1.83,12.64-1.5s8.65-8,7.13-10.54S93,15.51,87.51,18.83,78.86,26.88,80.38,29.37Z" style="fill:#651fe3"/><path d="M186.68,105.36a49.46,49.46,0,0,1-35.08-14.5,7.27,7.27,0,0,1,10.28-10.28,35.11,35.11,0,0,0,49.61,0,7.27,7.27,0,0,1,10.27,10.28A49.44,49.44,0,0,1,186.68,105.36Z" style="fill:url(#Degradado_sin_nombre_8)"/><path d="M222.41,81.33a7.2,7.2,0,0,1-1.47,2.13,49.68,49.68,0,0,1-70.16,0,6.36,6.36,0,0,1-.64-.75,7.25,7.25,0,0,0,1.46,8.15,49.68,49.68,0,0,0,70.16,0A7.25,7.25,0,0,0,222.41,81.33Z" style="fill:#63244e;opacity:0.30000000000000004;mix-blend-mode:multiply"/><path d="M159.75,76.33a7.27,7.27,0,0,1,0-14.53,35.11,35.11,0,0,0,35.08-35.08,7.27,7.27,0,0,1,14.54,0A49.67,49.67,0,0,1,159.75,76.33Z" style="fill:url(#Degradado_sin_nombre_8-2)"/><path d="M204.14,19.75a7.24,7.24,0,0,1,.29,2A49.66,49.66,0,0,1,154.82,71.4a7.24,7.24,0,0,1-2-.29,7.27,7.27,0,0,0,7,5.22,49.67,49.67,0,0,0,49.62-49.61A7.27,7.27,0,0,0,204.14,19.75Z" style="fill:#63244e;opacity:0.30000000000000004;mix-blend-mode:multiply"/><path d="M50.19,105.36a49.46,49.46,0,0,1-35.08-14.5A7.27,7.27,0,0,1,25.39,80.58a35.11,35.11,0,0,0,49.61,0A7.27,7.27,0,0,1,85.27,90.86,49.44,49.44,0,0,1,50.19,105.36Z" style="fill:url(#Degradado_sin_nombre_8-3)"/><path d="M85.36,80.67a7.25,7.25,0,0,1-1.73,2.79,49.7,49.7,0,0,1-70.17,0l-.08-.1a7.26,7.26,0,0,0,1.73,7.5,49.68,49.68,0,0,0,70.16,0A7.28,7.28,0,0,0,85.36,80.67Z" style="fill:#63244e;opacity:0.30000000000000004;mix-blend-mode:multiply"/><path d="M77.12,76.33A49.66,49.66,0,0,1,27.51,26.72a7.27,7.27,0,0,1,14.53,0A35.12,35.12,0,0,0,77.12,61.8a7.27,7.27,0,1,1,0,14.53Z" style="fill:url(#Degradado_sin_nombre_8-4)"/><path d="M80.41,71.4A49.66,49.66,0,0,1,30.8,21.79a8,8,0,0,1,.1-1.21,7.27,7.27,0,0,0-3.39,6.14A49.66,49.66,0,0,0,77.12,76.33a7.27,7.27,0,0,0,7.16-6A7.21,7.21,0,0,1,80.41,71.4Z" style="fill:#63244e;opacity:0.30000000000000004;mix-blend-mode:multiply"/><path d="M88.31,157.22s-10.46-2.63-34,.62c0,0,4-5.83-10.44-9.66,0,0,34-4.14,38.69-3.4S88.31,157.22,88.31,157.22Z" style="fill:#db15f0"/><path d="M82.68,157.22l-2.84-12c-.2-.78,1.69-1.63,4.22-1.88h0c2.52-.26,4.75.18,5,1l2.84,12c.2.78-1.69,1.63-4.22,1.88h0C85.11,158.44,82.88,158,82.68,157.22Z" style="fill:url(#Degradado_sin_nombre_8-5)"/><path d="M52.73,156.32l28.1-12.41a12.79,12.79,0,0,1,6.48-.65h0c1.93.38,2.17,1.28.53,2l-28.1,12.42a12.83,12.83,0,0,1-6.49.65h0C51.33,158,51.09,157.06,52.73,156.32Z" style="fill:url(#Degradado_sin_nombre_8-6)"/><path d="M46.71,146.82l37.06-3.56c2.52-.25,4.75.18,5,1h0c.21.79-1.69,1.64-4.21,1.89l-37.06,3.56c-2.52.25-4.75-.18-5-1h0C42.29,147.92,44.19,147.07,46.71,146.82Z" style="fill:url(#Degradado_sin_nombre_8-7)"/><path d="M90.43,150.3l-1.42-6a.57.57,0,0,0-.14-.25c-.16-.32-.68-.6-1.56-.77a13,13,0,0,0-4.68.11l-22,2.11c1.94,1.37,2.63,2.73,2.79,3.83l-2.06.91c-1.64.73-1.4,1.64.52,2a12.61,12.61,0,0,0,6.49-.65l1.55-.68A125,125,0,0,1,90.43,150.3Z" style="fill:#30c2c9;opacity:0.43;mix-blend-mode:multiply"/><path d="M90.72,118.66h-6.3a3.06,3.06,0,0,1-3-3h0a3.05,3.05,0,0,1,3-3h6.3a3.05,3.05,0,0,1,3,3h0A3.06,3.06,0,0,1,90.72,118.66Z" style="fill:#f6ce2e"/><path d="M87.57,115.61a3.05,3.05,0,0,1,3.05-3h-6.2a3,3,0,1,0,0,6.09h6.2A3.06,3.06,0,0,1,87.57,115.61Z" style="fill:#f6ce2e;opacity:0.79;mix-blend-mode:multiply"/><rect x="54.3" y="110.92" width="47.48" height="35.55" rx="14.37" style="fill:url(#Degradado_sin_nombre_8-8)"/><path d="M91.84,140.47H73.1a14.42,14.42,0,0,1-14.37-14.38v-6.8a14.13,14.13,0,0,1,1-5.21,14.35,14.35,0,0,0-5.43,11.21v6.81a14.42,14.42,0,0,0,14.37,14.37H87.41a14.43,14.43,0,0,0,13.38-9.16A14.28,14.28,0,0,1,91.84,140.47Z" style="fill:#30c2c9;opacity:0.43;mix-blend-mode:multiply"/><path d="M89.17,120.83H85a3.3,3.3,0,0,1-3.29-3.29h0A3.3,3.3,0,0,1,85,114.25h4.18a3.3,3.3,0,0,1,3.29,3.29h0A3.3,3.3,0,0,1,89.17,120.83Z" style="fill:#30c2c9;opacity:0.43;mix-blend-mode:multiply"/><path d="M95.22,119.9h2.87a1.47,1.47,0,0,1,1.46,1.46h0a1.46,1.46,0,0,1-1.46,1.45H95.22a1.45,1.45,0,0,1-1.45-1.45h0A1.46,1.46,0,0,1,95.22,119.9Z" style="fill:#30c2c9;opacity:0.43;mix-blend-mode:multiply"/><path d="M94.57,116.3h.91a1.18,1.18,0,0,1,1.18,1.18h0a1.18,1.18,0,0,1-1.18,1.18h-.91a1.18,1.18,0,0,1-1.18-1.18h0A1.18,1.18,0,0,1,94.57,116.3Z" style="fill:#30c2c9;opacity:0.43;mix-blend-mode:multiply"/><path d="M79.46,112.53h.92a1.18,1.18,0,0,1,1.17,1.18h0a1.18,1.18,0,0,1-1.17,1.18h-.92a1.18,1.18,0,0,1-1.17-1.18h0A1.18,1.18,0,0,1,79.46,112.53Z" style="fill:#30c2c9;opacity:0.43;mix-blend-mode:multiply"/><path d="M88.91,122.81h3.52a1.34,1.34,0,0,1,1.34,1.33h0a1.34,1.34,0,0,1-1.34,1.34H88.91a1.34,1.34,0,0,1-1.34-1.34h0A1.34,1.34,0,0,1,88.91,122.81Z" style="fill:#30c2c9;opacity:0.43;mix-blend-mode:multiply"/><path d="M95.77,126.26h1.28a1.22,1.22,0,0,1,1.22,1.22h0a1.22,1.22,0,0,1-1.22,1.22H95.77a1.22,1.22,0,0,1-1.22-1.22h0A1.22,1.22,0,0,1,95.77,126.26Z" style="fill:#30c2c9;opacity:0.43;mix-blend-mode:multiply"/><path d="M85.18,123.51h-1.9a.82.82,0,0,1-.81-.82h0a.82.82,0,0,1,.81-.81h1.9a.81.81,0,0,1,.81.81h0A.82.82,0,0,1,85.18,123.51Z" style="fill:#30c2c9;opacity:0.43;mix-blend-mode:multiply"/><path d="M88.52,113.38h-1.9a.81.81,0,0,1-.81-.81h0a.82.82,0,0,1,.81-.82h1.9a.82.82,0,0,1,.81.82h0A.81.81,0,0,1,88.52,113.38Z" style="fill:#30c2c9;opacity:0.43;mix-blend-mode:multiply"/><path d="M91.26,128.7H89.54a.61.61,0,0,1-.61-.61h0a.61.61,0,0,1,.61-.61h1.72a.61.61,0,0,1,.61.61h0A.62.62,0,0,1,91.26,128.7Z" style="fill:#30c2c9;opacity:0.43;mix-blend-mode:multiply"/><path d="M98.85,133.15H97.11a.7.7,0,0,1-.7-.7h0a.7.7,0,0,1,.7-.7h1.74a.71.71,0,0,1,.7.7h0A.71.71,0,0,1,98.85,133.15Z" style="fill:#30c2c9;opacity:0.43;mix-blend-mode:multiply"/><path d="M153,157.22s10.46-2.63,34,.62c0,0-4.06-5.83,10.44-9.66,0,0-34-4.14-38.69-3.4S153,157.22,153,157.22Z" style="fill:#db15f0"/><path d="M158.62,157.22l2.83-12c.21-.78-1.69-1.63-4.21-1.88h0c-2.53-.26-4.76.18-5,1l-2.84,12c-.2.78,1.7,1.63,4.22,1.88h0C156.18,158.44,158.41,158,158.62,157.22Z" style="fill:url(#Degradado_sin_nombre_8-9)"/><path d="M188.56,156.32l-28.09-12.41a12.83,12.83,0,0,0-6.49-.65h0c-1.93.38-2.16,1.28-.52,2l28.09,12.42a12.83,12.83,0,0,0,6.49.65h0C190,158,190.2,157.06,188.56,156.32Z" style="fill:url(#Degradado_sin_nombre_8-10)"/><path d="M194.58,146.82l-37.05-3.56c-2.52-.25-4.75.18-5,1h0c-.2.79,1.7,1.64,4.22,1.89l37.05,3.56c2.52.25,4.75-.18,5-1h0C199,147.92,197.1,147.07,194.58,146.82Z" style="fill:url(#Degradado_sin_nombre_8-11)"/><path d="M150.86,150.3l1.42-6a.57.57,0,0,1,.14-.25c.16-.32.69-.6,1.56-.77a13,13,0,0,1,4.68.11l22,2.11c-1.93,1.37-2.63,2.73-2.78,3.83l2,.91c1.64.73,1.41,1.64-.52,2a12.61,12.61,0,0,1-6.49-.65l-1.54-.68A125.12,125.12,0,0,0,150.86,150.3Z" style="fill:#30c2c9;opacity:0.43;mix-blend-mode:multiply"/><path d="M150.57,118.66h6.31a3.05,3.05,0,0,0,3-3h0a3.05,3.05,0,0,0-3-3h-6.31a3.05,3.05,0,0,0-3,3h0A3.06,3.06,0,0,0,150.57,118.66Z" style="fill:#f6ce2e"/><path d="M153.72,115.61a3.05,3.05,0,0,0-3-3h6.2a3,3,0,0,1,0,6.09h-6.2A3.05,3.05,0,0,0,153.72,115.61Z" style="fill:#f6ce2e;opacity:0.79;mix-blend-mode:multiply"/><rect x="139.51" y="110.92" width="47.48" height="35.55" rx="14.37" transform="translate(326.5 257.39) rotate(180)" style="fill:url(#Degradado_sin_nombre_8-12)"/><path d="M149.45,140.47h18.74a14.42,14.42,0,0,0,14.38-14.38v-6.8a14.33,14.33,0,0,0-1-5.21A14.38,14.38,0,0,1,187,125.29v6.81a14.42,14.42,0,0,1-14.37,14.37H153.88a14.41,14.41,0,0,1-13.37-9.16A14.27,14.27,0,0,0,149.45,140.47Z" style="fill:#30c2c9;opacity:0.43;mix-blend-mode:multiply"/><path d="M152.13,120.83h4.17a3.3,3.3,0,0,0,3.29-3.29h0a3.3,3.3,0,0,0-3.29-3.29h-4.17a3.31,3.31,0,0,0-3.3,3.29h0A3.31,3.31,0,0,0,152.13,120.83Z" style="fill:#30c2c9;opacity:0.43;mix-blend-mode:multiply"/><path d="M146.07,119.9H143.2a1.46,1.46,0,0,0-1.45,1.46h0a1.45,1.45,0,0,0,1.45,1.45h2.87a1.45,1.45,0,0,0,1.45-1.45h0A1.46,1.46,0,0,0,146.07,119.9Z" style="fill:#30c2c9;opacity:0.43;mix-blend-mode:multiply"/><path d="M146.73,116.3h-.92a1.18,1.18,0,0,0-1.17,1.18h0a1.18,1.18,0,0,0,1.17,1.18h.92a1.18,1.18,0,0,0,1.17-1.18h0A1.18,1.18,0,0,0,146.73,116.3Z" style="fill:#30c2c9;opacity:0.43;mix-blend-mode:multiply"/><path d="M161.83,112.53h-.91a1.18,1.18,0,0,0-1.18,1.18h0a1.18,1.18,0,0,0,1.18,1.18h.91a1.18,1.18,0,0,0,1.18-1.18h0A1.18,1.18,0,0,0,161.83,112.53Z" style="fill:#30c2c9;opacity:0.43;mix-blend-mode:multiply"/><path d="M152.39,122.81h-3.53a1.34,1.34,0,0,0-1.34,1.33h0a1.34,1.34,0,0,0,1.34,1.34h3.53a1.34,1.34,0,0,0,1.33-1.34h0A1.34,1.34,0,0,0,152.39,122.81Z" style="fill:#30c2c9;opacity:0.43;mix-blend-mode:multiply"/><path d="M145.52,126.26h-1.27a1.21,1.21,0,0,0-1.22,1.22h0a1.22,1.22,0,0,0,1.22,1.22h1.27a1.22,1.22,0,0,0,1.22-1.22h0A1.22,1.22,0,0,0,145.52,126.26Z" style="fill:#30c2c9;opacity:0.43;mix-blend-mode:multiply"/><path d="M156.11,123.51H158a.82.82,0,0,0,.81-.82h0a.81.81,0,0,0-.81-.81h-1.9a.81.81,0,0,0-.81.81h0A.82.82,0,0,0,156.11,123.51Z" style="fill:#30c2c9;opacity:0.43;mix-blend-mode:multiply"/><path d="M152.77,113.38h1.9a.81.81,0,0,0,.81-.81h0a.82.82,0,0,0-.81-.82h-1.9a.82.82,0,0,0-.81.82h0A.82.82,0,0,0,152.77,113.38Z" style="fill:#30c2c9;opacity:0.43;mix-blend-mode:multiply"/><path d="M150,128.7h1.72a.62.62,0,0,0,.61-.61h0a.61.61,0,0,0-.61-.61H150a.61.61,0,0,0-.61.61h0A.61.61,0,0,0,150,128.7Z" style="fill:#30c2c9;opacity:0.43;mix-blend-mode:multiply"/><path d="M142.44,133.15h1.75a.7.7,0,0,0,.69-.7h0a.7.7,0,0,0-.69-.7h-1.75a.7.7,0,0,0-.69.7h0A.7.7,0,0,0,142.44,133.15Z" style="fill:#30c2c9;opacity:0.43;mix-blend-mode:multiply"/><path d="M119.05,13.16h0A46.87,46.87,0,0,1,165.92,60v50.71a31.52,31.52,0,0,1-31.52,31.52H103.7a31.52,31.52,0,0,1-31.52-31.52V60a46.87,46.87,0,0,1,46.87-46.87Z" style="fill:url(#Degradado_sin_nombre_8-13)"/><path d="M155.63,30.82a46.82,46.82,0,0,1,.42,6.18V87.71a31.61,31.61,0,0,1-31.51,31.52H93.84a31.36,31.36,0,0,1-21.65-8.68v.18a31.61,31.61,0,0,0,31.51,31.52h30.7a31.61,31.61,0,0,0,31.52-31.52V60A46.58,46.58,0,0,0,155.63,30.82Z" style="fill:#30c2c9;opacity:0.43;mix-blend-mode:multiply"/><path d="M224.2,63.94l-2.12-1.2a6.54,6.54,0,0,0-8.87,2.45h0a6.52,6.52,0,0,0,2.46,8.87l2.11,1.2a6.53,6.53,0,0,0,8.87-2.45h0A6.53,6.53,0,0,0,224.2,63.94Z" style="fill:url(#Degradado_sin_nombre_2)"/><path d="M235.5,70.34l-2.12-1.2a6.53,6.53,0,0,0-8.87,2.46h0A6.52,6.52,0,0,0,227,80.46l2.11,1.2A6.53,6.53,0,0,0,238,79.21h0A6.53,6.53,0,0,0,235.5,70.34Z" style="fill:url(#Degradado_sin_nombre_2-2)"/><path d="M214.21,62.72h0a5.65,5.65,0,0,0-7.7,2.13l-4.51,8a5.67,5.67,0,0,0,2.13,7.7h0a5.67,5.67,0,0,0,7.7-2.13l4.51-8A5.66,5.66,0,0,0,214.21,62.72Z" style="fill:url(#Degradado_sin_nombre_2-3)"/><rect x="206.38" y="67.1" width="30.08" height="24.57" rx="6.86" transform="translate(67.9 -98.83) rotate(29.53)" style="fill:url(#Degradado_sin_nombre_8-14)"/><path d="M208.25,86l1.59.91.12-.23,2.81-4.84a6.88,6.88,0,0,1,9.35-2.59l12.63,7.15c1.69-3.24,6.68-8.92-.17-13.71l-14.22-8.06A6.89,6.89,0,0,0,211,67.25l-5.34,9.44A6.88,6.88,0,0,0,208.25,86Z" style="fill:#63244e;opacity:0.30000000000000004;mix-blend-mode:multiply"/><path d="M224.2,63.94l-2.12-1.2a6.54,6.54,0,0,0-8.87,2.45h0a6.52,6.52,0,0,0,2.46,8.87l2.11,1.2a6.53,6.53,0,0,0,8.87-2.45h0A6.53,6.53,0,0,0,224.2,63.94Z" style="fill:url(#Degradado_sin_nombre_8-15)"/><path d="M235.5,70.34l-2.12-1.2a6.53,6.53,0,0,0-8.87,2.46h0A6.52,6.52,0,0,0,227,80.46l2.11,1.2A6.53,6.53,0,0,0,238,79.21h0A6.53,6.53,0,0,0,235.5,70.34Z" style="fill:url(#Degradado_sin_nombre_8-16)"/><path d="M232.75,75l-2.12-1.2a6.5,6.5,0,0,0-5.94-.23,6.49,6.49,0,0,0-3.24-5l-2.12-1.19a6.51,6.51,0,0,0-6.92.33,6.41,6.41,0,0,1,.8-2.57,6.54,6.54,0,0,1,8.87-2.45l2.12,1.2a6.53,6.53,0,0,1,3.25,5,6.48,6.48,0,0,1,5.93.23l2.12,1.2A6.53,6.53,0,0,1,238,79.21,6.41,6.41,0,0,1,236,81.33,6.53,6.53,0,0,0,232.75,75Z" style="fill:#63244e;opacity:0.30000000000000004;mix-blend-mode:multiply"/><path d="M214.21,62.72h0a5.65,5.65,0,0,0-7.7,2.13l-4.51,8a5.67,5.67,0,0,0,2.13,7.7h0a5.67,5.67,0,0,0,7.7-2.13l4.51-8A5.66,5.66,0,0,0,214.21,62.72Z" style="fill:url(#Degradado_sin_nombre_8-17)"/><path d="M205.07,80.92a5.57,5.57,0,0,0,1.08-1.32l4.51-8a5.65,5.65,0,0,0-2.13-7.69,4.92,4.92,0,0,0-.94-.42,5.63,5.63,0,0,1,8.75,6.89l-4.51,8A5.67,5.67,0,0,1,205.07,80.92Z" style="fill:#63244e;opacity:0.30000000000000004;mix-blend-mode:multiply"/><path d="M196.38,6.94,194,6.86a6.52,6.52,0,0,0-6.69,6.32h0a6.52,6.52,0,0,0,6.31,6.69l2.43.07a6.51,6.51,0,0,0,6.69-6.31h0A6.51,6.51,0,0,0,196.38,6.94Z" style="fill:url(#Degradado_sin_nombre_2-4)"/><path d="M209.36,7.32l-2.43-.07a6.52,6.52,0,0,0-6.69,6.31h0a6.51,6.51,0,0,0,6.31,6.69l2.43.07A6.51,6.51,0,0,0,215.67,14h0A6.52,6.52,0,0,0,209.36,7.32Z" style="fill:url(#Degradado_sin_nombre_2-5)"/><path d="M187,10.52h0A5.66,5.66,0,0,0,181.17,16l-.27,9.15A5.66,5.66,0,0,0,186.38,31h0a5.66,5.66,0,0,0,5.81-5.48l.27-9.15A5.67,5.67,0,0,0,187,10.52Z" style="fill:url(#Degradado_sin_nombre_2-6)"/><rect x="186.1" y="9.61" width="30.08" height="24.57" rx="6.86" transform="translate(0.73 -5.9) rotate(1.68)" style="fill:url(#Degradado_sin_nombre_8-18)"/><path d="M192.61,33.93l1.83.06c0-.09,0-.17,0-.26l.23-5.59a6.88,6.88,0,0,1,7.06-6.66l14.51.42c0-3.66,1.73-11-6.56-12l-16.34-.48A6.88,6.88,0,0,0,186.27,16L186,26.87A6.88,6.88,0,0,0,192.61,33.93Z" style="fill:#63244e;opacity:0.30000000000000004;mix-blend-mode:multiply"/><path d="M196.38,6.94,194,6.86a6.52,6.52,0,0,0-6.69,6.32h0a6.52,6.52,0,0,0,6.31,6.69l2.43.07a6.51,6.51,0,0,0,6.69-6.31h0A6.51,6.51,0,0,0,196.38,6.94Z" style="fill:url(#Degradado_sin_nombre_8-19)"/><path d="M209.36,7.32l-2.43-.07a6.52,6.52,0,0,0-6.69,6.31h0a6.51,6.51,0,0,0,6.31,6.69l2.43.07A6.51,6.51,0,0,0,215.67,14h0A6.52,6.52,0,0,0,209.36,7.32Z" style="fill:url(#Degradado_sin_nombre_8-20)"/><path d="M209.12,12.75l-2.43-.07a6.48,6.48,0,0,0-5.36,2.56,6.46,6.46,0,0,0-5.19-2.87l-2.43-.08a6.54,6.54,0,0,0-6,3.53,6.46,6.46,0,0,1-.48-2.64A6.52,6.52,0,0,1,194,6.86l2.43.08a6.52,6.52,0,0,1,5.2,2.87,6.49,6.49,0,0,1,5.35-2.56l2.43.07A6.52,6.52,0,0,1,215.67,14a6.39,6.39,0,0,1-.73,2.79A6.49,6.49,0,0,0,209.12,12.75Z" style="fill:#63244e;opacity:0.30000000000000004;mix-blend-mode:multiply"/><path d="M187,10.52h0A5.66,5.66,0,0,0,181.17,16l-.27,9.15A5.66,5.66,0,0,0,186.38,31h0a5.66,5.66,0,0,0,5.81-5.48l.27-9.15A5.67,5.67,0,0,0,187,10.52Z" style="fill:url(#Degradado_sin_nombre_8-21)"/><path d="M187.41,30.89a5.83,5.83,0,0,0,.33-1.68l.27-9.15a5.66,5.66,0,0,0-5.48-5.81,5.05,5.05,0,0,0-1,.08,5.63,5.63,0,0,1,11,2l-.27,9.15A5.67,5.67,0,0,1,187.41,30.89Z" style="fill:#63244e;opacity:0.30000000000000004;mix-blend-mode:multiply"/><path d="M14.59,63.94l2.12-1.2a6.54,6.54,0,0,1,8.87,2.45h0a6.52,6.52,0,0,1-2.46,8.87L21,75.26a6.53,6.53,0,0,1-8.87-2.45h0A6.53,6.53,0,0,1,14.59,63.94Z" style="fill:url(#Degradado_sin_nombre_2-7)"/><path d="M3.29,70.34l2.12-1.2a6.53,6.53,0,0,1,8.87,2.46h0a6.52,6.52,0,0,1-2.46,8.86l-2.11,1.2A6.53,6.53,0,0,1,.84,79.21h0A6.53,6.53,0,0,1,3.29,70.34Z" style="fill:url(#Degradado_sin_nombre_2-8)"/><path d="M24.58,62.72h0a5.65,5.65,0,0,1,7.7,2.13l4.51,8a5.66,5.66,0,0,1-2.13,7.7h0A5.67,5.67,0,0,1,27,78.38l-4.51-8A5.66,5.66,0,0,1,24.58,62.72Z" style="fill:url(#Degradado_sin_nombre_2-9)"/><rect x="2.34" y="67.1" width="30.08" height="24.57" rx="6.86" transform="translate(71.63 139.89) rotate(150.47)" style="fill:url(#Degradado_sin_nombre_8-22)"/><path d="M30.54,86,29,87a2.53,2.53,0,0,0-.12-.23L26,81.88a6.88,6.88,0,0,0-9.35-2.59L4,86.44c-1.69-3.24-6.68-8.92.17-13.71l14.22-8.06a6.89,6.89,0,0,1,9.36,2.58l5.34,9.44A6.88,6.88,0,0,1,30.54,86Z" style="fill:#63244e;opacity:0.30000000000000004;mix-blend-mode:multiply"/><path d="M14.59,63.94l2.12-1.2a6.54,6.54,0,0,1,8.87,2.45h0a6.52,6.52,0,0,1-2.46,8.87L21,75.26a6.53,6.53,0,0,1-8.87-2.45h0A6.53,6.53,0,0,1,14.59,63.94Z" style="fill:url(#Degradado_sin_nombre_8-23)"/><path d="M3.29,70.34l2.12-1.2a6.53,6.53,0,0,1,8.87,2.46h0a6.52,6.52,0,0,1-2.46,8.86l-2.11,1.2A6.53,6.53,0,0,1,.84,79.21h0A6.53,6.53,0,0,1,3.29,70.34Z" style="fill:url(#Degradado_sin_nombre_8-24)"/><path d="M6.05,75l2.11-1.2a6.5,6.5,0,0,1,5.94-.23,6.49,6.49,0,0,1,3.24-5l2.12-1.19a6.51,6.51,0,0,1,6.92.33,6.41,6.41,0,0,0-.8-2.57,6.54,6.54,0,0,0-8.87-2.45l-2.12,1.2a6.53,6.53,0,0,0-3.25,5,6.48,6.48,0,0,0-5.93.23l-2.12,1.2a6.48,6.48,0,0,0-.5,11A6.52,6.52,0,0,1,6.05,75Z" style="fill:#63244e;opacity:0.30000000000000004;mix-blend-mode:multiply"/><path d="M24.58,62.72h0a5.65,5.65,0,0,1,7.7,2.13l4.51,8a5.66,5.66,0,0,1-2.13,7.7h0A5.67,5.67,0,0,1,27,78.38l-4.51-8A5.66,5.66,0,0,1,24.58,62.72Z" style="fill:url(#Degradado_sin_nombre_8-25)"/><path d="M33.72,80.92a5.57,5.57,0,0,1-1.08-1.32l-4.51-8a5.65,5.65,0,0,1,2.13-7.69,4.92,4.92,0,0,1,.94-.42,5.63,5.63,0,0,0-8.75,6.89l4.51,8A5.67,5.67,0,0,0,33.72,80.92Z" style="fill:#63244e;opacity:0.30000000000000004;mix-blend-mode:multiply"/><path d="M39.94,6.94l2.43-.08a6.54,6.54,0,0,1,6.7,6.32h0a6.53,6.53,0,0,1-6.32,6.69l-2.42.07a6.52,6.52,0,0,1-6.7-6.31h0A6.52,6.52,0,0,1,39.94,6.94Z" style="fill:url(#Degradado_sin_nombre_2-10)"/><path d="M27,7.32l2.43-.07a6.52,6.52,0,0,1,6.7,6.31h0a6.52,6.52,0,0,1-6.32,6.69l-2.43.07A6.52,6.52,0,0,1,20.65,14h0A6.52,6.52,0,0,1,27,7.32Z" style="fill:url(#Degradado_sin_nombre_2-11)"/><path d="M49.35,10.52h0A5.67,5.67,0,0,1,55.16,16l.27,9.15A5.67,5.67,0,0,1,50,31h0a5.66,5.66,0,0,1-5.81-5.48l-.27-9.15A5.66,5.66,0,0,1,49.35,10.52Z" style="fill:url(#Degradado_sin_nombre_2-12)"/><rect x="20.15" y="9.61" width="30.08" height="24.57" rx="6.86" transform="translate(71 42.74) rotate(178.32)" style="fill:url(#Degradado_sin_nombre_8-26)"/><path d="M43.72,33.93,41.88,34c0-.09,0-.17,0-.26l-.22-5.59a6.89,6.89,0,0,0-7.07-6.66l-14.5.42c0-3.66-1.74-11,6.55-12L43,9.37A6.89,6.89,0,0,1,50.06,16l.32,10.84A6.89,6.89,0,0,1,43.72,33.93Z" style="fill:#63244e;opacity:0.30000000000000004;mix-blend-mode:multiply"/><path d="M39.94,6.94l2.43-.08a6.54,6.54,0,0,1,6.7,6.32h0a6.53,6.53,0,0,1-6.32,6.69l-2.42.07a6.52,6.52,0,0,1-6.7-6.31h0A6.52,6.52,0,0,1,39.94,6.94Z" style="fill:url(#Degradado_sin_nombre_8-27)"/><path d="M27,7.32l2.43-.07a6.52,6.52,0,0,1,6.7,6.31h0a6.52,6.52,0,0,1-6.32,6.69l-2.43.07A6.52,6.52,0,0,1,20.65,14h0A6.52,6.52,0,0,1,27,7.32Z" style="fill:url(#Degradado_sin_nombre_8-28)"/><path d="M27.2,12.75l2.43-.07A6.48,6.48,0,0,1,35,15.24a6.5,6.5,0,0,1,5.2-2.87l2.43-.08a6.53,6.53,0,0,1,6,3.53,6.46,6.46,0,0,0,.49-2.64,6.54,6.54,0,0,0-6.7-6.32l-2.43.08a6.49,6.49,0,0,0-5.19,2.87,6.51,6.51,0,0,0-5.36-2.56L27,7.32A6.52,6.52,0,0,0,20.65,14a6.39,6.39,0,0,0,.73,2.79A6.5,6.5,0,0,1,27.2,12.75Z" style="fill:#63244e;opacity:0.30000000000000004;mix-blend-mode:multiply"/><path d="M49.35,10.52h0A5.67,5.67,0,0,1,55.16,16l.27,9.15A5.67,5.67,0,0,1,50,31h0a5.66,5.66,0,0,1-5.81-5.48l-.27-9.15A5.66,5.66,0,0,1,49.35,10.52Z" style="fill:url(#Degradado_sin_nombre_8-29)"/><path d="M48.92,30.89a5.52,5.52,0,0,1-.34-1.68l-.27-9.15a5.67,5.67,0,0,1,5.48-5.81,5,5,0,0,1,1,.08,5.63,5.63,0,0,0-11,2l.27,9.15A5.67,5.67,0,0,0,48.92,30.89Z" style="fill:#63244e;opacity:0.30000000000000004;mix-blend-mode:multiply"/><g style="opacity:0.43;mix-blend-mode:multiply"><path d="M92.73,46c0-.21-.06-.43-.1-.63s0-.26-.08-.38-.09-.37-.14-.55L92.29,44l-.18-.5c-.06-.13-.11-.26-.16-.38s-.15-.32-.23-.48-.12-.24-.19-.36-.2-.34-.3-.51-.24-.37-.37-.55-.19-.26-.3-.39h0a10.27,10.27,0,0,0-18.27,5.77h0c0,.22,0,.44,0,.66a10.28,10.28,0,1,0,20.56,0c0-.33,0-.66,0-1C92.76,46.19,92.74,46.09,92.73,46Z" style="fill:#30c2c9"/><path d="M92.73,71.4c0-.22-.06-.43-.1-.64s0-.25-.08-.37-.09-.37-.14-.55l-.12-.39-.18-.5c-.06-.13-.11-.26-.16-.39s-.15-.31-.23-.47-.12-.25-.19-.37-.2-.34-.3-.5-.24-.37-.37-.55-.19-.27-.3-.39h0a10.27,10.27,0,0,0-18.27,5.77h0c0,.22,0,.44,0,.66a10.28,10.28,0,0,0,20.56,0c0-.33,0-.66,0-1C92.76,71.61,92.74,71.5,92.73,71.4Z" style="fill:#30c2c9"/><path d="M92.73,96.81c0-.21-.06-.42-.1-.63s0-.25-.08-.38-.09-.36-.14-.54l-.12-.39-.18-.5c-.06-.13-.11-.26-.16-.39s-.15-.32-.23-.47-.12-.25-.19-.37-.2-.34-.3-.5-.25-.37-.38-.55a3.69,3.69,0,0,0-.29-.4h0a10.27,10.27,0,0,0-18.27,5.77h0c0,.21,0,.43,0,.66a10.28,10.28,0,1,0,20.56,0c0-.33,0-.66,0-1C92.76,97,92.74,96.92,92.73,96.81Z" style="fill:#30c2c9"/><path d="M116.61,46c0-.21-.06-.43-.1-.63s-.05-.26-.08-.38-.09-.37-.14-.55l-.12-.39c-.06-.17-.12-.33-.19-.5l-.15-.38-.23-.48c-.06-.12-.12-.24-.19-.36a5.33,5.33,0,0,0-.31-.51,6.61,6.61,0,0,0-.37-.55l-.29-.39h0a10.27,10.27,0,0,0-18.27,5.77h0c0,.22,0,.44,0,.66a10.28,10.28,0,0,0,20.56,0c0-.33,0-.66,0-1C116.64,46.19,116.62,46.09,116.61,46Z" style="fill:#30c2c9"/><path d="M116.61,71.4c0-.22-.06-.43-.1-.64s-.05-.25-.08-.37-.09-.37-.14-.55l-.12-.39c-.06-.17-.12-.34-.19-.5l-.15-.39-.23-.47c-.06-.12-.12-.25-.19-.37a5.19,5.19,0,0,0-.31-.5,6.61,6.61,0,0,0-.37-.55c-.09-.13-.19-.27-.29-.39h0a10.27,10.27,0,0,0-18.27,5.77h0c0,.22,0,.44,0,.66a10.28,10.28,0,0,0,20.56,0c0-.33,0-.66,0-1C116.64,71.61,116.62,71.5,116.61,71.4Z" style="fill:#30c2c9"/><path d="M116.61,96.81c0-.21-.06-.42-.1-.63s-.05-.25-.08-.38-.09-.36-.14-.54l-.12-.39c-.06-.17-.12-.34-.19-.5l-.15-.39c-.08-.16-.15-.32-.23-.47s-.12-.25-.19-.37-.2-.34-.31-.51-.24-.36-.37-.54l-.29-.4h0a10.27,10.27,0,0,0-18.27,5.77h0c0,.21,0,.43,0,.66a10.28,10.28,0,0,0,20.56,0c0-.33,0-.66,0-1C116.64,97,116.62,96.92,116.61,96.81Z" style="fill:#30c2c9"/><path d="M140.48,46c0-.21,0-.43-.09-.63L140.3,45a4.92,4.92,0,0,0-.14-.55A2.91,2.91,0,0,0,140,44c0-.17-.12-.33-.18-.5s-.1-.26-.16-.38-.15-.32-.23-.48l-.18-.36c-.1-.18-.2-.34-.31-.51s-.24-.37-.37-.55l-.29-.39h0a10.27,10.27,0,0,0-18.27,5.77h0q0,.33,0,.66a10.29,10.29,0,0,0,20.57,0c0-.33,0-.66-.05-1C140.52,46.19,140.5,46.09,140.48,46Z" style="fill:#30c2c9"/><path d="M140.48,71.4c0-.22,0-.43-.09-.64l-.09-.37a4.92,4.92,0,0,0-.14-.55,2.91,2.91,0,0,0-.12-.39c0-.17-.12-.34-.18-.5s-.1-.26-.16-.39-.15-.31-.23-.47l-.18-.37c-.1-.17-.2-.34-.31-.5s-.24-.37-.37-.55-.19-.27-.29-.39h0a10.27,10.27,0,0,0-18.27,5.77h0q0,.33,0,.66a10.29,10.29,0,0,0,20.57,0c0-.33,0-.66-.05-1A3.06,3.06,0,0,0,140.48,71.4Z" style="fill:#30c2c9"/><path d="M140.48,96.81q0-.32-.09-.63l-.09-.38a5.36,5.36,0,0,0-.14-.54,2.91,2.91,0,0,0-.12-.39c0-.17-.12-.34-.18-.5s-.1-.26-.16-.39-.15-.32-.22-.47l-.19-.37c-.1-.17-.2-.34-.31-.5s-.24-.37-.37-.55l-.29-.4h0a10.27,10.27,0,0,0-18.27,5.77h0q0,.32,0,.66a10.29,10.29,0,0,0,20.57,0c0-.33,0-.66-.05-1C140.52,97,140.5,96.92,140.48,96.81Z" style="fill:#30c2c9"/><path d="M154.17,57.56a10.28,10.28,0,0,0,10.28-10.28c0-.33,0-.66,0-1,0-.11,0-.21,0-.32s-.06-.43-.1-.63,0-.26-.08-.38-.09-.37-.14-.55l-.12-.39-.18-.5c-.05-.13-.1-.26-.16-.38s-.15-.32-.23-.48l-.18-.36c-.1-.18-.21-.34-.31-.51s-.24-.37-.37-.55l-.29-.39h0a10.27,10.27,0,0,0-18.27,5.77h0c0,.22,0,.44,0,.66A10.28,10.28,0,0,0,154.17,57.56Z" style="fill:#30c2c9"/><path d="M164.36,71.4c0-.22-.06-.43-.1-.64s0-.25-.08-.37-.09-.37-.14-.55l-.12-.39-.18-.5c-.05-.13-.1-.26-.16-.39s-.15-.31-.23-.47l-.18-.37-.31-.5c-.12-.19-.24-.37-.37-.55s-.19-.27-.29-.39h0a10.27,10.27,0,0,0-18.27,5.77h0c0,.22,0,.44,0,.66a10.28,10.28,0,0,0,20.56,0c0-.33,0-.66,0-1C164.39,71.61,164.37,71.5,164.36,71.4Z" style="fill:#30c2c9"/><path d="M164.36,96.81c0-.21-.06-.42-.1-.63s0-.25-.08-.38-.09-.36-.14-.54l-.12-.39-.18-.5c-.05-.13-.1-.26-.16-.39s-.15-.32-.23-.47l-.18-.37-.31-.51-.37-.54-.29-.4h0a10.27,10.27,0,0,0-18.27,5.77h0c0,.21,0,.43,0,.66a10.28,10.28,0,0,0,20.56,0c0-.33,0-.66,0-1C164.39,97,164.37,96.92,164.36,96.81Z" style="fill:#30c2c9"/></g><path d="M92.82,44A10.28,10.28,0,1,1,82.54,33.71,10.29,10.29,0,0,1,92.82,44Z" style="fill:#e7feff"/><path d="M88,44a5.42,5.42,0,1,1-5.42-5.41A5.42,5.42,0,0,1,88,44Z" style="fill:#db15f0"/><path d="M83.82,44c0,2-.56,3.61-1.26,3.61S81.3,46,81.3,44s.56-3.61,1.26-3.61S83.82,42,83.82,44Z" style="fill:#0e393a"/><path d="M90.57,37.57a10.28,10.28,0,0,1-18.29,5.76c0,.22,0,.44,0,.66a10.28,10.28,0,1,0,18.31-6.42Z" style="fill:#d2e7e8;mix-blend-mode:multiply"/><path d="M88,41.09a1.9,1.9,0,1,1-1.89-1.89A1.89,1.89,0,0,1,88,41.09Z" style="fill:#fff"/><path d="M84.68,44a.86.86,0,1,1-.86-.85A.85.85,0,0,1,84.68,44Z" style="fill:#fff"/><path d="M92.82,69.41A10.28,10.28,0,1,1,82.54,59.13,10.28,10.28,0,0,1,92.82,69.41Z" style="fill:#e7feff"/><path d="M88,69.41A5.42,5.42,0,1,1,82.54,64,5.42,5.42,0,0,1,88,69.41Z" style="fill:#db15f0"/><path d="M83.82,69.41c0,2-.56,3.61-1.26,3.61S81.3,71.4,81.3,69.41s.56-3.61,1.26-3.61S83.82,67.42,83.82,69.41Z" style="fill:#0e393a"/><path d="M90.57,63a10.28,10.28,0,0,1-18.29,5.76c0,.22,0,.44,0,.66A10.28,10.28,0,1,0,90.57,63Z" style="fill:#d2e7e8;mix-blend-mode:multiply"/><path d="M88,66.51a1.9,1.9,0,1,1-1.89-1.9A1.89,1.89,0,0,1,88,66.51Z" style="fill:#fff"/><path d="M84.68,69.41a.86.86,0,1,1-.86-.86A.86.86,0,0,1,84.68,69.41Z" style="fill:#fff"/><path d="M92.82,94.83A10.28,10.28,0,1,1,82.54,84.55,10.28,10.28,0,0,1,92.82,94.83Z" style="fill:#e7feff"/><path d="M88,94.83a5.42,5.42,0,1,1-5.42-5.42A5.42,5.42,0,0,1,88,94.83Z" style="fill:#db15f0"/><path d="M83.82,94.83c0,2-.56,3.61-1.26,3.61s-1.26-1.62-1.26-3.61.56-3.61,1.26-3.61S83.82,92.83,83.82,94.83Z" style="fill:#0e393a"/><path d="M90.57,88.4a10.29,10.29,0,0,1-18.29,5.77c0,.22,0,.44,0,.66A10.28,10.28,0,1,0,90.57,88.4Z" style="fill:#d2e7e8;mix-blend-mode:multiply"/><path d="M88,91.92A1.9,1.9,0,1,1,86.07,90,1.89,1.89,0,0,1,88,91.92Z" style="fill:#fff"/><path d="M84.68,94.83a.86.86,0,1,1-.86-.86A.86.86,0,0,1,84.68,94.83Z" style="fill:#fff"/><circle cx="106.42" cy="43.99" r="10.28" style="fill:#e7feff"/><path d="M111.84,44a5.42,5.42,0,1,1-5.42-5.41A5.42,5.42,0,0,1,111.84,44Z" style="fill:#db15f0"/><path d="M107.7,44c0,2-.57,3.61-1.26,3.61S105.18,46,105.18,44s.56-3.61,1.26-3.61S107.7,42,107.7,44Z" style="fill:#0e393a"/><path d="M114.44,37.57a10.27,10.27,0,0,1-18.28,5.76c0,.22,0,.44,0,.66a10.28,10.28,0,1,0,18.3-6.42Z" style="fill:#d2e7e8;mix-blend-mode:multiply"/><path d="M111.84,41.09a1.9,1.9,0,1,1-1.9-1.89A1.9,1.9,0,0,1,111.84,41.09Z" style="fill:#fff"/><path d="M108.56,44a.86.86,0,1,1-.86-.85A.86.86,0,0,1,108.56,44Z" style="fill:#fff"/><circle cx="106.42" cy="69.41" r="10.28" style="fill:#e7feff"/><path d="M111.84,69.41A5.42,5.42,0,1,1,106.42,64,5.42,5.42,0,0,1,111.84,69.41Z" style="fill:#db15f0"/><path d="M107.7,69.41c0,2-.57,3.61-1.26,3.61s-1.26-1.62-1.26-3.61.56-3.61,1.26-3.61S107.7,67.42,107.7,69.41Z" style="fill:#0e393a"/><path d="M114.44,63a10.27,10.27,0,0,1-18.28,5.76c0,.22,0,.44,0,.66A10.28,10.28,0,1,0,114.44,63Z" style="fill:#d2e7e8;mix-blend-mode:multiply"/><path d="M111.84,66.51a1.9,1.9,0,1,1-1.9-1.9A1.9,1.9,0,0,1,111.84,66.51Z" style="fill:#fff"/><path d="M108.56,69.41a.86.86,0,1,1-.86-.86A.87.87,0,0,1,108.56,69.41Z" style="fill:#fff"/><circle cx="106.42" cy="94.83" r="10.28" style="fill:#e7feff"/><path d="M111.84,94.83a5.42,5.42,0,1,1-5.42-5.42A5.42,5.42,0,0,1,111.84,94.83Z" style="fill:#db15f0"/><path d="M107.7,94.83c0,2-.57,3.61-1.26,3.61s-1.26-1.62-1.26-3.61.56-3.61,1.26-3.61S107.7,92.83,107.7,94.83Z" style="fill:#0e393a"/><path d="M114.44,88.4a10.28,10.28,0,0,1-18.28,5.77c0,.22,0,.44,0,.66a10.28,10.28,0,1,0,18.3-6.43Z" style="fill:#d2e7e8;mix-blend-mode:multiply"/><path d="M111.84,91.92a1.9,1.9,0,1,1-1.9-1.89A1.89,1.89,0,0,1,111.84,91.92Z" style="fill:#fff"/><path d="M108.56,94.83a.86.86,0,1,1-.86-.86A.87.87,0,0,1,108.56,94.83Z" style="fill:#fff"/><path d="M140.58,44a10.29,10.29,0,1,1-10.29-10.28A10.29,10.29,0,0,1,140.58,44Z" style="fill:#e7feff"/><path d="M135.71,44a5.42,5.42,0,1,1-5.42-5.41A5.41,5.41,0,0,1,135.71,44Z" style="fill:#db15f0"/><path d="M131.58,44c0,2-.57,3.61-1.27,3.61S129.05,46,129.05,44s.57-3.61,1.26-3.61S131.58,42,131.58,44Z" style="fill:#0e393a"/><path d="M138.32,37.57A10.27,10.27,0,0,1,120,43.33q0,.33,0,.66a10.29,10.29,0,1,0,18.31-6.42Z" style="fill:#d2e7e8;mix-blend-mode:multiply"/><path d="M135.71,41.09a1.89,1.89,0,1,1-1.89-1.89A1.89,1.89,0,0,1,135.71,41.09Z" style="fill:#fff"/><path d="M132.43,44a.86.86,0,1,1-.85-.85A.85.85,0,0,1,132.43,44Z" style="fill:#fff"/><path d="M140.58,69.41a10.29,10.29,0,1,1-10.29-10.28A10.29,10.29,0,0,1,140.58,69.41Z" style="fill:#e7feff"/><path d="M135.71,69.41A5.42,5.42,0,1,1,130.29,64,5.42,5.42,0,0,1,135.71,69.41Z" style="fill:#db15f0"/><path d="M131.58,69.41c0,2-.57,3.61-1.27,3.61s-1.26-1.62-1.26-3.61.57-3.61,1.26-3.61S131.58,67.42,131.58,69.41Z" style="fill:#0e393a"/><path d="M138.32,63A10.27,10.27,0,0,1,120,68.75q0,.33,0,.66A10.29,10.29,0,1,0,138.32,63Z" style="fill:#d2e7e8;mix-blend-mode:multiply"/><path d="M135.71,66.51a1.89,1.89,0,1,1-1.89-1.9A1.89,1.89,0,0,1,135.71,66.51Z" style="fill:#fff"/><path d="M132.43,69.41a.86.86,0,1,1-.85-.86A.86.86,0,0,1,132.43,69.41Z" style="fill:#fff"/><path d="M140.58,94.83a10.29,10.29,0,1,1-10.29-10.28A10.29,10.29,0,0,1,140.58,94.83Z" style="fill:#e7feff"/><path d="M135.71,94.83a5.42,5.42,0,1,1-5.42-5.42A5.42,5.42,0,0,1,135.71,94.83Z" style="fill:#db15f0"/><path d="M131.58,94.83c0,2-.57,3.61-1.27,3.61s-1.26-1.62-1.26-3.61.57-3.61,1.26-3.61S131.58,92.83,131.58,94.83Z" style="fill:#0e393a"/><path d="M138.32,88.4A10.28,10.28,0,0,1,120,94.17q0,.33,0,.66a10.29,10.29,0,1,0,18.31-6.43Z" style="fill:#d2e7e8;mix-blend-mode:multiply"/><path d="M135.71,91.92A1.89,1.89,0,1,1,133.82,90,1.88,1.88,0,0,1,135.71,91.92Z" style="fill:#fff"/><path d="M132.43,94.83a.86.86,0,1,1-.85-.86A.86.86,0,0,1,132.43,94.83Z" style="fill:#fff"/><path d="M164.45,44a10.28,10.28,0,1,1-10.28-10.28A10.29,10.29,0,0,1,164.45,44Z" style="fill:#e7feff"/><path d="M159.59,44a5.42,5.42,0,1,1-5.42-5.41A5.42,5.42,0,0,1,159.59,44Z" style="fill:#db15f0"/><path d="M155.45,44c0,2-.56,3.61-1.26,3.61S152.93,46,152.93,44s.56-3.61,1.26-3.61S155.45,42,155.45,44Z" style="fill:#0e393a"/><path d="M162.2,37.57a10.28,10.28,0,0,1-18.29,5.76c0,.22,0,.44,0,.66a10.28,10.28,0,1,0,18.31-6.42Z" style="fill:#d2e7e8;mix-blend-mode:multiply"/><path d="M159.59,41.09a1.9,1.9,0,1,1-1.89-1.89A1.89,1.89,0,0,1,159.59,41.09Z" style="fill:#fff"/><path d="M156.31,44a.86.86,0,1,1-.86-.85A.85.85,0,0,1,156.31,44Z" style="fill:#fff"/><path d="M164.45,69.41a10.28,10.28,0,1,1-10.28-10.28A10.28,10.28,0,0,1,164.45,69.41Z" style="fill:#e7feff"/><path d="M159.59,69.41A5.42,5.42,0,1,1,154.17,64,5.42,5.42,0,0,1,159.59,69.41Z" style="fill:#db15f0"/><path d="M155.45,69.41c0,2-.56,3.61-1.26,3.61s-1.26-1.62-1.26-3.61.56-3.61,1.26-3.61S155.45,67.42,155.45,69.41Z" style="fill:#0e393a"/><path d="M162.2,63a10.28,10.28,0,0,1-18.29,5.76c0,.22,0,.44,0,.66A10.28,10.28,0,1,0,162.2,63Z" style="fill:#d2e7e8;mix-blend-mode:multiply"/><path d="M159.59,66.51a1.9,1.9,0,1,1-1.89-1.9A1.89,1.89,0,0,1,159.59,66.51Z" style="fill:#fff"/><path d="M156.31,69.41a.86.86,0,1,1-.86-.86A.86.86,0,0,1,156.31,69.41Z" style="fill:#fff"/><path d="M164.45,94.83a10.28,10.28,0,1,1-10.28-10.28A10.28,10.28,0,0,1,164.45,94.83Z" style="fill:#e7feff"/><path d="M159.59,94.83a5.42,5.42,0,1,1-5.42-5.42A5.42,5.42,0,0,1,159.59,94.83Z" style="fill:#db15f0"/><path d="M155.45,94.83c0,2-.56,3.61-1.26,3.61s-1.26-1.62-1.26-3.61.56-3.61,1.26-3.61S155.45,92.83,155.45,94.83Z" style="fill:#0e393a"/><path d="M162.2,88.4a10.29,10.29,0,0,1-18.29,5.77c0,.22,0,.44,0,.66A10.28,10.28,0,1,0,162.2,88.4Z" style="fill:#d2e7e8;mix-blend-mode:multiply"/><path d="M159.59,91.92A1.9,1.9,0,1,1,157.7,90,1.89,1.89,0,0,1,159.59,91.92Z" style="fill:#fff"/><path d="M156.31,94.83a.86.86,0,1,1-.86-.86A.86.86,0,0,1,156.31,94.83Z" style="fill:#fff"/><path d="M118.2,117.89A18.76,18.76,0,0,1,107,114.18a4.75,4.75,0,0,0-7.64,3.73,18.86,18.86,0,0,0,37.72,0v-.11a4.73,4.73,0,0,0-7.63-3.6A18.77,18.77,0,0,1,118.2,117.89Z" style="fill:#190839"/><path d="M126.6,124.57c0,3.15-3.65,5.71-8.15,5.71s-8.15-2.56-8.15-5.71,3.65-5.71,8.15-5.71S126.6,121.41,126.6,124.57Z"/><path d="M132.68,130c-2-3.47-7.58-6-14.19-6-6.88,0-12.65,2.71-14.41,6.4a18.84,18.84,0,0,0,28.6-.42Z" style="fill:#331072"/><path d="M137.06,117.78a4.45,4.45,0,0,0-1.47-3.32l-1.89,5.24L132.49,123a2.22,2.22,0,0,1-4.18,0l-1.2-3.33-1.25-3.45a18.71,18.71,0,0,1-15.56-.11L109,119.7l-1.2,3.33a2.23,2.23,0,0,1-4.19,0l-1.2-3.33-1.81-5a4.64,4.64,0,0,0-1.27,3.22,18.86,18.86,0,0,0,7.33,14.88v0l.9-2.48a1.66,1.66,0,0,1,3.12,0l.89,2.48,1.15,3.18a18.61,18.61,0,0,0,3.35.69,19.11,19.11,0,0,0,6.35-.37l1.26-3.5.9-2.48a1.66,1.66,0,0,1,3.12,0l.9,2.48.24.66a18.83,18.83,0,0,0,8.2-15.53Z" style="fill:none"/><path d="M103.62,123a2.23,2.23,0,0,0,4.19,0l1.2-3.33,1.29-3.56a18.7,18.7,0,0,1-3.32-2,4.82,4.82,0,0,0-6.37.51l1.81,5Z" style="fill:#fcedb6"/><path d="M108.44,117.71l.77-2.12a17.82,17.82,0,0,1-2.23-1.41,4.82,4.82,0,0,0-6.37.51l1.81,5,.06.17A4.12,4.12,0,0,0,108.44,117.71Z" style="fill:#e3cf88"/><path d="M110.7,130.28a1.66,1.66,0,0,0-3.12,0l-.9,2.48v0a18.88,18.88,0,0,0,6.07,3.15l-1.15-3.18Z" style="fill:#fcedb6"/><path d="M110.75,133.86l-.89-2.49a1.66,1.66,0,0,0-2.36-.88l-.82,2.27v0a19.07,19.07,0,0,0,4.65,2.64Z" style="fill:#e3cf88"/><path d="M127.72,130.28a1.66,1.66,0,0,0-3.12,0l-.9,2.48-1.26,3.5a18.76,18.76,0,0,0,6.42-2.84l-.24-.66Z" style="fill:#fcedb6"/><path d="M123.51,136a18.71,18.71,0,0,0,5.35-2.55l-.24-.66-.89-2.47a1.67,1.67,0,0,0-2.47.83l-.9,2.49Z" style="fill:#e3cf88"/><path d="M128.31,123a2.22,2.22,0,0,0,4.18,0l1.21-3.33,1.89-5.24a4.84,4.84,0,0,0-6.16-.28,18.36,18.36,0,0,1-3.57,2.07l1.25,3.45Z" style="fill:#fcedb6"/><path d="M129.43,114.18a18.19,18.19,0,0,1-2.84,1.72L127,117a4.27,4.27,0,0,0,7.17,1.42l1.43-4A4.84,4.84,0,0,0,129.43,114.18Z" style="fill:#e3cf88"/><path d="M124.86,127.7c0,1.16-2.89,2.1-6.45,2.1s-6.46-.94-6.46-2.1,2.89-2.1,6.46-2.1S124.86,126.54,124.86,127.7Z" style="fill:#844ce9"/><path d="M132.34,113.21h.36a5.68,5.68,0,0,1,.72.11h.05l.06,0a4.65,4.65,0,0,1,.69.23h0a4.87,4.87,0,0,1,1.34.86h0a4.41,4.41,0,0,1,.58.64l0,0a5.24,5.24,0,0,1,.45.76s0,0,0,0a4.27,4.27,0,0,1,.24.74,1.6,1.6,0,0,1,.05.21,4.33,4.33,0,0,1,.1.89h0v.11c0,.63,0,1.24-.1,1.86l0,.31c-.06.57-.16,1.13-.27,1.69l-.09.39c-.13.54-.27,1.07-.44,1.59,0,.13-.09.26-.14.39-.14.42-.31.83-.48,1.23-.08.17-.15.35-.23.52-.19.4-.39.8-.61,1.18-.12.22-.24.43-.37.63-.22.36-.45.72-.69,1.06s-.35.48-.53.71l-.39.47,0,0v0c-.09.12-.2.23-.3.34l-.32.36c-.35.38-.71.74-1.08,1.09l-.36.31c-.39.35-.8.69-1.22,1l-.24.17c-.4.28-.81.55-1.22.8l-.34.2c-.46.27-.94.51-1.43.74l-.38.17c-.5.23-1,.43-1.54.61l-.28.09c-.52.16-1,.31-1.57.43l-.21,0c-.57.12-1.15.21-1.74.28l-.35,0-.68.06h-.22c-.29,0-.58,0-.88,0h-.73c-.49,0-1,0-1.5-.1h0c-.57-.06-1.12-.15-1.67-.26l-.51-.13c-.38-.09-.76-.18-1.13-.29l-.55-.18-1-.37-.53-.24c-.34-.14-.67-.3-1-.46l-.49-.26c-.33-.19-.66-.38-1-.58l-.42-.27c-.34-.23-.67-.46-1-.71l-.33-.25c-.36-.29-.7-.58-1-.89l-.21-.19a18.66,18.66,0,0,1-3.27-4.12l-.15-.25c-.23-.41-.45-.82-.65-1.24-.07-.15-.13-.3-.2-.44-.17-.38-.32-.76-.46-1.15-.06-.18-.13-.35-.19-.52-.13-.4-.24-.8-.34-1.2,0-.17-.1-.33-.14-.5a16.65,16.65,0,0,1-.31-1.74,18.91,18.91,0,0,1-.17-2.48,5.83,5.83,0,0,1,.08-.85c0-.08,0-.14,0-.21a4.32,4.32,0,0,1,.19-.64s0-.1,0-.14a4.77,4.77,0,0,1,.9-1.38h0a5.3,5.3,0,0,1,.63-.54l0,0a4.91,4.91,0,0,1,1.47-.72l.08,0a5.42,5.42,0,0,1,.7-.14h.14a3.1,3.1,0,0,1,.43,0,4.6,4.6,0,0,1,1.16.14l.21.06a5.24,5.24,0,0,1,.58.22l.22.1a5.05,5.05,0,0,1,.73.44h0c.45.33.92.63,1.39.92l.51.29c.46.27.93.52,1.42.75a18.55,18.55,0,0,0,3.7,1.26l.27.06c.51.11,1,.2,1.57.26l.46.06c.62.06,1.25.11,1.9.11h0c.62,0,1.23,0,1.84-.1l.48-.06c.48-.06,1-.14,1.41-.23l.4-.08a19.13,19.13,0,0,0,3.52-1.17h0c.47-.21.92-.45,1.36-.69l.66-.36c.53-.32,1.05-.65,1.55-1h0a4.71,4.71,0,0,1,.7-.43l.22-.1q.27-.12.54-.21l.22-.07q.31-.08.63-.12l.12,0,.48,0m0-4.67c-.31,0-.63,0-.94,0l-.18,0-.15,0a10.44,10.44,0,0,0-1.14.22l-.45.14a9.15,9.15,0,0,0-1.06.4l-.42.2a9.38,9.38,0,0,0-1.35.84c-.32.23-.7.48-1.16.75l-.3.17-.19.1c-.41.22-.75.41-1,.54a14.19,14.19,0,0,1-2.65.87l-.2,0-.09,0c-.36.07-.71.13-1.07.17l-.19,0-.16,0c-.53,0-1,.07-1.39.07h0a12.81,12.81,0,0,1-1.43-.08l-.19,0-.16,0c-.42-.06-.81-.12-1.17-.2l-.18,0a13.87,13.87,0,0,1-2.81-.95c-.37-.17-.76-.39-1.09-.57l-.39-.23c-.43-.27-.75-.47-1-.67a9.28,9.28,0,0,0-1.41-.86l-.41-.19a10.47,10.47,0,0,0-1.16-.44l-.42-.12a9.83,9.83,0,0,0-2.29-.28c-.28,0-.57,0-.86,0l-.29,0a8.93,8.93,0,0,0-1.35.26l-.17.05a9.27,9.27,0,0,0-2.89,1.42l-.07,0,0,0a9,9,0,0,0-3,3.84q-.06.13-.12.3a9.88,9.88,0,0,0-.38,1.27l-.09.41a10,10,0,0,0-.15,1.68,24.62,24.62,0,0,0,.2,3.08,21.92,21.92,0,0,0,.4,2.17c0,.18.08.35.13.52l0,.11c.13.5.27,1,.44,1.5.06.19.13.38.2.57l0,.08c.18.49.37,1,.58,1.44.08.19.17.37.25.55.25.51.52,1,.81,1.55l.19.33a23.39,23.39,0,0,0,4.08,5.12l.23.22c.46.42.88.78,1.3,1.12l.33.25.08.06c.41.31.82.61,1.24.89l.52.33c.4.26.81.5,1.23.73l.6.32c.41.21.83.4,1.25.58l.1.05.57.24c.42.17.85.32,1.29.47l.13,0,.56.19c.47.14.94.25,1.41.36l.1,0,.54.12a20.69,20.69,0,0,0,2.1.33c.57.07,1.18.11,1.86.13h.84c.43,0,.79,0,1.15,0h.29l.83-.07.4,0c.83-.1,1.54-.22,2.21-.36l.29-.07c.63-.15,1.29-.33,1.94-.53l.35-.11c.62-.22,1.25-.46,1.93-.76l.47-.21c.64-.3,1.23-.61,1.79-.93l.33-.2.08-.05c.54-.33,1.05-.66,1.53-1l.29-.21c.49-.36,1-.76,1.53-1.25l.45-.39c.46-.43.92-.88,1.34-1.35l.35-.39.06-.06.06-.08c.11-.11.21-.23.31-.35l2.08-2.49-.13-.22.07-.12c.16-.26.31-.52.46-.79.29-.52.54-1,.76-1.48q.13-.27.24-.54l.05-.1c.21-.5.42-1,.6-1.54l0-.09c0-.13.1-.26.14-.4.2-.61.38-1.26.55-2,0-.17.08-.33.11-.5.15-.7.26-1.41.34-2.11,0-.11,0-.21,0-.31a23.93,23.93,0,0,0,.13-2.39v-.14a9.24,9.24,0,0,0-.18-1.77c0-.15-.07-.29-.1-.43a11.06,11.06,0,0,0-.44-1.34l0-.08-.1-.21a9.5,9.5,0,0,0-.91-1.55l-.07-.08,0-.05a8.87,8.87,0,0,0-1.14-1.24,9.28,9.28,0,0,0-2.66-1.7l-.1,0-.05,0c-.32-.13-.65-.24-1-.34l-.07,0-.3-.08-.28-.06q-.47-.09-.93-.15h-.07l-.32,0h-.63Z" style="fill:#db15f0"/><path d="M141.45,118.28a11.22,11.22,0,0,0-.44-1.35l0-.08-.1-.2a9.5,9.5,0,0,0-.91-1.55l-.07-.09,0,0a8.87,8.87,0,0,0-1.14-1.24,9.31,9.31,0,0,0-2.66-1.71l-.1,0-.05,0a8.68,8.68,0,0,0-1-.33l-.07,0-.3-.07a2.8,2.8,0,0,0-.28-.06,7.5,7.5,0,0,0-.93-.15h-.07l-.32,0h-.63c-.31,0-.63,0-.94,0l-.18,0-.15,0a10.45,10.45,0,0,0-1.14.23l-.45.13a9.24,9.24,0,0,0-1.06.41l-.42.2a9.34,9.34,0,0,0-1.35.83,12.36,12.36,0,0,1-1.16.76l-.3.16-.19.11c-.41.22-.75.4-1,.53a14.21,14.21,0,0,1-2.65.88l-.2,0-.09,0c-.36.07-.71.12-1.07.17l-.19,0-.16,0c-.53,0-1,.08-1.39.08h0c-.42,0-.89,0-1.43-.08l-.19,0-.16,0c-.42,0-.81-.12-1.17-.19l-.18,0a14.54,14.54,0,0,1-2.81-1c-.37-.17-.76-.38-1.09-.57l-.39-.22c-.43-.27-.75-.48-1-.67a10.2,10.2,0,0,0-1.41-.87l-.41-.19a10.35,10.35,0,0,0-1.16-.43l-.42-.12a9.83,9.83,0,0,0-2.29-.28,8.38,8.38,0,0,0-.86,0l-.29,0a10.4,10.4,0,0,0-1.35.27l-.17,0a9.27,9.27,0,0,0-2.89,1.42l-.07,0,0,0a9.29,9.29,0,0,0-1.2,1.06A9.09,9.09,0,0,0,95.41,117a3.11,3.11,0,0,0-.12.3,9.27,9.27,0,0,0-.38,1.26c0,.15-.06.28-.09.42s0,.52-.07.79.07.82.12,1.24a21.92,21.92,0,0,0,.4,2.17c0,.18.08.35.13.52l0,.11c.13.5.27,1,.44,1.5.06.19.13.38.2.57l0,.08c.18.49.37,1,.58,1.44.08.19.17.37.25.55.25.51.52,1,.81,1.55l.19.33a23.39,23.39,0,0,0,4.08,5.12l.23.22c.46.42.88.78,1.3,1.12l.33.25.08.06c.41.31.82.61,1.24.89l.52.33c.4.26.81.5,1.23.73l.6.32c.41.21.83.4,1.25.58l.1.05.57.24c.42.17.85.32,1.29.47l.13,0,.56.19c.47.14.94.25,1.41.36l.1,0,.54.12a20.69,20.69,0,0,0,2.1.33c.57.07,1.18.11,1.86.13h.84c.43,0,.79,0,1.15,0h.29l.83-.07.4,0c.83-.1,1.54-.22,2.21-.36l.29-.07c.63-.15,1.29-.33,1.94-.53l.35-.11c.62-.22,1.25-.46,1.93-.76l.47-.21c.64-.3,1.23-.61,1.79-.93l.33-.2.08-.05c.54-.33,1.05-.66,1.53-1l.29-.21c.49-.36,1-.76,1.53-1.25l.45-.39c.46-.43.92-.88,1.34-1.35l.35-.39.06-.06.06-.08c.11-.11.21-.23.31-.35l2.08-2.49-.13-.22.07-.12c.16-.26.31-.52.46-.79.29-.52.54-1,.76-1.48q.13-.27.24-.54l.05-.1c.21-.5.42-1,.6-1.54l0-.09c0-.13.1-.26.14-.4.2-.61.38-1.26.55-2,0-.17.08-.33.11-.5.15-.7.26-1.41.34-2.11,0-.11,0-.21,0-.31s0-.4.05-.59,0-.64-.1-1C141.52,118.56,141.48,118.42,141.45,118.28Zm-4.39,2.23h0v.1c0,.63,0,1.25-.1,1.86l0,.31c-.06.58-.16,1.14-.27,1.7l-.09.39c-.13.54-.27,1.07-.44,1.59,0,.13-.09.25-.14.38-.14.42-.31.83-.48,1.24l-.23.51c-.19.41-.39.8-.61,1.19-.12.21-.24.42-.37.63-.22.36-.45.71-.69,1.06s-.35.47-.53.71l-.39.47,0,0v0l-.3.34-.32.36c-.35.37-.71.74-1.08,1.08l-.36.32c-.39.35-.8.68-1.22,1l-.24.17c-.4.29-.81.55-1.22.8l-.34.21c-.46.27-.94.51-1.43.74l-.38.17c-.5.22-1,.43-1.54.61l-.28.08c-.52.17-1,.31-1.57.43l-.21.06c-.57.12-1.15.21-1.74.28l-.35,0-.68,0-.22,0-.88,0h-.73q-.74,0-1.5-.09h0c-.57-.07-1.12-.16-1.67-.27l-.51-.12c-.38-.09-.76-.18-1.13-.29l-.55-.19c-.35-.11-.69-.23-1-.37l-.53-.23c-.34-.15-.67-.3-1-.47l-.49-.26c-.33-.18-.66-.37-1-.58l-.42-.26q-.51-.34-1-.72l-.33-.25c-.36-.28-.7-.58-1-.89l-.21-.18a18.9,18.9,0,0,1-3.27-4.12l-.15-.25c-.23-.41-.45-.82-.65-1.25-.07-.14-.13-.29-.2-.44-.17-.38-.32-.76-.46-1.15-.06-.17-.13-.34-.19-.52-.13-.39-.24-.79-.34-1.19,0-.17-.1-.34-.14-.51a16.46,16.46,0,0,1-.31-1.73,19,19,0,0,1-.17-2.48,6,6,0,0,1,.08-.86s0-.1,0-.14a17,17,0,0,1-.12-1.73,5.83,5.83,0,0,1,.08-.85c0-.08,0-.14,0-.21a4.32,4.32,0,0,1,.19-.64s0-.1,0-.14a4.77,4.77,0,0,1,.9-1.38h0a5.3,5.3,0,0,1,.63-.54l0,0a4.91,4.91,0,0,1,1.47-.72l.08,0a5.42,5.42,0,0,1,.7-.14h.14a3.1,3.1,0,0,1,.43,0,4.6,4.6,0,0,1,1.16.14l.21.06a5.24,5.24,0,0,1,.58.22l.22.1a5.05,5.05,0,0,1,.73.44h0c.45.33.92.63,1.39.92l.51.29c.46.27.93.52,1.42.75a18.55,18.55,0,0,0,3.7,1.26l.27.06c.51.11,1,.2,1.57.26l.46.06c.62.06,1.25.11,1.9.11h0c.62,0,1.23,0,1.84-.1l.48-.06c.48-.06,1-.14,1.41-.23l.4-.08a19.13,19.13,0,0,0,3.52-1.17h0c.47-.21.92-.45,1.36-.69l.66-.36c.53-.32,1.05-.65,1.55-1h0a4.71,4.71,0,0,1,.7-.43l.22-.1q.27-.12.54-.21l.22-.07q.31-.08.63-.12l.12,0,.48,0h.36a5.68,5.68,0,0,1,.72.11h.05l.06,0a4.65,4.65,0,0,1,.69.23h0a4.87,4.87,0,0,1,1.34.86h0a4.41,4.41,0,0,1,.58.64l0,0a5.24,5.24,0,0,1,.45.76s0,0,0,0a4.27,4.27,0,0,1,.24.74,1.6,1.6,0,0,1,.05.21,4.33,4.33,0,0,1,.1.89h0v.11c0,.59,0,1.18-.09,1.76A4.82,4.82,0,0,1,137.06,120.51Z" style="fill:#d2e7e8;mix-blend-mode:multiply"/></g></g></g></svg>