<svg xmlns="http://www.w3.org/2000/svg" xmlns:xlink="http://www.w3.org/1999/xlink" viewBox="0 0 145.01 161.43"><defs><linearGradient id="Degradado_sin_nombre_4" x1="-406.62" y1="619.86" x2="-406.62" y2="655.47" gradientTransform="translate(477.48 -578.17)" gradientUnits="userSpaceOnUse"><stop offset="0.13" stop-color="#fe3070"/><stop offset="0.24" stop-color="#db4f85"/><stop offset="0.44" stop-color="#a183a9"/><stop offset="0.62" stop-color="#73acc4"/><stop offset="0.78" stop-color="#52cad8"/><stop offset="0.91" stop-color="#3edce5"/><stop offset="1" stop-color="#37e2e9"/></linearGradient><linearGradient id="Degradado_sin_nombre_47" x1="17.79" y1="41.8" x2="17.79" y2="128.43" gradientUnits="userSpaceOnUse"><stop offset="0.13" stop-color="#fe3070"/><stop offset="0.28" stop-color="#e24981"/><stop offset="0.59" stop-color="#9b89ac"/><stop offset="1" stop-color="#37e2e9"/></linearGradient><linearGradient id="Degradado_sin_nombre_47-2" x1="29.08" y1="45.27" x2="29.08" y2="145.37" xlink:href="#Degradado_sin_nombre_47"/><linearGradient id="Degradado_sin_nombre_47-3" x1="46.93" y1="47.01" x2="46.93" y2="161.43" xlink:href="#Degradado_sin_nombre_47"/><linearGradient id="Degradado_sin_nombre_47-4" x1="52.75" y1="30.51" x2="52.75" y2="130.6" xlink:href="#Degradado_sin_nombre_47"/><linearGradient id="Degradado_sin_nombre_47-5" x1="-391.19" y1="41.8" x2="-391.19" y2="128.43" gradientTransform="matrix(-1, 0, 0, 1, -263.97, 0)" xlink:href="#Degradado_sin_nombre_47"/><linearGradient id="Degradado_sin_nombre_47-6" x1="-379.9" y1="45.27" x2="-379.9" y2="145.37" gradientTransform="matrix(-1, 0, 0, 1, -263.97, 0)" xlink:href="#Degradado_sin_nombre_47"/><linearGradient id="Degradado_sin_nombre_47-7" x1="-362.05" y1="47.01" x2="-362.05" y2="161.43" gradientTransform="matrix(-1, 0, 0, 1, -263.97, 0)" xlink:href="#Degradado_sin_nombre_47"/><linearGradient id="Degradado_sin_nombre_47-8" x1="-356.23" y1="30.51" x2="-356.23" y2="130.6" gradientTransform="matrix(-1, 0, 0, 1, -263.97, 0)" xlink:href="#Degradado_sin_nombre_47"/><linearGradient id="Degradado_sin_nombre_4-2" x1="70.86" y1="57.32" x2="70.86" y2="0" gradientTransform="matrix(1, 0, 0, 1, 0, 0)" xlink:href="#Degradado_sin_nombre_4"/><linearGradient id="Degradado_sin_nombre_7" x1="62.54" y1="11.35" x2="62.54" y2="4.32" gradientUnits="userSpaceOnUse"><stop offset="0.06" stop-color="#ff2a99"/><stop offset="0.21" stop-color="#f62994"/><stop offset="0.44" stop-color="#df2586"/><stop offset="0.69" stop-color="#bf2073"/><stop offset="0.96" stop-color="#861651"/></linearGradient><linearGradient id="Degradado_sin_nombre_7-2" x1="77.83" y1="11.35" x2="77.83" y2="4.32" xlink:href="#Degradado_sin_nombre_7"/><linearGradient id="Degradado_sin_nombre_7-3" x1="70.19" y1="13.9" x2="70.19" y2="6.87" xlink:href="#Degradado_sin_nombre_7"/><linearGradient id="Degradado_sin_nombre_4-3" x1="94.36" y1="25.69" x2="94.36" y2="18.26" gradientTransform="matrix(1, 0, 0, 1, 0, 0)" xlink:href="#Degradado_sin_nombre_4"/><linearGradient id="Degradado_sin_nombre_4-4" x1="103.81" y1="34.84" x2="103.81" y2="31.12" gradientTransform="matrix(1, 0, 0, 1, 0, 0)" xlink:href="#Degradado_sin_nombre_4"/><linearGradient id="Degradado_sin_nombre_4-5" x1="91.67" y1="32.13" x2="91.67" y2="28.42" gradientTransform="matrix(1, 0, 0, 1, 0, 0)" xlink:href="#Degradado_sin_nombre_4"/><linearGradient id="Degradado_sin_nombre_4-6" x1="111.29" y1="40.01" x2="111.29" y2="36.3" gradientTransform="matrix(1, 0, 0, 1, 0, 0)" xlink:href="#Degradado_sin_nombre_4"/><linearGradient id="Degradado_sin_nombre_4-7" x1="100.66" y1="20.47" x2="100.66" y2="17.78" gradientTransform="matrix(1, 0, 0, 1, 0, 0)" xlink:href="#Degradado_sin_nombre_4"/><linearGradient id="Degradado_sin_nombre_4-8" x1="93.58" y1="40.02" x2="93.58" y2="37.85" gradientTransform="matrix(1, 0, 0, 1, 0, 0)" xlink:href="#Degradado_sin_nombre_4"/><linearGradient id="Degradado_sin_nombre_4-9" x1="-463.62" y1="25.69" x2="-463.62" y2="18.26" gradientTransform="matrix(-1, 0, 0, 1, -418.2, 0)" xlink:href="#Degradado_sin_nombre_4"/><linearGradient id="Degradado_sin_nombre_4-10" x1="-454.18" y1="34.84" x2="-454.18" y2="31.12" gradientTransform="matrix(-1, 0, 0, 1, -418.2, 0)" xlink:href="#Degradado_sin_nombre_4"/><linearGradient id="Degradado_sin_nombre_4-11" x1="-466.31" y1="32.13" x2="-466.31" y2="28.42" gradientTransform="matrix(-1, 0, 0, 1, -418.2, 0)" xlink:href="#Degradado_sin_nombre_4"/><linearGradient id="Degradado_sin_nombre_4-12" x1="-446.69" y1="40.01" x2="-446.69" y2="36.3" gradientTransform="matrix(-1, 0, 0, 1, -418.2, 0)" xlink:href="#Degradado_sin_nombre_4"/><linearGradient id="Degradado_sin_nombre_4-13" x1="-457.32" y1="20.47" x2="-457.32" y2="17.78" gradientTransform="matrix(-1, 0, 0, 1, -418.2, 0)" xlink:href="#Degradado_sin_nombre_4"/><linearGradient id="Degradado_sin_nombre_4-14" x1="-464.4" y1="40.02" x2="-464.4" y2="37.85" gradientTransform="matrix(-1, 0, 0, 1, -418.2, 0)" xlink:href="#Degradado_sin_nombre_4"/></defs><g style="isolation:isolate"><g id="Layer_2" data-name="Layer 2"><g id="OBJECTS"><path d="M66.81,41.69h8.09A29.13,29.13,0,0,1,104,70.82v0a6.47,6.47,0,0,1-6.47,6.47H44.15a6.47,6.47,0,0,1-6.47-6.47v0A29.13,29.13,0,0,1,66.81,41.69Z" transform="translate(141.72 118.99) rotate(180)" style="fill:url(#Degradado_sin_nombre_4)"/><path d="M66.81,37.65h8.09A29.13,29.13,0,0,1,104,66.79v0a6.47,6.47,0,0,1-6.47,6.47H44.15a6.47,6.47,0,0,1-6.47-6.47v0A29.13,29.13,0,0,1,66.81,37.65Z" transform="translate(141.72 110.91) rotate(-180)" style="fill:#30c2c9;opacity:0.43;mix-blend-mode:multiply"/><path d="M17.79,128.43a17.79,17.79,0,1,1,0-35.57,2.93,2.93,0,1,1,0,5.86,11.93,11.93,0,1,0,11.92,11.92V44.73a2.93,2.93,0,0,1,5.86,0v65.91A17.81,17.81,0,0,1,17.79,128.43Z" style="fill:url(#Degradado_sin_nombre_47)"/><path d="M29.08,145.37a15.83,15.83,0,1,1,0-31.65,2.93,2.93,0,1,1,0,5.85,10,10,0,1,0,10,10V48.2a2.93,2.93,0,0,1,5.86,0v81.34A15.84,15.84,0,0,1,29.08,145.37Z" style="fill:url(#Degradado_sin_nombre_47-2)"/><path d="M39.5,161.43a2.93,2.93,0,1,1,0-5.85,12,12,0,0,0,11.93-11.93V49.94a2.93,2.93,0,0,1,5.86,0v93.71A17.81,17.81,0,0,1,39.5,161.43Z" style="fill:url(#Degradado_sin_nombre_47-3)"/><path d="M52.75,130.6a15.83,15.83,0,0,1,0-31.65,2.93,2.93,0,0,1,0,5.86,10,10,0,1,0,10,10V33.44a2.93,2.93,0,1,1,5.86,0v81.34A15.84,15.84,0,0,1,52.75,130.6Z" style="fill:url(#Degradado_sin_nombre_47-4)"/><path d="M127.22,128.43a17.81,17.81,0,0,1-17.79-17.79V44.73a2.93,2.93,0,0,1,5.86,0v65.91a11.93,11.93,0,1,0,11.93-11.92,2.93,2.93,0,1,1,0-5.86,17.79,17.79,0,1,1,0,35.57Z" style="fill:url(#Degradado_sin_nombre_47-5)"/><path d="M115.93,145.37a15.85,15.85,0,0,1-15.83-15.83V48.2a2.93,2.93,0,1,1,5.86,0v81.34a10,10,0,1,0,10-10,2.93,2.93,0,1,1,0-5.85,15.83,15.83,0,0,1,0,31.65Z" style="fill:url(#Degradado_sin_nombre_47-6)"/><path d="M105.51,161.43a17.81,17.81,0,0,1-17.79-17.78V49.94a2.93,2.93,0,1,1,5.86,0v93.71a12,12,0,0,0,11.93,11.93,2.93,2.93,0,1,1,0,5.85Z" style="fill:url(#Degradado_sin_nombre_47-7)"/><path d="M92.26,130.6a15.84,15.84,0,0,1-15.83-15.82V33.44a2.93,2.93,0,0,1,5.86,0v81.34a10,10,0,1,0,10-10,2.93,2.93,0,1,1,0-5.86,15.83,15.83,0,0,1,0,31.65Z" style="fill:url(#Degradado_sin_nombre_47-8)"/><g style="opacity:0.43;mix-blend-mode:multiply"><path d="M35.57,70V44.92a3.05,3.05,0,0,0-2.79-3.12,2.94,2.94,0,0,0-3.07,2.93V70A2.94,2.94,0,0,0,32.64,73h0A2.93,2.93,0,0,0,35.57,70Z" style="fill:#30c2c9"/></g><g style="opacity:0.43;mix-blend-mode:multiply"><path d="M44.9,70V48.39a3,3,0,0,0-2.79-3.11A2.93,2.93,0,0,0,39,48.2V70A2.94,2.94,0,0,0,42,73h0A2.93,2.93,0,0,0,44.9,70Z" style="fill:#30c2c9"/></g><g style="opacity:0.43;mix-blend-mode:multiply"><path d="M57.29,70V50.13A3.06,3.06,0,0,0,54.49,47a2.93,2.93,0,0,0-3.06,2.93V70A2.93,2.93,0,0,0,54.36,73h0A2.94,2.94,0,0,0,57.29,70Z" style="fill:#30c2c9"/></g><g style="opacity:0.43;mix-blend-mode:multiply"><path d="M68.58,70V33.63a3.06,3.06,0,0,0-2.8-3.12,2.93,2.93,0,0,0-3.06,2.93V70A2.93,2.93,0,0,0,65.65,73h0A2.93,2.93,0,0,0,68.58,70Z" style="fill:#30c2c9"/></g><g style="opacity:0.43;mix-blend-mode:multiply"><path d="M115.29,70V44.92a3.06,3.06,0,0,0-2.79-3.12,2.94,2.94,0,0,0-3.07,2.93V70A2.94,2.94,0,0,0,112.36,73h0A2.93,2.93,0,0,0,115.29,70Z" style="fill:#30c2c9"/></g><g style="opacity:0.43;mix-blend-mode:multiply"><path d="M106,70V48.39a3,3,0,0,0-2.79-3.11,2.93,2.93,0,0,0-3.07,2.92V70A2.94,2.94,0,0,0,103,73h0A2.93,2.93,0,0,0,106,70Z" style="fill:#30c2c9"/></g><g style="opacity:0.43;mix-blend-mode:multiply"><path d="M93.58,70V50.13A3.06,3.06,0,0,0,90.78,47a2.93,2.93,0,0,0-3.06,2.93V70A2.93,2.93,0,0,0,90.65,73h0A2.93,2.93,0,0,0,93.58,70Z" style="fill:#30c2c9"/></g><g style="opacity:0.43;mix-blend-mode:multiply"><path d="M82.29,70V33.63a3.06,3.06,0,0,0-2.8-3.12,2.93,2.93,0,0,0-3.06,2.93V70A2.93,2.93,0,0,0,79.36,73h0A2.93,2.93,0,0,0,82.29,70Z" style="fill:#30c2c9"/></g><path d="M113.85,57.32h-86A10.45,10.45,0,0,1,17.44,46.9h0A47,47,0,0,1,64.34,0h13a47,47,0,0,1,46.9,46.9h0A10.45,10.45,0,0,1,113.85,57.32Z" style="fill:url(#Degradado_sin_nombre_4-2)"/><path d="M113.85,43.43h-86a10.44,10.44,0,0,1-9.44-6,46,46,0,0,0-1,9.52h0A10.45,10.45,0,0,0,27.87,57.32h86A10.45,10.45,0,0,0,124.27,46.9h0a46.73,46.73,0,0,0-1-9.52A10.44,10.44,0,0,1,113.85,43.43Z" style="fill:#30c2c9;opacity:0.43;mix-blend-mode:multiply"/><path d="M67.81,11.35H57.27A1.29,1.29,0,0,1,56,10.07h0a5.77,5.77,0,0,1,5.75-5.75h1.6a5.77,5.77,0,0,1,5.75,5.75h0A1.29,1.29,0,0,1,67.81,11.35Z" style="fill:url(#Degradado_sin_nombre_7)"/><path d="M83.1,11.35H72.57a1.28,1.28,0,0,1-1.28-1.28h0A5.76,5.76,0,0,1,77,4.32h1.59a5.77,5.77,0,0,1,5.75,5.75h0A1.28,1.28,0,0,1,83.1,11.35Z" style="fill:url(#Degradado_sin_nombre_7-2)"/><path d="M75.46,13.9H64.92a1.29,1.29,0,0,1-1.28-1.28h0a5.77,5.77,0,0,1,5.75-5.75H71a5.76,5.76,0,0,1,5.74,5.75h0A1.28,1.28,0,0,1,75.46,13.9Z" style="fill:url(#Degradado_sin_nombre_7-3)"/><path d="M64.94,2.61H76.78a42.64,42.64,0,0,1,42.64,42.64v0a9.47,9.47,0,0,1-9.47,9.47H31.78a9.47,9.47,0,0,1-9.47-9.47v0A42.64,42.64,0,0,1,64.94,2.61Z" style="fill:#30c2c9;opacity:0.43;mix-blend-mode:multiply"/><path d="M70.19,34.41a14.8,14.8,0,0,1-8.84-2.91,3.74,3.74,0,0,0-6,2.94,18.59,18.59,0,0,0,.13,2,14.86,14.86,0,0,0,29.58-2v-.08a3.72,3.72,0,0,0-6-2.83A14.8,14.8,0,0,1,70.19,34.41Z" style="fill:#660723"/><path d="M62,38.47a1.75,1.75,0,0,1-3.29,0l-1-2.62L56,31a1.76,1.76,0,0,1,1.65-2.35h5.39A1.75,1.75,0,0,1,64.69,31L63,35.85Z" style="fill:#fcedb6"/><path d="M61.82,44.18a1.3,1.3,0,0,1,2.46,0l.7,2,1.31,3.61a1.31,1.31,0,0,1-1.23,1.75H61a1.3,1.3,0,0,1-1.23-1.75l1.3-3.61Z" style="fill:#fcedb6"/><path d="M75.23,44.18a1.3,1.3,0,0,1,2.45,0l.71,2,1.3,3.61a1.3,1.3,0,0,1-1.22,1.75h-4a1.3,1.3,0,0,1-1.22-1.75l1.3-3.61Z" style="fill:#fcedb6"/><path d="M81.44,38.47a1.75,1.75,0,0,1-3.29,0l-1-2.62L75.46,31a1.75,1.75,0,0,1,1.64-2.35h5.39A1.76,1.76,0,0,1,84.14,31l-1.75,4.84Z" style="fill:#fcedb6"/><path d="M77.37,0h-13a47,47,0,0,0-46.9,46.9h0A10.45,10.45,0,0,0,27.87,57.32h86A10.45,10.45,0,0,0,124.27,46.9h0A47,47,0,0,0,77.37,0ZM68.53,49.18A14.88,14.88,0,0,1,55.46,36.39a18.59,18.59,0,0,1-.13-2,3.74,3.74,0,0,1,6-2.94A14.88,14.88,0,0,0,79,31.5a3.72,3.72,0,0,1,6,2.83v.08A14.86,14.86,0,0,1,68.53,49.18Z" style="fill:#30c2c9;opacity:0.43;mix-blend-mode:multiply"/><g style="mix-blend-mode:screen"><path d="M77.37,0h-13a46.76,46.76,0,0,0-34.4,15.13A46.65,46.65,0,0,1,61.71,2.63h13a47,47,0,0,1,46.9,46.9h0a10.32,10.32,0,0,1-1.87,5.93,10.41,10.41,0,0,0,4.5-8.56h0A47,47,0,0,0,77.37,0Z" style="fill:#fff;opacity:0.43;mix-blend-mode:multiply"/></g><circle cx="70.19" cy="20.14" r="10.26" transform="translate(24.57 77.16) rotate(-67.35)" style="fill:#30c2c9;opacity:0.43;mix-blend-mode:multiply"/><circle cx="70.19" cy="20.14" r="8.84" transform="translate(6.32 55.53) rotate(-45)" style="fill:#fe306e"/><path d="M65.77,20.14a4.42,4.42,0,1,0,4.42-4.42A4.42,4.42,0,0,0,65.77,20.14Z" style="fill:#0e393a"/><path d="M63.91,20.91a2.3,2.3,0,1,0,2.29-2.3A2.3,2.3,0,0,0,63.91,20.91Z" style="fill:#fff"/><path d="M70.19,25.22a8.84,8.84,0,0,0,8.63-7A9,9,0,0,1,79,20.14a8.84,8.84,0,0,1-17.68,0,9,9,0,0,1,.2-1.88A8.85,8.85,0,0,0,70.19,25.22Z" style="fill:#bf2453"/><path d="M63.5,12.38a10.08,10.08,0,0,0-.19,1.92,10.25,10.25,0,0,0,17,7.77A10.26,10.26,0,1,1,63.5,12.38Z" style="fill:#30c2c9;opacity:0.43;mix-blend-mode:multiply"/><circle cx="94.36" cy="21.97" r="3.71" style="opacity:0.46;mix-blend-mode:screen;fill:url(#Degradado_sin_nombre_4-3)"/><circle cx="103.81" cy="32.98" r="1.86" style="opacity:0.46;mix-blend-mode:screen;fill:url(#Degradado_sin_nombre_4-4)"/><circle cx="91.67" cy="30.28" r="1.86" style="opacity:0.46;mix-blend-mode:screen;fill:url(#Degradado_sin_nombre_4-5)"/><path d="M113.15,38.15a1.86,1.86,0,1,1-1.86-1.85A1.86,1.86,0,0,1,113.15,38.15Z" style="opacity:0.46;mix-blend-mode:screen;fill:url(#Degradado_sin_nombre_4-6)"/><path d="M102,19.13a1.35,1.35,0,1,1-1.35-1.35A1.34,1.34,0,0,1,102,19.13Z" style="opacity:0.46;mix-blend-mode:screen;fill:url(#Degradado_sin_nombre_4-7)"/><path d="M92,12.09a1.35,1.35,0,1,1-1.35-1.34A1.35,1.35,0,0,1,92,12.09Z" style="fill:#30c2c9;opacity:0.43;mix-blend-mode:multiply"/><path d="M86.89,23.2a1.35,1.35,0,1,1-1.34-1.35A1.34,1.34,0,0,1,86.89,23.2Z" style="fill:#30c2c9;opacity:0.43;mix-blend-mode:multiply"/><path d="M102,25.14a1.35,1.35,0,1,1-1.35-1.34A1.34,1.34,0,0,1,102,25.14Z" style="fill:#30c2c9;opacity:0.43;mix-blend-mode:multiply"/><path d="M112.86,29a3.52,3.52,0,1,1-3.52-3.52A3.51,3.51,0,0,1,112.86,29Z" style="fill:#30c2c9;opacity:0.43;mix-blend-mode:multiply"/><path d="M89.07,38.74a1.35,1.35,0,1,1-1.35-1.35A1.36,1.36,0,0,1,89.07,38.74Z" style="fill:#30c2c9;opacity:0.43;mix-blend-mode:multiply"/><path d="M99.42,36.16a1.35,1.35,0,0,1-2.69,0,1.35,1.35,0,1,1,2.69,0Z" style="fill:#30c2c9;opacity:0.43;mix-blend-mode:multiply"/><path d="M94.66,38.94a1.08,1.08,0,1,1-1.08-1.09A1.08,1.08,0,0,1,94.66,38.94Z" style="opacity:0.46;mix-blend-mode:screen;fill:url(#Degradado_sin_nombre_4-8)"/><circle cx="45.42" cy="21.97" r="3.71" style="opacity:0.46;mix-blend-mode:screen;fill:url(#Degradado_sin_nombre_4-9)"/><circle cx="35.97" cy="32.98" r="1.86" style="opacity:0.46;mix-blend-mode:screen;fill:url(#Degradado_sin_nombre_4-10)"/><circle cx="48.11" cy="30.28" r="1.86" style="opacity:0.46;mix-blend-mode:screen;fill:url(#Degradado_sin_nombre_4-11)"/><path d="M26.63,38.15a1.86,1.86,0,1,0,1.86-1.85A1.86,1.86,0,0,0,26.63,38.15Z" style="opacity:0.46;mix-blend-mode:screen;fill:url(#Degradado_sin_nombre_4-12)"/><path d="M37.77,19.13a1.35,1.35,0,1,0,1.35-1.35A1.34,1.34,0,0,0,37.77,19.13Z" style="opacity:0.46;mix-blend-mode:screen;fill:url(#Degradado_sin_nombre_4-13)"/><path d="M47.78,12.09a1.35,1.35,0,1,0,1.35-1.34A1.35,1.35,0,0,0,47.78,12.09Z" style="fill:#30c2c9;opacity:0.43;mix-blend-mode:multiply"/><path d="M52.89,23.2a1.35,1.35,0,1,0,1.34-1.35A1.34,1.34,0,0,0,52.89,23.2Z" style="fill:#30c2c9;opacity:0.43;mix-blend-mode:multiply"/><path d="M37.77,25.14a1.35,1.35,0,1,0,1.35-1.34A1.34,1.34,0,0,0,37.77,25.14Z" style="fill:#30c2c9;opacity:0.43;mix-blend-mode:multiply"/><path d="M26.92,29a3.52,3.52,0,1,0,3.52-3.52A3.51,3.51,0,0,0,26.92,29Z" style="fill:#30c2c9;opacity:0.43;mix-blend-mode:multiply"/><path d="M50.71,38.74a1.35,1.35,0,1,0,1.35-1.35A1.36,1.36,0,0,0,50.71,38.74Z" style="fill:#30c2c9;opacity:0.43;mix-blend-mode:multiply"/><path d="M40.36,36.16a1.35,1.35,0,0,0,2.69,0,1.35,1.35,0,1,0-2.69,0Z" style="fill:#30c2c9;opacity:0.43;mix-blend-mode:multiply"/><path d="M45.12,38.94a1.08,1.08,0,1,0,1.08-1.09A1.08,1.08,0,0,0,45.12,38.94Z" style="opacity:0.46;mix-blend-mode:screen;fill:url(#Degradado_sin_nombre_4-14)"/></g></g></g></svg>