<svg xmlns="http://www.w3.org/2000/svg" viewBox="0 0 209.18 147.17"><g style="isolation:isolate"><g id="Layer_2" data-name="Layer 2"><g id="OBJECTS"><path d="M63.14,129.71h0A3.68,3.68,0,0,1,59.47,126V77.86a3.69,3.69,0,0,1,3.67-3.68h0a3.7,3.7,0,0,1,3.68,3.68V126A3.69,3.69,0,0,1,63.14,129.71Z" style="fill:#15979c"/><path d="M148.26,129.71h0a3.68,3.68,0,0,1-3.67-3.67V77.86a3.69,3.69,0,0,1,3.67-3.68h0a3.7,3.7,0,0,1,3.68,3.68V126A3.69,3.69,0,0,1,148.26,129.71Z" style="fill:#15979c"/><rect x="59.47" y="74.18" width="7.35" height="35.65" rx="2.94" style="fill:#107175"/><rect x="144.59" y="74.18" width="7.35" height="35.65" rx="2.94" style="fill:#107175"/><path d="M90.41,145.29h0a3.69,3.69,0,0,1-3.68-3.67V93.43a3.69,3.69,0,0,1,3.68-3.67h0a3.68,3.68,0,0,1,3.67,3.67v48.19A3.68,3.68,0,0,1,90.41,145.29Z" style="fill:#15979c"/><path d="M119.34,145.29h0a3.69,3.69,0,0,1-3.68-3.67V93.43a3.69,3.69,0,0,1,3.68-3.67h0A3.68,3.68,0,0,1,123,93.43v48.19A3.68,3.68,0,0,1,119.34,145.29Z" style="fill:#15979c"/><path d="M90.41,132.78h0a3.69,3.69,0,0,1-3.68-3.67V80.92a3.69,3.69,0,0,1,3.68-3.67h0a3.68,3.68,0,0,1,3.67,3.67v48.19A3.68,3.68,0,0,1,90.41,132.78Z" style="fill:#107175"/><path d="M119.34,132.78h0a3.69,3.69,0,0,1-3.68-3.67V80.92a3.69,3.69,0,0,1,3.68-3.67h0A3.68,3.68,0,0,1,123,80.92v48.19A3.68,3.68,0,0,1,119.34,132.78Z" style="fill:#107175"/><path d="M209.18,12.56a47,47,0,0,0-14.34,34.61s-22.25-2.07-34.61,14.34c0,0-19.64-13.8-37.26-11.56,0,0,33.28-9,35-29.93,0,0,6.42-17.62,16.23-17.6S193.85-.49,209.18,12.56Z" style="fill:#608321"/><path d="M198.5,5.42A47.52,47.52,0,0,0,189,34.61s-22.25-2.07-34.61,14.33a80.13,80.13,0,0,0-13-7A80,80,0,0,1,123,50c17.62-2.24,37.26,11.56,37.26,11.56,12.36-16.41,34.61-14.34,34.61-14.34a47,47,0,0,1,14.34-34.61A49.52,49.52,0,0,0,198.5,5.42Z" style="fill:#405716"/><path d="M184.7,4.73a32.93,32.93,0,0,1,12.8,1.39,34.16,34.16,0,0,1,11.68,6.44A35.4,35.4,0,0,0,198.39,4,36.43,36.43,0,0,0,184.7.11a37.66,37.66,0,0,0-14.57,1.75,38.77,38.77,0,0,0-11.22,5.88,4.61,4.61,0,0,0-2.57,1.56,4.23,4.23,0,0,0-.66,1.12,4.58,4.58,0,0,0-.51,2.58,4.51,4.51,0,0,0,.38,1.43,30,30,0,0,1-29.94,28.13,4.62,4.62,0,0,0,0,9.23,39.28,39.28,0,0,0,37.77-28.65c.4.64.79,1.3,1.15,2A31.71,31.71,0,0,1,168.06,37a33,33,0,0,1-1.4,12.81,34.09,34.09,0,0,1-6.43,11.67,35.22,35.22,0,0,0,8.56-10.79A36.38,36.38,0,0,0,172.67,37,37.46,37.46,0,0,0,169,17.6c1.07.21,2.14.47,3.2.79a31.86,31.86,0,0,1,10.92,5.94,32.89,32.89,0,0,1,8.07,10,34.13,34.13,0,0,1,3.7,12.8,35.16,35.16,0,0,0-1.57-13.68,36.28,36.28,0,0,0-6.94-12.42A37.32,37.32,0,0,0,170,10a27.9,27.9,0,0,1,2.83-1.7A31.66,31.66,0,0,1,184.7,4.73Z" style="fill:#b0fb26"/><path d="M163.38,23.14c-.36-.68-1.83-1.87-2.24-2.52a39.28,39.28,0,0,1-37.76,28.65,4.54,4.54,0,0,1-2.09-.5,4.61,4.61,0,0,0,4.32,3,39.3,39.3,0,0,0,37.46-27.61C162.82,23.64,163.65,23.66,163.38,23.14Z" style="fill:#84bc1c"/><path d="M183.07,24.33q1.2,1,2.31,2.13a32.82,32.82,0,0,0-4.55-4.65,31.58,31.58,0,0,0-10.92-5.93,30.54,30.54,0,0,0-3.2-.8,38.52,38.52,0,0,1,2,4.87,37.44,37.44,0,0,1,1.74,14.57,36.22,36.22,0,0,1-2.8,11.36,32.65,32.65,0,0,1-1,4,34.09,34.09,0,0,1-6.43,11.67,35.22,35.22,0,0,0,8.56-10.79A36.38,36.38,0,0,0,172.67,37,37.46,37.46,0,0,0,169,17.6c1.07.21,2.14.47,3.2.79A31.86,31.86,0,0,1,183.07,24.33Z" style="fill:#84bc1c"/><path d="M186.33,21.07q-.79-.93-1.65-1.8A36.37,36.37,0,0,1,191,31a34.43,34.43,0,0,1,1.37,6.14,34.15,34.15,0,0,1,2.44,10.06,35.16,35.16,0,0,0-1.57-13.68A36.28,36.28,0,0,0,186.33,21.07Z" style="fill:#84bc1c"/><path d="M206.07,9.35a33.92,33.92,0,0,0-10.8-5.74,33,33,0,0,0-12.81-1.4,31.71,31.71,0,0,0-11.92,3.53,30.55,30.55,0,0,0-2.82,1.7c-.92,1.39.49,3,2.23,2.52.43-.25,2.39-1.47,2.83-1.7A31.66,31.66,0,0,1,184.7,4.73a32.93,32.93,0,0,1,12.8,1.39,34.16,34.16,0,0,1,11.68,6.44A34.86,34.86,0,0,0,206.07,9.35Z" style="fill:#84bc1c"/><path d="M0,12.56A47.08,47.08,0,0,1,14.34,47.17S36.59,45.1,49,61.51c0,0,19.63-13.8,37.26-11.56,0,0-33.29-9-35-29.93,0,0-6.41-17.62-16.22-17.6S15.33-.49,0,12.56Z" style="fill:#608321"/><path d="M10.68,5.42a47.46,47.46,0,0,1,9.5,29.19S42.43,32.54,54.8,48.94a80.28,80.28,0,0,1,13-7,80.2,80.2,0,0,0,18.45,8C68.58,47.71,49,61.51,49,61.51,36.59,45.1,14.34,47.17,14.34,47.17A47.08,47.08,0,0,0,0,12.56,49.52,49.52,0,0,1,10.68,5.42Z" style="fill:#405716"/><path d="M24.47,4.73a32.93,32.93,0,0,0-12.8,1.39A34.12,34.12,0,0,0,0,12.56,35.4,35.4,0,0,1,10.79,4,36.38,36.38,0,0,1,24.47.11,37.61,37.61,0,0,1,39,1.86,38.69,38.69,0,0,1,50.27,7.74,4.64,4.64,0,0,1,52.84,9.3a4.52,4.52,0,0,1,.66,1.12A4.58,4.58,0,0,1,54,13a4.5,4.5,0,0,1-.37,1.43A30,30,0,0,0,83.56,42.56a4.62,4.62,0,1,1,0,9.23A39.28,39.28,0,0,1,45.8,23.14c-.41.64-.8,1.3-1.15,2A31.71,31.71,0,0,0,41.12,37a33,33,0,0,0,1.39,12.81A34.12,34.12,0,0,0,49,61.51a35.4,35.4,0,0,1-8.57-10.79A36.38,36.38,0,0,1,36.5,37,37.56,37.56,0,0,1,40.23,17.6c-1.07.21-2.14.47-3.2.79a31.77,31.77,0,0,0-10.92,5.94,32.89,32.89,0,0,0-8.07,10,34.13,34.13,0,0,0-3.7,12.8,35.16,35.16,0,0,1,1.57-13.68,36.25,36.25,0,0,1,6.93-12.42A37.5,37.5,0,0,1,34.38,12a36.93,36.93,0,0,1,4.84-2,27.75,27.75,0,0,0-2.82-1.7A31.71,31.71,0,0,0,24.47,4.73Z" style="fill:#b0fb26"/><path d="M45.8,23.14c.35-.68,1.83-1.87,2.23-2.52A39.3,39.3,0,0,0,85.8,49.27a4.6,4.6,0,0,0,2.09-.5,4.62,4.62,0,0,1-4.33,3A39.28,39.28,0,0,1,46.11,24.18C46.36,23.64,45.52,23.66,45.8,23.14Z" style="fill:#84bc1c"/><path d="M26.11,24.33q-1.2,1-2.31,2.13a32.75,32.75,0,0,1,4.54-4.65,31.71,31.71,0,0,1,10.93-5.93,29.93,29.93,0,0,1,3.2-.8,38.52,38.52,0,0,0-2,4.87,37.44,37.44,0,0,0-1.75,14.57,36.77,36.77,0,0,0,2.8,11.36,34.62,34.62,0,0,0,1,4A34.12,34.12,0,0,0,49,61.51a35.4,35.4,0,0,1-8.57-10.79A36.38,36.38,0,0,1,36.5,37,37.56,37.56,0,0,1,40.23,17.6c-1.07.21-2.14.47-3.2.79A31.77,31.77,0,0,0,26.11,24.33Z" style="fill:#84bc1c"/><path d="M22.84,21.07c.53-.62,1.09-1.22,1.66-1.8A36.18,36.18,0,0,0,18.15,31a35.35,35.35,0,0,0-1.38,6.14,34.14,34.14,0,0,0-2.43,10.06,35.16,35.16,0,0,1,1.57-13.68A36.25,36.25,0,0,1,22.84,21.07Z" style="fill:#84bc1c"/><path d="M3.1,9.35A34.08,34.08,0,0,1,13.91,3.61a32.94,32.94,0,0,1,12.8-1.4A31.66,31.66,0,0,1,38.63,5.74a32.12,32.12,0,0,1,2.83,1.7c.92,1.39-.5,3-2.24,2.52-.42-.25-2.39-1.47-2.82-1.7A31.71,31.71,0,0,0,24.47,4.73a32.93,32.93,0,0,0-12.8,1.39A34.12,34.12,0,0,0,0,12.56,36.1,36.1,0,0,1,3.1,9.35Z" style="fill:#84bc1c"/><circle cx="105.7" cy="71.29" r="46.23" style="fill:#15979c"/><path d="M144.29,45.82A46.23,46.23,0,0,1,63.62,90.43a46.23,46.23,0,1,0,80.67-44.61Z" style="fill:#107175"/><path d="M105.7,35.64c6.1,0,11.57,1.24,15.35,3.2,1.86,1,5.27.34,5.27-1a4.84,4.84,0,0,0,0-.53c-.58-4.9-9.13-8.85-19.64-9.07-11.81-.25-21.56,4.15-21.56,9.6v0c0,1.28,3.43,1.87,5.27.92C94.13,36.88,99.61,35.64,105.7,35.64Z" style="fill:#44acb0"/><circle cx="105.7" cy="71.29" r="29.02" style="fill:#107175"/><circle cx="105.7" cy="67.38" r="29.02" style="fill:#e7feff"/><circle cx="105.7" cy="67.38" r="15.29" style="fill:#84bc1c"/><ellipse cx="105.76" cy="67.38" rx="3.56" ry="10.19" style="fill:#0e393a"/><path d="M128.35,49.25a29,29,0,0,1-51.6,16.26c0,.62-.07,1.24-.07,1.87a29,29,0,1,0,51.67-18.13Z" style="fill:#d2e7e8;mix-blend-mode:multiply"/><path d="M105.37,105.64a21.82,21.82,0,0,1-13.06-4.32,5.53,5.53,0,0,0-8.9,4.35,22,22,0,0,0,43.92,0v-.12a5.51,5.51,0,0,0-8.89-4.2A21.85,21.85,0,0,1,105.37,105.64Z" style="fill:#02393c"/><ellipse cx="105.66" cy="113.42" rx="9.49" ry="6.65" style="fill:#022b2d"/><path d="M122.23,119.7c-2.3-4-8.82-7-16.53-7-8,0-14.73,3.15-16.77,7.45a21.93,21.93,0,0,0,33.3-.48Z" style="fill:#006166"/><path d="M127.33,105.52a5.24,5.24,0,0,0-1.71-3.88l-2.21,6.11-1.4,3.88a2.59,2.59,0,0,1-4.87,0l-1.4-3.88-1.45-4a21.8,21.8,0,0,1-18.13-.13l-1.5,4.15-1.4,3.88a2.59,2.59,0,0,1-4.87,0L87,107.75l-2.1-5.83a5.35,5.35,0,0,0-1.48,3.75A21.81,21.81,0,0,0,91.94,123v0l1-2.89a1.93,1.93,0,0,1,3.63,0L97.68,123l1.33,3.7a21.08,21.08,0,0,0,3.9.8,22.18,22.18,0,0,0,7.4-.43l1.47-4.07,1-2.89a1.93,1.93,0,0,1,3.63,0l1,2.89.28.77a21.92,21.92,0,0,0,9.55-18.09Z" style="fill:none"/><path d="M88.39,111.63a2.59,2.59,0,0,0,4.87,0l1.4-3.88,1.5-4.15a21.56,21.56,0,0,1-3.85-2.28,5.6,5.6,0,0,0-7.42.6l2.1,5.83Z" style="fill:#fcedb6"/><path d="M94,105.43,94.9,103a20.25,20.25,0,0,1-2.59-1.64,5.6,5.6,0,0,0-7.42.6l2.1,5.83.07.2A4.81,4.81,0,0,0,94,105.43Z" style="fill:#e3cf88"/><path d="M96.63,120.07a1.93,1.93,0,0,0-3.63,0L92,123v0A21.76,21.76,0,0,0,99,126.66L97.68,123Z" style="fill:#fcedb6"/><path d="M96.7,124.24l-1-2.9a1.92,1.92,0,0,0-2.74-1L92,123v0a22,22,0,0,0,5.42,3.08Z" style="fill:#e3cf88"/><path d="M116.45,120.07a1.93,1.93,0,0,0-3.63,0l-1,2.89L110.31,127a22,22,0,0,0,7.47-3.3l-.28-.77Z" style="fill:#fcedb6"/><path d="M111.55,126.7a21.81,21.81,0,0,0,6.23-3l-.28-.77-1-2.87a1.94,1.94,0,0,0-2.87,1l-1,2.9Z" style="fill:#e3cf88"/><path d="M117.14,111.63a2.59,2.59,0,0,0,4.87,0l1.4-3.88,2.21-6.11a5.66,5.66,0,0,0-7.18-.32,21.4,21.4,0,0,1-4.15,2.41l1.45,4Z" style="fill:#fcedb6"/><path d="M118.44,101.32a21.69,21.69,0,0,1-3.3,2l.47,1.28a5,5,0,0,0,8.34,1.66l1.67-4.63A5.66,5.66,0,0,0,118.44,101.32Z" style="fill:#e3cf88"/><ellipse cx="105.61" cy="117.06" rx="7.52" ry="2.45" style="fill:#007c82"/><path d="M121.83,100.19h.36a4.78,4.78,0,0,1,.53.06l.32.06.26.07a4.79,4.79,0,0,1,.64.21l.12.05a2.64,2.64,0,0,1,.38.18l.09,0a5.52,5.52,0,0,1,.7.44l0,0a5.51,5.51,0,0,1,1,1l.07.08a4,4,0,0,1,.22.34c0,.07.09.15.14.23s.11.2.16.31.15.36.22.55l.06.22c0,.16.08.32.11.49l0,.22a4.32,4.32,0,0,1,.06.73v.12c0,.44,0,.87,0,1.31l0,.39c0,.31-.05.61-.09.92,0,.14,0,.28-.06.43s-.08.58-.14.87c0,.13,0,.26-.07.39-.06.32-.13.63-.21,1,0,.09,0,.18-.07.28-.1.4-.22.79-.34,1.18h0a22,22,0,0,1-20.91,15.22h-.72c-.58,0-1.15,0-1.74-.12h0c-.54,0-1.07-.14-1.6-.24l-.37-.07q-.63-.14-1.26-.3l-.68-.2-1.07-.35-.75-.29c-.26-.1-.52-.22-.78-.34s-.68-.31-1-.48l-.33-.18c-.49-.26-1-.53-1.43-.83l-.13-.09a21.57,21.57,0,0,1-3.91-3.21l0,0c-.43-.44-.84-.91-1.24-1.4-.08-.1-.17-.2-.25-.31-.27-.35-.54-.71-.79-1.08-.14-.19-.27-.39-.4-.6s-.27-.43-.4-.64c-.22-.36-.42-.72-.62-1.09l-.24-.51q-.26-.51-.48-1c0-.12-.11-.23-.16-.35-.18-.47-.35-.94-.5-1.42a2.78,2.78,0,0,1-.12-.38c-.15-.49-.29-1-.4-1.5l-.06-.3c-.12-.55-.22-1.09-.29-1.65s-.11-1-.14-1.46,0-1,0-1.43h0a5.87,5.87,0,0,1,0-.74l0-.2a3.87,3.87,0,0,1,.13-.59c0-.08,0-.15.07-.23s.1-.29.16-.43l.14-.3.13-.23a4.81,4.81,0,0,1,.4-.6l.06-.08c.1-.12.2-.24.31-.35h0a5.1,5.1,0,0,1,.7-.62l0,0L86,101l.06,0a6,6,0,0,1,.72-.35l.17-.07.36-.12.28-.07.48-.1.37,0,.28,0h.52l.2,0,.55.08.2,0a4.71,4.71,0,0,1,.64.19h0c.21.08.42.18.62.28l.17.09a7.33,7.33,0,0,1,.63.4h0c.38.28.77.54,1.16.79l.55.34.5.29c.54.3,1.08.59,1.64.85a21.86,21.86,0,0,0,3,1.12l.44.13c.27.08.55.15.83.21s.63.14,1,.2l.73.12q.6.09,1.2.15l.48,0c.53,0,1,.07,1.59.07h0c.54,0,1.07,0,1.6-.07l.42,0c.5-.05,1-.11,1.49-.19l.41-.07,1-.22.65-.16c.31-.08.62-.17.92-.27l1-.35.52-.21.82-.34c.6-.26,1.17-.56,1.74-.87l.7-.4.5-.31c.41-.27.82-.54,1.21-.83h0a5.93,5.93,0,0,1,.62-.4l.15-.08a5.89,5.89,0,0,1,.63-.29l.1,0a5.18,5.18,0,0,1,.56-.17l.18,0c.2,0,.41-.08.61-.1h.54m0-2.36-.46,0-.31,0a6.9,6.9,0,0,0-.86.13l-.23,0c-.3.08-.57.16-.83.25l-.14,0a8.48,8.48,0,0,0-.89.4l-.21.12a7.53,7.53,0,0,0-.86.56c-.3.21-.63.44-1.09.73l-.44.28-.63.36c-.56.31-1.06.56-1.55.78-.24.11-.48.21-.73.3s-.31.12-.47.18-.62.22-.94.32-.54.17-.81.24l-.58.14c-.31.07-.62.14-.93.19l-.21,0-.16,0c-.4.06-.83.11-1.32.16l-.38,0c-.56,0-1,.06-1.43.06s-.86,0-1.42-.06l-.42,0c-.37,0-.73-.08-1.08-.13l-.64-.11c-.3,0-.58-.11-.86-.18s-.49-.11-.73-.18l-.28-.08-.13,0a20.55,20.55,0,0,1-2.66-1c-.46-.22-.94-.47-1.47-.76l-.14-.08-.3-.17-.5-.32c-.3-.19-.67-.43-1-.68l-.06,0,0,0c-.25-.17-.51-.34-.82-.51l-.22-.13c-.32-.16-.61-.29-.89-.4h0a9,9,0,0,0-.91-.27L90.47,98l-.79-.12-.28,0h-.74c-.13,0-.26,0-.39,0a4.69,4.69,0,0,0-.54.06c-.23,0-.45.08-.68.14l-.4.1-.5.17-.22.09a7.18,7.18,0,0,0-1,.51l-.09,0q-.27.17-.54.36l0,0-.06,0a7.84,7.84,0,0,0-.92.81l0,0-.06.06c-.15.16-.28.32-.42.48l-.09.12a10.11,10.11,0,0,0-.58.87c-.06.12-.12.22-.18.33s-.14.29-.2.44a6.62,6.62,0,0,0-.24.62c0,.14-.08.24-.1.34a6.14,6.14,0,0,0-.19.84c0,.1,0,.19,0,.29a7.53,7.53,0,0,0-.07,1c0,.53,0,1.06,0,1.59s.09,1.07.16,1.6.18,1.16.32,1.83l0,.1a2,2,0,0,0,.05.24c.12.55.27,1.11.44,1.67,0,.12.07.24.11.36l0,0c.19.6.38,1.11.57,1.58,0,.09.08.19.12.28l0,.11c.16.39.34.78.53,1.17l.06.12.21.43c.2.39.43.79.68,1.21.14.24.29.48.44.72l.45.67c.28.4.58.8.87,1.18l.29.36c.43.53.89,1,1.36,1.54l0,0a24.23,24.23,0,0,0,4.33,3.55l.14.1c.52.32,1,.63,1.59.92l.08,0a2.44,2.44,0,0,0,.28.14c.37.2.74.37,1.12.55l.87.37.82.31c.4.15.79.28,1.19.4.25.08.51.15.76.21.52.14,1,.25,1.39.34l.31.06.11,0c.64.12,1.23.21,1.78.27s1.19.1,1.91.13h.8a24.25,24.25,0,0,0,23.15-16.86v0h0c.13-.41.26-.84.37-1.28l.06-.23,0-.08c.09-.35.16-.7.23-1l.09-.43.15-1v-.09c0-.13,0-.26,0-.39,0-.33.07-.67.1-1v-.13c0-.1,0-.21,0-.31,0-.52.05-1,.05-1.45v-.14a7.73,7.73,0,0,0-.08-1c0-.1,0-.2-.05-.3,0-.26-.1-.49-.16-.73s-.06-.22-.09-.3a6.83,6.83,0,0,0-.33-.83,2.4,2.4,0,0,0-.2-.39l0,0-.2-.35-.32-.48-.11-.13a7.45,7.45,0,0,0-1.43-1.43l0,0,0,0a7.68,7.68,0,0,0-1-.62l-.13-.07a5.29,5.29,0,0,0-.54-.25l-.16-.07a8.78,8.78,0,0,0-.91-.3l-.37-.09c-.15,0-.3-.07-.45-.09a6.36,6.36,0,0,0-.75-.08h-.51Z" style="fill:#15979c"/><path d="M121,59.18a5.35,5.35,0,1,1-5.34-5.34A5.34,5.34,0,0,1,121,59.18Z" style="fill:#fff"/><path d="M111.74,67.38A2.42,2.42,0,1,1,109.32,65,2.42,2.42,0,0,1,111.74,67.38Z" style="fill:#fff"/><path d="M91.51,147.17H80.82a3.37,3.37,0,0,1-3.36-3.35h0a3.37,3.37,0,0,1,3.36-3.36H91.51a3.37,3.37,0,0,1,3.35,3.36h0A3.36,3.36,0,0,1,91.51,147.17Z" style="fill:#15979c"/><path d="M94.27,144H83.58a3.37,3.37,0,0,1-3.36-3.35s0-.1,0-.15a3.35,3.35,0,0,0,.58,6.65H91.51a3.36,3.36,0,0,0,3.34-3.2A3.68,3.68,0,0,1,94.27,144Z" style="fill:#107175"/><path d="M89.64,147.17H87a2.83,2.83,0,0,1-2.83-2.83h0A2.83,2.83,0,0,1,87,141.51h2.62a2.83,2.83,0,0,1,2.83,2.83h0A2.83,2.83,0,0,1,89.64,147.17Z" style="fill:#44acb0"/><path d="M90.24,145.29H87.61a2.84,2.84,0,0,1-2.81-2.68,2.78,2.78,0,0,0-.61,1.73A2.83,2.83,0,0,0,87,147.17h2.62a2.83,2.83,0,0,0,2.83-2.83c0-.05,0-.1,0-.15A2.83,2.83,0,0,1,90.24,145.29Z" style="fill:#3b9699"/><rect x="75.9" y="142.98" width="8.29" height="4.2" rx="2.1" style="fill:#44acb0"/><path d="M82.58,145.07H78.49a2.1,2.1,0,0,1-2-1.46,2.09,2.09,0,0,0,1.5,3.56h4.09a2.11,2.11,0,0,0,2.1-2.1,2.19,2.19,0,0,0-.11-.63A2.08,2.08,0,0,1,82.58,145.07Z" style="fill:#3b9699"/><path d="M116.82,147.17H127.5a3.37,3.37,0,0,0,3.36-3.35h0a3.37,3.37,0,0,0-3.36-3.36H116.82a3.37,3.37,0,0,0-3.36,3.36h0A3.37,3.37,0,0,0,116.82,147.17Z" style="fill:#15979c"/><path d="M128.63,140.67a3.48,3.48,0,0,1,.21,1.12h0a3.37,3.37,0,0,1-3.36,3.36H114.79a3.23,3.23,0,0,1-1.12-.21,3.36,3.36,0,0,0,3.15,2.23H127.5a3.35,3.35,0,0,0,1.13-6.5Z" style="fill:#107175"/><path d="M118.68,147.17h2.62a2.84,2.84,0,0,0,2.84-2.83h0a2.84,2.84,0,0,0-2.84-2.83h-2.62a2.83,2.83,0,0,0-2.83,2.83h0A2.83,2.83,0,0,0,118.68,147.17Z" style="fill:#44acb0"/><path d="M123,142.08a1,1,0,0,1,0,.16,2.83,2.83,0,0,1-2.83,2.83h-2.62a2.75,2.75,0,0,1-1.69-.57,2.83,2.83,0,0,0,2.81,2.67h2.62a2.82,2.82,0,0,0,1.69-5.09Z" style="fill:#3b9699"/><rect x="124.14" y="142.98" width="8.29" height="4.2" rx="2.1" transform="translate(256.56 290.15) rotate(180)" style="fill:#44acb0"/><path d="M131.47,143.32a2.1,2.1,0,0,1-2.09,2.07h-4.09a2.05,2.05,0,0,1-1.15-.35v0a2.1,2.1,0,0,0,2.09,2.1h4.09a2.1,2.1,0,0,0,1.15-3.85Z" style="fill:#3b9699"/><rect x="66.37" y="124.49" width="4.06" height="13.52" rx="2.01" style="fill:#107175"/><rect x="55.5" y="126.4" width="4.55" height="14.06" rx="2.14" style="fill:#107175"/><path d="M63.14,143.82h0a2.28,2.28,0,0,1-2.27-2.28V130.29A2.28,2.28,0,0,1,63.14,128h0a2.28,2.28,0,0,1,2.27,2.28v11.25A2.28,2.28,0,0,1,63.14,143.82Z" style="fill:#107175"/><path d="M63,135h0a7.48,7.48,0,0,1-7.46-7.45h0A7.48,7.48,0,0,1,63,120.07h0a7.48,7.48,0,0,1,7.46,7.46h0A7.48,7.48,0,0,1,63,135Z" style="fill:#15979c"/><rect x="140.81" y="124.49" width="4.06" height="13.52" rx="2.01" transform="translate(285.67 262.51) rotate(180)" style="fill:#107175"/><rect x="151.18" y="126.4" width="4.55" height="14.06" rx="2.14" transform="translate(306.9 266.86) rotate(180)" style="fill:#107175"/><path d="M148.08,143.82h0a2.29,2.29,0,0,0,2.28-2.28V130.29a2.29,2.29,0,0,0-2.28-2.28h0a2.28,2.28,0,0,0-2.27,2.28v11.25A2.28,2.28,0,0,0,148.08,143.82Z" style="fill:#107175"/><path d="M148.26,135h0a7.47,7.47,0,0,0,7.46-7.45h0a7.47,7.47,0,0,0-7.46-7.46h0a7.47,7.47,0,0,0-7.45,7.46h0A7.47,7.47,0,0,0,148.26,135Z" style="fill:#15979c"/><path d="M135,40.59a21.85,21.85,0,0,0,3.74-7.91,20.82,20.82,0,0,0,.32-8.22,19.23,19.23,0,0,0-2.76-7.23,18,18,0,0,0-5-5.19,16.49,16.49,0,0,1,2.59,6.2,15.47,15.47,0,0,1-.07,6.22,14,14,0,0,1-2.36,5.21,12.53,12.53,0,0,1-3.88,3.48,5.43,5.43,0,0,0,5.44,9.4,5.37,5.37,0,0,0,1.62-1.44Z" style="fill:#fcedb6"/><path d="M125.55,40.57a5.68,5.68,0,0,1-.67-1.94A5.43,5.43,0,0,0,131.61,37l.38-.51a22.07,22.07,0,0,0,3.73-7.91,20.68,20.68,0,0,0,.32-8.23,19.45,19.45,0,0,0-2-6,18,18,0,0,1,2.28,2.88A19.23,19.23,0,0,1,139,24.46a20.82,20.82,0,0,1-.32,8.22A21.85,21.85,0,0,1,135,40.59l-.38.52A5.37,5.37,0,0,1,133,42.55,5.44,5.44,0,0,1,125.55,40.57Z" style="fill:#eed473"/><path d="M77.13,40.59a22,22,0,0,1-3.73-7.91,20.45,20.45,0,0,1-.32-8.22,19.39,19.39,0,0,1,2.75-7.23,18.16,18.16,0,0,1,5-5.19,16.65,16.65,0,0,0-2.59,6.2,15.29,15.29,0,0,0,.08,6.22,14,14,0,0,0,2.35,5.21,12.76,12.76,0,0,0,3.88,3.48,5.43,5.43,0,0,1-5.44,9.4,5.37,5.37,0,0,1-1.62-1.44Z" style="fill:#fcedb6"/><path d="M86.55,40.57a5.47,5.47,0,0,0,.67-1.94,5.46,5.46,0,0,1-5.1-.18A5.4,5.4,0,0,1,80.5,37l-.38-.51a21.74,21.74,0,0,1-3.73-7.91,20.69,20.69,0,0,1-.33-8.23,19.45,19.45,0,0,1,2-6,18,18,0,0,0-2.28,2.88,19.39,19.39,0,0,0-2.75,7.23,20.45,20.45,0,0,0,.32,8.22,22,22,0,0,0,3.73,7.91l.38.52a5.37,5.37,0,0,0,1.62,1.44A5.44,5.44,0,0,0,86.55,40.57Z" style="fill:#eed473"/></g></g></g></svg>