<svg xmlns="http://www.w3.org/2000/svg" xmlns:xlink="http://www.w3.org/1999/xlink" viewBox="0 0 179.82 163.05"><defs><linearGradient id="Degradado_sin_nombre_2" x1="24.28" y1="138.33" x2="57.16" y2="81.37" gradientUnits="userSpaceOnUse"><stop offset="0.13" stop-color="#fe3070"/><stop offset="0.24" stop-color="#db4f85"/><stop offset="0.44" stop-color="#a183a9"/><stop offset="0.62" stop-color="#73acc4"/><stop offset="0.78" stop-color="#52cad8"/><stop offset="0.91" stop-color="#3edce5"/><stop offset="1" stop-color="#37e2e9"/></linearGradient><linearGradient id="Degradado_sin_nombre_2-2" x1="-156.85" y1="85.91" x2="-141.22" y2="58.84" gradientTransform="matrix(-0.62, 0.79, -0.79, -0.62, -5.07, 305.82)" xlink:href="#Degradado_sin_nombre_2"/><linearGradient id="Degradado_sin_nombre_2-3" x1="-149.27" y1="72.86" x2="-138.87" y2="90.87" gradientTransform="matrix(-0.62, 0.79, -0.79, -0.62, -5.07, 305.82)" xlink:href="#Degradado_sin_nombre_2"/><linearGradient id="Degradado_sin_nombre_2-4" x1="-157.19" y1="77.55" x2="-142.01" y2="103.84" gradientTransform="matrix(-0.62, 0.79, -0.79, -0.62, -5.07, 305.82)" xlink:href="#Degradado_sin_nombre_2"/><linearGradient id="Degradado_sin_nombre_2-5" x1="-168.54" y1="148.48" x2="-152.91" y2="121.42" gradientTransform="matrix(-1.15, 0.51, -1.35, -0.26, 80.83, 272.07)" xlink:href="#Degradado_sin_nombre_2"/><linearGradient id="Degradado_sin_nombre_2-6" x1="-160.95" y1="135.44" x2="-150.55" y2="153.45" gradientTransform="matrix(-1.15, 0.51, -1.35, -0.26, 80.83, 272.07)" xlink:href="#Degradado_sin_nombre_2"/><linearGradient id="Degradado_sin_nombre_2-7" x1="-168.88" y1="140.13" x2="-153.7" y2="166.42" gradientTransform="matrix(-1.15, 0.51, -1.35, -0.26, 80.83, 272.07)" xlink:href="#Degradado_sin_nombre_2"/><linearGradient id="Degradado_sin_nombre_2-8" x1="73.91" y1="106.26" x2="73.91" y2="148.69" xlink:href="#Degradado_sin_nombre_2"/><linearGradient id="Degradado_sin_nombre_2-9" x1="-188.96" y1="108.55" x2="-173.33" y2="81.48" gradientTransform="matrix(-1.15, 0.51, -1.35, -0.26, 80.83, 272.07)" xlink:href="#Degradado_sin_nombre_2"/><linearGradient id="Degradado_sin_nombre_2-10" x1="-181.38" y1="95.51" x2="-170.98" y2="113.52" gradientTransform="matrix(-1.15, 0.51, -1.35, -0.26, 80.83, 272.07)" xlink:href="#Degradado_sin_nombre_2"/><linearGradient id="Degradado_sin_nombre_2-11" x1="-189.3" y1="100.2" x2="-174.12" y2="126.49" gradientTransform="matrix(-1.15, 0.51, -1.35, -0.26, 80.83, 272.07)" xlink:href="#Degradado_sin_nombre_2"/><linearGradient id="Degradado_sin_nombre_2-12" x1="102.26" y1="141.88" x2="102.26" y2="57.87" xlink:href="#Degradado_sin_nombre_2"/><linearGradient id="Degradado_sin_nombre_2-13" x1="151.48" y1="106.26" x2="151.48" y2="148.69" xlink:href="#Degradado_sin_nombre_2"/><linearGradient id="Degradado_sin_nombre_2-14" x1="110.37" y1="138.33" x2="143.26" y2="81.37" xlink:href="#Degradado_sin_nombre_2"/><linearGradient id="Degradado_sin_nombre_2-15" x1="-174.83" y1="-17.31" x2="-159.2" y2="-44.38" gradientTransform="translate(6.63 273.88) rotate(120.25)" xlink:href="#Degradado_sin_nombre_2"/><linearGradient id="Degradado_sin_nombre_2-16" x1="-167.25" y1="-30.35" x2="-156.85" y2="-12.34" gradientTransform="translate(6.63 273.88) rotate(120.25)" xlink:href="#Degradado_sin_nombre_2"/><linearGradient id="Degradado_sin_nombre_2-17" x1="-175.17" y1="-25.66" x2="-159.99" y2="0.63" gradientTransform="translate(6.63 273.88) rotate(120.25)" xlink:href="#Degradado_sin_nombre_2"/><linearGradient id="Degradado_sin_nombre_2-18" x1="23.07" y1="52.94" x2="36.67" y2="29.38" gradientTransform="translate(-12.95 6.03) rotate(-45)" xlink:href="#Degradado_sin_nombre_2"/><linearGradient id="Degradado_sin_nombre_2-19" x1="29.31" y1="42.99" x2="37.27" y2="56.78" gradientTransform="translate(-12.95 6.03) rotate(-45)" xlink:href="#Degradado_sin_nombre_2"/><linearGradient id="Degradado_sin_nombre_2-20" x1="23.07" y1="46.67" x2="36.67" y2="70.23" gradientTransform="translate(-12.95 6.03) rotate(-45)" xlink:href="#Degradado_sin_nombre_2"/><linearGradient id="Degradado_sin_nombre_2-21" x1="83.4" y1="18.97" x2="83.4" y2="81.95" xlink:href="#Degradado_sin_nombre_2"/><linearGradient id="Degradado_sin_nombre_2-22" x1="79.36" y1="52.67" x2="79.36" y2="81.95" xlink:href="#Degradado_sin_nombre_2"/><linearGradient id="Degradado_sin_nombre_2-23" x1="85.5" y1="115.38" x2="99.11" y2="91.81" gradientTransform="translate(133.55 -124.5) rotate(45)" xlink:href="#Degradado_sin_nombre_2"/><linearGradient id="Degradado_sin_nombre_2-24" x1="91.74" y1="105.43" x2="99.7" y2="119.21" gradientTransform="translate(-12.95 6.03) rotate(-45)" xlink:href="#Degradado_sin_nombre_2"/><linearGradient id="Degradado_sin_nombre_2-25" x1="85.5" y1="109.1" x2="99.11" y2="132.66" gradientTransform="translate(-12.95 6.03) rotate(-45)" xlink:href="#Degradado_sin_nombre_2"/></defs><g style="isolation:isolate"><g id="Layer_2" data-name="Layer 2"><g id="OBJECTS"><path d="M54.94,84.44a7.59,7.59,0,0,0-7.56-7.56H47a7.59,7.59,0,0,0-7.56,7.56v25.11L22.69,126.33a7.58,7.58,0,0,0,0,10.69l.25.25a7.6,7.6,0,0,0,10.69,0l19-19.05a7.55,7.55,0,0,0,2.19-5.77,7.62,7.62,0,0,0,.08-1.08Z" style="fill:url(#Degradado_sin_nombre_2)"/><path d="M54.94,84.44a7.59,7.59,0,0,0-7.56-7.56H47a7.59,7.59,0,0,0-7.56,7.56v4.19A7.57,7.57,0,0,1,43.7,95.4v26.93a7.74,7.74,0,0,1-.09,1.08,7.56,7.56,0,0,1-2.18,5.77l-9.16,9.15a7.66,7.66,0,0,0,1.36-1.06l19-19.05a7.55,7.55,0,0,0,2.19-5.77,7.62,7.62,0,0,0,.08-1.08Z" style="fill:#30c2c9;opacity:0.43;mix-blend-mode:multiply"/><path d="M31.83,157.83s-7.32-6.92-23-3.11A25.86,25.86,0,0,0,.91,132.89s22.65-4.34,25.91-2.16S31.83,157.83,31.83,157.83Z" style="fill:#f6ce2e"/><path d="M28,157.1l-3-25.84a3.09,3.09,0,0,1,2.69-3.44h0a3.09,3.09,0,0,1,3.44,2.69l3,25.83a3.1,3.1,0,0,1-2.69,3.45h0A3.09,3.09,0,0,1,28,157.1Z" style="fill:url(#Degradado_sin_nombre_2-2)"/><path d="M7.64,151.3l17.93-22.64a3.11,3.11,0,0,1,4.34-.54h0a3.1,3.1,0,0,1,.53,4.34L12.51,155.1a3.11,3.11,0,0,1-4.34.54h0A3.1,3.1,0,0,1,7.64,151.3Z" style="fill:url(#Degradado_sin_nombre_2-3)"/><path d="M2.71,130.37l24.8-2.71A3.1,3.1,0,0,1,31,130.35h0a3.1,3.1,0,0,1-2.69,3.44L3.47,136.51A3.1,3.1,0,0,1,0,133.82H0A3.11,3.11,0,0,1,2.71,130.37Z" style="fill:url(#Degradado_sin_nombre_2-4)"/><path d="M86.16,161.52s-12.49-3.14-40.58.74c0,0,4.83-6.95-12.47-11.53,0,0,40.55-4.94,46.19-4S86.16,161.52,86.16,161.52Z" style="fill:#f6ce2e"/><path d="M79.44,161.52l-3.39-14.35c-.24-.93,2-1.94,5-2.25h0c3-.3,5.67.22,5.91,1.15l3.39,14.35c.24.93-2,2-5,2.25h0C82.35,163,79.68,162.45,79.44,161.52Z" style="fill:url(#Degradado_sin_nombre_2-5)"/><path d="M43.69,160.45l33.54-14.82a15.22,15.22,0,0,1,7.74-.77h0c2.3.44,2.58,1.53.63,2.4L52.06,162.08a15.22,15.22,0,0,1-7.74.77h0C42,162.41,41.73,161.32,43.69,160.45Z" style="fill:url(#Degradado_sin_nombre_2-6)"/><path d="M36.51,149.11l44.23-4.25c3-.31,5.67.21,5.91,1.15h0c.25.93-2,1.94-5,2.25l-44.23,4.25c-3,.3-5.67-.22-5.91-1.15h0C31.24,150.42,33.5,149.41,36.51,149.11Z" style="fill:url(#Degradado_sin_nombre_2-7)"/><path d="M88.45,152.2,87,146.07a.59.59,0,0,0-.17-.29c-.19-.39-.81-.72-1.86-.92a15.57,15.57,0,0,0-5.59.13l-25.06,2.4A6.2,6.2,0,0,1,56.48,151L54,152.12c-2,.88-1.67,2,.63,2.41h0a15.22,15.22,0,0,0,7.74-.78l1.85-.82A150.78,150.78,0,0,1,88.45,152.2Z" style="fill:#30c2c9;opacity:0.43;mix-blend-mode:multiply"/><rect x="45.57" y="106.26" width="56.68" height="42.43" rx="17.16" style="fill:url(#Degradado_sin_nombre_2-8)"/><path d="M85.09,106.26H62.72a17,17,0,0,0-9.45,2.86A17,17,0,0,0,51,117.59v8.12a17.2,17.2,0,0,0,17.15,17.15H90.54A17,17,0,0,0,100,140a16.91,16.91,0,0,0,2.26-8.47v-8.12A17.21,17.21,0,0,0,85.09,106.26Z" style="fill:#30c2c9;opacity:0.43;mix-blend-mode:multiply"/><path d="M163.73,161.52s-12.48-3.14-40.58.74c0,0,4.84-6.95-12.46-11.53,0,0,40.55-4.94,46.18-4S163.73,161.52,163.73,161.52Z" style="fill:#f6ce2e"/><path d="M157,161.52l-3.38-14.35c-.24-.93,2-1.94,5-2.25h0c3-.3,5.67.22,5.92,1.15L168,160.42c.25.93-2,2-5,2.25h0C159.92,163,157.26,162.45,157,161.52Z" style="fill:url(#Degradado_sin_nombre_2-9)"/><path d="M121.27,160.45l33.53-14.82a15.26,15.26,0,0,1,7.75-.77h0c2.3.44,2.58,1.53.62,2.4l-33.54,14.82a15.21,15.21,0,0,1-7.74.77h0C119.59,162.41,119.31,161.32,121.27,160.45Z" style="fill:url(#Degradado_sin_nombre_2-10)"/><path d="M114.08,149.11l44.23-4.25c3-.31,5.68.21,5.92,1.15h0c.24.93-2,1.94-5,2.25L115,152.51c-3,.3-5.68-.22-5.92-1.15h0C108.81,150.42,111.07,149.41,114.08,149.11Z" style="fill:url(#Degradado_sin_nombre_2-11)"/><path d="M166.27,153.26l-1.69-7.19a.79.79,0,0,0-.17-.29c-.2-.39-.82-.72-1.86-.92A15.56,15.56,0,0,0,157,145l-26.23,2.52c2.3,1.63,3.13,3.26,3.32,4.57l-2.46,1.08c-2,.88-1.67,2,.63,2.41a15.11,15.11,0,0,0,7.74-.78l1.85-.81A148,148,0,0,1,166.27,153.26Z" style="fill:#30c2c9;opacity:0.43;mix-blend-mode:multiply"/><path d="M166.62,115.49h-7.53a3.64,3.64,0,0,1-3.63-3.63h0a3.64,3.64,0,0,1,3.63-3.64h7.53a3.65,3.65,0,0,1,3.64,3.64h0A3.64,3.64,0,0,1,166.62,115.49Z" style="fill:#f6ce2e"/><path d="M162.86,111.86a3.64,3.64,0,0,1,3.63-3.64h-7.4a3.64,3.64,0,0,0,0,7.27h7.4A3.64,3.64,0,0,1,162.86,111.86Z" style="fill:#f6ce2e;opacity:0.79;mix-blend-mode:multiply"/><path d="M165.51,99.5l-7.33,1.7a3.65,3.65,0,0,1-4.36-2.73h0a3.63,3.63,0,0,1,2.72-4.36l7.33-1.7a3.65,3.65,0,0,1,4.36,2.73h0A3.64,3.64,0,0,1,165.51,99.5Z" style="fill:#f6ce2e"/><path d="M161,96.8a3.64,3.64,0,0,1,2.72-4.36l-7.21,1.67a3.64,3.64,0,0,0,1.64,7.09l7.21-1.67A3.65,3.65,0,0,1,161,96.8Z" style="fill:#f6ce2e;opacity:0.79;mix-blend-mode:multiply"/><path d="M160.83,84.17l-6.77,3.3a3.64,3.64,0,0,1-4.86-1.67h0a3.64,3.64,0,0,1,1.67-4.86l6.76-3.31a3.66,3.66,0,0,1,4.87,1.67h0A3.67,3.67,0,0,1,160.83,84.17Z" style="fill:#f6ce2e"/><path d="M155.85,82.55a3.64,3.64,0,0,1,1.67-4.86l-6.65,3.25a3.63,3.63,0,0,0,3.19,6.53l6.65-3.25A3.64,3.64,0,0,1,155.85,82.55Z" style="fill:#f6ce2e;opacity:0.79;mix-blend-mode:multiply"/><path d="M152.8,70.28,147,75a3.64,3.64,0,0,1-5.11-.53h0a3.63,3.63,0,0,1,.53-5.11l5.84-4.75a3.64,3.64,0,0,1,5.11.53h0A3.63,3.63,0,0,1,152.8,70.28Z" style="fill:#f6ce2e"/><path d="M147.59,69.84a3.66,3.66,0,0,1,.53-5.12l-5.74,4.67A3.63,3.63,0,0,0,147,75l5.75-4.67A3.64,3.64,0,0,1,147.59,69.84Z" style="fill:#f6ce2e;opacity:0.79;mix-blend-mode:multiply"/><path d="M141.86,58.57l-4.62,5.94a3.64,3.64,0,0,1-5.1.64h0a3.64,3.64,0,0,1-.64-5.1l4.62-5.95a3.65,3.65,0,0,1,5.1-.63h0A3.64,3.64,0,0,1,141.86,58.57Z" style="fill:#f6ce2e"/><path d="M136.68,59.31A3.65,3.65,0,0,1,136,54.2l-4.54,5.85a3.63,3.63,0,0,0,5.74,4.46l4.54-5.84A3.64,3.64,0,0,1,136.68,59.31Z" style="fill:#f6ce2e;opacity:0.79;mix-blend-mode:multiply"/><path d="M56.2,117.14H53.08a1.92,1.92,0,0,1-1.92-1.91h0a1.93,1.93,0,0,1,1.92-1.92H56.2a1.92,1.92,0,0,1,1.91,1.92h0A1.92,1.92,0,0,1,56.2,117.14Z" style="fill:#30c2c9;opacity:0.43;mix-blend-mode:multiply"/><path d="M48.42,120.21h0a1.54,1.54,0,0,1-1.54-1.53h0a1.54,1.54,0,0,1,1.54-1.54h0A1.54,1.54,0,0,1,50,118.68h0A1.54,1.54,0,0,1,48.42,120.21Z" style="fill:#30c2c9;opacity:0.43;mix-blend-mode:multiply"/><path d="M56,124h-2.9a2,2,0,0,1-2-2h0a2,2,0,0,1,2-2H56a2,2,0,0,1,2,2h0A2,2,0,0,1,56,124Z" style="fill:#30c2c9;opacity:0.43;mix-blend-mode:multiply"/><path d="M51.56,126.92h-1.8a.76.76,0,0,1-.76-.76h0a.77.77,0,0,1,.76-.76h1.8a.77.77,0,0,1,.76.76h0A.77.77,0,0,1,51.56,126.92Z" style="fill:#30c2c9;opacity:0.43;mix-blend-mode:multiply"/><path d="M55,119.2H53.6a.62.62,0,0,1-.62-.61h0a.62.62,0,0,1,.62-.62H55a.62.62,0,0,1,.61.62h0A.62.62,0,0,1,55,119.2Z" style="fill:#30c2c9;opacity:0.43;mix-blend-mode:multiply"/><path d="M57.2,130.76h0a2.69,2.69,0,0,1-2.68-2.68h0a2.69,2.69,0,0,1,2.68-2.68h0a2.69,2.69,0,0,1,2.68,2.68h0A2.69,2.69,0,0,1,57.2,130.76Z" style="fill:#30c2c9;opacity:0.43;mix-blend-mode:multiply"/><path d="M48.39,85.73H45.26a1.92,1.92,0,0,1-1.91-1.91h0a1.92,1.92,0,0,1,1.91-1.91h3.13a1.92,1.92,0,0,1,1.91,1.91h0A1.92,1.92,0,0,1,48.39,85.73Z" style="fill:#30c2c9;opacity:0.43;mix-blend-mode:multiply"/><path d="M41.33,89.33h0a1.54,1.54,0,0,1-1.54-1.53h0a1.54,1.54,0,0,1,1.54-1.54h0a1.54,1.54,0,0,1,1.53,1.54h0A1.54,1.54,0,0,1,41.33,89.33Z" style="fill:#30c2c9;opacity:0.43;mix-blend-mode:multiply"/><path d="M48.16,92.56H45.25a2,2,0,0,1-2-2h0a2,2,0,0,1,2-2h2.91a2,2,0,0,1,2,2h0A2,2,0,0,1,48.16,92.56Z" style="fill:#30c2c9;opacity:0.43;mix-blend-mode:multiply"/><path d="M43.74,95.52H42a.77.77,0,0,1-.77-.76h0A.77.77,0,0,1,42,94h1.79a.76.76,0,0,1,.76.76h0A.76.76,0,0,1,43.74,95.52Z" style="fill:#30c2c9;opacity:0.43;mix-blend-mode:multiply"/><path d="M47.2,87.8H45.78a.62.62,0,0,1-.61-.62h0a.61.61,0,0,1,.61-.61H47.2a.61.61,0,0,1,.62.61h0A.62.62,0,0,1,47.2,87.8Z" style="fill:#30c2c9;opacity:0.43;mix-blend-mode:multiply"/><path d="M49.39,99.36h0a2.69,2.69,0,0,1-2.68-2.68h0A2.68,2.68,0,0,1,49.39,94h0a2.69,2.69,0,0,1,2.68,2.68h0A2.69,2.69,0,0,1,49.39,99.36Z" style="fill:#30c2c9;opacity:0.43;mix-blend-mode:multiply"/><path d="M51.9,57.87h58a50.5,50.5,0,0,1,50.5,50.5V134.1a7.78,7.78,0,0,1-7.78,7.78h-54A54.51,54.51,0,0,1,44.12,87.37V65.65a7.78,7.78,0,0,1,7.78-7.78Z" style="fill:url(#Degradado_sin_nombre_2-12)"/><path d="M111.32,57.87h-10a53.15,53.15,0,0,1,18.12,40.25h0c0,17.62-13.61,32-30.24,32H64.79a50.81,50.81,0,0,0,32.3,11.73h55.74a7.81,7.81,0,0,0,7.56-8v-24C160.39,81.26,138.31,57.87,111.32,57.87Z" style="fill:#30c2c9;opacity:0.43;mix-blend-mode:multiply"/><path d="M139,80h-5a3.94,3.94,0,0,1-3.93-3.93h0a3.94,3.94,0,0,1,3.93-3.93h5A3.94,3.94,0,0,1,143,76.09h0A3.94,3.94,0,0,1,139,80Z" style="fill:#30c2c9;opacity:0.43;mix-blend-mode:multiply"/><path d="M146.27,78.91h3.43a1.74,1.74,0,0,1,1.73,1.74h0a1.74,1.74,0,0,1-1.73,1.73h-3.43a1.74,1.74,0,0,1-1.73-1.73h0A1.74,1.74,0,0,1,146.27,78.91Z" style="fill:#30c2c9;opacity:0.43;mix-blend-mode:multiply"/><path d="M145.49,74.62h1.09A1.4,1.4,0,0,1,148,76h0a1.41,1.41,0,0,1-1.4,1.41h-1.09A1.41,1.41,0,0,1,144.08,76h0A1.41,1.41,0,0,1,145.49,74.62Z" style="fill:#30c2c9;opacity:0.43;mix-blend-mode:multiply"/><path d="M127.46,70.11h1.09a1.41,1.41,0,0,1,1.4,1.41h0a1.41,1.41,0,0,1-1.4,1.41h-1.09a1.41,1.41,0,0,1-1.41-1.41h0A1.41,1.41,0,0,1,127.46,70.11Z" style="fill:#30c2c9;opacity:0.43;mix-blend-mode:multiply"/><path d="M138.73,82.38h4.21a1.6,1.6,0,0,1,1.6,1.6h0a1.6,1.6,0,0,1-1.6,1.59h-4.21A1.59,1.59,0,0,1,137.14,84h0A1.6,1.6,0,0,1,138.73,82.38Z" style="fill:#30c2c9;opacity:0.43;mix-blend-mode:multiply"/><path d="M146.92,86.5h1.53A1.45,1.45,0,0,1,149.9,88h0a1.46,1.46,0,0,1-1.45,1.46h-1.53A1.46,1.46,0,0,1,145.47,88h0A1.45,1.45,0,0,1,146.92,86.5Z" style="fill:#30c2c9;opacity:0.43;mix-blend-mode:multiply"/><path d="M152.88,91.14h1.53a1.46,1.46,0,0,1,1.45,1.46h0a1.46,1.46,0,0,1-1.45,1.46h-1.53a1.47,1.47,0,0,1-1.46-1.46h0A1.47,1.47,0,0,1,152.88,91.14Z" style="fill:#30c2c9;opacity:0.43;mix-blend-mode:multiply"/><path d="M134.28,83.21H132a1,1,0,0,1-1-1h0a1,1,0,0,1,1-1h2.26a1,1,0,0,1,1,1h0A1,1,0,0,1,134.28,83.21Z" style="fill:#30c2c9;opacity:0.43;mix-blend-mode:multiply"/><path d="M138.27,71.13H136a1,1,0,0,1-1-1h0a1,1,0,0,1,1-1h2.27a1,1,0,0,1,1,1h0A1,1,0,0,1,138.27,71.13Z" style="fill:#30c2c9;opacity:0.43;mix-blend-mode:multiply"/><path d="M141.53,89.41h-2.05a.73.73,0,0,1-.73-.73h0a.73.73,0,0,1,.73-.73h2.05a.73.73,0,0,1,.73.73h0A.73.73,0,0,1,141.53,89.41Z" style="fill:#30c2c9;opacity:0.43;mix-blend-mode:multiply"/><path d="M152.81,85.38h-2.08a.83.83,0,0,1-.83-.83h0a.84.84,0,0,1,.83-.84h2.08a.84.84,0,0,1,.83.84h0A.83.83,0,0,1,152.81,85.38Z" style="fill:#30c2c9;opacity:0.43;mix-blend-mode:multiply"/><path d="M153.75,89.5h-2.08a.84.84,0,0,1-.84-.83h0a.85.85,0,0,1,.84-.84h2.08a.84.84,0,0,1,.83.84h0A.84.84,0,0,1,153.75,89.5Z" style="fill:#30c2c9;opacity:0.43;mix-blend-mode:multiply"/><rect x="123.14" y="106.26" width="56.68" height="42.43" rx="17.16" style="fill:url(#Degradado_sin_nombre_2-13)"/><path d="M168,141.52H145.58a17.2,17.2,0,0,1-17.15-17.15v-8.12a17,17,0,0,1,1.19-6.23,17.14,17.14,0,0,0-6.48,13.39v8.12a17.21,17.21,0,0,0,17.16,17.16h22.37a17.2,17.2,0,0,0,16-10.94A17.06,17.06,0,0,1,168,141.52Z" style="fill:#30c2c9;opacity:0.43;mix-blend-mode:multiply"/><path d="M144.43,87.83a7.58,7.58,0,0,0-7.56-7.55h-.35A7.58,7.58,0,0,0,129,87.83v25.11l-16.78,16.78a7.58,7.58,0,0,0,0,10.69l.25.25a7.58,7.58,0,0,0,10.69,0l19-19a7.49,7.49,0,0,0,2.18-5.77,7.61,7.61,0,0,0,.09-1.08Z" style="fill:#30c2c9;opacity:0.43;mix-blend-mode:multiply"/><path d="M141,84.44a7.59,7.59,0,0,0-7.56-7.56h-.35a7.59,7.59,0,0,0-7.56,7.56v25.11l-16.78,16.78a7.58,7.58,0,0,0,0,10.69l.25.25a7.59,7.59,0,0,0,10.68,0l19.05-19.05a7.54,7.54,0,0,0,2.18-5.77,7.61,7.61,0,0,0,.09-1.08Z" style="fill:url(#Degradado_sin_nombre_2-14)"/><path d="M121.52,158.75s-8.19-5.88-23.2,0a25.86,25.86,0,0,0-10.79-20.56s21.86-7.35,25.39-5.62S121.52,158.75,121.52,158.75Z" style="fill:#f6ce2e"/><path d="M117.64,158.54l-6.44-25.2a3.1,3.1,0,0,1,2.21-3.78h0a3.1,3.1,0,0,1,3.77,2.2L123.62,157a3.1,3.1,0,0,1-2.2,3.77h0A3.1,3.1,0,0,1,117.64,158.54Z" style="fill:url(#Degradado_sin_nombre_2-15)"/><path d="M96.67,155.53l14.73-24.85a3.1,3.1,0,0,1,4.23-1.11h0a3.1,3.1,0,0,1,1.11,4.23L102,158.64a3.11,3.11,0,0,1-4.23,1.12h0A3.11,3.11,0,0,1,96.67,155.53Z" style="fill:url(#Degradado_sin_nombre_2-16)"/><path d="M89,135.45l24.2-6a3.1,3.1,0,0,1,3.78,2.2h0a3.1,3.1,0,0,1-2.2,3.78l-24.21,6a3.1,3.1,0,0,1-3.77-2.2h0A3.11,3.11,0,0,1,89,135.45Z" style="fill:url(#Degradado_sin_nombre_2-17)"/><path d="M137.85,69.75v-4a48.7,48.7,0,0,0-26.53-7.86H51.68a7.59,7.59,0,0,0-7.56,7.56V84.21c0,.64,0,1.28.05,1.91A19,19,0,0,0,54,88.85h64.76A19.16,19.16,0,0,0,137.85,69.75Z" style="fill:#30c2c9;opacity:0.43;mix-blend-mode:multiply"/><path d="M38.09,2.17S43.36,12.11,54.5,7.6c0,0-2.83,12.91,7.36,19,0,0-22,1.31-23.82-.28S38.09,2.17,38.09,2.17Z" style="fill:#f6ce2e"/><path d="M54.78,17C49,17.1,42.9,17,42,16.24s-.89-5.32-.75-10.35a14.15,14.15,0,0,1-3.14-3.72S36.21,24.73,38,26.31s23.82.28,23.82.28A15.26,15.26,0,0,1,54.78,17Z" style="fill:#f6ce2e;opacity:0.79;mix-blend-mode:multiply"/><path d="M39.18,1.91V26.13a1.91,1.91,0,0,1-1.9,1.9h0a1.91,1.91,0,0,1-1.91-1.9V1.91A1.92,1.92,0,0,1,37.28,0h0A1.91,1.91,0,0,1,39.18,1.91Z" style="fill:url(#Degradado_sin_nombre_2-18)"/><path d="M55.78,10.55,38.65,27.68a1.92,1.92,0,0,1-2.7,0h0A1.92,1.92,0,0,1,36,25L53.08,7.86a1.92,1.92,0,0,1,2.7,0h0A1.91,1.91,0,0,1,55.78,10.55Z" style="fill:url(#Degradado_sin_nombre_2-19)"/><path d="M51.34,26.59c-.21-.39-.41-.8-.59-1.2h0c-.18-.42-.33-.83-.48-1.25l0-.11c-.13-.42-.26-.84-.36-1.25A20.94,20.94,0,0,1,49.23,18l1.63-1.63a1.91,1.91,0,0,0-2.7-2.69l-.35.34a11.89,11.89,0,0,1-11.49-2.31h0c-.26-.22-.5-.43-.72-.65l0,0-.19-.19v15.3a1.83,1.83,0,0,0,.05.4A1.86,1.86,0,0,0,36,27.68a1.92,1.92,0,0,0,2.7,0l.9-.91a72.19,72.19,0,0,0,10,.3l2-.05-.18-.3S51.36,26.64,51.34,26.59Z" style="fill:#30c2c9;opacity:0.43;mix-blend-mode:multiply"/><path d="M61.61,28.14H37.39a1.9,1.9,0,0,1-1.9-1.9h0a1.91,1.91,0,0,1,1.9-1.91H61.61a1.92,1.92,0,0,1,1.91,1.91h0A1.91,1.91,0,0,1,61.61,28.14Z" style="fill:url(#Degradado_sin_nombre_2-20)"/><rect x="31.91" y="18.97" width="102.97" height="62.98" rx="19.1" style="fill:url(#Degradado_sin_nombre_2-21)"/><path d="M124.78,21.24V31.36a19.16,19.16,0,0,1-19.11,19.1H40.91a18.9,18.9,0,0,1-9-2.27V62.85A19.16,19.16,0,0,0,51,82h64.77a19.15,19.15,0,0,0,19.1-19.1V38.08A19.17,19.17,0,0,0,124.78,21.24Z" style="fill:#30c2c9;opacity:0.43;mix-blend-mode:multiply"/><path d="M117.5,45.48c.08-.12.17-.23.25-.34s.3-.44.44-.67l.22-.36c.13-.23.26-.47.38-.71s.12-.24.17-.36.23-.51.33-.77a3.62,3.62,0,0,0,.13-.35c.1-.27.19-.55.28-.83,0-.09,0-.19.07-.29.08-.31.16-.62.22-.93h0A13.61,13.61,0,0,0,97.73,27h0l-.54.48c-.15.15-.3.3-.44.46l-.32.34c-.19.22-.37.44-.55.67s-.22.28-.32.43-.29.4-.43.61l-.34.57-.25.45c-.13.26-.26.53-.38.79l-.15.34c-.13.32-.25.64-.35,1,0,.1-.07.19-.09.29-.11.35-.2.71-.28,1.07,0,.08,0,.16-.05.23-.07.39-.13.78-.17,1.17,0,0,0,.1,0,.15,0,.43-.06.86-.06,1.3a13.62,13.62,0,0,0,13.62,13.62,11.43,11.43,0,0,0,1.32-.07l.43,0,.85-.13.5-.12c.25-.05.5-.12.74-.19l.52-.16.68-.25.51-.22c.21-.09.42-.19.62-.3l.51-.26.56-.35c.17-.1.34-.2.5-.31l.5-.38a5.85,5.85,0,0,0,.49-.38l.21-.18a13.25,13.25,0,0,0,1.19-1.18c.09-.1.19-.2.27-.3S117.34,45.69,117.5,45.48Z" style="fill:#30c2c9;opacity:0.43;mix-blend-mode:multiply"/><path d="M84.73,36.65l.15-.2.26-.4.13-.21.23-.43.1-.21c.07-.15.14-.3.2-.46s0-.14.07-.21S86,34.21,86,34a.85.85,0,0,1,0-.17,8,8,0,0,0,.28-2.08A8.1,8.1,0,0,0,73,25.65h0a7.94,7.94,0,0,0-.59.57l-.06.06c-.16.18-.32.37-.47.56l-.09.12c-.13.18-.26.37-.38.56l-.1.16c-.11.18-.2.36-.3.55l-.1.21c-.08.18-.15.37-.22.55l-.09.25c-.06.18-.11.37-.16.55s-.05.18-.07.27-.07.4-.1.6,0,.17,0,.25a8.51,8.51,0,0,0,0,.88,8.1,8.1,0,0,0,8.1,8.1,6.85,6.85,0,0,0,.79,0l.25,0,.51-.08.3-.06.44-.12.3-.1.41-.14.3-.13.37-.18.3-.16a3.79,3.79,0,0,0,.34-.2l.3-.19.29-.23.3-.22.11-.11a7.93,7.93,0,0,0,.72-.7l.16-.18Z" style="fill:#30c2c9;opacity:0.43;mix-blend-mode:multiply"/><path d="M60.45,45.48l.26-.34c.15-.22.29-.44.43-.67s.15-.24.22-.36.26-.47.38-.71l.18-.36c.11-.25.23-.51.33-.77s.08-.23.13-.35c.09-.27.19-.55.27-.83,0-.09.05-.19.08-.29a13.86,13.86,0,0,0,.46-3.49A13.61,13.61,0,0,0,40.68,27h0l-.53.48-.45.46c-.11.11-.21.23-.31.34s-.38.44-.56.67-.22.28-.32.43-.29.4-.42.61-.23.38-.34.57-.17.3-.25.45-.27.53-.39.79-.1.23-.14.34c-.13.32-.25.64-.36,1l-.09.29a9.85,9.85,0,0,0-.27,1.07c0,.08,0,.16,0,.23A11.82,11.82,0,0,0,36,35.86s0,.1,0,.15c0,.43-.07.86-.07,1.3A13.62,13.62,0,0,0,49.57,50.93a11.67,11.67,0,0,0,1.32-.07l.43,0,.85-.13.5-.12c.25-.05.49-.12.74-.19l.52-.16L54.6,50l.52-.22c.21-.09.41-.19.62-.3l.5-.26c.2-.11.38-.23.57-.35l.5-.31c.17-.12.33-.25.49-.38a6,6,0,0,0,.5-.38c.07,0,.13-.12.2-.18a13.25,13.25,0,0,0,1.19-1.18l.28-.3C60.14,45.9,60.3,45.69,60.45,45.48Z" style="fill:#30c2c9;opacity:0.43;mix-blend-mode:multiply"/><circle cx="106.61" cy="35.65" r="13.63" transform="translate(58.16 137.09) rotate(-82.96)" style="fill:#30c2c9;opacity:0.43;mix-blend-mode:multiply"/><path d="M94.87,35.65a11.75,11.75,0,1,0,11.74-11.74A11.74,11.74,0,0,0,94.87,35.65Z" style="fill:#fe306e"/><path d="M100.74,35.65a5.88,5.88,0,1,0,5.87-5.87A5.87,5.87,0,0,0,100.74,35.65Z" style="fill:#0e393a"/><path d="M98.28,36.66a3,3,0,1,0,3-3A3,3,0,0,0,98.28,36.66Z" style="fill:#fff"/><path d="M106.61,42.39a11.75,11.75,0,0,0,11.48-9.24,12,12,0,0,1,.27,2.5,11.75,11.75,0,0,1-23.49,0,12,12,0,0,1,.27-2.5A11.75,11.75,0,0,0,106.61,42.39Z" style="fill:#bf2453"/><path d="M118.36,35.65a11.75,11.75,0,0,0-23.49,0Z" style="fill:#37e2e9"/><path d="M97.73,25.33A13.61,13.61,0,0,0,120,38.21,13.62,13.62,0,1,1,97.73,25.33Z" style="fill:#30c2c9;opacity:0.43;mix-blend-mode:multiply"/><circle cx="78.25" cy="30.13" r="8.11" transform="translate(38.77 104.11) rotate(-82.97)" style="fill:#30c2c9;opacity:0.43;mix-blend-mode:multiply"/><path d="M71.27,30.13a7,7,0,1,0,7-7A7,7,0,0,0,71.27,30.13Z" style="fill:#fe306e"/><path d="M74.76,30.13a3.5,3.5,0,1,0,3.49-3.49A3.49,3.49,0,0,0,74.76,30.13Z" style="fill:#0e393a"/><path d="M73.29,30.73a1.81,1.81,0,1,0,1.81-1.81A1.82,1.82,0,0,0,73.29,30.73Z" style="fill:#fff"/><path d="M78.25,34.14a7,7,0,0,0,6.83-5.5,7.31,7.31,0,0,1,.16,1.49,7,7,0,1,1-14,0,6.67,6.67,0,0,1,.16-1.49A7,7,0,0,0,78.25,34.14Z" style="fill:#bf2453"/><path d="M85.24,30.13a7,7,0,1,0-14,0Z" style="fill:#37e2e9"/><path d="M73,24a8.62,8.62,0,0,0-.14,1.53,8.1,8.1,0,0,0,13.39,6.13A8.1,8.1,0,1,1,73,24Z" style="fill:#30c2c9;opacity:0.43;mix-blend-mode:multiply"/><circle cx="49.57" cy="35.65" r="13.63" transform="translate(8.44 80.77) rotate(-83.37)" style="fill:#30c2c9;opacity:0.43;mix-blend-mode:multiply"/><path d="M37.83,35.65A11.74,11.74,0,1,0,49.57,23.91,11.73,11.73,0,0,0,37.83,35.65Z" style="fill:#fe306e"/><path d="M43.7,35.65a5.87,5.87,0,1,0,5.87-5.87A5.87,5.87,0,0,0,43.7,35.65Z" style="fill:#0e393a"/><path d="M41.23,36.66a3,3,0,1,0,3.05-3A3,3,0,0,0,41.23,36.66Z" style="fill:#fff"/><path d="M49.57,42.39A11.74,11.74,0,0,0,61,33.15a12,12,0,0,1,.27,2.5,11.74,11.74,0,0,1-23.48,0,11.4,11.4,0,0,1,.27-2.5A11.74,11.74,0,0,0,49.57,42.39Z" style="fill:#bf2453"/><path d="M61.31,35.65a11.74,11.74,0,0,0-23.48,0Z" style="fill:#37e2e9"/><path d="M40.68,25.33A13.62,13.62,0,0,0,63,38.21,13.63,13.63,0,1,1,40.68,25.33Z" style="fill:#30c2c9;opacity:0.43;mix-blend-mode:multiply"/><path d="M38.73,61.27h0a5,5,0,0,1-5-5V49a5,5,0,0,1,5-5h0a5,5,0,0,1,5,5v7.25A5,5,0,0,1,38.73,61.27Z" style="fill:#ffe2b8"/><path d="M123.61,63.79h0a5,5,0,0,1-5-5V51.56a5,5,0,0,1,5-5h0a5,5,0,0,1,5,5v7.25A5,5,0,0,1,123.61,63.79Z" style="fill:#ffe2b8"/><path d="M51.64,65.36h0a5,5,0,0,1-5-5V53.14a5,5,0,0,1,5-5h0a5,5,0,0,1,5,5v7.25A5,5,0,0,1,51.64,65.36Z" style="fill:#ffe2b8"/><path d="M109.08,66.47h0a5,5,0,0,1-5-5V54.25a5,5,0,0,1,5-5h0a5,5,0,0,1,5,5V61.5A5,5,0,0,1,109.08,66.47Z" style="fill:#ffe2b8"/><path d="M72.51,65.36h0a5,5,0,0,1-5-5V53.14a5,5,0,0,1,5-5h0a5,5,0,0,1,5,5v7.25A5,5,0,0,1,72.51,65.36Z" style="fill:#ffe2b8"/><path d="M38.73,65.36h0a5,5,0,0,1-5-5V53.14a5,5,0,0,1,5-5h0a5,5,0,0,1,5,5v7.25A5,5,0,0,1,38.73,65.36Z" style="fill:#ffe2b8;mix-blend-mode:multiply"/><path d="M123.61,66.85h0a5,5,0,0,1-5-5V54.63a5,5,0,0,1,5-5h0a5,5,0,0,1,5,5v7.25A5,5,0,0,1,123.61,66.85Z" style="fill:#ffe2b8;mix-blend-mode:multiply"/><path d="M51.64,67.91h0a5,5,0,0,1-5-5V55.68a5,5,0,0,1,5-5h0a5,5,0,0,1,5,5v7.25A5,5,0,0,1,51.64,67.91Z" style="fill:#ffe2b8;mix-blend-mode:multiply"/><path d="M109.08,68h0a5,5,0,0,1-5-5V55.74a5,5,0,0,1,5-5h0a5,5,0,0,1,5,5V63A5,5,0,0,1,109.08,68Z" style="fill:#ffe2b8;mix-blend-mode:multiply"/><path d="M72.51,66.85h0a5,5,0,0,1-5-5V54.63a5,5,0,0,1,5-5h0a5,5,0,0,1,5,5v7.25A5,5,0,0,1,72.51,66.85Z" style="fill:#ffe2b8;mix-blend-mode:multiply"/><rect x="23.83" y="52.67" width="111.05" height="29.29" rx="12.65" style="fill:url(#Degradado_sin_nombre_2-22)"/><path d="M128.74,54.5a12.48,12.48,0,0,1,.08,1.38v4a12.69,12.69,0,0,1-12.65,12.65H30.41a12.46,12.46,0,0,1-6.5-1.84A12.68,12.68,0,0,0,36.48,82h85.75a12.68,12.68,0,0,0,12.65-12.64v-4A12.66,12.66,0,0,0,128.74,54.5Z" style="fill:#30c2c9;opacity:0.43;mix-blend-mode:multiply"/><path d="M126.38,2.17s5.27,9.94,16.41,5.43c0,0-2.83,12.91,7.36,19,0,0-22,1.31-23.82-.28S126.38,2.17,126.38,2.17Z" style="fill:#f6ce2e"/><path d="M143.29,17.73c-5.46.11-10.89,0-11.76-.75s-.89-5.2-.75-10.15a14.3,14.3,0,0,1-4.4-4.66s-1.88,22.56,0,24.14,23.82.28,23.82.28A15.14,15.14,0,0,1,143.29,17.73Z" style="fill:#f6ce2e;opacity:0.79;mix-blend-mode:multiply"/><rect x="111.55" y="12.11" width="28.03" height="3.81" rx="1.91" transform="translate(111.55 139.59) rotate(-90)" style="fill:url(#Degradado_sin_nombre_2-23)"/><path d="M144.07,10.55,126.94,27.68a1.91,1.91,0,0,1-2.69,0h0a1.92,1.92,0,0,1,0-2.7L141.37,7.86a1.92,1.92,0,0,1,2.7,0h0A1.91,1.91,0,0,1,144.07,10.55Z" style="fill:url(#Degradado_sin_nombre_2-24)"/><path d="M149.9,28.14H125.68a1.9,1.9,0,0,1-1.9-1.9h0a1.91,1.91,0,0,1,1.9-1.91H149.9a1.92,1.92,0,0,1,1.91,1.91h0A1.91,1.91,0,0,1,149.9,28.14Z" style="fill:url(#Degradado_sin_nombre_2-25)"/><path d="M59.56,62.8H34.21a2.3,2.3,0,0,1-2.3-2.3h0a2.3,2.3,0,0,1,2.3-2.29H59.56a2.3,2.3,0,0,1,2.3,2.29h0A2.31,2.31,0,0,1,59.56,62.8Z" style="fill:#fff;opacity:0.38;mix-blend-mode:screen"/><path d="M67.85,62.8H66.68a2.31,2.31,0,0,1-2.3-2.3h0a2.3,2.3,0,0,1,2.3-2.29h1.17a2.3,2.3,0,0,1,2.3,2.29h0A2.31,2.31,0,0,1,67.85,62.8Z" style="fill:#fff;opacity:0.38;mix-blend-mode:screen"/><rect x="53.48" y="20.71" width="17.07" height="2.62" rx="1.31" style="fill:#fff;opacity:0.38;mix-blend-mode:screen"/><rect x="72" y="20.71" width="3.29" height="2.62" rx="1.31" style="fill:#fff;opacity:0.38;mix-blend-mode:screen"/><rect x="114.05" y="20.71" width="6.19" height="2.62" rx="1.31" style="fill:#30c2c9;opacity:0.43;mix-blend-mode:multiply"/><path d="M123,31.79h-1.91a.83.83,0,0,1-.83-.83h0a.83.83,0,0,1,.83-.83H123a.83.83,0,0,1,.83.83h0A.83.83,0,0,1,123,31.79Z" style="fill:#30c2c9;opacity:0.43;mix-blend-mode:multiply"/><path d="M122.61,27.1h-2.87a1.38,1.38,0,0,1-1.38-1.39h0a1.38,1.38,0,0,1,1.38-1.38h2.87A1.38,1.38,0,0,1,124,25.71h0A1.38,1.38,0,0,1,122.61,27.1Z" style="fill:#30c2c9;opacity:0.43;mix-blend-mode:multiply"/><path d="M90.94,48.17h-5.5a2.06,2.06,0,0,1-2-2.05h0a2.05,2.05,0,0,1,2-2h5.5a2.05,2.05,0,0,1,2,2h0A2.06,2.06,0,0,1,90.94,48.17Z" style="fill:#30c2c9;opacity:0.43;mix-blend-mode:multiply"/><path d="M89.89,43.11h-2A1.09,1.09,0,0,1,86.81,42h0a1.09,1.09,0,0,1,1.09-1.09h2A1.09,1.09,0,0,1,91,42h0A1.09,1.09,0,0,1,89.89,43.11Z" style="fill:#30c2c9;opacity:0.43;mix-blend-mode:multiply"/><path d="M84.43,41.52h-.65a.82.82,0,0,1-.82-.81h0a.82.82,0,0,1,.82-.82h.65a.82.82,0,0,1,.81.82h0A.82.82,0,0,1,84.43,41.52Z" style="fill:#30c2c9;opacity:0.43;mix-blend-mode:multiply"/><path d="M121.37,70.94h-5.08a2.24,2.24,0,0,1-2.24-2.23h0a2.25,2.25,0,0,1,2.24-2.24h5.08a2.25,2.25,0,0,1,2.24,2.24h0A2.24,2.24,0,0,1,121.37,70.94Z" style="fill:#30c2c9;opacity:0.43;mix-blend-mode:multiply"/><path d="M111.07,74h-3a1.53,1.53,0,0,1-1.53-1.52h0A1.54,1.54,0,0,1,108,70.94h3a1.53,1.53,0,0,1,1.52,1.53h0A1.52,1.52,0,0,1,111.07,74Z" style="fill:#30c2c9;opacity:0.43;mix-blend-mode:multiply"/><path d="M119.94,75.84h-3.12a1.25,1.25,0,0,1-1.24-1.24h0a1.25,1.25,0,0,1,1.24-1.24h3.12a1.25,1.25,0,0,1,1.24,1.24h0A1.25,1.25,0,0,1,119.94,75.84Z" style="fill:#30c2c9;opacity:0.43;mix-blend-mode:multiply"/><path d="M129.07,77.69h-3.32a2.62,2.62,0,0,1-2.61-2.61h0a2.62,2.62,0,0,1,2.61-2.61h3.32a2.61,2.61,0,0,1,2.61,2.61h0A2.62,2.62,0,0,1,129.07,77.69Z" style="fill:#30c2c9;opacity:0.43;mix-blend-mode:multiply"/><path d="M128.33,70.94h-1.64a1.12,1.12,0,0,1-1.12-1.12h0a1.12,1.12,0,0,1,1.12-1.11h1.64a1.12,1.12,0,0,1,1.12,1.11h0A1.12,1.12,0,0,1,128.33,70.94Z" style="fill:#30c2c9;opacity:0.43;mix-blend-mode:multiply"/><path d="M125.6,66.47h-1.11a1.35,1.35,0,0,1-1.35-1.34h0a1.35,1.35,0,0,1,1.35-1.34h1.11A1.35,1.35,0,0,1,127,65.13h0A1.35,1.35,0,0,1,125.6,66.47Z" style="fill:#30c2c9;opacity:0.43;mix-blend-mode:multiply"/><path d="M35.54,70.74h5.09A2.23,2.23,0,0,1,42.86,73h0a2.24,2.24,0,0,1-2.23,2.24H35.54A2.24,2.24,0,0,1,33.31,73h0A2.23,2.23,0,0,1,35.54,70.74Z" style="fill:#30c2c9;opacity:0.43;mix-blend-mode:multiply"/><path d="M45.84,67.69H48.9a1.53,1.53,0,0,1,1.52,1.52h0a1.53,1.53,0,0,1-1.52,1.53H45.84a1.53,1.53,0,0,1-1.52-1.53h0A1.53,1.53,0,0,1,45.84,67.69Z" style="fill:#30c2c9;opacity:0.43;mix-blend-mode:multiply"/><path d="M38.29,77.23h3.05a1.52,1.52,0,0,1,1.52,1.52h0a1.53,1.53,0,0,1-1.52,1.53H38.29a1.54,1.54,0,0,1-1.53-1.53h0A1.53,1.53,0,0,1,38.29,77.23Z" style="fill:#30c2c9;opacity:0.43;mix-blend-mode:multiply"/><path d="M37,65.84h3.12a1.25,1.25,0,0,1,1.24,1.24h0a1.25,1.25,0,0,1-1.24,1.24H37a1.24,1.24,0,0,1-1.23-1.24h0A1.24,1.24,0,0,1,37,65.84Z" style="fill:#30c2c9;opacity:0.43;mix-blend-mode:multiply"/><path d="M35,54.28h3.12a1.25,1.25,0,0,1,1.24,1.24h0a1.25,1.25,0,0,1-1.24,1.24H35a1.25,1.25,0,0,1-1.24-1.24h0A1.25,1.25,0,0,1,35,54.28Z" style="fill:#30c2c9;opacity:0.43;mix-blend-mode:multiply"/><path d="M27.84,64h3.32a2.62,2.62,0,0,1,2.61,2.61h0a2.62,2.62,0,0,1-2.61,2.61H27.84a2.61,2.61,0,0,1-2.61-2.61h0A2.62,2.62,0,0,1,27.84,64Z" style="fill:#30c2c9;opacity:0.43;mix-blend-mode:multiply"/><path d="M28.58,70.74h1.64a1.12,1.12,0,0,1,1.12,1.12h0A1.12,1.12,0,0,1,30.22,73H28.58a1.12,1.12,0,0,1-1.12-1.11h0A1.12,1.12,0,0,1,28.58,70.74Z" style="fill:#30c2c9;opacity:0.43;mix-blend-mode:multiply"/><path d="M31.31,75.21h1.12a1.35,1.35,0,0,1,1.34,1.34h0a1.35,1.35,0,0,1-1.34,1.34H31.31A1.34,1.34,0,0,1,30,76.55h0A1.34,1.34,0,0,1,31.31,75.21Z" style="fill:#30c2c9;opacity:0.43;mix-blend-mode:multiply"/><path d="M136.83,85.78H133.7a1.92,1.92,0,0,1-1.91-1.91h0A1.92,1.92,0,0,1,133.7,82h3.13a1.92,1.92,0,0,1,1.91,1.92h0A1.92,1.92,0,0,1,136.83,85.78Z" style="fill:#30c2c9;opacity:0.43;mix-blend-mode:multiply"/><path d="M129.05,88.85h0a1.54,1.54,0,0,1-1.54-1.53h0a1.54,1.54,0,0,1,1.54-1.54h0a1.54,1.54,0,0,1,1.53,1.54h0A1.54,1.54,0,0,1,129.05,88.85Z" style="fill:#30c2c9;opacity:0.43;mix-blend-mode:multiply"/><path d="M136.6,92.6h-2.91a2,2,0,0,1-2-2h0a2,2,0,0,1,2-2h2.91a2,2,0,0,1,2,2h0A2,2,0,0,1,136.6,92.6Z" style="fill:#30c2c9;opacity:0.43;mix-blend-mode:multiply"/><path d="M132.18,95.56h-1.79a.77.77,0,0,1-.77-.76h0a.77.77,0,0,1,.77-.76h1.79a.76.76,0,0,1,.76.76h0A.76.76,0,0,1,132.18,95.56Z" style="fill:#30c2c9;opacity:0.43;mix-blend-mode:multiply"/><path d="M135.64,87.84h-1.42a.62.62,0,0,1-.61-.61h0a.62.62,0,0,1,.61-.62h1.42a.62.62,0,0,1,.62.62h0A.62.62,0,0,1,135.64,87.84Z" style="fill:#30c2c9;opacity:0.43;mix-blend-mode:multiply"/><path d="M137.83,99.4h0a2.68,2.68,0,0,1-2.68-2.68h0A2.69,2.69,0,0,1,137.83,94h0a2.69,2.69,0,0,1,2.68,2.68h0A2.69,2.69,0,0,1,137.83,99.4Z" style="fill:#30c2c9;opacity:0.43;mix-blend-mode:multiply"/><path d="M164.76,118.09h-5a3.94,3.94,0,0,1-3.93-3.93h0a3.94,3.94,0,0,1,3.93-3.93h5a3.94,3.94,0,0,1,3.93,3.93h0A3.94,3.94,0,0,1,164.76,118.09Z" style="fill:#30c2c9;opacity:0.43;mix-blend-mode:multiply"/><path d="M172,117h3.43a1.74,1.74,0,0,1,1.73,1.73h0a1.74,1.74,0,0,1-1.73,1.73H172a1.74,1.74,0,0,1-1.73-1.73h0A1.74,1.74,0,0,1,172,117Z" style="fill:#30c2c9;opacity:0.43;mix-blend-mode:multiply"/><path d="M171.21,112.68h1.09a1.41,1.41,0,0,1,1.4,1.41h0a1.4,1.4,0,0,1-1.4,1.4h-1.09a1.41,1.41,0,0,1-1.41-1.4h0A1.41,1.41,0,0,1,171.21,112.68Z" style="fill:#30c2c9;opacity:0.43;mix-blend-mode:multiply"/><path d="M153.18,108.18h1.09a1.4,1.4,0,0,1,1.4,1.4h0a1.41,1.41,0,0,1-1.4,1.41h-1.09a1.41,1.41,0,0,1-1.41-1.41h0A1.41,1.41,0,0,1,153.18,108.18Z" style="fill:#30c2c9;opacity:0.43;mix-blend-mode:multiply"/><path d="M164.45,120.44h4.21a1.6,1.6,0,0,1,1.6,1.6h0a1.6,1.6,0,0,1-1.6,1.59h-4.21a1.59,1.59,0,0,1-1.59-1.59h0A1.6,1.6,0,0,1,164.45,120.44Z" style="fill:#30c2c9;opacity:0.43;mix-blend-mode:multiply"/><path d="M172.64,124.56h1.53a1.45,1.45,0,0,1,1.45,1.45h0a1.45,1.45,0,0,1-1.45,1.46h-1.53a1.45,1.45,0,0,1-1.45-1.46h0A1.45,1.45,0,0,1,172.64,124.56Z" style="fill:#30c2c9;opacity:0.43;mix-blend-mode:multiply"/><path d="M160,121.28h-2.26a1,1,0,0,1-1-1h0a1,1,0,0,1,1-1H160a1,1,0,0,1,1,1h0A1,1,0,0,1,160,121.28Z" style="fill:#30c2c9;opacity:0.43;mix-blend-mode:multiply"/><path d="M164,109.19h-2.27a1,1,0,0,1-1-1h0a1,1,0,0,1,1-1H164a1,1,0,0,1,1,1h0A1,1,0,0,1,164,109.19Z" style="fill:#30c2c9;opacity:0.43;mix-blend-mode:multiply"/><path d="M167.25,127.47H165.2a.73.73,0,0,1-.73-.73h0a.73.73,0,0,1,.73-.73h2.05a.73.73,0,0,1,.73.73h0A.73.73,0,0,1,167.25,127.47Z" style="fill:#30c2c9;opacity:0.43;mix-blend-mode:multiply"/><path d="M176.32,132.79h-2.08a.84.84,0,0,1-.83-.84h0a.83.83,0,0,1,.83-.83h2.08a.84.84,0,0,1,.83.83h0A.84.84,0,0,1,176.32,132.79Z" style="fill:#30c2c9;opacity:0.43;mix-blend-mode:multiply"/></g></g></g></svg>