<svg xmlns="http://www.w3.org/2000/svg" xmlns:xlink="http://www.w3.org/1999/xlink" viewBox="0 0 115.85 169.67"><defs><linearGradient id="Degradado_sin_nombre_59" x1="-411.33" y1="128.91" x2="-411.33" y2="165.39" gradientTransform="matrix(1, 0, 0, -1, 480.92, 294.29)" gradientUnits="userSpaceOnUse"><stop offset="0" stop-color="#ff8410"/><stop offset="1" stop-color="#bf0f00"/></linearGradient><linearGradient id="Degradado_sin_nombre_59-2" x1="-382.28" y1="128.91" x2="-382.28" y2="165.39" gradientTransform="matrix(1, 0, 0, -1, 422.82, 294.29)" xlink:href="#Degradado_sin_nombre_59"/><linearGradient id="Degradado_sin_nombre_60" x1="11.82" y1="101.16" x2="11.82" y2="79.21" gradientUnits="userSpaceOnUse"><stop offset="0" stop-color="#ff8410"/><stop offset="0.26" stop-color="#fd8110"/><stop offset="0.44" stop-color="#f9780e"/><stop offset="0.59" stop-color="#f0690c"/><stop offset="0.73" stop-color="#e55409"/><stop offset="0.86" stop-color="#d53806"/><stop offset="0.98" stop-color="#c31601"/><stop offset="1" stop-color="#bf0f00"/></linearGradient><linearGradient id="Degradado_sin_nombre_59-3" x1="-57.77" y1="120.35" x2="-57.77" y2="120.15" gradientTransform="translate(71.16 -40.23)" xlink:href="#Degradado_sin_nombre_59"/><linearGradient id="Degradado_sin_nombre_59-4" x1="-67.17" y1="125.61" x2="-67.17" y2="125.41" gradientTransform="translate(71.16 -40.23)" xlink:href="#Degradado_sin_nombre_59"/><linearGradient id="Degradado_sin_nombre_59-5" x1="-64.03" y1="125.61" x2="-64.03" y2="125.41" gradientTransform="translate(71.16 -40.23)" xlink:href="#Degradado_sin_nombre_59"/><linearGradient id="Degradado_sin_nombre_59-6" x1="-64.03" y1="120.35" x2="-64.03" y2="120.15" gradientTransform="translate(71.16 -40.23)" xlink:href="#Degradado_sin_nombre_59"/><linearGradient id="Degradado_sin_nombre_59-7" x1="-51.48" y1="130.87" x2="-51.48" y2="130.67" gradientTransform="translate(71.16 -40.23)" xlink:href="#Degradado_sin_nombre_59"/><linearGradient id="Degradado_sin_nombre_59-8" x1="-57.77" y1="136.13" x2="-57.77" y2="135.93" gradientTransform="translate(71.16 -40.23)" xlink:href="#Degradado_sin_nombre_59"/><linearGradient id="Degradado_sin_nombre_59-9" x1="-51.48" y1="136.13" x2="-51.48" y2="135.93" gradientTransform="translate(71.16 -40.23)" xlink:href="#Degradado_sin_nombre_59"/><linearGradient id="Degradado_sin_nombre_59-10" x1="-64.03" y1="136.13" x2="-64.03" y2="135.93" gradientTransform="translate(71.16 -40.23)" xlink:href="#Degradado_sin_nombre_59"/><linearGradient id="Degradado_sin_nombre_59-11" x1="-67.17" y1="136.13" x2="-67.17" y2="135.93" gradientTransform="translate(71.16 -40.23)" xlink:href="#Degradado_sin_nombre_59"/><linearGradient id="Degradado_sin_nombre_59-12" x1="-70.3" y1="136.13" x2="-70.3" y2="135.93" gradientTransform="translate(71.16 -40.23)" xlink:href="#Degradado_sin_nombre_59"/><linearGradient id="Degradado_sin_nombre_59-13" x1="-64.03" y1="141.38" x2="-64.03" y2="141.19" gradientTransform="translate(71.16 -40.23)" xlink:href="#Degradado_sin_nombre_59"/><linearGradient id="Degradado_sin_nombre_59-14" x1="-57.77" y1="125.61" x2="-57.77" y2="125.41" gradientTransform="translate(71.16 -40.23)" xlink:href="#Degradado_sin_nombre_59"/><linearGradient id="Degradado_sin_nombre_59-15" x1="-57.77" y1="141.38" x2="-57.77" y2="141.19" gradientTransform="translate(71.16 -40.23)" xlink:href="#Degradado_sin_nombre_59"/><linearGradient id="Degradado_sin_nombre_59-16" x1="-54.63" y1="130.87" x2="-54.63" y2="130.67" gradientTransform="translate(71.16 -40.23)" xlink:href="#Degradado_sin_nombre_59"/><linearGradient id="Degradado_sin_nombre_59-17" x1="-54.63" y1="136.13" x2="-54.63" y2="135.93" gradientTransform="translate(71.16 -40.23)" xlink:href="#Degradado_sin_nombre_59"/><linearGradient id="Degradado_sin_nombre_59-18" x1="-54.63" y1="141.38" x2="-54.63" y2="141.19" gradientTransform="translate(71.16 -40.23)" xlink:href="#Degradado_sin_nombre_59"/><linearGradient id="Degradado_sin_nombre_59-19" x1="-70.3" y1="130.87" x2="-70.3" y2="130.67" gradientTransform="translate(71.16 -40.23)" xlink:href="#Degradado_sin_nombre_59"/><linearGradient id="Degradado_sin_nombre_59-20" x1="-64.03" y1="130.87" x2="-64.03" y2="130.67" gradientTransform="translate(71.16 -40.23)" xlink:href="#Degradado_sin_nombre_59"/><linearGradient id="Degradado_sin_nombre_59-21" x1="-67.17" y1="130.87" x2="-67.17" y2="130.67" gradientTransform="translate(71.16 -40.23)" xlink:href="#Degradado_sin_nombre_59"/><linearGradient id="Degradado_sin_nombre_59-22" x1="-54.63" y1="125.61" x2="-54.63" y2="125.41" gradientTransform="translate(71.16 -40.23)" xlink:href="#Degradado_sin_nombre_59"/><linearGradient id="Degradado_sin_nombre_59-23" x1="-51.48" y1="125.61" x2="-51.48" y2="125.41" gradientTransform="translate(71.16 -40.23)" xlink:href="#Degradado_sin_nombre_59"/><linearGradient id="Degradado_sin_nombre_59-24" x1="-57.77" y1="130.87" x2="-57.77" y2="130.67" gradientTransform="translate(71.16 -40.23)" xlink:href="#Degradado_sin_nombre_59"/><linearGradient id="Degradado_sin_nombre_59-25" x1="-70.32" y1="136.56" x2="-70.32" y2="136.13" gradientTransform="translate(71.16 -40.23)" xlink:href="#Degradado_sin_nombre_59"/><linearGradient id="Degradado_sin_nombre_59-26" x1="-59.43" y1="138.08" x2="-59.43" y2="133.53" gradientTransform="translate(71.16 -40.23)" xlink:href="#Degradado_sin_nombre_59"/><linearGradient id="Degradado_sin_nombre_59-27" x1="-59.34" y1="135.67" x2="-59.34" y2="130.87" gradientTransform="translate(71.16 -40.23)" xlink:href="#Degradado_sin_nombre_59"/><linearGradient id="Degradado_sin_nombre_59-28" x1="-59.33" y1="132.82" x2="-59.33" y2="128.27" gradientTransform="translate(71.16 -40.23)" xlink:href="#Degradado_sin_nombre_59"/><linearGradient id="Degradado_sin_nombre_59-29" x1="-59.27" y1="130.41" x2="-59.27" y2="125.61" gradientTransform="translate(71.16 -40.23)" xlink:href="#Degradado_sin_nombre_59"/><linearGradient id="Degradado_sin_nombre_59-30" x1="-59.33" y1="127.56" x2="-59.33" y2="123.01" gradientTransform="translate(71.16 -40.23)" xlink:href="#Degradado_sin_nombre_59"/><linearGradient id="Degradado_sin_nombre_59-31" x1="7.13" y1="80.12" x2="7.13" y2="79.93" gradientTransform="matrix(1, 0, 0, 1, 0, 0)" xlink:href="#Degradado_sin_nombre_59"/><linearGradient id="Degradado_sin_nombre_59-32" x1="1.39" y1="78.44" x2="1.39" y2="78.25" gradientTransform="matrix(1, 0, 0, 1, 0, 0)" xlink:href="#Degradado_sin_nombre_59"/><linearGradient id="Degradado_sin_nombre_59-33" x1="6.08" y1="154.31" x2="6.08" y2="128.54" gradientTransform="matrix(1, 0, 0, 1, 0, 0)" xlink:href="#Degradado_sin_nombre_59"/><linearGradient id="Degradado_sin_nombre_59-34" x1="14.21" y1="156.75" x2="14.21" y2="130.98" gradientTransform="matrix(1, 0, 0, 1, 0, 0)" xlink:href="#Degradado_sin_nombre_59"/><linearGradient id="Degradado_sin_nombre_59-35" x1="20.65" y1="145.5" x2="20.65" y2="128.54" gradientTransform="matrix(1, 0, 0, 1, 0, 0)" xlink:href="#Degradado_sin_nombre_59"/><linearGradient id="Degradado_sin_nombre_59-36" x1="11.69" y1="119.84" x2="11.69" y2="137.24" gradientTransform="translate(23.38 257.08) rotate(-180)" xlink:href="#Degradado_sin_nombre_59"/><linearGradient id="Degradado_sin_nombre_60-2" x1="11.82" y1="138.97" x2="11.82" y2="117.03" xlink:href="#Degradado_sin_nombre_60"/><linearGradient id="Degradado_sin_nombre_59-37" x1="-57.77" y1="158.16" x2="-57.77" y2="157.97" gradientTransform="translate(71.16 -40.23)" xlink:href="#Degradado_sin_nombre_59"/><linearGradient id="Degradado_sin_nombre_59-38" x1="-67.17" y1="163.42" x2="-67.17" y2="163.23" gradientTransform="translate(71.16 -40.23)" xlink:href="#Degradado_sin_nombre_59"/><linearGradient id="Degradado_sin_nombre_59-39" x1="-64.03" y1="163.42" x2="-64.03" y2="163.23" gradientTransform="translate(71.16 -40.23)" xlink:href="#Degradado_sin_nombre_59"/><linearGradient id="Degradado_sin_nombre_59-40" x1="-64.03" y1="158.16" x2="-64.03" y2="157.97" gradientTransform="translate(71.16 -40.23)" xlink:href="#Degradado_sin_nombre_59"/><linearGradient id="Degradado_sin_nombre_59-41" x1="-51.48" y1="168.68" x2="-51.48" y2="168.49" gradientTransform="translate(71.16 -40.23)" xlink:href="#Degradado_sin_nombre_59"/><linearGradient id="Degradado_sin_nombre_59-42" x1="-57.77" y1="173.94" x2="-57.77" y2="173.75" gradientTransform="translate(71.16 -40.23)" xlink:href="#Degradado_sin_nombre_59"/><linearGradient id="Degradado_sin_nombre_59-43" x1="-51.48" y1="173.94" x2="-51.48" y2="173.75" gradientTransform="translate(71.16 -40.23)" xlink:href="#Degradado_sin_nombre_59"/><linearGradient id="Degradado_sin_nombre_59-44" x1="-64.03" y1="173.94" x2="-64.03" y2="173.75" gradientTransform="translate(71.16 -40.23)" xlink:href="#Degradado_sin_nombre_59"/><linearGradient id="Degradado_sin_nombre_59-45" x1="-67.17" y1="173.94" x2="-67.17" y2="173.75" gradientTransform="translate(71.16 -40.23)" xlink:href="#Degradado_sin_nombre_59"/><linearGradient id="Degradado_sin_nombre_59-46" x1="-70.3" y1="173.94" x2="-70.3" y2="173.75" gradientTransform="translate(71.16 -40.23)" xlink:href="#Degradado_sin_nombre_59"/><linearGradient id="Degradado_sin_nombre_59-47" x1="-64.03" y1="179.2" x2="-64.03" y2="179.01" gradientTransform="translate(71.16 -40.23)" xlink:href="#Degradado_sin_nombre_59"/><linearGradient id="Degradado_sin_nombre_59-48" x1="-57.77" y1="163.42" x2="-57.77" y2="163.23" gradientTransform="translate(71.16 -40.23)" xlink:href="#Degradado_sin_nombre_59"/><linearGradient id="Degradado_sin_nombre_59-49" x1="-57.77" y1="179.2" x2="-57.77" y2="179.01" gradientTransform="translate(71.16 -40.23)" xlink:href="#Degradado_sin_nombre_59"/><linearGradient id="Degradado_sin_nombre_59-50" x1="-54.63" y1="168.68" x2="-54.63" y2="168.49" gradientTransform="translate(71.16 -40.23)" xlink:href="#Degradado_sin_nombre_59"/><linearGradient id="Degradado_sin_nombre_59-51" x1="-54.63" y1="173.94" x2="-54.63" y2="173.75" gradientTransform="translate(71.16 -40.23)" xlink:href="#Degradado_sin_nombre_59"/><linearGradient id="Degradado_sin_nombre_59-52" x1="-54.63" y1="179.2" x2="-54.63" y2="179.01" gradientTransform="translate(71.16 -40.23)" xlink:href="#Degradado_sin_nombre_59"/><linearGradient id="Degradado_sin_nombre_59-53" x1="-70.3" y1="168.68" x2="-70.3" y2="168.49" gradientTransform="translate(71.16 -40.23)" xlink:href="#Degradado_sin_nombre_59"/><linearGradient id="Degradado_sin_nombre_59-54" x1="-64.03" y1="168.68" x2="-64.03" y2="168.49" gradientTransform="translate(71.16 -40.23)" xlink:href="#Degradado_sin_nombre_59"/><linearGradient id="Degradado_sin_nombre_59-55" x1="-67.17" y1="168.68" x2="-67.17" y2="168.49" gradientTransform="translate(71.16 -40.23)" xlink:href="#Degradado_sin_nombre_59"/><linearGradient id="Degradado_sin_nombre_59-56" x1="-54.63" y1="163.42" x2="-54.63" y2="163.23" gradientTransform="translate(71.16 -40.23)" xlink:href="#Degradado_sin_nombre_59"/><linearGradient id="Degradado_sin_nombre_59-57" x1="-51.48" y1="163.42" x2="-51.48" y2="163.23" gradientTransform="translate(71.16 -40.23)" xlink:href="#Degradado_sin_nombre_59"/><linearGradient id="Degradado_sin_nombre_59-58" x1="-57.77" y1="168.68" x2="-57.77" y2="168.49" gradientTransform="translate(71.16 -40.23)" xlink:href="#Degradado_sin_nombre_59"/><linearGradient id="Degradado_sin_nombre_59-59" x1="-70.32" y1="174.37" x2="-70.32" y2="173.94" gradientTransform="translate(71.16 -40.23)" xlink:href="#Degradado_sin_nombre_59"/><linearGradient id="Degradado_sin_nombre_59-60" x1="-59.43" y1="175.89" x2="-59.43" y2="171.34" gradientTransform="translate(71.16 -40.23)" xlink:href="#Degradado_sin_nombre_59"/><linearGradient id="Degradado_sin_nombre_59-61" x1="-59.34" y1="173.49" x2="-59.34" y2="168.68" gradientTransform="translate(71.16 -40.23)" xlink:href="#Degradado_sin_nombre_59"/><linearGradient id="Degradado_sin_nombre_59-62" x1="-59.33" y1="170.63" x2="-59.33" y2="166.08" gradientTransform="translate(71.16 -40.23)" xlink:href="#Degradado_sin_nombre_59"/><linearGradient id="Degradado_sin_nombre_59-63" x1="-59.27" y1="168.23" x2="-59.27" y2="163.42" gradientTransform="translate(71.16 -40.23)" xlink:href="#Degradado_sin_nombre_59"/><linearGradient id="Degradado_sin_nombre_59-64" x1="-59.33" y1="165.37" x2="-59.33" y2="160.83" gradientTransform="translate(71.16 -40.23)" xlink:href="#Degradado_sin_nombre_59"/><linearGradient id="Degradado_sin_nombre_60-3" x1="150.02" y1="101.6" x2="150.02" y2="79.66" gradientTransform="matrix(-1, 0, 0, 1, 254.05, 0)" xlink:href="#Degradado_sin_nombre_60"/><linearGradient id="Degradado_sin_nombre_59-65" x1="80.43" y1="120.79" x2="80.43" y2="120.6" gradientTransform="matrix(-1, 0, 0, 1, 182.89, -40.23)" xlink:href="#Degradado_sin_nombre_59"/><linearGradient id="Degradado_sin_nombre_59-66" x1="71.03" y1="126.05" x2="71.03" y2="125.85" gradientTransform="matrix(-1, 0, 0, 1, 182.89, -40.23)" xlink:href="#Degradado_sin_nombre_59"/><linearGradient id="Degradado_sin_nombre_59-67" x1="74.18" y1="126.05" x2="74.18" y2="125.85" gradientTransform="matrix(-1, 0, 0, 1, 182.89, -40.23)" xlink:href="#Degradado_sin_nombre_59"/><linearGradient id="Degradado_sin_nombre_59-68" x1="74.18" y1="120.79" x2="74.18" y2="120.6" gradientTransform="matrix(-1, 0, 0, 1, 182.89, -40.23)" xlink:href="#Degradado_sin_nombre_59"/><linearGradient id="Degradado_sin_nombre_59-69" x1="86.72" y1="131.31" x2="86.72" y2="131.11" gradientTransform="matrix(-1, 0, 0, 1, 182.89, -40.23)" xlink:href="#Degradado_sin_nombre_59"/><linearGradient id="Degradado_sin_nombre_59-70" x1="80.43" y1="136.57" x2="80.43" y2="136.37" gradientTransform="matrix(-1, 0, 0, 1, 182.89, -40.23)" xlink:href="#Degradado_sin_nombre_59"/><linearGradient id="Degradado_sin_nombre_59-71" x1="86.72" y1="136.57" x2="86.72" y2="136.37" gradientTransform="matrix(-1, 0, 0, 1, 182.89, -40.23)" xlink:href="#Degradado_sin_nombre_59"/><linearGradient id="Degradado_sin_nombre_59-72" x1="74.18" y1="136.57" x2="74.18" y2="136.37" gradientTransform="matrix(-1, 0, 0, 1, 182.89, -40.23)" xlink:href="#Degradado_sin_nombre_59"/><linearGradient id="Degradado_sin_nombre_59-73" x1="71.03" y1="136.57" x2="71.03" y2="136.37" gradientTransform="matrix(-1, 0, 0, 1, 182.89, -40.23)" xlink:href="#Degradado_sin_nombre_59"/><linearGradient id="Degradado_sin_nombre_59-74" x1="67.9" y1="136.57" x2="67.9" y2="136.37" gradientTransform="matrix(-1, 0, 0, 1, 182.89, -40.23)" xlink:href="#Degradado_sin_nombre_59"/><linearGradient id="Degradado_sin_nombre_59-75" x1="74.18" y1="141.83" x2="74.18" y2="141.63" gradientTransform="matrix(-1, 0, 0, 1, 182.89, -40.23)" xlink:href="#Degradado_sin_nombre_59"/><linearGradient id="Degradado_sin_nombre_59-76" x1="80.43" y1="126.05" x2="80.43" y2="125.85" gradientTransform="matrix(-1, 0, 0, 1, 182.89, -40.23)" xlink:href="#Degradado_sin_nombre_59"/><linearGradient id="Degradado_sin_nombre_59-77" x1="80.43" y1="141.83" x2="80.43" y2="141.63" gradientTransform="matrix(-1, 0, 0, 1, 182.89, -40.23)" xlink:href="#Degradado_sin_nombre_59"/><linearGradient id="Degradado_sin_nombre_59-78" x1="83.57" y1="131.31" x2="83.57" y2="131.11" gradientTransform="matrix(-1, 0, 0, 1, 182.89, -40.23)" xlink:href="#Degradado_sin_nombre_59"/><linearGradient id="Degradado_sin_nombre_59-79" x1="83.57" y1="136.57" x2="83.57" y2="136.37" gradientTransform="matrix(-1, 0, 0, 1, 182.89, -40.23)" xlink:href="#Degradado_sin_nombre_59"/><linearGradient id="Degradado_sin_nombre_59-80" x1="83.57" y1="141.83" x2="83.57" y2="141.63" gradientTransform="matrix(-1, 0, 0, 1, 182.89, -40.23)" xlink:href="#Degradado_sin_nombre_59"/><linearGradient id="Degradado_sin_nombre_59-81" x1="67.9" y1="131.31" x2="67.9" y2="131.11" gradientTransform="matrix(-1, 0, 0, 1, 182.89, -40.23)" xlink:href="#Degradado_sin_nombre_59"/><linearGradient id="Degradado_sin_nombre_59-82" x1="74.18" y1="131.31" x2="74.18" y2="131.11" gradientTransform="matrix(-1, 0, 0, 1, 182.89, -40.23)" xlink:href="#Degradado_sin_nombre_59"/><linearGradient id="Degradado_sin_nombre_59-83" x1="71.03" y1="131.31" x2="71.03" y2="131.11" gradientTransform="matrix(-1, 0, 0, 1, 182.89, -40.23)" xlink:href="#Degradado_sin_nombre_59"/><linearGradient id="Degradado_sin_nombre_59-84" x1="83.57" y1="126.05" x2="83.57" y2="125.85" gradientTransform="matrix(-1, 0, 0, 1, 182.89, -40.23)" xlink:href="#Degradado_sin_nombre_59"/><linearGradient id="Degradado_sin_nombre_59-85" x1="86.72" y1="126.05" x2="86.72" y2="125.85" gradientTransform="matrix(-1, 0, 0, 1, 182.89, -40.23)" xlink:href="#Degradado_sin_nombre_59"/><linearGradient id="Degradado_sin_nombre_59-86" x1="80.43" y1="131.31" x2="80.43" y2="131.11" gradientTransform="matrix(-1, 0, 0, 1, 182.89, -40.23)" xlink:href="#Degradado_sin_nombre_59"/><linearGradient id="Degradado_sin_nombre_59-87" x1="67.88" y1="137" x2="67.88" y2="136.57" gradientTransform="matrix(-1, 0, 0, 1, 182.89, -40.23)" xlink:href="#Degradado_sin_nombre_59"/><linearGradient id="Degradado_sin_nombre_59-88" x1="78.77" y1="138.52" x2="78.77" y2="133.97" gradientTransform="matrix(-1, 0, 0, 1, 182.89, -40.23)" xlink:href="#Degradado_sin_nombre_59"/><linearGradient id="Degradado_sin_nombre_59-89" x1="78.86" y1="136.11" x2="78.86" y2="131.31" gradientTransform="matrix(-1, 0, 0, 1, 182.89, -40.23)" xlink:href="#Degradado_sin_nombre_59"/><linearGradient id="Degradado_sin_nombre_59-90" x1="78.87" y1="133.26" x2="78.87" y2="128.71" gradientTransform="matrix(-1, 0, 0, 1, 182.89, -40.23)" xlink:href="#Degradado_sin_nombre_59"/><linearGradient id="Degradado_sin_nombre_59-91" x1="78.93" y1="130.85" x2="78.93" y2="126.05" gradientTransform="matrix(-1, 0, 0, 1, 182.89, -40.23)" xlink:href="#Degradado_sin_nombre_59"/><linearGradient id="Degradado_sin_nombre_59-92" x1="78.88" y1="128" x2="78.88" y2="123.45" gradientTransform="matrix(-1, 0, 0, 1, 182.89, -40.23)" xlink:href="#Degradado_sin_nombre_59"/><linearGradient id="Degradado_sin_nombre_59-93" x1="145.34" y1="80.56" x2="145.34" y2="80.37" gradientTransform="matrix(-1, 0, 0, 1, 254.05, 0)" xlink:href="#Degradado_sin_nombre_59"/><linearGradient id="Degradado_sin_nombre_59-94" x1="139.59" y1="78.88" x2="139.59" y2="78.69" gradientTransform="matrix(-1, 0, 0, 1, 254.05, 0)" xlink:href="#Degradado_sin_nombre_59"/><linearGradient id="Degradado_sin_nombre_59-95" x1="144.29" y1="154.75" x2="144.29" y2="128.98" gradientTransform="matrix(-1, 0, 0, 1, 254.05, 0)" xlink:href="#Degradado_sin_nombre_59"/><linearGradient id="Degradado_sin_nombre_59-96" x1="152.41" y1="157.19" x2="152.41" y2="131.42" gradientTransform="matrix(-1, 0, 0, 1, 254.05, 0)" xlink:href="#Degradado_sin_nombre_59"/><linearGradient id="Degradado_sin_nombre_59-97" x1="158.85" y1="145.94" x2="158.85" y2="128.98" gradientTransform="matrix(-1, 0, 0, 1, 254.05, 0)" xlink:href="#Degradado_sin_nombre_59"/><linearGradient id="Degradado_sin_nombre_59-98" x1="149.89" y1="120.28" x2="149.89" y2="137.68" gradientTransform="matrix(-1, 0, 0, 1, 254.05, 0)" xlink:href="#Degradado_sin_nombre_59"/><linearGradient id="Degradado_sin_nombre_60-4" x1="150.02" y1="139.96" x2="150.02" y2="118.02" gradientTransform="matrix(-1, 0, 0, 1, 254.05, 0)" xlink:href="#Degradado_sin_nombre_60"/><linearGradient id="Degradado_sin_nombre_59-99" x1="80.43" y1="159.15" x2="80.43" y2="158.96" gradientTransform="matrix(-1, 0, 0, 1, 182.89, -40.23)" xlink:href="#Degradado_sin_nombre_59"/><linearGradient id="Degradado_sin_nombre_59-100" x1="71.03" y1="164.41" x2="71.03" y2="164.21" gradientTransform="matrix(-1, 0, 0, 1, 182.89, -40.23)" xlink:href="#Degradado_sin_nombre_59"/><linearGradient id="Degradado_sin_nombre_59-101" x1="74.18" y1="164.41" x2="74.18" y2="164.21" gradientTransform="matrix(-1, 0, 0, 1, 182.89, -40.23)" xlink:href="#Degradado_sin_nombre_59"/><linearGradient id="Degradado_sin_nombre_59-102" x1="74.18" y1="159.15" x2="74.18" y2="158.96" gradientTransform="matrix(-1, 0, 0, 1, 182.89, -40.23)" xlink:href="#Degradado_sin_nombre_59"/><linearGradient id="Degradado_sin_nombre_59-103" x1="86.72" y1="169.67" x2="86.72" y2="169.47" gradientTransform="matrix(-1, 0, 0, 1, 182.89, -40.23)" xlink:href="#Degradado_sin_nombre_59"/><linearGradient id="Degradado_sin_nombre_59-104" x1="80.43" y1="174.93" x2="80.43" y2="174.73" gradientTransform="matrix(-1, 0, 0, 1, 182.89, -40.23)" xlink:href="#Degradado_sin_nombre_59"/><linearGradient id="Degradado_sin_nombre_59-105" x1="86.72" y1="174.93" x2="86.72" y2="174.73" gradientTransform="matrix(-1, 0, 0, 1, 182.89, -40.23)" xlink:href="#Degradado_sin_nombre_59"/><linearGradient id="Degradado_sin_nombre_59-106" x1="74.18" y1="174.93" x2="74.18" y2="174.73" gradientTransform="matrix(-1, 0, 0, 1, 182.89, -40.23)" xlink:href="#Degradado_sin_nombre_59"/><linearGradient id="Degradado_sin_nombre_59-107" x1="71.03" y1="174.93" x2="71.03" y2="174.73" gradientTransform="matrix(-1, 0, 0, 1, 182.89, -40.23)" xlink:href="#Degradado_sin_nombre_59"/><linearGradient id="Degradado_sin_nombre_59-108" x1="67.9" y1="174.93" x2="67.9" y2="174.73" gradientTransform="matrix(-1, 0, 0, 1, 182.89, -40.23)" xlink:href="#Degradado_sin_nombre_59"/><linearGradient id="Degradado_sin_nombre_59-109" x1="74.18" y1="180.19" x2="74.18" y2="179.99" gradientTransform="matrix(-1, 0, 0, 1, 182.89, -40.23)" xlink:href="#Degradado_sin_nombre_59"/><linearGradient id="Degradado_sin_nombre_59-110" x1="80.43" y1="164.41" x2="80.43" y2="164.21" gradientTransform="matrix(-1, 0, 0, 1, 182.89, -40.23)" xlink:href="#Degradado_sin_nombre_59"/><linearGradient id="Degradado_sin_nombre_59-111" x1="80.43" y1="180.19" x2="80.43" y2="179.99" gradientTransform="matrix(-1, 0, 0, 1, 182.89, -40.23)" xlink:href="#Degradado_sin_nombre_59"/><linearGradient id="Degradado_sin_nombre_59-112" x1="83.57" y1="169.67" x2="83.57" y2="169.47" gradientTransform="matrix(-1, 0, 0, 1, 182.89, -40.23)" xlink:href="#Degradado_sin_nombre_59"/><linearGradient id="Degradado_sin_nombre_59-113" x1="83.57" y1="174.93" x2="83.57" y2="174.73" gradientTransform="matrix(-1, 0, 0, 1, 182.89, -40.23)" xlink:href="#Degradado_sin_nombre_59"/><linearGradient id="Degradado_sin_nombre_59-114" x1="83.57" y1="180.19" x2="83.57" y2="179.99" gradientTransform="matrix(-1, 0, 0, 1, 182.89, -40.23)" xlink:href="#Degradado_sin_nombre_59"/><linearGradient id="Degradado_sin_nombre_59-115" x1="67.9" y1="169.67" x2="67.9" y2="169.47" gradientTransform="matrix(-1, 0, 0, 1, 182.89, -40.23)" xlink:href="#Degradado_sin_nombre_59"/><linearGradient id="Degradado_sin_nombre_59-116" x1="74.18" y1="169.67" x2="74.18" y2="169.47" gradientTransform="matrix(-1, 0, 0, 1, 182.89, -40.23)" xlink:href="#Degradado_sin_nombre_59"/><linearGradient id="Degradado_sin_nombre_59-117" x1="71.03" y1="169.67" x2="71.03" y2="169.47" gradientTransform="matrix(-1, 0, 0, 1, 182.89, -40.23)" xlink:href="#Degradado_sin_nombre_59"/><linearGradient id="Degradado_sin_nombre_59-118" x1="83.57" y1="164.41" x2="83.57" y2="164.21" gradientTransform="matrix(-1, 0, 0, 1, 182.89, -40.23)" xlink:href="#Degradado_sin_nombre_59"/><linearGradient id="Degradado_sin_nombre_59-119" x1="86.72" y1="164.41" x2="86.72" y2="164.21" gradientTransform="matrix(-1, 0, 0, 1, 182.89, -40.23)" xlink:href="#Degradado_sin_nombre_59"/><linearGradient id="Degradado_sin_nombre_59-120" x1="80.43" y1="169.67" x2="80.43" y2="169.47" gradientTransform="matrix(-1, 0, 0, 1, 182.89, -40.23)" xlink:href="#Degradado_sin_nombre_59"/><linearGradient id="Degradado_sin_nombre_59-121" x1="67.88" y1="175.36" x2="67.88" y2="174.93" gradientTransform="matrix(-1, 0, 0, 1, 182.89, -40.23)" xlink:href="#Degradado_sin_nombre_59"/><linearGradient id="Degradado_sin_nombre_59-122" x1="78.77" y1="176.88" x2="78.77" y2="172.33" gradientTransform="matrix(-1, 0, 0, 1, 182.89, -40.23)" xlink:href="#Degradado_sin_nombre_59"/><linearGradient id="Degradado_sin_nombre_59-123" x1="78.86" y1="174.47" x2="78.86" y2="169.67" gradientTransform="matrix(-1, 0, 0, 1, 182.89, -40.23)" xlink:href="#Degradado_sin_nombre_59"/><linearGradient id="Degradado_sin_nombre_59-124" x1="78.87" y1="171.62" x2="78.87" y2="167.07" gradientTransform="matrix(-1, 0, 0, 1, 182.89, -40.23)" xlink:href="#Degradado_sin_nombre_59"/><linearGradient id="Degradado_sin_nombre_59-125" x1="78.93" y1="169.21" x2="78.93" y2="164.41" gradientTransform="matrix(-1, 0, 0, 1, 182.89, -40.23)" xlink:href="#Degradado_sin_nombre_59"/><linearGradient id="Degradado_sin_nombre_59-126" x1="78.88" y1="166.36" x2="78.88" y2="161.81" gradientTransform="matrix(-1, 0, 0, 1, 182.89, -40.23)" xlink:href="#Degradado_sin_nombre_59"/><linearGradient id="Degradado_sin_nombre_59-127" x1="73.67" y1="67.45" x2="73.67" y2="66.81" gradientTransform="matrix(1, 0, 0, 1, 0, 0)" xlink:href="#Degradado_sin_nombre_59"/><linearGradient id="Degradado_sin_nombre_59-128" x1="63.2" y1="67.45" x2="63.2" y2="66.81" gradientTransform="matrix(1, 0, 0, 1, 0, 0)" xlink:href="#Degradado_sin_nombre_59"/><linearGradient id="Degradado_sin_nombre_59-129" x1="31.9" y1="84.97" x2="31.9" y2="84.32" gradientTransform="matrix(1, 0, 0, 1, 0, 0)" xlink:href="#Degradado_sin_nombre_59"/><linearGradient id="Degradado_sin_nombre_59-130" x1="63.2" y1="49.93" x2="63.2" y2="49.29" gradientTransform="matrix(1, 0, 0, 1, 0, 0)" xlink:href="#Degradado_sin_nombre_59"/><linearGradient id="Degradado_sin_nombre_59-131" x1="42.37" y1="84.97" x2="42.37" y2="84.32" gradientTransform="matrix(1, 0, 0, 1, 0, 0)" xlink:href="#Degradado_sin_nombre_59"/><linearGradient id="Degradado_sin_nombre_59-132" x1="42.37" y1="67.45" x2="42.37" y2="66.81" gradientTransform="matrix(1, 0, 0, 1, 0, 0)" xlink:href="#Degradado_sin_nombre_59"/><linearGradient id="Degradado_sin_nombre_59-133" x1="84.14" y1="102.48" x2="84.14" y2="101.84" gradientTransform="matrix(1, 0, 0, 1, 0, 0)" xlink:href="#Degradado_sin_nombre_59"/><linearGradient id="Degradado_sin_nombre_59-134" x1="63.2" y1="120" x2="63.2" y2="119.36" gradientTransform="matrix(1, 0, 0, 1, 0, 0)" xlink:href="#Degradado_sin_nombre_59"/><linearGradient id="Degradado_sin_nombre_59-135" x1="84.14" y1="120" x2="84.14" y2="119.36" gradientTransform="matrix(1, 0, 0, 1, 0, 0)" xlink:href="#Degradado_sin_nombre_59"/><linearGradient id="Degradado_sin_nombre_59-136" x1="42.37" y1="120" x2="42.37" y2="119.36" gradientTransform="matrix(1, 0, 0, 1, 0, 0)" xlink:href="#Degradado_sin_nombre_59"/><linearGradient id="Degradado_sin_nombre_59-137" x1="31.9" y1="120" x2="31.9" y2="119.36" gradientTransform="matrix(1, 0, 0, 1, 0, 0)" xlink:href="#Degradado_sin_nombre_59"/><linearGradient id="Degradado_sin_nombre_59-138" x1="21.47" y1="120" x2="21.47" y2="119.36" gradientTransform="matrix(1, 0, 0, 1, 0, 0)" xlink:href="#Degradado_sin_nombre_59"/><linearGradient id="Degradado_sin_nombre_59-139" x1="42.37" y1="137.51" x2="42.37" y2="136.87" gradientTransform="matrix(1, 0, 0, 1, 0, 0)" xlink:href="#Degradado_sin_nombre_59"/><linearGradient id="Degradado_sin_nombre_59-140" x1="63.2" y1="84.97" x2="63.2" y2="84.32" gradientTransform="matrix(1, 0, 0, 1, 0, 0)" xlink:href="#Degradado_sin_nombre_59"/><linearGradient id="Degradado_sin_nombre_59-141" x1="63.2" y1="137.51" x2="63.2" y2="136.87" gradientTransform="matrix(1, 0, 0, 1, 0, 0)" xlink:href="#Degradado_sin_nombre_59"/><linearGradient id="Degradado_sin_nombre_59-142" x1="73.67" y1="102.48" x2="73.67" y2="101.84" gradientTransform="matrix(1, 0, 0, 1, 0, 0)" xlink:href="#Degradado_sin_nombre_59"/><linearGradient id="Degradado_sin_nombre_59-143" x1="73.67" y1="120" x2="73.67" y2="119.36" gradientTransform="matrix(1, 0, 0, 1, 0, 0)" xlink:href="#Degradado_sin_nombre_59"/><linearGradient id="Degradado_sin_nombre_59-144" x1="73.67" y1="137.51" x2="73.67" y2="136.87" gradientTransform="matrix(1, 0, 0, 1, 0, 0)" xlink:href="#Degradado_sin_nombre_59"/><linearGradient id="Degradado_sin_nombre_59-145" x1="21.47" y1="102.48" x2="21.47" y2="101.84" gradientTransform="matrix(1, 0, 0, 1, 0, 0)" xlink:href="#Degradado_sin_nombre_59"/><linearGradient id="Degradado_sin_nombre_59-146" x1="42.37" y1="102.48" x2="42.37" y2="101.84" gradientTransform="matrix(1, 0, 0, 1, 0, 0)" xlink:href="#Degradado_sin_nombre_59"/><linearGradient id="Degradado_sin_nombre_59-147" x1="31.9" y1="102.48" x2="31.9" y2="101.84" gradientTransform="matrix(1, 0, 0, 1, 0, 0)" xlink:href="#Degradado_sin_nombre_59"/><linearGradient id="Degradado_sin_nombre_59-148" x1="73.67" y1="84.97" x2="73.67" y2="84.32" gradientTransform="matrix(1, 0, 0, 1, 0, 0)" xlink:href="#Degradado_sin_nombre_59"/><linearGradient id="Degradado_sin_nombre_59-149" x1="84.14" y1="84.97" x2="84.14" y2="84.32" gradientTransform="matrix(1, 0, 0, 1, 0, 0)" xlink:href="#Degradado_sin_nombre_59"/><linearGradient id="Degradado_sin_nombre_59-150" x1="63.2" y1="102.48" x2="63.2" y2="101.84" gradientTransform="matrix(1, 0, 0, 1, 0, 0)" xlink:href="#Degradado_sin_nombre_59"/><linearGradient id="Degradado_sin_nombre_59-151" x1="58.02" y1="146.12" x2="58.02" y2="137.51" gradientTransform="matrix(1, 0, 0, 1, 0, 0)" xlink:href="#Degradado_sin_nombre_59"/><linearGradient id="Degradado_sin_nombre_59-152" x1="57.03" y1="144.01" x2="57.03" y2="128.87" gradientTransform="matrix(1, 0, 0, 1, 0, 0)" xlink:href="#Degradado_sin_nombre_59"/><linearGradient id="Degradado_sin_nombre_59-153" x1="21.41" y1="121.43" x2="21.41" y2="120" gradientTransform="matrix(1, 0, 0, 1, 0, 0)" xlink:href="#Degradado_sin_nombre_59"/><linearGradient id="Degradado_sin_nombre_59-154" x1="58.02" y1="136" x2="58.02" y2="120" gradientTransform="matrix(1, 0, 0, 1, 0, 0)" xlink:href="#Degradado_sin_nombre_59"/><linearGradient id="Degradado_sin_nombre_59-155" x1="57.67" y1="126.49" x2="57.67" y2="111.35" gradientTransform="matrix(1, 0, 0, 1, 0, 0)" xlink:href="#Degradado_sin_nombre_59"/><linearGradient id="Degradado_sin_nombre_59-156" x1="57.98" y1="118.49" x2="57.98" y2="102.48" gradientTransform="matrix(1, 0, 0, 1, 0, 0)" xlink:href="#Degradado_sin_nombre_59"/><linearGradient id="Degradado_sin_nombre_59-157" x1="58.01" y1="108.98" x2="58.01" y2="93.84" gradientTransform="matrix(1, 0, 0, 1, 0, 0)" xlink:href="#Degradado_sin_nombre_59"/><linearGradient id="Degradado_sin_nombre_59-158" x1="58.21" y1="100.97" x2="58.21" y2="84.97" gradientTransform="matrix(1, 0, 0, 1, 0, 0)" xlink:href="#Degradado_sin_nombre_59"/><linearGradient id="Degradado_sin_nombre_59-159" x1="58.02" y1="91.46" x2="58.02" y2="76.32" gradientTransform="matrix(1, 0, 0, 1, 0, 0)" xlink:href="#Degradado_sin_nombre_59"/><linearGradient id="Degradado_sin_nombre_59-160" x1="57.93" y1="83.46" x2="57.93" y2="67.45" gradientTransform="matrix(1, 0, 0, 1, 0, 0)" xlink:href="#Degradado_sin_nombre_59"/><linearGradient id="Degradado_sin_nombre_59-161" x1="58.02" y1="73.94" x2="58.02" y2="58.8" gradientTransform="matrix(1, 0, 0, 1, 0, 0)" xlink:href="#Degradado_sin_nombre_59"/><linearGradient id="Degradado_sin_nombre_59-162" x1="58.14" y1="65.94" x2="58.14" y2="49.93" gradientTransform="matrix(1, 0, 0, 1, 0, 0)" xlink:href="#Degradado_sin_nombre_59"/><linearGradient id="Degradado_sin_nombre_59-163" x1="58.02" y1="56.43" x2="58.02" y2="44.24" gradientTransform="matrix(1, 0, 0, 1, 0, 0)" xlink:href="#Degradado_sin_nombre_59"/><linearGradient id="Degradado_sin_nombre_59-164" x1="74.93" y1="29.28" x2="74.93" y2="28.59" gradientTransform="matrix(1, 0, 0, 1, 0, 0)" xlink:href="#Degradado_sin_nombre_59"/><linearGradient id="Degradado_sin_nombre_59-165" x1="63.62" y1="29.28" x2="63.62" y2="28.59" gradientTransform="matrix(1, 0, 0, 1, 0, 0)" xlink:href="#Degradado_sin_nombre_59"/><linearGradient id="Degradado_sin_nombre_59-166" x1="29.8" y1="48.21" x2="29.8" y2="47.51" gradientTransform="matrix(1, 0, 0, 1, 0, 0)" xlink:href="#Degradado_sin_nombre_59"/><linearGradient id="Degradado_sin_nombre_59-167" x1="63.62" y1="10.35" x2="63.62" y2="9.66" gradientTransform="matrix(1, 0, 0, 1, 0, 0)" xlink:href="#Degradado_sin_nombre_59"/><linearGradient id="Degradado_sin_nombre_59-168" x1="41.11" y1="48.21" x2="41.11" y2="47.51" gradientTransform="matrix(1, 0, 0, 1, 0, 0)" xlink:href="#Degradado_sin_nombre_59"/><linearGradient id="Degradado_sin_nombre_59-169" x1="41.11" y1="29.28" x2="41.11" y2="28.59" gradientTransform="matrix(1, 0, 0, 1, 0, 0)" xlink:href="#Degradado_sin_nombre_59"/><linearGradient id="Degradado_sin_nombre_59-170" x1="86.24" y1="67.13" x2="86.24" y2="66.44" gradientTransform="matrix(1, 0, 0, 1, 0, 0)" xlink:href="#Degradado_sin_nombre_59"/><linearGradient id="Degradado_sin_nombre_59-171" x1="63.62" y1="86.06" x2="63.62" y2="85.37" gradientTransform="matrix(1, 0, 0, 1, 0, 0)" xlink:href="#Degradado_sin_nombre_59"/><linearGradient id="Degradado_sin_nombre_59-172" x1="86.24" y1="86.06" x2="86.24" y2="85.37" gradientTransform="matrix(1, 0, 0, 1, 0, 0)" xlink:href="#Degradado_sin_nombre_59"/><linearGradient id="Degradado_sin_nombre_59-173" x1="41.11" y1="86.06" x2="41.11" y2="85.37" gradientTransform="matrix(1, 0, 0, 1, 0, 0)" xlink:href="#Degradado_sin_nombre_59"/><linearGradient id="Degradado_sin_nombre_59-174" x1="29.8" y1="86.06" x2="29.8" y2="85.37" gradientTransform="matrix(1, 0, 0, 1, 0, 0)" xlink:href="#Degradado_sin_nombre_59"/><linearGradient id="Degradado_sin_nombre_59-175" x1="18.53" y1="86.06" x2="18.53" y2="85.37" gradientTransform="matrix(1, 0, 0, 1, 0, 0)" xlink:href="#Degradado_sin_nombre_59"/><linearGradient id="Degradado_sin_nombre_59-176" x1="41.11" y1="104.99" x2="41.11" y2="104.3" gradientTransform="matrix(1, 0, 0, 1, 0, 0)" xlink:href="#Degradado_sin_nombre_59"/><linearGradient id="Degradado_sin_nombre_59-177" x1="63.62" y1="48.21" x2="63.62" y2="47.51" gradientTransform="matrix(1, 0, 0, 1, 0, 0)" xlink:href="#Degradado_sin_nombre_59"/><linearGradient id="Degradado_sin_nombre_59-178" x1="63.62" y1="104.99" x2="63.62" y2="104.3" gradientTransform="matrix(1, 0, 0, 1, 0, 0)" xlink:href="#Degradado_sin_nombre_59"/><linearGradient id="Degradado_sin_nombre_59-179" x1="74.93" y1="67.13" x2="74.93" y2="66.44" gradientTransform="matrix(1, 0, 0, 1, 0, 0)" xlink:href="#Degradado_sin_nombre_59"/><linearGradient id="Degradado_sin_nombre_59-180" x1="74.93" y1="86.06" x2="74.93" y2="85.37" gradientTransform="matrix(1, 0, 0, 1, 0, 0)" xlink:href="#Degradado_sin_nombre_59"/><linearGradient id="Degradado_sin_nombre_59-181" x1="74.93" y1="104.99" x2="74.93" y2="104.3" gradientTransform="matrix(1, 0, 0, 1, 0, 0)" xlink:href="#Degradado_sin_nombre_59"/><linearGradient id="Degradado_sin_nombre_59-182" x1="18.53" y1="67.13" x2="18.53" y2="66.44" gradientTransform="matrix(1, 0, 0, 1, 0, 0)" xlink:href="#Degradado_sin_nombre_59"/><linearGradient id="Degradado_sin_nombre_59-183" x1="41.11" y1="67.13" x2="41.11" y2="66.44" gradientTransform="matrix(1, 0, 0, 1, 0, 0)" xlink:href="#Degradado_sin_nombre_59"/><linearGradient id="Degradado_sin_nombre_59-184" x1="29.8" y1="67.13" x2="29.8" y2="66.44" gradientTransform="matrix(1, 0, 0, 1, 0, 0)" xlink:href="#Degradado_sin_nombre_59"/><linearGradient id="Degradado_sin_nombre_59-185" x1="74.93" y1="48.21" x2="74.93" y2="47.51" gradientTransform="matrix(1, 0, 0, 1, 0, 0)" xlink:href="#Degradado_sin_nombre_59"/><linearGradient id="Degradado_sin_nombre_59-186" x1="86.24" y1="48.21" x2="86.24" y2="47.51" gradientTransform="matrix(1, 0, 0, 1, 0, 0)" xlink:href="#Degradado_sin_nombre_59"/><linearGradient id="Degradado_sin_nombre_59-187" x1="63.62" y1="67.13" x2="63.62" y2="66.44" gradientTransform="matrix(1, 0, 0, 1, 0, 0)" xlink:href="#Degradado_sin_nombre_59"/><linearGradient id="Degradado_sin_nombre_59-188" x1="58.02" y1="114.29" x2="58.02" y2="104.99" gradientTransform="matrix(1, 0, 0, 1, 0, 0)" xlink:href="#Degradado_sin_nombre_59"/><linearGradient id="Degradado_sin_nombre_59-189" x1="56.95" y1="112.01" x2="56.95" y2="95.65" gradientTransform="matrix(1, 0, 0, 1, 0, 0)" xlink:href="#Degradado_sin_nombre_59"/><linearGradient id="Degradado_sin_nombre_59-190" x1="18.46" y1="87.61" x2="18.46" y2="86.06" gradientTransform="matrix(1, 0, 0, 1, 0, 0)" xlink:href="#Degradado_sin_nombre_59"/><linearGradient id="Degradado_sin_nombre_59-191" x1="58.02" y1="103.36" x2="58.02" y2="86.06" gradientTransform="matrix(1, 0, 0, 1, 0, 0)" xlink:href="#Degradado_sin_nombre_59"/><linearGradient id="Degradado_sin_nombre_59-192" x1="57.64" y1="93.08" x2="57.64" y2="76.72" gradientTransform="matrix(1, 0, 0, 1, 0, 0)" xlink:href="#Degradado_sin_nombre_59"/><linearGradient id="Degradado_sin_nombre_59-193" x1="57.98" y1="84.43" x2="57.98" y2="67.13" gradientTransform="matrix(1, 0, 0, 1, 0, 0)" xlink:href="#Degradado_sin_nombre_59"/><linearGradient id="Degradado_sin_nombre_59-194" x1="58.01" y1="74.15" x2="58.01" y2="57.79" gradientTransform="matrix(1, 0, 0, 1, 0, 0)" xlink:href="#Degradado_sin_nombre_59"/><linearGradient id="Degradado_sin_nombre_59-195" x1="58.23" y1="65.5" x2="58.23" y2="48.21" gradientTransform="matrix(1, 0, 0, 1, 0, 0)" xlink:href="#Degradado_sin_nombre_59"/><linearGradient id="Degradado_sin_nombre_59-196" x1="58.02" y1="55.23" x2="58.02" y2="38.87" gradientTransform="matrix(1, 0, 0, 1, 0, 0)" xlink:href="#Degradado_sin_nombre_59"/><linearGradient id="Degradado_sin_nombre_59-197" x1="57.93" y1="46.58" x2="57.93" y2="29.28" gradientTransform="matrix(1, 0, 0, 1, 0, 0)" xlink:href="#Degradado_sin_nombre_59"/><linearGradient id="Degradado_sin_nombre_59-198" x1="58.02" y1="36.3" x2="58.02" y2="19.94" gradientTransform="matrix(1, 0, 0, 1, 0, 0)" xlink:href="#Degradado_sin_nombre_59"/><linearGradient id="Degradado_sin_nombre_59-199" x1="58.15" y1="27.65" x2="58.15" y2="10.35" gradientTransform="matrix(1, 0, 0, 1, 0, 0)" xlink:href="#Degradado_sin_nombre_59"/><linearGradient id="Degradado_sin_nombre_59-200" x1="58.02" y1="17.37" x2="58.02" y2="4.2" gradientTransform="matrix(1, 0, 0, 1, 0, 0)" xlink:href="#Degradado_sin_nombre_59"/></defs><g style="isolation:isolate"><g id="Layer_2" data-name="Layer 2"><g id="OBJECTS"><rect x="60.13" y="128.91" width="18.92" height="36.48" rx="8.11" transform="translate(139.18 294.29) rotate(180)" style="fill:url(#Degradado_sin_nombre_59)"/><rect x="31.08" y="128.91" width="18.92" height="36.48" rx="8.11" transform="translate(81.08 294.29) rotate(180)" style="fill:url(#Degradado_sin_nombre_59-2)"/><rect x="60.13" y="117.55" width="18.92" height="36.48" rx="8.11" transform="translate(139.18 271.58) rotate(180)" style="fill:#bf630c;opacity:0.67;mix-blend-mode:multiply"/><rect x="31.08" y="117.55" width="18.92" height="36.48" rx="8.11" transform="translate(81.08 271.58) rotate(180)" style="fill:#bf630c;opacity:0.67;mix-blend-mode:multiply"/><rect x="16.73" y="157.28" width="36.22" height="12.39" rx="6.19" style="fill:#fe9d23"/><path d="M50.55,158.6a5.88,5.88,0,0,1,0,.6h0a6.21,6.21,0,0,1-6.19,6.19H20.56a6.17,6.17,0,0,1-3.8-1.32,6.21,6.21,0,0,0,6.16,5.6H46.75a6.22,6.22,0,0,0,6.2-6.2h0A6.16,6.16,0,0,0,50.55,158.6Z" style="fill:#bf630c;opacity:0.67;mix-blend-mode:multiply"/><path d="M41.22,169.67h-8a5.55,5.55,0,0,1-5.54-5.54h0a5.55,5.55,0,0,1,5.54-5.54h8a5.55,5.55,0,0,1,5.53,5.54h0A5.55,5.55,0,0,1,41.22,169.67Z" style="fill:#feb14f"/><path d="M43.48,159.08a5.53,5.53,0,0,1-5,7.8h-8a5.49,5.49,0,0,1-2.26-.49,5.54,5.54,0,0,0,5.05,3.28h8a5.54,5.54,0,0,0,2.26-10.59Z" style="fill:#bf630c;opacity:0.67;mix-blend-mode:multiply"/><rect x="14.36" y="160.17" width="12.16" height="9.5" rx="4.75" style="fill:#feb14f"/><path d="M23.71,160.59a4.77,4.77,0,0,1,.42,1.93h0a4.76,4.76,0,0,1-4.75,4.75H16.72a4.61,4.61,0,0,1-1.93-.42,4.76,4.76,0,0,0,4.32,2.82h2.67a4.77,4.77,0,0,0,4.75-4.75h0A4.76,4.76,0,0,0,23.71,160.59Z" style="fill:#bf630c;opacity:0.67;mix-blend-mode:multiply"/><rect x="30.41" y="158.59" width="13.12" height="3.25" rx="1.63" style="fill:#fcedb6"/><path d="M21.61,142.62H19.7c-.37,0-.6.57-.42,1l1,2.37,1,2.37a.42.42,0,0,0,.82,0L23,146l1-2.37c.18-.45-.05-1-.42-1Z" style="fill:#fcedb6"/><path d="M11.82,134.45h0A8.44,8.44,0,0,0,20.23,126V90.48a8.43,8.43,0,0,0-8.41-8.4h0a8.43,8.43,0,0,0-8.41,8.4V126A8.43,8.43,0,0,0,11.82,134.45Z" style="fill:#fe9d23"/><path d="M22.64,88.5A11,11,0,0,0,1,88.5Z" style="fill:url(#Degradado_sin_nombre_60)"/><path d="M13.4,79.93a1.23,1.23,0,0,1,0,.19h0Z" style="fill:url(#Degradado_sin_nombre_59-3)"/><path d="M4,85.19a1.23,1.23,0,0,1,0,.19H4Z" style="fill:url(#Degradado_sin_nombre_59-4)"/><path d="M7.13,85.19c0,.06,0,.13,0,.19h0C7.15,85.32,7.13,85.25,7.13,85.19Z" style="fill:url(#Degradado_sin_nombre_59-5)"/><path d="M7.13,79.93c0,.06,0,.13,0,.19h0C7.15,80.06,7.13,80,7.13,79.93Z" style="fill:url(#Degradado_sin_nombre_59-6)"/><path d="M19.67,90.45v.19h0A1.23,1.23,0,0,1,19.67,90.45Z" style="fill:url(#Degradado_sin_nombre_59-7)"/><path d="M13.4,95.71a1.37,1.37,0,0,1,0,.19h0Z" style="fill:url(#Degradado_sin_nombre_59-8)"/><path d="M19.67,95.71v.19h0A1.37,1.37,0,0,1,19.67,95.71Z" style="fill:url(#Degradado_sin_nombre_59-9)"/><path d="M7.13,95.71c0,.06,0,.12,0,.19h0C7.15,95.83,7.13,95.77,7.13,95.71Z" style="fill:url(#Degradado_sin_nombre_59-10)"/><path d="M4,95.71a1.37,1.37,0,0,1,0,.19H4Z" style="fill:url(#Degradado_sin_nombre_59-11)"/><path d="M.87,95.71a1.37,1.37,0,0,1,0,.19h0Z" style="fill:url(#Degradado_sin_nombre_59-12)"/><path d="M7.13,101c0,.06,0,.12,0,.19h0C7.15,101.09,7.13,101,7.13,101Z" style="fill:url(#Degradado_sin_nombre_59-13)"/><path d="M13.4,85.19a1.23,1.23,0,0,1,0,.19h0Z" style="fill:url(#Degradado_sin_nombre_59-14)"/><path d="M13.4,101a1.37,1.37,0,0,1,0,.19h0Z" style="fill:url(#Degradado_sin_nombre_59-15)"/><path d="M16.55,90.64c0-.06,0-.13,0-.19a1.23,1.23,0,0,1,0,.19h0Z" style="fill:url(#Degradado_sin_nombre_59-16)"/><path d="M16.55,95.9c0-.07,0-.13,0-.19a1.37,1.37,0,0,1,0,.19h0Z" style="fill:url(#Degradado_sin_nombre_59-17)"/><path d="M16.55,101.16c0-.07,0-.13,0-.19a1.37,1.37,0,0,1,0,.19h0Z" style="fill:url(#Degradado_sin_nombre_59-18)"/><path d="M.87,90.45a1.23,1.23,0,0,1,0,.19h0Z" style="fill:url(#Degradado_sin_nombre_59-19)"/><path d="M7.13,90.45c0,.06,0,.13,0,.19h0C7.15,90.58,7.13,90.51,7.13,90.45Z" style="fill:url(#Degradado_sin_nombre_59-20)"/><path d="M4,90.45a1.23,1.23,0,0,1,0,.19H4Z" style="fill:url(#Degradado_sin_nombre_59-21)"/><path d="M16.55,85.38c0-.06,0-.13,0-.19a1.23,1.23,0,0,1,0,.19h0Z" style="fill:url(#Degradado_sin_nombre_59-22)"/><path d="M19.67,85.19v.19h0A1.23,1.23,0,0,1,19.67,85.19Z" style="fill:url(#Degradado_sin_nombre_59-23)"/><path d="M13.4,90.45a1.23,1.23,0,0,1,0,.19h0Z" style="fill:url(#Degradado_sin_nombre_59-24)"/><path d="M.85,95.9a2.7,2.7,0,0,1,0,.28l.06.15V95.9Z" style="fill:url(#Degradado_sin_nombre_59-25)"/><path d="M22.8,93.3a2.16,2.16,0,0,1-2.14,2.15h-2a2.16,2.16,0,0,1-2.15-2.15v2.15h-1A2.15,2.15,0,0,1,13.4,93.3a2.15,2.15,0,0,1-2.14,2.15h-1V93.3a2.16,2.16,0,0,1-2.15,2.15h-2A2.16,2.16,0,0,1,4,93.3a2.15,2.15,0,0,1-2.14,2.15h-1V93.3a2.09,2.09,0,0,1-.53,1.39,12.29,12.29,0,0,0,.47,1.49,2.7,2.7,0,0,0,0-.28,1.37,1.37,0,0,0,0-.19v.62a12.54,12.54,0,0,0,.74,1.52h.25A2.14,2.14,0,0,0,4,95.9a1.37,1.37,0,0,0,0-.19v2.14H5A2.15,2.15,0,0,0,7.12,95.9c0-.07,0-.13,0-.19s0,.12,0,.19a2.15,2.15,0,0,0,2.13,1.95h2a2.14,2.14,0,0,0,2.12-1.95,1.37,1.37,0,0,0,0-.19v2.14h1a2.14,2.14,0,0,0,2.12-1.95,1.37,1.37,0,0,0,0-.19c0,.06,0,.12,0,.19a2.14,2.14,0,0,0,2.13,1.95h1V95.71a1.37,1.37,0,0,0,0,.19,2.14,2.14,0,0,0,2.12,1.95h.25a11.89,11.89,0,0,0,1.05-2.4H22.8Z" style="fill:url(#Degradado_sin_nombre_59-26)"/><path d="M21.81,92.59a2.14,2.14,0,0,1-2.12-2h0v2h-1a2.14,2.14,0,0,1-2.13-2h0a2.14,2.14,0,0,1-2.12,2h-1v-2h0a2.14,2.14,0,0,1-2.12,2h-2a2.15,2.15,0,0,1-2.13-2h0a2.15,2.15,0,0,1-2.13,2H4v-2H4a2.14,2.14,0,0,1-2.12,2h-1v-2h0A2.14,2.14,0,0,1,0,92.16a11.86,11.86,0,0,0,.34,2.53A2.09,2.09,0,0,0,.87,93.3v2.15h1A2.15,2.15,0,0,0,4,93.3a2.16,2.16,0,0,0,2.14,2.15h2a2.16,2.16,0,0,0,2.15-2.15v2.15h1A2.15,2.15,0,0,0,13.4,93.3a2.15,2.15,0,0,0,2.14,2.15h1V93.3a2.16,2.16,0,0,0,2.15,2.15h2A2.16,2.16,0,0,0,22.8,93.3v2.15h.31a11,11,0,0,0,.53-2.86H21.81Z" style="fill:url(#Degradado_sin_nombre_59-27)"/><path d="M22.8,88a2.16,2.16,0,0,1-2.14,2.15h-2A2.16,2.16,0,0,1,16.53,88v2.15h-1A2.15,2.15,0,0,1,13.4,88a2.15,2.15,0,0,1-2.14,2.15h-1V88a2.16,2.16,0,0,1-2.15,2.15h-2A2.16,2.16,0,0,1,4,88a2.15,2.15,0,0,1-2.14,2.15h-1V88a2.16,2.16,0,0,1-.62,1.51A11.55,11.55,0,0,0,0,92.16a2.14,2.14,0,0,0,.85-1.52,1.23,1.23,0,0,0,0-.19v2.14h1a2.14,2.14,0,0,0,2.12-2,1.23,1.23,0,0,0,0-.19v2.14H5a2.15,2.15,0,0,0,2.13-2c0-.06,0-.13,0-.19s0,.13,0,.19a2.15,2.15,0,0,0,2.13,2h2a2.14,2.14,0,0,0,2.12-2,1.23,1.23,0,0,0,0-.19v2.14h1a2.14,2.14,0,0,0,2.12-2,1.23,1.23,0,0,0,0-.19c0,.06,0,.13,0,.19a2.14,2.14,0,0,0,2.13,2h1V90.45a1.23,1.23,0,0,0,0,.19,2.14,2.14,0,0,0,2.12,2h1.83a10.76,10.76,0,0,0-.11-2.4H22.8Z" style="fill:url(#Degradado_sin_nombre_59-28)"/><path d="M19.69,85.38h0v2h-1a2.14,2.14,0,0,1-2.13-2h0a2.14,2.14,0,0,1-2.12,2h-1v-2h0a2.14,2.14,0,0,1-2.12,2h-2a2.15,2.15,0,0,1-2.13-2h0a2.15,2.15,0,0,1-2.13,2H4v-2H4a2.14,2.14,0,0,1-2.12,2H1a10.77,10.77,0,0,0-.7,2.22A2.16,2.16,0,0,0,.87,88v2.15h1A2.15,2.15,0,0,0,4,88a2.16,2.16,0,0,0,2.14,2.15h2A2.16,2.16,0,0,0,10.27,88v2.15h1A2.15,2.15,0,0,0,13.4,88a2.15,2.15,0,0,0,2.14,2.15h1V88a2.16,2.16,0,0,0,2.15,2.15h2A2.16,2.16,0,0,0,22.8,88v2.15h.73a11.57,11.57,0,0,0-.81-2.86h-.91A2.14,2.14,0,0,1,19.69,85.38Z" style="fill:url(#Degradado_sin_nombre_59-29)"/><path d="M19.67,84.93h-1a2.16,2.16,0,0,1-2.15-2.15v2.15h-1a2.15,2.15,0,0,1-2.14-2.15,2.15,2.15,0,0,1-2.14,2.15h-1V82.78a2.16,2.16,0,0,1-2.15,2.15h-2A2.16,2.16,0,0,1,4,82.78a2.16,2.16,0,0,1-1.75,2.11L1.6,86h0A12.26,12.26,0,0,0,1,87.33h.91a2.14,2.14,0,0,0,2.12-2,1.23,1.23,0,0,0,0-.19v2.14H5a2.15,2.15,0,0,0,2.13-2c0-.06,0-.13,0-.19s0,.13,0,.19a2.15,2.15,0,0,0,2.13,2h2a2.14,2.14,0,0,0,2.12-2,1.23,1.23,0,0,0,0-.19v2.14h1a2.14,2.14,0,0,0,2.12-2,1.23,1.23,0,0,0,0-.19c0,.06,0,.13,0,.19a2.14,2.14,0,0,0,2.13,2h1V85.19a1.23,1.23,0,0,0,0,.19,2.14,2.14,0,0,0,2.12,2h.91A12.26,12.26,0,0,0,22.07,86h0l-.71-1.22a2,2,0,0,1-.7.13Z" style="fill:url(#Degradado_sin_nombre_59-30)"/><path d="M7.13,79.93c0,.06,0,.13,0,.19h0C7.15,80.06,7.13,80,7.13,79.93Z" style="fill:url(#Degradado_sin_nombre_59-31)"/><path d="M1.39,78.25c0,.06,0,.12,0,.19h0A1.37,1.37,0,0,1,1.39,78.25Z" style="fill:url(#Degradado_sin_nombre_59-32)"/><path d="M23.53,90.19a11.57,11.57,0,0,0-.81-2.86A12.26,12.26,0,0,0,22.07,86l-.71-1.22h0a11,11,0,0,0-9.46-5.58,11,11,0,0,1,3.71,3.9h0l.7,1.22A11.5,11.5,0,0,1,17,85.65a11.65,11.65,0,0,1,.82,2.85,12.2,12.2,0,0,1,.11,2.41,12,12,0,0,1-.53,2.85,12.34,12.34,0,0,1-1.06,2.41h-.25a2.11,2.11,0,0,1-1.58-.73v28.92a8.44,8.44,0,0,1-7.72,8.38,8.34,8.34,0,0,0,5.06,1.71A8.44,8.44,0,0,0,20.23,126V97.12a2.11,2.11,0,0,0,1.58.73h.25a11.89,11.89,0,0,0,1.05-2.4,11,11,0,0,0,.53-2.86A10.76,10.76,0,0,0,23.53,90.19Z" style="fill:#bf630c;opacity:0.67;mix-blend-mode:multiply"/><path d="M6.08,154.31h0a4.63,4.63,0,0,0,4.62-4.61V133.16a4.63,4.63,0,0,0-4.62-4.62h0a4.63,4.63,0,0,0-4.61,4.62V149.7A4.63,4.63,0,0,0,6.08,154.31Z" style="fill:url(#Degradado_sin_nombre_59-33)"/><path d="M7.29,141.36a4.63,4.63,0,0,0-4.61-4.62,4.78,4.78,0,0,0-1.21.17v-3.75a4.62,4.62,0,1,1,9.23,0V149.7a4.63,4.63,0,0,1-3.41,4.45Z" style="fill:#bf630c;opacity:0.67;mix-blend-mode:multiply"/><path d="M14.21,156.75h0a4.63,4.63,0,0,0,4.62-4.62V135.59A4.63,4.63,0,0,0,14.21,131h0a4.63,4.63,0,0,0-4.62,4.61v16.54A4.63,4.63,0,0,0,14.21,156.75Z" style="fill:url(#Degradado_sin_nombre_59-34)"/><path d="M17.13,144.18a4.61,4.61,0,0,0-7.54-3.57v-5a4.62,4.62,0,0,1,9.24,0v16.54a4.62,4.62,0,0,1-1.7,3.57Z" style="fill:#bf630c;opacity:0.67;mix-blend-mode:multiply"/><path d="M20.65,145.5h0A3.53,3.53,0,0,0,24.17,142v-9.92a3.53,3.53,0,0,0-3.52-3.52h0a3.53,3.53,0,0,0-3.52,3.52V142A3.53,3.53,0,0,0,20.65,145.5Z" style="fill:url(#Degradado_sin_nombre_59-35)"/><path d="M20.65,128.54h0a3.53,3.53,0,0,1,3.52,3.52V133l-.42,0a3.53,3.53,0,0,0-3.52,3.52v9a3.53,3.53,0,0,1-3.1-3.49v-9.92A3.53,3.53,0,0,1,20.65,128.54Z" style="fill:#bf630c;opacity:0.67;mix-blend-mode:multiply"/><rect x="1.28" y="119.84" width="20.83" height="17.4" rx="7.5" transform="translate(23.38 257.08) rotate(180)" style="fill:url(#Degradado_sin_nombre_59-36)"/><path d="M1.57,131H7.4a7.52,7.52,0,0,0,7.5-7.5v-2.4a7.1,7.1,0,0,0-.11-1.22,7.52,7.52,0,0,1,7.32,7.49v2.4a7.52,7.52,0,0,1-7.5,7.5H8.78A7.51,7.51,0,0,1,1.39,131Z" style="fill:#bf630c;opacity:0.67;mix-blend-mode:multiply"/><path d="M22.64,126.31a11,11,0,0,0-21.65,0Z" style="fill:url(#Degradado_sin_nombre_60-2)"/><path d="M13.4,117.74a1.36,1.36,0,0,1,0,.2h0Z" style="fill:url(#Degradado_sin_nombre_59-37)"/><path d="M4,123a1.11,1.11,0,0,1,0,.19H4Z" style="fill:url(#Degradado_sin_nombre_59-38)"/><path d="M7.13,123c0,.07,0,.13,0,.19h0C7.15,123.13,7.13,123.07,7.13,123Z" style="fill:url(#Degradado_sin_nombre_59-39)"/><path d="M7.13,117.74c0,.07,0,.13,0,.2h0C7.15,117.87,7.13,117.81,7.13,117.74Z" style="fill:url(#Degradado_sin_nombre_59-40)"/><path d="M19.67,128.26v.19h0A1.11,1.11,0,0,1,19.67,128.26Z" style="fill:url(#Degradado_sin_nombre_59-41)"/><path d="M13.4,133.52a1.11,1.11,0,0,1,0,.19h0Z" style="fill:url(#Degradado_sin_nombre_59-42)"/><path d="M19.67,133.52v.19h0A1.11,1.11,0,0,1,19.67,133.52Z" style="fill:url(#Degradado_sin_nombre_59-43)"/><path d="M7.13,133.52c0,.07,0,.13,0,.19h0C7.15,133.65,7.13,133.59,7.13,133.52Z" style="fill:url(#Degradado_sin_nombre_59-44)"/><path d="M4,133.52a1.11,1.11,0,0,1,0,.19H4Z" style="fill:url(#Degradado_sin_nombre_59-45)"/><path d="M.87,133.52a1.11,1.11,0,0,1,0,.19h0Z" style="fill:url(#Degradado_sin_nombre_59-46)"/><path d="M7.13,138.78c0,.07,0,.13,0,.19h0C7.15,138.91,7.13,138.85,7.13,138.78Z" style="fill:url(#Degradado_sin_nombre_59-47)"/><path d="M13.4,123a1.11,1.11,0,0,1,0,.19h0Z" style="fill:url(#Degradado_sin_nombre_59-48)"/><path d="M13.4,138.78a1.11,1.11,0,0,1,0,.19h0Z" style="fill:url(#Degradado_sin_nombre_59-49)"/><path d="M16.55,128.45c0-.06,0-.12,0-.19a1.11,1.11,0,0,1,0,.19h0Z" style="fill:url(#Degradado_sin_nombre_59-50)"/><path d="M16.55,133.71c0-.06,0-.12,0-.19a1.11,1.11,0,0,1,0,.19h0Z" style="fill:url(#Degradado_sin_nombre_59-51)"/><path d="M16.55,139c0-.06,0-.12,0-.19a1.11,1.11,0,0,1,0,.19h0Z" style="fill:url(#Degradado_sin_nombre_59-52)"/><path d="M.87,128.26a1.11,1.11,0,0,1,0,.19h0Z" style="fill:url(#Degradado_sin_nombre_59-53)"/><path d="M7.13,128.26c0,.07,0,.13,0,.19h0C7.15,128.39,7.13,128.33,7.13,128.26Z" style="fill:url(#Degradado_sin_nombre_59-54)"/><path d="M4,128.26a1.11,1.11,0,0,1,0,.19H4Z" style="fill:url(#Degradado_sin_nombre_59-55)"/><path d="M16.55,123.19c0-.06,0-.12,0-.19a1.11,1.11,0,0,1,0,.19h0Z" style="fill:url(#Degradado_sin_nombre_59-56)"/><path d="M19.67,123v.19h0A1.11,1.11,0,0,1,19.67,123Z" style="fill:url(#Degradado_sin_nombre_59-57)"/><path d="M13.4,128.26a1.11,1.11,0,0,1,0,.19h0Z" style="fill:url(#Degradado_sin_nombre_59-58)"/><path d="M.85,133.71a2.89,2.89,0,0,1,0,.29l.06.14v-.43Z" style="fill:url(#Degradado_sin_nombre_59-59)"/><path d="M22.8,131.12a2.15,2.15,0,0,1-2.14,2.14h-2a2.15,2.15,0,0,1-2.15-2.14v2.14h-1a2.14,2.14,0,0,1-2.14-2.14,2.14,2.14,0,0,1-2.14,2.14h-1v-2.14a2.15,2.15,0,0,1-2.15,2.14h-2A2.15,2.15,0,0,1,4,131.12a2.14,2.14,0,0,1-2.14,2.14h-1v-2.14a2.11,2.11,0,0,1-.53,1.39A13.52,13.52,0,0,0,.81,134a2.89,2.89,0,0,0,0-.29,1.11,1.11,0,0,0,0-.19v.62a11.25,11.25,0,0,0,.74,1.52h.25A2.14,2.14,0,0,0,4,133.71a1.11,1.11,0,0,0,0-.19v2.14H5a2.15,2.15,0,0,0,2.13-1.95c0-.06,0-.12,0-.19s0,.13,0,.19a2.15,2.15,0,0,0,2.13,1.95h2a2.14,2.14,0,0,0,2.12-1.95,1.11,1.11,0,0,0,0-.19v2.14h1a2.14,2.14,0,0,0,2.12-1.95,1.11,1.11,0,0,0,0-.19c0,.07,0,.13,0,.19a2.14,2.14,0,0,0,2.13,1.95h1v-2.14a1.11,1.11,0,0,0,0,.19,2.14,2.14,0,0,0,2.12,1.95h.25a11.42,11.42,0,0,0,1.05-2.4H22.8Z" style="fill:url(#Degradado_sin_nombre_59-60)"/><path d="M21.81,130.4a2.14,2.14,0,0,1-2.12-2h0v2h-1a2.14,2.14,0,0,1-2.13-2h0a2.14,2.14,0,0,1-2.12,2h-1v-2h0a2.14,2.14,0,0,1-2.12,2h-2a2.15,2.15,0,0,1-2.13-2h0a2.15,2.15,0,0,1-2.13,2H4v-2H4a2.14,2.14,0,0,1-2.12,2h-1v-2h0A2.12,2.12,0,0,1,0,130a12,12,0,0,0,.34,2.54,2.11,2.11,0,0,0,.53-1.39v2.14h1A2.14,2.14,0,0,0,4,131.12a2.15,2.15,0,0,0,2.14,2.14h2a2.15,2.15,0,0,0,2.15-2.14v2.14h1a2.14,2.14,0,0,0,2.14-2.14,2.14,2.14,0,0,0,2.14,2.14h1v-2.14a2.15,2.15,0,0,0,2.15,2.14h2a2.15,2.15,0,0,0,2.14-2.14v2.14h.31a11,11,0,0,0,.53-2.86H21.81Z" style="fill:url(#Degradado_sin_nombre_59-61)"/><path d="M22.8,125.86A2.15,2.15,0,0,1,20.66,128h-2a2.15,2.15,0,0,1-2.15-2.14V128h-1a2.14,2.14,0,0,1-2.14-2.14A2.14,2.14,0,0,1,11.26,128h-1v-2.14A2.15,2.15,0,0,1,8.12,128h-2A2.15,2.15,0,0,1,4,125.86,2.14,2.14,0,0,1,1.86,128h-1v-2.14a2.15,2.15,0,0,1-.62,1.5A11.6,11.6,0,0,0,0,130a2.12,2.12,0,0,0,.85-1.52,1.11,1.11,0,0,0,0-.19v2.14h1a2.14,2.14,0,0,0,2.12-2,1.11,1.11,0,0,0,0-.19v2.14H5a2.15,2.15,0,0,0,2.13-2c0-.06,0-.12,0-.19s0,.13,0,.19a2.15,2.15,0,0,0,2.13,2h2a2.14,2.14,0,0,0,2.12-2,1.11,1.11,0,0,0,0-.19v2.14h1a2.14,2.14,0,0,0,2.12-2,1.11,1.11,0,0,0,0-.19c0,.07,0,.13,0,.19a2.14,2.14,0,0,0,2.13,2h1v-2.14a1.11,1.11,0,0,0,0,.19,2.14,2.14,0,0,0,2.12,2h1.83a10.79,10.79,0,0,0-.11-2.4H22.8Z" style="fill:url(#Degradado_sin_nombre_59-62)"/><path d="M19.69,123.19h0v2h-1a2.14,2.14,0,0,1-2.13-2h0a2.14,2.14,0,0,1-2.12,2h-1v-2h0a2.14,2.14,0,0,1-2.12,2h-2a2.15,2.15,0,0,1-2.13-2h0a2.15,2.15,0,0,1-2.13,2H4v-2H4a2.14,2.14,0,0,1-2.12,2H1a11.17,11.17,0,0,0-.7,2.22,2.15,2.15,0,0,0,.62-1.5V128h1A2.14,2.14,0,0,0,4,125.86,2.15,2.15,0,0,0,6.14,128h2a2.15,2.15,0,0,0,2.15-2.14V128h1a2.14,2.14,0,0,0,2.14-2.14A2.14,2.14,0,0,0,15.54,128h1v-2.14A2.15,2.15,0,0,0,18.68,128h2a2.15,2.15,0,0,0,2.14-2.14V128h.73a11.69,11.69,0,0,0-.81-2.86h-.91A2.14,2.14,0,0,1,19.69,123.19Z" style="fill:url(#Degradado_sin_nombre_59-63)"/><path d="M19.67,122.74h-1a2.15,2.15,0,0,1-2.15-2.14v2.14h-1a2.14,2.14,0,0,1-2.14-2.14,2.14,2.14,0,0,1-2.14,2.14h-1V120.6a2.15,2.15,0,0,1-2.15,2.14h-2A2.15,2.15,0,0,1,4,120.6a2.15,2.15,0,0,1-1.75,2.1l-.65,1.13h0A12.26,12.26,0,0,0,1,125.14h.91a2.14,2.14,0,0,0,2.12-2A1.11,1.11,0,0,0,4,123v2.14H5a2.15,2.15,0,0,0,2.13-2c0-.06,0-.12,0-.19s0,.13,0,.19a2.15,2.15,0,0,0,2.13,2h2a2.14,2.14,0,0,0,2.12-2,1.11,1.11,0,0,0,0-.19v2.14h1a2.14,2.14,0,0,0,2.12-2,1.11,1.11,0,0,0,0-.19c0,.07,0,.13,0,.19a2.14,2.14,0,0,0,2.13,2h1V123a1.11,1.11,0,0,0,0,.19,2.14,2.14,0,0,0,2.12,2h.91a12.26,12.26,0,0,0-.65-1.31h0l-.71-1.22a2,2,0,0,1-.7.13Z" style="fill:url(#Degradado_sin_nombre_59-64)"/><path d="M13.09,151.91H10.81c-.44,0-.71.67-.49,1.21L11.46,156l1.14,2.83c.22.54.76.54,1,0L14.73,156l1.14-2.83c.22-.54-.06-1.21-.49-1.21Z" style="fill:#fcedb6"/><path d="M4.72,149.47H2.44c-.44,0-.71.67-.5,1.21l1.15,2.83,1.14,2.83c.22.54.76.54,1,0l1.14-2.83,1.15-2.83c.21-.54-.06-1.21-.5-1.21Z" style="fill:#fcedb6"/><path d="M94.24,143.06h1.91c.37,0,.59.57.41,1l-1,2.37-.95,2.37c-.19.46-.64.46-.83,0l-.95-2.37-1-2.37c-.18-.45,0-1,.41-1Z" style="fill:#fcedb6"/><path d="M104,134.89h0a8.43,8.43,0,0,1-8.41-8.4V90.92a8.43,8.43,0,0,1,8.41-8.4h0a8.43,8.43,0,0,1,8.41,8.4v35.57A8.43,8.43,0,0,1,104,134.89Z" style="fill:#fe9d23"/><path d="M93.2,88.94a11,11,0,0,1,21.66,0Z" style="fill:url(#Degradado_sin_nombre_60-3)"/><path d="M102.44,80.37c0,.06,0,.13,0,.19h0Z" style="fill:url(#Degradado_sin_nombre_59-65)"/><path d="M111.84,85.63c0,.06,0,.13,0,.19h0Z" style="fill:url(#Degradado_sin_nombre_59-66)"/><path d="M108.71,85.63a1.23,1.23,0,0,0,0,.19h0A1.23,1.23,0,0,0,108.71,85.63Z" style="fill:url(#Degradado_sin_nombre_59-67)"/><path d="M108.71,80.37a1.23,1.23,0,0,0,0,.19h0A1.23,1.23,0,0,0,108.71,80.37Z" style="fill:url(#Degradado_sin_nombre_59-68)"/><path d="M96.18,90.89v.19h0A1.23,1.23,0,0,0,96.18,90.89Z" style="fill:url(#Degradado_sin_nombre_59-69)"/><path d="M102.44,96.15c0,.06,0,.13,0,.19h0Z" style="fill:url(#Degradado_sin_nombre_59-70)"/><path d="M96.18,96.15v.19h0A1.23,1.23,0,0,0,96.18,96.15Z" style="fill:url(#Degradado_sin_nombre_59-71)"/><path d="M108.71,96.15a1.23,1.23,0,0,0,0,.19h0A1.23,1.23,0,0,0,108.71,96.15Z" style="fill:url(#Degradado_sin_nombre_59-72)"/><path d="M111.84,96.15c0,.06,0,.13,0,.19h0Z" style="fill:url(#Degradado_sin_nombre_59-73)"/><path d="M115,96.15a1.23,1.23,0,0,0,0,.19h0Z" style="fill:url(#Degradado_sin_nombre_59-74)"/><path d="M108.71,101.41a1.23,1.23,0,0,0,0,.19h0A1.23,1.23,0,0,0,108.71,101.41Z" style="fill:url(#Degradado_sin_nombre_59-75)"/><path d="M102.44,85.63c0,.06,0,.13,0,.19h0Z" style="fill:url(#Degradado_sin_nombre_59-76)"/><path d="M102.44,101.41c0,.06,0,.13,0,.19h0Z" style="fill:url(#Degradado_sin_nombre_59-77)"/><path d="M99.29,91.08a1.23,1.23,0,0,0,0-.19c0,.06,0,.13,0,.19h0Z" style="fill:url(#Degradado_sin_nombre_59-78)"/><path d="M99.29,96.34a1.23,1.23,0,0,0,0-.19c0,.06,0,.13,0,.19h0Z" style="fill:url(#Degradado_sin_nombre_59-79)"/><path d="M99.29,101.6a1.23,1.23,0,0,0,0-.19c0,.06,0,.13,0,.19h0Z" style="fill:url(#Degradado_sin_nombre_59-80)"/><path d="M115,90.89a1.23,1.23,0,0,0,0,.19h0Z" style="fill:url(#Degradado_sin_nombre_59-81)"/><path d="M108.71,90.89a1.23,1.23,0,0,0,0,.19h0A1.23,1.23,0,0,0,108.71,90.89Z" style="fill:url(#Degradado_sin_nombre_59-82)"/><path d="M111.84,90.89c0,.06,0,.13,0,.19h0Z" style="fill:url(#Degradado_sin_nombre_59-83)"/><path d="M99.29,85.82a1.23,1.23,0,0,0,0-.19c0,.06,0,.13,0,.19h0Z" style="fill:url(#Degradado_sin_nombre_59-84)"/><path d="M96.18,85.63v.19h0A1.23,1.23,0,0,0,96.18,85.63Z" style="fill:url(#Degradado_sin_nombre_59-85)"/><path d="M102.44,90.89c0,.06,0,.13,0,.19h0Z" style="fill:url(#Degradado_sin_nombre_59-86)"/><path d="M115,96.34a1.27,1.27,0,0,0,0,.28l0,.15v-.43Z" style="fill:url(#Degradado_sin_nombre_59-87)"/><path d="M93.05,93.74a2.15,2.15,0,0,0,2.14,2.15h2a2.15,2.15,0,0,0,2.14-2.15v2.15h1a2.15,2.15,0,0,0,2.14-2.15,2.16,2.16,0,0,0,2.15,2.15h1V93.74a2.15,2.15,0,0,0,2.14,2.15h2a2.15,2.15,0,0,0,2.14-2.15A2.16,2.16,0,0,0,114,95.89h1V93.74a2.11,2.11,0,0,0,.52,1.39,10.75,10.75,0,0,1-.47,1.49,1.27,1.27,0,0,1,0-.28,1.23,1.23,0,0,1,0-.19v.62a14.21,14.21,0,0,1-.74,1.52H114a2.14,2.14,0,0,1-2.13-2c0-.06,0-.13,0-.19v2.14h-1a2.14,2.14,0,0,1-2.12-2,1.23,1.23,0,0,1,0-.19,1.23,1.23,0,0,1,0,.19,2.14,2.14,0,0,1-2.12,2h-2a2.15,2.15,0,0,1-2.13-2c0-.06,0-.13,0-.19v2.14h-1a2.14,2.14,0,0,1-2.12-2c0-.06,0-.13,0-.19a1.23,1.23,0,0,1,0,.19,2.14,2.14,0,0,1-2.12,2h-1V96.15a1.23,1.23,0,0,1,0,.19,2.14,2.14,0,0,1-2.12,2h-.25a12.52,12.52,0,0,1-1.06-2.4h.32Z" style="fill:url(#Degradado_sin_nombre_59-88)"/><path d="M94,93a2.14,2.14,0,0,0,2.12-2h0v2h1a2.14,2.14,0,0,0,2.12-2h0a2.14,2.14,0,0,0,2.12,2h1v-2h0a2.15,2.15,0,0,0,2.13,2h2a2.14,2.14,0,0,0,2.12-2h0a2.14,2.14,0,0,0,2.12,2h1v-2h0A2.14,2.14,0,0,0,114,93h1v-2h0a2.13,2.13,0,0,0,.84,1.52,11.25,11.25,0,0,1-.34,2.53,2.11,2.11,0,0,1-.52-1.39v2.15h-1a2.16,2.16,0,0,1-2.15-2.15,2.15,2.15,0,0,1-2.14,2.15h-2a2.15,2.15,0,0,1-2.14-2.15v2.15h-1a2.16,2.16,0,0,1-2.15-2.15,2.15,2.15,0,0,1-2.14,2.15h-1V93.74a2.15,2.15,0,0,1-2.14,2.15h-2a2.15,2.15,0,0,1-2.14-2.15v2.15h-.32A11.94,11.94,0,0,1,92.2,93H94Z" style="fill:url(#Degradado_sin_nombre_59-89)"/><path d="M93.05,88.48a2.15,2.15,0,0,0,2.14,2.15h2a2.15,2.15,0,0,0,2.14-2.15v2.15h1a2.15,2.15,0,0,0,2.14-2.15,2.16,2.16,0,0,0,2.15,2.15h1V88.48a2.15,2.15,0,0,0,2.14,2.15h2a2.15,2.15,0,0,0,2.14-2.15A2.16,2.16,0,0,0,114,90.63h1V88.48A2.11,2.11,0,0,0,115.6,90a11.53,11.53,0,0,1,.24,2.61,2.13,2.13,0,0,1-.84-1.52,1.23,1.23,0,0,1,0-.19V93h-1a2.14,2.14,0,0,1-2.13-2c0-.06,0-.13,0-.19V93h-1a2.14,2.14,0,0,1-2.12-2,1.23,1.23,0,0,1,0-.19,1.23,1.23,0,0,1,0,.19,2.14,2.14,0,0,1-2.12,2h-2a2.15,2.15,0,0,1-2.13-2c0-.06,0-.13,0-.19V93h-1a2.14,2.14,0,0,1-2.12-2c0-.06,0-.13,0-.19a1.23,1.23,0,0,1,0,.19,2.14,2.14,0,0,1-2.12,2h-1V90.89a1.23,1.23,0,0,1,0,.19A2.14,2.14,0,0,1,94,93H92.2a11.39,11.39,0,0,1,.11-2.4h.74Z" style="fill:url(#Degradado_sin_nombre_59-90)"/><path d="M96.16,85.82h0v2h1a2.14,2.14,0,0,0,2.12-2h0a2.14,2.14,0,0,0,2.12,2h1v-2h0a2.15,2.15,0,0,0,2.13,2h2a2.14,2.14,0,0,0,2.12-2h0a2.14,2.14,0,0,0,2.12,2h1v-2h0a2.14,2.14,0,0,0,2.13,2h.91a12.14,12.14,0,0,1,.7,2.22,2.11,2.11,0,0,1-.62-1.51v2.15h-1a2.16,2.16,0,0,1-2.15-2.15,2.15,2.15,0,0,1-2.14,2.15h-2a2.15,2.15,0,0,1-2.14-2.15v2.15h-1a2.16,2.16,0,0,1-2.15-2.15,2.15,2.15,0,0,1-2.14,2.15h-1V88.48a2.15,2.15,0,0,1-2.14,2.15h-2a2.15,2.15,0,0,1-2.14-2.15v2.15h-.74a12,12,0,0,1,.81-2.86H94A2.14,2.14,0,0,0,96.16,85.82Z" style="fill:url(#Degradado_sin_nombre_59-91)"/><path d="M96.18,85.37h1a2.15,2.15,0,0,0,2.14-2.14v2.14h1a2.15,2.15,0,0,0,2.14-2.14,2.16,2.16,0,0,0,2.15,2.14h1V83.23a2.15,2.15,0,0,0,2.14,2.14h2a2.15,2.15,0,0,0,2.14-2.14,2.15,2.15,0,0,0,1.75,2.1l.66,1.13h0a12.26,12.26,0,0,1,.65,1.31H114a2.14,2.14,0,0,1-2.13-2c0-.06,0-.13,0-.19v2.14h-1a2.14,2.14,0,0,1-2.12-2,1.23,1.23,0,0,1,0-.19,1.23,1.23,0,0,1,0,.19,2.14,2.14,0,0,1-2.12,2h-2a2.15,2.15,0,0,1-2.13-2c0-.06,0-.13,0-.19v2.14h-1a2.14,2.14,0,0,1-2.12-2c0-.06,0-.13,0-.19a1.23,1.23,0,0,1,0,.19,2.14,2.14,0,0,1-2.12,2h-1V85.63a1.23,1.23,0,0,1,0,.19,2.14,2.14,0,0,1-2.12,2h-.92a12.36,12.36,0,0,1,.66-1.31h0l.7-1.22a2.08,2.08,0,0,0,.71.13Z" style="fill:url(#Degradado_sin_nombre_59-92)"/><path d="M108.71,80.37a1.23,1.23,0,0,0,0,.19h0A1.23,1.23,0,0,0,108.71,80.37Z" style="fill:url(#Degradado_sin_nombre_59-93)"/><path d="M114.46,78.69a1.23,1.23,0,0,0,0,.19h0C114.44,78.82,114.46,78.75,114.46,78.69Z" style="fill:url(#Degradado_sin_nombre_59-94)"/><path d="M92.31,90.63a12,12,0,0,1,.81-2.86,12.36,12.36,0,0,1,.66-1.31l.7-1.22h0A11,11,0,0,1,104,79.66a11,11,0,0,0-3.72,3.9h0l-.71,1.21a13.41,13.41,0,0,0-.65,1.32A11.57,11.57,0,0,0,98.06,89a11.39,11.39,0,0,0-.11,2.4,12,12,0,0,0,.53,2.86,11.89,11.89,0,0,0,1,2.4h.25a2.12,2.12,0,0,0,1.59-.73V124.8a8.43,8.43,0,0,0,7.72,8.38,8.34,8.34,0,0,1-5.06,1.71,8.43,8.43,0,0,1-8.41-8.4V97.57a2.1,2.1,0,0,1-1.58.72h-.25a12.52,12.52,0,0,1-1.06-2.4A11.94,11.94,0,0,1,92.2,93,11.39,11.39,0,0,1,92.31,90.63Z" style="fill:#bf630c;opacity:0.67;mix-blend-mode:multiply"/><path d="M109.76,154.75h0a4.63,4.63,0,0,1-4.62-4.61V133.6a4.63,4.63,0,0,1,4.62-4.62h0a4.63,4.63,0,0,1,4.62,4.62v16.54A4.63,4.63,0,0,1,109.76,154.75Z" style="fill:url(#Degradado_sin_nombre_59-95)"/><path d="M108.55,141.8a4.63,4.63,0,0,1,4.62-4.62,4.84,4.84,0,0,1,1.21.17V133.6a4.62,4.62,0,1,0-9.24,0v16.54a4.63,4.63,0,0,0,3.41,4.45Z" style="fill:#bf630c;opacity:0.67;mix-blend-mode:multiply"/><path d="M101.64,157.19h0A4.63,4.63,0,0,1,97,152.57V136a4.63,4.63,0,0,1,4.62-4.62h0a4.63,4.63,0,0,1,4.61,4.62v16.53A4.63,4.63,0,0,1,101.64,157.19Z" style="fill:url(#Degradado_sin_nombre_59-96)"/><path d="M98.72,144.62a4.61,4.61,0,0,1,7.53-3.57v-5A4.62,4.62,0,1,0,97,136v16.53a4.59,4.59,0,0,0,1.7,3.57Z" style="fill:#bf630c;opacity:0.67;mix-blend-mode:multiply"/><path d="M95.19,145.94h0a3.53,3.53,0,0,1-3.52-3.52V132.5A3.54,3.54,0,0,1,95.19,129h0a3.54,3.54,0,0,1,3.53,3.52v9.92A3.53,3.53,0,0,1,95.19,145.94Z" style="fill:url(#Degradado_sin_nombre_59-97)"/><path d="M95.19,129h0a3.54,3.54,0,0,0-3.52,3.52v.92a3,3,0,0,1,.43,0,3.53,3.53,0,0,1,3.52,3.52v9a3.53,3.53,0,0,0,3.1-3.49V132.5A3.54,3.54,0,0,0,95.19,129Z" style="fill:#bf630c;opacity:0.67;mix-blend-mode:multiply"/><rect x="93.74" y="120.28" width="20.83" height="17.4" rx="7.5" style="fill:url(#Degradado_sin_nombre_59-98)"/><path d="M114.28,131.41h-5.84a7.51,7.51,0,0,1-7.49-7.5v-2.4a8.25,8.25,0,0,1,.1-1.22,7.51,7.51,0,0,0-7.31,7.49v2.4a7.52,7.52,0,0,0,7.5,7.5h5.83a7.52,7.52,0,0,0,7.39-6.28Z" style="fill:#bf630c;opacity:0.67;mix-blend-mode:multiply"/><path d="M102.75,152.35H105c.43,0,.71.67.49,1.21l-1.14,2.83-1.15,2.83c-.21.54-.76.54-1,0l-1.14-2.83L100,153.56c-.22-.54,0-1.21.49-1.21Z" style="fill:#fcedb6"/><path d="M111.13,149.91h2.28c.44,0,.71.67.49,1.21L112.76,154l-1.14,2.83c-.22.55-.77.55-1,0L109.49,154l-1.14-2.83c-.22-.54.05-1.21.49-1.21Z" style="fill:#fcedb6"/><path d="M93.2,127.3a11,11,0,0,1,21.66,0Z" style="fill:url(#Degradado_sin_nombre_60-4)"/><path d="M102.44,118.73c0,.06,0,.13,0,.19h0Z" style="fill:url(#Degradado_sin_nombre_59-99)"/><path d="M111.84,124c0,.06,0,.13,0,.19h0Z" style="fill:url(#Degradado_sin_nombre_59-100)"/><path d="M108.71,124a1.23,1.23,0,0,0,0,.19h0A1.23,1.23,0,0,0,108.71,124Z" style="fill:url(#Degradado_sin_nombre_59-101)"/><path d="M108.71,118.73a1.23,1.23,0,0,0,0,.19h0A1.23,1.23,0,0,0,108.71,118.73Z" style="fill:url(#Degradado_sin_nombre_59-102)"/><path d="M96.18,129.25v.19h0A1.23,1.23,0,0,0,96.18,129.25Z" style="fill:url(#Degradado_sin_nombre_59-103)"/><path d="M102.44,134.51c0,.06,0,.13,0,.19h0Z" style="fill:url(#Degradado_sin_nombre_59-104)"/><path d="M96.18,134.51v.19h0A1.23,1.23,0,0,0,96.18,134.51Z" style="fill:url(#Degradado_sin_nombre_59-105)"/><path d="M108.71,134.51a1.23,1.23,0,0,0,0,.19h0A1.23,1.23,0,0,0,108.71,134.51Z" style="fill:url(#Degradado_sin_nombre_59-106)"/><path d="M111.84,134.51c0,.06,0,.13,0,.19h0Z" style="fill:url(#Degradado_sin_nombre_59-107)"/><path d="M115,134.51a1.23,1.23,0,0,0,0,.19h0Z" style="fill:url(#Degradado_sin_nombre_59-108)"/><path d="M108.71,139.77a1.37,1.37,0,0,0,0,.19h0A1.37,1.37,0,0,0,108.71,139.77Z" style="fill:url(#Degradado_sin_nombre_59-109)"/><path d="M102.44,124c0,.06,0,.13,0,.19h0Z" style="fill:url(#Degradado_sin_nombre_59-110)"/><path d="M102.44,139.77c0,.06,0,.12,0,.19h0Z" style="fill:url(#Degradado_sin_nombre_59-111)"/><path d="M99.29,129.44a1.23,1.23,0,0,0,0-.19c0,.06,0,.13,0,.19h0Z" style="fill:url(#Degradado_sin_nombre_59-112)"/><path d="M99.29,134.7a1.23,1.23,0,0,0,0-.19c0,.06,0,.13,0,.19h0Z" style="fill:url(#Degradado_sin_nombre_59-113)"/><path d="M99.29,140a1.37,1.37,0,0,0,0-.19c0,.06,0,.12,0,.19h0Z" style="fill:url(#Degradado_sin_nombre_59-114)"/><path d="M115,129.25a1.23,1.23,0,0,0,0,.19h0Z" style="fill:url(#Degradado_sin_nombre_59-115)"/><path d="M108.71,129.25a1.23,1.23,0,0,0,0,.19h0A1.23,1.23,0,0,0,108.71,129.25Z" style="fill:url(#Degradado_sin_nombre_59-116)"/><path d="M111.84,129.25c0,.06,0,.13,0,.19h0Z" style="fill:url(#Degradado_sin_nombre_59-117)"/><path d="M99.29,124.18a1.23,1.23,0,0,0,0-.19c0,.06,0,.13,0,.19h0Z" style="fill:url(#Degradado_sin_nombre_59-118)"/><path d="M96.18,124v.19h0A1.23,1.23,0,0,0,96.18,124Z" style="fill:url(#Degradado_sin_nombre_59-119)"/><path d="M102.44,129.25c0,.06,0,.13,0,.19h0Z" style="fill:url(#Degradado_sin_nombre_59-120)"/><path d="M115,134.7a1.27,1.27,0,0,0,0,.28c0,.05,0,.1,0,.15v-.43Z" style="fill:url(#Degradado_sin_nombre_59-121)"/><path d="M93.05,132.1a2.15,2.15,0,0,0,2.14,2.15h2a2.15,2.15,0,0,0,2.14-2.15v2.15h1a2.15,2.15,0,0,0,2.14-2.15,2.16,2.16,0,0,0,2.15,2.15h1V132.1a2.15,2.15,0,0,0,2.14,2.15h2a2.15,2.15,0,0,0,2.14-2.15,2.16,2.16,0,0,0,2.15,2.15h1V132.1a2.11,2.11,0,0,0,.52,1.39A10.75,10.75,0,0,1,115,135a1.27,1.27,0,0,1,0-.28,1.23,1.23,0,0,1,0-.19v.62a14.21,14.21,0,0,1-.74,1.52H114a2.14,2.14,0,0,1-2.13-2c0-.06,0-.13,0-.19v2.14h-1a2.14,2.14,0,0,1-2.12-2,1.23,1.23,0,0,1,0-.19,1.23,1.23,0,0,1,0,.19,2.14,2.14,0,0,1-2.12,2h-2a2.15,2.15,0,0,1-2.13-2c0-.06,0-.13,0-.19v2.14h-1a2.14,2.14,0,0,1-2.12-2c0-.06,0-.13,0-.19a1.23,1.23,0,0,1,0,.19,2.14,2.14,0,0,1-2.12,2h-1v-2.14a1.23,1.23,0,0,1,0,.19,2.14,2.14,0,0,1-2.12,2h-.25a12.52,12.52,0,0,1-1.06-2.4h.32Z" style="fill:url(#Degradado_sin_nombre_59-122)"/><path d="M94,131.39a2.14,2.14,0,0,0,2.12-1.95h0v1.95h1a2.14,2.14,0,0,0,2.12-1.95h0a2.14,2.14,0,0,0,2.12,1.95h1v-1.95h0a2.15,2.15,0,0,0,2.13,1.95h2a2.14,2.14,0,0,0,2.12-1.95h0a2.14,2.14,0,0,0,2.12,1.95h1v-1.95h0a2.14,2.14,0,0,0,2.13,1.95h1v-1.95h0a2.13,2.13,0,0,0,.84,1.52,11.25,11.25,0,0,1-.34,2.53,2.11,2.11,0,0,1-.52-1.39v2.15h-1a2.16,2.16,0,0,1-2.15-2.15,2.15,2.15,0,0,1-2.14,2.15h-2a2.15,2.15,0,0,1-2.14-2.15v2.15h-1a2.16,2.16,0,0,1-2.15-2.15,2.15,2.15,0,0,1-2.14,2.15h-1V132.1a2.15,2.15,0,0,1-2.14,2.15h-2a2.15,2.15,0,0,1-2.14-2.15v2.15h-.32a11.94,11.94,0,0,1-.53-2.86H94Z" style="fill:url(#Degradado_sin_nombre_59-123)"/><path d="M93.05,126.84A2.15,2.15,0,0,0,95.19,129h2a2.15,2.15,0,0,0,2.14-2.15V129h1a2.15,2.15,0,0,0,2.14-2.15,2.16,2.16,0,0,0,2.15,2.15h1v-2.15a2.15,2.15,0,0,0,2.14,2.15h2a2.15,2.15,0,0,0,2.14-2.15A2.16,2.16,0,0,0,114,129h1v-2.15a2.11,2.11,0,0,0,.62,1.51,11.53,11.53,0,0,1,.24,2.61,2.13,2.13,0,0,1-.84-1.52,1.23,1.23,0,0,1,0-.19v2.14h-1a2.14,2.14,0,0,1-2.13-1.95c0-.06,0-.13,0-.19v2.14h-1a2.14,2.14,0,0,1-2.12-1.95,1.23,1.23,0,0,1,0-.19,1.23,1.23,0,0,1,0,.19,2.14,2.14,0,0,1-2.12,1.95h-2a2.15,2.15,0,0,1-2.13-1.95c0-.06,0-.13,0-.19v2.14h-1a2.14,2.14,0,0,1-2.12-1.95c0-.06,0-.13,0-.19a1.23,1.23,0,0,1,0,.19,2.14,2.14,0,0,1-2.12,1.95h-1v-2.14a1.23,1.23,0,0,1,0,.19A2.14,2.14,0,0,1,94,131.39H92.2a11.39,11.39,0,0,1,.11-2.4h.74Z" style="fill:url(#Degradado_sin_nombre_59-124)"/><path d="M96.16,124.18h0v1.95h1a2.14,2.14,0,0,0,2.12-1.95h0a2.14,2.14,0,0,0,2.12,1.95h1v-1.95h0a2.15,2.15,0,0,0,2.13,1.95h2a2.14,2.14,0,0,0,2.12-1.95h0a2.14,2.14,0,0,0,2.12,1.95h1v-1.95h0a2.14,2.14,0,0,0,2.13,1.95h.91a12.14,12.14,0,0,1,.7,2.22,2.11,2.11,0,0,1-.62-1.51V129h-1a2.16,2.16,0,0,1-2.15-2.15A2.15,2.15,0,0,1,109.7,129h-2a2.15,2.15,0,0,1-2.14-2.15V129h-1a2.16,2.16,0,0,1-2.15-2.15A2.15,2.15,0,0,1,100.3,129h-1v-2.15A2.15,2.15,0,0,1,97.17,129h-2a2.15,2.15,0,0,1-2.14-2.15V129h-.74a12,12,0,0,1,.81-2.86H94A2.14,2.14,0,0,0,96.16,124.18Z" style="fill:url(#Degradado_sin_nombre_59-125)"/><path d="M96.18,123.73h1a2.15,2.15,0,0,0,2.14-2.15v2.15h1a2.15,2.15,0,0,0,2.14-2.15,2.16,2.16,0,0,0,2.15,2.15h1v-2.15a2.15,2.15,0,0,0,2.14,2.15h2a2.15,2.15,0,0,0,2.14-2.15,2.16,2.16,0,0,0,1.75,2.11l.66,1.13h0a12.26,12.26,0,0,1,.65,1.31H114a2.14,2.14,0,0,1-2.13-1.95c0-.06,0-.13,0-.19v2.14h-1a2.14,2.14,0,0,1-2.12-1.95,1.23,1.23,0,0,1,0-.19,1.23,1.23,0,0,1,0,.19,2.14,2.14,0,0,1-2.12,1.95h-2a2.15,2.15,0,0,1-2.13-1.95c0-.06,0-.13,0-.19v2.14h-1a2.14,2.14,0,0,1-2.12-1.95c0-.06,0-.13,0-.19a1.23,1.23,0,0,1,0,.19,2.14,2.14,0,0,1-2.12,1.95h-1V124a1.23,1.23,0,0,1,0,.19A2.14,2.14,0,0,1,94,126.13h-.92a12.36,12.36,0,0,1,.66-1.31h0l.7-1.22a2.08,2.08,0,0,0,.71.13Z" style="fill:url(#Degradado_sin_nombre_59-126)"/><path d="M73.74,67.45c0-.22-.07-.42-.07-.64,0,.22,0,.42-.07.64h.14Z" style="fill:url(#Degradado_sin_nombre_59-127)"/><path d="M63.24,66.81c0,.22-.05.42-.07.64h.07Z" style="fill:url(#Degradado_sin_nombre_59-128)"/><path d="M31.94,84.32c0,.22-.05.43-.07.65h.07Z" style="fill:url(#Degradado_sin_nombre_59-129)"/><path d="M63.24,49.29c0,.22-.05.43-.07.64h.07Z" style="fill:url(#Degradado_sin_nombre_59-130)"/><path d="M42.37,84.32c0,.22,0,.43-.06.65h.13C42.42,84.75,42.37,84.54,42.37,84.32Z" style="fill:url(#Degradado_sin_nombre_59-131)"/><path d="M42.37,66.81c0,.22,0,.42-.06.64h.13C42.42,67.23,42.37,67,42.37,66.81Z" style="fill:url(#Degradado_sin_nombre_59-132)"/><path d="M84.1,101.84v.64h.07C84.15,102.27,84.1,102.06,84.1,101.84Z" style="fill:url(#Degradado_sin_nombre_59-133)"/><path d="M63.24,119.36c0,.22-.05.42-.07.64h.07Z" style="fill:url(#Degradado_sin_nombre_59-134)"/><path d="M84.1,119.36V120h.07C84.15,119.78,84.1,119.58,84.1,119.36Z" style="fill:url(#Degradado_sin_nombre_59-135)"/><path d="M42.37,119.36c0,.22,0,.42-.06.64h.13C42.42,119.78,42.37,119.58,42.37,119.36Z" style="fill:url(#Degradado_sin_nombre_59-136)"/><path d="M31.94,119.36c0,.22-.05.42-.07.64h.07Z" style="fill:url(#Degradado_sin_nombre_59-137)"/><path d="M21.5,119.36c0,.22,0,.42-.06.64h.06Z" style="fill:url(#Degradado_sin_nombre_59-138)"/><path d="M42.37,136.87c0,.22,0,.43-.06.64h.13C42.42,137.3,42.37,137.09,42.37,136.87Z" style="fill:url(#Degradado_sin_nombre_59-139)"/><path d="M63.24,84.32c0,.22-.05.43-.07.65h.07Z" style="fill:url(#Degradado_sin_nombre_59-140)"/><path d="M63.24,136.87c0,.22-.05.43-.07.64h.07Z" style="fill:url(#Degradado_sin_nombre_59-141)"/><path d="M73.74,102.48c0-.21-.07-.42-.07-.64,0,.22,0,.43-.07.64h.14Z" style="fill:url(#Degradado_sin_nombre_59-142)"/><path d="M73.74,120c0-.22-.07-.42-.07-.64,0,.22,0,.42-.07.64h.14Z" style="fill:url(#Degradado_sin_nombre_59-143)"/><path d="M73.74,137.51c0-.21-.07-.42-.07-.64,0,.22,0,.43-.07.64h.14Z" style="fill:url(#Degradado_sin_nombre_59-144)"/><path d="M21.5,101.84c0,.22,0,.43-.06.64h.06Z" style="fill:url(#Degradado_sin_nombre_59-145)"/><path d="M42.37,101.84c0,.22,0,.43-.06.64h.13C42.42,102.27,42.37,102.06,42.37,101.84Z" style="fill:url(#Degradado_sin_nombre_59-146)"/><path d="M31.94,101.84c0,.22-.05.43-.07.64h.07Z" style="fill:url(#Degradado_sin_nombre_59-147)"/><path d="M73.74,85c0-.22-.07-.43-.07-.65,0,.22,0,.43-.07.65h.14Z" style="fill:url(#Degradado_sin_nombre_59-148)"/><path d="M84.1,84.32V85h.07C84.15,84.75,84.1,84.54,84.1,84.32Z" style="fill:url(#Degradado_sin_nombre_59-149)"/><path d="M63.24,101.84c0,.22-.05.43-.07.64h.07Z" style="fill:url(#Degradado_sin_nombre_59-150)"/><path d="M73.74,137.51H73.6a7.13,7.13,0,0,1-7.07,6.5H63.24v-6.5h-.07A7.13,7.13,0,0,1,56.1,144H49.51a7.13,7.13,0,0,1-7.07-6.5h-.13a7.17,7.17,0,0,1-2.06,4.43A39.15,39.15,0,0,0,58,146.12h0a39.22,39.22,0,0,0,17.78-4.18A7.07,7.07,0,0,1,73.74,137.51Z" style="fill:url(#Degradado_sin_nombre_59-151)"/><path d="M80.81,136a7.16,7.16,0,0,1-7.14-7.13V136h-3.3a7.15,7.15,0,0,1-7.13-7.13A7.16,7.16,0,0,1,56.1,136H52.8v-7.13A7.15,7.15,0,0,1,45.67,136h-6.6a7.15,7.15,0,0,1-7.13-7.13,7.1,7.1,0,0,1-2.28,5.19,38.86,38.86,0,0,0,10.59,7.88,7.17,7.17,0,0,0,2.06-4.43c0-.21.06-.42.06-.64,0,.22.05.43.07.64a7.13,7.13,0,0,0,7.07,6.5H56.1a7.13,7.13,0,0,0,7.07-6.5c0-.21.07-.42.07-.64V144h3.29a7.13,7.13,0,0,0,7.07-6.5c0-.21.07-.42.07-.64,0,.22,0,.43.07.64a7.07,7.07,0,0,0,2.06,4.43A38.74,38.74,0,0,0,84.4,136H80.81Z" style="fill:url(#Degradado_sin_nombre_59-152)"/><path d="M21.44,120a7.18,7.18,0,0,1-.13.93c.07.17.13.34.19.5V120Z" style="fill:url(#Degradado_sin_nombre_59-153)"/><path d="M84.17,120H84.1v6.49H80.81A7.13,7.13,0,0,1,73.74,120H73.6a7.13,7.13,0,0,1-7.07,6.49H63.24V120h-.07a7.13,7.13,0,0,1-7.07,6.49H49.51A7.13,7.13,0,0,1,42.44,120h-.13a7.14,7.14,0,0,1-7.08,6.49H31.94V120h-.07a7.13,7.13,0,0,1-7.07,6.49H24a39.17,39.17,0,0,0,5.69,7.57,7.1,7.1,0,0,0,2.28-5.19A7.15,7.15,0,0,0,39.07,136h6.6a7.15,7.15,0,0,0,7.13-7.13V136h3.3a7.16,7.16,0,0,0,7.14-7.13A7.15,7.15,0,0,0,70.37,136h3.3v-7.13A7.16,7.16,0,0,0,80.81,136H84.4a39.67,39.67,0,0,0,7.67-9.51h-.83A7.13,7.13,0,0,1,84.17,120Z" style="fill:url(#Degradado_sin_nombre_59-154)"/><path d="M94.54,111.35a7.16,7.16,0,0,1-7.14,7.14H80.81a7.16,7.16,0,0,1-7.14-7.14v7.14h-3.3a7.16,7.16,0,0,1-7.13-7.14,7.16,7.16,0,0,1-7.14,7.14H52.8v-7.14a7.16,7.16,0,0,1-7.13,7.14h-6.6a7.16,7.16,0,0,1-7.13-7.14,7.16,7.16,0,0,1-7.14,7.14H21.5v-7.14A7.06,7.06,0,0,1,19.75,116a40.07,40.07,0,0,0,1.56,5,7.18,7.18,0,0,0,.13-.93c0-.22.06-.42.06-.64v2.07A40.8,40.8,0,0,0,24,126.49h.83A7.13,7.13,0,0,0,31.87,120c0-.22.07-.42.07-.64v7.13h3.29A7.14,7.14,0,0,0,42.31,120c0-.22.06-.42.06-.64,0,.22.05.42.07.64a7.13,7.13,0,0,0,7.07,6.49H56.1A7.13,7.13,0,0,0,63.17,120c0-.22.07-.42.07-.64v7.13h3.29A7.13,7.13,0,0,0,73.6,120c0-.22.07-.42.07-.64,0,.22,0,.42.07.64a7.13,7.13,0,0,0,7.07,6.49H84.1v-7.13c0,.22.05.42.07.64a7.13,7.13,0,0,0,7.07,6.49h.83a39.37,39.37,0,0,0,3.52-8h-1Z" style="fill:url(#Degradado_sin_nombre_59-155)"/><path d="M91.24,109a7.14,7.14,0,0,1-7.07-6.5H84.1V109H80.81a7.14,7.14,0,0,1-7.07-6.5H73.6a7.14,7.14,0,0,1-7.07,6.5H63.24v-6.5h-.07A7.14,7.14,0,0,1,56.1,109H49.51a7.14,7.14,0,0,1-7.07-6.5h-.13a7.15,7.15,0,0,1-7.08,6.5H31.94v-6.5h-.07A7.14,7.14,0,0,1,24.8,109H21.5v-6.5h-.06a7.13,7.13,0,0,1-2.82,5A38.55,38.55,0,0,0,19.75,116a7.06,7.06,0,0,0,1.75-4.63v7.14h3.3a7.16,7.16,0,0,0,7.14-7.14,7.16,7.16,0,0,0,7.13,7.14h6.6a7.16,7.16,0,0,0,7.13-7.14v7.14h3.3a7.16,7.16,0,0,0,7.14-7.14,7.16,7.16,0,0,0,7.13,7.14h3.3v-7.14a7.16,7.16,0,0,0,7.14,7.14H87.4a7.16,7.16,0,0,0,7.14-7.14v7.14h1A39.14,39.14,0,0,0,97.35,109H91.24Z" style="fill:url(#Degradado_sin_nombre_59-156)"/><path d="M94.54,93.84A7.16,7.16,0,0,1,87.4,101H80.81a7.16,7.16,0,0,1-7.14-7.13V101h-3.3a7.15,7.15,0,0,1-7.13-7.13A7.16,7.16,0,0,1,56.1,101H52.8V93.84A7.15,7.15,0,0,1,45.67,101h-6.6a7.15,7.15,0,0,1-7.13-7.13A7.16,7.16,0,0,1,24.8,101H21.5V93.84a7.12,7.12,0,0,1-2.06,5,38.41,38.41,0,0,0-.82,8.69,7.13,7.13,0,0,0,2.82-5c0-.21.06-.42.06-.64V109h3.3a7.14,7.14,0,0,0,7.07-6.5c0-.21.07-.42.07-.64V109h3.29a7.15,7.15,0,0,0,7.08-6.5c0-.21.06-.42.06-.64,0,.22.05.43.07.64a7.14,7.14,0,0,0,7.07,6.5H56.1a7.14,7.14,0,0,0,7.07-6.5c0-.21.07-.42.07-.64V109h3.29a7.14,7.14,0,0,0,7.07-6.5c0-.21.07-.42.07-.64,0,.22,0,.43.07.64a7.14,7.14,0,0,0,7.07,6.5H84.1v-7.14c0,.22.05.43.07.64a7.14,7.14,0,0,0,7.07,6.5h6.11a38.53,38.53,0,0,0-.36-8H94.54Z" style="fill:url(#Degradado_sin_nombre_59-157)"/><path d="M84.17,85H84.1v6.49H80.81A7.13,7.13,0,0,1,73.74,85H73.6a7.13,7.13,0,0,1-7.07,6.49H63.24V85h-.07a7.13,7.13,0,0,1-7.07,6.49H49.51A7.13,7.13,0,0,1,42.44,85h-.13a7.14,7.14,0,0,1-7.08,6.49H31.94V85h-.07a7.13,7.13,0,0,1-7.07,6.49h-3a38.63,38.63,0,0,0-2.32,7.38,7.12,7.12,0,0,0,2.06-5V101h3.3a7.16,7.16,0,0,0,7.14-7.13A7.15,7.15,0,0,0,39.07,101h6.6a7.15,7.15,0,0,0,7.13-7.13V101h3.3a7.16,7.16,0,0,0,7.14-7.13A7.15,7.15,0,0,0,70.37,101h3.3V93.84A7.16,7.16,0,0,0,80.81,101H87.4a7.16,7.16,0,0,0,7.14-7.13V101H97a38.79,38.79,0,0,0-2.71-9.51h-3A7.13,7.13,0,0,1,84.17,85Z" style="fill:url(#Degradado_sin_nombre_59-158)"/><path d="M84.1,83.46H80.81a7.16,7.16,0,0,1-7.14-7.14v7.14h-3.3a7.16,7.16,0,0,1-7.13-7.14,7.16,7.16,0,0,1-7.14,7.14H52.8V76.32a7.16,7.16,0,0,1-7.13,7.14h-6.6a7.16,7.16,0,0,1-7.13-7.14,7.15,7.15,0,0,1-5.83,7l-2.17,3.76h0a39.66,39.66,0,0,0-2.18,4.38h3A7.13,7.13,0,0,0,31.87,85c0-.22.07-.43.07-.65v7.14h3.29A7.14,7.14,0,0,0,42.31,85c0-.22.06-.43.06-.65,0,.22.05.43.07.65a7.13,7.13,0,0,0,7.07,6.49H56.1A7.13,7.13,0,0,0,63.17,85c0-.22.07-.43.07-.65v7.14h3.29A7.13,7.13,0,0,0,73.6,85c0-.22.07-.43.07-.65,0,.22,0,.43.07.65a7.13,7.13,0,0,0,7.07,6.49H84.1V84.32c0,.22.05.43.07.65a7.13,7.13,0,0,0,7.07,6.49h3a41.4,41.4,0,0,0-2.17-4.38h0L89.76,83a6.87,6.87,0,0,1-2.36.44Z" style="fill:url(#Degradado_sin_nombre_59-159)"/><path d="M80.81,73.94a7.13,7.13,0,0,1-7.07-6.49H73.6a7.13,7.13,0,0,1-7.07,6.49H63.24V67.45h-.07a7.13,7.13,0,0,1-7.07,6.49H49.51a7.13,7.13,0,0,1-7.07-6.49h-.13a7.14,7.14,0,0,1-7.08,6.49H31.94v-.72l-5.83,10.1a7.15,7.15,0,0,0,5.83-7,7.16,7.16,0,0,0,7.13,7.14h6.6a7.16,7.16,0,0,0,7.13-7.14v7.14h3.3a7.16,7.16,0,0,0,7.14-7.14,7.16,7.16,0,0,0,7.13,7.14h3.3V76.32a7.16,7.16,0,0,0,7.14,7.14H87.4A6.87,6.87,0,0,0,89.76,83l-5.66-9.8v.72Z" style="fill:url(#Degradado_sin_nombre_59-160)"/><path d="M73.67,58.8v7.14h-3.3a7.16,7.16,0,0,1-7.13-7.14,7.16,7.16,0,0,1-7.14,7.14H52.8V58.8a7.16,7.16,0,0,1-7.13,7.14h-6.6a7,7,0,0,1-2.63-.52l-4.5,7.8v.72h3.29a7.14,7.14,0,0,0,7.08-6.49c0-.22.06-.42.06-.64,0,.22.05.42.07.64a7.13,7.13,0,0,0,7.07,6.49H56.1a7.13,7.13,0,0,0,7.07-6.49c0-.22.07-.42.07-.64v7.13h3.29a7.13,7.13,0,0,0,7.07-6.49c0-.22.07-.42.07-.64,0,.22,0,.42.07.64a7.13,7.13,0,0,0,7.07,6.49H84.1v-.72l-4.26-7.38A7.13,7.13,0,0,1,73.67,58.8Z" style="fill:url(#Degradado_sin_nombre_59-161)"/><path d="M66.53,56.43H63.24v-6.5h-.07a7.13,7.13,0,0,1-7.07,6.5H49.51a7.13,7.13,0,0,1-6-3.28l-4.1,7.1-3,5.17a7,7,0,0,0,2.63.52h6.6A7.16,7.16,0,0,0,52.8,58.8v7.14h3.3a7.16,7.16,0,0,0,7.14-7.14,7.16,7.16,0,0,0,7.13,7.14h3.3V58.8a7.13,7.13,0,0,0,6.17,7l-3.7-6.41-3.63-6.28A7.13,7.13,0,0,1,66.53,56.43Z" style="fill:url(#Degradado_sin_nombre_59-162)"/><path d="M43.53,53.15a7.13,7.13,0,0,0,6,3.28H56.1a7.13,7.13,0,0,0,7.07-6.5c0-.21.07-.42.07-.64v7.14h3.29a7.13,7.13,0,0,0,6-3.28L69,47.07a7.09,7.09,0,0,0-1.49,4.31V44.24h-3.3a7.16,7.16,0,0,0-7.14,7.14V44.24H53.79a7.16,7.16,0,0,0-7.14,7.14,7.11,7.11,0,0,0-.54-2.7Z" style="fill:url(#Degradado_sin_nombre_59-163)"/><path d="M94.28,91.46a40.09,40.09,0,0,0-1.91-3.9c0,.06-.06.12-.1.18a39.91,39.91,0,0,1-7.67,9.51A38.54,38.54,0,0,1,76,103.18a39,39,0,0,1-17.77,4.19h0A38.88,38.88,0,0,1,29.85,95.31a40.65,40.65,0,0,1-5.69-7.57l-.29-.54a42.08,42.08,0,0,0-2.11,4.26,38.42,38.42,0,0,0-2,24.52,40.07,40.07,0,0,0,1.56,5c.07.17.13.33.19.5A40.8,40.8,0,0,0,24,126.49,39,39,0,0,0,58,146.12h0a39.22,39.22,0,0,0,17.78-4.18A38.74,38.74,0,0,0,84.4,136a39.79,39.79,0,0,0,11.19-17.51A39.14,39.14,0,0,0,97.35,109a38.57,38.57,0,0,0-3.07-17.52Z" style="fill:#603206;opacity:0.67;mix-blend-mode:multiply"/><path d="M94.28,69a41.25,41.25,0,0,0-1.91-3.9c0,.06-.06.12-.1.18a39.91,39.91,0,0,1-7.67,9.51A38.78,38.78,0,0,1,58.22,84.89h0A38.77,38.77,0,0,1,29.85,72.83a40,40,0,0,1-5.69-7.57c-.1-.18-.19-.36-.29-.53A40.92,40.92,0,0,0,21.76,69a38.72,38.72,0,0,0-2.32,7.39,38,38,0,0,0,.31,17.13,40.76,40.76,0,0,0,1.56,5c.07.16.13.33.19.49A40.8,40.8,0,0,0,24,104,39,39,0,0,0,58,123.64h0A38.79,38.79,0,0,0,84.4,113.53,39.88,39.88,0,0,0,95.59,96a39.14,39.14,0,0,0,1.76-9.51A38.57,38.57,0,0,0,94.28,69Z" style="fill:#bf630c;opacity:0.67;mix-blend-mode:multiply"/><path d="M87.85,29.88a29.08,29.08,0,0,0,8.92-7.37,27.28,27.28,0,0,0,5-9.67,25.57,25.57,0,0,0,.76-10.2c-.06-.49-.14-1-.23-1.45a1.51,1.51,0,0,0-3,.08c-.08.41-.17.81-.27,1.21a20.42,20.42,0,0,1-3.59,7.4,18.55,18.55,0,0,1-5.75,4.92,16.85,16.85,0,0,1-6.5,2,7.35,7.35,0,0,0-6.65,7.73,7.18,7.18,0,0,0,7.77,6.59,7.27,7.27,0,0,0,2.76-.82Z" style="fill:#fcedb6"/><path d="M101.78,12.84a25.57,25.57,0,0,0,.76-10.2c-.06-.49-.14-1-.23-1.45A1.5,1.5,0,0,0,102,.54a26.31,26.31,0,0,1-1,6.87,27.2,27.2,0,0,1-5,9.67,29.16,29.16,0,0,1-8.91,7.37l-.75.41a7.18,7.18,0,0,1-9.56-2.72,6.91,6.91,0,0,0-.24,2.37,7.18,7.18,0,0,0,7.77,6.59,7.27,7.27,0,0,0,2.76-.82l.74-.4a29.08,29.08,0,0,0,8.92-7.37A27.28,27.28,0,0,0,101.78,12.84Z" style="fill:#fada81"/><ellipse cx="80.24" cy="25.73" rx="7.34" ry="16.06" transform="translate(-1.37 46.73) rotate(-32.21)" style="fill:#bf0f00"/><path d="M25.72,29.88a29.16,29.16,0,0,1-8.91-7.37,27.28,27.28,0,0,1-5-9.67A25.58,25.58,0,0,1,11,2.64c.06-.49.14-1,.23-1.45a1.52,1.52,0,0,1,3,.08c.08.41.17.81.27,1.21a20.4,20.4,0,0,0,3.58,7.4,18.55,18.55,0,0,0,5.75,4.92,16.89,16.89,0,0,0,6.51,2A7.35,7.35,0,0,1,37,24.51a7.18,7.18,0,0,1-7.77,6.59,7.27,7.27,0,0,1-2.76-.82Z" style="fill:#fcedb6"/><path d="M11.8,12.84A25.58,25.58,0,0,1,11,2.64c.06-.49.14-1,.23-1.45a1.4,1.4,0,0,1,.3-.65,25.88,25.88,0,0,0,1,6.87,27.36,27.36,0,0,0,5,9.67,29.2,29.2,0,0,0,8.92,7.37l.74.41a7.26,7.26,0,0,0,2.76.81,7.18,7.18,0,0,0,6.8-3.53A6.67,6.67,0,0,1,37,24.51a7.18,7.18,0,0,1-7.77,6.59,7.27,7.27,0,0,1-2.76-.82l-.74-.4a29.16,29.16,0,0,1-8.91-7.37A27.28,27.28,0,0,1,11.8,12.84Z" style="fill:#fada81"/><path d="M24.78,39.32c3.43,2.16,10-2.17,14.77-9.67s5.78-15.34,2.35-17.5-10,2.17-14.77,9.67S21.35,37.16,24.78,39.32Z" style="fill:#bf0f00"/><path d="M75,29.28c0-.23-.07-.46-.07-.69,0,.23-.05.46-.07.69H75Z" style="fill:url(#Degradado_sin_nombre_59-164)"/><path d="M63.66,28.59c0,.23,0,.46-.07.69h.07Z" style="fill:url(#Degradado_sin_nombre_59-165)"/><path d="M29.84,47.51c0,.24-.05.47-.07.7h.07Z" style="fill:url(#Degradado_sin_nombre_59-166)"/><path d="M63.66,9.66c0,.24,0,.46-.07.69h.07Z" style="fill:url(#Degradado_sin_nombre_59-167)"/><path d="M41.11,47.51c0,.24,0,.47-.07.7h.14C41.16,48,41.11,47.75,41.11,47.51Z" style="fill:url(#Degradado_sin_nombre_59-168)"/><path d="M41.11,28.59c0,.23,0,.46-.07.69h.14C41.16,29.05,41.11,28.82,41.11,28.59Z" style="fill:url(#Degradado_sin_nombre_59-169)"/><path d="M86.21,66.44v.69h.07A5.2,5.2,0,0,1,86.21,66.44Z" style="fill:url(#Degradado_sin_nombre_59-170)"/><path d="M63.66,85.37c0,.24,0,.46-.07.69h.07Z" style="fill:url(#Degradado_sin_nombre_59-171)"/><path d="M86.21,85.37v.69h.07A5.2,5.2,0,0,1,86.21,85.37Z" style="fill:url(#Degradado_sin_nombre_59-172)"/><path d="M41.11,85.37c0,.24,0,.46-.07.69h.14C41.16,85.83,41.11,85.61,41.11,85.37Z" style="fill:url(#Degradado_sin_nombre_59-173)"/><path d="M29.84,85.37c0,.24-.05.46-.07.69h.07Z" style="fill:url(#Degradado_sin_nombre_59-174)"/><path d="M18.56,85.37c0,.24,0,.46-.07.69h.07Z" style="fill:url(#Degradado_sin_nombre_59-175)"/><path d="M41.11,104.3c0,.23,0,.46-.07.69h.14C41.16,104.76,41.11,104.53,41.11,104.3Z" style="fill:url(#Degradado_sin_nombre_59-176)"/><path d="M63.66,47.51c0,.24,0,.47-.07.7h.07Z" style="fill:url(#Degradado_sin_nombre_59-177)"/><path d="M63.66,104.3c0,.23,0,.46-.07.69h.07Z" style="fill:url(#Degradado_sin_nombre_59-178)"/><path d="M75,67.13c0-.23-.07-.45-.07-.69,0,.24-.05.46-.07.69H75Z" style="fill:url(#Degradado_sin_nombre_59-179)"/><path d="M75,86.06c0-.23-.07-.45-.07-.69,0,.24-.05.46-.07.69H75Z" style="fill:url(#Degradado_sin_nombre_59-180)"/><path d="M75,105c0-.23-.07-.46-.07-.69,0,.23-.05.46-.07.69H75Z" style="fill:url(#Degradado_sin_nombre_59-181)"/><path d="M18.56,66.44c0,.24,0,.46-.07.69h.07Z" style="fill:url(#Degradado_sin_nombre_59-182)"/><path d="M41.11,66.44c0,.24,0,.46-.07.69h.14C41.16,66.9,41.11,66.68,41.11,66.44Z" style="fill:url(#Degradado_sin_nombre_59-183)"/><path d="M29.84,66.44c0,.24-.05.46-.07.69h.07Z" style="fill:url(#Degradado_sin_nombre_59-184)"/><path d="M75,48.21c0-.23-.07-.46-.07-.7,0,.24-.05.47-.07.7H75Z" style="fill:url(#Degradado_sin_nombre_59-185)"/><path d="M86.21,47.51v.7h.07A5.35,5.35,0,0,1,86.21,47.51Z" style="fill:url(#Degradado_sin_nombre_59-186)"/><path d="M63.66,66.44c0,.24,0,.46-.07.69h.07Z" style="fill:url(#Degradado_sin_nombre_59-187)"/><path d="M75,105h-.14a7.72,7.72,0,0,1-7.64,7H63.66v-7h-.07A7.72,7.72,0,0,1,56,112H48.82a7.72,7.72,0,0,1-7.64-7H41a7.68,7.68,0,0,1-2.23,4.78A42.4,42.4,0,0,0,58,114.29h0a42.4,42.4,0,0,0,19.21-4.52A7.68,7.68,0,0,1,75,105Z" style="fill:url(#Degradado_sin_nombre_59-188)"/><path d="M82.64,103.36a7.73,7.73,0,0,1-7.71-7.71v7.71H71.37a7.73,7.73,0,0,1-7.71-7.71A7.73,7.73,0,0,1,56,103.36H52.38V95.65a7.73,7.73,0,0,1-7.71,7.71H37.55a7.73,7.73,0,0,1-7.71-7.71,7.67,7.67,0,0,1-2.47,5.61,42.3,42.3,0,0,0,11.44,8.51A7.68,7.68,0,0,0,41,105c0-.23.07-.46.07-.69,0,.23,0,.46.07.69a7.72,7.72,0,0,0,7.64,7H56a7.72,7.72,0,0,0,7.64-7c0-.23.07-.46.07-.69V112h3.56a7.72,7.72,0,0,0,7.64-7c0-.23.07-.46.07-.69,0,.23,0,.46.07.69a7.68,7.68,0,0,0,2.23,4.78,42.14,42.14,0,0,0,9.3-6.41H82.64Z" style="fill:url(#Degradado_sin_nombre_59-189)"/><path d="M18.49,86.06a8.19,8.19,0,0,1-.13,1l.2.54V86.06Z" style="fill:url(#Degradado_sin_nombre_59-190)"/><path d="M86.28,86.06h-.07v7H82.64a7.71,7.71,0,0,1-7.64-7h-.14a7.71,7.71,0,0,1-7.64,7H63.66v-7h-.07a7.71,7.71,0,0,1-7.64,7H48.82a7.71,7.71,0,0,1-7.64-7H41a7.71,7.71,0,0,1-7.64,7H29.84v-7h-.07a7.71,7.71,0,0,1-7.64,7h-.91a43.68,43.68,0,0,0,6.15,8.18,7.67,7.67,0,0,0,2.47-5.61,7.73,7.73,0,0,0,7.71,7.71h7.12a7.73,7.73,0,0,0,7.71-7.71v7.71H56a7.73,7.73,0,0,0,7.71-7.71,7.73,7.73,0,0,0,7.71,7.71h3.56V95.65a7.73,7.73,0,0,0,7.71,7.71h3.89a43.19,43.19,0,0,0,8.29-10.28h-.9A7.7,7.7,0,0,1,86.28,86.06Z" style="fill:url(#Degradado_sin_nombre_59-191)"/><path d="M97.48,76.72a7.73,7.73,0,0,1-7.71,7.71H82.64a7.73,7.73,0,0,1-7.71-7.71v7.71H71.37a7.73,7.73,0,0,1-7.71-7.71A7.73,7.73,0,0,1,56,84.43H52.38V76.72a7.73,7.73,0,0,1-7.71,7.71H37.55a7.73,7.73,0,0,1-7.71-7.71,7.73,7.73,0,0,1-7.71,7.71H18.56V76.72a7.66,7.66,0,0,1-1.89,5,41.53,41.53,0,0,0,1.69,5.35,8.19,8.19,0,0,0,.13-1c0-.23.07-.45.07-.69v2.24a46,46,0,0,0,2.66,5.47h.91a7.71,7.71,0,0,0,7.64-7c0-.23.07-.45.07-.69v7.71H33.4a7.71,7.71,0,0,0,7.64-7c0-.23.07-.45.07-.69,0,.24,0,.46.07.69a7.71,7.71,0,0,0,7.64,7H56a7.71,7.71,0,0,0,7.64-7c0-.23.07-.45.07-.69v7.71h3.56a7.71,7.71,0,0,0,7.64-7c0-.23.07-.45.07-.69,0,.24,0,.46.07.69a7.71,7.71,0,0,0,7.64,7h3.57V85.37a5.2,5.2,0,0,0,.07.69,7.7,7.7,0,0,0,7.64,7h.9a43.61,43.61,0,0,0,3.8-8.65H97.48Z" style="fill:url(#Degradado_sin_nombre_59-192)"/><path d="M93.92,74.15a7.7,7.7,0,0,1-7.64-7h-.07v7H82.64a7.71,7.71,0,0,1-7.64-7h-.14a7.71,7.71,0,0,1-7.64,7H63.66v-7h-.07a7.71,7.71,0,0,1-7.64,7H48.82a7.71,7.71,0,0,1-7.64-7H41a7.71,7.71,0,0,1-7.64,7H29.84v-7h-.07a7.71,7.71,0,0,1-7.64,7H18.56v-7h-.07a7.63,7.63,0,0,1-3,5.46,42.17,42.17,0,0,0,1.23,9.13,7.66,7.66,0,0,0,1.89-5v7.71h3.57a7.73,7.73,0,0,0,7.71-7.71,7.73,7.73,0,0,0,7.71,7.71h7.12a7.73,7.73,0,0,0,7.71-7.71v7.71H56a7.73,7.73,0,0,0,7.71-7.71,7.73,7.73,0,0,0,7.71,7.71h3.56V76.72a7.73,7.73,0,0,0,7.71,7.71h7.13a7.73,7.73,0,0,0,7.71-7.71v7.71h1.14a42.8,42.8,0,0,0,1.9-10.28h-6.6Z" style="fill:url(#Degradado_sin_nombre_59-193)"/><path d="M97.48,57.79a7.73,7.73,0,0,1-7.71,7.71H82.64a7.73,7.73,0,0,1-7.71-7.71V65.5H71.37a7.73,7.73,0,0,1-7.71-7.71A7.73,7.73,0,0,1,56,65.5H52.38V57.79a7.73,7.73,0,0,1-7.71,7.71H37.55a7.73,7.73,0,0,1-7.71-7.71,7.73,7.73,0,0,1-7.71,7.71H18.56V57.79a7.65,7.65,0,0,1-2.23,5.41,41.72,41.72,0,0,0-.89,9.39,7.63,7.63,0,0,0,3-5.46c0-.23.07-.45.07-.69v7.71h3.57a7.71,7.71,0,0,0,7.64-7c0-.23.07-.45.07-.69v7.71H33.4a7.71,7.71,0,0,0,7.64-7c0-.23.07-.45.07-.69,0,.24,0,.46.07.69a7.71,7.71,0,0,0,7.64,7H56a7.71,7.71,0,0,0,7.64-7c0-.23.07-.45.07-.69v7.71h3.56a7.71,7.71,0,0,0,7.64-7c0-.23.07-.45.07-.69,0,.24,0,.46.07.69a7.71,7.71,0,0,0,7.64,7h3.57V66.44a5.2,5.2,0,0,0,.07.69,7.7,7.7,0,0,0,7.64,7h6.6a42,42,0,0,0-.39-8.65H97.48Z" style="fill:url(#Degradado_sin_nombre_59-194)"/><path d="M86.28,48.21h-.07v7H82.64a7.72,7.72,0,0,1-7.64-7h-.14a7.72,7.72,0,0,1-7.64,7H63.66v-7h-.07a7.72,7.72,0,0,1-7.64,7H48.82a7.72,7.72,0,0,1-7.64-7H41a7.72,7.72,0,0,1-7.64,7H29.84v-7h-.07a7.72,7.72,0,0,1-7.64,7H18.84a42.71,42.71,0,0,0-2.51,8,7.65,7.65,0,0,0,2.23-5.41V65.5h3.57a7.73,7.73,0,0,0,7.71-7.71,7.73,7.73,0,0,0,7.71,7.71h7.12a7.73,7.73,0,0,0,7.71-7.71V65.5H56a7.73,7.73,0,0,0,7.71-7.71,7.73,7.73,0,0,0,7.71,7.71h3.56V57.79a7.73,7.73,0,0,0,7.71,7.71h7.13a7.73,7.73,0,0,0,7.71-7.71V65.5h2.65A41.91,41.91,0,0,0,97.2,55.23H93.92A7.7,7.7,0,0,1,86.28,48.21Z" style="fill:url(#Degradado_sin_nombre_59-195)"/><path d="M86.21,46.58H82.64a7.73,7.73,0,0,1-7.71-7.71v7.71H71.37a7.73,7.73,0,0,1-7.71-7.71A7.73,7.73,0,0,1,56,46.58H52.38V38.87a7.73,7.73,0,0,1-7.71,7.71H37.55a7.73,7.73,0,0,1-7.71-7.71,7.73,7.73,0,0,1-6.31,7.56l-2.34,4.06h0a43.46,43.46,0,0,0-2.35,4.74h3.29a7.72,7.72,0,0,0,7.64-7c0-.23.07-.46.07-.7v7.72H33.4a7.72,7.72,0,0,0,7.64-7c0-.23.07-.46.07-.7,0,.24,0,.47.07.7a7.72,7.72,0,0,0,7.64,7H56a7.72,7.72,0,0,0,7.64-7c0-.23.07-.46.07-.7v7.72h3.56a7.72,7.72,0,0,0,7.64-7c0-.23.07-.46.07-.7,0,.24,0,.47.07.7a7.72,7.72,0,0,0,7.64,7h3.57V47.51a5.35,5.35,0,0,0,.07.7,7.7,7.7,0,0,0,7.64,7H97.2a43.46,43.46,0,0,0-2.35-4.74h0l-2.53-4.38a7.69,7.69,0,0,1-2.55.47Z" style="fill:url(#Degradado_sin_nombre_59-196)"/><path d="M82.64,36.3a7.72,7.72,0,0,1-7.64-7h-.14a7.72,7.72,0,0,1-7.64,7H63.66v-7h-.07a7.72,7.72,0,0,1-7.64,7H48.82a7.72,7.72,0,0,1-7.64-7H41a7.72,7.72,0,0,1-7.64,7H29.84v-.78L23.53,46.43a7.73,7.73,0,0,0,6.31-7.56,7.73,7.73,0,0,0,7.71,7.71h7.12a7.73,7.73,0,0,0,7.71-7.71v7.71H56a7.73,7.73,0,0,0,7.71-7.71,7.73,7.73,0,0,0,7.71,7.71h3.56V38.87a7.73,7.73,0,0,0,7.71,7.71h7.13a7.69,7.69,0,0,0,2.55-.47L86.21,35.52v.78Z" style="fill:url(#Degradado_sin_nombre_59-197)"/><path d="M74.93,19.94v7.71H71.37a7.73,7.73,0,0,1-7.71-7.71A7.73,7.73,0,0,1,56,27.65H52.38V19.94a7.73,7.73,0,0,1-7.71,7.71H37.55a7.74,7.74,0,0,1-2.85-.56l-4.86,8.43v.78H33.4a7.72,7.72,0,0,0,7.64-7c0-.23.07-.46.07-.69,0,.23,0,.46.07.69a7.72,7.72,0,0,0,7.64,7H56a7.72,7.72,0,0,0,7.64-7c0-.23.07-.46.07-.69V36.3h3.56a7.72,7.72,0,0,0,7.64-7c0-.23.07-.46.07-.69,0,.23,0,.46.07.69a7.72,7.72,0,0,0,7.64,7h3.57v-.78l-4.61-8A7.71,7.71,0,0,1,74.93,19.94Z" style="fill:url(#Degradado_sin_nombre_59-198)"/><path d="M67.22,17.37H63.66v-7h-.07a7.71,7.71,0,0,1-7.64,7H48.82a7.72,7.72,0,0,1-6.46-3.54L37.93,21.5,34.7,27.09a7.74,7.74,0,0,0,2.85.56h7.12a7.73,7.73,0,0,0,7.71-7.71v7.71H56a7.73,7.73,0,0,0,7.71-7.71,7.73,7.73,0,0,0,7.71,7.71h3.56V19.94a7.71,7.71,0,0,0,6.67,7.6l-4-6.93-3.92-6.78A7.69,7.69,0,0,1,67.22,17.37Z" style="fill:url(#Degradado_sin_nombre_59-199)"/><path d="M42.36,13.83a7.72,7.72,0,0,0,6.46,3.54H56a7.71,7.71,0,0,0,7.64-7c0-.23.07-.45.07-.69v7.71h3.56a7.69,7.69,0,0,0,6.46-3.54L69.89,7.26a7.66,7.66,0,0,0-1.61,4.65V4.2H64.72A7.73,7.73,0,0,0,57,11.91V4.2H53.45a7.73,7.73,0,0,0-7.71,7.71A7.73,7.73,0,0,0,45.15,9Z" style="fill:url(#Degradado_sin_nombre_59-200)"/><path d="M97.2,55.23A46.86,46.86,0,0,0,95.14,51L95,51.2a42.75,42.75,0,0,1-8.29,10.28,41.35,41.35,0,0,1-9.3,6.41,42.27,42.27,0,0,1-19.21,4.52h0a42,42,0,0,1-30.65-13,43,43,0,0,1-6.14-8.18c-.11-.19-.22-.38-.32-.57A43.55,43.55,0,0,0,16.33,63.2a41.72,41.72,0,0,0-.89,9.39,42.17,42.17,0,0,0,1.23,9.13,41.53,41.53,0,0,0,1.69,5.35l.2.54a46,46,0,0,0,2.66,5.47,43.68,43.68,0,0,0,6.15,8.18,41.92,41.92,0,0,0,30.65,13h0a42,42,0,0,0,28.51-10.93,43.05,43.05,0,0,0,14-29.21A41.62,41.62,0,0,0,97.2,55.23Z" style="fill:#bf630c;opacity:0.67;mix-blend-mode:multiply"/><circle cx="82.48" cy="54.09" r="13.44" style="fill:#793506"/><path d="M81.41,41.9A13.42,13.42,0,0,1,92.06,63.51,13.43,13.43,0,1,0,71.82,45.92,13.4,13.4,0,0,1,81.41,41.9Z" style="fill:#b55009"/><circle cx="82.48" cy="54.09" r="11.29" style="fill:#03e4b3"/><path d="M82.48,58.39a11.29,11.29,0,0,1-10.73-7.8,11.29,11.29,0,1,0,22,3.5,11.6,11.6,0,0,0-.55-3.5A11.3,11.3,0,0,1,82.48,58.39Z" style="fill:#02ab86"/><circle cx="82.48" cy="54.09" r="5.38" style="fill:#0e393a"/><path d="M81.41,53.28a3,3,0,1,1-3-3A3,3,0,0,1,81.41,53.28Z" style="fill:#fff"/><path d="M82.72,29.72a8.63,8.63,0,1,1-8.63-8.63A8.62,8.62,0,0,1,82.72,29.72Z" style="fill:#793506"/><path d="M73.4,21.9a8.61,8.61,0,0,1,6.84,13.86,8.62,8.62,0,1,0-13-11.28A8.55,8.55,0,0,1,73.4,21.9Z" style="fill:#b55009"/><path d="M81.34,29.72a7.25,7.25,0,1,1-7.25-7.25A7.24,7.24,0,0,1,81.34,29.72Z" style="fill:#03e4b3"/><path d="M74.1,32.48a7.24,7.24,0,0,1-6.89-5,7.15,7.15,0,0,0-.36,2.24A7.25,7.25,0,1,0,81,27.47,7.24,7.24,0,0,1,74.1,32.48Z" style="fill:#02ab86"/><path d="M77.54,29.72a3.45,3.45,0,1,1-3.45-3.45A3.44,3.44,0,0,1,77.54,29.72Z" style="fill:#0e393a"/><path d="M73.41,29.2a1.9,1.9,0,1,1-1.9-1.9A1.9,1.9,0,0,1,73.41,29.2Z" style="fill:#fff"/><circle cx="32.39" cy="54.09" r="13.44" style="fill:#793506"/><path d="M33.47,41.9A13.42,13.42,0,0,0,22.81,63.51,13.43,13.43,0,1,1,43.05,45.92,13.4,13.4,0,0,0,33.47,41.9Z" style="fill:#b55009"/><circle cx="32.39" cy="54.09" r="11.29" style="fill:#03e4b3"/><path d="M32.39,58.39a11.28,11.28,0,0,0,10.73-7.8,11.29,11.29,0,1,1-21.46,0A11.28,11.28,0,0,0,32.39,58.39Z" style="fill:#02ab86"/><circle cx="32.39" cy="54.09" r="5.38" style="fill:#0e393a"/><path d="M33.47,53.28a3,3,0,1,0,3-3A3,3,0,0,0,33.47,53.28Z" style="fill:#fff"/><circle cx="39.8" cy="29.72" r="8.62" style="fill:#793506"/><path d="M40.49,21.9a8.61,8.61,0,0,0-6.84,13.86,8.62,8.62,0,1,1,13-11.29A8.58,8.58,0,0,0,40.49,21.9Z" style="fill:#b55009"/><circle cx="39.8" cy="29.72" r="7.24" style="fill:#03e4b3"/><path d="M39.8,32.48a7.24,7.24,0,0,0,6.88-5,7.25,7.25,0,1,1-13.77,0A7.24,7.24,0,0,0,39.8,32.48Z" style="fill:#02ab86"/><circle cx="39.8" cy="29.72" r="3.45" style="fill:#0e393a"/><path d="M40.49,29.2a1.9,1.9,0,1,0,1.89-1.9A1.9,1.9,0,0,0,40.49,29.2Z" style="fill:#fff"/><path d="M33.17,68.51a1.88,1.88,0,0,0-3.25,0l-1.26,2.18-2.88,5H37.31l-2.88-5Z" style="fill:#ffe2b8"/><path d="M87.25,68.51a1.88,1.88,0,0,0-3.25,0l-1.26,2.18-2.88,5H91.39l-2.88-5Z" style="fill:#ffe2b8"/><path d="M33.17,70.65a1.88,1.88,0,0,0-3.25,0l-1.26,2.18-2.88,5H37.31l-2.88-5Z" style="fill:#fada81"/><path d="M87.25,70.65a1.88,1.88,0,0,0-3.25,0l-1.26,2.18-2.88,5H91.39l-2.88-5Z" style="fill:#fada81"/><path d="M29.37,105.6H85.91A14.66,14.66,0,0,0,100.52,91h0A14.65,14.65,0,0,0,85.91,76.37H29.37A14.66,14.66,0,0,0,14.76,91h0A14.66,14.66,0,0,0,29.37,105.6Z" style="fill:#bf630c;opacity:0.67;mix-blend-mode:multiply"/><rect x="14.76" y="73.76" width="85.76" height="29.23" rx="14.61" style="fill:#fe9d23"/><path d="M25.34,74.34A14.38,14.38,0,0,0,24.58,79h0A14.66,14.66,0,0,0,39.19,93.57H95.73a14.61,14.61,0,0,0,4-.58,14.67,14.67,0,0,1-13.86,10H29.37A14.66,14.66,0,0,1,14.76,88.38h0A14.67,14.67,0,0,1,25.34,74.34Z" style="fill:#be751a"/><path d="M62.71,83.35H86.78a2.76,2.76,0,0,0,2.75-2.76h0a2.76,2.76,0,0,0-2.75-2.75H62.71A2.76,2.76,0,0,0,60,80.59h0A2.76,2.76,0,0,0,62.71,83.35Z" style="fill:#fec47b"/><path d="M50.41,83.35h4.1a2.76,2.76,0,0,0,2.75-2.76h0a2.76,2.76,0,0,0-2.75-2.75h-4.1a2.76,2.76,0,0,0-2.75,2.75h0A2.76,2.76,0,0,0,50.41,83.35Z" style="fill:#fec47b"/><path d="M18,162.69h4.39a1.13,1.13,0,0,0,1.13-1.12h0a1.14,1.14,0,0,0-1.13-1.13H18a1.13,1.13,0,0,0-1.12,1.13h0A1.13,1.13,0,0,0,18,162.69Z" style="fill:#fcedb6"/><rect x="57.94" y="157.28" width="36.22" height="12.39" rx="6.19" style="fill:#fe9d23"/><path d="M60.33,158.6a5.88,5.88,0,0,0,0,.6h0a6.21,6.21,0,0,0,6.19,6.19H90.33a6.14,6.14,0,0,0,3.79-1.32,6.21,6.21,0,0,1-6.16,5.6H64.13a6.21,6.21,0,0,1-6.19-6.2h0A6.18,6.18,0,0,1,60.33,158.6Z" style="fill:#bf630c;opacity:0.67;mix-blend-mode:multiply"/><path d="M69.67,169.67h8a5.56,5.56,0,0,0,5.54-5.54h0a5.56,5.56,0,0,0-5.54-5.54h-8a5.55,5.55,0,0,0-5.54,5.54h0A5.55,5.55,0,0,0,69.67,169.67Z" style="fill:#feb14f"/><path d="M67.41,159.08a5.37,5.37,0,0,0-.49,2.26,5.55,5.55,0,0,0,5.54,5.54h8a5.57,5.57,0,0,0,2.27-.49,5.55,5.55,0,0,1-5,3.28h-8a5.54,5.54,0,0,1-2.26-10.59Z" style="fill:#bf630c;opacity:0.67;mix-blend-mode:multiply"/><rect x="84.36" y="160.17" width="12.16" height="9.5" rx="4.75" style="fill:#feb14f"/><path d="M87.18,160.59a4.62,4.62,0,0,0-.43,1.93h0a4.76,4.76,0,0,0,4.75,4.75h2.66a4.69,4.69,0,0,0,1.94-.42,4.78,4.78,0,0,1-4.33,2.82H89.11a4.77,4.77,0,0,1-4.75-4.75h0A4.74,4.74,0,0,1,87.18,160.59Z" style="fill:#bf630c;opacity:0.67;mix-blend-mode:multiply"/><rect x="67.36" y="158.59" width="13.12" height="3.25" rx="1.63" style="fill:#fcedb6"/><path d="M92.9,162.69H88.51a1.12,1.12,0,0,1-1.12-1.12h0a1.13,1.13,0,0,1,1.12-1.13H92.9A1.13,1.13,0,0,1,94,161.57h0A1.12,1.12,0,0,1,92.9,162.69Z" style="fill:#fcedb6"/><path d="M57.64,74.35A10.84,10.84,0,0,1,46.83,63.54v5.32a10.82,10.82,0,1,0,21.63,0V63.54A10.84,10.84,0,0,1,57.64,74.35Z" style="fill:#240b7f"/><path d="M57.64,69A10.84,10.84,0,0,1,46.83,58.22v5.32a10.82,10.82,0,0,0,21.63,0V58.22A10.84,10.84,0,0,1,57.64,69Z" style="fill:#4716fe"/><path d="M57.64,63.71a10.84,10.84,0,0,1-10.47-8.18,10.36,10.36,0,0,0-.34,2.63v.06a10.82,10.82,0,0,0,21.63,0v-.06a10.83,10.83,0,0,0-.34-2.63A10.86,10.86,0,0,1,57.64,63.71Z" style="fill:#240b7f"/><path d="M57.64,58.39a10.84,10.84,0,0,1-9.41-5.52,10.27,10.27,0,0,0-1.06,2.66,10.8,10.8,0,0,0,21,0,10.66,10.66,0,0,0-1.07-2.66A10.84,10.84,0,0,1,57.64,58.39Z" style="fill:#4716fe"/><path d="M64.93,50.21a10.72,10.72,0,0,1-14.58,0,10.71,10.71,0,0,0-2.12,2.66,10.78,10.78,0,0,0,18.82,0A10.71,10.71,0,0,0,64.93,50.21Z" style="fill:#240b7f"/><ellipse cx="57.64" cy="50.21" rx="7.29" ry="2.86" style="fill:#4716fe"/><g style="mix-blend-mode:multiply"><path d="M64.77,72.54A10.84,10.84,0,0,1,54,61.73V51a11,11,0,0,1,.34-2.64c.05-.19.12-.37.18-.56a11,11,0,0,0-6.25,5,11,11,0,0,0-1.4,5.29v10.7A10.81,10.81,0,0,0,68,72.06,10.87,10.87,0,0,1,64.77,72.54Z" style="fill:#3510bf"/></g><path d="M65.18,69.24h0a1.64,1.64,0,0,1-1.64-1.64V61.24a1.63,1.63,0,0,1,1.64-1.64h0a1.64,1.64,0,0,1,1.64,1.64V67.6A1.65,1.65,0,0,1,65.18,69.24Z" style="fill:#dad0ff"/><path d="M65,57.94h0a1.48,1.48,0,0,1-1.48-1.48h0A1.48,1.48,0,0,1,65,55h0a1.48,1.48,0,0,1,1.47,1.48h0A1.48,1.48,0,0,1,65,57.94Z" style="fill:#dad0ff"/></g></g></g></svg>