<svg xmlns="http://www.w3.org/2000/svg" xmlns:xlink="http://www.w3.org/1999/xlink" viewBox="0 0 115.44 167.73"><defs><linearGradient id="Degradado_sin_nombre_51" x1="16.98" y1="123.26" x2="16.98" y2="136.15" gradientUnits="userSpaceOnUse"><stop offset="0.67" stop-color="#f84441"/><stop offset="0.69" stop-color="#da5553"/><stop offset="0.75" stop-color="#a27575"/><stop offset="0.81" stop-color="#748f92"/><stop offset="0.87" stop-color="#4fa3a8"/><stop offset="0.92" stop-color="#35b2b8"/><stop offset="0.96" stop-color="#25bbc2"/><stop offset="1" stop-color="#20bec5"/></linearGradient><linearGradient id="Degradado_sin_nombre_9" x1="12.12" y1="130.12" x2="12.12" y2="93.93" gradientUnits="userSpaceOnUse"><stop offset="0.12" stop-color="#f84441"/><stop offset="0.13" stop-color="#f44643"/><stop offset="0.37" stop-color="#aa7071"/><stop offset="0.59" stop-color="#6f9295"/><stop offset="0.77" stop-color="#44aaaf"/><stop offset="0.91" stop-color="#2ab9bf"/><stop offset="1" stop-color="#20bec5"/></linearGradient><linearGradient id="Degradado_sin_nombre_51-2" x1="332.41" y1="123.26" x2="332.41" y2="136.15" gradientTransform="matrix(-1, 0, 0, 1, 430.87, 0)" xlink:href="#Degradado_sin_nombre_51"/><linearGradient id="Degradado_sin_nombre_9-2" x1="327.56" y1="130.12" x2="327.56" y2="93.93" gradientTransform="matrix(-1, 0, 0, 1, 430.87, 0)" xlink:href="#Degradado_sin_nombre_9"/><linearGradient id="Degradado_sin_nombre_10" x1="36.29" y1="83.01" x2="36.29" y2="164.95" gradientUnits="userSpaceOnUse"><stop offset="0.68" stop-color="#f84441"/><stop offset="0.68" stop-color="#f64542"/><stop offset="0.84" stop-color="#848588"/><stop offset="0.95" stop-color="#3caeb4"/><stop offset="1" stop-color="#20bec5"/></linearGradient><linearGradient id="Degradado_sin_nombre_10-2" x1="78.98" y1="83.01" x2="78.98" y2="164.95" xlink:href="#Degradado_sin_nombre_10"/><linearGradient id="Degradado_sin_nombre_9-3" x1="608.76" y1="401.62" x2="680.87" y2="401.62" gradientTransform="translate(-585.14 -293.45)" xlink:href="#Degradado_sin_nombre_9"/><linearGradient id="Degradado_sin_nombre_9-4" x1="59.83" y1="45.14" x2="59.83" y2="86.18" xlink:href="#Degradado_sin_nombre_9"/><linearGradient id="Degradado_sin_nombre_9-5" x1="699.95" y1="427.24" x2="739.14" y2="427.24" gradientTransform="translate(-634.24 -393.8)" xlink:href="#Degradado_sin_nombre_9"/><linearGradient id="Degradado_sin_nombre_9-6" x1="739.14" y1="536.62" x2="699.95" y2="536.62" gradientTransform="matrix(1, 0, 0, -1, -689.97, 570.06)" xlink:href="#Degradado_sin_nombre_9"/></defs><g style="isolation:isolate"><g id="Layer_2" data-name="Layer 2"><g id="OBJECTS"><path d="M23.42,129.71A6.45,6.45,0,1,1,17,123.26,6.44,6.44,0,0,1,23.42,129.71Z" style="fill:url(#Degradado_sin_nombre_51)"/><path d="M20.58,130.12h-.13c-1.34-.05-13.18-.65-18.16-6.57A9.52,9.52,0,0,1,.1,115.93c1.46-10.73,16-20.36,17.61-21.42a3.66,3.66,0,0,1,4,6.16h0C16.55,104,8.12,111.34,7.36,116.92a2.22,2.22,0,0,0,.53,1.91c2.3,2.73,9.63,3.85,12.83,4a3.66,3.66,0,0,1-.14,7.32Z" style="fill:url(#Degradado_sin_nombre_9)"/><path d="M20.72,122.8c-3.2-.12-10.53-1.24-12.83-4a2.22,2.22,0,0,1-.53-1.91c.76-5.58,9.19-12.93,14.32-16.25a3.66,3.66,0,0,0-4-6.16c-.23.15-.72.47-1.37.93a3.66,3.66,0,0,1,.5,6.42c-5.13,3.32-13.56,10.67-14.32,16.26A2.23,2.23,0,0,0,3.05,120c2.3,2.72,9.63,3.85,12.83,4a3.66,3.66,0,0,1,2.67,6c.95.09,1.63.12,1.9.13h.13a3.66,3.66,0,0,0,.14-7.32Z" style="fill:#31cbd1;opacity:0.31;mix-blend-mode:multiply"/><path d="M92,129.71a6.45,6.45,0,1,0,6.44-6.45A6.44,6.44,0,0,0,92,129.71Z" style="fill:url(#Degradado_sin_nombre_51-2)"/><path d="M94.85,130.12H95c1.33-.05,13.18-.65,18.16-6.57a9.52,9.52,0,0,0,2.19-7.62c-1.46-10.73-16-20.36-17.61-21.42a3.66,3.66,0,0,0-4,6.16h0c5.13,3.32,13.56,10.67,14.32,16.25a2.2,2.2,0,0,1-.54,1.91c-2.29,2.73-9.62,3.85-12.82,4a3.66,3.66,0,0,0,.13,7.32Z" style="fill:url(#Degradado_sin_nombre_9-2)"/><path d="M94.72,122.8c3.2-.12,10.53-1.24,12.82-4a2.2,2.2,0,0,0,.54-1.91c-.76-5.58-9.19-12.93-14.32-16.25a3.66,3.66,0,0,1,4-6.16c.23.15.71.47,1.37.93a3.66,3.66,0,0,0-.5,6.42c5.13,3.32,13.56,10.67,14.32,16.26a2.21,2.21,0,0,1-.54,1.91c-2.29,2.72-9.62,3.85-12.82,4a3.65,3.65,0,0,0-2.67,6c-1,.09-1.63.12-1.9.13h-.14a3.66,3.66,0,0,1-.13-7.32Z" style="fill:#31cbd1;opacity:0.31;mix-blend-mode:multiply"/><path d="M30.87,116.12v43.41a5.42,5.42,0,0,0,10.84,0V116.12Z" style="fill:url(#Degradado_sin_nombre_10)"/><path d="M73.56,116.12v43.41a5.42,5.42,0,0,0,10.84,0V116.12Z" style="fill:url(#Degradado_sin_nombre_10-2)"/><path d="M30.87,116.12v24.95a5.42,5.42,0,0,0,10.84,0V116.12Z" style="fill:#f6a016;opacity:0.4;mix-blend-mode:multiply"/><path d="M73.56,116.12v24.95a5.42,5.42,0,1,0,10.84,0V116.12Z" style="fill:#f6a016;opacity:0.4;mix-blend-mode:multiply"/><path d="M37.91,167.73H22.14a5,5,0,0,1-5-5h0a5,5,0,0,1,5-5H37.91a5,5,0,0,1,5,5h0A5,5,0,0,1,37.91,167.73Z" style="fill:#20bec5"/><path d="M42,163.08H26.22a5,5,0,0,1-5-5c0-.08,0-.15,0-.22a4.95,4.95,0,0,0,.86,9.82H37.91A5,5,0,0,0,42.84,163,6,6,0,0,1,42,163.08Z" style="fill:#31cbd1;opacity:0.31;mix-blend-mode:multiply"/><path d="M35.16,167.73H31.29a4.19,4.19,0,0,1-4.18-4.18h0a4.19,4.19,0,0,1,4.18-4.18h3.87a4.19,4.19,0,0,1,4.17,4.18h0A4.19,4.19,0,0,1,35.16,167.73Z" style="fill:#61f9ff"/><path d="M36,165H32.17A4.19,4.19,0,0,1,28,161a4.11,4.11,0,0,0-.9,2.56,4.19,4.19,0,0,0,4.18,4.18h3.87a4.19,4.19,0,0,0,4.17-4.18,1.5,1.5,0,0,0,0-.22A4.14,4.14,0,0,1,36,165Z" style="fill:#31cbd1;opacity:0.31;mix-blend-mode:multiply"/><rect x="14.88" y="161.54" width="12.23" height="6.19" rx="3.1" style="fill:#61f9ff"/><path d="M24.74,164.63h-6a3.09,3.09,0,0,1-2.94-2.16,3.07,3.07,0,0,0-.89,2.16,3.11,3.11,0,0,0,3.1,3.1h6a3.12,3.12,0,0,0,3.1-3.1,3.24,3.24,0,0,0-.16-.93A3.12,3.12,0,0,1,24.74,164.63Z" style="fill:#31cbd1;opacity:0.31;mix-blend-mode:multiply"/><path d="M75.26,167.73H91a5,5,0,0,0,5-5h0a5,5,0,0,0-5-5H75.26a5,5,0,0,0-5,5h0A5,5,0,0,0,75.26,167.73Z" style="fill:#20bec5"/><path d="M92.69,158.13a5,5,0,0,1,.3,1.66h0a5,5,0,0,1-4.95,5H72.27a4.8,4.8,0,0,1-1.66-.31,5,5,0,0,0,4.65,3.3H91a4.94,4.94,0,0,0,1.66-9.6Z" style="fill:#31cbd1;opacity:0.31;mix-blend-mode:multiply"/><path d="M78,167.73h3.87a4.19,4.19,0,0,0,4.18-4.18h0a4.19,4.19,0,0,0-4.18-4.18H78a4.19,4.19,0,0,0-4.18,4.18h0A4.19,4.19,0,0,0,78,167.73Z" style="fill:#61f9ff"/><path d="M84.37,160.22a1.81,1.81,0,0,1,0,.23,4.19,4.19,0,0,1-4.18,4.18H76.35a4.07,4.07,0,0,1-2.49-.85A4.18,4.18,0,0,0,78,167.73h3.87a4.16,4.16,0,0,0,2.49-7.51Z" style="fill:#31cbd1;opacity:0.31;mix-blend-mode:multiply"/><rect x="86.06" y="161.54" width="12.23" height="6.19" rx="3.1" transform="translate(184.35 329.26) rotate(-180)" style="fill:#61f9ff"/><path d="M96.88,162.05a3.1,3.1,0,0,1-3.09,3h-6a3.09,3.09,0,0,1-1.7-.51v0a3.11,3.11,0,0,0,3.09,3.1h6a3.12,3.12,0,0,0,3.1-3.1A3.07,3.07,0,0,0,96.88,162.05Z" style="fill:#31cbd1;opacity:0.31;mix-blend-mode:multiply"/><rect x="23.62" y="64.43" width="72.11" height="87.49" rx="36.06" transform="translate(-48.5 167.85) rotate(-90)" style="fill:url(#Degradado_sin_nombre_9-3)"/><path d="M67.37,136.93H52a35.9,35.9,0,0,1-24.51-9.68,29.54,29.54,0,0,1-3.61-10.9,29.16,29.16,0,0,0-.23,3.64h0a29.41,29.41,0,0,0,3.84,14.55A35.91,35.91,0,0,0,52,144.23H67.37a35.91,35.91,0,0,0,24.51-9.69A29.41,29.41,0,0,0,95.72,120h0a29.16,29.16,0,0,0-.23-3.64,29.54,29.54,0,0,1-3.61,10.9A35.9,35.9,0,0,1,67.37,136.93Z" style="fill:#ff9b36"/><path d="M91.88,120a35.91,35.91,0,0,1-24.51,9.69H52A35.91,35.91,0,0,1,27.47,120a29.27,29.27,0,0,1-2.92-7.28,29.86,29.86,0,0,0-.69,3.68,29.54,29.54,0,0,0,3.61,10.9A35.9,35.9,0,0,0,52,136.93H67.37a35.9,35.9,0,0,0,24.51-9.68,29.54,29.54,0,0,0,3.61-10.9,28.1,28.1,0,0,0-.69-3.68A29.27,29.27,0,0,1,91.88,120Z" style="fill:#ffd736"/><path d="M67.37,122.34H52a35.9,35.9,0,0,1-24.51-9.68A30.84,30.84,0,0,1,25.74,109a30.2,30.2,0,0,0-1.19,3.63A29.27,29.27,0,0,0,27.47,120,35.91,35.91,0,0,0,52,129.64H67.37A35.91,35.91,0,0,0,91.88,120a29.27,29.27,0,0,0,2.92-7.28A28.52,28.52,0,0,0,93.61,109a29.33,29.33,0,0,1-1.73,3.62A35.9,35.9,0,0,1,67.37,122.34Z" style="fill:#ff9b36"/><path d="M67.37,115.05H52a35.9,35.9,0,0,1-24.48-9.66A29.91,29.91,0,0,0,25.74,109a30.84,30.84,0,0,0,1.73,3.62A35.9,35.9,0,0,0,52,122.34H67.37a35.9,35.9,0,0,0,24.51-9.68A29.33,29.33,0,0,0,93.61,109a28.51,28.51,0,0,0-1.76-3.65A35.9,35.9,0,0,1,67.37,115.05Z" style="fill:#ffd736"/><path d="M52,107.75a35.76,35.76,0,0,1-21.24-7,30.5,30.5,0,0,0-3.24,4.63A35.9,35.9,0,0,0,52,115.05H67.37a35.9,35.9,0,0,0,24.48-9.66,29.8,29.8,0,0,0-3.24-4.63,35.74,35.74,0,0,1-21.24,7Z" style="fill:#ff9b36"/><path d="M84,96.37a35.61,35.61,0,0,1-16.6,4.09H52a35.64,35.64,0,0,1-16.6-4.09,30.12,30.12,0,0,0-4.64,4.39,35.76,35.76,0,0,0,21.24,7H67.37a35.74,35.74,0,0,0,21.24-7A30.12,30.12,0,0,0,84,96.37Z" style="fill:#ffd736"/><path d="M52,93.16a35.77,35.77,0,0,1-8.77-1.09,30,30,0,0,0-7.83,4.3A35.64,35.64,0,0,0,52,100.46H67.37A35.61,35.61,0,0,0,84,96.37a29.81,29.81,0,0,0-7.83-4.3,35.77,35.77,0,0,1-8.77,1.09Z" style="fill:#ff9b36"/><path d="M53.34,90.28a29.41,29.41,0,0,0-10.13,1.79A35.77,35.77,0,0,0,52,93.16H67.37a35.77,35.77,0,0,0,8.77-1.09A29.33,29.33,0,0,0,66,90.28Z" style="fill:#ffd736"/><path d="M67.4,126H52A36.2,36.2,0,0,1,17.12,99a36.08,36.08,0,0,0-1.19,9.17h0A36.16,36.16,0,0,0,52,144.23H67.37a36.16,36.16,0,0,0,36.05-36.06h0a35.66,35.66,0,0,0-1.16-9.06A36.2,36.2,0,0,1,67.4,126Z" style="fill:#31cbd1;opacity:0.31;mix-blend-mode:multiply"/><path d="M108.44,22.83a20.33,20.33,0,0,0,3.45-7.29,19,19,0,0,0,.29-7.6,17.66,17.66,0,0,0-2.54-6.66c-.18-.29-.37-.58-.57-.85a1.06,1.06,0,0,0-1.86.93c.07.28.14.56.19.84a14.19,14.19,0,0,1-.07,5.74,13,13,0,0,1-2.17,4.81,11.76,11.76,0,0,1-3.52,3.18,5.13,5.13,0,0,0-1.91,6.85,5,5,0,0,0,6.86,1.86,5,5,0,0,0,1.5-1.33Z" style="fill:#fcedb6"/><path d="M112.18,7.94a17.66,17.66,0,0,0-2.54-6.66c-.18-.29-.37-.58-.57-.85a1.07,1.07,0,0,0-.38-.33,18.75,18.75,0,0,1,1.43,4.63,19.14,19.14,0,0,1-.3,7.59,20.3,20.3,0,0,1-3.45,7.3l-.35.48a5,5,0,0,1-6.84,1.11,4.75,4.75,0,0,0,.55,1.57,5,5,0,0,0,6.86,1.86,5,5,0,0,0,1.5-1.33l.35-.48a20.33,20.33,0,0,0,3.45-7.29A19,19,0,0,0,112.18,7.94Z" style="fill:#fada81"/><path d="M63,22.83a20.31,20.31,0,0,1-3.44-7.29,18.83,18.83,0,0,1-.3-7.6,17.66,17.66,0,0,1,2.54-6.66C62,1,62.15.7,62.35.43a1.05,1.05,0,0,1,1.85.93c-.07.28-.13.56-.19.84a14.19,14.19,0,0,0,.07,5.74,12.83,12.83,0,0,0,2.18,4.81,11.73,11.73,0,0,0,3.51,3.18,5.12,5.12,0,0,1,1.91,6.85,5,5,0,0,1-6.86,1.86,5.07,5.07,0,0,1-1.5-1.33Z" style="fill:#fcedb6"/><path d="M66.92,20.32A4.94,4.94,0,0,1,65.42,19l-.35-.47a20.27,20.27,0,0,1-3.44-7.3,19,19,0,0,1-.3-7.59A17.94,17.94,0,0,1,62,1l-.21.32a17.66,17.66,0,0,0-2.54,6.66,18.83,18.83,0,0,0,.3,7.6A20.31,20.31,0,0,0,63,22.83l.35.48a5.07,5.07,0,0,0,1.5,1.33,5,5,0,0,0,6.86-1.86,4.76,4.76,0,0,0,.61-2.69A5,5,0,0,1,66.92,20.32Z" style="fill:#fada81"/><path d="M59.83,86.18A33.78,33.78,0,0,1,26.09,52.44a7.3,7.3,0,1,1,14.59,0,19.15,19.15,0,0,0,38.3,0,7.3,7.3,0,1,1,14.59,0A33.78,33.78,0,0,1,59.83,86.18Z" style="fill:url(#Degradado_sin_nombre_9-4)"/><path d="M33.38,55.17a7.3,7.3,0,0,1,7.3,7.3,19.15,19.15,0,0,0,38.3,0,7.29,7.29,0,0,1,13.88-3.13,34.14,34.14,0,0,0,.71-6.9,7.3,7.3,0,1,0-14.59,0,19.15,19.15,0,0,1-38.3,0,7.3,7.3,0,1,0-14.59,0,33.44,33.44,0,0,0,.71,6.9A7.29,7.29,0,0,1,33.38,55.17Z" style="fill:#31cbd1;opacity:0.31;mix-blend-mode:multiply"/><rect x="65.7" y="9.67" width="39.19" height="47.55" rx="19.59" transform="translate(51.85 118.74) rotate(-90)" style="fill:url(#Degradado_sin_nombre_9-5)"/><path d="M89.49,43.13H81.13a19.68,19.68,0,0,1-19-14.67,19.48,19.48,0,0,0-.65,5h0A19.66,19.66,0,0,0,81.12,53h8.36a19.66,19.66,0,0,0,19.59-19.6h0a19.46,19.46,0,0,0-.63-4.92A19.68,19.68,0,0,1,89.49,43.13Z" style="fill:#31cbd1;opacity:0.31;mix-blend-mode:multiply"/><circle cx="72.62" cy="34.11" r="8.3" style="fill:#ffd736"/><path d="M72.62,38.88a8.3,8.3,0,0,0,8.11-6.53,8.55,8.55,0,0,1,.19,1.76,8.3,8.3,0,1,1-16.6,0,7.91,7.91,0,0,1,.2-1.76A8.3,8.3,0,0,0,72.62,38.88Z" style="fill:#f6a016;opacity:0.4;mix-blend-mode:multiply"/><circle cx="68.88" cy="34.11" r="4.15" style="fill:#0e393a"/><path d="M71,34.83a2.16,2.16,0,1,0,2.15-2.15A2.15,2.15,0,0,0,71,34.83Z" style="fill:#fff"/><circle cx="99.4" cy="34.11" r="8.3" style="fill:#ffd736"/><path d="M99.4,38.88a8.3,8.3,0,0,1-8.1-6.53,7.91,7.91,0,0,0-.19,1.76,8.3,8.3,0,1,0,16.59,0,8.55,8.55,0,0,0-.19-1.76A8.3,8.3,0,0,1,99.4,38.88Z" style="fill:#f6a016;opacity:0.4;mix-blend-mode:multiply"/><path d="M100.13,34.11A4.15,4.15,0,1,1,96,30,4.15,4.15,0,0,1,100.13,34.11Z" style="fill:#0e393a"/><path d="M102.28,34.83a2.15,2.15,0,1,1-2.15-2.15A2.15,2.15,0,0,1,102.28,34.83Z" style="fill:#fff"/><path d="M103.78,30.8H67.14a3,3,0,0,1-3-3h0a3,3,0,0,1,3-3h36.64a3,3,0,0,1,3,3h0A3,3,0,0,1,103.78,30.8Z" style="fill:#f84441"/><path d="M97.66,46H73.09a2.94,2.94,0,0,1-2.93-2.93h0a2.94,2.94,0,0,1,2.93-2.93H97.66a2.94,2.94,0,0,1,2.93,2.93h0A2.94,2.94,0,0,1,97.66,46Z" style="fill:#183e40"/><path d="M103,28.61h-35a3.89,3.89,0,0,1-3.51-1.88,2.31,2.31,0,0,0-.27,1.09h0c0,1.64,1.7,3,3.78,3h35c2.08,0,3.78-1.34,3.78-3h0a2.31,2.31,0,0,0-.27-1.09A3.87,3.87,0,0,1,103,28.61Z" style="fill:#31cbd1;opacity:0.19;mix-blend-mode:multiply"/><path d="M98.73,42.22a1.07,1.07,0,0,1,0,2.14H72a1.07,1.07,0,1,1,0-2.14h26.7m0-3H72A4.08,4.08,0,0,0,68,43.29h0A4.08,4.08,0,0,0,72,47.36h26.7a4.08,4.08,0,0,0,4.07-4.07h0a4.08,4.08,0,0,0-4.07-4.07Z" style="fill:#61f9ff"/><g style="mix-blend-mode:multiply"><path d="M72,45.58h26.7a1.08,1.08,0,0,0,1.07-1.07,1,1,0,0,0-.2-.61,1.06,1.06,0,0,1-.87.46H72a1.08,1.08,0,0,1-.88-.46,1.06,1.06,0,0,0-.2.61A1.09,1.09,0,0,0,72,45.58Z" style="fill:#31cbd1;opacity:0.31;mix-blend-mode:multiply"/><path d="M98.73,39.22H72A4.08,4.08,0,0,0,68,43.29h0a4.07,4.07,0,0,0,0,.61,4.09,4.09,0,0,1,4-3.47h26.7a4.09,4.09,0,0,1,4,3.47,4.07,4.07,0,0,0,0-.61h0A4.08,4.08,0,0,0,98.73,39.22Z" style="fill:#31cbd1;opacity:0.31;mix-blend-mode:multiply"/></g><path d="M74.19,47h0A2.17,2.17,0,0,1,72,44.78V42.93h4.33v1.85A2.17,2.17,0,0,1,74.19,47Z" style="fill:#31cbd1;opacity:0.31;mix-blend-mode:multiply"/><path d="M81,47h0a2.17,2.17,0,0,1-2.17-2.17V42.93h4.34v1.85A2.17,2.17,0,0,1,81,47Z" style="fill:#31cbd1;opacity:0.31;mix-blend-mode:multiply"/><path d="M85.38,47h0a2.17,2.17,0,0,1-2.17-2.17V42.93h4.33v1.85A2.17,2.17,0,0,1,85.38,47Z" style="fill:#31cbd1;opacity:0.31;mix-blend-mode:multiply"/><path d="M92.46,47h0a2.17,2.17,0,0,1-2.17-2.17V42.93h4.34v1.85A2.17,2.17,0,0,1,92.46,47Z" style="fill:#31cbd1;opacity:0.31;mix-blend-mode:multiply"/><path d="M96.8,47h0a2.17,2.17,0,0,1-2.17-2.17V42.93H99v1.85A2.17,2.17,0,0,1,96.8,47Z" style="fill:#31cbd1;opacity:0.31;mix-blend-mode:multiply"/><path d="M74.19,46.24h0A2.17,2.17,0,0,1,72,44.07V42.22h4.33v1.85A2.17,2.17,0,0,1,74.19,46.24Z" style="fill:#fdf1d0"/><path d="M81,46.24h0a2.18,2.18,0,0,1-2.17-2.17V42.22h4.34v1.85A2.17,2.17,0,0,1,81,46.24Z" style="fill:#fdf1d0"/><path d="M85.38,46.24h0a2.17,2.17,0,0,1-2.17-2.17V42.22h4.33v1.85A2.17,2.17,0,0,1,85.38,46.24Z" style="fill:#fdf1d0"/><path d="M92.46,46.24h0a2.18,2.18,0,0,1-2.17-2.17V42.22h4.34v1.85A2.18,2.18,0,0,1,92.46,46.24Z" style="fill:#fdf1d0"/><path d="M96.8,46.24h0a2.18,2.18,0,0,1-2.17-2.17V42.22H99v1.85A2.18,2.18,0,0,1,96.8,46.24Z" style="fill:#fdf1d0"/><path d="M74.19,44a2.17,2.17,0,0,0,2.14-1.82H72.06A2.17,2.17,0,0,0,74.19,44Z" style="fill:#fbe3a2"/><path d="M81,44a2.17,2.17,0,0,0,2.14-1.82H78.91A2.17,2.17,0,0,0,81,44Z" style="fill:#fbe3a2"/><path d="M85.38,44a2.17,2.17,0,0,0,2.13-1.82H83.24A2.17,2.17,0,0,0,85.38,44Z" style="fill:#fbe3a2"/><path d="M92.46,44h0a2.17,2.17,0,0,0,2.14-1.82H90.33A2.17,2.17,0,0,0,92.46,44Z" style="fill:#fbe3a2"/><path d="M96.8,44a2.16,2.16,0,0,0,2.13-1.82H94.67A2.15,2.15,0,0,0,96.8,44Z" style="fill:#fbe3a2"/><path d="M6.43,22.83A20.31,20.31,0,0,1,3,15.54a19,19,0,0,1-.3-7.6A17.83,17.83,0,0,1,5.23,1.28C5.41,1,5.61.7,5.81.43a1.05,1.05,0,0,1,1.85.93c-.07.28-.13.56-.19.84a14.37,14.37,0,0,0,.07,5.74,12.83,12.83,0,0,0,2.18,4.81,11.64,11.64,0,0,0,3.52,3.18,5.13,5.13,0,0,1,1.9,6.85,5,5,0,0,1-6.86,1.86,5.07,5.07,0,0,1-1.5-1.33Z" style="fill:#fcedb6"/><path d="M2.69,7.94A17.83,17.83,0,0,1,5.23,1.28C5.41,1,5.61.7,5.81.43A1.07,1.07,0,0,1,6.19.1,17.94,17.94,0,0,0,4.76,4.73a18.78,18.78,0,0,0,.3,7.59,20.27,20.27,0,0,0,3.44,7.3l.35.48a5.07,5.07,0,0,0,1.5,1.33,5,5,0,0,0,5.34-.22,4.75,4.75,0,0,1-.55,1.57,5,5,0,0,1-6.86,1.86,5.07,5.07,0,0,1-1.5-1.33l-.35-.48A20.31,20.31,0,0,1,3,15.54,19,19,0,0,1,2.69,7.94Z" style="fill:#fada81"/><path d="M51.9,22.83a20.33,20.33,0,0,0,3.45-7.29,19.19,19.19,0,0,0,.3-7.6A17.84,17.84,0,0,0,53.1,1.28C52.92,1,52.73.7,52.53.43a1.06,1.06,0,0,0-1.86.93,8.45,8.45,0,0,1,.19.84,14.19,14.19,0,0,1-.07,5.74,13,13,0,0,1-2.17,4.81,11.76,11.76,0,0,1-3.52,3.18,5.12,5.12,0,0,0-1.9,6.85,5,5,0,0,0,8.35.53Z" style="fill:#fcedb6"/><path d="M48,20.32A4.82,4.82,0,0,0,49.45,19l.35-.47a20.3,20.3,0,0,0,3.45-7.3,19,19,0,0,0,.29-7.59A17.94,17.94,0,0,0,52.89,1c.07.11.15.21.21.32a17.84,17.84,0,0,1,2.55,6.66,19.19,19.19,0,0,1-.3,7.6,20.33,20.33,0,0,1-3.45,7.29l-.35.48a5,5,0,0,1-8.35-.53,4.85,4.85,0,0,1-.62-2.69A5,5,0,0,0,48,20.32Z" style="fill:#fada81"/><rect x="9.98" y="9.67" width="39.19" height="47.55" rx="19.59" transform="translate(-3.87 63.02) rotate(-90)" style="fill:url(#Degradado_sin_nombre_9-6)"/><path d="M25.38,43.13h8.36a19.67,19.67,0,0,0,19-14.67,19.48,19.48,0,0,1,.65,5h0A19.66,19.66,0,0,1,33.76,53H25.4A19.66,19.66,0,0,1,5.8,33.44h0a19,19,0,0,1,.64-4.92A19.66,19.66,0,0,0,25.38,43.13Z" style="fill:#31cbd1;opacity:0.31;mix-blend-mode:multiply"/><circle cx="42.25" cy="34.11" r="8.3" style="fill:#ffd736"/><path d="M42.25,38.88a8.3,8.3,0,0,1-8.1-6.53,7.91,7.91,0,0,0-.2,1.76,8.3,8.3,0,0,0,16.6,0,8.55,8.55,0,0,0-.19-1.76A8.3,8.3,0,0,1,42.25,38.88Z" style="fill:#f6a016;opacity:0.4;mix-blend-mode:multiply"/><path d="M50.14,34.11A4.15,4.15,0,1,1,46,30,4.15,4.15,0,0,1,50.14,34.11Z" style="fill:#0e393a"/><path d="M43.84,34.83a2.15,2.15,0,1,1-2.15-2.15A2.15,2.15,0,0,1,43.84,34.83Z" style="fill:#fff"/><circle cx="15.47" cy="34.11" r="8.3" style="fill:#ffd736"/><path d="M15.47,38.88a8.31,8.31,0,0,0,8.11-6.53,8.55,8.55,0,0,1,.19,1.76,8.3,8.3,0,0,1-16.6,0,8.55,8.55,0,0,1,.19-1.76A8.3,8.3,0,0,0,15.47,38.88Z" style="fill:#f6a016;opacity:0.4;mix-blend-mode:multiply"/><circle cx="18.89" cy="34.11" r="4.15" style="fill:#0e393a"/><path d="M12.59,34.83a2.16,2.16,0,1,0,2.15-2.15A2.15,2.15,0,0,0,12.59,34.83Z" style="fill:#fff"/><path d="M11.09,30.8H47.74a3,3,0,0,0,3-3h0a3,3,0,0,0-3-3H11.09a3,3,0,0,0-3,3h0A3,3,0,0,0,11.09,30.8Z" style="fill:#f84441"/><path d="M17.21,46H41.78a2.94,2.94,0,0,0,2.93-2.93h0a2.94,2.94,0,0,0-2.93-2.93H17.21a2.94,2.94,0,0,0-2.93,2.93h0A2.94,2.94,0,0,0,17.21,46Z" style="fill:#183e40"/><path d="M11.89,28.61h35a3.9,3.9,0,0,0,3.52-1.88,2.44,2.44,0,0,1,.27,1.09h0c0,1.64-1.71,3-3.79,3h-35c-2.08,0-3.78-1.34-3.78-3h0a2.44,2.44,0,0,1,.27-1.09A3.89,3.89,0,0,0,11.89,28.61Z" style="fill:#31cbd1;opacity:0.19;mix-blend-mode:multiply"/><path d="M16.15,42.22h26.7a1.07,1.07,0,0,1,0,2.14H16.15a1.07,1.07,0,1,1,0-2.14m0-3a4.09,4.09,0,0,0-4.08,4.07h0a4.09,4.09,0,0,0,4.08,4.07h26.7a4.08,4.08,0,0,0,4.07-4.07h0a4.08,4.08,0,0,0-4.07-4.07Z" style="fill:#61f9ff"/><g style="mix-blend-mode:multiply"><path d="M42.85,45.58H16.15a1.09,1.09,0,0,1-1.08-1.07,1.06,1.06,0,0,1,.2-.61,1.08,1.08,0,0,0,.88.46h26.7a1,1,0,0,0,.87-.46,1,1,0,0,1,.2.61A1.08,1.08,0,0,1,42.85,45.58Z" style="fill:#31cbd1;opacity:0.31;mix-blend-mode:multiply"/><path d="M16.15,39.22h26.7a4.08,4.08,0,0,1,4.07,4.07h0a4.07,4.07,0,0,1-.05.61,4.08,4.08,0,0,0-4-3.47H16.15a4.09,4.09,0,0,0-4,3.47,4.07,4.07,0,0,1,0-.61h0A4.09,4.09,0,0,1,16.15,39.22Z" style="fill:#31cbd1;opacity:0.31;mix-blend-mode:multiply"/></g><path d="M40.68,47h0a2.17,2.17,0,0,0,2.17-2.17V42.93H38.51v1.85A2.17,2.17,0,0,0,40.68,47Z" style="fill:#31cbd1;opacity:0.31;mix-blend-mode:multiply"/><path d="M33.83,47h0A2.17,2.17,0,0,0,36,44.78V42.93H31.66v1.85A2.17,2.17,0,0,0,33.83,47Z" style="fill:#31cbd1;opacity:0.31;mix-blend-mode:multiply"/><path d="M29.5,47h0a2.17,2.17,0,0,0,2.17-2.17V42.93H27.33v1.85A2.17,2.17,0,0,0,29.5,47Z" style="fill:#31cbd1;opacity:0.31;mix-blend-mode:multiply"/><path d="M22.41,47h0a2.17,2.17,0,0,0,2.17-2.17V42.93H20.24v1.85A2.17,2.17,0,0,0,22.41,47Z" style="fill:#31cbd1;opacity:0.31;mix-blend-mode:multiply"/><path d="M18.07,47h0a2.17,2.17,0,0,0,2.17-2.17V42.93H15.91v1.85A2.17,2.17,0,0,0,18.07,47Z" style="fill:#31cbd1;opacity:0.31;mix-blend-mode:multiply"/><path d="M40.68,46.24h0a2.18,2.18,0,0,0,2.17-2.17V42.22H38.51v1.85A2.18,2.18,0,0,0,40.68,46.24Z" style="fill:#fdf1d0"/><path d="M33.83,46.24h0A2.18,2.18,0,0,0,36,44.07V42.22H31.66v1.85A2.18,2.18,0,0,0,33.83,46.24Z" style="fill:#fdf1d0"/><path d="M29.5,46.24h0a2.18,2.18,0,0,0,2.17-2.17V42.22H27.33v1.85A2.17,2.17,0,0,0,29.5,46.24Z" style="fill:#fdf1d0"/><path d="M22.41,46.24h0a2.18,2.18,0,0,0,2.17-2.17V42.22H20.24v1.85A2.18,2.18,0,0,0,22.41,46.24Z" style="fill:#fdf1d0"/><path d="M18.07,46.24h0a2.17,2.17,0,0,0,2.17-2.17V42.22H15.91v1.85A2.17,2.17,0,0,0,18.07,46.24Z" style="fill:#fdf1d0"/><path d="M40.68,44a2.16,2.16,0,0,1-2.13-1.82h4.26A2.16,2.16,0,0,1,40.68,44Z" style="fill:#fbe3a2"/><path d="M33.83,44a2.17,2.17,0,0,1-2.13-1.82H36A2.15,2.15,0,0,1,33.83,44Z" style="fill:#fbe3a2"/><path d="M29.5,44a2.17,2.17,0,0,1-2.14-1.82h4.27A2.17,2.17,0,0,1,29.5,44Z" style="fill:#fbe3a2"/><path d="M22.41,44h0a2.17,2.17,0,0,1-2.13-1.82h4.26A2.15,2.15,0,0,1,22.41,44Z" style="fill:#fbe3a2"/><path d="M18.07,44a2.17,2.17,0,0,1-2.13-1.82h4.27A2.17,2.17,0,0,1,18.07,44Z" style="fill:#fbe3a2"/></g></g></g></svg>