<svg xmlns="http://www.w3.org/2000/svg" viewBox="0 0 750.86 760.01"><g id="Layer_2" data-name="Layer 2"><g id="Layer_1-2" data-name="Layer 1"><path d="M741.57,628a20,20,0,0,0-5.93-12.66L436.32,316A227.24,227.24,0,0,0,66.49,66.53c-88.64,88.6-88.66,232.71,0,321.3A227.17,227.17,0,0,0,316,436.42l98.33,98.4a20.56,20.56,0,0,0,15.3,6l53.59-1.88-1.75,53.72a20.51,20.51,0,0,0,21.15,21.21L556.36,612l-1.93,53.66a20.91,20.91,0,0,0,6,15.23,19.69,19.69,0,0,0,15.31,6l53.65-1.83-1.8,53.67A20.4,20.4,0,0,0,634,754.51a20.63,20.63,0,0,0,14,5.5c.74,0,1.5,0,2.26-.1l82.27-9.14a20.62,20.62,0,0,0,18.26-22.27ZM199.71,199.77a64.58,64.58,0,1,1,0-91.33A64.54,64.54,0,0,1,199.71,199.77Zm471.64,435.1a15.54,15.54,0,0,1-21.87,0L394.81,380.12A216.27,216.27,0,0,0,414.2,356L671.35,613.06A15.46,15.46,0,0,1,671.35,634.87Z" style="fill:#4deeea"/></g></g></svg>