<svg xmlns="http://www.w3.org/2000/svg" xmlns:xlink="http://www.w3.org/1999/xlink" viewBox="0 0 217.93 160.76"><defs><linearGradient id="Degradado_sin_nombre_2" x1="16.89" y1="110.37" x2="16.89" y2="87.81" gradientTransform="matrix(1, -0.04, 0.04, 1, 87.98, -87.12)" gradientUnits="userSpaceOnUse"><stop offset="0" stop-color="#ff8410"/><stop offset="1" stop-color="#bf0f00"/></linearGradient><linearGradient id="Degradado_sin_nombre_40" x1="108.71" y1="22.55" x2="108.71" gradientUnits="userSpaceOnUse"><stop offset="0.12" stop-color="#781f5b"/><stop offset="0.17" stop-color="#873356"/><stop offset="0.32" stop-color="#a8624a"/><stop offset="0.46" stop-color="#c48940"/><stop offset="0.6" stop-color="#daa738"/><stop offset="0.74" stop-color="#eabd32"/><stop offset="0.88" stop-color="#f3ca2f"/><stop offset="1" stop-color="#f6ce2e"/></linearGradient><linearGradient id="Degradado_sin_nombre_2-2" x1="199.21" y1="139.09" x2="199.21" y2="116.54" gradientTransform="translate(-20.54 -166.42) rotate(17.49)" xlink:href="#Degradado_sin_nombre_2"/><linearGradient id="Degradado_sin_nombre_40-2" x1="129.91" y1="26.49" x2="129.91" y2="4.62" xlink:href="#Degradado_sin_nombre_40"/><linearGradient id="Degradado_sin_nombre_2-3" x1="380.41" y1="106.46" x2="380.41" y2="83.91" gradientTransform="matrix(0.8, 0.6, -0.6, 0.8, -95.02, -278.71)" xlink:href="#Degradado_sin_nombre_2"/><linearGradient id="Degradado_sin_nombre_40-3" x1="149.34" y1="37.32" x2="149.34" y2="17.8" xlink:href="#Degradado_sin_nombre_40"/><linearGradient id="Degradado_sin_nombre_2-4" x1="345.28" y1="93.06" x2="345.28" y2="70.5" gradientTransform="matrix(-0.95, 0.3, 0.3, 0.95, 389.37, -166.42)" xlink:href="#Degradado_sin_nombre_2"/><linearGradient id="Degradado_sin_nombre_40-4" x1="85.76" y1="26.49" x2="85.76" y2="4.62" xlink:href="#Degradado_sin_nombre_40"/><linearGradient id="Degradado_sin_nombre_2-5" x1="502.52" y1="14.02" x2="502.52" y2="-8.54" gradientTransform="matrix(-0.8, 0.6, 0.6, 0.8, 463.85, -278.71)" xlink:href="#Degradado_sin_nombre_2"/><linearGradient id="Degradado_sin_nombre_40-5" x1="66.34" y1="37.32" x2="66.34" y2="17.8" xlink:href="#Degradado_sin_nombre_40"/><linearGradient id="Degradado_sin_nombre_44" x1="136.41" y1="86.69" x2="204.33" y2="86.69" gradientUnits="userSpaceOnUse"><stop offset="0.54" stop-color="#781f5b"/><stop offset="0.62" stop-color="#9a4e4f"/><stop offset="0.71" stop-color="#bb7c43"/><stop offset="0.79" stop-color="#d49f3a"/><stop offset="0.87" stop-color="#e7b933"/><stop offset="0.94" stop-color="#f2c92f"/><stop offset="1" stop-color="#f6ce2e"/></linearGradient><linearGradient id="Degradado_sin_nombre_44-2" x1="139.16" y1="46.52" x2="191.07" y2="46.52" xlink:href="#Degradado_sin_nombre_44"/><linearGradient id="Degradado_sin_nombre_44-3" x1="71.71" y1="96.76" x2="19.24" y2="66.46" xlink:href="#Degradado_sin_nombre_44"/><linearGradient id="Degradado_sin_nombre_44-4" x1="78.37" y1="65.28" x2="21.16" y2="32.25" xlink:href="#Degradado_sin_nombre_44"/><linearGradient id="Degradado_sin_nombre_2-6" x1="72.51" y1="257.59" x2="72.51" y2="269.46" gradientTransform="matrix(0.87, 0.49, 0.49, -0.87, 7.71, 259.33)" xlink:href="#Degradado_sin_nombre_2"/><linearGradient id="Degradado_sin_nombre_2-7" x1="84.36" y1="257.59" x2="84.36" y2="269.46" gradientTransform="matrix(0.87, 0.49, 0.49, -0.87, 7.71, 259.33)" xlink:href="#Degradado_sin_nombre_2"/><linearGradient id="Degradado_sin_nombre_2-8" x1="135.13" y1="256.27" x2="145.44" y2="256.27" gradientTransform="translate(186.61 360.31) rotate(-150.46)" xlink:href="#Degradado_sin_nombre_2"/><linearGradient id="Degradado_sin_nombre_44-5" x1="78.36" y1="267.16" x2="78.36" y2="244.74" gradientTransform="matrix(1, 0, 0, -1, 123.7, 331.22)" xlink:href="#Degradado_sin_nombre_44"/><linearGradient id="Degradado_sin_nombre_44-6" x1="75.7" y1="257.89" x2="69.31" y2="269.16" gradientTransform="matrix(0.87, 0.49, 0.49, -0.87, 7.71, 259.33)" xlink:href="#Degradado_sin_nombre_44"/><linearGradient id="Degradado_sin_nombre_44-7" x1="87.55" y1="257.89" x2="81.16" y2="269.16" gradientTransform="matrix(0.87, 0.49, 0.49, -0.87, 7.71, 259.33)" xlink:href="#Degradado_sin_nombre_44"/><linearGradient id="Degradado_sin_nombre_44-8" x1="135.96" y1="248.63" x2="144.62" y2="263.91" gradientTransform="translate(186.61 360.31) rotate(-150.46)" xlink:href="#Degradado_sin_nombre_44"/><linearGradient id="Degradado_sin_nombre_2-9" x1="104.66" y1="546.09" x2="104.66" y2="557.97" gradientTransform="matrix(1, 0.03, 0.03, -1, 57.09, 563.78)" xlink:href="#Degradado_sin_nombre_2"/><linearGradient id="Degradado_sin_nombre_2-10" x1="116.51" y1="546.09" x2="116.51" y2="557.97" gradientTransform="matrix(1, 0.03, 0.03, -1, 57.09, 563.78)" xlink:href="#Degradado_sin_nombre_2"/><linearGradient id="Degradado_sin_nombre_2-11" x1="103.45" y1="544.96" x2="113.76" y2="544.96" gradientTransform="matrix(-1, -0.03, 0.03, -1, 262.9, 569.68)" xlink:href="#Degradado_sin_nombre_2"/><linearGradient id="Degradado_sin_nombre_44-9" x1="110.51" y1="555.66" x2="110.51" y2="533.24" gradientTransform="matrix(1, 0, 0, -1, 73.04, 567.26)" xlink:href="#Degradado_sin_nombre_44"/><linearGradient id="Degradado_sin_nombre_44-10" x1="104.84" y1="546.06" x2="104.49" y2="558" gradientTransform="matrix(1, 0.03, 0.03, -1, 57.09, 563.78)" xlink:href="#Degradado_sin_nombre_44"/><linearGradient id="Degradado_sin_nombre_44-11" x1="116.69" y1="546.06" x2="116.34" y2="558" gradientTransform="matrix(1, 0.03, 0.03, -1, 57.09, 563.78)" xlink:href="#Degradado_sin_nombre_44"/><linearGradient id="Degradado_sin_nombre_44-12" x1="108.33" y1="535.63" x2="108.88" y2="554.28" gradientTransform="matrix(-1, -0.03, 0.03, -1, 262.9, 569.68)" xlink:href="#Degradado_sin_nombre_44"/><linearGradient id="Degradado_sin_nombre_2-12" x1="587.31" y1="549.28" x2="587.31" y2="561.15" gradientTransform="translate(801.95 259.33) rotate(150.46)" xlink:href="#Degradado_sin_nombre_2"/><linearGradient id="Degradado_sin_nombre_2-13" x1="599.16" y1="549.28" x2="599.16" y2="561.15" gradientTransform="translate(801.95 259.33) rotate(150.46)" xlink:href="#Degradado_sin_nombre_2"/><linearGradient id="Degradado_sin_nombre_2-14" x1="-379.67" y1="547.96" x2="-369.37" y2="547.96" gradientTransform="matrix(0.87, -0.49, -0.49, -0.87, 623.05, 360.31)" xlink:href="#Degradado_sin_nombre_2"/><linearGradient id="Degradado_sin_nombre_44-13" x1="593.16" y1="558.85" x2="593.16" y2="536.43" gradientTransform="translate(-577.35 -472.4)" xlink:href="#Degradado_sin_nombre_44"/><linearGradient id="Degradado_sin_nombre_44-14" x1="590.51" y1="549.58" x2="584.12" y2="560.85" gradientTransform="translate(801.95 259.33) rotate(150.46)" xlink:href="#Degradado_sin_nombre_44"/><linearGradient id="Degradado_sin_nombre_44-15" x1="602.36" y1="549.58" x2="595.97" y2="560.85" gradientTransform="translate(801.95 259.33) rotate(150.46)" xlink:href="#Degradado_sin_nombre_44"/><linearGradient id="Degradado_sin_nombre_44-16" x1="-378.85" y1="540.32" x2="-370.19" y2="555.6" gradientTransform="matrix(0.87, -0.49, -0.49, -0.87, 623.05, 360.31)" xlink:href="#Degradado_sin_nombre_44"/><linearGradient id="Degradado_sin_nombre_2-15" x1="698.37" y1="563.55" x2="698.37" y2="575.43" gradientTransform="matrix(-1, 0.03, -0.03, -1, 752.57, 563.78)" xlink:href="#Degradado_sin_nombre_2"/><linearGradient id="Degradado_sin_nombre_2-16" x1="710.23" y1="563.55" x2="710.23" y2="575.43" gradientTransform="matrix(-1, 0.03, -0.03, -1, 752.57, 563.78)" xlink:href="#Degradado_sin_nombre_2"/><linearGradient id="Degradado_sin_nombre_2-17" x1="-490.26" y1="562.42" x2="-479.95" y2="562.42" gradientTransform="matrix(1, -0.03, -0.03, -1, 546.76, 569.68)" xlink:href="#Degradado_sin_nombre_2"/><linearGradient id="Degradado_sin_nombre_44-17" x1="704.22" y1="573.12" x2="704.22" y2="550.7" gradientTransform="matrix(1, 0, 0, 1, -672.14, -539.13)" xlink:href="#Degradado_sin_nombre_44"/><linearGradient id="Degradado_sin_nombre_44-18" x1="698.55" y1="563.52" x2="698.2" y2="575.46" gradientTransform="matrix(-1, 0.03, -0.03, -1, 752.57, 563.78)" xlink:href="#Degradado_sin_nombre_44"/><linearGradient id="Degradado_sin_nombre_44-19" x1="710.4" y1="563.52" x2="710.05" y2="575.46" gradientTransform="matrix(-1, 0.03, -0.03, -1, 752.57, 563.78)" xlink:href="#Degradado_sin_nombre_44"/><linearGradient id="Degradado_sin_nombre_44-20" x1="-485.38" y1="553.1" x2="-484.83" y2="571.75" gradientTransform="matrix(1, -0.03, -0.03, -1, 546.76, 569.68)" xlink:href="#Degradado_sin_nombre_44"/><linearGradient id="Degradado_sin_nombre_3" x1="60.01" y1="112.48" x2="18.63" y2="136.37" gradientUnits="userSpaceOnUse"><stop offset="0.12" stop-color="#781f5b"/><stop offset="0.16" stop-color="#863356"/><stop offset="0.25" stop-color="#a45c4b"/><stop offset="0.35" stop-color="#bd7f42"/><stop offset="0.45" stop-color="#d29c3b"/><stop offset="0.56" stop-color="#e2b235"/><stop offset="0.68" stop-color="#edc231"/><stop offset="0.81" stop-color="#f4cb2f"/><stop offset="1" stop-color="#f6ce2e"/></linearGradient><linearGradient id="Degradado_sin_nombre_3-2" x1="71.87" y1="113.21" x2="27.39" y2="138.9" xlink:href="#Degradado_sin_nombre_3"/><linearGradient id="Degradado_sin_nombre_3-3" x1="93.95" y1="117.44" x2="49.46" y2="143.12" xlink:href="#Degradado_sin_nombre_3"/><linearGradient id="Degradado_sin_nombre_3-4" x1="137.94" y1="112.48" x2="96.56" y2="136.37" gradientTransform="matrix(-1, 0, 0, 1, 297.19, 0)" xlink:href="#Degradado_sin_nombre_3"/><linearGradient id="Degradado_sin_nombre_3-5" x1="149.8" y1="113.21" x2="105.32" y2="138.9" gradientTransform="matrix(-1, 0, 0, 1, 297.19, 0)" xlink:href="#Degradado_sin_nombre_3"/><linearGradient id="Degradado_sin_nombre_3-6" x1="171.88" y1="117.44" x2="127.4" y2="143.12" gradientTransform="matrix(-1, 0, 0, 1, 297.19, 0)" xlink:href="#Degradado_sin_nombre_3"/><linearGradient id="Degradado_sin_nombre_3-7" x1="108.96" y1="145.02" x2="108.96" y2="17.6" xlink:href="#Degradado_sin_nombre_3"/><linearGradient id="Degradado_sin_nombre_43" x1="-18.4" y1="226.96" x2="-18.4" y2="196.01" gradientTransform="translate(138.58 -133.96) rotate(18.4)" gradientUnits="userSpaceOnUse"><stop offset="0.36" stop-color="#781f5b"/><stop offset="0.45" stop-color="#7b235a"/><stop offset="0.55" stop-color="#853057"/><stop offset="0.65" stop-color="#944651"/><stop offset="0.75" stop-color="#aa6449"/><stop offset="0.86" stop-color="#c68b3f"/><stop offset="0.96" stop-color="#e8ba33"/><stop offset="1" stop-color="#f6ce2e"/></linearGradient><linearGradient id="Degradado_sin_nombre_43-2" x1="120.67" y1="36.79" x2="120.67" y2="5.84" gradientTransform="translate(-68.93 97.57) rotate(-10.95)" xlink:href="#Degradado_sin_nombre_43"/><linearGradient id="Degradado_sin_nombre_43-3" x1="1000.97" y1="-47.7" x2="1000.97" y2="-78.65" gradientTransform="matrix(-0.96, 0.28, 0.28, 0.96, 1141.59, -162.59)" xlink:href="#Degradado_sin_nombre_43"/><linearGradient id="Degradado_sin_nombre_43-4" x1="1018.57" y1="-62.71" x2="1018.57" y2="-81.14" gradientTransform="matrix(-0.96, 0.28, 0.28, 0.96, 1141.59, -162.59)" xlink:href="#Degradado_sin_nombre_43"/><linearGradient id="Degradado_sin_nombre_43-5" x1="245.93" y1="165.97" x2="245.93" y2="147.53" gradientTransform="translate(-115.49 -162.59) rotate(16.49)" xlink:href="#Degradado_sin_nombre_43"/><linearGradient id="Degradado_sin_nombre_43-6" x1="1147.49" y1="191.38" x2="1147.49" y2="160.42" gradientTransform="matrix(-0.99, -0.16, -0.16, 0.99, 1325.4, 100.97)" xlink:href="#Degradado_sin_nombre_43"/><linearGradient id="Degradado_sin_nombre_3-8" x1="109.63" y1="66.67" x2="109.63" y2="30.23" xlink:href="#Degradado_sin_nombre_3"/><linearGradient id="Degradado_sin_nombre_2-18" x1="120.31" y1="136.14" x2="120.31" y2="114.05" gradientTransform="translate(26.37 -132.24) rotate(11.35)" xlink:href="#Degradado_sin_nombre_2"/><linearGradient id="Degradado_sin_nombre_2-19" x1="312.71" y1="121.09" x2="312.71" y2="99" gradientTransform="matrix(0.85, 0.53, -0.53, 0.85, -66.1, -236.21)" xlink:href="#Degradado_sin_nombre_2"/><linearGradient id="Degradado_sin_nombre_2-20" x1="-221.05" y1="-29.69" x2="-221.05" y2="-51.78" gradientTransform="translate(286.99 -51.89) rotate(-29.66)" xlink:href="#Degradado_sin_nombre_2"/><linearGradient id="Degradado_sin_nombre_40-6" x1="76.57" y1="32.68" x2="76.57" y2="12.51" xlink:href="#Degradado_sin_nombre_40"/><linearGradient id="Degradado_sin_nombre_2-21" x1="-65.95" y1="84.58" x2="-65.95" y2="62.49" gradientTransform="matrix(0.99, -0.16, 0.16, 0.99, 149.92, -69.07)" xlink:href="#Degradado_sin_nombre_2"/><linearGradient id="Degradado_sin_nombre_40-7" x1="97.09" y1="25.03" x2="97.09" y2="3.13" xlink:href="#Degradado_sin_nombre_40"/><linearGradient id="Degradado_sin_nombre_40-8" x1="119" y1="25.07" x2="119" y2="3.26" xlink:href="#Degradado_sin_nombre_40"/><linearGradient id="Degradado_sin_nombre_40-9" x1="139.7" y1="32.78" x2="139.7" y2="12.89" xlink:href="#Degradado_sin_nombre_40"/><linearGradient id="Degradado_sin_nombre_2-22" x1="-317.45" y1="-139.31" x2="-317.45" y2="-149.51" gradientTransform="matrix(0.74, -0.67, 0.67, 0.74, 411.9, -70.36)" xlink:href="#Degradado_sin_nombre_2"/><linearGradient id="Degradado_sin_nombre_40-10" x1="108.03" y1="72.53" x2="106.84" y2="64.16" gradientTransform="matrix(0.99, 0.14, -0.14, 0.99, -16.71, -47.57)" xlink:href="#Degradado_sin_nombre_40"/><linearGradient id="Degradado_sin_nombre_2-23" x1="-205.84" y1="15.75" x2="-205.84" y2="5.56" gradientTransform="matrix(0.92, -0.38, 0.38, 0.92, 278.71, -62.13)" xlink:href="#Degradado_sin_nombre_2"/><linearGradient id="Degradado_sin_nombre_40-11" x1="300.94" y1="84.57" x2="296.46" y2="75.99" gradientTransform="translate(-134.23 -182.42) rotate(27.56)" xlink:href="#Degradado_sin_nombre_40"/><linearGradient id="Degradado_sin_nombre_2-24" x1="-48.5" y1="124.32" x2="-48.5" y2="114.13" gradientTransform="matrix(1, -0.06, 0.06, 1, 149.86, -98.04)" xlink:href="#Degradado_sin_nombre_2"/><linearGradient id="Degradado_sin_nombre_40-12" x1="485.54" y1="32.77" x2="478.09" y2="25.82" gradientTransform="matrix(0.68, 0.73, -0.73, 0.68, -199.17, -348.54)" xlink:href="#Degradado_sin_nombre_40"/><linearGradient id="Degradado_sin_nombre_2-25" x1="136.85" y1="175.32" x2="136.85" y2="165.12" gradientTransform="translate(39.71 -175.84) rotate(16.23)" xlink:href="#Degradado_sin_nombre_2"/><linearGradient id="Degradado_sin_nombre_40-13" x1="643.54" y1="-77.34" x2="634.44" y2="-81.31" gradientTransform="matrix(0.4, 0.92, -0.92, 0.4, -205.49, -527.84)" xlink:href="#Degradado_sin_nombre_40"/><linearGradient id="Degradado_sin_nombre_2-26" x1="327.26" y1="161.21" x2="327.26" y2="151.02" gradientTransform="translate(-37.56 -284.6) rotate(35.65)" xlink:href="#Degradado_sin_nombre_2"/><linearGradient id="Degradado_sin_nombre_40-14" x1="755.2" y1="-234.19" x2="746.3" y2="-234.84" gradientTransform="translate(-152.01 -698.3) rotate(85.81)" xlink:href="#Degradado_sin_nombre_40"/></defs><g style="isolation:isolate"><g id="Layer_2" data-name="Layer 2"><g id="OBJECTS"><path d="M109,22.54h0a7.52,7.52,0,0,1-6.93-11h0L108.15,0l6.93,11h0A7.52,7.52,0,0,1,109,22.54Z" style="fill:url(#Degradado_sin_nombre_2)"/><path d="M115.08,11h0L108.15,0l-.73,1.37,6.11,9.71h0a7.52,7.52,0,0,1-5.31,11.45c.25,0,.51,0,.78,0h0A7.52,7.52,0,0,0,115.08,11Z" style="fill:#ff8410"/><path d="M116,13a7.5,7.5,0,0,1-7.09,6h0a7.5,7.5,0,0,1-7.52-5.48,7.53,7.53,0,0,0,7.66,9h0A7.52,7.52,0,0,0,116,13Z" style="fill:#bf630c;opacity:0.4;mix-blend-mode:multiply"/><path d="M109,22.54h0a7.52,7.52,0,0,1-6.93-11h0L108.15,0l6.93,11h0A7.52,7.52,0,0,1,109,22.54Z" style="fill:url(#Degradado_sin_nombre_40)"/><path d="M109,28.15h0a7.51,7.51,0,0,1-6.93-11h0l6.08-11.52,6.93,11h0A7.51,7.51,0,0,1,109,28.15Z" style="fill:#63244e;opacity:0.30000000000000004;mix-blend-mode:multiply"/><path d="M115.08,11h0L108.15,0l-.73,1.37,6.11,9.71h0a7.52,7.52,0,0,1-5.31,11.45c.25,0,.51,0,.78,0h0A7.52,7.52,0,0,0,115.08,11Z" style="fill:#f6ce2e"/><path d="M127.65,26.13h0a7.52,7.52,0,0,1-2.82-12.71h0l9.6-8.8,2.82,12.71h0a7.52,7.52,0,0,1-9.6,8.8Z" style="fill:url(#Degradado_sin_nombre_2-2)"/><path d="M137.25,17.33h0L134.43,4.62l-1.14,1,2.48,11.19h0a7.52,7.52,0,0,1-8.84,9,7.66,7.66,0,0,0,.72.27h0A7.52,7.52,0,0,0,137.25,17.33Z" style="fill:#ff8410"/><path d="M137.42,19.45a7.49,7.49,0,0,1-8.7,3.29h0a7.49,7.49,0,0,1-5.24-7.68,7.52,7.52,0,0,0,4.17,11.07h0A7.52,7.52,0,0,0,137.42,19.45Z" style="fill:#bf630c;opacity:0.4;mix-blend-mode:multiply"/><path d="M127.65,26.13h0a7.52,7.52,0,0,1-2.82-12.71h0l9.6-8.8,2.82,12.71h0a7.52,7.52,0,0,1-9.6,8.8Z" style="fill:url(#Degradado_sin_nombre_40-2)"/><path d="M125.77,31.42h0A7.51,7.51,0,0,1,123,18.71h0l9.6-8.8,2.82,12.71h0a7.52,7.52,0,0,1-9.6,8.8Z" style="fill:#63244e;opacity:0.30000000000000004;mix-blend-mode:multiply"/><path d="M137.25,17.33h0L134.43,4.62l-1.14,1,2.48,11.19h0a7.52,7.52,0,0,1-8.84,9,7.66,7.66,0,0,0,.72.27h0A7.52,7.52,0,0,0,137.25,17.33Z" style="fill:#f6ce2e"/><path d="M144,35.78h0a7.51,7.51,0,0,1,1.62-12.92h0l12-5.06L156,30.72h0a7.52,7.52,0,0,1-12,5.06Z" style="fill:url(#Degradado_sin_nombre_2-3)"/><path d="M156,30.72h0l1.61-12.92-1.43.6-1.42,11.39h0a7.52,7.52,0,0,1-11.35,5.49,7.38,7.38,0,0,0,.59.5h0A7.52,7.52,0,0,0,156,30.72Z" style="fill:#ff8410"/><path d="M155.46,32.78a7.5,7.5,0,0,1-9.3.17h0a7.49,7.49,0,0,1-2.35-9A7.52,7.52,0,0,0,144,35.78h0A7.52,7.52,0,0,0,155.46,32.78Z" style="fill:#bf630c;opacity:0.4;mix-blend-mode:multiply"/><path d="M144,35.78h0a7.51,7.51,0,0,1,1.62-12.92h0l12-5.06L156,30.72h0a7.52,7.52,0,0,1-12,5.06Z" style="fill:url(#Degradado_sin_nombre_40-3)"/><path d="M140.46,40.13h0a7.52,7.52,0,0,1,1.62-12.92h0l12-5.06-1.62,12.92h0a7.52,7.52,0,0,1-12,5.06Z" style="fill:#63244e;opacity:0.30000000000000004;mix-blend-mode:multiply"/><path d="M156,30.72h0l1.61-12.92-1.43.6-1.42,11.39h0a7.52,7.52,0,0,1-11.35,5.49,7.38,7.38,0,0,0,.59.5h0A7.52,7.52,0,0,0,156,30.72Z" style="fill:#f6ce2e"/><path d="M88,26.13h0a7.51,7.51,0,0,0,2.82-12.71h0l-9.6-8.8L78.42,17.33h0a7.52,7.52,0,0,0,9.6,8.8Z" style="fill:url(#Degradado_sin_nombre_2-4)"/><path d="M78.42,17.33h0L81.24,4.62l1.15,1L79.9,16.86h0a7.52,7.52,0,0,0,8.85,9c-.24.1-.48.19-.73.27h0A7.52,7.52,0,0,1,78.42,17.33Z" style="fill:#ff8410"/><path d="M78.25,19.45A7.5,7.5,0,0,0,87,22.74h0a7.49,7.49,0,0,0,5.25-7.68A7.53,7.53,0,0,1,88,26.13h0A7.53,7.53,0,0,1,78.25,19.45Z" style="fill:#bf630c;opacity:0.4;mix-blend-mode:multiply"/><path d="M88,26.13h0a7.51,7.51,0,0,0,2.82-12.71h0l-9.6-8.8L78.42,17.33h0a7.52,7.52,0,0,0,9.6,8.8Z" style="fill:url(#Degradado_sin_nombre_40-4)"/><path d="M89.91,31.42h0a7.51,7.51,0,0,0,2.82-12.71h0l-9.6-8.8L80.31,22.62h0a7.52,7.52,0,0,0,9.6,8.8Z" style="fill:#63244e;opacity:0.30000000000000004;mix-blend-mode:multiply"/><path d="M78.42,17.33h0L81.24,4.62l1.15,1L79.9,16.86h0a7.52,7.52,0,0,0,8.85,9c-.24.1-.48.19-.73.27h0A7.52,7.52,0,0,1,78.42,17.33Z" style="fill:#f6ce2e"/><path d="M71.66,35.78h0A7.52,7.52,0,0,0,70,22.86h0L58,17.8l1.62,12.92h0a7.51,7.51,0,0,0,12,5.06Z" style="fill:url(#Degradado_sin_nombre_2-5)"/><path d="M59.66,30.72h0L58,17.8l1.43.6,1.42,11.39h0a7.52,7.52,0,0,0,11.36,5.49c-.19.17-.38.34-.59.5h0A7.51,7.51,0,0,1,59.66,30.72Z" style="fill:#ff8410"/><path d="M60.21,32.78a7.5,7.5,0,0,0,9.3.17h0a7.51,7.51,0,0,0,2.36-9,7.53,7.53,0,0,1-.21,11.83h0A7.53,7.53,0,0,1,60.21,32.78Z" style="fill:#bf630c;opacity:0.4;mix-blend-mode:multiply"/><path d="M71.66,35.78h0A7.52,7.52,0,0,0,70,22.86h0L58,17.8l1.62,12.92h0a7.51,7.51,0,0,0,12,5.06Z" style="fill:url(#Degradado_sin_nombre_40-5)"/><path d="M75.21,40.13h0a7.52,7.52,0,0,0-1.62-12.92h0l-12-5.06,1.62,12.92h0a7.52,7.52,0,0,0,12,5.06Z" style="fill:#63244e;opacity:0.30000000000000004;mix-blend-mode:multiply"/><path d="M59.66,30.72h0L58,17.8l1.43.6,1.42,11.39h0a7.52,7.52,0,0,0,11.36,5.49c-.19.17-.38.34-.59.5h0A7.51,7.51,0,0,1,59.66,30.72Z" style="fill:#f6ce2e"/><path d="M170.37,99a45.11,45.11,0,0,1-32-13.24,6.63,6.63,0,0,1,9.37-9.38,32,32,0,0,0,45.28,0,6.63,6.63,0,1,1,9.38,9.38A45.13,45.13,0,0,1,170.37,99Z" style="fill:url(#Degradado_sin_nombre_44)"/><path d="M203,77A6.82,6.82,0,0,1,201.64,79a45.33,45.33,0,0,1-64,0,6.34,6.34,0,0,1-.59-.69,6.61,6.61,0,0,0,1.34,7.44,45.33,45.33,0,0,0,64,0A6.63,6.63,0,0,0,203,77Z" style="fill:#63244e;opacity:0.30000000000000004;mix-blend-mode:multiply"/><path d="M145.8,72.48a6.63,6.63,0,1,1,0-13.26,32.06,32.06,0,0,0,32-32,6.63,6.63,0,1,1,13.26,0A45.33,45.33,0,0,1,145.8,72.48Z" style="fill:url(#Degradado_sin_nombre_44-2)"/><path d="M186.3,20.84a6.69,6.69,0,0,1,.27,1.86A45.33,45.33,0,0,1,141.29,68a6.74,6.74,0,0,1-1.86-.27,6.65,6.65,0,0,0,6.37,4.77A45.33,45.33,0,0,0,191.07,27.2,6.61,6.61,0,0,0,186.3,20.84Z" style="fill:#63244e;opacity:0.30000000000000004;mix-blend-mode:multiply"/><path d="M45.8,99a45.12,45.12,0,0,1-32-13.24,6.63,6.63,0,1,1,9.38-9.38,32,32,0,0,0,45.27,0,6.63,6.63,0,1,1,9.38,9.38A45.13,45.13,0,0,1,45.8,99Z" style="fill:url(#Degradado_sin_nombre_44-3)"/><path d="M77.9,76.44A6.61,6.61,0,0,1,76.32,79a45.33,45.33,0,0,1-64,0l-.08-.09a6.64,6.64,0,0,0,1.58,6.84,45.33,45.33,0,0,0,64,0A6.63,6.63,0,0,0,77.9,76.44Z" style="fill:#63244e;opacity:0.30000000000000004;mix-blend-mode:multiply"/><path d="M70.38,72.48A45.33,45.33,0,0,1,25.1,27.2a6.64,6.64,0,0,1,13.27,0,32.06,32.06,0,0,0,32,32,6.63,6.63,0,1,1,0,13.26Z" style="fill:url(#Degradado_sin_nombre_44-4)"/><path d="M73.38,68A45.33,45.33,0,0,1,28.11,22.7a6.74,6.74,0,0,1,.09-1.11,6.64,6.64,0,0,0-3.1,5.61A45.33,45.33,0,0,0,70.38,72.48,6.61,6.61,0,0,0,76.91,67,6.55,6.55,0,0,1,73.38,68Z" style="fill:#63244e;opacity:0.30000000000000004;mix-blend-mode:multiply"/><path d="M204.61,61.16l-1.93-1.09a6,6,0,0,0-8.1,2.24h0a6,6,0,0,0,2.24,8.09l1.93,1.1a6,6,0,0,0,8.1-2.24h0A6,6,0,0,0,204.61,61.16Z" style="fill:url(#Degradado_sin_nombre_2-6)"/><path d="M214.92,67,213,65.91a6,6,0,0,0-8.09,2.24h0a6,6,0,0,0,2.24,8.1l1.93,1.09a6,6,0,0,0,8.09-2.24h0A6,6,0,0,0,214.92,67Z" style="fill:url(#Degradado_sin_nombre_2-7)"/><path d="M195.49,60.05h0a5.18,5.18,0,0,0-7,1.94l-4.11,7.27a5.15,5.15,0,0,0,1.94,7h0a5.17,5.17,0,0,0,7-1.94l4.11-7.27A5.16,5.16,0,0,0,195.49,60.05Z" style="fill:url(#Degradado_sin_nombre_2-8)"/><rect x="188.34" y="64.05" width="27.45" height="22.42" rx="6.26" transform="translate(63.36 -89.83) rotate(29.53)" style="fill:url(#Degradado_sin_nombre_44-5)"/><path d="M190.05,81.34l1.46.82c0-.06.06-.13.1-.2l2.57-4.42a6.29,6.29,0,0,1,8.54-2.37l11.52,6.53c1.54-3,6.1-8.14-.15-12.52l-13-7.35a6.27,6.27,0,0,0-8.53,2.36l-4.88,8.61A6.28,6.28,0,0,0,190.05,81.34Z" style="fill:#63244e;opacity:0.30000000000000004;mix-blend-mode:multiply"/><path d="M204.61,61.16l-1.93-1.09a6,6,0,0,0-8.1,2.24h0a6,6,0,0,0,2.24,8.09l1.93,1.1a6,6,0,0,0,8.1-2.24h0A6,6,0,0,0,204.61,61.16Z" style="fill:url(#Degradado_sin_nombre_44-6)"/><path d="M214.92,67,213,65.91a6,6,0,0,0-8.09,2.24h0a6,6,0,0,0,2.24,8.1l1.93,1.09a6,6,0,0,0,8.09-2.24h0A6,6,0,0,0,214.92,67Z" style="fill:url(#Degradado_sin_nombre_44-7)"/><path d="M212.41,71.28l-1.93-1.09a5.94,5.94,0,0,0-5.42-.21,5.94,5.94,0,0,0-3-4.54l-1.93-1.09a6,6,0,0,0-6.32.3,5.92,5.92,0,0,1,8.83-4.58l1.93,1.09a5.94,5.94,0,0,1,3,4.54,6,6,0,0,1,5.42.21l1.93,1.1a6,6,0,0,1,2.24,8.09A5.8,5.8,0,0,1,215.38,77,6,6,0,0,0,212.41,71.28Z" style="fill:#63244e;opacity:0.30000000000000004;mix-blend-mode:multiply"/><path d="M195.49,60.05h0a5.18,5.18,0,0,0-7,1.94l-4.11,7.27a5.15,5.15,0,0,0,1.94,7h0a5.17,5.17,0,0,0,7-1.94l4.11-7.27A5.16,5.16,0,0,0,195.49,60.05Z" style="fill:url(#Degradado_sin_nombre_44-8)"/><path d="M187.15,76.66a5.09,5.09,0,0,0,1-1.21l4.12-7.26a5.18,5.18,0,0,0-1.95-7,5,5,0,0,0-.86-.38,5.14,5.14,0,0,1,8,6.29l-4.11,7.27A5.17,5.17,0,0,1,187.15,76.66Z" style="fill:#63244e;opacity:0.30000000000000004;mix-blend-mode:multiply"/><path d="M179.22,9.14,177,9.08a6,6,0,0,0-6.11,5.76h0A6,6,0,0,0,176.66,21l2.21.06A5.94,5.94,0,0,0,185,15.25h0A6,6,0,0,0,179.22,9.14Z" style="fill:url(#Degradado_sin_nombre_2-9)"/><path d="M191.07,9.49l-2.22-.06a6,6,0,0,0-6.11,5.76h0a6,6,0,0,0,5.76,6.11l2.22.06a6,6,0,0,0,6.11-5.76h0A6,6,0,0,0,191.07,9.49Z" style="fill:url(#Degradado_sin_nombre_2-10)"/><path d="M170.64,12.42h0a5.16,5.16,0,0,0-5.3,5l-.25,8.34a5.17,5.17,0,0,0,5,5.31h0a5.17,5.17,0,0,0,5.3-5l.25-8.35A5.17,5.17,0,0,0,170.64,12.42Z" style="fill:url(#Degradado_sin_nombre_2-11)"/><rect x="169.84" y="11.58" width="27.45" height="22.42" rx="6.26" transform="translate(0.75 -5.38) rotate(1.68)" style="fill:url(#Degradado_sin_nombre_44-9)"/><path d="M175.78,33.78l1.67,0a1.77,1.77,0,0,1,0-.23l.2-5.11a6.28,6.28,0,0,1,6.44-6.08l13.24.39c0-3.34,1.59-10-6-11l-14.92-.44A6.28,6.28,0,0,0,170,17.44l-.29,9.9A6.28,6.28,0,0,0,175.78,33.78Z" style="fill:#63244e;opacity:0.30000000000000004;mix-blend-mode:multiply"/><path d="M179.22,9.14,177,9.08a6,6,0,0,0-6.11,5.76h0A6,6,0,0,0,176.66,21l2.21.06A5.94,5.94,0,0,0,185,15.25h0A6,6,0,0,0,179.22,9.14Z" style="fill:url(#Degradado_sin_nombre_44-10)"/><path d="M191.07,9.49l-2.22-.06a6,6,0,0,0-6.11,5.76h0a6,6,0,0,0,5.76,6.11l2.22.06a6,6,0,0,0,6.11-5.76h0A6,6,0,0,0,191.07,9.49Z" style="fill:url(#Degradado_sin_nombre_44-11)"/><path d="M190.85,14.45l-2.22-.07a6,6,0,0,0-4.89,2.34A5.93,5.93,0,0,0,179,14.1L176.78,14a6,6,0,0,0-5.44,3.22,5.88,5.88,0,0,1-.45-2.41A6,6,0,0,1,177,9.08l2.22.06A5.93,5.93,0,0,1,184,11.77a5.93,5.93,0,0,1,4.89-2.34l2.22.06a6,6,0,0,1,5.76,6.11,5.84,5.84,0,0,1-.67,2.54A5.94,5.94,0,0,0,190.85,14.45Z" style="fill:#63244e;opacity:0.30000000000000004;mix-blend-mode:multiply"/><path d="M170.64,12.42h0a5.16,5.16,0,0,0-5.3,5l-.25,8.34a5.17,5.17,0,0,0,5,5.31h0a5.17,5.17,0,0,0,5.3-5l.25-8.35A5.17,5.17,0,0,0,170.64,12.42Z" style="fill:url(#Degradado_sin_nombre_44-12)"/><path d="M171,31a5.14,5.14,0,0,0,.31-1.53l.24-8.35a5.16,5.16,0,0,0-5-5.3,4.9,4.9,0,0,0-.94.07,5.14,5.14,0,0,1,10,1.83l-.25,8.35A5.16,5.16,0,0,1,171,31Z" style="fill:#63244e;opacity:0.30000000000000004;mix-blend-mode:multiply"/><path d="M13.32,61.16l1.93-1.09a6,6,0,0,1,8.09,2.24h0A6,6,0,0,1,21.1,70.4l-1.93,1.1a6,6,0,0,1-8.09-2.24h0A6,6,0,0,1,13.32,61.16Z" style="fill:url(#Degradado_sin_nombre_2-12)"/><path d="M3,67l1.93-1.1A6,6,0,0,1,13,68.15h0a6,6,0,0,1-2.24,8.1L8.86,77.34A6,6,0,0,1,.77,75.1h0A5.94,5.94,0,0,1,3,67Z" style="fill:url(#Degradado_sin_nombre_2-13)"/><path d="M22.44,60.05h0a5.17,5.17,0,0,1,7,1.94l4.12,7.27a5.16,5.16,0,0,1-1.95,7h0a5.16,5.16,0,0,1-7-1.94l-4.12-7.27A5.16,5.16,0,0,1,22.44,60.05Z" style="fill:url(#Degradado_sin_nombre_2-14)"/><rect x="2.13" y="64.05" width="27.45" height="22.42" rx="6.26" transform="translate(66.75 132.93) rotate(150.47)" style="fill:url(#Degradado_sin_nombre_44-13)"/><path d="M27.88,81.34l-1.46.82c0-.06-.07-.13-.11-.2l-2.56-4.42a6.29,6.29,0,0,0-8.54-2.37L3.69,81.7c-1.54-3-6.1-8.14.15-12.52l13-7.35a6.28,6.28,0,0,1,8.54,2.36l4.88,8.61A6.29,6.29,0,0,1,27.88,81.34Z" style="fill:#63244e;opacity:0.30000000000000004;mix-blend-mode:multiply"/><path d="M13.32,61.16l1.93-1.09a6,6,0,0,1,8.09,2.24h0A6,6,0,0,1,21.1,70.4l-1.93,1.1a6,6,0,0,1-8.09-2.24h0A6,6,0,0,1,13.32,61.16Z" style="fill:url(#Degradado_sin_nombre_44-14)"/><path d="M3,67l1.93-1.1A6,6,0,0,1,13,68.15h0a6,6,0,0,1-2.24,8.1L8.86,77.34A6,6,0,0,1,.77,75.1h0A5.94,5.94,0,0,1,3,67Z" style="fill:url(#Degradado_sin_nombre_44-15)"/><path d="M5.52,71.28l1.93-1.09A5.92,5.92,0,0,1,12.86,70a6,6,0,0,1,3-4.54l1.93-1.09a6,6,0,0,1,6.32.3,5.93,5.93,0,0,0-8.83-4.58l-1.93,1.09a6,6,0,0,0-3,4.54,6,6,0,0,0-5.41.21L3,67A5.94,5.94,0,0,0,.77,75.1,5.77,5.77,0,0,0,2.54,77,6,6,0,0,1,5.52,71.28Z" style="fill:#63244e;opacity:0.30000000000000004;mix-blend-mode:multiply"/><path d="M22.44,60.05h0a5.17,5.17,0,0,1,7,1.94l4.12,7.27a5.16,5.16,0,0,1-1.95,7h0a5.16,5.16,0,0,1-7-1.94l-4.12-7.27A5.16,5.16,0,0,1,22.44,60.05Z" style="fill:url(#Degradado_sin_nombre_44-16)"/><path d="M30.77,76.66a5,5,0,0,1-1-1.21l-4.12-7.26a5.18,5.18,0,0,1,1.94-7,4.78,4.78,0,0,1,.87-.38,5.14,5.14,0,0,0-8,6.29l4.12,7.27A5.16,5.16,0,0,0,30.77,76.66Z" style="fill:#63244e;opacity:0.30000000000000004;mix-blend-mode:multiply"/><path d="M36.45,9.14l2.22-.06a6,6,0,0,1,6.11,5.76h0A6,6,0,0,1,39,21L36.8,21a6,6,0,0,1-6.11-5.76h0A6,6,0,0,1,36.45,9.14Z" style="fill:url(#Degradado_sin_nombre_2-15)"/><path d="M24.61,9.49l2.21-.06a5.94,5.94,0,0,1,6.11,5.76h0a6,6,0,0,1-5.76,6.11L25,21.36a5.94,5.94,0,0,1-6.1-5.76h0A6,6,0,0,1,24.61,9.49Z" style="fill:url(#Degradado_sin_nombre_2-16)"/><path d="M45,12.42h0a5.16,5.16,0,0,1,5.31,5l.24,8.34a5.16,5.16,0,0,1-5,5.31h0a5.17,5.17,0,0,1-5.3-5L40,17.72A5.17,5.17,0,0,1,45,12.42Z" style="fill:url(#Degradado_sin_nombre_2-17)"/><rect x="18.39" y="11.58" width="27.45" height="22.42" rx="6.26" transform="translate(64.88 44.63) rotate(178.32)" style="fill:url(#Degradado_sin_nombre_44-17)"/><path d="M39.9,33.78l-1.68,0c0-.08,0-.15,0-.23L38,28.49a6.28,6.28,0,0,0-6.44-6.08l-13.24.39c0-3.34-1.58-10,6-11l14.92-.44a6.28,6.28,0,0,1,6.44,6.07l.3,9.9A6.28,6.28,0,0,1,39.9,33.78Z" style="fill:#63244e;opacity:0.30000000000000004;mix-blend-mode:multiply"/><path d="M36.45,9.14l2.22-.06a6,6,0,0,1,6.11,5.76h0A6,6,0,0,1,39,21L36.8,21a6,6,0,0,1-6.11-5.76h0A6,6,0,0,1,36.45,9.14Z" style="fill:url(#Degradado_sin_nombre_44-18)"/><path d="M24.61,9.49l2.21-.06a5.94,5.94,0,0,1,6.11,5.76h0a6,6,0,0,1-5.76,6.11L25,21.36a5.94,5.94,0,0,1-6.1-5.76h0A6,6,0,0,1,24.61,9.49Z" style="fill:url(#Degradado_sin_nombre_44-19)"/><path d="M24.83,14.45,27,14.38a6,6,0,0,1,4.89,2.34,6,6,0,0,1,4.74-2.62L38.89,14a6,6,0,0,1,5.45,3.22,6,6,0,0,0,.44-2.41,6,6,0,0,0-6.11-5.76l-2.22.06a6,6,0,0,0-4.74,2.63,5.92,5.92,0,0,0-4.89-2.34l-2.21.06a6,6,0,0,0-5.76,6.11,5.7,5.7,0,0,0,.66,2.54A6,6,0,0,1,24.83,14.45Z" style="fill:#63244e;opacity:0.30000000000000004;mix-blend-mode:multiply"/><path d="M45,12.42h0a5.16,5.16,0,0,1,5.31,5l.24,8.34a5.16,5.16,0,0,1-5,5.31h0a5.17,5.17,0,0,1-5.3-5L40,17.72A5.17,5.17,0,0,1,45,12.42Z" style="fill:url(#Degradado_sin_nombre_44-20)"/><path d="M44.64,31a4.84,4.84,0,0,1-.3-1.53l-.25-8.35a5.17,5.17,0,0,1,5-5.3,4.84,4.84,0,0,1,.94.07,5.14,5.14,0,0,0-10,1.83l.25,8.35A5.16,5.16,0,0,0,44.64,31Z" style="fill:#63244e;opacity:0.30000000000000004;mix-blend-mode:multiply"/><path d="M40.54,149a25.3,25.3,0,0,1,0-50.6,4.25,4.25,0,0,1,0,8.49,16.81,16.81,0,1,0,16.81,16.81,4.25,4.25,0,1,1,8.49,0A25.33,25.33,0,0,1,40.54,149Z" style="fill:url(#Degradado_sin_nombre_3)"/><g style="opacity:0.54;mix-blend-mode:multiply"><path d="M64.73,120.87a25.3,25.3,0,0,1-48.68,9.23,25.3,25.3,0,0,0,49.79-6.38A4.19,4.19,0,0,0,64.73,120.87Z" style="fill:#ab3081"/><path d="M39.44,103.64a16.81,16.81,0,0,0-15.3,23.77,16.63,16.63,0,0,1-.41-3.69,16.83,16.83,0,0,1,16.81-16.81,4.24,4.24,0,0,0,4.24-4.24,4.19,4.19,0,0,0-1.12-2.87A4.23,4.23,0,0,1,39.44,103.64Z" style="fill:#ab3081"/></g><path d="M38.1,100.81a.92.92,0,1,1-.92-.91A.92.92,0,0,1,38.1,100.81Z" style="fill:#63244e;opacity:0.30000000000000004;mix-blend-mode:multiply"/><path d="M43.06,101.63a1.74,1.74,0,1,1-1.73-1.73A1.73,1.73,0,0,1,43.06,101.63Z" style="fill:#63244e;opacity:0.30000000000000004;mix-blend-mode:multiply"/><circle cx="26.38" cy="105.01" r="1.64" style="fill:#bf2073;opacity:0.63;mix-blend-mode:multiply"/><path d="M33,103.37a1.64,1.64,0,1,1-1.64-1.64A1.63,1.63,0,0,1,33,103.37Z" style="fill:#bf2073;opacity:0.63;mix-blend-mode:multiply"/><path d="M24.74,107.4a.75.75,0,1,1-.75-.75A.75.75,0,0,1,24.74,107.4Z" style="fill:#bf2073;opacity:0.63;mix-blend-mode:multiply"/><path d="M56,136.92a1.64,1.64,0,1,1,2,1.19A1.64,1.64,0,0,1,56,136.92Z" style="fill:#bf2073;opacity:0.63;mix-blend-mode:multiply"/><path d="M51.63,139.71a1.64,1.64,0,1,1,2,1.19A1.64,1.64,0,0,1,51.63,139.71Z" style="fill:#bf2073;opacity:0.63;mix-blend-mode:multiply"/><path d="M58.63,133.8a.74.74,0,0,1,.54-.9.75.75,0,1,1-.54.9Z" style="fill:#bf2073;opacity:0.63;mix-blend-mode:multiply"/><path d="M57.29,156.53a24.71,24.71,0,0,1-24.68-24.68,16.2,16.2,0,0,0-16.19-16.19,4.25,4.25,0,0,1,0-8.49A24.71,24.71,0,0,1,41.1,131.85a16.19,16.19,0,0,0,32.38,0,4.25,4.25,0,1,1,8.49,0A24.71,24.71,0,0,1,57.29,156.53Z" style="fill:url(#Degradado_sin_nombre_3-2)"/><g style="opacity:0.54;mix-blend-mode:multiply"><path d="M59.09,153.37a24.71,24.71,0,0,1-24.68-24.68A16.2,16.2,0,0,0,18.23,112.5,4.24,4.24,0,0,1,14,108.26c0-.11,0-.22,0-.33a4.25,4.25,0,0,0,2.42,7.73,16.2,16.2,0,0,1,16.19,16.19,24.68,24.68,0,0,0,47,10.59A24.67,24.67,0,0,1,59.09,153.37Z" style="fill:#ab3081"/></g><path d="M72,145.43a1.64,1.64,0,1,1,2,1.19A1.64,1.64,0,0,1,72,145.43Z" style="fill:#bf2073;opacity:0.63;mix-blend-mode:multiply"/><path d="M67.56,148.22a1.64,1.64,0,1,1,2,1.19A1.65,1.65,0,0,1,67.56,148.22Z" style="fill:#bf2073;opacity:0.63;mix-blend-mode:multiply"/><path d="M74.56,142.32a.75.75,0,1,1,.9.54A.74.74,0,0,1,74.56,142.32Z" style="fill:#bf2073;opacity:0.63;mix-blend-mode:multiply"/><path d="M79.37,160.76a24.71,24.71,0,0,1-24.68-24.68A16.2,16.2,0,0,0,38.5,119.89a4.25,4.25,0,0,1,0-8.49,24.71,24.71,0,0,1,24.68,24.68,16.19,16.19,0,1,0,32.38,0,4.25,4.25,0,1,1,8.49,0A24.71,24.71,0,0,1,79.37,160.76Z" style="fill:url(#Degradado_sin_nombre_3-3)"/><g style="opacity:0.43;mix-blend-mode:multiply"><path d="M81.17,157.6a24.71,24.71,0,0,1-24.68-24.68,16.2,16.2,0,0,0-16.18-16.19,4.25,4.25,0,0,1-4.25-4.25c0-.1,0-.21,0-.32a4.25,4.25,0,0,0,2.42,7.73,16.2,16.2,0,0,1,16.19,16.19,24.68,24.68,0,0,0,47,10.59A24.7,24.7,0,0,1,81.17,157.6Z" style="fill:#ab3081"/></g><path d="M94,149.66a1.64,1.64,0,1,1,2,1.19A1.64,1.64,0,0,1,94,149.66Z" style="fill:#bf2073;opacity:0.63;mix-blend-mode:multiply"/><path d="M96.64,146.54a.74.74,0,0,1,.54-.9.75.75,0,1,1-.54.9Z" style="fill:#bf2073;opacity:0.63;mix-blend-mode:multiply"/><path d="M178.72,149a25.3,25.3,0,1,0,0-50.6,4.25,4.25,0,1,0,0,8.49,16.81,16.81,0,1,1-16.81,16.81,4.25,4.25,0,1,0-8.49,0A25.33,25.33,0,0,0,178.72,149Z" style="fill:url(#Degradado_sin_nombre_3-4)"/><g style="opacity:0.54;mix-blend-mode:multiply"><path d="M154.52,120.87a25.3,25.3,0,0,0,48.68,9.23,25.3,25.3,0,0,1-49.78-6.38A4.23,4.23,0,0,1,154.52,120.87Z" style="fill:#ab3081"/><path d="M179.82,103.64a16.81,16.81,0,0,1,15.29,23.77,16.63,16.63,0,0,0,.42-3.69,16.83,16.83,0,0,0-16.81-16.81,4.24,4.24,0,0,1-3.13-7.11A4.24,4.24,0,0,0,179.82,103.64Z" style="fill:#ab3081"/></g><path d="M181.15,100.81a.92.92,0,1,0,.92-.91A.92.92,0,0,0,181.15,100.81Z" style="fill:#63244e;opacity:0.30000000000000004;mix-blend-mode:multiply"/><path d="M176.19,101.63a1.74,1.74,0,1,0,1.74-1.73A1.73,1.73,0,0,0,176.19,101.63Z" style="fill:#63244e;opacity:0.30000000000000004;mix-blend-mode:multiply"/><circle cx="192.87" cy="105.01" r="1.64" style="fill:#bf2073;opacity:0.63;mix-blend-mode:multiply"/><path d="M186.29,103.37a1.64,1.64,0,1,0,1.64-1.64A1.64,1.64,0,0,0,186.29,103.37Z" style="fill:#bf2073;opacity:0.63;mix-blend-mode:multiply"/><path d="M194.51,107.4a.75.75,0,0,0,1.5,0,.75.75,0,1,0-1.5,0Z" style="fill:#bf2073;opacity:0.63;mix-blend-mode:multiply"/><path d="M163.23,136.92a1.64,1.64,0,1,0-2,1.19A1.64,1.64,0,0,0,163.23,136.92Z" style="fill:#bf2073;opacity:0.63;mix-blend-mode:multiply"/><path d="M167.62,139.71a1.64,1.64,0,1,0-2,1.19A1.64,1.64,0,0,0,167.62,139.71Z" style="fill:#bf2073;opacity:0.63;mix-blend-mode:multiply"/><path d="M160.62,133.8a.74.74,0,0,0-1.44-.36.74.74,0,1,0,1.44.36Z" style="fill:#bf2073;opacity:0.63;mix-blend-mode:multiply"/><path d="M162,156.53a24.71,24.71,0,0,0,24.68-24.68,16.21,16.21,0,0,1,16.19-16.19,4.25,4.25,0,1,0,0-8.49,24.71,24.71,0,0,0-24.68,24.68,16.19,16.19,0,1,1-32.37,0,4.25,4.25,0,0,0-8.5,0A24.71,24.71,0,0,0,162,156.53Z" style="fill:url(#Degradado_sin_nombre_3-5)"/><g style="opacity:0.56;mix-blend-mode:multiply"><path d="M160.16,153.37a24.71,24.71,0,0,0,24.68-24.68A16.2,16.2,0,0,1,201,112.5a4.24,4.24,0,0,0,4.24-4.24c0-.11,0-.22,0-.33a4.25,4.25,0,0,1-2.43,7.73,16.21,16.21,0,0,0-16.19,16.19,24.67,24.67,0,0,1-47,10.59A24.66,24.66,0,0,0,160.16,153.37Z" style="fill:#ab3081"/></g><path d="M147.3,145.43a1.64,1.64,0,1,0-2,1.19A1.64,1.64,0,0,0,147.3,145.43Z" style="fill:#bf2073;opacity:0.63;mix-blend-mode:multiply"/><path d="M151.69,148.22a1.64,1.64,0,1,0-2,1.19A1.64,1.64,0,0,0,151.69,148.22Z" style="fill:#bf2073;opacity:0.63;mix-blend-mode:multiply"/><path d="M144.7,142.32a.76.76,0,0,0-.55-.91.74.74,0,0,0-.9.54.75.75,0,1,0,1.45.37Z" style="fill:#bf2073;opacity:0.63;mix-blend-mode:multiply"/><path d="M139.88,160.76a24.71,24.71,0,0,0,24.68-24.68,16.21,16.21,0,0,1,16.19-16.19,4.25,4.25,0,1,0,0-8.49,24.71,24.71,0,0,0-24.68,24.68,16.19,16.19,0,1,1-32.37,0,4.25,4.25,0,0,0-8.5,0A24.71,24.71,0,0,0,139.88,160.76Z" style="fill:url(#Degradado_sin_nombre_3-6)"/><g style="opacity:0.56;mix-blend-mode:multiply"><path d="M138.08,157.6a24.71,24.71,0,0,0,24.68-24.68A16.2,16.2,0,0,1,179,116.73a4.24,4.24,0,0,0,4.24-4.25c0-.1,0-.21,0-.32a4.25,4.25,0,0,1-2.43,7.73,16.21,16.21,0,0,0-16.19,16.19,24.67,24.67,0,0,1-47,10.59A24.68,24.68,0,0,0,138.08,157.6Z" style="fill:#ab3081"/></g><path d="M125.22,149.66a1.64,1.64,0,1,0-2,1.19A1.64,1.64,0,0,0,125.22,149.66Z" style="fill:#bf2073;opacity:0.63;mix-blend-mode:multiply"/><path d="M122.62,146.54a.75.75,0,1,0-.91.55A.76.76,0,0,0,122.62,146.54Z" style="fill:#bf2073;opacity:0.63;mix-blend-mode:multiply"/><circle cx="108.96" cy="81.31" r="63.71" style="fill:url(#Degradado_sin_nombre_3-7)"/><path d="M109,107.93A63.73,63.73,0,0,1,48,62.77a63.71,63.71,0,1,0,121.93,0A63.73,63.73,0,0,1,109,107.93Z" style="fill:#63244e;opacity:0.30000000000000004;mix-blend-mode:multiply"/><path d="M77.42,95.73c.28.34.58.67.89,1a14,14,0,0,0,2.06,1.7,11.91,11.91,0,0,0,1.14.69,13.43,13.43,0,0,0,3.8,1.4,14.17,14.17,0,0,0,2.78.28h43.17q.63,0,1.26-.06l.32,0a10.07,10.07,0,0,0,1.1-.17l.13,0a11.61,11.61,0,0,0,1.16-.3l.31-.1c.32-.1.63-.22.94-.34l.21-.09c.35-.15.7-.32,1-.5L138,99c.27-.15.53-.31.79-.48l.25-.17c.31-.21.61-.43.9-.67l.27-.22.64-.59.25-.25q.39-.39.75-.81l.21-.28c.18-.22.35-.44.51-.67l.22-.33a10.4,10.4,0,0,0,.56-.9l0,0a13.68,13.68,0,0,0,1.76-6.72,13.89,13.89,0,0,0-13.85-13.84H88.09a13.84,13.84,0,0,0-11,5.55.43.43,0,0,0,0-.07c-.09.12-.16.24-.25.35l-.3.43c-.15.23-.29.47-.42.7s-.15.23-.21.35c-.19.35-.36.71-.52,1.08-.06.13-.1.26-.16.39s-.2.52-.28.78-.1.31-.14.47-.14.51-.2.77-.07.31-.1.47a8.1,8.1,0,0,0-.13.86l-.06.41c0,.43-.06.87-.06,1.3h0a13.71,13.71,0,0,0,3.17,8.8Z" style="fill:#63244e;opacity:0.30000000000000004;mix-blend-mode:multiply"/><path d="M131.26,104.1H88.09a13.85,13.85,0,0,0-11,5.56l0-.07c-.09.11-.16.23-.25.35l-.3.43c-.15.23-.29.46-.42.7a4.05,4.05,0,0,0-.21.35c-.19.35-.36.71-.52,1.07-.06.13-.1.27-.16.4s-.2.51-.28.78-.1.31-.14.46-.14.51-.2.78-.07.31-.1.47a8.32,8.32,0,0,0-.13.85l-.06.42c0,.43-.06.86-.06,1.3h0a13.62,13.62,0,0,0,3.17,8.79,12.05,12.05,0,0,0,.89,1,13.93,13.93,0,0,0,2.06,1.69,12,12,0,0,0,1.14.7,13.9,13.9,0,0,0,6.58,1.68h43.17c.42,0,.84,0,1.26-.07l.32,0c.37,0,.74-.1,1.1-.17l.13,0c.39-.08.78-.19,1.16-.3l.31-.1c.32-.11.63-.22.94-.35l.21-.08c.35-.15.7-.32,1-.5L138,130c.27-.15.53-.31.79-.48l.25-.16c.31-.21.61-.44.9-.67l.27-.23.64-.58c.08-.09.17-.17.25-.25.26-.26.51-.54.75-.82l.21-.27c.18-.22.35-.45.51-.68l.22-.32c.2-.3.39-.6.56-.91l0,0a13.64,13.64,0,0,0,1.76-6.71A13.89,13.89,0,0,0,131.26,104.1Z" style="fill:#63244e;opacity:0.30000000000000004;mix-blend-mode:multiply"/><path d="M131.26,70.74H88.09A13.89,13.89,0,0,0,74.25,84.59h0A13.88,13.88,0,0,0,88.09,98.43h43.17a13.89,13.89,0,0,0,13.85-13.84h0a13.89,13.89,0,0,0-13.85-13.85Z" style="fill:#331328"/><path d="M87.05,73.11h4.4a1.09,1.09,0,0,1,.94,1.64l-2.2,3.81L88,82.37a1.09,1.09,0,0,1-1.89,0l-2.2-3.81-2.2-3.81a1.09,1.09,0,0,1,1-1.64Z" style="fill:#fcedb6"/><path d="M83.29,77.5h4.29a1.09,1.09,0,0,1,.94,1.64l-2.07,3.6A1.09,1.09,0,0,0,88,82.37l2.2-3.81,2.2-3.81a1.09,1.09,0,0,0-.94-1.64h-8.8a1.09,1.09,0,0,0-1,1.64Z" style="fill:#eed473"/><path d="M96.16,73.11h4.4a1.1,1.1,0,0,1,1,1.64l-2.2,3.81-2.2,3.81a1.1,1.1,0,0,1-1.9,0L93,78.56l-2.2-3.81a1.1,1.1,0,0,1,1-1.64Z" style="fill:#fcedb6"/><path d="M92.4,77.5h4.29a1.1,1.1,0,0,1,1,1.64l-2.08,3.6a1.1,1.1,0,0,0,1.55-.37l2.2-3.81,2.2-3.81a1.1,1.1,0,0,0-1-1.64h-8.8a1.1,1.1,0,0,0-1,1.64Z" style="fill:#eed473"/><path d="M105.27,73.11h4.4a1.09,1.09,0,0,1,1,1.64l-2.2,3.81-2.2,3.81a1.09,1.09,0,0,1-1.89,0l-2.2-3.81-2.2-3.81a1.09,1.09,0,0,1,.94-1.64Z" style="fill:#fcedb6"/><path d="M101.52,77.5h4.29a1.09,1.09,0,0,1,.94,1.64l-2.07,3.6a1.09,1.09,0,0,0,1.54-.37l2.2-3.81,2.2-3.81a1.09,1.09,0,0,0-1-1.64h-8.8a1.09,1.09,0,0,0-.94,1.64Z" style="fill:#eed473"/><path d="M114.39,73.11h4.4a1.1,1.1,0,0,1,.95,1.64l-2.2,3.81-2.2,3.81a1.1,1.1,0,0,1-1.9,0l-2.2-3.81L109,74.75a1.1,1.1,0,0,1,.95-1.64Z" style="fill:#fcedb6"/><path d="M110.63,77.5h4.29a1.1,1.1,0,0,1,1,1.64l-2.08,3.6a1.1,1.1,0,0,0,1.55-.37l2.2-3.81,2.2-3.81a1.1,1.1,0,0,0-.95-1.64H110a1.1,1.1,0,0,0-.95,1.64Z" style="fill:#eed473"/><path d="M123.5,73.11h4.4a1.09,1.09,0,0,1,.95,1.64l-2.2,3.81-2.2,3.81a1.09,1.09,0,0,1-1.89,0l-2.2-3.81-2.2-3.81a1.09,1.09,0,0,1,.94-1.64Z" style="fill:#fcedb6"/><path d="M119.75,77.5H124a1.09,1.09,0,0,1,.94,1.64l-2.07,3.6a1.09,1.09,0,0,0,1.54-.37l2.2-3.81,2.2-3.81a1.09,1.09,0,0,0-.95-1.64h-8.8a1.09,1.09,0,0,0-.94,1.64Z" style="fill:#eed473"/><path d="M132.62,73.11H137a1.09,1.09,0,0,1,.94,1.64l-2.2,3.81-2.2,3.81a1.09,1.09,0,0,1-1.89,0l-2.2-3.81-2.2-3.81a1.1,1.1,0,0,1,1-1.64Z" style="fill:#fcedb6"/><path d="M128.86,77.5h4.29a1.1,1.1,0,0,1,.95,1.64L132,82.74a1.09,1.09,0,0,0,1.54-.37l2.2-3.81,2.2-3.81a1.09,1.09,0,0,0-.94-1.64h-8.8a1.1,1.1,0,0,0-1,1.64Z" style="fill:#eed473"/><path d="M132.62,96.41h-4.4a1.09,1.09,0,0,1-1-1.63l2.2-3.81,2.2-3.82a1.1,1.1,0,0,1,1.89,0l2.2,3.82,2.2,3.81a1.08,1.08,0,0,1-.94,1.63Z" style="fill:#fcedb6"/><path d="M136.38,92h-4.29a1.1,1.1,0,0,1-1-1.64l2.07-3.59a1.09,1.09,0,0,0-1.54.36L129.47,91l-2.2,3.81a1.09,1.09,0,0,0,1,1.63H137a1.08,1.08,0,0,0,.94-1.63Z" style="fill:#eed473"/><path d="M123.5,96.41h-4.4a1.09,1.09,0,0,1-.94-1.63l2.2-3.81,2.2-3.82a1.1,1.1,0,0,1,1.89,0l2.2,3.82,2.2,3.81a1.09,1.09,0,0,1-.95,1.63Z" style="fill:#fcedb6"/><path d="M127.26,92H123a1.09,1.09,0,0,1-.94-1.64l2.07-3.59a1.09,1.09,0,0,0-1.54.36L120.36,91l-2.2,3.81a1.09,1.09,0,0,0,.94,1.63h8.8a1.09,1.09,0,0,0,.95-1.63Z" style="fill:#eed473"/><path d="M114.39,96.41H110a1.09,1.09,0,0,1-.95-1.63l2.2-3.81,2.2-3.82a1.11,1.11,0,0,1,1.9,0l2.2,3.82,2.2,3.81a1.09,1.09,0,0,1-.95,1.63Z" style="fill:#fcedb6"/><path d="M118.15,92h-4.29a1.1,1.1,0,0,1-1-1.64L115,86.79a1.1,1.1,0,0,0-1.55.36L111.24,91,109,94.78a1.09,1.09,0,0,0,.95,1.63h8.8a1.09,1.09,0,0,0,.95-1.63Z" style="fill:#eed473"/><path d="M105.27,96.41h-4.4a1.09,1.09,0,0,1-.94-1.63l2.2-3.81,2.2-3.82a1.1,1.1,0,0,1,1.89,0l2.2,3.82,2.2,3.81a1.09,1.09,0,0,1-1,1.63Z" style="fill:#fcedb6"/><path d="M109,92h-4.29a1.09,1.09,0,0,1-.94-1.64l2.07-3.59a1.09,1.09,0,0,0-1.54.36L102.13,91l-2.2,3.81a1.09,1.09,0,0,0,.94,1.63h8.8a1.09,1.09,0,0,0,1-1.63Z" style="fill:#eed473"/><path d="M96.16,96.41h-4.4a1.09,1.09,0,0,1-1-1.63L93,91l2.2-3.82a1.11,1.11,0,0,1,1.9,0L99.31,91l2.2,3.81a1.09,1.09,0,0,1-1,1.63Z" style="fill:#fcedb6"/><path d="M99.92,92H95.63a1.1,1.1,0,0,1-.95-1.64l2.08-3.59a1.1,1.1,0,0,0-1.55.36L93,91l-2.2,3.81a1.09,1.09,0,0,0,1,1.63h8.8a1.09,1.09,0,0,0,1-1.63Z" style="fill:#eed473"/><path d="M87.05,96.41h-4.4a1.09,1.09,0,0,1-1-1.63L83.9,91l2.2-3.82a1.1,1.1,0,0,1,1.89,0L90.19,91l2.2,3.81a1.09,1.09,0,0,1-.94,1.63Z" style="fill:#fcedb6"/><path d="M90.8,92H86.51a1.09,1.09,0,0,1-.94-1.64l2.07-3.59a1.09,1.09,0,0,0-1.54.36L83.9,91l-2.2,3.81a1.09,1.09,0,0,0,1,1.63h8.8a1.09,1.09,0,0,0,.94-1.63Z" style="fill:#eed473"/><path d="M131.26,75.16a9.43,9.43,0,1,1,0,18.86H88.09a9.43,9.43,0,0,1,0-18.86h43.17m0-4.42H88.09A13.89,13.89,0,0,0,74.25,84.59h0A13.88,13.88,0,0,0,88.09,98.43h43.17a13.89,13.89,0,0,0,13.85-13.84h0a13.89,13.89,0,0,0-13.85-13.85Z" style="fill:#ab3081"/><path d="M141.78,82.92a9.44,9.44,0,0,0-9.43-9.43H89.19a9.43,9.43,0,0,0-8.38,5.12,9.39,9.39,0,0,1,7.28-3.45h43.17a9.44,9.44,0,0,1,9.43,9.43,9.34,9.34,0,0,1-1.05,4.31A9.38,9.38,0,0,0,141.78,82.92Z" style="fill:#63244e;opacity:0.30000000000000004;mix-blend-mode:multiply"/><path d="M132.35,96.77H89.19A13.89,13.89,0,0,1,75.34,82.92a13.66,13.66,0,0,1,1.74-6.69,13.68,13.68,0,0,0-2.83,8.36h0A13.88,13.88,0,0,0,88.09,98.43h43.17a13.88,13.88,0,0,0,12.11-7.15A13.86,13.86,0,0,1,132.35,96.77Z" style="fill:#63244e;opacity:0.30000000000000004;mix-blend-mode:multiply"/><path d="M131.26,101.76H88.09A13.88,13.88,0,0,0,74.25,115.6h0a13.89,13.89,0,0,0,13.84,13.85h43.17a13.89,13.89,0,0,0,13.85-13.85h0a13.89,13.89,0,0,0-13.85-13.84Z" style="fill:#331328"/><path d="M87.05,104.13h4.4a1.09,1.09,0,0,1,.94,1.64l-2.2,3.81L88,113.39a1.09,1.09,0,0,1-1.89,0l-2.2-3.81-2.2-3.81a1.09,1.09,0,0,1,1-1.64Z" style="fill:#fcedb6"/><path d="M83.29,108.52h4.29a1.09,1.09,0,0,1,.94,1.64l-2.07,3.59a1.08,1.08,0,0,0,1.54-.36l2.2-3.81,2.2-3.81a1.09,1.09,0,0,0-.94-1.64h-8.8a1.09,1.09,0,0,0-1,1.64Z" style="fill:#eed473"/><path d="M96.16,104.13h4.4a1.1,1.1,0,0,1,1,1.64l-2.2,3.81-2.2,3.81a1.1,1.1,0,0,1-1.9,0L93,109.58l-2.2-3.81a1.1,1.1,0,0,1,1-1.64Z" style="fill:#fcedb6"/><path d="M92.4,108.52h4.29a1.1,1.1,0,0,1,1,1.64l-2.08,3.59a1.09,1.09,0,0,0,1.55-.36l2.2-3.81,2.2-3.81a1.1,1.1,0,0,0-1-1.64h-8.8a1.1,1.1,0,0,0-1,1.64Z" style="fill:#eed473"/><path d="M105.27,104.13h4.4a1.09,1.09,0,0,1,1,1.64l-2.2,3.81-2.2,3.81a1.09,1.09,0,0,1-1.89,0l-2.2-3.81-2.2-3.81a1.09,1.09,0,0,1,.94-1.64Z" style="fill:#fcedb6"/><path d="M101.52,108.52h4.29a1.09,1.09,0,0,1,.94,1.64l-2.07,3.59a1.08,1.08,0,0,0,1.54-.36l2.2-3.81,2.2-3.81a1.09,1.09,0,0,0-1-1.64h-8.8a1.09,1.09,0,0,0-.94,1.64Z" style="fill:#eed473"/><path d="M114.39,104.13h4.4a1.1,1.1,0,0,1,.95,1.64l-2.2,3.81-2.2,3.81a1.1,1.1,0,0,1-1.9,0l-2.2-3.81-2.2-3.81a1.1,1.1,0,0,1,.95-1.64Z" style="fill:#fcedb6"/><path d="M110.63,108.52h4.29a1.1,1.1,0,0,1,1,1.64l-2.08,3.59a1.09,1.09,0,0,0,1.55-.36l2.2-3.81,2.2-3.81a1.1,1.1,0,0,0-.95-1.64H110a1.1,1.1,0,0,0-.95,1.64Z" style="fill:#eed473"/><path d="M123.5,104.13h4.4a1.09,1.09,0,0,1,.95,1.64l-2.2,3.81-2.2,3.81a1.09,1.09,0,0,1-1.89,0l-2.2-3.81-2.2-3.81a1.09,1.09,0,0,1,.94-1.64Z" style="fill:#fcedb6"/><path d="M119.75,108.52H124a1.09,1.09,0,0,1,.94,1.64l-2.07,3.59a1.08,1.08,0,0,0,1.54-.36l2.2-3.81,2.2-3.81a1.09,1.09,0,0,0-.95-1.64h-8.8a1.09,1.09,0,0,0-.94,1.64Z" style="fill:#eed473"/><path d="M132.62,104.13H137a1.09,1.09,0,0,1,.94,1.64l-2.2,3.81-2.2,3.81a1.09,1.09,0,0,1-1.89,0l-2.2-3.81-2.2-3.81a1.1,1.1,0,0,1,1-1.64Z" style="fill:#fcedb6"/><path d="M128.86,108.52h4.29a1.1,1.1,0,0,1,.95,1.64L132,113.75a1.08,1.08,0,0,0,1.54-.36l2.2-3.81,2.2-3.81a1.09,1.09,0,0,0-.94-1.64h-8.8a1.1,1.1,0,0,0-1,1.64Z" style="fill:#eed473"/><path d="M132.62,127.43h-4.4a1.1,1.1,0,0,1-1-1.64l2.2-3.81,2.2-3.81a1.09,1.09,0,0,1,1.89,0l2.2,3.81,2.2,3.81a1.09,1.09,0,0,1-.94,1.64Z" style="fill:#fcedb6"/><path d="M136.38,123h-4.29a1.1,1.1,0,0,1-1-1.64l2.07-3.59a1.08,1.08,0,0,0-1.54.36l-2.2,3.81-2.2,3.81a1.1,1.1,0,0,0,1,1.64H137a1.09,1.09,0,0,0,.94-1.64Z" style="fill:#eed473"/><path d="M123.5,127.43h-4.4a1.09,1.09,0,0,1-.94-1.64l2.2-3.81,2.2-3.81a1.09,1.09,0,0,1,1.89,0l2.2,3.81,2.2,3.81a1.09,1.09,0,0,1-.95,1.64Z" style="fill:#fcedb6"/><path d="M127.26,123H123a1.09,1.09,0,0,1-.94-1.64l2.07-3.59a1.08,1.08,0,0,0-1.54.36l-2.2,3.81-2.2,3.81a1.09,1.09,0,0,0,.94,1.64h8.8a1.09,1.09,0,0,0,.95-1.64Z" style="fill:#eed473"/><path d="M114.39,127.43H110a1.1,1.1,0,0,1-.95-1.64l2.2-3.81,2.2-3.81a1.1,1.1,0,0,1,1.9,0l2.2,3.81,2.2,3.81a1.1,1.1,0,0,1-.95,1.64Z" style="fill:#fcedb6"/><path d="M118.15,123h-4.29a1.1,1.1,0,0,1-1-1.64l2.08-3.59a1.09,1.09,0,0,0-1.55.36l-2.2,3.81-2.2,3.81a1.1,1.1,0,0,0,.95,1.64h8.8a1.1,1.1,0,0,0,.95-1.64Z" style="fill:#eed473"/><path d="M105.27,127.43h-4.4a1.09,1.09,0,0,1-.94-1.64l2.2-3.81,2.2-3.81a1.09,1.09,0,0,1,1.89,0l2.2,3.81,2.2,3.81a1.09,1.09,0,0,1-1,1.64Z" style="fill:#fcedb6"/><path d="M109,123h-4.29a1.09,1.09,0,0,1-.94-1.64l2.07-3.59a1.08,1.08,0,0,0-1.54.36l-2.2,3.81-2.2,3.81a1.09,1.09,0,0,0,.94,1.64h8.8a1.09,1.09,0,0,0,1-1.64Z" style="fill:#eed473"/><path d="M96.16,127.43h-4.4a1.1,1.1,0,0,1-1-1.64L93,122l2.2-3.81a1.1,1.1,0,0,1,1.9,0l2.2,3.81,2.2,3.81a1.1,1.1,0,0,1-1,1.64Z" style="fill:#fcedb6"/><path d="M99.92,123H95.63a1.1,1.1,0,0,1-.95-1.64l2.08-3.59a1.09,1.09,0,0,0-1.55.36L93,122l-2.2,3.81a1.1,1.1,0,0,0,1,1.64h8.8a1.1,1.1,0,0,0,1-1.64Z" style="fill:#eed473"/><path d="M87.05,127.43h-4.4a1.09,1.09,0,0,1-1-1.64L83.9,122l2.2-3.81a1.09,1.09,0,0,1,1.89,0l2.2,3.81,2.2,3.81a1.09,1.09,0,0,1-.94,1.64Z" style="fill:#fcedb6"/><path d="M90.8,123H86.51a1.09,1.09,0,0,1-.94-1.64l2.07-3.59a1.08,1.08,0,0,0-1.54.36L83.9,122l-2.2,3.81a1.09,1.09,0,0,0,1,1.64h8.8a1.09,1.09,0,0,0,.94-1.64Z" style="fill:#eed473"/><path d="M131.26,106.17a9.43,9.43,0,1,1,0,18.86H88.09a9.43,9.43,0,0,1,0-18.86h43.17m0-4.41H88.09A13.88,13.88,0,0,0,74.25,115.6h0a13.89,13.89,0,0,0,13.84,13.85h43.17a13.89,13.89,0,0,0,13.85-13.85h0a13.89,13.89,0,0,0-13.85-13.84Z" style="fill:#ab3081"/><path d="M141.78,113.93a9.44,9.44,0,0,0-9.43-9.43H89.19a9.45,9.45,0,0,0-8.38,5.12,9.42,9.42,0,0,1,7.28-3.45h43.17a9.43,9.43,0,0,1,8.38,13.75A9.4,9.4,0,0,0,141.78,113.93Z" style="fill:#63244e;opacity:0.30000000000000004;mix-blend-mode:multiply"/><path d="M132.35,127.78H89.19a13.89,13.89,0,0,1-13.85-13.85,13.69,13.69,0,0,1,1.74-6.69,13.73,13.73,0,0,0-2.83,8.36h0a13.89,13.89,0,0,0,13.84,13.85h43.17a13.9,13.9,0,0,0,12.11-7.15A13.88,13.88,0,0,1,132.35,127.78Z" style="fill:#63244e;opacity:0.30000000000000004;mix-blend-mode:multiply"/><path d="M78.46,51.73c-1.51-.45-3.17.15-4.64,1.48l-.56,0h0a5.56,5.56,0,0,0-1.34.31l-.06,0-.38.16-.11,0L71,54l-.08,0a6.58,6.58,0,0,0-.7.47l-.06,0-.26.22-.18.16-.23.22-.2.21-.19.21c-.09.1-.17.21-.26.32l-.13.17c-.1.15-.21.3-.3.46l-.11.19L68.1,57a1.86,1.86,0,0,1-.1.2l-.18.41c0,.06,0,.12-.07.19s-.15.4-.22.62a7.91,7.91,0,0,0-.19.81,1.85,1.85,0,0,1,0,.23c0,.21,0,.41-.07.62s0,.14,0,.2c0,.26,0,.51,0,.76v0a7.48,7.48,0,0,0,.08.84h0a.5.5,0,0,1,0,.12,8.13,8.13,0,0,0,.29,1.13l.06.16a6.37,6.37,0,0,0,1,1.71l.06.08h0a5.39,5.39,0,0,0,1.75,1.39c.06.16.13.32.2.47a5.28,5.28,0,0,0,1.09,1.53,3.65,3.65,0,0,0,1,.66,2.52,2.52,0,0,0,.54.21,3.47,3.47,0,0,0,1.15.15,5.7,5.7,0,0,0,.58-.06,5.31,5.31,0,0,0,1.76-.7,5,5,0,0,0,.56-.38,8.31,8.31,0,0,0,1.1-1,13.2,13.2,0,0,0,2.9-5.25c.11-.39.2-.77.28-1.14,0-.06,0-.11,0-.16.07-.36.13-.73.17-1.08h0C82.26,55.86,81,52.47,78.46,51.73Z" style="fill:#63244e;opacity:0.30000000000000004;mix-blend-mode:multiply"/><path d="M127.48,55.13a.13.13,0,0,0,0-.06c.06-.27.11-.55.15-.82l0-.22c0-.23.06-.46.08-.69s0-.27,0-.41,0-.33,0-.5,0-.62,0-.93a18.22,18.22,0,0,0-18.22-18.22c-.35,0-.69,0-1,0l-.31,0-.71.07-.33,0-.7.1-.3.06-.77.16-.19,0a18.22,18.22,0,1,0,22.19,21.33Z" style="fill:#63244e;opacity:0.30000000000000004;mix-blend-mode:multiply"/><path d="M64.34,63h0c1-6.58-.94-12.34-5.1-13.72a7.16,7.16,0,0,0-5.81.79,63.23,63.23,0,0,0-7.87,25,7,7,0,0,0,3.9,3.6,6.31,6.31,0,0,0,1.92.3,6.59,6.59,0,0,0,1-.07,7.59,7.59,0,0,0,1.49-.38,10.93,10.93,0,0,0,1.49-.68l.49-.29c.32-.21.65-.43,1-.68l.48-.38a19,19,0,0,0,4.24-5.27A25,25,0,0,0,63.38,67c.14-.43.26-.85.38-1.27.05-.19.1-.37.14-.55s.09-.38.13-.57C64.15,64.05,64.25,63.53,64.34,63Z" style="fill:#63244e;opacity:0.30000000000000004;mix-blend-mode:multiply"/><path d="M63.21,104.29a22.18,22.18,0,0,0,.18-2.86,24.65,24.65,0,0,0-.46-4.6h0c-.06-.34-.13-.66-.21-1l0-.09c-1.87-7.82-7.11-13.27-12.05-12.31a7.52,7.52,0,0,0-5.08,4.25,63.19,63.19,0,0,0,8.59,26.11,6.1,6.1,0,0,0,2.37,0C60.08,113.14,62.54,109.33,63.21,104.29Z" style="fill:#63244e;opacity:0.30000000000000004;mix-blend-mode:multiply"/><path d="M138.55,59.8c0,.36.1.72.17,1.08l0,.16c.08.37.17.75.29,1.14,1.44,4.88,5.05,8.11,8.05,7.22a4.53,4.53,0,0,0,2.79-2.87,5.39,5.39,0,0,0,1.75-1.39h0l0,0a6.43,6.43,0,0,0,1-1.71,1.8,1.8,0,0,1,.08-.21h0a2.29,2.29,0,0,0,.08-.28h0a.14.14,0,0,0,0-.06,7,7,0,0,0,.19-.79.5.5,0,0,1,0-.12h0a7.48,7.48,0,0,0,.08-.84v0a6.45,6.45,0,0,0,0-.76c0-.06,0-.13,0-.2s0-.41-.08-.62l0-.23a8,8,0,0,0-.2-.81,5.64,5.64,0,0,0-.21-.62,1.08,1.08,0,0,0-.08-.19,3.65,3.65,0,0,0-.18-.41l-.1-.2c-.06-.13-.13-.25-.2-.37l-.11-.19c-.1-.16-.2-.31-.31-.46l-.12-.17c-.09-.11-.17-.22-.26-.32l-.19-.21-.2-.21-.23-.22-.18-.16-.26-.22-.06,0a6.71,6.71,0,0,0-.71-.47l-.07,0-.37-.19-.1,0-.38-.16-.06,0a5.56,5.56,0,0,0-1.34-.31h0l-.56,0c-1.47-1.33-3.13-1.93-4.64-1.48-2.51.74-3.8,4.13-3.31,8.07Z" style="fill:#63244e;opacity:0.30000000000000004;mix-blend-mode:multiply"/><path d="M167,83.35c-5-.79-10,4.83-11.62,12.71l0,.1c-.06.33-.12.65-.18,1h0a24.6,24.6,0,0,0-.31,3.87,20.32,20.32,0,0,0,.92,6.19c1.19,3.67,3.46,6.25,6.38,6.71a6,6,0,0,0,1.53,0,63.28,63.28,0,0,0,8.68-26.26C171.08,85.31,169.22,83.7,167,83.35Z" style="fill:#63244e;opacity:0.30000000000000004;mix-blend-mode:multiply"/><path d="M154.24,64.83c0,.18.09.37.13.55.1.43.21.85.34,1.28h0A23.84,23.84,0,0,0,156.42,71c.23.44.47.87.71,1.28.37.61.77,1.19,1.18,1.74a17.46,17.46,0,0,0,1.72,2c.3.29.61.57.92.82,2.33,1.92,4.91,2.74,7.27,2A6.15,6.15,0,0,0,170,78a7.88,7.88,0,0,0,2.4-2.83,63.19,63.19,0,0,0-8.14-25.54,6.76,6.76,0,0,0-4.79-.47c-4.21,1.25-6.37,6.93-5.56,13.55h0c.07.52.15,1,.25,1.58C154.17,64.44,154.2,64.63,154.24,64.83Z" style="fill:#63244e;opacity:0.30000000000000004;mix-blend-mode:multiply"/><path d="M45.32,57.91c-2.7,8.11-.84,16,4.14,17.69S60.68,72,63.38,63.92s.84-16-4.14-17.69S48,49.8,45.32,57.91Z" style="fill:url(#Degradado_sin_nombre_43)"/><path d="M52,67.89c-4.17-1.39-6.14-7.14-5.1-13.73a23.52,23.52,0,0,0-1.61,3.75c-2.7,8.11-.84,16,4.14,17.69S60.68,72,63.38,63.92a26,26,0,0,0,1-4C61.22,65.84,56.19,69.27,52,67.89Z" style="fill:#ab3081;opacity:0.54;mix-blend-mode:multiply"/><ellipse cx="49.96" cy="60.03" rx="11.76" ry="9.95" transform="translate(-22.77 88.48) rotate(-71.6)" style="fill:#f1f841"/><path d="M42.94,57.42c-1.11,3.32-1.16,7.19-.11,8.64s3.32-1.68,5.09-7,1.81-9.17.11-8.64S44,54.09,42.94,57.42Z" style="fill:#b61982"/><path d="M43.42,57.58c-.9,2.68-.94,5.8-.09,7s2.68-1.35,4.1-5.64,1.47-7.4.09-7S44.31,54.9,43.42,57.58Z" style="fill:#0e393a"/><path d="M46.19,57.16a.88.88,0,1,0,1.14-.69A1,1,0,0,0,46.19,57.16Z" style="fill:#fff"/><path d="M40.61,65.57c-.09-.23-.17-.47-.24-.71s-.09-.32-.14-.48L40.14,64c0-.17-.08-.33-.11-.5s-.09-.5-.12-.75h0a13.35,13.35,0,0,1,.61-5.85c1.63-4.9,5.69-8.16,9.9-8.43a12.8,12.8,0,0,0-5.7,7.14,12.57,12.57,0,0,0,.66,9.9c4.69.48,9.5-3,11.31-8.4a13.37,13.37,0,0,0,.61-5.85c2.63,2.84,3.58,7.44,2.09,11.92a12.34,12.34,0,0,1-7.48,7.94h0a9,9,0,0,1-.89.25l-.09,0a7.94,7.94,0,0,1-.85.15l-.18,0a6.47,6.47,0,0,1-.76,0c-.11,0-.21,0-.32,0l-.64,0a4.44,4.44,0,0,1-.49-.07l-.47-.07a8.16,8.16,0,0,1-.94-.25h0c-.29-.1-.56-.22-.84-.34l-.21-.1c-.24-.12-.48-.25-.71-.39l-.08,0c-.24-.15-.48-.32-.7-.49l-.2-.17c-.18-.15-.36-.3-.52-.46l-.15-.14c-.19-.19-.37-.4-.55-.61l-.2-.26c-.12-.15-.23-.31-.34-.47s-.13-.17-.18-.26-.27-.45-.4-.68L41,66.4c-.07-.14-.13-.28-.2-.43S40.67,65.7,40.61,65.57Z" style="fill:#dbe329;mix-blend-mode:multiply"/><path d="M44.35,52.54a1.67,1.67,0,1,0,2.11-1.06A1.66,1.66,0,0,0,44.35,52.54Z" style="fill:#fff"/><path d="M44.25,97.39c1.62,8.4,7.12,14.39,12.28,13.39s8-8.61,6.4-17S55.81,79.39,50.65,80.39,42.62,89,44.25,97.39Z" style="fill:url(#Degradado_sin_nombre_43-2)"/><path d="M55,102.8c-4.31.84-8.85-3.21-11.18-9.46a24,24,0,0,0,.44,4c1.62,8.4,7.12,14.39,12.28,13.39s8-8.61,6.4-17a24.76,24.76,0,0,0-1.1-3.92C62,96.52,59.3,102,55,102.8Z" style="fill:#ab3081;opacity:0.54;mix-blend-mode:multiply"/><path d="M39.56,98.86c1.23,6.37,6.61,10.7,12,9.65s8.76-7.06,7.53-13.43-6.6-10.7-12-9.66S38.33,92.48,39.56,98.86Z" style="fill:#f1f841"/><path d="M53.92,95.82c-.67-3.44-2.52-6.84-4.15-7.59s-2.07,3.09-1,8.58,2.92,8.89,4.14,7.59S54.58,99.25,53.92,95.82Z" style="fill:#b61982"/><path d="M53.42,95.91c-.54-2.77-2-5.51-3.34-6.12s-1.68,2.49-.82,6.93,2.35,7.17,3.34,6.12S54,98.69,53.42,95.91Z" style="fill:#0e393a"/><path d="M49.49,93.28a.87.87,0,1,0-.65,1.16A1,1,0,0,0,49.49,93.28Z" style="fill:#fff"/><path d="M43.9,106.38l-.56-.5c-.12-.11-.24-.23-.35-.35l-.28-.3c-.12-.12-.23-.25-.34-.38s-.32-.39-.47-.59h0a13.54,13.54,0,0,1-2.34-5.4c-1-5.07,1-9.9,4.5-12.2a12.83,12.83,0,0,0-1.47,9A12.67,12.67,0,0,0,48,104c4.32-1.89,6.84-7.24,5.74-12.88a13.27,13.27,0,0,0-2.34-5.4,12.05,12.05,0,0,1,7.67,9.37,12.38,12.38,0,0,1-2.63,10.59h0a8.36,8.36,0,0,1-.66.67l-.06.05a8.49,8.49,0,0,1-.67.55s-.1.07-.15.11c-.21.14-.41.29-.63.42l-.28.14q-.28.16-.57.3c-.15.07-.31.12-.47.18l-.44.17c-.3.09-.62.17-.94.24h0a6.94,6.94,0,0,1-.9.12l-.23,0c-.27,0-.54,0-.81,0h-.09c-.29,0-.58,0-.86-.09l-.26,0c-.23,0-.45-.09-.68-.15l-.19,0c-.27-.08-.52-.17-.78-.27l-.3-.12-.53-.25-.29-.14a6.58,6.58,0,0,1-.67-.4,4,4,0,0,1-.34-.23l-.39-.28Z" style="fill:#dbe329;mix-blend-mode:multiply"/><path d="M53,89.87a1.67,1.67,0,0,0-3.28.63A1.67,1.67,0,1,0,53,89.87Z" style="fill:#fff"/><path d="M173,58.21c2.42,8.2.3,16.05-4.74,17.54s-11.09-3.94-13.51-12.14-.31-16,4.73-17.54S170.53,50,173,58.21Z" style="fill:url(#Degradado_sin_nombre_43-3)"/><path d="M165.92,68c4.21-1.24,6.37-6.93,5.56-13.55a25.64,25.64,0,0,1,1.48,3.8c2.42,8.2.3,16.05-4.74,17.54s-11.09-3.94-13.51-12.14a24.44,24.44,0,0,1-.83-4C156.8,65.61,161.71,69.21,165.92,68Z" style="fill:#ab3081;opacity:0.54;mix-blend-mode:multiply"/><path d="M177.79,57.35c1.84,6.23-.93,12.54-6.2,14.1s-11-2.23-12.88-8.45.94-12.54,6.2-14.1S176,51.12,177.79,57.35Z" style="fill:#f1f841"/><path d="M175.36,57.8c1,3.36.91,7.23-.18,8.64s-3.27-1.78-4.86-7.15-1.5-9.23.18-8.64S174.36,54.44,175.36,57.8Z" style="fill:#b61982"/><path d="M174.87,58c.8,2.71.74,5.83-.14,7s-2.64-1.44-3.92-5.77-1.22-7.45.14-7S174.07,55.24,174.87,58Z" style="fill:#0e393a"/><path d="M172.11,57.44a.87.87,0,1,1-1.11-.73A.95.95,0,0,1,172.11,57.44Z" style="fill:#fff"/><path d="M177.4,66a7.26,7.26,0,0,0,.27-.7,3.68,3.68,0,0,0,.15-.47c0-.13.08-.26.11-.39s.09-.33.13-.49.1-.5.14-.75h0a13.45,13.45,0,0,0-.41-5.87c-1.47-5-5.41-8.35-9.61-8.75a12.81,12.81,0,0,1,5.45,7.33,12.62,12.62,0,0,1-1,9.87c-4.71.32-9.4-3.27-11-8.78a13.15,13.15,0,0,1-.41-5.87c-2.73,2.76-3.83,7.32-2.5,11.85a12.4,12.4,0,0,0,7.22,8.19h0c.3.11.59.21.89.29l.09,0a8.39,8.39,0,0,0,.84.18l.18,0a6.53,6.53,0,0,0,.76.08H169c.21,0,.42,0,.64,0l.49,0,.47,0a7.73,7.73,0,0,0,.95-.23h0a8.64,8.64,0,0,0,.85-.31l.22-.09a7,7,0,0,0,.72-.37l.08,0a6.84,6.84,0,0,0,.72-.47l.21-.16c.18-.14.36-.29.53-.45l.15-.13c.2-.19.39-.39.57-.59l.21-.25c.13-.15.24-.3.36-.46l.19-.26c.15-.21.28-.44.41-.66s.14-.24.2-.37.14-.28.21-.42S177.35,66.16,177.4,66Z" style="fill:#dbe329;mix-blend-mode:multiply"/><path d="M174.1,52.88A1.67,1.67,0,1,1,172,51.75,1.67,1.67,0,0,1,174.1,52.88Z" style="fill:#fff"/><path d="M149.91,55.91c1.44,4.88.18,9.56-2.82,10.45S140.48,64,139,59.13s-.19-9.56,2.82-10.45S148.46,51,149.91,55.91Z" style="fill:url(#Degradado_sin_nombre_43-4)"/><path d="M145.71,61.72c2.51-.74,3.8-4.13,3.31-8.07a14.17,14.17,0,0,1,.89,2.26c1.44,4.88.18,9.56-2.82,10.45S140.48,64,139,59.13a14,14,0,0,1-.49-2.38C140.28,60.32,143.21,62.46,145.71,61.72Z" style="fill:#ab3081;opacity:0.54;mix-blend-mode:multiply"/><path d="M152.78,55.4c1.1,3.71-.55,7.47-3.69,8.39s-6.57-1.32-7.67-5,.56-7.47,3.7-8.4S151.69,51.69,152.78,55.4Z" style="fill:#f1f841"/><path d="M151.34,55.67c.59,2,.54,4.3-.11,5.14s-1.95-1.06-2.89-4.26-.9-5.5.1-5.14S150.74,53.67,151.34,55.67Z" style="fill:#b61982"/><path d="M151.05,55.75c.47,1.62.43,3.47-.09,4.15s-1.57-.85-2.33-3.43-.73-4.44.08-4.16S150.57,54.14,151.05,55.75Z" style="fill:#0e393a"/><path d="M149.4,55.45a.52.52,0,1,1-.66-.44A.57.57,0,0,1,149.4,55.45Z" style="fill:#fff"/><path d="M152.55,60.56c.06-.13.12-.27.17-.41s.06-.19.08-.28a2.17,2.17,0,0,0,.07-.24c0-.1,0-.19.07-.29s.06-.3.09-.44h0a7.94,7.94,0,0,0-.25-3.5,7,7,0,0,0-5.72-5.21,7.84,7.84,0,0,1,2.66,10.24c-2.8.19-5.6-2-6.57-5.23a7.9,7.9,0,0,1-.24-3.49,7.19,7.19,0,0,0-1.49,7,7.39,7.39,0,0,0,4.3,4.88h0a4.68,4.68,0,0,0,.53.17h.05a4.48,4.48,0,0,0,.5.11h.11a3.44,3.44,0,0,0,.45.05h.57a2.58,2.58,0,0,0,.29,0l.29,0c.18,0,.37-.08.56-.13h0a4.4,4.4,0,0,0,.51-.18l.13-.06a4.25,4.25,0,0,0,.43-.21l0,0a3.18,3.18,0,0,0,.43-.28l.13-.09.32-.27.09-.08.34-.35.12-.15.21-.27.12-.16.24-.39.12-.22.13-.25Z" style="fill:#dbe329;mix-blend-mode:multiply"/><path d="M150.59,52.73a1,1,0,0,1-.67,1.24,1,1,0,0,1-1.24-.67,1,1,0,0,1,1.91-.57Z" style="fill:#fff"/><path d="M70.41,55.91c-1.44,4.88-.18,9.56,2.82,10.45s6.61-2.35,8-7.23.18-9.56-2.82-10.45S71.86,51,70.41,55.91Z" style="fill:url(#Degradado_sin_nombre_43-5)"/><path d="M74.6,61.72c-2.5-.74-3.79-4.13-3.31-8.07a15.16,15.16,0,0,0-.88,2.26c-1.44,4.88-.18,9.56,2.82,10.45s6.61-2.35,8-7.23a14,14,0,0,0,.49-2.38C80,60.32,77.11,62.46,74.6,61.72Z" style="fill:#ab3081;opacity:0.54;mix-blend-mode:multiply"/><path d="M67.53,55.4c-1.09,3.71.56,7.47,3.7,8.39s6.57-1.32,7.66-5-.55-7.47-3.69-8.4S68.63,51.69,67.53,55.4Z" style="fill:#f1f841"/><path d="M69,55.67c-.59,2-.54,4.3.11,5.14S71,59.75,72,56.55s.9-5.5-.11-5.14S69.57,53.67,69,55.67Z" style="fill:#b61982"/><path d="M69.27,55.75c-.48,1.62-.44,3.47.09,4.15s1.57-.85,2.33-3.43.72-4.44-.09-4.16S69.75,54.14,69.27,55.75Z" style="fill:#0e393a"/><path d="M70.92,55.45a.56.56,0,0,0,.32.73.57.57,0,0,0,.66-.44.58.58,0,0,0-.32-.73A.56.56,0,0,0,70.92,55.45Z" style="fill:#fff"/><path d="M67.76,60.56c-.05-.13-.11-.27-.16-.41l-.09-.28-.06-.24-.08-.29c0-.15-.06-.3-.08-.44h0a8.08,8.08,0,0,1,.24-3.5,7,7,0,0,1,5.73-5.21A7.84,7.84,0,0,0,70.6,60.43c2.8.19,5.6-2,6.57-5.23a8,8,0,0,0,.24-3.49,7.16,7.16,0,0,1,1.48,7,7.35,7.35,0,0,1-4.29,4.88h0a5.43,5.43,0,0,1-.53.17h0a4.48,4.48,0,0,1-.5.11H73.4A3.44,3.44,0,0,1,73,64h-.57l-.3,0-.28,0a5.66,5.66,0,0,1-.56-.13h0a3.82,3.82,0,0,1-.51-.18l-.13-.06a3.42,3.42,0,0,1-.43-.21l0,0a4,4,0,0,1-.43-.28l-.12-.09-.32-.27-.09-.08c-.12-.11-.23-.23-.34-.35l-.12-.15a2.47,2.47,0,0,1-.21-.27l-.12-.16c-.08-.13-.17-.26-.24-.39a2.39,2.39,0,0,1-.12-.22c0-.08-.09-.17-.13-.25A2.56,2.56,0,0,0,67.76,60.56Z" style="fill:#dbe329;mix-blend-mode:multiply"/><path d="M69.73,52.73a1,1,0,0,0,1.91.57,1,1,0,1,0-1.91-.57Z" style="fill:#fff"/><path d="M174,97.07c-1.33,8.45-6.62,14.62-11.81,13.8s-8.32-8.33-7-16.77S161.79,79.48,167,80.3,175.3,88.63,174,97.07Z" style="fill:url(#Degradado_sin_nombre_43-6)"/><path d="M163.42,102.85c4.33.68,8.73-3.52,10.84-9.84a24.75,24.75,0,0,1-.3,4.06c-1.33,8.45-6.62,14.62-11.81,13.8s-8.32-8.33-7-16.77a24.39,24.39,0,0,1,1-4C156.19,96.81,159.08,102.16,163.42,102.85Z" style="fill:#ab3081;opacity:0.54;mix-blend-mode:multiply"/><ellipse cx="168.87" cy="96.82" rx="11.76" ry="9.95" transform="translate(46.87 248.51) rotate(-81.02)" style="fill:#f1f841"/><path d="M164.25,95.83c.54-3.46,2.28-6.92,3.87-7.73s2.18,3,1.31,8.55-2.61,9-3.88,7.72S163.7,99.29,164.25,95.83Z" style="fill:#b61982"/><path d="M164.75,95.91c.44-2.8,1.84-5.59,3.12-6.24s1.76,2.44,1.06,6.9-2.11,7.25-3.13,6.23S164.3,98.7,164.75,95.91Z" style="fill:#0e393a"/><path d="M168.58,93.14a.87.87,0,1,1,1.7.27,1,1,0,0,1-1,.87A.94.94,0,0,1,168.58,93.14Z" style="fill:#fff"/><path d="M174.62,106c.19-.17.37-.34.54-.52l.34-.36.27-.31a4.16,4.16,0,0,0,.32-.39c.16-.2.31-.4.45-.61h0a13.45,13.45,0,0,0,2.16-5.48c.8-5.1-1.3-9.86-4.92-12a12.76,12.76,0,0,1,1.78,9,12.61,12.61,0,0,1-5.14,8.49c-4.39-1.74-7.08-7-6.19-12.67a13.46,13.46,0,0,1,2.16-5.47,12,12,0,0,0-7.34,9.62,12.35,12.35,0,0,0,3,10.49v0c.22.22.44.44.68.64l.07,0c.22.19.44.36.68.53l.15.1c.22.14.43.27.65.39l.29.14.58.28.47.16c.15.05.29.11.45.15a7.28,7.28,0,0,0,1,.21h0c.3,0,.6.07.9.08h.23a7.3,7.3,0,0,0,.81,0h.09a8.46,8.46,0,0,0,.86-.12l.25,0c.23,0,.45-.11.68-.18l.19,0a7.15,7.15,0,0,0,.77-.29l.29-.13c.18-.09.35-.17.52-.27l.29-.15q.33-.19.66-.42l.33-.24.37-.29Z" style="fill:#dbe329;mix-blend-mode:multiply"/><path d="M165,89.85a1.67,1.67,0,1,1,1.39,1.91A1.68,1.68,0,0,1,165,89.85Z" style="fill:#fff"/><circle cx="109.63" cy="48.45" r="18.22" style="fill:url(#Degradado_sin_nombre_3-8)"/><path d="M108.17,31.93a18.19,18.19,0,0,1,14.44,29.29A18.2,18.2,0,1,0,95.19,37.38,18.15,18.15,0,0,1,108.17,31.93Z" style="fill:#63244e;opacity:0.30000000000000004;mix-blend-mode:multiply"/><circle cx="109.63" cy="48.45" r="15.3" transform="translate(-2.15 91.71) rotate(-45)" style="fill:#f1f841"/><path d="M109.63,54.28A15.31,15.31,0,0,1,95.08,43.71a15.52,15.52,0,0,0-.75,4.74,15.3,15.3,0,1,0,29.84-4.74A15.29,15.29,0,0,1,109.63,54.28Z" style="fill:#dbe329;mix-blend-mode:multiply"/><circle cx="109.63" cy="48.45" r="9.4" transform="translate(-2.15 91.71) rotate(-45)" style="fill:#b61982"/><circle cx="109.63" cy="48.45" r="7.29" transform="translate(-2.15 91.71) rotate(-45)" style="fill:#0e393a"/><path d="M108.17,47.36a4,4,0,1,1-4-4A4,4,0,0,1,108.17,47.36Z" style="fill:#fff"/><path d="M125.78,24.85c-.31,1.85-4.19,2.75-8.68,2s-7.88-2.84-7.58-4.68,4.19-2.75,8.68-2S126.08,23,125.78,24.85Z" style="fill:#bf630c;opacity:0.4;mix-blend-mode:multiply"/><path d="M117.55,24.92h0a7.37,7.37,0,0,1-4.08-12.09h0l8.42-9.57L126,15.34h0a7.36,7.36,0,0,1-8.42,9.58Z" style="fill:url(#Degradado_sin_nombre_2-18)"/><path d="M126,15.34h0L121.89,3.26l-1,1.14,3.59,10.65h0a7.36,7.36,0,0,1-7.67,9.68c.24.07.48.14.74.19h0A7.36,7.36,0,0,0,126,15.34Z" style="fill:#ff8410"/><path d="M126.36,17.39a7.35,7.35,0,0,1-8.13,4.12h0a7.36,7.36,0,0,1-5.91-6.94,7.37,7.37,0,0,0,5.23,10.35h0A7.38,7.38,0,0,0,126.36,17.39Z" style="fill:#bf630c;opacity:0.4;mix-blend-mode:multiply"/><path d="M143,33.84c-.94,1.62-4.89,1.09-8.83-1.18s-6.38-5.43-5.44-7,4.89-1.09,8.83,1.18S144,32.22,143,33.84Z" style="fill:#bf630c;opacity:0.4;mix-blend-mode:multiply"/><path d="M135.61,31.66h0A7.37,7.37,0,0,1,136,18.91h0l11.24-6-.41,12.75h0a7.37,7.37,0,0,1-11.25,6Z" style="fill:url(#Degradado_sin_nombre_2-19)"/><path d="M146.86,25.64h0l.41-12.75-1.34.72-.36,11.23h0A7.36,7.36,0,0,1,135,31.22c.2.15.4.3.62.44h0A7.37,7.37,0,0,0,146.86,25.64Z" style="fill:#ff8410"/><path d="M146.5,27.69a7.33,7.33,0,0,1-9.05,1h0a7.34,7.34,0,0,1-3.11-8.56,7.38,7.38,0,0,0,1.27,11.52h0A7.37,7.37,0,0,0,146.5,27.69Z" style="fill:#bf630c;opacity:0.4;mix-blend-mode:multiply"/><path d="M85.78,26.41c.94,1.62-1.5,4.78-5.44,7.05s-7.89,2.81-8.82,1.19S73,29.87,77,27.59,84.85,24.79,85.78,26.41Z" style="fill:#bf630c;opacity:0.4;mix-blend-mode:multiply"/><path d="M80.21,31.71h0a7.37,7.37,0,0,1-11-6.45h0l.08-12.75,11,6.44h0a7.37,7.37,0,0,1-.08,12.76Z" style="fill:url(#Degradado_sin_nombre_2-20)"/><path d="M80.29,19h0l-11-6.44V14L79,19.7h0a7.37,7.37,0,0,1,.56,12.35l.68-.34h0A7.37,7.37,0,0,0,80.29,19Z" style="fill:#ff8410"/><path d="M81.92,20.24a7.34,7.34,0,0,1-3.43,8.44h0a7.35,7.35,0,0,1-9-1.35,7.38,7.38,0,0,0,10.73,4.38h0A7.37,7.37,0,0,0,81.92,20.24Z" style="fill:#bf630c;opacity:0.4;mix-blend-mode:multiply"/><path d="M80.21,31.71h0a7.37,7.37,0,0,1-11-6.45h0l.08-12.75,11,6.44h0a7.37,7.37,0,0,1-.08,12.76Z" style="fill:url(#Degradado_sin_nombre_40-6)"/><path d="M80.29,19h0l-11-6.44V14L79,19.7h0a7.37,7.37,0,0,1,.56,12.35l.68-.34h0A7.37,7.37,0,0,0,80.29,19Z" style="fill:#f6ce2e"/><path d="M81.92,20.24a7.34,7.34,0,0,1-3.43,8.44h0a7.35,7.35,0,0,1-9-1.35,7.38,7.38,0,0,0,10.73,4.38h0A7.37,7.37,0,0,0,81.92,20.24Z" style="fill:#63244e;opacity:0.30000000000000004;mix-blend-mode:multiply"/><path d="M105.33,21.88c.32,1.84-3,4-7.54,4.75s-8.37-.09-8.69-1.94,3.06-4,7.54-4.74S105,20,105.33,21.88Z" style="fill:#bf630c;opacity:0.4;mix-blend-mode:multiply"/><path d="M98.27,24.94h0a7.37,7.37,0,0,1-8.06-9.89h0L94.75,3.13l8,9.89h0a7.37,7.37,0,0,1-4.53,11.92Z" style="fill:url(#Degradado_sin_nombre_2-21)"/><path d="M102.8,13h0l-8-9.89-.54,1.42,7.09,8.71h0A7.36,7.36,0,0,1,97.51,25c.25,0,.5,0,.76-.08h0A7.37,7.37,0,0,0,102.8,13Z" style="fill:#ff8410"/><path d="M103.88,14.8a7.34,7.34,0,0,1-6.17,6.7h0a7.34,7.34,0,0,1-8-4.42,7.37,7.37,0,0,0,8.52,7.86h0A7.37,7.37,0,0,0,103.88,14.8Z" style="fill:#bf630c;opacity:0.4;mix-blend-mode:multiply"/><path d="M98.27,24.94h0a7.37,7.37,0,0,1-8.06-9.89h0L94.75,3.13l8,9.89h0a7.37,7.37,0,0,1-4.53,11.92Z" style="fill:url(#Degradado_sin_nombre_40-7)"/><path d="M102.8,13h0l-8-9.89-.54,1.42,7.09,8.71h0A7.36,7.36,0,0,1,97.51,25c.25,0,.5,0,.76-.08h0A7.37,7.37,0,0,0,102.8,13Z" style="fill:#f6ce2e"/><path d="M103.88,14.8a7.34,7.34,0,0,1-6.17,6.7h0a7.34,7.34,0,0,1-8-4.42,7.37,7.37,0,0,0,8.52,7.86h0A7.37,7.37,0,0,0,103.88,14.8Z" style="fill:#63244e;opacity:0.30000000000000004;mix-blend-mode:multiply"/><path d="M117.55,24.92h0a7.37,7.37,0,0,1-4.08-12.09h0l8.42-9.57L126,15.34h0a7.36,7.36,0,0,1-8.42,9.58Z" style="fill:url(#Degradado_sin_nombre_40-8)"/><path d="M126,15.34h0L121.89,3.26l-1,1.14,3.59,10.65h0a7.36,7.36,0,0,1-7.67,9.68c.24.07.48.14.74.19h0A7.36,7.36,0,0,0,126,15.34Z" style="fill:#f6ce2e"/><path d="M126.36,17.39a7.35,7.35,0,0,1-8.13,4.12h0a7.36,7.36,0,0,1-5.91-6.94,7.37,7.37,0,0,0,5.23,10.35h0A7.38,7.38,0,0,0,126.36,17.39Z" style="fill:#63244e;opacity:0.30000000000000004;mix-blend-mode:multiply"/><path d="M135.61,31.66h0A7.37,7.37,0,0,1,136,18.91h0l11.24-6-.41,12.75h0a7.37,7.37,0,0,1-11.25,6Z" style="fill:url(#Degradado_sin_nombre_40-9)"/><path d="M146.86,25.64h0l.41-12.75-1.34.72-.36,11.23h0A7.36,7.36,0,0,1,135,31.22c.2.15.4.3.62.44h0A7.37,7.37,0,0,0,146.86,25.64Z" style="fill:#f6ce2e"/><path d="M146.5,27.69a7.33,7.33,0,0,1-9.05,1h0a7.34,7.34,0,0,1-3.11-8.56,7.38,7.38,0,0,0,1.27,11.52h0A7.37,7.37,0,0,0,146.5,27.69Z" style="fill:#63244e;opacity:0.30000000000000004;mix-blend-mode:multiply"/><path d="M85,35.89c.54.67-.34,2.28-2,3.6s-3.4,1.83-3.94,1.16.34-2.28,2-3.6S84.41,35.22,85,35.89Z" style="fill:#bf630c;opacity:0.4;mix-blend-mode:multiply"/><path d="M82.81,38.65h0a3.4,3.4,0,0,1-5.6-1.82h0L76,31.07l5.6,1.82h0a3.4,3.4,0,0,1,1.23,5.76Z" style="fill:url(#Degradado_sin_nombre_2-22)"/><path d="M81.58,32.89h0L76,31.07l.15.69,4.93,1.6h0a3.4,3.4,0,0,1,1.48,5.51l.27-.22h0A3.4,3.4,0,0,0,81.58,32.89Z" style="fill:#ff8410"/><path d="M82.45,33.31a3.39,3.39,0,0,1-.71,4.14h0a3.39,3.39,0,0,1-4.2.28,3.41,3.41,0,0,0,5.27.92h0A3.41,3.41,0,0,0,82.45,33.31Z" style="fill:#bf630c;opacity:0.4;mix-blend-mode:multiply"/><path d="M82.81,38.65h0a3.4,3.4,0,0,1-5.6-1.82h0L76,31.07l5.6,1.82h0a3.4,3.4,0,0,1,1.23,5.76Z" style="fill:url(#Degradado_sin_nombre_40-10)"/><path d="M81.58,32.89h0L76,31.07l.15.69,4.93,1.6h0a3.4,3.4,0,0,1,1.48,5.51l.27-.22h0A3.4,3.4,0,0,0,81.58,32.89Z" style="fill:#f6ce2e"/><path d="M82.45,33.31a3.39,3.39,0,0,1-.71,4.14h0a3.39,3.39,0,0,1-4.2.28,3.41,3.41,0,0,0,5.27.92h0A3.41,3.41,0,0,0,82.45,33.31Z" style="fill:#bf630c;opacity:0.4;mix-blend-mode:multiply"/><path d="M97.67,29.65c.29.81-1.08,2-3.07,2.73s-3.81.6-4.1-.21,1.09-2,3.07-2.74S97.39,28.83,97.67,29.65Z" style="fill:#bf630c;opacity:0.4;mix-blend-mode:multiply"/><path d="M94.73,31.53h0A3.39,3.39,0,0,1,90.06,28h0l.76-5.84,4.67,3.58h0a3.39,3.39,0,0,1-.76,5.83Z" style="fill:url(#Degradado_sin_nombre_2-23)"/><path d="M95.49,25.7h0l-4.67-3.58-.09.7L94.84,26h0a3.39,3.39,0,0,1-.44,5.68,2.19,2.19,0,0,0,.33-.12h0A3.39,3.39,0,0,0,95.49,25.7Z" style="fill:#ff8410"/><path d="M96.17,26.38a3.39,3.39,0,0,1-2,3.67h0a3.38,3.38,0,0,1-4.05-1.13,3.39,3.39,0,0,0,4.66,2.61h0A3.4,3.4,0,0,0,96.17,26.38Z" style="fill:#bf630c;opacity:0.4;mix-blend-mode:multiply"/><path d="M94.73,31.53h0A3.39,3.39,0,0,1,90.06,28h0l.76-5.84,4.67,3.58h0a3.39,3.39,0,0,1-.76,5.83Z" style="fill:url(#Degradado_sin_nombre_40-11)"/><path d="M95.49,25.7h0l-4.67-3.58-.09.7L94.84,26h0a3.39,3.39,0,0,1-.44,5.68,2.19,2.19,0,0,0,.33-.12h0A3.39,3.39,0,0,0,95.49,25.7Z" style="fill:#f6ce2e"/><path d="M96.17,26.38a3.39,3.39,0,0,1-2,3.67h0a3.38,3.38,0,0,1-4.05-1.13,3.39,3.39,0,0,0,4.66,2.61h0A3.4,3.4,0,0,0,96.17,26.38Z" style="fill:#bf630c;opacity:0.4;mix-blend-mode:multiply"/><path d="M111.74,28c0,.86-1.7,1.56-3.8,1.56s-3.8-.71-3.8-1.57,1.7-1.56,3.8-1.56S111.74,27.12,111.74,28Z" style="fill:#bf630c;opacity:0.4;mix-blend-mode:multiply"/><path d="M108.34,28.79h0a3.39,3.39,0,0,1-3.22-4.92h0l2.66-5.26L111,23.54h0a3.39,3.39,0,0,1-2.66,5.25Z" style="fill:url(#Degradado_sin_nombre_2-24)"/><path d="M111,23.54h0l-3.22-4.93-.32.63,2.84,4.34h0A3.39,3.39,0,0,1,108,28.79a2,2,0,0,0,.35,0h0A3.39,3.39,0,0,0,111,23.54Z" style="fill:#ff8410"/><path d="M111.41,24.41a3.4,3.4,0,0,1-3.15,2.78h0a3.4,3.4,0,0,1-3.45-2.41,3.4,3.4,0,0,0,3.53,4h0A3.4,3.4,0,0,0,111.41,24.41Z" style="fill:#bf630c;opacity:0.4;mix-blend-mode:multiply"/><path d="M108.34,28.79h0a3.39,3.39,0,0,1-3.22-4.92h0l2.66-5.26L111,23.54h0a3.39,3.39,0,0,1-2.66,5.25Z" style="fill:url(#Degradado_sin_nombre_40-12)"/><path d="M111,23.54h0l-3.22-4.93-.32.63,2.84,4.34h0A3.39,3.39,0,0,1,108,28.79a2,2,0,0,0,.35,0h0A3.39,3.39,0,0,0,111,23.54Z" style="fill:#f6ce2e"/><path d="M111.41,24.41a3.4,3.4,0,0,1-3.15,2.78h0a3.4,3.4,0,0,1-3.45-2.41,3.4,3.4,0,0,0,3.53,4h0A3.4,3.4,0,0,0,111.41,24.41Z" style="fill:#bf630c;opacity:0.4;mix-blend-mode:multiply"/><path d="M125.57,31.1c-.29.82-2.13.91-4.11.21s-3.35-1.93-3.06-2.74,2.12-.91,4.1-.21S125.85,30.29,125.57,31.1Z" style="fill:#bf630c;opacity:0.4;mix-blend-mode:multiply"/><path d="M122.09,30.73h0a3.4,3.4,0,0,1-1.4-5.72h0l4.25-4.07,1.4,5.72h0a3.39,3.39,0,0,1-4.25,4.07Z" style="fill:url(#Degradado_sin_nombre_2-25)"/><path d="M126.34,26.66h0l-1.4-5.72-.5.49,1.23,5h0a3.4,3.4,0,0,1-3.91,4.15,2.19,2.19,0,0,0,.33.12h0A3.39,3.39,0,0,0,126.34,26.66Z" style="fill:#ff8410"/><path d="M126.44,27.61a3.39,3.39,0,0,1-3.9,1.58h0a3.38,3.38,0,0,1-2.44-3.42,3.39,3.39,0,0,0,2,5h0A3.4,3.4,0,0,0,126.44,27.61Z" style="fill:#bf630c;opacity:0.4;mix-blend-mode:multiply"/><path d="M122.09,30.73h0a3.4,3.4,0,0,1-1.4-5.72h0l4.25-4.07,1.4,5.72h0a3.39,3.39,0,0,1-4.25,4.07Z" style="fill:url(#Degradado_sin_nombre_40-13)"/><path d="M126.34,26.66h0l-1.4-5.72-.5.49,1.23,5h0a3.4,3.4,0,0,1-3.91,4.15,2.19,2.19,0,0,0,.33.12h0A3.39,3.39,0,0,0,126.34,26.66Z" style="fill:#f6ce2e"/><path d="M126.44,27.61a3.39,3.39,0,0,1-3.9,1.58h0a3.38,3.38,0,0,1-2.44-3.42,3.39,3.39,0,0,0,2,5h0A3.4,3.4,0,0,0,126.44,27.61Z" style="fill:#bf630c;opacity:0.4;mix-blend-mode:multiply"/><path d="M137.57,38.63c-.55.68-2.31.15-3.94-1.17s-2.52-2.93-2-3.6,2.31-.15,3.94,1.17S138.11,38,137.57,38.63Z" style="fill:#bf630c;opacity:0.4;mix-blend-mode:multiply"/><path d="M134.42,37.13h0a3.4,3.4,0,0,1,.57-5.86h0l5.37-2.43-.58,5.86h0a3.4,3.4,0,0,1-5.36,2.43Z" style="fill:url(#Degradado_sin_nombre_2-26)"/><path d="M139.78,34.7h0l.58-5.86-.64.29-.51,5.16h0a3.4,3.4,0,0,1-5.07,2.62l.28.22h0A3.4,3.4,0,0,0,139.78,34.7Z" style="fill:#ff8410"/><path d="M139.55,35.64a3.39,3.39,0,0,1-4.2.18h0a3.4,3.4,0,0,1-1.17-4,3.41,3.41,0,0,0,.24,5.35h0A3.4,3.4,0,0,0,139.55,35.64Z" style="fill:#bf630c;opacity:0.4;mix-blend-mode:multiply"/><path d="M134.42,37.13h0a3.4,3.4,0,0,1,.57-5.86h0l5.37-2.43-.58,5.86h0a3.4,3.4,0,0,1-5.36,2.43Z" style="fill:url(#Degradado_sin_nombre_40-14)"/><path d="M139.78,34.7h0l.58-5.86-.64.29-.51,5.16h0a3.4,3.4,0,0,1-5.07,2.62l.28.22h0A3.4,3.4,0,0,0,139.78,34.7Z" style="fill:#f6ce2e"/><path d="M139.55,35.64a3.39,3.39,0,0,1-4.2.18h0a3.4,3.4,0,0,1-1.17-4,3.41,3.41,0,0,0,.24,5.35h0A3.4,3.4,0,0,0,139.55,35.64Z" style="fill:#bf630c;opacity:0.4;mix-blend-mode:multiply"/></g></g></g></svg>