<svg xmlns="http://www.w3.org/2000/svg" xmlns:xlink="http://www.w3.org/1999/xlink" viewBox="0 0 165.42 171.51"><defs><linearGradient id="Degradado_sin_nombre_164" x1="28.37" y1="68.74" x2="28.37" y2="146.69" gradientTransform="matrix(-1, 0, 0, 1, 168.27, 0)" gradientUnits="userSpaceOnUse"><stop offset="0.13" stop-color="#fe3070"/><stop offset="0.24" stop-color="#db4f85"/><stop offset="0.44" stop-color="#a183a9"/><stop offset="0.62" stop-color="#73acc4"/><stop offset="0.78" stop-color="#52cad8"/><stop offset="0.91" stop-color="#3edce5"/><stop offset="1" stop-color="#37e2e9"/></linearGradient><linearGradient id="Degradado_sin_nombre_166" x1="73.14" y1="129.14" x2="73.14" y2="167.06" gradientTransform="matrix(1, 0, 0, -1, 21.98, 296.2)" gradientUnits="userSpaceOnUse"><stop offset="0.46" stop-color="#fe3070"/><stop offset="0.49" stop-color="#f23b77"/><stop offset="0.68" stop-color="#a382a8"/><stop offset="0.83" stop-color="#69b6cb"/><stop offset="0.94" stop-color="#45d6e1"/><stop offset="1" stop-color="#37e2e9"/></linearGradient><linearGradient id="Degradado_sin_nombre_166-2" x1="103.34" y1="129.14" x2="103.34" y2="167.06" gradientTransform="matrix(1, 0, 0, -1, -38.41, 296.2)" xlink:href="#Degradado_sin_nombre_166"/><linearGradient id="Degradado_sin_nombre_165" x1="88.59" y1="143.88" x2="88.59" y2="110.88" gradientTransform="matrix(-1, 0, 0, 1, 168.27, 0)" gradientUnits="userSpaceOnUse"><stop offset="0" stop-color="#fe3070"/><stop offset="0" stop-color="#fb3272"/><stop offset="0.05" stop-color="#d2578b"/><stop offset="0.1" stop-color="#ae78a1"/><stop offset="0.15" stop-color="#8e95b4"/><stop offset="0.22" stop-color="#72adc5"/><stop offset="0.29" stop-color="#5cc1d2"/><stop offset="0.37" stop-color="#4bd0dd"/><stop offset="0.47" stop-color="#40dae4"/><stop offset="0.61" stop-color="#39e0e8"/><stop offset="1" stop-color="#37e2e9"/></linearGradient><linearGradient id="Degradado_sin_nombre_164-2" x1="87.54" y1="30.82" x2="87.54" y2="127.03" gradientTransform="matrix(1, 0, 0, -1, -6.81, 157.85)" xlink:href="#Degradado_sin_nombre_164"/><linearGradient id="Degradado_sin_nombre_164-3" x1="31.61" y1="40.07" x2="31.61" y2="14.55" gradientTransform="matrix(-0.71, -0.71, -0.71, 0.71, 138.89, 28.5)" xlink:href="#Degradado_sin_nombre_164"/><linearGradient id="Degradado_sin_nombre_164-4" x1="88.59" y1="34.59" x2="88.59" y2="9.07" xlink:href="#Degradado_sin_nombre_164"/><linearGradient id="Degradado_sin_nombre_164-5" x1="143.67" y1="38.82" x2="143.67" y2="13.31" gradientTransform="matrix(-0.71, 0.71, 0.71, 0.71, 147.23, -93.28)" xlink:href="#Degradado_sin_nombre_164"/><linearGradient id="Degradado_sin_nombre_164-6" x1="151.45" y1="68.74" x2="151.45" y2="146.69" gradientTransform="matrix(1, 0, 0, -1, -134.62, 215.43)" xlink:href="#Degradado_sin_nombre_164"/></defs><g style="isolation:isolate"><g id="Layer_2" data-name="Layer 2"><g id="OBJECTS"><path d="M139.9,146.69h0a15.14,15.14,0,0,0,15.1-15.1V83.84a15.14,15.14,0,0,0-15.1-15.1h0a15.14,15.14,0,0,0-15.1,15.1v47.75A15.14,15.14,0,0,0,139.9,146.69Z" style="fill:url(#Degradado_sin_nombre_164)"/><path d="M147.25,75.09c0,1.37-1.81,2.48-4,2.48s-4-1.11-4-2.48,1.81-2.49,4-2.49S147.25,73.71,147.25,75.09Z" style="fill:#31cbd1;opacity:0.27;mix-blend-mode:multiply"/><path d="M152.45,83.25c0,1.1-1.36,2-3,2s-3-.89-3-2,1.36-2,3-2S152.45,82.15,152.45,83.25Z" style="fill:#31cbd1;opacity:0.27;mix-blend-mode:multiply"/><path d="M144.39,80c0,.68-.79,1.24-1.77,1.24s-1.77-.56-1.77-1.24.79-1.25,1.77-1.25S144.39,79.33,144.39,80Z" style="fill:#31cbd1;opacity:0.27;mix-blend-mode:multiply"/><path d="M145.51,88c0,.88-1,1.6-2.33,1.6s-2.33-.72-2.33-1.6,1.05-1.61,2.33-1.61S145.51,87.07,145.51,88Z" style="fill:#31cbd1;opacity:0.27;mix-blend-mode:multiply"/><path d="M150.55,94.88c0,1.06-1.13,1.91-2.52,1.91s-2.52-.85-2.52-1.91a2.62,2.62,0,0,1,5,0Z" style="fill:#31cbd1;opacity:0.27;mix-blend-mode:multiply"/><path d="M139.9,146.69h0a15.14,15.14,0,0,0,15.1-15.1V83.84a15.14,15.14,0,0,0-15.1-15.1h0a15.14,15.14,0,0,0-15.1,15.1v47.75A15.14,15.14,0,0,0,139.9,146.69Z" style="fill:#31cbd1;opacity:0.48;mix-blend-mode:multiply"/><rect x="122.22" y="130.1" width="36.93" height="30.17" rx="8.43" transform="translate(281.38 290.37) rotate(180)" style="fill:#37e2e9"/><path d="M130.1,130.13v5.66a8.45,8.45,0,0,0,8.42,8.43H158.6c.19,0,.37,0,.56,0v7.65a8.46,8.46,0,0,1-8.43,8.43H130.65a8.46,8.46,0,0,1-8.43-8.43V138.53A8.45,8.45,0,0,1,130.1,130.13Z" style="fill:#31cbd1"/><path d="M131.12,163.37h3a8,8,0,0,0,8-8h0a8,8,0,0,0-8-8h-3a8,8,0,0,0-8,8h0A8,8,0,0,0,131.12,163.37Z" style="fill:#33d2d9"/><path d="M128.63,147.8a8,8,0,0,0,8,7.63h3a8,8,0,0,0,2.5-.41c0,.12,0,.24,0,.36a8,8,0,0,1-8,8h-3a8,8,0,0,1-2.49-15.57Z" style="fill:#30c2c9"/><path d="M147.07,163.37h3a8,8,0,0,0,8-8h0a8,8,0,0,0-8-8h-3a8,8,0,0,0-8,8h0A8,8,0,0,0,147.07,163.37Z" style="fill:#33d2d9"/><path d="M143.41,148.3a7.83,7.83,0,0,0-.12,1.29,8,8,0,0,0,8,8h3a8,8,0,0,0,3.66-.9,8,8,0,0,1-7.88,6.69h-3a8,8,0,0,1-3.66-15.07Z" style="fill:#30c2c9"/><path d="M158.48,133.53h0a6.93,6.93,0,0,1,6.93,6.93V151.7a6.94,6.94,0,0,1-6.94,6.94h0a6.93,6.93,0,0,1-6.93-6.93V140.46a6.93,6.93,0,0,1,6.93-6.93Z" transform="translate(316.96 292.16) rotate(180)" style="fill:#33d2d9"/><path d="M155,150.38a7,7,0,0,0,6.93-6.94v-9a6.94,6.94,0,0,1,3.49,6V151.7a6.94,6.94,0,0,1-13.87,0v-2.25A6.82,6.82,0,0,0,155,150.38Z" style="fill:#30c2c9"/><rect x="85.3" y="129.14" width="19.66" height="37.92" rx="8.43" transform="translate(190.26 296.2) rotate(180)" style="fill:url(#Degradado_sin_nombre_166)"/><rect x="55.1" y="129.14" width="19.66" height="37.92" rx="8.43" transform="translate(129.86 296.2) rotate(180)" style="fill:url(#Degradado_sin_nombre_166-2)"/><rect x="85.3" y="117.33" width="19.66" height="37.92" rx="8.43" transform="translate(190.26 272.58) rotate(-180)" style="fill:#31cbd1;opacity:0.48;mix-blend-mode:multiply"/><rect x="55.1" y="117.33" width="19.66" height="37.92" rx="8.43" transform="translate(129.86 272.58) rotate(-180)" style="fill:#31cbd1;opacity:0.48;mix-blend-mode:multiply"/><path d="M60.72,143.88H98.64a24.65,24.65,0,0,0,24.58-24.58h0a8.45,8.45,0,0,0-8.43-8.42H44.56a8.45,8.45,0,0,0-8.42,8.42h0A24.65,24.65,0,0,0,60.72,143.88Z" style="fill:url(#Degradado_sin_nombre_165)"/><path d="M60.72,143.88H98.64a24.65,24.65,0,0,0,24.58-24.58h0a8.45,8.45,0,0,0-8.43-8.42H44.56a8.45,8.45,0,0,0-8.42,8.42h0A24.65,24.65,0,0,0,60.72,143.88Z" style="fill:#31cbd1;opacity:0.48;mix-blend-mode:multiply"/><path d="M25.6,30.82H135.86a8.43,8.43,0,0,1,8.43,8.43V63.47A63.56,63.56,0,0,1,80.73,127h0A63.56,63.56,0,0,1,17.18,63.47V39.24a8.43,8.43,0,0,1,8.43-8.43Z" transform="translate(161.46 157.85) rotate(180)" style="fill:url(#Degradado_sin_nombre_164-2)"/><path d="M45.56,41.51c-.11,1.57-.18,3.16-.18,4.76h0A32.75,32.75,0,0,0,78,78.92h64.33a63.06,63.06,0,0,1,1.92,15.45V118.6a8.45,8.45,0,0,1-8.43,8.43H25.6a8.45,8.45,0,0,1-8.42-8.43V94.37A63.62,63.62,0,0,1,45.56,41.51Z" style="fill:#31cbd1;opacity:0.27;mix-blend-mode:multiply"/><path d="M54.7,81.41a2.75,2.75,0,0,0-4.77,0L48.09,84.6l-4.23,7.32h16.9L56.54,84.6Z" style="fill:#ffe2b8"/><path d="M134,81.41a2.75,2.75,0,0,0-4.77,0l-1.84,3.19-4.23,7.32H140l-4.22-7.32Z" style="fill:#ffe2b8"/><rect x="27.71" y="89.11" width="125.71" height="42.84" rx="21.42" transform="translate(181.13 221.05) rotate(180)" style="fill:#37e2e9"/><path d="M17.18,118.6V94.37a63,63,0,0,1,7.64-30.11,15.15,15.15,0,0,1,13.48,15V127H25.6A8.45,8.45,0,0,1,17.18,118.6Z" style="fill:#31cbd1;opacity:0.27;mix-blend-mode:multiply"/><path d="M43.21,90a21.33,21.33,0,0,0-1.1,6.76h0a21.48,21.48,0,0,0,21.42,21.42H146.4a21,21,0,0,0,5.91-.84A21.5,21.5,0,0,1,132,132H49.13a21.48,21.48,0,0,1-21.42-21.42h0A21.5,21.5,0,0,1,43.21,90Z" style="fill:#31cbd1"/><circle cx="119.24" cy="63.17" r="10.3" style="fill:#6ef294"/><path d="M114.09,63.17A5.15,5.15,0,1,0,119.24,58,5.16,5.16,0,0,0,114.09,63.17Z" style="fill:#0e393a"/><circle cx="114.6" cy="64.06" r="2.67" style="fill:#fff"/><path d="M119.24,69.08A10.3,10.3,0,0,0,129.3,61a10.59,10.59,0,0,1,.24,2.2,10.3,10.3,0,0,1-20.6,0,10.59,10.59,0,0,1,.24-2.2A10.3,10.3,0,0,0,119.24,69.08Z" style="fill:#3eed71"/><path d="M129.54,63.17a10.3,10.3,0,1,0-20.6,0Z" style="fill:#37e2e9"/><path d="M124.9,58.93a10.24,10.24,0,0,0-1.38-5.12,10.3,10.3,0,0,1,6,9.36h-20.6a10.22,10.22,0,0,1,.92-4.24Z" style="fill:#31cbd1"/><circle cx="88.81" cy="63.17" r="10.3" style="fill:#6ef294"/><path d="M83.66,63.17A5.15,5.15,0,1,0,88.81,58,5.15,5.15,0,0,0,83.66,63.17Z" style="fill:#0e393a"/><circle cx="84.17" cy="64.06" r="2.67" style="fill:#fff"/><path d="M88.81,69.08A10.3,10.3,0,0,0,98.87,61a10.59,10.59,0,0,1,.24,2.2,10.3,10.3,0,0,1-20.6,0,10,10,0,0,1,.24-2.2A10.29,10.29,0,0,0,88.81,69.08Z" style="fill:#3eed71"/><path d="M99.11,63.17a10.3,10.3,0,0,0-20.6,0Z" style="fill:#37e2e9"/><path d="M97.72,58a10.2,10.2,0,0,1,1.39,5.15H78.51A10.2,10.2,0,0,1,79.9,58Z" style="fill:#31cbd1"/><circle cx="58.38" cy="63.17" r="10.3" style="fill:#6ef294"/><path d="M53.23,63.17A5.15,5.15,0,1,0,58.38,58,5.15,5.15,0,0,0,53.23,63.17Z" style="fill:#0e393a"/><circle cx="53.73" cy="64.06" r="2.67" style="fill:#fff"/><path d="M58.38,69.08A10.3,10.3,0,0,0,68.44,61a10.59,10.59,0,0,1,.24,2.2,10.3,10.3,0,1,1-20.6,0,10,10,0,0,1,.24-2.2A10.29,10.29,0,0,0,58.38,69.08Z" style="fill:#3eed71"/><path d="M68.68,63.17a10.3,10.3,0,1,0-20.6,0Z" style="fill:#37e2e9"/><path d="M54.14,53.78A10.37,10.37,0,0,0,53.23,58H67.29a10.2,10.2,0,0,1,1.39,5.15H48.08A10.31,10.31,0,0,1,54.14,53.78Z" style="fill:#31cbd1"/><path d="M88.21,34.48h0a2,2,0,0,0,2.81,0l15.23-15.22a2,2,0,0,0,0-2.82h0a2,2,0,0,0-2.82,0L88.21,31.67A2,2,0,0,0,88.21,34.48Z" style="fill:url(#Degradado_sin_nombre_164-3)"/><path d="M79.68,34.59h0a2,2,0,0,0,2-2V11.06a2,2,0,0,0-2-2h0a2,2,0,0,0-2,2V32.6A2,2,0,0,0,79.68,34.59Z" style="fill:url(#Degradado_sin_nombre_164-4)"/><path d="M73.09,35.77h0a2,2,0,0,0,0-2.82L57.86,17.72a2,2,0,0,0-2.81,0h0a2,2,0,0,0,0,2.82L70.28,35.77A2,2,0,0,0,73.09,35.77Z" style="fill:url(#Degradado_sin_nombre_164-5)"/><circle cx="106.25" cy="16.44" r="7.84" style="fill:#37e2e9"/><circle cx="79.68" cy="7.84" r="7.84" style="fill:#37e2e9"/><circle cx="52.48" cy="15.16" r="7.84" style="fill:#37e2e9"/><ellipse cx="56.24" cy="46.71" rx="5.88" ry="2.37" style="fill:#31cbd1;opacity:0.27;mix-blend-mode:multiply"/><path d="M59.31,41.12c0,.93,1.5,1.69,3.34,1.69S66,42.05,66,41.12s-1.49-1.7-3.33-1.7S59.31,40.18,59.31,41.12Z" style="fill:#31cbd1;opacity:0.27;mix-blend-mode:multiply"/><ellipse cx="67.97" cy="50.45" rx="5.03" ry="2.42" style="fill:#31cbd1;opacity:0.27;mix-blend-mode:multiply"/><path d="M47.26,52.11c0,.42.69.76,1.55.76s1.55-.34,1.55-.76-.7-.75-1.55-.75S47.26,51.7,47.26,52.11Z" style="fill:#31cbd1;opacity:0.27;mix-blend-mode:multiply"/><ellipse cx="49.22" cy="43.57" rx="1.14" ry="0.76" style="fill:#31cbd1;opacity:0.27;mix-blend-mode:multiply"/><ellipse cx="90.56" cy="40.88" rx="14.63" ry="5.5" style="fill:#31cbd1;opacity:0.51;mix-blend-mode:lighten"/><path d="M107,45.52c0,.66,1.71,1.19,3.82,1.19s3.83-.53,3.83-1.19-1.71-1.18-3.83-1.18S107,44.87,107,45.52Z" style="fill:#31cbd1;opacity:0.51;mix-blend-mode:lighten"/><path d="M97,49.69c0,.92,2.67,1.67,6,1.67s6-.75,6-1.67S106.27,48,103,48,97,48.77,97,49.69Z" style="fill:#31cbd1;opacity:0.51;mix-blend-mode:lighten"/><path d="M77.69,33.8c0,.87,2,1.58,4.57,1.58s4.58-.71,4.58-1.58-2-1.58-4.58-1.58S77.69,32.93,77.69,33.8Z" style="fill:#31cbd1;opacity:0.51;mix-blend-mode:lighten"/><rect x="1.73" y="68.74" width="30.2" height="77.95" rx="15.1" transform="translate(33.65 215.43) rotate(180)" style="fill:url(#Degradado_sin_nombre_164-6)"/><path d="M8.75,133.53a15.15,15.15,0,0,0,15.1-15.1V70.67c0-.06,0-.12,0-.18a15.12,15.12,0,0,1,8.08,13.35v47.75a15.1,15.1,0,0,1-30.19.19A15,15,0,0,0,8.75,133.53Z" style="fill:#31cbd1;opacity:0.48;mix-blend-mode:multiply"/><path d="M36.26,159.7h0a7,7,0,0,0,6.93-6.94V141.53a7,7,0,0,0-6.93-6.94h0a7,7,0,0,0-6.94,6.94v11.23A7,7,0,0,0,36.26,159.7Z" style="fill:#33d2d9"/><rect y="131.17" width="36.93" height="30.17" rx="8.43" transform="translate(36.93 292.5) rotate(180)" style="fill:#37e2e9"/><path d="M24.84,164.44h3a8,8,0,0,0,8-8h0a8,8,0,0,0-8-8h-3a8,8,0,0,0-8,8h0A8,8,0,0,0,24.84,164.44Z" style="fill:#37e2e9"/><path d="M8.9,164.44h3a8,8,0,0,0,8-8h0a8,8,0,0,0-8-8h-3a8,8,0,0,0-8,8h0A8,8,0,0,0,8.9,164.44Z" style="fill:#37e2e9"/><path d="M.35,151.08H20.43a8.45,8.45,0,0,0,8.42-8.43V131.18a8.45,8.45,0,0,1,8.08,8.41v13.32a8.46,8.46,0,0,1-8.43,8.43H8.43A8.46,8.46,0,0,1,0,152.91v-1.85Z" style="fill:#31cbd1"/><ellipse cx="16.47" cy="73.48" rx="5.44" ry="2.28" style="fill:#31cbd1;opacity:0.27;mix-blend-mode:multiply"/><path d="M4,81c0,1,1.83,1.82,4.09,1.82S12.2,82,12.2,81s-1.83-1.83-4.1-1.83S4,80,4,81Z" style="fill:#31cbd1;opacity:0.27;mix-blend-mode:multiply"/><ellipse cx="17.28" cy="78.01" rx="2.39" ry="1.14" style="fill:#31cbd1;opacity:0.27;mix-blend-mode:multiply"/><path d="M13.37,85.31c0,.82,1.41,1.48,3.15,1.48s3.14-.66,3.14-1.48-1.4-1.47-3.14-1.47S13.37,84.5,13.37,85.31Z" style="fill:#31cbd1;opacity:0.27;mix-blend-mode:multiply"/><path d="M6.58,91.68c0,1,1.52,1.76,3.4,1.76s3.39-.79,3.39-1.76S11.85,89.93,10,89.93,6.58,90.71,6.58,91.68Z" style="fill:#31cbd1;opacity:0.27;mix-blend-mode:multiply"/><path d="M98,103.15h35.27a4.05,4.05,0,0,0,4-4h0a4,4,0,0,0-4-4H98a4,4,0,0,0-4,4h0A4.05,4.05,0,0,0,98,103.15Z" style="fill:#31cbd1;mix-blend-mode:screen"/><path d="M80,103.15h6a4.05,4.05,0,0,0,4-4h0a4,4,0,0,0-4-4H80a4,4,0,0,0-4,4h0A4.05,4.05,0,0,0,80,103.15Z" style="fill:#31cbd1;mix-blend-mode:screen"/><rect x="84.17" y="158.63" width="37.65" height="12.88" rx="6.44" transform="translate(205.98 330.14) rotate(180)" style="fill:#31cbd1"/><path d="M96.36,171.51h8.29a5.77,5.77,0,0,0,5.75-5.76h0a5.77,5.77,0,0,0-5.75-5.76H96.36a5.78,5.78,0,0,0-5.76,5.76h0A5.78,5.78,0,0,0,96.36,171.51Z" style="fill:#37e2e9"/><rect x="111.63" y="161.63" width="12.64" height="9.88" rx="4.94" transform="translate(235.91 333.14) rotate(180)" style="fill:#37e2e9"/><rect x="93.96" y="159.99" width="13.64" height="3.38" rx="1.69" transform="translate(201.55 323.36) rotate(-180)" style="fill:#87eef2"/><path d="M115.26,164.25h4.56a1.16,1.16,0,0,0,1.16-1.17h0a1.16,1.16,0,0,0-1.16-1.16h-4.56a1.16,1.16,0,0,0-1.17,1.16h0A1.17,1.17,0,0,0,115.26,164.25Z" style="fill:#87eef2"/><rect x="40.18" y="158.63" width="37.65" height="12.88" rx="6.44" style="fill:#31cbd1"/><path d="M65.64,171.51H57.35a5.77,5.77,0,0,1-5.76-5.76h0A5.77,5.77,0,0,1,57.35,160h8.29a5.77,5.77,0,0,1,5.75,5.76h0A5.77,5.77,0,0,1,65.64,171.51Z" style="fill:#37e2e9"/><rect x="37.72" y="161.63" width="12.64" height="9.88" rx="4.94" style="fill:#37e2e9"/><rect x="54.4" y="159.99" width="13.64" height="3.38" rx="1.69" style="fill:#87eef2"/><path d="M46.74,164.25H42.18A1.17,1.17,0,0,1,41,163.08h0a1.17,1.17,0,0,1,1.17-1.16h4.56a1.17,1.17,0,0,1,1.17,1.16h0A1.17,1.17,0,0,1,46.74,164.25Z" style="fill:#87eef2"/><circle cx="79.68" cy="7.84" r="6.76" style="fill:#fe306e"/><path d="M76.3,7.84a3.38,3.38,0,1,0,3.38-3.38A3.38,3.38,0,0,0,76.3,7.84Z" style="fill:#0e393a"/><circle cx="76.63" cy="8.43" r="1.75" style="fill:#fff"/><path d="M79.68,11.72a6.76,6.76,0,0,0,6.6-5.32,6.91,6.91,0,0,1,.16,1.44,6.76,6.76,0,1,1-13.52,0,6.91,6.91,0,0,1,.16-1.44A6.76,6.76,0,0,0,79.68,11.72Z" style="fill:#bf2453"/><path d="M86.44,7.84a6.76,6.76,0,1,0-13.52,0Z" style="fill:#37e2e9"/><circle cx="52.48" cy="15.16" r="6.76" style="fill:#fe306e"/><path d="M49.1,15.16a3.38,3.38,0,1,0,3.38-3.38A3.38,3.38,0,0,0,49.1,15.16Z" style="fill:#0e393a"/><circle cx="49.44" cy="15.74" r="1.75" style="fill:#fff"/><path d="M52.48,19a6.76,6.76,0,0,0,6.6-5.32,6.76,6.76,0,1,1-13.2,0A6.76,6.76,0,0,0,52.48,19Z" style="fill:#bf2453"/><path d="M59.24,15.16a6.76,6.76,0,0,0-13.52,0Z" style="fill:#37e2e9"/><path d="M99.49,16.44a6.76,6.76,0,1,0,6.76-6.76A6.76,6.76,0,0,0,99.49,16.44Z" style="fill:#fe306e"/><path d="M102.87,16.44a3.38,3.38,0,1,0,3.38-3.38A3.38,3.38,0,0,0,102.87,16.44Z" style="fill:#0e393a"/><path d="M101.45,17a1.75,1.75,0,1,0,1.75-1.76A1.75,1.75,0,0,0,101.45,17Z" style="fill:#fff"/><path d="M106.25,20.32a6.76,6.76,0,0,0,6.6-5.32,6.91,6.91,0,0,1,.16,1.44,6.76,6.76,0,0,1-13.52,0A6.91,6.91,0,0,1,99.65,15,6.76,6.76,0,0,0,106.25,20.32Z" style="fill:#bf2453"/><path d="M113,16.44a6.76,6.76,0,1,0-13.52,0Z" style="fill:#37e2e9"/><path d="M46.94,9.61a8,8,0,0,1,1.25-1,7.84,7.84,0,0,0,11.2,10.28A8,8,0,0,1,58,20.7,7.84,7.84,0,0,1,46.94,9.61Z" style="fill:#30c2c9;opacity:0.43;mix-blend-mode:multiply"/><path d="M74.56,1.91A7.84,7.84,0,0,0,87.38,9.32,7.84,7.84,0,1,1,74.56,1.91Z" style="fill:#30c2c9;opacity:0.43;mix-blend-mode:multiply"/><path d="M108.52,18.61A7.87,7.87,0,0,0,110,9.54a8.1,8.1,0,0,1,1.81,1.36A7.84,7.84,0,1,1,100.7,22a7.92,7.92,0,0,1-1.46-2A7.85,7.85,0,0,0,108.52,18.61Z" style="fill:#30c2c9;opacity:0.43;mix-blend-mode:multiply"/></g></g></g></svg>