<svg xmlns="http://www.w3.org/2000/svg" xmlns:xlink="http://www.w3.org/1999/xlink" viewBox="0 0 161.6 166.91"><defs><linearGradient id="Degradado_sin_nombre_163" x1="62.4" y1="166.91" x2="62.4" y2="126.61" gradientUnits="userSpaceOnUse"><stop offset="0.12" stop-color="#781f5b"/><stop offset="0.19" stop-color="#841e63"/><stop offset="0.35" stop-color="#9a1c70"/><stop offset="0.52" stop-color="#aa1a7a"/><stop offset="0.72" stop-color="#b31980"/><stop offset="1" stop-color="#b61982"/></linearGradient><linearGradient id="Degradado_sin_nombre_163-2" x1="100.46" y1="166.91" x2="100.46" y2="126.61" xlink:href="#Degradado_sin_nombre_163"/><linearGradient id="Degradado_sin_nombre_163-3" x1="128.96" y1="128.47" x2="128.96" y2="51.23" xlink:href="#Degradado_sin_nombre_163"/><linearGradient id="Degradado_sin_nombre_162" x1="101.79" y1="62.19" x2="112.81" y2="62.19" gradientTransform="matrix(-1, 0, 0, 1, 243.04, 0)" gradientUnits="userSpaceOnUse"><stop offset="1" stop-color="#781f5b"/><stop offset="1" stop-color="#841e63"/><stop offset="1" stop-color="#9a1c70"/><stop offset="1" stop-color="#aa1a7a"/><stop offset="1" stop-color="#b31980"/><stop offset="1" stop-color="#b61982"/></linearGradient><linearGradient id="Degradado_sin_nombre_162-2" x1="99.94" y1="69.48" x2="108.26" y2="69.48" xlink:href="#Degradado_sin_nombre_162"/><linearGradient id="Degradado_sin_nombre_162-3" x1="114.11" y1="71.81" x2="123.35" y2="71.81" xlink:href="#Degradado_sin_nombre_162"/><linearGradient id="Degradado_sin_nombre_162-4" x1="109" y1="84.12" x2="113.92" y2="84.12" xlink:href="#Degradado_sin_nombre_162"/><linearGradient id="Degradado_sin_nombre_162-5" x1="106.04" y1="75.92" x2="113.73" y2="75.92" xlink:href="#Degradado_sin_nombre_162"/><linearGradient id="Degradado_sin_nombre_162-6" x1="100.89" y1="81.83" x2="107.3" y2="81.83" xlink:href="#Degradado_sin_nombre_162"/><linearGradient id="Degradado_sin_nombre_163-4" x1="28.66" y1="128.47" x2="28.66" y2="51.23" xlink:href="#Degradado_sin_nombre_163"/><linearGradient id="Degradado_sin_nombre_162-7" x1="15.68" y1="62.19" x2="26.7" y2="62.19" gradientTransform="matrix(1, 0, 0, 1, 0, 0)" xlink:href="#Degradado_sin_nombre_162"/><linearGradient id="Degradado_sin_nombre_162-8" x1="13.82" y1="69.48" x2="22.14" y2="69.48" gradientTransform="matrix(1, 0, 0, 1, 0, 0)" xlink:href="#Degradado_sin_nombre_162"/><linearGradient id="Degradado_sin_nombre_162-9" x1="28" y1="71.81" x2="37.24" y2="71.81" gradientTransform="matrix(1, 0, 0, 1, 0, 0)" xlink:href="#Degradado_sin_nombre_162"/><linearGradient id="Degradado_sin_nombre_162-10" x1="22.88" y1="84.12" x2="27.81" y2="84.12" gradientTransform="matrix(1, 0, 0, 1, 0, 0)" xlink:href="#Degradado_sin_nombre_162"/><linearGradient id="Degradado_sin_nombre_162-11" x1="19.92" y1="75.92" x2="27.62" y2="75.92" gradientTransform="matrix(1, 0, 0, 1, 0, 0)" xlink:href="#Degradado_sin_nombre_162"/><linearGradient id="Degradado_sin_nombre_162-12" x1="14.78" y1="81.83" x2="21.19" y2="81.83" gradientTransform="matrix(1, 0, 0, 1, 0, 0)" xlink:href="#Degradado_sin_nombre_162"/><linearGradient id="Degradado_sin_nombre_161" x1="81.86" y1="113.12" x2="81.86" y2="38.92" gradientUnits="userSpaceOnUse"><stop offset="0.21" stop-color="#781f5b"/><stop offset="0.42" stop-color="#982f75"/><stop offset="0.64" stop-color="#b13c8a"/><stop offset="0.84" stop-color="#c04497"/><stop offset="1" stop-color="#c5479b"/></linearGradient></defs><g style="isolation:isolate"><g id="Layer_2" data-name="Layer 2"><g id="OBJECTS"><rect x="46.66" y="126.61" width="31.48" height="40.29" rx="11.37" style="fill:url(#Degradado_sin_nombre_163)"/><rect x="84.72" y="126.61" width="31.48" height="40.29" rx="11.37" style="fill:url(#Degradado_sin_nombre_163-2)"/><rect x="46.66" y="115.3" width="31.48" height="40.29" rx="11.37" style="fill:#ab3081;opacity:0.39;mix-blend-mode:multiply"/><rect x="84.72" y="115.3" width="31.48" height="40.29" rx="11.37" style="fill:#ab3081;opacity:0.39;mix-blend-mode:multiply"/><path d="M81.86,12.39h0A49.54,49.54,0,0,1,131.4,61.93v69.63a10.79,10.79,0,0,1-10.79,10.79H43.11a10.79,10.79,0,0,1-10.79-10.79V61.93A49.54,49.54,0,0,1,81.86,12.39Z" style="fill:#b61982"/><path d="M120.61,128.89H43.11A10.82,10.82,0,0,1,32.32,118.1v13.46a10.81,10.81,0,0,0,10.79,10.79h77.5a10.82,10.82,0,0,0,10.79-10.79V118.1A10.83,10.83,0,0,1,120.61,128.89Z" style="fill:#ab3081;opacity:0.65;mix-blend-mode:multiply"/><rect x="113.22" y="51.23" width="31.48" height="77.25" rx="15.74" style="fill:url(#Degradado_sin_nombre_163-3)"/><path d="M135.49,52.67c0,.16,0,.31,0,.47V98.91a15.8,15.8,0,0,1-15.74,15.74,15.53,15.53,0,0,1-6.53-1.45A15.78,15.78,0,0,0,129,128.47h0a15.78,15.78,0,0,0,15.74-15.74V67A15.79,15.79,0,0,0,135.49,52.67Z" style="fill:#ab3081;opacity:0.39;mix-blend-mode:multiply"/><path d="M130.23,62.19c0,1.84,2.47,3.33,5.51,3.33s5.51-1.49,5.51-3.33-2.46-3.33-5.51-3.33S130.23,60.35,130.23,62.19Z" style="fill:url(#Degradado_sin_nombre_162)"/><ellipse cx="138.95" cy="69.48" rx="4.16" ry="1.92" style="fill:url(#Degradado_sin_nombre_162-2)"/><path d="M119.69,71.81c0,1.29,2.07,2.33,4.62,2.33s4.62-1,4.62-2.33-2.07-2.33-4.62-2.33S119.69,70.53,119.69,71.81Z" style="fill:url(#Degradado_sin_nombre_162-3)"/><path d="M129.12,84.12c0,.69,1.1,1.25,2.46,1.25s2.47-.56,2.47-1.25-1.11-1.24-2.47-1.24S129.12,83.44,129.12,84.12Z" style="fill:url(#Degradado_sin_nombre_162-4)"/><path d="M111,97.09a20.36,20.36,0,0,1-5.73-5.87,18.46,18.46,0,0,1-2.66-7,16.74,16.74,0,0,1,.37-6.87h0a39.56,39.56,0,0,0,14.38-16.11H46.4A39.62,39.62,0,0,0,61,77.45a16.91,16.91,0,0,1,.34,6.72,18.49,18.49,0,0,1-2.67,7A20.19,20.19,0,0,1,53,97.09a22.09,22.09,0,0,1-8.19,3.36,22.84,22.84,0,0,0,4.7.4h0a20.94,20.94,0,0,0,2.36-.16H52c.38,0,.76-.1,1.14-.17s.8-.14,1.21-.23a24.79,24.79,0,0,0,3.6-1.09q1.18-.47,2.34-1a24.49,24.49,0,0,0,3.35-2,26.71,26.71,0,0,0,5-4.68V114c0,.14,0,.27,0,.4a5.11,5.11,0,0,0,3.51,8.83H91.77a5.14,5.14,0,0,0,5.13-5.12,5.08,5.08,0,0,0-1.81-3.87c0-.08,0-.16,0-.24V91.17a27.14,27.14,0,0,0,5.23,5,25.77,25.77,0,0,0,3.35,2,25.12,25.12,0,0,0,5.95,2.14l.16,0,1,.2c.39.07.78.13,1.18.17h0a21,21,0,0,0,2.37.16h0a22.87,22.87,0,0,0,4.71-.4A22,22,0,0,1,111,97.09Z" style="fill:#ab3081;opacity:0.39;mix-blend-mode:multiply"/><path d="M129.32,75.92c0,1.22,1.72,2.2,3.84,2.2s3.85-1,3.85-2.2-1.72-2.21-3.85-2.21S129.32,74.7,129.32,75.92Z" style="fill:url(#Degradado_sin_nombre_162-5)"/><path d="M135.74,81.83c0,.93,1.44,1.69,3.21,1.69s3.2-.76,3.2-1.69-1.43-1.68-3.2-1.68S135.74,80.9,135.74,81.83Z" style="fill:url(#Degradado_sin_nombre_162-6)"/><path d="M161.6,5a47.09,47.09,0,0,0-2.3,37.39s-21.71,5.28-28.06,24.82c0,0-23.06-6.66-39,1.18,0,0,28.56-19.29,23.32-39.67,0,0,.34-18.74,9.62-21.92S142.87-2.4,161.6,5Z" style="fill:#b5ba31"/><path d="M149.19,1.68a47.46,47.46,0,0,0,.5,30.69S128,37.65,121.62,57.19a79.78,79.78,0,0,0-14.55-2.43A80.09,80.09,0,0,1,92.25,68.35c15.93-7.84,39-1.18,39-1.18,6.35-19.54,28.06-24.82,28.06-24.82A47.09,47.09,0,0,1,161.6,5,49.41,49.41,0,0,0,149.19,1.68Z" style="fill:#797c21"/><path d="M135.91,5.51a33,33,0,0,1,12.57-2.84A33.93,33.93,0,0,1,161.6,5a35,35,0,0,0-13-4.59,36.18,36.18,0,0,0-14.21.78A37.47,37.47,0,0,0,121.2,7.54a38.94,38.94,0,0,0-8.7,9.21,4.63,4.63,0,0,0-1.92,2.31,4.35,4.35,0,0,0-.26,1.27,4.58,4.58,0,0,0,.36,2.61,4.72,4.72,0,0,0,.82,1.23A30,30,0,0,1,92.34,60.5a4.62,4.62,0,0,0,3,8.73,39.29,39.29,0,0,0,26.4-39.37c.59.48,1.17,1,1.73,1.49a31.64,31.64,0,0,1,7.21,10.13A32.9,32.9,0,0,1,133.53,54a34.2,34.2,0,0,1-2.29,13.13,35.44,35.44,0,0,0,4.59-13A36.31,36.31,0,0,0,135,40a37.34,37.34,0,0,0-9.84-17.17,29.82,29.82,0,0,1,3.28-.29,31.66,31.66,0,0,1,12.27,2.06,32.89,32.89,0,0,1,10.89,6.87,33.94,33.94,0,0,1,7.66,10.9,35.1,35.1,0,0,0-5.93-12.43,36.46,36.46,0,0,0-10.6-9.49,37.53,37.53,0,0,0-13.86-4.82,38,38,0,0,0-5.24-.36,29.75,29.75,0,0,1,2.12-2.52A31.78,31.78,0,0,1,135.91,5.51Z" style="fill:#943574"/><path d="M121.74,29.86c-.56-.52-2.35-1.18-2.94-1.65A39.28,39.28,0,0,1,92.41,67.58a4.62,4.62,0,0,1-2.14.2,4.59,4.59,0,0,0,5.07,1.45,39.28,39.28,0,0,0,26.44-38.29C121.37,30.51,122.17,30.26,121.74,29.86Z" style="fill:#6f2857"/><path d="M140.75,24.58c1,.37,1.93.79,2.87,1.26a32.2,32.2,0,0,0-5.81-2.91,31.58,31.58,0,0,0-12.26-2.06,27.38,27.38,0,0,0-3.28.29,38,38,0,0,1,3.45,3.95,37.55,37.55,0,0,1,6.39,13.21,36.61,36.61,0,0,1,1,11.66,33.2,33.2,0,0,1-1.92,17.19,35.44,35.44,0,0,0,4.59-13A36.31,36.31,0,0,0,135,40a37.34,37.34,0,0,0-9.84-17.17,29.82,29.82,0,0,1,3.28-.29A31.66,31.66,0,0,1,140.75,24.58Z" style="fill:#6f2857"/><path d="M142.77,20.43c-.7-.41-1.42-.79-2.15-1.16a36.1,36.1,0,0,1,9.81,9,34.47,34.47,0,0,1,3.3,5.36,34.38,34.38,0,0,1,5.57,8.72,35.1,35.1,0,0,0-5.93-12.43A36.46,36.46,0,0,0,142.77,20.43Z" style="fill:#6f2857"/><path d="M157.63,2.93A34.07,34.07,0,0,0,145.54,1,32.79,32.79,0,0,0,133,3.86a31.79,31.79,0,0,0-10.13,7.21c-.75.81-1.46,1.66-2.12,2.53-.41,1.62,1.44,2.65,2.94,1.65.32-.37,1.78-2.16,2.12-2.52a31.78,31.78,0,0,1,10.12-7.22,33,33,0,0,1,12.57-2.84A33.93,33.93,0,0,1,161.6,5,35.29,35.29,0,0,0,157.63,2.93Z" style="fill:#6f2857"/><path d="M28.66,128.47h0a15.78,15.78,0,0,1-15.74-15.74V67A15.78,15.78,0,0,1,28.66,51.23h0A15.78,15.78,0,0,1,44.4,67v45.76A15.78,15.78,0,0,1,28.66,128.47Z" style="fill:url(#Degradado_sin_nombre_163-4)"/><path d="M26.7,62.19c0,1.84-2.47,3.33-5.51,3.33S15.68,64,15.68,62.19s2.47-3.33,5.51-3.33S26.7,60.35,26.7,62.19Z" style="fill:url(#Degradado_sin_nombre_162-7)"/><path d="M22.14,69.48c0,1.06-1.86,1.92-4.16,1.92s-4.16-.86-4.16-1.92,1.87-1.91,4.16-1.91S22.14,68.43,22.14,69.48Z" style="fill:url(#Degradado_sin_nombre_162-8)"/><path d="M37.24,71.81c0,1.29-2.07,2.33-4.62,2.33S28,73.1,28,71.81s2.07-2.33,4.62-2.33S37.24,70.53,37.24,71.81Z" style="fill:url(#Degradado_sin_nombre_162-9)"/><path d="M27.81,84.12c0,.69-1.1,1.25-2.46,1.25s-2.47-.56-2.47-1.25,1.11-1.24,2.47-1.24S27.81,83.44,27.81,84.12Z" style="fill:url(#Degradado_sin_nombre_162-10)"/><path d="M27.62,75.92c0,1.22-1.73,2.2-3.85,2.2s-3.85-1-3.85-2.2,1.73-2.21,3.85-2.21S27.62,74.7,27.62,75.92Z" style="fill:url(#Degradado_sin_nombre_162-11)"/><path d="M21.19,81.83c0,.93-1.44,1.69-3.21,1.69s-3.2-.76-3.2-1.69,1.43-1.68,3.2-1.68S21.19,80.9,21.19,81.83Z" style="fill:url(#Degradado_sin_nombre_162-12)"/><path d="M36.19,114.4A15.79,15.79,0,0,1,20.45,98.66V53.58A15.74,15.74,0,0,0,12.92,67v45.76a15.78,15.78,0,0,0,15.74,15.74h0A15.78,15.78,0,0,0,44.4,112.73v-.68A15.55,15.55,0,0,1,36.19,114.4Z" style="fill:#ab3081;opacity:0.39;mix-blend-mode:multiply"/><path d="M0,5A47,47,0,0,1,2.3,42.35S24,47.63,30.37,67.17c0,0,23.05-6.66,39,1.18,0,0-28.56-19.29-23.33-39.67,0,0-.33-18.74-9.62-21.92S18.74-2.4,0,5Z" style="fill:#b5ba31"/><path d="M12.42,1.68a47.52,47.52,0,0,1-.5,30.69S33.63,37.65,40,57.19a79.78,79.78,0,0,1,14.55-2.43A80,80,0,0,0,69.36,68.35c-15.94-7.84-39-1.18-39-1.18C24,47.63,2.3,42.35,2.3,42.35A47,47,0,0,0,0,5,49.36,49.36,0,0,1,12.42,1.68Z" style="fill:#797c21"/><path d="M25.69,5.51A33,33,0,0,0,13.13,2.67,34,34,0,0,0,0,5,35.08,35.08,0,0,1,13,.37a36.12,36.12,0,0,1,14.2.78A37.47,37.47,0,0,1,40.4,7.54a38.54,38.54,0,0,1,8.7,9.21A4.53,4.53,0,0,1,51,19.06a4.73,4.73,0,0,1,.27,1.27,4.66,4.66,0,0,1-.36,2.61,5.28,5.28,0,0,1-.82,1.23A30,30,0,0,0,69.26,60.5a4.62,4.62,0,1,1-3,8.73A39.28,39.28,0,0,1,39.87,29.86c-.59.48-1.18,1-1.73,1.49a31.82,31.82,0,0,0-7.22,10.13A32.89,32.89,0,0,0,28.08,54a34,34,0,0,0,2.29,13.13,35.08,35.08,0,0,1-4.59-13A36.12,36.12,0,0,1,26.56,40,37.39,37.39,0,0,1,33,26.77a38.07,38.07,0,0,1,3.45-4,29.6,29.6,0,0,0-3.28-.29,31.58,31.58,0,0,0-12.26,2.06A32.69,32.69,0,0,0,10,31.45,34,34,0,0,0,2.3,42.35,35.29,35.29,0,0,1,8.24,29.92a36.42,36.42,0,0,1,10.59-9.49,37.65,37.65,0,0,1,13.86-4.82,38.16,38.16,0,0,1,5.25-.36A31.36,31.36,0,0,0,25.69,5.51Z" style="fill:#943574"/><path d="M39.87,29.86c.55-.52,2.34-1.18,2.93-1.65A39.29,39.29,0,0,0,69.2,67.58a4.62,4.62,0,0,0,2.14.2,4.61,4.61,0,0,1-5.08,1.45A39.28,39.28,0,0,1,39.83,30.94C40.23,30.51,39.44,30.26,39.87,29.86Z" style="fill:#6f2857"/><path d="M20.86,24.58q-1.45.55-2.88,1.26a32.2,32.2,0,0,1,5.81-2.91,31.65,31.65,0,0,1,12.26-2.06,27.54,27.54,0,0,1,3.29.29,36.92,36.92,0,0,0-3.46,3.95,37.73,37.73,0,0,0-6.39,13.21,36.61,36.61,0,0,0-1,11.66A30.48,30.48,0,0,0,28.08,54a34,34,0,0,0,2.29,13.13,35.08,35.08,0,0,1-4.59-13A36.12,36.12,0,0,1,26.56,40,37.39,37.39,0,0,1,33,26.77a38.07,38.07,0,0,1,3.45-4,29.6,29.6,0,0,0-3.28-.29A31.58,31.58,0,0,0,20.86,24.58Z" style="fill:#6f2857"/><path d="M18.83,20.43c.71-.41,1.43-.79,2.16-1.16a36.14,36.14,0,0,0-9.82,9,34.41,34.41,0,0,0-3.29,5.36A34.41,34.41,0,0,0,2.3,42.35,35.29,35.29,0,0,1,8.24,29.92,36.42,36.42,0,0,1,18.83,20.43Z" style="fill:#6f2857"/><path d="M4,2.93A34,34,0,0,1,16.06,1,32.79,32.79,0,0,1,28.63,3.86,31.09,31.09,0,0,1,40.87,13.6c.42,1.62-1.43,2.65-2.93,1.65-.32-.37-1.78-2.16-2.12-2.52A31.82,31.82,0,0,0,25.69,5.51,33,33,0,0,0,13.13,2.67,34,34,0,0,0,0,5,34.6,34.6,0,0,1,4,2.93Z" style="fill:#6f2857"/><circle cx="81.86" cy="41.18" r="36.88" style="fill:#c5479b"/><path d="M45.85,42.05a36.87,36.87,0,0,1,62.51-26.5A36.87,36.87,0,1,0,56.23,67.68,36.72,36.72,0,0,1,45.85,42.05Z" style="fill:#d375b4"/><path d="M114.07,23.22a37.25,37.25,0,0,1,.57,6.47,36.88,36.88,0,0,1-69.08,18,36.88,36.88,0,1,0,68.51-24.43Z" style="fill:#ab3081"/><path d="M88.61,72.34a27.17,27.17,0,0,0,3.64,10.15A25.65,25.65,0,0,0,99.15,90a24,24,0,0,0,8.71,3.9,22.34,22.34,0,0,0,8.91.15,20.7,20.7,0,0,1-7.67-3.15,19.15,19.15,0,0,1-5.36-5.49,17.38,17.38,0,0,1-2.49-6.61,15.8,15.8,0,0,1,.34-6.42,6.7,6.7,0,0,0-12.94-3.46,6.79,6.79,0,0,0-.16,2.68Z" style="fill:#fcedb6"/><path d="M96.85,64.14a6.64,6.64,0,0,1,2.28,1.11,6.7,6.7,0,0,0-4.29,4.6,6.61,6.61,0,0,0-.16,2.68l.12.78a27.28,27.28,0,0,0,3.64,10.16,25.47,25.47,0,0,0,6.9,7.46,23.94,23.94,0,0,0,7,3.45,22.45,22.45,0,0,1-4.51-.52A24,24,0,0,1,99.15,90a25.65,25.65,0,0,1-6.9-7.47,27.17,27.17,0,0,1-3.64-10.15l-.12-.78a6.79,6.79,0,0,1,.16-2.68A6.71,6.71,0,0,1,96.85,64.14Z" style="fill:#eed473"/><path d="M75.3,72.34a27.17,27.17,0,0,1-3.64,10.15A25.65,25.65,0,0,1,64.76,90a24,24,0,0,1-8.71,3.9,22.34,22.34,0,0,1-8.91.15,20.7,20.7,0,0,0,7.67-3.15,19.15,19.15,0,0,0,5.36-5.49,17.38,17.38,0,0,0,2.49-6.61,15.8,15.8,0,0,0-.34-6.42,6.7,6.7,0,0,1,12.94-3.46,6.79,6.79,0,0,1,.16,2.68Z" style="fill:#fcedb6"/><path d="M67.06,64.14a6.73,6.73,0,0,0-2.28,1.11,6.69,6.69,0,0,1,4.45,7.28l-.11.78a27.3,27.3,0,0,1-3.65,10.16,25.47,25.47,0,0,1-6.9,7.46,24,24,0,0,1-7,3.45,22.35,22.35,0,0,0,4.5-.52A24,24,0,0,0,64.76,90a25.65,25.65,0,0,0,6.9-7.47A27.17,27.17,0,0,0,75.3,72.34l.12-.78a6.79,6.79,0,0,0-.16-2.68A6.7,6.7,0,0,0,67.06,64.14Z" style="fill:#eed473"/><path d="M97.81,72.18H65.18a6.68,6.68,0,0,1-6.66-6.66h0a6.68,6.68,0,0,1,6.66-6.66H97.81a6.68,6.68,0,0,1,6.66,6.66h0A6.68,6.68,0,0,1,97.81,72.18Z" style="fill:#c5479b"/><path d="M80.25,38.92h3.21A10.79,10.79,0,0,1,94.26,49.72v56.94a6.47,6.47,0,0,1-6.47,6.47H75.93a6.47,6.47,0,0,1-6.47-6.47V49.72A10.79,10.79,0,0,1,80.25,38.92Z" style="fill:url(#Degradado_sin_nombre_161)"/><path d="M91.14,115.3H72.77a4.81,4.81,0,0,1-4.8-4.8h0a4.81,4.81,0,0,1,4.8-4.8H91.14a4.81,4.81,0,0,1,4.8,4.8h0A4.81,4.81,0,0,1,91.14,115.3Z" style="fill:#781f5b"/><circle cx="64.05" cy="46.79" r="8.87" style="fill:#f1f841"/><path d="M59.61,46.79a4.44,4.44,0,1,0,4.44-4.44A4.44,4.44,0,0,0,59.61,46.79Z" style="fill:#0e393a"/><circle cx="60.05" cy="47.56" r="2.3" style="fill:#fff"/><path d="M64.05,51.88a8.86,8.86,0,0,0,8.66-7,8.42,8.42,0,0,1,.21,1.89,8.88,8.88,0,0,1-17.75,0,9,9,0,0,1,.21-1.89A8.88,8.88,0,0,0,64.05,51.88Z" style="fill:#dbe329"/><path d="M72.92,46.79a8.88,8.88,0,0,0-17.75,0Z" style="fill:#b61982"/><path d="M71.72,42.35a8.81,8.81,0,0,1,1.2,4.44H55.17a8.81,8.81,0,0,1,1.2-4.44Z" style="fill:#a61776"/><circle cx="100.03" cy="46.79" r="8.87" style="fill:#f1f841"/><path d="M95.6,46.79A4.44,4.44,0,1,0,100,42.35,4.43,4.43,0,0,0,95.6,46.79Z" style="fill:#0e393a"/><circle cx="96.03" cy="47.56" r="2.3" style="fill:#fff"/><path d="M100,51.88a8.88,8.88,0,0,0,8.67-7,9,9,0,0,1,.21,1.89,8.88,8.88,0,0,1-17.75,0,8.42,8.42,0,0,1,.21-1.89A8.86,8.86,0,0,0,100,51.88Z" style="fill:#dbe329"/><path d="M108.91,46.79a8.88,8.88,0,0,0-17.75,0Z" style="fill:#b61982"/><path d="M107.71,42.35a8.81,8.81,0,0,1,1.2,4.44H91.16a8.81,8.81,0,0,1,1.2-4.44Z" style="fill:#a61776"/><circle cx="81.52" cy="31.22" r="8.87" style="fill:#f1f841"/><path d="M77.08,31.22a4.44,4.44,0,1,0,4.44-4.44A4.44,4.44,0,0,0,77.08,31.22Z" style="fill:#0e393a"/><circle cx="77.52" cy="31.99" r="2.3" style="fill:#fff"/><path d="M81.52,36.31a8.86,8.86,0,0,0,8.66-7,8.42,8.42,0,0,1,.21,1.89,8.88,8.88,0,0,1-17.75,0,9,9,0,0,1,.21-1.89A8.87,8.87,0,0,0,81.52,36.31Z" style="fill:#dbe329"/><path d="M90.39,31.22a8.88,8.88,0,1,0-17.75,0Z" style="fill:#b61982"/><path d="M89.19,26.78a8.81,8.81,0,0,1,1.2,4.44H72.64a8.81,8.81,0,0,1,1.2-4.44Z" style="fill:#a61776"/><path d="M72.87,47.82v0s0-.08,0-.11,0-.18,0-.27c0-.29-.11-.58-.18-.86,0-.06,0-.13,0-.19a8.49,8.49,0,0,0-.86-2h0a8.85,8.85,0,0,0-15.35,0h0a8.49,8.49,0,0,0-.86,2c0,.06,0,.13,0,.19a8.17,8.17,0,0,0-.17.86,2.51,2.51,0,0,0,0,.27.36.36,0,0,0,0,.11v0a7.5,7.5,0,0,0-.06,1h0a9.61,9.61,0,0,0,.18,1.79,9.41,9.41,0,0,0,.52,1.66c.11.27.24.53.37.78a8.88,8.88,0,0,0,16.68-4.23h0C72.92,48.45,72.9,48.13,72.87,47.82Z" style="fill:#ab3081"/><path d="M108.91,48.78h0a7.5,7.5,0,0,0-.06-1v0a.36.36,0,0,0,0-.11,2.51,2.51,0,0,0,0-.27,8.17,8.17,0,0,0-.17-.86c0-.06,0-.13-.05-.19a8.49,8.49,0,0,0-.86-2h0a8.85,8.85,0,0,0-15.35,0h0a8.49,8.49,0,0,0-.86,2c0,.06,0,.13,0,.19-.07.28-.13.57-.18.86,0,.09,0,.18,0,.27s0,.07,0,.11v0c0,.31,0,.63,0,1h0a8.84,8.84,0,0,0,.18,1.79,8.65,8.65,0,0,0,.52,1.66,7,7,0,0,0,.37.78,8.88,8.88,0,0,0,16.68-4.23Z" style="fill:#ab3081"/><path d="M90.34,32.25v0s0-.07,0-.1,0-.18,0-.27a4.51,4.51,0,0,0-.09-.53h0c0-.11-.05-.22-.08-.33s0-.13,0-.19a8.49,8.49,0,0,0-.86-2h0a8.85,8.85,0,0,0-15.35,0h0a8.49,8.49,0,0,0-.86,2c0,.06,0,.13,0,.19s-.06.22-.08.33h0a4.51,4.51,0,0,0-.09.53,2.51,2.51,0,0,0,0,.27.36.36,0,0,0,0,.1v0a7.46,7.46,0,0,0-.06,1h0a8.82,8.82,0,0,0,.7,3.45,9,9,0,0,0,4,4.35,7.76,7.76,0,0,0,.77.37,8.53,8.53,0,0,0,1.67.52,8.76,8.76,0,0,0,1.79.18,8.67,8.67,0,0,0,1.78-.18A8.53,8.53,0,0,0,85,41.38a7.92,7.92,0,0,0,.78-.37,8.89,8.89,0,0,0,4.64-7.8h0C90.39,32.88,90.37,32.56,90.34,32.25Z" style="fill:#ab3081"/><circle cx="64.05" cy="46.79" r="8.87" style="fill:#f1f841"/><path d="M59.61,46.79a4.44,4.44,0,1,0,4.44-4.44A4.44,4.44,0,0,0,59.61,46.79Z" style="fill:#0e393a"/><circle cx="60.05" cy="47.56" r="2.3" style="fill:#fff"/><path d="M64.05,51.88a8.86,8.86,0,0,0,8.66-7,8.42,8.42,0,0,1,.21,1.89,8.88,8.88,0,0,1-17.75,0,9,9,0,0,1,.21-1.89A8.88,8.88,0,0,0,64.05,51.88Z" style="fill:#dbe329"/><path d="M72.92,46.79a8.88,8.88,0,0,0-17.75,0Z" style="fill:#b61982"/><path d="M71.72,42.35a8.81,8.81,0,0,1,1.2,4.44H55.17a8.81,8.81,0,0,1,1.2-4.44Z" style="fill:#a61776"/><circle cx="100.03" cy="46.79" r="8.87" style="fill:#f1f841"/><path d="M95.6,46.79A4.44,4.44,0,1,0,100,42.35,4.43,4.43,0,0,0,95.6,46.79Z" style="fill:#0e393a"/><circle cx="96.03" cy="47.56" r="2.3" style="fill:#fff"/><path d="M100,51.88a8.88,8.88,0,0,0,8.67-7,9,9,0,0,1,.21,1.89,8.88,8.88,0,0,1-17.75,0,8.42,8.42,0,0,1,.21-1.89A8.86,8.86,0,0,0,100,51.88Z" style="fill:#dbe329"/><path d="M108.91,46.79a8.88,8.88,0,0,0-17.75,0Z" style="fill:#b61982"/><path d="M107.71,42.35a8.81,8.81,0,0,1,1.2,4.44H91.16a8.81,8.81,0,0,1,1.2-4.44Z" style="fill:#a61776"/><circle cx="81.52" cy="31.22" r="8.87" style="fill:#f1f841"/><path d="M77.08,31.22a4.44,4.44,0,1,0,4.44-4.44A4.44,4.44,0,0,0,77.08,31.22Z" style="fill:#0e393a"/><circle cx="77.52" cy="31.99" r="2.3" style="fill:#fff"/><path d="M81.52,36.31a8.86,8.86,0,0,0,8.66-7,8.42,8.42,0,0,1,.21,1.89,8.88,8.88,0,0,1-17.75,0,9,9,0,0,1,.21-1.89A8.87,8.87,0,0,0,81.52,36.31Z" style="fill:#dbe329"/><path d="M90.39,31.22a8.88,8.88,0,1,0-17.75,0Z" style="fill:#b61982"/><path d="M89.19,26.78a8.81,8.81,0,0,1,1.2,4.44H72.64a8.81,8.81,0,0,1,1.2-4.44Z" style="fill:#a61776"/><path d="M75.22,14.79c0,1.33-2.62,2.4-5.85,2.4s-5.85-1.07-5.85-2.4,2.62-2.4,5.85-2.4S75.22,13.47,75.22,14.79Z" style="fill:#ab3081"/><path d="M83.65,10.36c0,1.12-1.57,2-3.49,2s-3.49-.91-3.49-2,1.56-2,3.49-2S83.65,9.24,83.65,10.36Z" style="fill:#ab3081"/><path d="M75.22,10.37c0,.54-1.29,1-2.88,1s-2.88-.43-2.88-1,1.29-1,2.88-1S75.22,9.83,75.22,10.37Z" style="fill:#ab3081"/><ellipse cx="61.23" cy="17.34" rx="2.29" ry="0.9" style="fill:#ab3081"/><path d="M84.1,14.92c0,.4-1,.72-2.14.72s-2.14-.32-2.14-.72,1-.73,2.14-.73S84.1,14.52,84.1,14.92Z" style="fill:#ab3081"/><ellipse cx="110.4" cy="35.12" rx="3.52" ry="1.91" style="fill:#ab3081"/><path d="M113.91,30.45c0,.43-.63.77-1.42.77s-1.41-.34-1.41-.77.63-.76,1.41-.76S113.91,30,113.91,30.45Z" style="fill:#ab3081"/><path d="M108.36,37.47c0,.25-.87.45-1.94.45s-2-.2-2-.45.87-.44,2-.44S108.36,37.23,108.36,37.47Z" style="fill:#ab3081"/><path d="M116.77,40.05c0,.62-1.43,1.13-3.19,1.13s-3.18-.51-3.18-1.13,1.42-1.13,3.18-1.13S116.77,39.43,116.77,40.05Z" style="fill:#ab3081"/><path d="M106.72,19.76c-.86,1.49-5.32.53-9.94-2.14S89.09,11.57,90,10.08s5.31-.53,9.94,2.14S107.58,18.27,106.72,19.76Z" style="fill:#d375b4"/></g></g></g></svg>