<svg xmlns="http://www.w3.org/2000/svg" xmlns:xlink="http://www.w3.org/1999/xlink" viewBox="0 0 154.1 181.54"><defs><linearGradient id="Degradado_sin_nombre_160" x1="101.26" y1="112.06" x2="101.26" y2="105.44" gradientTransform="matrix(-1, 0, 0, 1, 251.12, 0)" gradientUnits="userSpaceOnUse"><stop offset="0.12" stop-color="#781f5b"/><stop offset="0.16" stop-color="#863356"/><stop offset="0.25" stop-color="#a45c4b"/><stop offset="0.35" stop-color="#bd7f42"/><stop offset="0.45" stop-color="#d29c3b"/><stop offset="0.56" stop-color="#e2b235"/><stop offset="0.68" stop-color="#edc231"/><stop offset="0.81" stop-color="#f4cb2f"/><stop offset="1" stop-color="#f6ce2e"/></linearGradient><linearGradient id="Degradado_sin_nombre_160-2" x1="101.26" y1="114.05" x2="101.26" y2="107.3" xlink:href="#Degradado_sin_nombre_160"/><linearGradient id="Degradado_sin_nombre_160-3" x1="101.26" y1="116.03" x2="101.26" y2="109.17" xlink:href="#Degradado_sin_nombre_160"/><linearGradient id="Degradado_sin_nombre_160-4" x1="101.26" y1="118.02" x2="101.26" y2="111.03" xlink:href="#Degradado_sin_nombre_160"/><linearGradient id="Degradado_sin_nombre_160-5" x1="101.26" y1="120.01" x2="101.26" y2="112.89" xlink:href="#Degradado_sin_nombre_160"/><linearGradient id="Degradado_sin_nombre_160-6" x1="101.26" y1="121.99" x2="101.26" y2="114.75" xlink:href="#Degradado_sin_nombre_160"/><linearGradient id="Degradado_sin_nombre_160-7" x1="101.26" y1="123.98" x2="101.26" y2="116.62" xlink:href="#Degradado_sin_nombre_160"/><linearGradient id="Degradado_sin_nombre_160-8" x1="101.26" y1="125.96" x2="101.26" y2="118.48" xlink:href="#Degradado_sin_nombre_160"/><linearGradient id="Degradado_sin_nombre_160-9" x1="101.26" y1="127.95" x2="101.26" y2="120.34" xlink:href="#Degradado_sin_nombre_160"/><linearGradient id="Degradado_sin_nombre_160-10" x1="101.26" y1="129.94" x2="101.26" y2="122.2" xlink:href="#Degradado_sin_nombre_160"/><linearGradient id="Degradado_sin_nombre_160-11" x1="101.26" y1="131.92" x2="101.26" y2="124.06" xlink:href="#Degradado_sin_nombre_160"/><linearGradient id="Degradado_sin_nombre_160-12" x1="101.26" y1="133.91" x2="101.26" y2="125.93" xlink:href="#Degradado_sin_nombre_160"/><linearGradient id="Degradado_sin_nombre_160-13" x1="101.26" y1="135.89" x2="101.26" y2="127.79" xlink:href="#Degradado_sin_nombre_160"/><linearGradient id="Degradado_sin_nombre_160-14" x1="101.26" y1="137.88" x2="101.26" y2="129.65" xlink:href="#Degradado_sin_nombre_160"/><linearGradient id="Degradado_sin_nombre_160-15" x1="101.26" y1="139.87" x2="101.26" y2="131.51" xlink:href="#Degradado_sin_nombre_160"/><linearGradient id="Degradado_sin_nombre_160-16" x1="101.27" y1="141.86" x2="101.27" y2="133.38" xlink:href="#Degradado_sin_nombre_160"/><linearGradient id="Degradado_sin_nombre_160-17" x1="101.43" y1="143.91" x2="101.43" y2="135.31" xlink:href="#Degradado_sin_nombre_160"/><linearGradient id="Degradado_sin_nombre_160-18" x1="101.86" y1="145.87" x2="101.86" y2="137.14" xlink:href="#Degradado_sin_nombre_160"/><linearGradient id="Degradado_sin_nombre_160-19" x1="102.55" y1="147.71" x2="102.55" y2="138.86" xlink:href="#Degradado_sin_nombre_160"/><linearGradient id="Degradado_sin_nombre_160-20" x1="103.47" y1="149.43" x2="103.47" y2="140.46" xlink:href="#Degradado_sin_nombre_160"/><linearGradient id="Degradado_sin_nombre_160-21" x1="104.6" y1="151" x2="104.6" y2="141.9" xlink:href="#Degradado_sin_nombre_160"/><linearGradient id="Degradado_sin_nombre_160-22" x1="105.93" y1="152.39" x2="105.93" y2="143.17" xlink:href="#Degradado_sin_nombre_160"/><linearGradient id="Degradado_sin_nombre_160-23" x1="107.43" y1="153.59" x2="107.43" y2="144.25" xlink:href="#Degradado_sin_nombre_160"/><linearGradient id="Degradado_sin_nombre_160-24" x1="109.08" y1="154.58" x2="109.08" y2="145.11" xlink:href="#Degradado_sin_nombre_160"/><linearGradient id="Degradado_sin_nombre_160-25" x1="110.86" y1="155.34" x2="110.86" y2="145.75" xlink:href="#Degradado_sin_nombre_160"/><linearGradient id="Degradado_sin_nombre_160-26" x1="112.75" y1="155.85" x2="112.75" y2="146.13" xlink:href="#Degradado_sin_nombre_160"/><linearGradient id="Degradado_sin_nombre_160-27" x1="114.74" y1="156.08" x2="114.74" y2="146.24" xlink:href="#Degradado_sin_nombre_160"/><linearGradient id="Degradado_sin_nombre_160-28" x1="116.73" y1="156.02" x2="116.73" y2="146.06" xlink:href="#Degradado_sin_nombre_160"/><linearGradient id="Degradado_sin_nombre_160-29" x1="118.65" y1="155.69" x2="118.65" y2="145.6" xlink:href="#Degradado_sin_nombre_160"/><linearGradient id="Degradado_sin_nombre_160-30" x1="120.45" y1="155.1" x2="120.45" y2="144.89" xlink:href="#Degradado_sin_nombre_160"/><linearGradient id="Degradado_sin_nombre_160-31" x1="122.13" y1="154.28" x2="122.13" y2="143.94" xlink:href="#Degradado_sin_nombre_160"/><linearGradient id="Degradado_sin_nombre_160-32" x1="123.65" y1="153.24" x2="123.65" y2="142.78" xlink:href="#Degradado_sin_nombre_160"/><linearGradient id="Degradado_sin_nombre_160-33" x1="125.01" y1="152" x2="125.01" y2="141.42" xlink:href="#Degradado_sin_nombre_160"/><linearGradient id="Degradado_sin_nombre_160-34" x1="126.18" y1="150.59" x2="126.18" y2="139.88" xlink:href="#Degradado_sin_nombre_160"/><linearGradient id="Degradado_sin_nombre_160-35" x1="127.15" y1="149.02" x2="127.15" y2="138.19" xlink:href="#Degradado_sin_nombre_160"/><linearGradient id="Degradado_sin_nombre_160-36" x1="127.88" y1="147.32" x2="127.88" y2="136.37" xlink:href="#Degradado_sin_nombre_160"/><linearGradient id="Degradado_sin_nombre_160-37" x1="128.36" y1="145.51" x2="128.36" y2="134.43" xlink:href="#Degradado_sin_nombre_160"/><linearGradient id="Degradado_sin_nombre_160-38" x1="128.58" y1="143.6" x2="128.58" y2="132.39" xlink:href="#Degradado_sin_nombre_160"/><linearGradient id="Degradado_sin_nombre_160-39" x1="128.58" y1="141.71" x2="128.58" y2="130.38" xlink:href="#Degradado_sin_nombre_160"/><linearGradient id="Degradado_sin_nombre_160-40" x1="128.58" y1="139.85" x2="128.58" y2="128.4" xlink:href="#Degradado_sin_nombre_160"/><linearGradient id="Degradado_sin_nombre_160-41" x1="128.58" y1="137.99" x2="128.58" y2="126.41" xlink:href="#Degradado_sin_nombre_160"/><linearGradient id="Degradado_sin_nombre_160-42" x1="128.58" y1="136.13" x2="128.58" y2="124.43" xlink:href="#Degradado_sin_nombre_160"/><linearGradient id="Degradado_sin_nombre_160-43" x1="128.58" y1="134.26" x2="128.58" y2="122.44" xlink:href="#Degradado_sin_nombre_160"/><linearGradient id="Degradado_sin_nombre_160-44" x1="128.58" y1="132.4" x2="128.58" y2="120.45" gradientTransform="matrix(-0.97, -0.23, -0.23, 0.97, 276.8, 33.04)" xlink:href="#Degradado_sin_nombre_160"/><linearGradient id="Degradado_sin_nombre_160-45" x1="128.58" y1="130.54" x2="128.58" y2="118.47" gradientTransform="matrix(-0.97, -0.23, -0.23, 0.97, 276.36, 32.99)" xlink:href="#Degradado_sin_nombre_160"/><linearGradient id="Degradado_sin_nombre_160-46" x1="128.58" y1="128.68" x2="128.58" y2="116.48" gradientTransform="matrix(-0.97, -0.23, -0.23, 0.97, 275.92, 32.94)" xlink:href="#Degradado_sin_nombre_160"/><linearGradient id="Degradado_sin_nombre_160-47" x1="128.58" y1="126.81" x2="128.58" y2="114.5" gradientTransform="matrix(-0.97, -0.23, -0.23, 0.97, 275.47, 32.89)" xlink:href="#Degradado_sin_nombre_160"/><linearGradient id="Degradado_sin_nombre_160-48" x1="128.58" y1="124.95" x2="128.58" y2="112.51" gradientTransform="matrix(-0.97, -0.23, -0.23, 0.97, 275.03, 32.84)" xlink:href="#Degradado_sin_nombre_160"/><linearGradient id="Degradado_sin_nombre_160-49" x1="128.58" y1="123.09" x2="128.58" y2="110.52" gradientTransform="matrix(-0.97, -0.23, -0.23, 0.97, 274.59, 32.79)" xlink:href="#Degradado_sin_nombre_160"/><linearGradient id="Degradado_sin_nombre_160-50" x1="128.58" y1="121.23" x2="128.58" y2="108.54" gradientTransform="matrix(-0.97, -0.23, -0.23, 0.97, 274.15, 32.74)" xlink:href="#Degradado_sin_nombre_160"/><linearGradient id="Degradado_sin_nombre_160-51" x1="128.58" y1="119.37" x2="128.58" y2="106.55" gradientTransform="matrix(-0.97, -0.23, -0.23, 0.97, 273.7, 32.69)" xlink:href="#Degradado_sin_nombre_160"/><linearGradient id="Degradado_sin_nombre_160-52" x1="128.58" y1="117.5" x2="128.58" y2="104.56" gradientTransform="matrix(-0.97, -0.23, -0.23, 0.97, 273.26, 32.64)" xlink:href="#Degradado_sin_nombre_160"/><linearGradient id="Degradado_sin_nombre_160-53" x1="128.58" y1="115.64" x2="128.58" y2="102.58" gradientTransform="matrix(-0.97, -0.23, -0.23, 0.97, 272.82, 32.59)" xlink:href="#Degradado_sin_nombre_160"/><linearGradient id="Degradado_sin_nombre_160-54" x1="128.58" y1="113.78" x2="128.58" y2="100.59" gradientTransform="matrix(-0.97, -0.23, -0.23, 0.97, 272.38, 32.54)" xlink:href="#Degradado_sin_nombre_160"/><linearGradient id="Degradado_sin_nombre_160-55" x1="128.58" y1="111.92" x2="128.58" y2="98.61" gradientTransform="matrix(-0.97, -0.23, -0.23, 0.97, 271.93, 32.49)" xlink:href="#Degradado_sin_nombre_160"/><linearGradient id="Degradado_sin_nombre_160-56" x1="128.58" y1="110.05" x2="128.58" y2="96.62" gradientTransform="matrix(-0.97, -0.23, -0.23, 0.97, 271.49, 32.44)" xlink:href="#Degradado_sin_nombre_160"/><linearGradient id="Degradado_sin_nombre_160-57" x1="128.58" y1="108.19" x2="128.58" y2="94.63" gradientTransform="matrix(-0.97, -0.23, -0.23, 0.97, 271.05, 32.39)" xlink:href="#Degradado_sin_nombre_160"/><linearGradient id="Degradado_sin_nombre_160-58" x1="128.58" y1="106.33" x2="128.58" y2="92.65" gradientTransform="matrix(-0.97, -0.23, -0.23, 0.97, 270.6, 32.34)" xlink:href="#Degradado_sin_nombre_160"/><linearGradient id="Degradado_sin_nombre_160-59" x1="128.58" y1="104.47" x2="128.58" y2="90.66" gradientTransform="matrix(-0.97, -0.23, -0.23, 0.97, 270.16, 32.29)" xlink:href="#Degradado_sin_nombre_160"/><linearGradient id="Degradado_sin_nombre_160-60" x1="128.58" y1="102.61" x2="128.58" y2="88.68" gradientTransform="matrix(-0.97, -0.23, -0.23, 0.97, 269.72, 32.24)" xlink:href="#Degradado_sin_nombre_160"/><linearGradient id="Degradado_sin_nombre_160-61" x1="128.58" y1="100.74" x2="128.58" y2="86.69" gradientTransform="matrix(-0.97, -0.23, -0.23, 0.97, 269.28, 32.19)" xlink:href="#Degradado_sin_nombre_160"/><linearGradient id="Degradado_sin_nombre_160-62" x1="128.58" y1="98.88" x2="128.58" y2="84.7" gradientTransform="matrix(-0.97, -0.23, -0.23, 0.97, 268.83, 32.14)" xlink:href="#Degradado_sin_nombre_160"/><linearGradient id="Degradado_sin_nombre_160-63" x1="128.58" y1="97.02" x2="128.58" y2="82.72" gradientTransform="matrix(-0.97, -0.23, -0.23, 0.97, 268.39, 32.09)" xlink:href="#Degradado_sin_nombre_160"/><linearGradient id="Degradado_sin_nombre_160-64" x1="128.58" y1="95.16" x2="128.58" y2="80.73" gradientTransform="matrix(-0.97, -0.23, -0.23, 0.97, 267.95, 32.04)" xlink:href="#Degradado_sin_nombre_160"/><linearGradient id="Degradado_sin_nombre_160-65" x1="128.58" y1="93.29" x2="128.58" y2="78.74" gradientTransform="matrix(-0.97, -0.23, -0.23, 0.97, 267.5, 31.99)" xlink:href="#Degradado_sin_nombre_160"/><linearGradient id="Degradado_sin_nombre_160-66" x1="128.58" y1="91.43" x2="128.58" y2="76.76" gradientTransform="matrix(-0.97, -0.23, -0.23, 0.97, 267.06, 31.94)" xlink:href="#Degradado_sin_nombre_160"/><linearGradient id="Degradado_sin_nombre_160-67" x1="128.58" y1="89.57" x2="128.58" y2="74.77" gradientTransform="matrix(-0.97, -0.23, -0.23, 0.97, 266.62, 31.89)" xlink:href="#Degradado_sin_nombre_160"/><linearGradient id="Degradado_sin_nombre_160-68" x1="128.58" y1="87.71" x2="128.58" y2="72.79" gradientTransform="matrix(-0.97, -0.23, -0.23, 0.97, 266.17, 31.84)" xlink:href="#Degradado_sin_nombre_160"/><linearGradient id="Degradado_sin_nombre_160-69" x1="128.58" y1="85.85" x2="128.58" y2="70.8" gradientTransform="matrix(-0.97, -0.23, -0.23, 0.97, 265.73, 31.79)" xlink:href="#Degradado_sin_nombre_160"/><linearGradient id="Degradado_sin_nombre_160-70" x1="128.58" y1="83.98" x2="128.58" y2="68.81" gradientTransform="matrix(-0.97, -0.23, -0.23, 0.97, 265.29, 31.74)" xlink:href="#Degradado_sin_nombre_160"/><linearGradient id="Degradado_sin_nombre_160-71" x1="128.58" y1="82.12" x2="128.58" y2="66.83" gradientTransform="matrix(-0.97, -0.23, -0.23, 0.97, 264.84, 31.69)" xlink:href="#Degradado_sin_nombre_160"/><linearGradient id="Degradado_sin_nombre_160-72" x1="128.71" y1="80.19" x2="128.71" y2="64.78" gradientTransform="matrix(-0.97, -0.23, -0.23, 0.97, 264.38, 31.67)" xlink:href="#Degradado_sin_nombre_160"/><linearGradient id="Degradado_sin_nombre_160-73" x1="129.11" y1="78.35" x2="129.11" y2="62.81" gradientTransform="matrix(-0.97, -0.23, -0.23, 0.97, 263.93, 31.71)" xlink:href="#Degradado_sin_nombre_160"/><linearGradient id="Degradado_sin_nombre_160-74" x1="129.77" y1="76.61" x2="129.77" y2="60.94" gradientTransform="matrix(-0.97, -0.23, -0.23, 0.97, 263.5, 31.82)" xlink:href="#Degradado_sin_nombre_160"/><linearGradient id="Degradado_sin_nombre_160-75" x1="130.66" y1="75" x2="130.66" y2="59.21" gradientTransform="matrix(-0.97, -0.23, -0.23, 0.97, 263.09, 31.98)" xlink:href="#Degradado_sin_nombre_160"/><linearGradient id="Degradado_sin_nombre_160-76" x1="131.77" y1="73.54" x2="131.77" y2="57.62" gradientTransform="matrix(-0.97, -0.23, -0.23, 0.97, 262.71, 32.2)" xlink:href="#Degradado_sin_nombre_160"/><linearGradient id="Degradado_sin_nombre_160-77" x1="133.07" y1="72.24" x2="133.07" y2="56.21" gradientTransform="matrix(-0.97, -0.23, -0.23, 0.97, 262.36, 32.46)" xlink:href="#Degradado_sin_nombre_160"/><linearGradient id="Degradado_sin_nombre_160-78" x1="134.55" y1="71.14" x2="134.55" y2="54.98" gradientTransform="matrix(-0.97, -0.23, -0.23, 0.97, 262.05, 32.78)" xlink:href="#Degradado_sin_nombre_160"/><linearGradient id="Degradado_sin_nombre_160-79" x1="136.18" y1="70.25" x2="136.18" y2="53.96" gradientTransform="matrix(-0.97, -0.23, -0.23, 0.97, 261.79, 33.13)" xlink:href="#Degradado_sin_nombre_160"/><linearGradient id="Degradado_sin_nombre_160-80" x1="137.95" y1="69.58" x2="137.95" y2="53.17" gradientTransform="matrix(-0.97, -0.23, -0.23, 0.97, 261.57, 33.52)" xlink:href="#Degradado_sin_nombre_160"/><linearGradient id="Degradado_sin_nombre_160-81" x1="139.83" y1="69.17" x2="139.83" y2="52.63" gradientTransform="matrix(-0.97, -0.23, -0.23, 0.97, 261.41, 33.94)" xlink:href="#Degradado_sin_nombre_160"/><linearGradient id="Degradado_sin_nombre_160-82" x1="141.8" y1="69.02" x2="141.8" y2="52.37" gradientTransform="matrix(-0.97, -0.23, -0.23, 0.97, 261.31, 34.4)" xlink:href="#Degradado_sin_nombre_160"/><linearGradient id="Degradado_sin_nombre_160-83" x1="143.81" y1="69.17" x2="143.81" y2="52.39" gradientTransform="matrix(-0.97, -0.23, -0.23, 0.97, 261.28, 34.87)" xlink:href="#Degradado_sin_nombre_160"/><linearGradient id="Degradado_sin_nombre_160-84" x1="145.73" y1="69.59" x2="145.73" y2="52.68" gradientTransform="matrix(-0.97, -0.23, -0.23, 0.97, 261.31, 35.32)" xlink:href="#Degradado_sin_nombre_160"/><linearGradient id="Degradado_sin_nombre_160-85" x1="147.55" y1="70.27" x2="147.55" y2="53.24" gradientTransform="matrix(-0.97, -0.23, -0.23, 0.97, 261.4, 35.76)" xlink:href="#Degradado_sin_nombre_160"/><linearGradient id="Degradado_sin_nombre_160-86" x1="149.24" y1="71.19" x2="149.24" y2="54.04" gradientTransform="matrix(-0.97, -0.23, -0.23, 0.97, 261.55, 36.18)" xlink:href="#Degradado_sin_nombre_160"/><linearGradient id="Degradado_sin_nombre_160-87" x1="150.79" y1="72.33" x2="150.79" y2="55.05" gradientTransform="matrix(-0.97, -0.23, -0.23, 0.97, 261.76, 36.57)" xlink:href="#Degradado_sin_nombre_160"/><linearGradient id="Degradado_sin_nombre_160-88" x1="152.17" y1="73.67" x2="152.17" y2="56.27" gradientTransform="matrix(-0.97, -0.23, -0.23, 0.97, 262.02, 36.93)" xlink:href="#Degradado_sin_nombre_160"/><linearGradient id="Degradado_sin_nombre_160-89" x1="153.37" y1="75.18" x2="153.37" y2="57.66" gradientTransform="matrix(-0.97, -0.23, -0.23, 0.97, 262.32, 37.25)" xlink:href="#Degradado_sin_nombre_160"/><linearGradient id="Degradado_sin_nombre_160-90" x1="154.36" y1="76.85" x2="154.36" y2="59.2" gradientTransform="matrix(-0.97, -0.23, -0.23, 0.97, 262.67, 37.52)" xlink:href="#Degradado_sin_nombre_160"/><linearGradient id="Degradado_sin_nombre_160-91" x1="155.12" y1="78.66" x2="155.12" y2="60.89" gradientTransform="matrix(-0.97, -0.23, -0.23, 0.97, 263.05, 37.75)" xlink:href="#Degradado_sin_nombre_160"/><linearGradient id="Degradado_sin_nombre_160-92" x1="155.64" y1="80.59" x2="155.64" y2="62.69" gradientTransform="matrix(-0.97, -0.23, -0.23, 0.97, 263.47, 37.92)" xlink:href="#Degradado_sin_nombre_160"/><linearGradient id="Degradado_sin_nombre_160-93" x1="155.88" y1="82.61" x2="155.88" y2="64.59" gradientTransform="matrix(-0.97, -0.23, -0.23, 0.97, 263.92, 38.03)" xlink:href="#Degradado_sin_nombre_160"/><linearGradient id="Degradado_sin_nombre_160-94" x1="155.9" y1="84.63" x2="155.9" y2="66.49" gradientTransform="matrix(-0.97, -0.23, -0.23, 0.97, 264.37, 38.1)" xlink:href="#Degradado_sin_nombre_160"/><linearGradient id="Degradado_sin_nombre_160-95" x1="155.9" y1="86.62" x2="155.9" y2="68.35" gradientTransform="matrix(-0.97, -0.23, -0.23, 0.97, 264.82, 38.15)" xlink:href="#Degradado_sin_nombre_160"/><linearGradient id="Degradado_sin_nombre_160-96" x1="155.9" y1="88.6" x2="155.9" y2="70.21" gradientTransform="matrix(-0.97, -0.23, -0.23, 0.97, 265.26, 38.21)" xlink:href="#Degradado_sin_nombre_160"/><linearGradient id="Degradado_sin_nombre_160-97" x1="155.9" y1="90.59" x2="155.9" y2="72.07" gradientTransform="matrix(-0.97, -0.23, -0.23, 0.97, 265.71, 38.26)" xlink:href="#Degradado_sin_nombre_160"/><linearGradient id="Degradado_sin_nombre_160-98" x1="155.9" y1="92.57" x2="155.9" y2="73.94" gradientTransform="matrix(-0.97, -0.23, -0.23, 0.97, 266.15, 38.32)" xlink:href="#Degradado_sin_nombre_160"/><linearGradient id="Degradado_sin_nombre_160-99" x1="155.9" y1="94.56" x2="155.9" y2="75.8" gradientTransform="matrix(-0.97, -0.23, -0.23, 0.97, 266.6, 38.37)" xlink:href="#Degradado_sin_nombre_160"/><linearGradient id="Degradado_sin_nombre_160-100" x1="155.9" y1="96.55" x2="155.9" y2="77.66" gradientTransform="matrix(-0.97, -0.23, -0.23, 0.97, 267.05, 38.43)" xlink:href="#Degradado_sin_nombre_160"/><linearGradient id="Degradado_sin_nombre_160-101" x1="155.9" y1="98.53" x2="155.9" y2="79.52" gradientTransform="matrix(-0.97, -0.23, -0.23, 0.97, 267.49, 38.49)" xlink:href="#Degradado_sin_nombre_160"/><linearGradient id="Degradado_sin_nombre_160-102" x1="155.9" y1="100.52" x2="155.9" y2="81.38" gradientTransform="matrix(-0.97, -0.23, -0.23, 0.97, 267.94, 38.54)" xlink:href="#Degradado_sin_nombre_160"/><linearGradient id="Degradado_sin_nombre_160-103" x1="155.9" y1="102.51" x2="155.9" y2="83.25" gradientTransform="matrix(-0.97, -0.23, -0.23, 0.97, 268.39, 38.6)" xlink:href="#Degradado_sin_nombre_160"/><linearGradient id="Degradado_sin_nombre_160-104" x1="155.9" y1="104.49" x2="155.9" y2="85.11" gradientTransform="matrix(-0.97, -0.23, -0.23, 0.97, 268.83, 38.66)" xlink:href="#Degradado_sin_nombre_160"/><linearGradient id="Degradado_sin_nombre_160-105" x1="155.9" y1="106.48" x2="155.9" y2="86.97" gradientTransform="matrix(-0.97, -0.23, -0.23, 0.97, 269.28, 38.71)" xlink:href="#Degradado_sin_nombre_160"/><linearGradient id="Degradado_sin_nombre_160-106" x1="155.9" y1="108.46" x2="155.9" y2="88.83" gradientTransform="matrix(-0.97, -0.23, -0.23, 0.97, 269.73, 38.77)" xlink:href="#Degradado_sin_nombre_160"/><linearGradient id="Degradado_sin_nombre_160-107" x1="155.9" y1="110.45" x2="155.9" y2="90.7" gradientTransform="matrix(-0.97, -0.23, -0.23, 0.97, 270.17, 38.83)" xlink:href="#Degradado_sin_nombre_160"/><linearGradient id="Degradado_sin_nombre_160-108" x1="155.9" y1="112.44" x2="155.9" y2="92.56" gradientTransform="matrix(-0.97, -0.23, -0.23, 0.97, 270.62, 38.88)" xlink:href="#Degradado_sin_nombre_160"/><linearGradient id="Degradado_sin_nombre_160-109" x1="155.9" y1="114.42" x2="155.9" y2="94.42" gradientTransform="matrix(-0.97, -0.23, -0.23, 0.97, 271.07, 38.94)" xlink:href="#Degradado_sin_nombre_160"/><linearGradient id="Degradado_sin_nombre_160-110" x1="155.9" y1="116.41" x2="155.9" y2="96.28" gradientTransform="matrix(-0.97, -0.23, -0.23, 0.97, 271.51, 39)" xlink:href="#Degradado_sin_nombre_160"/><linearGradient id="Degradado_sin_nombre_160-111" x1="155.9" y1="118.39" x2="155.9" y2="98.14" gradientTransform="matrix(-0.97, -0.23, -0.23, 0.97, 271.96, 39.05)" xlink:href="#Degradado_sin_nombre_160"/><linearGradient id="Degradado_sin_nombre_160-112" x1="155.9" y1="120.38" x2="155.9" y2="100.01" gradientTransform="matrix(-0.97, -0.23, -0.23, 0.97, 272.41, 39.11)" xlink:href="#Degradado_sin_nombre_160"/><linearGradient id="Degradado_sin_nombre_160-113" x1="155.9" y1="122.37" x2="155.9" y2="101.87" gradientTransform="matrix(-0.97, -0.23, -0.23, 0.97, 272.86, 39.17)" xlink:href="#Degradado_sin_nombre_160"/><linearGradient id="Degradado_sin_nombre_160-114" x1="155.9" y1="124.35" x2="155.9" y2="103.73" gradientTransform="matrix(-0.97, -0.23, -0.23, 0.97, 273.3, 39.22)" xlink:href="#Degradado_sin_nombre_160"/><linearGradient id="Degradado_sin_nombre_160-115" x1="155.9" y1="126.34" x2="155.9" y2="105.59" gradientTransform="matrix(-0.97, -0.23, -0.23, 0.97, 273.75, 39.28)" xlink:href="#Degradado_sin_nombre_160"/><linearGradient id="Degradado_sin_nombre_160-116" x1="155.9" y1="128.33" x2="155.9" y2="107.46" gradientTransform="matrix(-0.97, -0.23, -0.23, 0.97, 274.2, 39.34)" xlink:href="#Degradado_sin_nombre_160"/><linearGradient id="Degradado_sin_nombre_160-117" x1="155.9" y1="130.31" x2="155.9" y2="109.32" gradientTransform="matrix(-0.97, -0.23, -0.23, 0.97, 274.65, 39.4)" xlink:href="#Degradado_sin_nombre_160"/><linearGradient id="Degradado_sin_nombre_160-118" x1="155.9" y1="132.3" x2="155.9" y2="111.18" gradientTransform="matrix(-0.97, -0.23, -0.23, 0.97, 275.1, 39.45)" xlink:href="#Degradado_sin_nombre_160"/><linearGradient id="Degradado_sin_nombre_160-119" x1="155.9" y1="134.28" x2="155.9" y2="113.04" gradientTransform="matrix(-0.97, -0.23, -0.23, 0.97, 275.55, 39.51)" xlink:href="#Degradado_sin_nombre_160"/><linearGradient id="Degradado_sin_nombre_160-120" x1="155.9" y1="136.27" x2="155.9" y2="114.9" gradientTransform="matrix(-0.97, -0.23, -0.23, 0.97, 275.99, 39.57)" xlink:href="#Degradado_sin_nombre_160"/><linearGradient id="Degradado_sin_nombre_160-121" x1="155.9" y1="138.26" x2="155.9" y2="116.77" gradientTransform="matrix(-0.97, -0.23, -0.23, 0.97, 276.44, 39.63)" xlink:href="#Degradado_sin_nombre_160"/><linearGradient id="Degradado_sin_nombre_160-122" x1="155.9" y1="140.24" x2="155.9" y2="118.63" gradientTransform="matrix(-0.97, -0.23, -0.23, 0.97, 276.89, 39.69)" xlink:href="#Degradado_sin_nombre_160"/><linearGradient id="Degradado_sin_nombre_160-123" x1="155.9" y1="142.23" x2="155.9" y2="120.49" gradientTransform="matrix(-0.97, -0.23, -0.23, 0.97, 277.34, 39.74)" xlink:href="#Degradado_sin_nombre_160"/><linearGradient id="Degradado_sin_nombre_160-124" x1="155.9" y1="144.21" x2="155.9" y2="122.35" gradientTransform="matrix(-0.97, -0.23, -0.23, 0.97, 277.79, 39.8)" xlink:href="#Degradado_sin_nombre_160"/><linearGradient id="Degradado_sin_nombre_160-125" x1="155.9" y1="146.2" x2="155.9" y2="124.22" gradientTransform="matrix(-0.97, -0.23, -0.23, 0.97, 278.24, 39.86)" xlink:href="#Degradado_sin_nombre_160"/><linearGradient id="Degradado_sin_nombre_160-126" x1="155.9" y1="148.19" x2="155.9" y2="126.08" gradientTransform="matrix(-0.97, -0.23, -0.23, 0.97, 278.69, 39.92)" xlink:href="#Degradado_sin_nombre_160"/><linearGradient id="Degradado_sin_nombre_160-127" x1="156" y1="150.23" x2="156" y2="128" gradientTransform="matrix(-0.97, -0.23, -0.23, 0.97, 279.15, 40)" xlink:href="#Degradado_sin_nombre_160"/><linearGradient id="Degradado_sin_nombre_160-128" x1="156.37" y1="152.22" x2="156.37" y2="129.86" gradientTransform="matrix(-0.97, -0.23, -0.23, 0.97, 279.59, 40.15)" xlink:href="#Degradado_sin_nombre_160"/><linearGradient id="Degradado_sin_nombre_160-129" x1="156.99" y1="154.09" x2="156.99" y2="131.61" gradientTransform="matrix(-0.97, -0.23, -0.23, 0.97, 280, 40.35)" xlink:href="#Degradado_sin_nombre_160"/><linearGradient id="Degradado_sin_nombre_160-130" x1="157.86" y1="155.85" x2="157.86" y2="133.24" gradientTransform="matrix(-0.97, -0.23, -0.23, 0.97, 280.37, 40.6)" xlink:href="#Degradado_sin_nombre_160"/><linearGradient id="Degradado_sin_nombre_160-131" x1="158.94" y1="157.45" x2="158.94" y2="134.72" gradientTransform="matrix(-0.97, -0.23, -0.23, 0.97, 280.7, 40.9)" xlink:href="#Degradado_sin_nombre_160"/><linearGradient id="Degradado_sin_nombre_160-132" x1="160.22" y1="158.89" x2="160.22" y2="136.04" gradientTransform="matrix(-0.97, -0.23, -0.23, 0.97, 280.99, 41.24)" xlink:href="#Degradado_sin_nombre_160"/><linearGradient id="Degradado_sin_nombre_160-133" x1="161.68" y1="160.14" x2="161.68" y2="137.16" gradientTransform="matrix(-0.97, -0.23, -0.23, 0.97, 281.23, 41.62)" xlink:href="#Degradado_sin_nombre_160"/><linearGradient id="Degradado_sin_nombre_160-134" x1="163.29" y1="161.19" x2="163.29" y2="138.09" gradientTransform="matrix(-0.97, -0.23, -0.23, 0.97, 281.42, 42.03)" xlink:href="#Degradado_sin_nombre_160"/><linearGradient id="Degradado_sin_nombre_160-135" x1="165.04" y1="162.01" x2="165.04" y2="138.78" gradientTransform="matrix(-0.97, -0.23, -0.23, 0.97, 281.55, 42.47)" xlink:href="#Degradado_sin_nombre_160"/><linearGradient id="Degradado_sin_nombre_160-136" x1="166.91" y1="162.58" x2="166.91" y2="139.23" gradientTransform="matrix(-0.97, -0.23, -0.23, 0.97, 281.62, 42.92)" xlink:href="#Degradado_sin_nombre_160"/><linearGradient id="Degradado_sin_nombre_160-137" x1="168.87" y1="162.88" x2="168.87" y2="139.41" gradientTransform="matrix(-0.97, -0.23, -0.23, 0.97, 281.63, 43.39)" xlink:href="#Degradado_sin_nombre_160"/><linearGradient id="Degradado_sin_nombre_160-138" x1="170.88" y1="162.9" x2="170.88" y2="139.3" gradientTransform="matrix(-0.97, -0.23, -0.23, 0.97, 281.57, 43.87)" xlink:href="#Degradado_sin_nombre_160"/><linearGradient id="Degradado_sin_nombre_160-139" x1="172.82" y1="162.63" x2="172.82" y2="138.91" gradientTransform="matrix(-0.97, -0.23, -0.23, 0.97, 281.45, 44.32)" xlink:href="#Degradado_sin_nombre_160"/><linearGradient id="Degradado_sin_nombre_160-140" x1="174.65" y1="162.1" x2="174.65" y2="138.26" gradientTransform="matrix(-0.97, -0.23, -0.23, 0.97, 281.26, 44.74)" xlink:href="#Degradado_sin_nombre_160"/><linearGradient id="Degradado_sin_nombre_160-141" x1="176.36" y1="161.34" x2="176.36" y2="137.37" gradientTransform="matrix(-0.97, -0.23, -0.23, 0.97, 281.03, 45.12)" xlink:href="#Degradado_sin_nombre_160"/><linearGradient id="Degradado_sin_nombre_160-142" x1="177.93" y1="160.35" x2="177.93" y2="136.26" gradientTransform="matrix(-0.97, -0.23, -0.23, 0.97, 280.75, 45.47)" xlink:href="#Degradado_sin_nombre_160"/><linearGradient id="Degradado_sin_nombre_160-143" x1="179.33" y1="159.16" x2="179.33" y2="134.94" gradientTransform="matrix(-0.97, -0.23, -0.23, 0.97, 280.42, 45.77)" xlink:href="#Degradado_sin_nombre_160"/><linearGradient id="Degradado_sin_nombre_160-144" x1="180.55" y1="157.79" x2="180.55" y2="133.45" gradientTransform="matrix(-0.97, -0.23, -0.23, 0.97, 280.06, 46.02)" xlink:href="#Degradado_sin_nombre_160"/><linearGradient id="Degradado_sin_nombre_160-145" x1="181.57" y1="156.26" x2="181.57" y2="131.8" gradientTransform="matrix(-0.97, -0.23, -0.23, 0.97, 279.67, 46.23)" xlink:href="#Degradado_sin_nombre_160"/><linearGradient id="Degradado_sin_nombre_160-146" x1="182.36" y1="154.59" x2="182.36" y2="130" gradientTransform="matrix(-0.97, -0.23, -0.23, 0.97, 279.25, 46.37)" xlink:href="#Degradado_sin_nombre_160"/><linearGradient id="Degradado_sin_nombre_160-147" x1="182.91" y1="152.8" x2="182.91" y2="128.09" gradientTransform="matrix(-0.97, -0.23, -0.23, 0.97, 278.8, 46.46)" xlink:href="#Degradado_sin_nombre_160"/><linearGradient id="Degradado_sin_nombre_160-148" x1="183.19" y1="150.92" x2="183.19" y2="126.08" gradientTransform="matrix(-0.97, -0.23, -0.23, 0.97, 278.35, 46.48)" xlink:href="#Degradado_sin_nombre_160"/><linearGradient id="Degradado_sin_nombre_160-149" x1="183.22" y1="149.01" x2="183.22" y2="124.05" gradientTransform="matrix(-0.97, -0.23, -0.23, 0.97, 277.89, 46.45)" xlink:href="#Degradado_sin_nombre_160"/><linearGradient id="Degradado_sin_nombre_160-150" x1="183.22" y1="147.15" x2="183.22" y2="122.06" gradientTransform="matrix(-0.97, -0.23, -0.23, 0.97, 277.45, 46.41)" xlink:href="#Degradado_sin_nombre_160"/><linearGradient id="Degradado_sin_nombre_160-151" x1="183.22" y1="145.29" x2="183.22" y2="120.08" gradientTransform="matrix(-0.97, -0.23, -0.23, 0.97, 277.01, 46.37)" xlink:href="#Degradado_sin_nombre_160"/><linearGradient id="Degradado_sin_nombre_160-152" x1="183.22" y1="143.42" x2="183.22" y2="118.09" gradientTransform="matrix(-0.97, -0.23, -0.23, 0.97, 276.56, 46.32)" xlink:href="#Degradado_sin_nombre_160"/><linearGradient id="Degradado_sin_nombre_160-153" x1="183.22" y1="141.56" x2="183.22" y2="116.11" gradientTransform="matrix(-0.97, -0.23, -0.23, 0.97, 276.12, 46.28)" xlink:href="#Degradado_sin_nombre_160"/><linearGradient id="Degradado_sin_nombre_160-154" x1="183.22" y1="139.7" x2="183.22" y2="114.12" gradientTransform="matrix(-0.97, -0.23, -0.23, 0.97, 275.67, 46.24)" xlink:href="#Degradado_sin_nombre_160"/><linearGradient id="Degradado_sin_nombre_160-155" x1="183.22" y1="137.84" x2="183.22" y2="112.13" gradientTransform="matrix(-0.97, -0.23, -0.23, 0.97, 275.23, 46.2)" xlink:href="#Degradado_sin_nombre_160"/><linearGradient id="Degradado_sin_nombre_160-156" x1="183.22" y1="135.97" x2="183.22" y2="110.15" gradientTransform="matrix(-0.97, -0.23, -0.23, 0.97, 274.79, 46.16)" xlink:href="#Degradado_sin_nombre_160"/><linearGradient id="Degradado_sin_nombre_160-157" x1="183.22" y1="134.11" x2="183.22" y2="108.16" gradientTransform="matrix(-0.97, -0.23, -0.23, 0.97, 274.34, 46.12)" xlink:href="#Degradado_sin_nombre_160"/><linearGradient id="Degradado_sin_nombre_160-158" x1="183.22" y1="132.25" x2="183.22" y2="106.17" gradientTransform="matrix(-0.97, -0.23, -0.23, 0.97, 273.9, 46.08)" xlink:href="#Degradado_sin_nombre_160"/><linearGradient id="Degradado_sin_nombre_160-159" x1="183.22" y1="130.39" x2="183.22" y2="104.19" gradientTransform="matrix(-0.97, -0.23, -0.23, 0.97, 273.45, 46.04)" xlink:href="#Degradado_sin_nombre_160"/><linearGradient id="Degradado_sin_nombre_160-160" x1="183.22" y1="128.53" x2="183.22" y2="102.2" gradientTransform="matrix(-0.97, -0.23, -0.23, 0.97, 273.01, 46)" xlink:href="#Degradado_sin_nombre_160"/><linearGradient id="Degradado_sin_nombre_160-161" x1="183.22" y1="126.66" x2="183.22" y2="100.22" gradientTransform="matrix(-0.97, -0.23, -0.23, 0.97, 272.56, 45.96)" xlink:href="#Degradado_sin_nombre_160"/><linearGradient id="Degradado_sin_nombre_160-162" x1="183.22" y1="124.8" x2="183.22" y2="98.23" gradientTransform="matrix(-0.97, -0.23, -0.23, 0.97, 272.12, 45.93)" xlink:href="#Degradado_sin_nombre_160"/><linearGradient id="Degradado_sin_nombre_160-163" x1="183.22" y1="122.94" x2="183.22" y2="96.24" gradientTransform="matrix(-0.97, -0.23, -0.23, 0.97, 271.67, 45.89)" xlink:href="#Degradado_sin_nombre_160"/><linearGradient id="Degradado_sin_nombre_160-164" x1="183.22" y1="121.08" x2="183.22" y2="94.26" gradientTransform="matrix(-0.97, -0.23, -0.23, 0.97, 271.23, 45.85)" xlink:href="#Degradado_sin_nombre_160"/><linearGradient id="Degradado_sin_nombre_160-165" x1="183.22" y1="119.21" x2="183.22" y2="92.27" gradientTransform="matrix(-0.97, -0.23, -0.23, 0.97, 270.78, 45.81)" xlink:href="#Degradado_sin_nombre_160"/><linearGradient id="Degradado_sin_nombre_160-166" x1="183.22" y1="117.35" x2="183.22" y2="90.29" gradientTransform="matrix(-0.97, -0.23, -0.23, 0.97, 270.34, 45.77)" xlink:href="#Degradado_sin_nombre_160"/><linearGradient id="Degradado_sin_nombre_160-167" x1="183.22" y1="115.49" x2="183.22" y2="88.3" gradientTransform="matrix(-0.97, -0.23, -0.23, 0.97, 269.89, 45.74)" xlink:href="#Degradado_sin_nombre_160"/><linearGradient id="Degradado_sin_nombre_160-168" x1="183.22" y1="113.63" x2="183.22" y2="86.31" gradientTransform="matrix(-0.97, -0.23, -0.23, 0.97, 269.44, 45.7)" xlink:href="#Degradado_sin_nombre_160"/><linearGradient id="Degradado_sin_nombre_160-169" x1="183.22" y1="111.77" x2="183.22" y2="84.33" gradientTransform="matrix(-0.97, -0.23, -0.23, 0.97, 269, 45.67)" xlink:href="#Degradado_sin_nombre_160"/><linearGradient id="Degradado_sin_nombre_160-170" x1="183.22" y1="109.9" x2="183.22" y2="82.34" gradientTransform="matrix(-0.97, -0.23, -0.23, 0.97, 268.55, 45.63)" xlink:href="#Degradado_sin_nombre_160"/><linearGradient id="Degradado_sin_nombre_160-171" x1="183.22" y1="108.04" x2="183.22" y2="80.35" gradientTransform="matrix(-0.97, -0.23, -0.23, 0.97, 268.11, 45.59)" xlink:href="#Degradado_sin_nombre_160"/><linearGradient id="Degradado_sin_nombre_160-172" x1="183.22" y1="106.18" x2="183.22" y2="78.37" gradientTransform="matrix(-0.97, -0.23, -0.23, 0.97, 267.66, 45.56)" xlink:href="#Degradado_sin_nombre_160"/><linearGradient id="Degradado_sin_nombre_160-173" x1="183.22" y1="104.32" x2="183.22" y2="76.38" gradientTransform="matrix(-0.97, -0.23, -0.23, 0.97, 267.21, 45.53)" xlink:href="#Degradado_sin_nombre_160"/><linearGradient id="Degradado_sin_nombre_160-174" x1="183.22" y1="102.45" x2="183.22" y2="74.4" gradientTransform="matrix(-0.97, -0.23, -0.23, 0.97, 266.76, 45.49)" xlink:href="#Degradado_sin_nombre_160"/><linearGradient id="Degradado_sin_nombre_160-175" x1="183.22" y1="100.59" x2="183.22" y2="72.41" gradientTransform="matrix(-0.97, -0.23, -0.23, 0.97, 266.32, 45.46)" xlink:href="#Degradado_sin_nombre_160"/><linearGradient id="Degradado_sin_nombre_160-176" x1="183.22" y1="98.73" x2="183.22" y2="70.42" gradientTransform="matrix(-0.97, -0.23, -0.23, 0.97, 265.87, 45.43)" xlink:href="#Degradado_sin_nombre_160"/><linearGradient id="Degradado_sin_nombre_160-177" x1="183.22" y1="96.87" x2="183.22" y2="68.44" gradientTransform="matrix(-0.97, -0.24, -0.24, 0.97, 265.42, 45.39)" xlink:href="#Degradado_sin_nombre_160"/><linearGradient id="Degradado_sin_nombre_160-178" x1="183.22" y1="95.01" x2="183.22" y2="66.45" gradientTransform="matrix(-0.97, -0.24, -0.24, 0.97, 264.97, 45.36)" xlink:href="#Degradado_sin_nombre_160"/><linearGradient id="Degradado_sin_nombre_160-179" x1="183.22" y1="93.14" x2="183.22" y2="64.47" gradientTransform="matrix(-0.97, -0.24, -0.24, 0.97, 264.52, 45.33)" xlink:href="#Degradado_sin_nombre_160"/><linearGradient id="Degradado_sin_nombre_160-180" x1="183.22" y1="91.28" x2="183.22" y2="62.48" gradientTransform="matrix(-0.97, -0.24, -0.24, 0.97, 264.08, 45.3)" xlink:href="#Degradado_sin_nombre_160"/><linearGradient id="Degradado_sin_nombre_160-181" x1="183.22" y1="89.42" x2="183.22" y2="60.49" gradientTransform="matrix(-0.97, -0.24, -0.24, 0.97, 263.63, 45.27)" xlink:href="#Degradado_sin_nombre_160"/><linearGradient id="Degradado_sin_nombre_160-182" x1="183.22" y1="87.56" x2="183.22" y2="58.51" gradientTransform="matrix(-0.97, -0.24, -0.24, 0.97, 263.18, 45.24)" xlink:href="#Degradado_sin_nombre_160"/><linearGradient id="Degradado_sin_nombre_160-183" x1="183.22" y1="85.69" x2="183.22" y2="56.52" gradientTransform="matrix(-0.97, -0.24, -0.24, 0.97, 262.73, 45.22)" xlink:href="#Degradado_sin_nombre_160"/><linearGradient id="Degradado_sin_nombre_160-184" x1="183.22" y1="83.83" x2="183.22" y2="54.53" gradientTransform="matrix(-0.97, -0.24, -0.24, 0.97, 262.28, 45.19)" xlink:href="#Degradado_sin_nombre_160"/><linearGradient id="Degradado_sin_nombre_160-185" x1="183.22" y1="81.97" x2="183.22" y2="52.55" gradientTransform="matrix(-0.97, -0.24, -0.24, 0.97, 261.83, 45.16)" xlink:href="#Degradado_sin_nombre_160"/><linearGradient id="Degradado_sin_nombre_160-186" x1="183.22" y1="80.11" x2="183.22" y2="50.56" gradientTransform="matrix(-0.97, -0.24, -0.24, 0.97, 261.37, 45.14)" xlink:href="#Degradado_sin_nombre_160"/><linearGradient id="Degradado_sin_nombre_160-187" x1="183.22" y1="78.25" x2="183.22" y2="48.58" gradientTransform="matrix(-0.97, -0.24, -0.24, 0.97, 260.92, 45.11)" xlink:href="#Degradado_sin_nombre_160"/><linearGradient id="Degradado_sin_nombre_160-188" x1="183.22" y1="76.38" x2="183.22" y2="46.59" gradientTransform="matrix(-0.97, -0.24, -0.24, 0.97, 260.47, 45.09)" xlink:href="#Degradado_sin_nombre_160"/><linearGradient id="Degradado_sin_nombre_160-189" x1="183.22" y1="74.52" x2="183.22" y2="44.6" gradientTransform="matrix(-0.97, -0.24, -0.24, 0.97, 260.02, 45.07)" xlink:href="#Degradado_sin_nombre_160"/><linearGradient id="Degradado_sin_nombre_160-190" x1="183.22" y1="72.66" x2="183.22" y2="42.62" gradientTransform="matrix(-0.97, -0.24, -0.24, 0.97, 259.56, 45.05)" xlink:href="#Degradado_sin_nombre_160"/><linearGradient id="Degradado_sin_nombre_160-191" x1="183.22" y1="70.8" x2="183.22" y2="40.63" gradientTransform="matrix(-0.97, -0.24, -0.24, 0.97, 259.11, 45.03)" xlink:href="#Degradado_sin_nombre_160"/><linearGradient id="Degradado_sin_nombre_160-192" x1="183.22" y1="68.93" x2="183.22" y2="38.65" gradientTransform="matrix(-0.97, -0.24, -0.24, 0.97, 258.66, 45.01)" xlink:href="#Degradado_sin_nombre_160"/><linearGradient id="Degradado_sin_nombre_160-193" x1="183.22" y1="67.07" x2="183.22" y2="36.66" gradientTransform="matrix(-0.97, -0.24, -0.24, 0.97, 258.2, 44.99)" xlink:href="#Degradado_sin_nombre_160"/><linearGradient id="Degradado_sin_nombre_160-194" x1="183.22" y1="65.21" x2="183.22" y2="34.67" gradientTransform="matrix(-0.97, -0.24, -0.24, 0.97, 257.74, 44.98)" xlink:href="#Degradado_sin_nombre_160"/><linearGradient id="Degradado_sin_nombre_160-195" x1="183.22" y1="63.35" x2="183.22" y2="32.69" gradientTransform="matrix(-0.97, -0.24, -0.24, 0.97, 257.29, 44.96)" xlink:href="#Degradado_sin_nombre_160"/><linearGradient id="Degradado_sin_nombre_160-196" x1="183.22" y1="61.49" x2="183.22" y2="30.7" gradientTransform="matrix(-0.97, -0.24, -0.24, 0.97, 256.83, 44.95)" xlink:href="#Degradado_sin_nombre_160"/><linearGradient id="Degradado_sin_nombre_160-197" x1="183.22" y1="59.62" x2="183.22" y2="28.71" gradientTransform="matrix(-0.97, -0.24, -0.24, 0.97, 256.37, 44.94)" xlink:href="#Degradado_sin_nombre_160"/><linearGradient id="Degradado_sin_nombre_160-198" x1="183.22" y1="57.76" x2="183.22" y2="26.73" gradientTransform="matrix(-0.97, -0.24, -0.24, 0.97, 255.91, 44.93)" xlink:href="#Degradado_sin_nombre_160"/><linearGradient id="Degradado_sin_nombre_160-199" x1="183.22" y1="55.9" x2="183.22" y2="24.74" gradientTransform="matrix(-0.97, -0.24, -0.24, 0.97, 255.45, 44.93)" xlink:href="#Degradado_sin_nombre_160"/><linearGradient id="Degradado_sin_nombre_160-200" x1="183.22" y1="54.04" x2="183.22" y2="22.76" gradientTransform="matrix(-0.97, -0.24, -0.24, 0.97, 254.99, 44.92)" xlink:href="#Degradado_sin_nombre_160"/><linearGradient id="Degradado_sin_nombre_160-201" x1="183.22" y1="52.17" x2="183.22" y2="20.77" gradientTransform="matrix(-0.97, -0.24, -0.24, 0.97, 254.53, 44.92)" xlink:href="#Degradado_sin_nombre_160"/><linearGradient id="Degradado_sin_nombre_160-202" x1="183.25" y1="50.28" x2="183.25" y2="18.75" gradientTransform="matrix(-0.97, -0.24, -0.24, 0.97, 254.06, 44.92)" xlink:href="#Degradado_sin_nombre_160"/><linearGradient id="Degradado_sin_nombre_160-203" x1="183.5" y1="48.38" x2="183.5" y2="16.73" gradientTransform="matrix(-0.97, -0.24, -0.24, 0.97, 253.57, 44.99)" xlink:href="#Degradado_sin_nombre_160"/><linearGradient id="Degradado_sin_nombre_160-204" x1="184.01" y1="46.58" x2="184.01" y2="14.8" gradientTransform="matrix(-0.97, -0.24, -0.24, 0.97, 253.11, 45.12)" xlink:href="#Degradado_sin_nombre_160"/><linearGradient id="Degradado_sin_nombre_160-205" x1="184.78" y1="44.89" x2="184.78" y2="12.99" gradientTransform="matrix(-0.97, -0.24, -0.24, 0.97, 252.66, 45.32)" xlink:href="#Degradado_sin_nombre_160"/><linearGradient id="Degradado_sin_nombre_160-206" x1="185.77" y1="43.35" x2="185.77" y2="11.32" gradientTransform="matrix(-0.97, -0.24, -0.24, 0.97, 252.24, 45.58)" xlink:href="#Degradado_sin_nombre_160"/><linearGradient id="Degradado_sin_nombre_160-207" x1="186.96" y1="41.96" x2="186.96" y2="9.81" xlink:href="#Degradado_sin_nombre_160"/><linearGradient id="Degradado_sin_nombre_160-208" x1="188.35" y1="40.75" x2="188.35" y2="8.47" xlink:href="#Degradado_sin_nombre_160"/><linearGradient id="Degradado_sin_nombre_160-209" x1="189.9" y1="39.73" x2="189.9" y2="7.34" xlink:href="#Degradado_sin_nombre_160"/><linearGradient id="Degradado_sin_nombre_160-210" x1="191.59" y1="38.94" x2="191.59" y2="6.42" xlink:href="#Degradado_sin_nombre_160"/><linearGradient id="Degradado_sin_nombre_160-211" x1="193.41" y1="38.38" x2="193.41" y2="5.74" xlink:href="#Degradado_sin_nombre_160"/><linearGradient id="Degradado_sin_nombre_160-212" x1="195.33" y1="38.08" x2="195.33" y2="5.32" xlink:href="#Degradado_sin_nombre_160"/><linearGradient id="Degradado_sin_nombre_160-213" x1="197.34" y1="38.07" x2="197.34" y2="5.18" xlink:href="#Degradado_sin_nombre_160"/><linearGradient id="Degradado_sin_nombre_160-214" x1="199.31" y1="38.34" x2="199.31" y2="5.32" xlink:href="#Degradado_sin_nombre_160"/><linearGradient id="Degradado_sin_nombre_160-215" x1="201.19" y1="38.88" x2="201.19" y2="5.74" xlink:href="#Degradado_sin_nombre_160"/><linearGradient id="Degradado_sin_nombre_160-216" x1="202.96" y1="39.67" x2="202.96" y2="6.4" xlink:href="#Degradado_sin_nombre_160"/><linearGradient id="Degradado_sin_nombre_160-217" x1="204.59" y1="40.68" x2="204.59" y2="7.3" xlink:href="#Degradado_sin_nombre_160"/><linearGradient id="Degradado_sin_nombre_160-218" x1="206.06" y1="41.91" x2="206.06" y2="8.4" xlink:href="#Degradado_sin_nombre_160"/><linearGradient id="Degradado_sin_nombre_160-219" x1="207.37" y1="43.33" x2="207.37" y2="9.7" xlink:href="#Degradado_sin_nombre_160"/><linearGradient id="Degradado_sin_nombre_160-220" x1="208.47" y1="44.92" x2="208.47" y2="11.16" xlink:href="#Degradado_sin_nombre_160"/><linearGradient id="Degradado_sin_nombre_160-221" x1="209.36" y1="46.65" x2="209.36" y2="12.77" xlink:href="#Degradado_sin_nombre_160"/><linearGradient id="Degradado_sin_nombre_160-222" x1="210.02" y1="48.52" x2="210.02" y2="14.51" xlink:href="#Degradado_sin_nombre_160"/><linearGradient id="Degradado_sin_nombre_160-223" x1="210.42" y1="50.49" x2="210.42" y2="16.36" xlink:href="#Degradado_sin_nombre_160"/><linearGradient id="Degradado_sin_nombre_160-224" x1="210.55" y1="52.54" x2="210.55" y2="18.28" xlink:href="#Degradado_sin_nombre_160"/><linearGradient id="Degradado_sin_nombre_160-225" x1="210.55" y1="54.52" x2="210.55" y2="20.15" xlink:href="#Degradado_sin_nombre_160"/><linearGradient id="Degradado_sin_nombre_160-226" x1="210.55" y1="56.51" x2="210.55" y2="22.01" xlink:href="#Degradado_sin_nombre_160"/><linearGradient id="Degradado_sin_nombre_160-227" x1="210.55" y1="58.5" x2="210.55" y2="23.87" xlink:href="#Degradado_sin_nombre_160"/><linearGradient id="Degradado_sin_nombre_160-228" x1="210.55" y1="60.48" x2="210.55" y2="25.73" xlink:href="#Degradado_sin_nombre_160"/><linearGradient id="Degradado_sin_nombre_160-229" x1="210.55" y1="62.47" x2="210.55" y2="27.6" xlink:href="#Degradado_sin_nombre_160"/><linearGradient id="Degradado_sin_nombre_160-230" x1="210.55" y1="64.46" x2="210.55" y2="29.46" xlink:href="#Degradado_sin_nombre_160"/><linearGradient id="Degradado_sin_nombre_160-231" x1="210.55" y1="66.44" x2="210.55" y2="31.32" xlink:href="#Degradado_sin_nombre_160"/><linearGradient id="Degradado_sin_nombre_160-232" x1="210.55" y1="68.43" x2="210.55" y2="33.18" xlink:href="#Degradado_sin_nombre_160"/><linearGradient id="Degradado_sin_nombre_160-233" x1="210.55" y1="70.41" x2="210.55" y2="35.04" xlink:href="#Degradado_sin_nombre_160"/><linearGradient id="Degradado_sin_nombre_160-234" x1="210.55" y1="72.4" x2="210.55" y2="36.91" xlink:href="#Degradado_sin_nombre_160"/><linearGradient id="Degradado_sin_nombre_160-235" x1="210.55" y1="74.39" x2="210.55" y2="38.77" xlink:href="#Degradado_sin_nombre_160"/><linearGradient id="Degradado_sin_nombre_160-236" x1="210.55" y1="76.37" x2="210.55" y2="40.63" xlink:href="#Degradado_sin_nombre_160"/><linearGradient id="Degradado_sin_nombre_160-237" x1="210.55" y1="78.36" x2="210.55" y2="42.49" xlink:href="#Degradado_sin_nombre_160"/><linearGradient id="Degradado_sin_nombre_160-238" x1="210.55" y1="80.34" x2="210.55" y2="44.36" xlink:href="#Degradado_sin_nombre_160"/><linearGradient id="Degradado_sin_nombre_160-239" x1="210.55" y1="82.33" x2="210.55" y2="46.22" xlink:href="#Degradado_sin_nombre_160"/><linearGradient id="Degradado_sin_nombre_160-240" x1="210.55" y1="84.32" x2="210.55" y2="48.08" xlink:href="#Degradado_sin_nombre_160"/><linearGradient id="Degradado_sin_nombre_160-241" x1="210.55" y1="86.3" x2="210.55" y2="49.94" xlink:href="#Degradado_sin_nombre_160"/></defs><g style="isolation:isolate"><g id="Layer_2" data-name="Layer 2"><g id="OBJECTS"><circle cx="52.05" cy="133.62" r="5.69" style="fill:#eb9915"/><path d="M69.39,181.54H58.76a3.23,3.23,0,0,1,0-6.46h7.4V146a3.23,3.23,0,0,1,6.46,0v32.3A3.22,3.22,0,0,1,69.39,181.54Z" style="fill:#f6ce2e"/><path d="M68.37,148.35v29.07H61a3.23,3.23,0,0,0-3.23,3.23,3.57,3.57,0,0,0,.09.74,3.23,3.23,0,0,0,.93.15H69.39a3.22,3.22,0,0,0,3.23-3.23V146a3,3,0,0,0-.09-.74,3.18,3.18,0,0,0-.93-.15A3.23,3.23,0,0,0,68.37,148.35Z" style="fill:#eb9915"/><path d="M55.24,134h-.12c-1.18-.05-11.63-.58-16-5.8a8.43,8.43,0,0,1-1.93-6.72c1.29-9.46,14.08-18,15.53-18.89A3.23,3.23,0,1,1,56.2,108h0c-4.52,2.93-12,9.41-12.63,14.34A2,2,0,0,0,44,124c2,2.4,8.5,3.4,11.31,3.5a3.23,3.23,0,0,1-.11,6.46Z" style="fill:#f6ba16"/><path d="M55.35,127.53c-2.81-.1-9.28-1.1-11.31-3.5a2,2,0,0,1-.47-1.68c.67-4.93,8.11-11.41,12.63-14.34a3.23,3.23,0,1,0-3.5-5.43l-1.21.82a3.23,3.23,0,0,1,.44,5.67C47.41,112,40,118.48,39.3,123.4a2,2,0,0,0,.48,1.68c2,2.41,8.49,3.4,11.3,3.5a3.21,3.21,0,0,1,2.36,5.29c.84.08,1.44.11,1.68.12h.12a3.23,3.23,0,0,0,.11-6.46Z" style="fill:#eb9915"/><path d="M132.12,73.14a1.14,1.14,0,0,0,0-2l-1.32-.76-3-1.75v7l3-1.75Z" style="fill:#b61982"/><path d="M132.12,85.13a1.14,1.14,0,0,0,0-2l-1.32-.76-3-1.75v7l3-1.75Z" style="fill:#b61982"/><path d="M132.12,97.12a1.14,1.14,0,0,0,0-2l-1.32-.76-3-1.75v7l3-1.75Z" style="fill:#b61982"/><path d="M132.12,109.11a1.14,1.14,0,0,0,0-2l-1.32-.76-3-1.75v7l3-1.74Z" style="fill:#b61982"/><path d="M132.12,121.1a1.14,1.14,0,0,0,0-2l-1.32-.76-3-1.75v7l3-1.74Z" style="fill:#b61982"/><path d="M132.12,133.09a1.14,1.14,0,0,0,0-2l-1.32-.76-3-1.75v7l3-1.75Z" style="fill:#b61982"/><path d="M82.63,14.69a2.28,2.28,0,0,0-2.39-3.15l-3,.38-6.94.87,4.22,5.58,4.22,5.57,2.72-6.44Z" style="fill:#b61982"/><path d="M114,50.26a1.14,1.14,0,0,0-2-.24l-.91,1.22-2.1,2.8,3.48.42,3.47.41-1.38-3.21Z" style="fill:#b61982"/><path d="M127.36,60.41a1.14,1.14,0,0,0-1.12-1.63l-1.52.13-3.49.29,2,2.88,2,2.87,1.49-3.17Z" style="fill:#b61982"/><path d="M62.91,1.33A2.28,2.28,0,0,0,59,1L57.22,3.45l-4,5.72,7,.64,7,.64L64.19,4.09Z" style="fill:#b61982"/><path d="M88,31.68a2.28,2.28,0,0,0,0-3.95L85.4,26.21l-6.06-3.5v14l6.06-3.5Z" style="fill:#b61982"/><path d="M88,49a2.28,2.28,0,0,0,0-3.95L85.4,43.57l-6.06-3.5v14l6.06-3.5Z" style="fill:#b61982"/><path d="M88,66.4a2.28,2.28,0,0,0,0-4L85.4,60.92l-6.06-3.49v14l6.06-3.5Z" style="fill:#b61982"/><path d="M88,83.75a2.28,2.28,0,0,0,0-4L85.4,78.28l-6.06-3.5v14l6.06-3.5Z" style="fill:#b61982"/><path d="M88,101.11a2.28,2.28,0,0,0,0-4L85.4,95.64l-6.06-3.5v14l6.06-3.5Z" style="fill:#b61982"/><path d="M88,118.47a2.28,2.28,0,0,0,0-4L85.4,113l-6.06-3.49v14L85.4,120Z" style="fill:#b61982"/><path d="M88,135.82a2.28,2.28,0,0,0,0-3.95l-2.64-1.52-6.06-3.5v14l6.06-3.5Z" style="fill:#b61982"/><path d="M123.17,181.43H112.54a3.12,3.12,0,1,1,0-6.23h7.51V148.31a3.12,3.12,0,1,1,6.23,0v30A3.12,3.12,0,0,1,123.17,181.43Z" style="fill:#f6ce2e"/><path d="M123.17,145.19l-.2,0a3.12,3.12,0,0,1,.7,1.95v30a3.12,3.12,0,0,1-3.12,3.12H110.14a3.12,3.12,0,0,0,2.4,1.15h10.63a3.12,3.12,0,0,0,3.11-3.12v-30A3.12,3.12,0,0,0,123.17,145.19Z" style="fill:#eb9915"/><path d="M146.55,108.75a3.31,3.31,0,1,0,3.31-3.31A3.31,3.31,0,0,0,146.55,108.75Z" style="fill:url(#Degradado_sin_nombre_160)"/><path d="M146.49,110.68a3.37,3.37,0,1,0,3.37-3.38A3.37,3.37,0,0,0,146.49,110.68Z" style="fill:url(#Degradado_sin_nombre_160-2)"/><path d="M146.43,112.6a3.43,3.43,0,1,0,3.43-3.43A3.42,3.42,0,0,0,146.43,112.6Z" style="fill:url(#Degradado_sin_nombre_160-3)"/><path d="M146.37,114.52a3.5,3.5,0,1,0,3.49-3.49A3.5,3.5,0,0,0,146.37,114.52Z" style="fill:url(#Degradado_sin_nombre_160-4)"/><path d="M146.3,116.45a3.56,3.56,0,1,0,3.56-3.56A3.57,3.57,0,0,0,146.3,116.45Z" style="fill:url(#Degradado_sin_nombre_160-5)"/><path d="M146.24,118.37a3.62,3.62,0,1,0,3.62-3.62A3.62,3.62,0,0,0,146.24,118.37Z" style="fill:url(#Degradado_sin_nombre_160-6)"/><path d="M146.18,120.3a3.68,3.68,0,1,0,3.68-3.68A3.68,3.68,0,0,0,146.18,120.3Z" style="fill:url(#Degradado_sin_nombre_160-7)"/><path d="M146.12,122.22a3.74,3.74,0,1,0,3.74-3.74A3.73,3.73,0,0,0,146.12,122.22Z" style="fill:url(#Degradado_sin_nombre_160-8)"/><path d="M146.06,124.15a3.81,3.81,0,1,0,3.8-3.81A3.8,3.8,0,0,0,146.06,124.15Z" style="fill:url(#Degradado_sin_nombre_160-9)"/><path d="M146,126.07a3.87,3.87,0,1,0,3.87-3.87A3.87,3.87,0,0,0,146,126.07Z" style="fill:url(#Degradado_sin_nombre_160-10)"/><path d="M145.93,128a3.93,3.93,0,1,0,3.93-3.93A3.93,3.93,0,0,0,145.93,128Z" style="fill:url(#Degradado_sin_nombre_160-11)"/><path d="M145.87,129.92a4,4,0,1,0,4-4A4,4,0,0,0,145.87,129.92Z" style="fill:url(#Degradado_sin_nombre_160-12)"/><path d="M145.81,131.84a4.05,4.05,0,1,0,4.05-4A4,4,0,0,0,145.81,131.84Z" style="fill:url(#Degradado_sin_nombre_160-13)"/><path d="M145.75,133.77a4.11,4.11,0,1,0,4.11-4.12A4.11,4.11,0,0,0,145.75,133.77Z" style="fill:url(#Degradado_sin_nombre_160-14)"/><path d="M145.68,135.69a4.18,4.18,0,1,0,4.18-4.18A4.18,4.18,0,0,0,145.68,135.69Z" style="fill:url(#Degradado_sin_nombre_160-15)"/><path d="M145.62,137.62a4.24,4.24,0,1,0,4.24-4.24A4.24,4.24,0,0,0,145.62,137.62Z" style="fill:url(#Degradado_sin_nombre_160-16)"/><path d="M145.4,139.61a4.3,4.3,0,1,0,4.3-4.3A4.3,4.3,0,0,0,145.4,139.61Z" style="fill:url(#Degradado_sin_nombre_160-17)"/><path d="M144.9,141.5a4.37,4.37,0,1,0,4.36-4.36A4.37,4.37,0,0,0,144.9,141.5Z" style="fill:url(#Degradado_sin_nombre_160-18)"/><path d="M144.15,143.29a4.43,4.43,0,1,0,4.43-4.43A4.42,4.42,0,0,0,144.15,143.29Z" style="fill:url(#Degradado_sin_nombre_160-19)"/><path d="M143.17,144.94a4.49,4.49,0,1,0,4.49-4.48A4.49,4.49,0,0,0,143.17,144.94Z" style="fill:url(#Degradado_sin_nombre_160-20)"/><path d="M142,146.45a4.55,4.55,0,1,0,4.55-4.55A4.55,4.55,0,0,0,142,146.45Z" style="fill:url(#Degradado_sin_nombre_160-21)"/><path d="M140.59,147.78a4.61,4.61,0,1,0,4.61-4.61A4.6,4.6,0,0,0,140.59,147.78Z" style="fill:url(#Degradado_sin_nombre_160-22)"/><path d="M139,148.92a4.67,4.67,0,1,0,4.67-4.67A4.67,4.67,0,0,0,139,148.92Z" style="fill:url(#Degradado_sin_nombre_160-23)"/><path d="M137.31,149.85a4.74,4.74,0,1,0,4.74-4.74A4.74,4.74,0,0,0,137.31,149.85Z" style="fill:url(#Degradado_sin_nombre_160-24)"/><path d="M135.47,150.54a4.8,4.8,0,1,0,4.8-4.79A4.8,4.8,0,0,0,135.47,150.54Z" style="fill:url(#Degradado_sin_nombre_160-25)"/><path d="M133.51,151a4.86,4.86,0,1,0,4.86-4.86A4.87,4.87,0,0,0,133.51,151Z" style="fill:url(#Degradado_sin_nombre_160-26)"/><path d="M131.47,151.16a4.92,4.92,0,1,0,4.92-4.92A4.92,4.92,0,0,0,131.47,151.16Z" style="fill:url(#Degradado_sin_nombre_160-27)"/><path d="M129.41,151a5,5,0,1,0,5-5A5,5,0,0,0,129.41,151Z" style="fill:url(#Degradado_sin_nombre_160-28)"/><path d="M127.43,150.65a5,5,0,1,0,5-5.05A5,5,0,0,0,127.43,150.65Z" style="fill:url(#Degradado_sin_nombre_160-29)"/><path d="M125.57,150a5.11,5.11,0,1,0,5.11-5.11A5.1,5.1,0,0,0,125.57,150Z" style="fill:url(#Degradado_sin_nombre_160-30)"/><path d="M123.83,149.11a5.17,5.17,0,1,0,5.17-5.17A5.17,5.17,0,0,0,123.83,149.11Z" style="fill:url(#Degradado_sin_nombre_160-31)"/><path d="M122.24,148a5.23,5.23,0,1,0,5.23-5.23A5.23,5.23,0,0,0,122.24,148Z" style="fill:url(#Degradado_sin_nombre_160-32)"/><path d="M120.82,146.71a5.29,5.29,0,1,0,5.29-5.29A5.29,5.29,0,0,0,120.82,146.71Z" style="fill:url(#Degradado_sin_nombre_160-33)"/><path d="M119.59,145.24a5.35,5.35,0,1,0,5.35-5.36A5.35,5.35,0,0,0,119.59,145.24Z" style="fill:url(#Degradado_sin_nombre_160-34)"/><path d="M118.56,143.61a5.42,5.42,0,1,0,5.42-5.42A5.42,5.42,0,0,0,118.56,143.61Z" style="fill:url(#Degradado_sin_nombre_160-35)"/><path d="M117.77,141.84a5.48,5.48,0,1,0,5.48-5.47A5.48,5.48,0,0,0,117.77,141.84Z" style="fill:url(#Degradado_sin_nombre_160-36)"/><path d="M117.22,140a5.54,5.54,0,1,0,5.54-5.54A5.54,5.54,0,0,0,117.22,140Z" style="fill:url(#Degradado_sin_nombre_160-37)"/><path d="M117,138a5.6,5.6,0,1,0,5.6-5.61A5.6,5.6,0,0,0,117,138Z" style="fill:url(#Degradado_sin_nombre_160-38)"/><path d="M116.88,136.05a5.66,5.66,0,1,0,5.66-5.67A5.65,5.65,0,0,0,116.88,136.05Z" style="fill:url(#Degradado_sin_nombre_160-39)"/><path d="M116.81,134.12a5.73,5.73,0,1,0,5.73-5.72A5.73,5.73,0,0,0,116.81,134.12Z" style="fill:url(#Degradado_sin_nombre_160-40)"/><path d="M116.75,132.2a5.79,5.79,0,1,0,5.79-5.79A5.79,5.79,0,0,0,116.75,132.2Z" style="fill:url(#Degradado_sin_nombre_160-41)"/><path d="M116.69,130.28a5.85,5.85,0,1,0,5.85-5.85A5.85,5.85,0,0,0,116.69,130.28Z" style="fill:url(#Degradado_sin_nombre_160-42)"/><path d="M116.63,128.35a5.91,5.91,0,1,0,5.91-5.91A5.91,5.91,0,0,0,116.63,128.35Z" style="fill:url(#Degradado_sin_nombre_160-43)"/><circle cx="122.54" cy="126.43" r="5.97" transform="translate(-25.84 31.65) rotate(-13.32)" style="fill:url(#Degradado_sin_nombre_160-44)"/><circle cx="122.54" cy="124.5" r="6.04" transform="translate(-25.4 31.6) rotate(-13.33)" style="fill:url(#Degradado_sin_nombre_160-45)"/><circle cx="122.54" cy="122.58" r="6.1" transform="translate(-24.95 31.55) rotate(-13.33)" style="fill:url(#Degradado_sin_nombre_160-46)"/><circle cx="122.54" cy="120.65" r="6.16" transform="translate(-24.51 31.5) rotate(-13.33)" style="fill:url(#Degradado_sin_nombre_160-47)"/><circle cx="122.54" cy="118.73" r="6.22" transform="translate(-24.07 31.45) rotate(-13.33)" style="fill:url(#Degradado_sin_nombre_160-48)"/><circle cx="122.54" cy="116.81" r="6.28" transform="translate(-23.63 31.4) rotate(-13.33)" style="fill:url(#Degradado_sin_nombre_160-49)"/><circle cx="122.54" cy="114.88" r="6.35" transform="translate(-23.18 31.35) rotate(-13.33)" style="fill:url(#Degradado_sin_nombre_160-50)"/><circle cx="122.54" cy="112.96" r="6.41" transform="translate(-22.74 31.3) rotate(-13.33)" style="fill:url(#Degradado_sin_nombre_160-51)"/><circle cx="122.54" cy="111.03" r="6.47" transform="translate(-22.3 31.25) rotate(-13.33)" style="fill:url(#Degradado_sin_nombre_160-52)"/><circle cx="122.54" cy="109.11" r="6.53" transform="translate(-21.86 31.19) rotate(-13.33)" style="fill:url(#Degradado_sin_nombre_160-53)"/><circle cx="122.54" cy="107.19" r="6.59" transform="translate(-21.41 31.14) rotate(-13.33)" style="fill:url(#Degradado_sin_nombre_160-54)"/><circle cx="122.54" cy="105.26" r="6.66" transform="translate(-20.97 31.09) rotate(-13.33)" style="fill:url(#Degradado_sin_nombre_160-55)"/><circle cx="122.54" cy="103.34" r="6.72" transform="translate(-20.53 31.04) rotate(-13.33)" style="fill:url(#Degradado_sin_nombre_160-56)"/><circle cx="122.54" cy="101.41" r="6.78" transform="translate(-20.09 30.99) rotate(-13.33)" style="fill:url(#Degradado_sin_nombre_160-57)"/><circle cx="122.54" cy="99.49" r="6.84" transform="translate(-19.64 30.94) rotate(-13.33)" style="fill:url(#Degradado_sin_nombre_160-58)"/><circle cx="122.54" cy="97.56" r="6.9" transform="translate(-19.2 30.89) rotate(-13.34)" style="fill:url(#Degradado_sin_nombre_160-59)"/><circle cx="122.54" cy="95.64" r="6.97" transform="translate(-18.76 30.84) rotate(-13.34)" style="fill:url(#Degradado_sin_nombre_160-60)"/><circle cx="122.54" cy="93.72" r="7.03" transform="translate(-18.31 30.79) rotate(-13.34)" style="fill:url(#Degradado_sin_nombre_160-61)"/><circle cx="122.54" cy="91.79" r="7.09" transform="translate(-17.87 30.74) rotate(-13.34)" style="fill:url(#Degradado_sin_nombre_160-62)"/><circle cx="122.54" cy="89.87" r="7.15" transform="translate(-17.43 30.7) rotate(-13.34)" style="fill:url(#Degradado_sin_nombre_160-63)"/><circle cx="122.54" cy="87.94" r="7.21" transform="translate(-16.98 30.65) rotate(-13.34)" style="fill:url(#Degradado_sin_nombre_160-64)"/><circle cx="122.54" cy="86.02" r="7.27" transform="translate(-16.54 30.6) rotate(-13.34)" style="fill:url(#Degradado_sin_nombre_160-65)"/><circle cx="122.54" cy="84.09" r="7.34" transform="translate(-16.1 30.55) rotate(-13.34)" style="fill:url(#Degradado_sin_nombre_160-66)"/><circle cx="122.54" cy="82.17" r="7.4" transform="translate(-15.65 30.5) rotate(-13.34)" style="fill:url(#Degradado_sin_nombre_160-67)"/><circle cx="122.54" cy="80.25" r="7.46" transform="translate(-15.21 30.45) rotate(-13.34)" style="fill:url(#Degradado_sin_nombre_160-68)"/><circle cx="122.54" cy="78.32" r="7.52" transform="translate(-14.77 30.4) rotate(-13.34)" style="fill:url(#Degradado_sin_nombre_160-69)"/><circle cx="122.54" cy="76.4" r="7.58" transform="translate(-14.32 30.35) rotate(-13.34)" style="fill:url(#Degradado_sin_nombre_160-70)"/><circle cx="122.54" cy="74.47" r="7.65" transform="translate(-13.88 30.3) rotate(-13.35)" style="fill:url(#Degradado_sin_nombre_160-71)"/><circle cx="122.41" cy="72.48" r="7.71" transform="translate(-13.43 30.22) rotate(-13.35)" style="fill:url(#Degradado_sin_nombre_160-72)"/><circle cx="122.01" cy="70.58" r="7.77" transform="matrix(0.97, -0.23, 0.23, 0.97, -13, 30.07)" style="fill:url(#Degradado_sin_nombre_160-73)"/><circle cx="121.36" cy="68.78" r="7.83" transform="translate(-12.6 29.87) rotate(-13.35)" style="fill:url(#Degradado_sin_nombre_160-74)"/><circle cx="120.46" cy="67.1" r="7.89" transform="translate(-12.24 29.63) rotate(-13.35)" style="fill:url(#Degradado_sin_nombre_160-75)"/><circle cx="119.35" cy="65.58" r="7.96" transform="translate(-11.92 29.33) rotate(-13.35)" style="fill:url(#Degradado_sin_nombre_160-76)"/><circle cx="118.05" cy="64.22" r="8.02" transform="translate(-11.64 29) rotate(-13.35)" style="fill:url(#Degradado_sin_nombre_160-77)"/><circle cx="116.57" cy="63.06" r="8.08" transform="translate(-11.41 28.62) rotate(-13.35)" style="fill:url(#Degradado_sin_nombre_160-78)"/><circle cx="114.94" cy="62.1" r="8.14" transform="translate(-11.24 28.22) rotate(-13.35)" style="fill:url(#Degradado_sin_nombre_160-79)"/><circle cx="113.18" cy="61.38" r="8.2" transform="translate(-11.12 27.8) rotate(-13.35)" style="fill:url(#Degradado_sin_nombre_160-80)"/><circle cx="111.3" cy="60.9" r="8.27" transform="translate(-11.06 27.35) rotate(-13.35)" style="fill:url(#Degradado_sin_nombre_160-81)"/><circle cx="109.32" cy="60.7" r="8.33" transform="translate(-11.06 26.89) rotate(-13.36)" style="fill:url(#Degradado_sin_nombre_160-82)"/><circle cx="107.32" cy="60.78" r="8.39" transform="translate(-11.14 26.44) rotate(-13.36)" style="fill:url(#Degradado_sin_nombre_160-83)"/><circle cx="105.39" cy="61.14" r="8.45" transform="translate(-11.27 26) rotate(-13.36)" style="fill:url(#Degradado_sin_nombre_160-84)"/><circle cx="103.57" cy="61.76" r="8.51" transform="translate(-11.47 25.6) rotate(-13.36)" style="fill:url(#Degradado_sin_nombre_160-85)"/><circle cx="101.88" cy="62.61" r="8.58" transform="translate(-11.71 25.24) rotate(-13.36)" style="fill:url(#Degradado_sin_nombre_160-86)"/><circle cx="100.33" cy="63.69" r="8.64" transform="translate(-12 24.91) rotate(-13.36)" style="fill:url(#Degradado_sin_nombre_160-87)"/><circle cx="98.95" cy="64.97" r="8.7" transform="translate(-12.34 24.63) rotate(-13.36)" style="fill:url(#Degradado_sin_nombre_160-88)"/><circle cx="97.76" cy="66.42" r="8.76" transform="translate(-12.7 24.39) rotate(-13.36)" style="fill:url(#Degradado_sin_nombre_160-89)"/><circle cx="96.77" cy="68.03" r="8.82" transform="translate(-13.1 24.21) rotate(-13.36)" style="fill:url(#Degradado_sin_nombre_160-90)"/><circle cx="96" cy="69.78" r="8.89" transform="translate(-13.53 24.08) rotate(-13.37)" style="fill:url(#Degradado_sin_nombre_160-91)"/><circle cx="95.49" cy="71.64" r="8.95" transform="translate(-13.97 24.02) rotate(-13.37)" style="fill:url(#Degradado_sin_nombre_160-92)"/><circle cx="95.24" cy="73.6" r="9.01" transform="translate(-14.44 24.01) rotate(-13.37)" style="fill:url(#Degradado_sin_nombre_160-93)"/><circle cx="95.22" cy="75.56" r="9.07" transform="translate(-14.89 24.06) rotate(-13.37)" style="fill:url(#Degradado_sin_nombre_160-94)"/><circle cx="95.22" cy="77.48" r="9.13" transform="translate(-15.34 24.12) rotate(-13.37)" style="fill:url(#Degradado_sin_nombre_160-95)"/><circle cx="95.22" cy="79.41" r="9.2" transform="translate(-15.78 24.17) rotate(-13.37)" style="fill:url(#Degradado_sin_nombre_160-96)"/><circle cx="95.22" cy="81.33" r="9.26" transform="translate(-16.23 24.23) rotate(-13.37)" style="fill:url(#Degradado_sin_nombre_160-97)"/><circle cx="95.22" cy="83.25" r="9.32" transform="translate(-16.67 24.28) rotate(-13.37)" style="fill:url(#Degradado_sin_nombre_160-98)"/><circle cx="95.22" cy="85.18" r="9.38" transform="translate(-17.12 24.34) rotate(-13.37)" style="fill:url(#Degradado_sin_nombre_160-99)"/><circle cx="95.22" cy="87.1" r="9.44" transform="translate(-17.57 24.39) rotate(-13.38)" style="fill:url(#Degradado_sin_nombre_160-100)"/><circle cx="95.22" cy="89.03" r="9.51" transform="translate(-18.01 24.45) rotate(-13.38)" style="fill:url(#Degradado_sin_nombre_160-101)"/><circle cx="95.22" cy="90.95" r="9.57" transform="translate(-18.46 24.5) rotate(-13.38)" style="fill:url(#Degradado_sin_nombre_160-102)"/><circle cx="95.22" cy="92.88" r="9.63" transform="translate(-18.91 24.56) rotate(-13.38)" style="fill:url(#Degradado_sin_nombre_160-103)"/><circle cx="95.22" cy="94.8" r="9.69" transform="translate(-19.35 24.61) rotate(-13.38)" style="fill:url(#Degradado_sin_nombre_160-104)"/><circle cx="95.22" cy="96.72" r="9.75" transform="translate(-19.8 24.67) rotate(-13.38)" style="fill:url(#Degradado_sin_nombre_160-105)"/><circle cx="95.22" cy="98.65" r="9.82" transform="translate(-20.25 24.72) rotate(-13.38)" style="fill:url(#Degradado_sin_nombre_160-106)"/><circle cx="95.22" cy="100.57" r="9.88" transform="translate(-20.7 24.78) rotate(-13.39)" style="fill:url(#Degradado_sin_nombre_160-107)"/><circle cx="95.22" cy="102.5" r="9.94" transform="translate(-21.14 24.83) rotate(-13.39)" style="fill:url(#Degradado_sin_nombre_160-108)"/><circle cx="95.22" cy="104.42" r="10" transform="translate(-21.59 24.89) rotate(-13.39)" style="fill:url(#Degradado_sin_nombre_160-109)"/><circle cx="95.22" cy="106.35" r="10.06" transform="translate(-22.04 24.94) rotate(-13.39)" style="fill:url(#Degradado_sin_nombre_160-110)"/><circle cx="95.22" cy="108.27" r="10.13" transform="translate(-22.49 25) rotate(-13.39)" style="fill:url(#Degradado_sin_nombre_160-111)"/><circle cx="95.22" cy="110.19" r="10.19" transform="translate(-22.93 25.05) rotate(-13.39)" style="fill:url(#Degradado_sin_nombre_160-112)"/><circle cx="95.22" cy="112.12" r="10.25" transform="translate(-23.38 25.11) rotate(-13.39)" style="fill:url(#Degradado_sin_nombre_160-113)"/><circle cx="95.22" cy="114.04" r="10.31" transform="translate(-23.83 25.16) rotate(-13.4)" style="fill:url(#Degradado_sin_nombre_160-114)"/><circle cx="95.22" cy="115.97" r="10.37" transform="translate(-24.28 25.22) rotate(-13.4)" style="fill:url(#Degradado_sin_nombre_160-115)"/><circle cx="95.22" cy="117.89" r="10.44" transform="translate(-24.73 25.28) rotate(-13.4)" style="fill:url(#Degradado_sin_nombre_160-116)"/><circle cx="95.22" cy="119.81" r="10.5" transform="translate(-25.18 25.33) rotate(-13.4)" style="fill:url(#Degradado_sin_nombre_160-117)"/><circle cx="95.22" cy="121.74" r="10.56" transform="matrix(0.97, -0.23, 0.23, 0.97, -25.63, 25.39)" style="fill:url(#Degradado_sin_nombre_160-118)"/><circle cx="95.22" cy="123.66" r="10.62" transform="translate(-26.07 25.44) rotate(-13.4)" style="fill:url(#Degradado_sin_nombre_160-119)"/><circle cx="95.22" cy="125.59" r="10.68" transform="translate(-26.52 25.5) rotate(-13.41)" style="fill:url(#Degradado_sin_nombre_160-120)"/><circle cx="95.22" cy="127.51" r="10.74" transform="translate(-26.97 25.56) rotate(-13.41)" style="fill:url(#Degradado_sin_nombre_160-121)"/><circle cx="95.22" cy="129.44" r="10.81" transform="translate(-27.42 25.61) rotate(-13.41)" style="fill:url(#Degradado_sin_nombre_160-122)"/><circle cx="95.22" cy="131.36" r="10.87" transform="translate(-27.87 25.67) rotate(-13.41)" style="fill:url(#Degradado_sin_nombre_160-123)"/><circle cx="95.22" cy="133.28" r="10.93" transform="translate(-28.32 25.72) rotate(-13.41)" style="fill:url(#Degradado_sin_nombre_160-124)"/><circle cx="95.22" cy="135.21" r="10.99" transform="translate(-28.77 25.78) rotate(-13.42)" style="fill:url(#Degradado_sin_nombre_160-125)"/><circle cx="95.22" cy="137.13" r="11.05" transform="translate(-29.22 25.84) rotate(-13.42)" style="fill:url(#Degradado_sin_nombre_160-126)"/><circle cx="95.13" cy="139.12" r="11.12" transform="translate(-29.69 25.87) rotate(-13.42)" style="fill:url(#Degradado_sin_nombre_160-127)"/><circle cx="94.76" cy="141.04" r="11.18" transform="translate(-30.15 25.85) rotate(-13.42)" style="fill:url(#Degradado_sin_nombre_160-128)"/><circle cx="94.13" cy="142.85" r="11.24" transform="translate(-30.59 25.75) rotate(-13.42)" style="fill:url(#Degradado_sin_nombre_160-129)"/><circle cx="93.27" cy="144.54" r="11.3" transform="translate(-31.01 25.6) rotate(-13.43)" style="fill:url(#Degradado_sin_nombre_160-130)"/><circle cx="92.18" cy="146.09" r="11.36" transform="translate(-31.4 25.4) rotate(-13.43)" style="fill:url(#Degradado_sin_nombre_160-131)"/><circle cx="90.9" cy="147.46" r="11.43" transform="translate(-31.76 25.15) rotate(-13.43)" style="fill:url(#Degradado_sin_nombre_160-132)"/><circle cx="89.45" cy="148.65" r="11.49" transform="translate(-32.08 24.84) rotate(-13.43)" style="fill:url(#Degradado_sin_nombre_160-133)"/><circle cx="87.83" cy="149.64" r="11.55" transform="translate(-32.36 24.5) rotate(-13.43)" style="fill:url(#Degradado_sin_nombre_160-134)"/><circle cx="86.08" cy="150.39" r="11.61" transform="translate(-32.59 24.12) rotate(-13.44)" style="fill:url(#Degradado_sin_nombre_160-135)"/><circle cx="84.22" cy="150.9" r="11.67" transform="translate(-32.76 23.7) rotate(-13.44)" style="fill:url(#Degradado_sin_nombre_160-136)"/><circle cx="82.25" cy="151.14" r="11.74" transform="translate(-32.88 23.26) rotate(-13.44)" style="fill:url(#Degradado_sin_nombre_160-137)"/><circle cx="80.24" cy="151.1" r="11.8" transform="translate(-32.93 22.8) rotate(-13.44)" style="fill:url(#Degradado_sin_nombre_160-138)"/><circle cx="78.31" cy="150.77" r="11.86" transform="translate(-32.91 22.34) rotate(-13.45)" style="fill:url(#Degradado_sin_nombre_160-139)"/><circle cx="76.48" cy="150.18" r="11.92" transform="translate(-32.83 21.9) rotate(-13.45)" style="fill:url(#Degradado_sin_nombre_160-140)"/><circle cx="74.77" cy="149.35" r="11.98" transform="translate(-32.69 21.49) rotate(-13.45)" style="fill:url(#Degradado_sin_nombre_160-141)"/><circle cx="73.2" cy="148.3" r="12.05" transform="translate(-32.5 21.1) rotate(-13.45)" style="fill:url(#Degradado_sin_nombre_160-142)"/><circle cx="71.8" cy="147.05" r="12.11" transform="translate(-32.25 20.74) rotate(-13.46)" style="fill:url(#Degradado_sin_nombre_160-143)"/><circle cx="70.57" cy="145.62" r="12.17" transform="translate(-31.95 20.43) rotate(-13.46)" style="fill:url(#Degradado_sin_nombre_160-144)"/><circle cx="69.56" cy="144.03" r="12.23" transform="translate(-31.62 20.15) rotate(-13.46)" style="fill:url(#Degradado_sin_nombre_160-145)"/><circle cx="68.77" cy="142.3" r="12.29" transform="translate(-31.24 19.92) rotate(-13.46)" style="fill:url(#Degradado_sin_nombre_160-146)"/><circle cx="68.22" cy="140.45" r="12.36" transform="translate(-30.83 19.75) rotate(-13.47)" style="fill:url(#Degradado_sin_nombre_160-147)"/><circle cx="67.94" cy="138.5" r="12.42" transform="translate(-30.39 19.64) rotate(-13.47)" style="fill:url(#Degradado_sin_nombre_160-148)"/><circle cx="67.9" cy="136.53" r="12.48" transform="translate(-29.94 19.58) rotate(-13.47)" style="fill:url(#Degradado_sin_nombre_160-149)"/><circle cx="67.9" cy="134.61" r="12.54" transform="translate(-29.5 19.53) rotate(-13.48)" style="fill:url(#Degradado_sin_nombre_160-150)"/><circle cx="67.9" cy="132.68" r="12.6" transform="translate(-29.06 19.48) rotate(-13.48)" style="fill:url(#Degradado_sin_nombre_160-151)"/><circle cx="67.9" cy="130.76" r="12.67" transform="translate(-28.62 19.44) rotate(-13.48)" style="fill:url(#Degradado_sin_nombre_160-152)"/><circle cx="67.9" cy="128.83" r="12.73" transform="translate(-28.17 19.39) rotate(-13.49)" style="fill:url(#Degradado_sin_nombre_160-153)"/><circle cx="67.9" cy="126.91" r="12.79" transform="translate(-27.73 19.34) rotate(-13.49)" style="fill:url(#Degradado_sin_nombre_160-154)"/><circle cx="67.9" cy="124.99" r="12.85" transform="translate(-27.29 19.29) rotate(-13.49)" style="fill:url(#Degradado_sin_nombre_160-155)"/><circle cx="67.9" cy="123.06" r="12.91" transform="translate(-26.85 19.25) rotate(-13.5)" style="fill:url(#Degradado_sin_nombre_160-156)"/><circle cx="67.9" cy="121.14" r="12.98" transform="translate(-26.4 19.2) rotate(-13.5)" style="fill:url(#Degradado_sin_nombre_160-157)"/><circle cx="67.9" cy="119.21" r="13.04" transform="translate(-25.96 19.15) rotate(-13.5)" style="fill:url(#Degradado_sin_nombre_160-158)"/><circle cx="67.9" cy="117.29" r="13.1" transform="translate(-25.52 19.1) rotate(-13.51)" style="fill:url(#Degradado_sin_nombre_160-159)"/><circle cx="67.9" cy="115.36" r="13.16" transform="translate(-25.08 19.06) rotate(-13.51)" style="fill:url(#Degradado_sin_nombre_160-160)"/><circle cx="67.9" cy="113.44" r="13.22" transform="translate(-24.63 19.01) rotate(-13.52)" style="fill:url(#Degradado_sin_nombre_160-161)"/><circle cx="67.9" cy="111.52" r="13.29" transform="translate(-24.19 18.96) rotate(-13.52)" style="fill:url(#Degradado_sin_nombre_160-162)"/><circle cx="67.9" cy="109.59" r="13.35" transform="translate(-23.75 18.92) rotate(-13.52)" style="fill:url(#Degradado_sin_nombre_160-163)"/><circle cx="67.9" cy="107.67" r="13.41" transform="translate(-23.3 18.87) rotate(-13.53)" style="fill:url(#Degradado_sin_nombre_160-164)"/><circle cx="67.9" cy="105.74" r="13.47" transform="translate(-22.86 18.83) rotate(-13.53)" style="fill:url(#Degradado_sin_nombre_160-165)"/><circle cx="67.9" cy="103.82" r="13.53" transform="translate(-22.42 18.78) rotate(-13.54)" style="fill:url(#Degradado_sin_nombre_160-166)"/><circle cx="67.9" cy="101.89" r="13.6" transform="translate(-21.97 18.73) rotate(-13.54)" style="fill:url(#Degradado_sin_nombre_160-167)"/><circle cx="67.9" cy="99.97" r="13.66" transform="translate(-21.53 18.69) rotate(-13.55)" style="fill:url(#Degradado_sin_nombre_160-168)"/><circle cx="67.9" cy="98.05" r="13.72" transform="translate(-21.08 18.64) rotate(-13.55)" style="fill:url(#Degradado_sin_nombre_160-169)"/><circle cx="67.9" cy="96.12" r="13.78" transform="translate(-20.64 18.6) rotate(-13.56)" style="fill:url(#Degradado_sin_nombre_160-170)"/><circle cx="67.9" cy="94.2" r="13.84" transform="translate(-20.2 18.55) rotate(-13.56)" style="fill:url(#Degradado_sin_nombre_160-171)"/><circle cx="67.9" cy="92.27" r="13.91" transform="translate(-19.75 18.5) rotate(-13.57)" style="fill:url(#Degradado_sin_nombre_160-172)"/><circle cx="67.9" cy="90.35" r="13.97" transform="translate(-19.31 18.46) rotate(-13.57)" style="fill:url(#Degradado_sin_nombre_160-173)"/><circle cx="67.9" cy="88.43" r="14.03" transform="translate(-18.86 18.41) rotate(-13.58)" style="fill:url(#Degradado_sin_nombre_160-174)"/><circle cx="67.9" cy="86.5" r="14.09" transform="translate(-18.42 18.37) rotate(-13.59)" style="fill:url(#Degradado_sin_nombre_160-175)"/><circle cx="67.9" cy="84.58" r="14.15" transform="translate(-17.97 18.33) rotate(-13.59)" style="fill:url(#Degradado_sin_nombre_160-176)"/><circle cx="67.9" cy="82.65" r="14.22" transform="translate(-17.53 18.28) rotate(-13.6)" style="fill:url(#Degradado_sin_nombre_160-177)"/><circle cx="67.9" cy="80.73" r="14.28" transform="translate(-17.08 18.24) rotate(-13.6)" style="fill:url(#Degradado_sin_nombre_160-178)"/><circle cx="67.9" cy="78.8" r="14.34" transform="translate(-16.64 18.19) rotate(-13.61)" style="fill:url(#Degradado_sin_nombre_160-179)"/><circle cx="67.9" cy="76.88" r="14.4" transform="translate(-16.19 18.15) rotate(-13.62)" style="fill:url(#Degradado_sin_nombre_160-180)"/><circle cx="67.9" cy="74.96" r="14.46" transform="translate(-15.75 18.11) rotate(-13.63)" style="fill:url(#Degradado_sin_nombre_160-181)"/><circle cx="67.9" cy="73.03" r="14.52" transform="translate(-15.3 18.06) rotate(-13.63)" style="fill:url(#Degradado_sin_nombre_160-182)"/><circle cx="67.9" cy="71.11" r="14.59" transform="translate(-14.85 18.02) rotate(-13.64)" style="fill:url(#Degradado_sin_nombre_160-183)"/><circle cx="67.9" cy="69.18" r="14.65" transform="translate(-14.41 17.98) rotate(-13.65)" style="fill:url(#Degradado_sin_nombre_160-184)"/><circle cx="67.9" cy="67.26" r="14.71" transform="translate(-13.96 17.93) rotate(-13.66)" style="fill:url(#Degradado_sin_nombre_160-185)"/><circle cx="67.9" cy="65.34" r="14.77" transform="translate(-13.51 17.89) rotate(-13.67)" style="fill:url(#Degradado_sin_nombre_160-186)"/><circle cx="67.9" cy="63.41" r="14.83" transform="translate(-13.07 17.85) rotate(-13.67)" style="fill:url(#Degradado_sin_nombre_160-187)"/><circle cx="67.9" cy="61.49" r="14.9" transform="translate(-12.62 17.81) rotate(-13.68)" style="fill:url(#Degradado_sin_nombre_160-188)"/><circle cx="67.9" cy="59.56" r="14.96" transform="translate(-12.17 17.77) rotate(-13.69)" style="fill:url(#Degradado_sin_nombre_160-189)"/><circle cx="67.9" cy="57.64" r="15.02" transform="translate(-11.72 17.73) rotate(-13.7)" style="fill:url(#Degradado_sin_nombre_160-190)"/><circle cx="67.9" cy="55.71" r="15.08" transform="translate(-11.27 17.69) rotate(-13.71)" style="fill:url(#Degradado_sin_nombre_160-191)"/><circle cx="67.9" cy="53.79" r="15.14" transform="translate(-10.82 17.65) rotate(-13.73)" style="fill:url(#Degradado_sin_nombre_160-192)"/><circle cx="67.9" cy="51.87" r="15.21" transform="translate(-10.37 17.61) rotate(-13.74)" style="fill:url(#Degradado_sin_nombre_160-193)"/><circle cx="67.9" cy="49.94" r="15.27" transform="translate(-9.92 17.57) rotate(-13.75)" style="fill:url(#Degradado_sin_nombre_160-194)"/><circle cx="67.9" cy="48.02" r="15.33" transform="translate(-9.47 17.53) rotate(-13.76)" style="fill:url(#Degradado_sin_nombre_160-195)"/><circle cx="67.9" cy="46.09" r="15.39" transform="translate(-9.02 17.49) rotate(-13.77)" style="fill:url(#Degradado_sin_nombre_160-196)"/><circle cx="67.9" cy="44.17" r="15.45" transform="translate(-8.57 17.46) rotate(-13.79)" style="fill:url(#Degradado_sin_nombre_160-197)"/><circle cx="67.9" cy="42.24" r="15.52" transform="translate(-8.12 17.42) rotate(-13.8)" style="fill:url(#Degradado_sin_nombre_160-198)"/><circle cx="67.9" cy="40.32" r="15.58" transform="translate(-7.66 17.38) rotate(-13.82)" style="fill:url(#Degradado_sin_nombre_160-199)"/><circle cx="67.9" cy="38.4" r="15.64" transform="translate(-7.21 17.35) rotate(-13.83)" style="fill:url(#Degradado_sin_nombre_160-200)"/><circle cx="67.9" cy="36.47" r="15.7" transform="translate(-6.76 17.31) rotate(-13.85)" style="fill:url(#Degradado_sin_nombre_160-201)"/><circle cx="67.88" cy="34.51" r="15.76" transform="translate(-6.29 17.27) rotate(-13.87)" style="fill:url(#Degradado_sin_nombre_160-202)"/><circle cx="67.63" cy="32.55" r="15.83" transform="translate(-5.84 17.18) rotate(-13.89)" style="fill:url(#Degradado_sin_nombre_160-203)"/><circle cx="67.11" cy="30.69" r="15.89" transform="translate(-5.41 17.03) rotate(-13.91)" style="fill:url(#Degradado_sin_nombre_160-204)"/><circle cx="66.35" cy="28.94" r="15.95" transform="translate(-5.02 16.82) rotate(-13.93)" style="fill:url(#Degradado_sin_nombre_160-205)"/><circle cx="65.36" cy="27.33" r="16.01" transform="translate(-4.66 16.56) rotate(-13.95)" style="fill:url(#Degradado_sin_nombre_160-206)"/><circle cx="64.16" cy="25.88" r="16.07" style="fill:url(#Degradado_sin_nombre_160-207)"/><circle cx="62.78" cy="24.61" r="16.14" style="fill:url(#Degradado_sin_nombre_160-208)"/><circle cx="61.23" cy="23.53" r="16.2" style="fill:url(#Degradado_sin_nombre_160-209)"/><circle cx="59.53" cy="22.68" r="16.26" style="fill:url(#Degradado_sin_nombre_160-210)"/><circle cx="57.72" cy="22.06" r="16.32" style="fill:url(#Degradado_sin_nombre_160-211)"/><circle cx="55.79" cy="21.7" r="16.38" style="fill:url(#Degradado_sin_nombre_160-212)"/><circle cx="53.79" cy="21.62" r="16.45" style="fill:url(#Degradado_sin_nombre_160-213)"/><circle cx="51.81" cy="21.83" r="16.51" style="fill:url(#Degradado_sin_nombre_160-214)"/><circle cx="49.93" cy="22.31" r="16.57" style="fill:url(#Degradado_sin_nombre_160-215)"/><circle cx="48.17" cy="23.03" r="16.63" style="fill:url(#Degradado_sin_nombre_160-216)"/><circle cx="46.54" cy="23.99" r="16.69" style="fill:url(#Degradado_sin_nombre_160-217)"/><circle cx="45.06" cy="25.16" r="16.76" style="fill:url(#Degradado_sin_nombre_160-218)"/><circle cx="43.76" cy="26.51" r="16.82" style="fill:url(#Degradado_sin_nombre_160-219)"/><circle cx="42.65" cy="28.04" r="16.88" style="fill:url(#Degradado_sin_nombre_160-220)"/><circle cx="41.76" cy="29.71" r="16.94" style="fill:url(#Degradado_sin_nombre_160-221)"/><circle cx="41.1" cy="31.51" r="17" style="fill:url(#Degradado_sin_nombre_160-222)"/><circle cx="40.7" cy="33.42" r="17.07" style="fill:url(#Degradado_sin_nombre_160-223)"/><circle cx="40.58" cy="35.41" r="17.13" style="fill:url(#Degradado_sin_nombre_160-224)"/><circle cx="40.58" cy="37.34" r="17.19" style="fill:url(#Degradado_sin_nombre_160-225)"/><circle cx="40.58" cy="39.26" r="17.25" style="fill:url(#Degradado_sin_nombre_160-226)"/><circle cx="40.58" cy="41.18" r="17.31" style="fill:url(#Degradado_sin_nombre_160-227)"/><circle cx="40.58" cy="43.11" r="17.38" style="fill:url(#Degradado_sin_nombre_160-228)"/><circle cx="40.58" cy="45.03" r="17.44" style="fill:url(#Degradado_sin_nombre_160-229)"/><circle cx="40.58" cy="46.96" r="17.5" style="fill:url(#Degradado_sin_nombre_160-230)"/><circle cx="40.58" cy="48.88" r="17.56" style="fill:url(#Degradado_sin_nombre_160-231)"/><circle cx="40.58" cy="50.8" r="17.62" style="fill:url(#Degradado_sin_nombre_160-232)"/><circle cx="40.58" cy="52.73" r="17.69" style="fill:url(#Degradado_sin_nombre_160-233)"/><circle cx="40.58" cy="54.65" r="17.75" style="fill:url(#Degradado_sin_nombre_160-234)"/><circle cx="40.58" cy="56.58" r="17.81" style="fill:url(#Degradado_sin_nombre_160-235)"/><circle cx="40.58" cy="58.5" r="17.87" style="fill:url(#Degradado_sin_nombre_160-236)"/><circle cx="40.58" cy="60.43" r="17.93" style="fill:url(#Degradado_sin_nombre_160-237)"/><circle cx="40.58" cy="62.35" r="17.99" style="fill:url(#Degradado_sin_nombre_160-238)"/><circle cx="40.58" cy="64.27" r="18.06" style="fill:url(#Degradado_sin_nombre_160-239)"/><circle cx="40.58" cy="66.2" r="18.12" style="fill:url(#Degradado_sin_nombre_160-240)"/><circle cx="40.58" cy="68.12" r="18.18" style="fill:url(#Degradado_sin_nombre_160-241)"/><path d="M141.86,181.43H131.23a3.12,3.12,0,1,1,0-6.23h7.51V148.31a3.12,3.12,0,1,1,6.23,0v30A3.12,3.12,0,0,1,141.86,181.43Z" style="fill:#f6ce2e"/><path d="M143.14,154.72v22A3.11,3.11,0,0,1,140,179.8H129.4a2.88,2.88,0,0,1-1-.17,3.09,3.09,0,0,0,2.81,1.8h10.63a3.12,3.12,0,0,0,3.11-3.12V153.77A9.89,9.89,0,0,1,143.14,154.72Z" style="fill:#eb9915"/><g style="opacity:0.39;mix-blend-mode:multiply"><path d="M145.67,138.11a4,4,0,0,0-.25,1.25,4.83,4.83,0,0,1,1.16-.31,4.87,4.87,0,0,1,1.14-.5,4.41,4.41,0,0,1,1.08-.66,4.6,4.6,0,0,1,1-.79,4.51,4.51,0,0,1,.87-.93,4.43,4.43,0,0,1,.73-1A4.31,4.31,0,0,1,152,134a4.18,4.18,0,0,1,.43-1.26,4.16,4.16,0,0,1,.26-1.36,3.87,3.87,0,0,1,0-.49,4.26,4.26,0,0,1,.16-1.07,4,4,0,0,1-.1-.86,4.12,4.12,0,0,1,.16-1.06,4.12,4.12,0,0,1-.09-.86,4.19,4.19,0,0,1,.15-1.07,4,4,0,0,1-.09-.86,4.12,4.12,0,0,1,.16-1.06,4.12,4.12,0,0,1-.1-.86,4.19,4.19,0,0,1,.16-1.07,4,4,0,0,1-.1-.86,3.73,3.73,0,0,1,.17-1.06,3.49,3.49,0,0,1-.11-.86,3.86,3.86,0,0,1,.17-1.07,4,4,0,0,1-.1-.85,3.74,3.74,0,0,1,.17-1.07,3.49,3.49,0,0,1-.11-.86,3.73,3.73,0,0,1,.17-1.06,4.13,4.13,0,0,1-.11-.86,3.61,3.61,0,0,1,.14-.93v0a3.48,3.48,0,0,0-.18-1.07,3.42,3.42,0,0,0,.12-.85,3.17,3.17,0,0,0-.19-1.07,3.09,3.09,0,0,0,.13-.86,3.31,3.31,0,1,0-6.62,0,3.09,3.09,0,0,0,.13.86,3.17,3.17,0,0,0-.19,1.07,3.42,3.42,0,0,0,.12.85,3.21,3.21,0,0,0-.06,1.93,3.3,3.3,0,0,0-.07,1.92,3.75,3.75,0,0,0-.18,1.07,3.5,3.5,0,0,0,.12.86,3.42,3.42,0,0,0-.18,1.06,4,4,0,0,0,.11.86,3.74,3.74,0,0,0-.17,1.07,3.41,3.41,0,0,0,.11.85,3.8,3.8,0,0,0-.17,1.07,3.49,3.49,0,0,0,.11.86,3.74,3.74,0,0,0-.17,1.07,4,4,0,0,0,.1.85,3.8,3.8,0,0,0-.17,1.07,3.49,3.49,0,0,0,.11.86,3.73,3.73,0,0,0-.17,1.06,4,4,0,0,0,.1.86,4.19,4.19,0,0,0-.16,1.07,4.12,4.12,0,0,0,.1.86,3.73,3.73,0,0,0-.16,1.06,4,4,0,0,0,.09.86,4.13,4.13,0,0,0-.15,1.07,4,4,0,0,0,.09.85,4.26,4.26,0,0,0-.16,1.07,4.82,4.82,0,0,0,.09.86,4.19,4.19,0,0,0-.15,1.07A3.87,3.87,0,0,0,145.67,138.11Z" style="fill:#ab3081"/><path d="M86.46,71c0,.3,0,.62,0,.92,0,.13,0,.26,0,.39,0,.52,0,1-.08,1.53,0,.13,0,.26,0,.39a12.85,12.85,0,0,1-.08,1.53c0,.13,0,.26,0,.4,0,.51,0,1-.08,1.52,0,.14,0,.27,0,.4a15.16,15.16,0,0,1-.08,1.52c0,.14,0,.27,0,.4,0,.52,0,1-.08,1.53,0,.13,0,.26,0,.4A12.79,12.79,0,0,1,86,83.41c0,.13,0,.27,0,.4A12.66,12.66,0,0,1,86,85.33c0,.14,0,.27,0,.41a15.11,15.11,0,0,1-.08,1.51c0,.14,0,.27,0,.41a15.11,15.11,0,0,1-.08,1.51c0,.14,0,.28,0,.42a14.91,14.91,0,0,1-.08,1.5c0,.14,0,.28,0,.42a12.33,12.33,0,0,1-.09,1.5c0,.14,0,.28,0,.42a14.74,14.74,0,0,1-.09,1.5c0,.15,0,.28,0,.43a14.72,14.72,0,0,1-.08,1.49c0,.15,0,.29,0,.43a14.56,14.56,0,0,1-.08,1.49c0,.15,0,.29,0,.44a14.72,14.72,0,0,1-.08,1.49c0,.14,0,.28,0,.43a12.29,12.29,0,0,1-.09,1.49c0,.14,0,.29,0,.44a14.52,14.52,0,0,1-.09,1.48c0,.15,0,.29,0,.44a14.52,14.52,0,0,1-.08,1.48c0,.15,0,.29,0,.44a14.52,14.52,0,0,1-.08,1.48c0,.15,0,.3,0,.45a11.84,11.84,0,0,1-.09,1.47c0,.15,0,.3,0,.45a11.84,11.84,0,0,1-.09,1.47c0,.15,0,.3,0,.46a14.13,14.13,0,0,1-.09,1.46c0,.16,0,.31,0,.46a14,14,0,0,1-.08,1.46c0,.16,0,.31,0,.46a14,14,0,0,1-.08,1.46c0,.16,0,.31,0,.47a11.8,11.8,0,0,1-.09,1.46c0,.15,0,.31,0,.46a11.68,11.68,0,0,1-.09,1.46c0,.15,0,.31,0,.47a13.93,13.93,0,0,1-.09,1.45c0,.16,0,.31,0,.47a13.94,13.94,0,0,1-.08,1.45c0,.16,0,.31,0,.48a13.74,13.74,0,0,1-.08,1.44c0,.16,0,.32,0,.48a11.36,11.36,0,0,1-.09,1.44c0,.16,0,.32,0,.48a13.57,13.57,0,0,1-.09,1.44c0,.16,0,.32,0,.49a13.55,13.55,0,0,1-.09,1.43c0,.17,0,.33,0,.49a13.41,13.41,0,0,1-.08,1.43c0,.17,0,.33,0,.5a11,11,0,0,1-.09,1.42c0,.17,0,.33,0,.5,0,.42,0,.83-.06,1.24,0,.07,0,.14,0,.21s0,.2,0,.29,0,.13.07.2a.61.61,0,0,1,.07.14,2.27,2.27,0,0,1,.18.25l.06.07a2.43,2.43,0,0,1,.25.2l.09.06.3.14.21,0,.28,0h.36l.18,0,.35-.11.19-.09.31-.2.2-.18c.07-.09,3.18-8.08,3.26-8.16s.13-.23.2-.33a2.56,2.56,0,0,0,.11-.24c0-.13.07-.26.12-.38s0-.21,0-.32v-.15a10.09,10.09,0,0,1,.09-1.35c0-.19,0-.38,0-.57a11.92,11.92,0,0,1,.09-1.35c0-.19,0-.38,0-.58a11.9,11.9,0,0,1,.09-1.34c0-.19,0-.38,0-.58a11.9,11.9,0,0,1,.09-1.34c0-.2,0-.39,0-.58a9.83,9.83,0,0,1,.1-1.34c0-.2,0-.39,0-.59a9.8,9.8,0,0,1,.09-1.33c0-.2,0-.39,0-.59a11.57,11.57,0,0,1,.09-1.33c0-.2,0-.4,0-.6a11.72,11.72,0,0,1,.09-1.33c0-.19,0-.39,0-.59a11.72,11.72,0,0,1,.09-1.33c0-.2,0-.39,0-.59a9.8,9.8,0,0,1,.1-1.33c0-.2,0-.4,0-.6a9.54,9.54,0,0,1,.09-1.32c0-.2,0-.4,0-.6a11.4,11.4,0,0,1,.09-1.32c0-.2,0-.4,0-.61A11.37,11.37,0,0,1,92,106c0-.2,0-.41,0-.61a9.39,9.39,0,0,1,.1-1.31c0-.21,0-.41,0-.62a9.36,9.36,0,0,1,.1-1.3c0-.21,0-.41,0-.62a9.25,9.25,0,0,1,.09-1.3c0-.21,0-.41,0-.62a10.9,10.9,0,0,1,.09-1.3c0-.21,0-.42,0-.63a11.2,11.2,0,0,1,.09-1.3c0-.2,0-.41,0-.62a9.36,9.36,0,0,1,.1-1.3c0-.21,0-.41,0-.63a9.22,9.22,0,0,1,.1-1.29q0-.32,0-.63a9.11,9.11,0,0,1,.09-1.29c0-.21,0-.42,0-.63a10.88,10.88,0,0,1,.09-1.29c0-.21,0-.42,0-.64a10.86,10.86,0,0,1,.09-1.28c0-.21,0-.43,0-.64a9,9,0,0,1,.1-1.28c0-.22,0-.43,0-.65a8.94,8.94,0,0,1,.1-1.27c0-.22,0-.43,0-.65A8.83,8.83,0,0,1,92.78,81c0-.22,0-.44,0-.66a10.38,10.38,0,0,1,.09-1.26c0-.22,0-.44,0-.66a10.69,10.69,0,0,1,.09-1.27c0-.21,0-.43,0-.65a8.94,8.94,0,0,1,.1-1.27c0-.22,0-.43,0-.66a8.8,8.8,0,0,1,.1-1.26q0-.33,0-.66a8.69,8.69,0,0,1,.09-1.26c0-.22,0-.44,0-.67a10.36,10.36,0,0,1,.09-1.25c0-.22,0-.44,0-.67a10.25,10.25,0,0,1,.11-1.36c0-.2,0-.4,0-.6a9.09,9.09,0,0,1,.33-2.4,9.07,9.07,0,0,1,.73-3.13,8.64,8.64,0,0,1,1.15-2.94A8.81,8.81,0,0,1,97,55.64l0-.06a5.61,5.61,0,0,0-.55.41,8.69,8.69,0,0,0-2.4,1.8A8.68,8.68,0,0,0,91.83,60,20.58,20.58,0,0,0,86.67,70.1C86.5,70.31,86.61,70.73,86.46,71Z" style="fill:#ab3081"/><path d="M150,147.74a4.85,4.85,0,0,1-2.44.84,4.8,4.8,0,0,1-2.18.52l-.43,0a5,5,0,0,1-1.55.25,4.66,4.66,0,0,1-1.13-.14,4.94,4.94,0,0,1-.87.08,5.08,5.08,0,0,1-1.79-.33h-.12a5,5,0,0,1-2.44-.63,5.09,5.09,0,0,1-2.41-1,5.2,5.2,0,0,1-2.24-1.29,5.21,5.21,0,0,1-2-1.58,5.37,5.37,0,0,1-1.8-1.84,5.22,5.22,0,0,1-1.56-2.12,5.39,5.39,0,0,1-1.25-2.3,5.51,5.51,0,0,1-.94-2.55,5.38,5.38,0,0,1-.58-2.44c0-.07,0-.14,0-.21a5.74,5.74,0,0,1-.28-1.76,4.77,4.77,0,0,1,.06-.76,5.17,5.17,0,0,1-.13-1.19,6.33,6.33,0,0,1,.05-.76,6.42,6.42,0,0,1-.11-1.16,6.33,6.33,0,0,1,0-.76,5.66,5.66,0,0,1-.12-1.17,6.32,6.32,0,0,1,.06-.76,5.5,5.5,0,0,1-.12-1.16,4.77,4.77,0,0,1,.06-.76,5.66,5.66,0,0,1-.12-1.17,6.16,6.16,0,0,1,.05-.75,6.45,6.45,0,0,1-.11-1.17,6.33,6.33,0,0,1,0-.76,6.45,6.45,0,0,1-.11-1.17,6.3,6.3,0,0,1,0-.75,5.66,5.66,0,0,1-.12-1.17,4.77,4.77,0,0,1,.06-.76,5.57,5.57,0,0,1-.12-1.16,6.33,6.33,0,0,1,.05-.76,6.45,6.45,0,0,1-.11-1.17,6.33,6.33,0,0,1,0-.76,6.25,6.25,0,0,1-.11-1.16,6.33,6.33,0,0,1,0-.76,6.45,6.45,0,0,1-.11-1.17,6.3,6.3,0,0,1,0-.75,6.45,6.45,0,0,1-.12-1.17,6.33,6.33,0,0,1,.05-.76,6.45,6.45,0,0,1-.11-1.17,6.3,6.3,0,0,1,0-.75,6.45,6.45,0,0,1-.11-1.17,6.33,6.33,0,0,1,0-.76,6.34,6.34,0,0,1-.11-1.16c0-.26,0-.51,0-.76a7.49,7.49,0,0,1-.1-1.17,6.17,6.17,0,0,1,0-.75,7.48,7.48,0,0,1-.11-1.17,6.33,6.33,0,0,1,0-.76,6.45,6.45,0,0,1-.11-1.17,6.3,6.3,0,0,1,0-.75,6.45,6.45,0,0,1-.11-1.17c0-.26,0-.51,0-.76a7.46,7.46,0,0,1-.1-1.16,6.34,6.34,0,0,1,0-.76,7.49,7.49,0,0,1-.1-1.17,6.45,6.45,0,0,1,0-.76,7.36,7.36,0,0,1-.11-1.16,6.33,6.33,0,0,1,0-.76,6.45,6.45,0,0,1-.11-1.17c0-.25,0-.51,0-.75a7.49,7.49,0,0,1-.1-1.17c0-.26,0-.51,0-.76a7.49,7.49,0,0,1-.1-1.17,6.28,6.28,0,0,1,0-.75,7.49,7.49,0,0,1-.1-1.17,6.34,6.34,0,0,1,0-.76,7.47,7.47,0,0,1-.11-1.16c0-.26,0-.51,0-.76a7.49,7.49,0,0,1-.1-1.17c0-.25,0-.51,0-.75a7.59,7.59,0,0,1-.1-1.17,6.34,6.34,0,0,1,0-.76,7.49,7.49,0,0,1-.1-1.17,6.28,6.28,0,0,1,0-.75,7.49,7.49,0,0,1-.1-1.17q0-.37,0-.75a7.49,7.49,0,0,1-.1-1.17c0-.09,0-.18,0-.27a6.47,6.47,0,0,1-.15-.88,6,6,0,0,1-.25-.75,7,7,0,0,1-.38-.78,6.25,6.25,0,0,1-.4-.6q-.3-.3-.57-.63c-.19-.15-.39-.31-.57-.48a7.48,7.48,0,0,1-.66-.43,7.84,7.84,0,0,1-.72-.32c-.24-.06-.48-.13-.71-.21s-.55-.07-.83-.12h-.72c-.26.05-.54.09-.81.12s-.44.14-.67.19-.44.22-.67.32-.39.25-.59.37-.33.3-.51.44a6.17,6.17,0,0,1-.48.54,6.06,6.06,0,0,1-.35.53,6.72,6.72,0,0,1-.32.66c-.06.21-.12.41-.19.61s-.07.47-.11.69v.12c0,.27,0,.54,0,.8a8.92,8.92,0,0,1,.08,1.16c0,.18,0,.36,0,.54.22.11.45.22.68.31s.44.29.67.42a6.68,6.68,0,0,0,.57.49c.18.22.37.43.56.63s.27.41.41.6a7,7,0,0,0,.38.78q.1.39.24.75a8.52,8.52,0,0,0,.16.88,2.46,2.46,0,0,0,0,.26,7.51,7.51,0,0,0,.1,1.18q0,.38,0,.75a7.49,7.49,0,0,0,.1,1.17,6.28,6.28,0,0,0,0,.75,7.49,7.49,0,0,0,.1,1.17,6.34,6.34,0,0,0,0,.76,7.46,7.46,0,0,0,.1,1.16,6.45,6.45,0,0,0,0,.76,7.49,7.49,0,0,0,.1,1.17c0,.25,0,.5,0,.76a7.46,7.46,0,0,0,.1,1.16c0,.25,0,.5,0,.76a7.49,7.49,0,0,0,.1,1.17,6.28,6.28,0,0,0,0,.75,7.49,7.49,0,0,0,.1,1.17,6.34,6.34,0,0,0,0,.76,7.36,7.36,0,0,0,.1,1.16c0,.25,0,.51,0,.76a6.45,6.45,0,0,0,.11,1.17,6.33,6.33,0,0,0,0,.76,6.42,6.42,0,0,0,.11,1.16,6.34,6.34,0,0,0,0,.76,7.49,7.49,0,0,0,.1,1.17,6.28,6.28,0,0,0,0,.75,7.49,7.49,0,0,0,.1,1.17c0,.25,0,.5,0,.76a6.45,6.45,0,0,0,.11,1.17,6.16,6.16,0,0,0,0,.75,6.45,6.45,0,0,0,.11,1.17,6,6,0,0,0,.06,1.92,6.33,6.33,0,0,0-.05.76,7.48,7.48,0,0,0,.11,1.17c0,.25,0,.5,0,.76a6.42,6.42,0,0,0,.11,1.16,6.33,6.33,0,0,0,0,.76,6.45,6.45,0,0,0,.11,1.17,6.3,6.3,0,0,0-.05.75,6.45,6.45,0,0,0,.11,1.17,6.33,6.33,0,0,0-.05.76,6.45,6.45,0,0,0,.11,1.17,6.16,6.16,0,0,0,0,.75,6.45,6.45,0,0,0,.12,1.17,6,6,0,0,0,.06,1.92,6.33,6.33,0,0,0-.05.76,6.45,6.45,0,0,0,.11,1.17,6.3,6.3,0,0,0-.05.75,6.45,6.45,0,0,0,.11,1.17,6.33,6.33,0,0,0,0,.76,5.66,5.66,0,0,0,.12,1.17,6.15,6.15,0,0,0-.06.75,6.45,6.45,0,0,0,.12,1.17,6.33,6.33,0,0,0-.05.76,6.25,6.25,0,0,0,.11,1.16,6.33,6.33,0,0,0-.05.76,6.45,6.45,0,0,0,.11,1.17,6.33,6.33,0,0,0,0,.76,5.5,5.5,0,0,0,.12,1.16,4.77,4.77,0,0,0-.06.76,5.66,5.66,0,0,0,.12,1.17,6.32,6.32,0,0,0-.06.75,6.45,6.45,0,0,0,.12,1.17,6.33,6.33,0,0,0-.05.76,5.79,5.79,0,0,0,.12,1.19,6.33,6.33,0,0,0,0,.76,5.74,5.74,0,0,0,.28,1.76c0,.07,0,.14,0,.21a5.38,5.38,0,0,0,.58,2.44,5.32,5.32,0,0,0,.94,2.54,5.46,5.46,0,0,0,1.24,2.31,5.4,5.4,0,0,0,1.57,2.12,5.28,5.28,0,0,0,1.8,1.84,5.21,5.21,0,0,0,2,1.58,5.14,5.14,0,0,0,2.24,1.29,5.09,5.09,0,0,0,2.4,1,5.07,5.07,0,0,0,2.45.63h.12a4.83,4.83,0,0,0,1.79.34,4.94,4.94,0,0,0,.87-.08,4.66,4.66,0,0,0,1.13.14,4.71,4.71,0,0,0,1.55-.26,3.11,3.11,0,0,0,.43,0,4.83,4.83,0,0,0,2.18-.52,4.89,4.89,0,0,0,2.44-.84,4.71,4.71,0,0,0,2.27-1.17,4.65,4.65,0,0,0,2.06-1.45,18.4,18.4,0,0,0,3.39-3.65,4.59,4.59,0,0,0,.89-1.16A4.67,4.67,0,0,1,150,147.74Z" style="fill:#ab3081"/><path d="M101.84,152a11.06,11.06,0,0,1-3,1.66,11.38,11.38,0,0,1-3.34,1.3,11.74,11.74,0,0,1-3.51.8,12.09,12.09,0,0,1-2.78.34c-.28,0-.56,0-.84,0a11.12,11.12,0,0,1-1.16.06,11.8,11.8,0,0,1-2.61-.3,11.91,11.91,0,0,1-3.45-.72,11.81,11.81,0,0,1-3.47-1.26,11.84,11.84,0,0,1-3-1.62,11.86,11.86,0,0,1-2.91-2.1,12.05,12.05,0,0,1-2.52-2.42A11.8,11.8,0,0,1,67,145a12.12,12.12,0,0,1-1.86-3.17,11.87,11.87,0,0,1-1.35-3.26,12.19,12.19,0,0,1-.94-3.72,12.58,12.58,0,0,1-.4-3.09c0-.12,0-.24,0-.36a12.07,12.07,0,0,1-.12-1.61c0-.17,0-.33,0-.49a11.32,11.32,0,0,1-.09-1.43c0-.17,0-.33,0-.5a13.41,13.41,0,0,1-.08-1.43c0-.16,0-.32,0-.49a13.55,13.55,0,0,1-.08-1.43c0-.17,0-.32,0-.49a13.57,13.57,0,0,1-.09-1.44c0-.16,0-.32,0-.48a11.36,11.36,0,0,1-.09-1.44c0-.16,0-.32,0-.48a11.36,11.36,0,0,1-.09-1.44c0-.16,0-.32,0-.48a13.94,13.94,0,0,1-.08-1.45c0-.16,0-.31,0-.47a13.94,13.94,0,0,1-.08-1.45c0-.16,0-.31,0-.47a14,14,0,0,1-.09-1.46c0-.15,0-.31,0-.46a11.8,11.8,0,0,1-.09-1.46c0-.16,0-.31,0-.46a14.13,14.13,0,0,1-.08-1.46c0-.16,0-.31,0-.47a14,14,0,0,1-.08-1.46c0-.15,0-.3,0-.46a14.13,14.13,0,0,1-.08-1.46c0-.16,0-.31,0-.46a14.15,14.15,0,0,1-.09-1.47c0-.15,0-.3,0-.45a11.84,11.84,0,0,1-.09-1.47c0-.15,0-.3,0-.45A14.36,14.36,0,0,1,61.4,99c0-.15,0-.29,0-.44a14.52,14.52,0,0,1-.08-1.48c0-.15,0-.29,0-.44a14.52,14.52,0,0,1-.08-1.48c0-.15,0-.3,0-.44a14.71,14.71,0,0,1-.09-1.49c0-.15,0-.29,0-.43a12.29,12.29,0,0,1-.09-1.49c0-.15,0-.29,0-.43a14.76,14.76,0,0,1-.08-1.5c0-.14,0-.28,0-.43A14.72,14.72,0,0,1,61,87.45c0-.14,0-.28,0-.43A14.72,14.72,0,0,1,61,85.53c0-.15,0-.29,0-.43a12.33,12.33,0,0,1-.09-1.5c0-.14,0-.28,0-.42a12.33,12.33,0,0,1-.09-1.5c0-.14,0-.28,0-.42a15.11,15.11,0,0,1-.08-1.51c0-.14,0-.27,0-.41a15.11,15.11,0,0,1-.08-1.51c0-.14,0-.27,0-.41a15.16,15.16,0,0,1-.08-1.52c0-.13,0-.27,0-.4A14.32,14.32,0,0,1,60.6,74,18.18,18.18,0,0,1,29.37,61.37c0-.52,0-1,.07-1.56,0-.12,0-.24,0-.36,0-.53,0-1.05.07-1.56,0-.12,0-.24,0-.36,0-.53,0-1.05.08-1.56,0-.12,0-.25,0-.37,0-.52,0-1,.07-1.55,0-.13,0-.25,0-.37,0-.53,0-1,.07-1.56,0-.12,0-.24,0-.37,0-.52,0-1,.07-1.55,0-.12,0-.25,0-.37,0-.52,0-1,.07-1.55,0-.13,0-.25,0-.38,0-.52,0-1,.08-1.54,0-.13,0-.25,0-.38,0-.52,0-1,.07-1.55,0-.12,0-.25,0-.37,0-.53,0-1,.07-1.55,0-.13,0-.25,0-.38,0-.52,0-1,.07-1.54,0-.13,0-.26,0-.38,0-.52,0-1,.07-1.54,0-.13,0-.26,0-.39,0-.52,0-1,.08-1.54,0-.13,0-.25,0-.38,0-.52,0-1,.07-1.54,0-.13,0-.26,0-.39,0-.51,0-1,.07-1.53,0-.13,0-.26,0-.39,0-.52,0-1,.07-1.54,0-.12,0-.25,0-.38,0-.52,0-1,.07-1.54,0-.13,0-.26,0-.39A16.41,16.41,0,0,1,30.63,26a16.57,16.57,0,0,1,.75-4.42,16.34,16.34,0,0,1,1.29-4,17,17,0,0,1,1.91-3.95,17.45,17.45,0,0,1,2-3.07c-.25.19-.49.37-.73.57a17.16,17.16,0,0,0-3.11,2.66A16.54,16.54,0,0,0,29.88,17a16.53,16.53,0,0,0-2.27,3.38,16.9,16.9,0,0,0-1.91,3.94,16.56,16.56,0,0,0-1.29,4,16.57,16.57,0,0,0-.75,4.42,16.41,16.41,0,0,0-.21,2.64c0,.13,0,.26,0,.39,0,.51-.07,1-.07,1.54,0,.13,0,.25,0,.38,0,.51-.07,1-.07,1.54,0,.13,0,.26,0,.39-.05.5-.07,1-.07,1.53,0,.13,0,.26,0,.39-.05.51-.08,1-.08,1.54,0,.13,0,.25,0,.38,0,.51-.07,1-.07,1.54,0,.13,0,.26,0,.38,0,.51-.07,1-.07,1.55,0,.12,0,.25,0,.38,0,.51-.07,1-.07,1.54,0,.13,0,.25,0,.38-.05.51-.07,1-.07,1.54,0,.13,0,.26,0,.38,0,.51-.08,1-.08,1.55,0,.12,0,.25,0,.37,0,.51-.07,1-.07,1.55,0,.13,0,.25,0,.38,0,.51-.07,1-.07,1.55,0,.12,0,.25,0,.37,0,.51-.07,1-.07,1.55,0,.13,0,.25,0,.37,0,.51-.07,1-.07,1.56,0,.12,0,.24,0,.36-.05.52-.08,1-.08,1.56,0,.12,0,.24,0,.37,0,.51-.07,1-.07,1.55,0,.13,0,.25,0,.37,0,.51-.07,1-.07,1.56,0,.12,0,.24,0,.36,0,.52-.07,1-.07,1.56A18.18,18.18,0,0,0,53.63,80.78a12.07,12.07,0,0,0,.08,1.47c0,.13,0,.27,0,.4a12.66,12.66,0,0,0,.09,1.52c0,.13,0,.27,0,.41a15.11,15.11,0,0,0,.08,1.51c0,.14,0,.27,0,.41A15.11,15.11,0,0,0,53.89,88c0,.14,0,.28,0,.42a14.91,14.91,0,0,0,.08,1.5c0,.14,0,.28,0,.42a12.33,12.33,0,0,0,.09,1.5c0,.14,0,.28,0,.42a14.74,14.74,0,0,0,.09,1.5c0,.15,0,.28,0,.43a14.72,14.72,0,0,0,.08,1.49c0,.15,0,.29,0,.43a14.56,14.56,0,0,0,.08,1.49c0,.15,0,.29,0,.44a14.72,14.72,0,0,0,.08,1.49c0,.14,0,.28,0,.43a12.29,12.29,0,0,0,.09,1.49c0,.14,0,.29,0,.44a14.52,14.52,0,0,0,.09,1.48c0,.15,0,.29,0,.44a14.52,14.52,0,0,0,.08,1.48c0,.15,0,.29,0,.44a14.52,14.52,0,0,0,.08,1.48c0,.15,0,.3,0,.45a11.84,11.84,0,0,0,.09,1.47c0,.15,0,.3,0,.45a11.84,11.84,0,0,0,.09,1.47c0,.15,0,.3,0,.46A14.13,14.13,0,0,0,54.7,113c0,.16,0,.31,0,.46a14,14,0,0,0,.08,1.46c0,.16,0,.31,0,.46a14,14,0,0,0,.08,1.46c0,.16,0,.31,0,.47a11.8,11.8,0,0,0,.09,1.46c0,.15,0,.31,0,.46a11.8,11.8,0,0,0,.09,1.46c0,.15,0,.31,0,.47a13.93,13.93,0,0,0,.09,1.45c0,.16,0,.31,0,.47a13.94,13.94,0,0,0,.08,1.45c0,.16,0,.31,0,.48a13.9,13.9,0,0,0,.08,1.44c0,.16,0,.32,0,.48a11.36,11.36,0,0,0,.09,1.44c0,.16,0,.32,0,.48a13.57,13.57,0,0,0,.09,1.44c0,.16,0,.32,0,.49a13.55,13.55,0,0,0,.09,1.43c0,.17,0,.33,0,.49a13.41,13.41,0,0,0,.08,1.43c0,.17,0,.33,0,.5a13.22,13.22,0,0,0,.08,1.42c0,.17,0,.33,0,.5a12.2,12.2,0,0,0,.12,1.61c0,.12,0,.24,0,.36a12.44,12.44,0,0,0,.4,3.08,12.18,12.18,0,0,0,.94,3.73,12,12,0,0,0,1.35,3.26,12.29,12.29,0,0,0,1.86,3.17,12.48,12.48,0,0,0,2.17,2.74,12.1,12.1,0,0,0,2.53,2.42,11.86,11.86,0,0,0,2.91,2.1,11.68,11.68,0,0,0,3,1.62,11.81,11.81,0,0,0,3.47,1.26,11.91,11.91,0,0,0,3.45.72,11.78,11.78,0,0,0,2.6.3c.4,0,.79,0,1.17-.06s.56,0,.84,0a11.57,11.57,0,0,0,2.78-.35,11.43,11.43,0,0,0,3.51-.79,11.38,11.38,0,0,0,3.34-1.3,11.34,11.34,0,0,0,3-1.66,11.51,11.51,0,0,0,2.83-2.15,11.52,11.52,0,0,0,2.39-2.39,11.56,11.56,0,0,0,1.78-2.22Z" style="fill:#ab3081"/></g><rect x="8.85" y="53.28" width="50.2" height="37.75" rx="11.19" style="fill:#f6ba16"/><path d="M53.32,54.72v3.55A11.22,11.22,0,0,1,42.13,69.46H14.31A11,11,0,0,1,8.85,68V79.84A11.23,11.23,0,0,0,20,91H47.86A11.23,11.23,0,0,0,59.05,79.84V64.47A11.21,11.21,0,0,0,53.32,54.72Z" style="fill:#eb9915"/><path d="M12.09,67.29a2.27,2.27,0,0,0-3.94,0L6.62,69.93,3.12,76h14l-3.5-6.06Z" style="fill:#ffe2b8"/><circle cx="41.37" cy="62.28" r="5.24" style="fill:#f1f841"/><circle cx="41.37" cy="62.28" r="2.62" style="fill:#0e393a"/><path d="M37.65,62.73A1.36,1.36,0,1,0,39,61.37,1.36,1.36,0,0,0,37.65,62.73Z" style="fill:#fff"/><path d="M41.37,65.29a5.24,5.24,0,0,0,5.12-4.13,5.13,5.13,0,0,1,.12,1.12,5.24,5.24,0,0,1-10.48,0,5.82,5.82,0,0,1,.12-1.12A5.25,5.25,0,0,0,41.37,65.29Z" style="fill:#dbe329"/><path d="M46.61,62.28a5.24,5.24,0,0,0-10.48,0Z" style="fill:#b61982"/><path d="M45.91,59.66a5.26,5.26,0,0,1,.7,2.62H36.13a5.16,5.16,0,0,1,.71-2.62Z" style="fill:#a61776"/><path d="M50.39,67.29a2.28,2.28,0,0,0-4,0l-1.52,2.64L41.42,76h14l-3.5-6.06Z" style="fill:#ffe2b8"/><path d="M28.25,45.09a2.28,2.28,0,0,0,0,3.95l2.64,1.52L37,54.06v-14l-6.06,3.5Z" style="fill:#b61982"/><path d="M29.13,69.75H33.7a.71.71,0,0,0,.47-.22l.51,1.7c.44,1.47-.11,3.3-1,3.3H24.56c-.87,0-1.42-1.83-1-3.3l.5-1.7a.73.73,0,0,0,.48.22Z" style="fill:#c5479b"/><path d="M29.13,65h3.68l1.36,4.56a.71.71,0,0,1-.47.22H24.56a.73.73,0,0,1-.48-.22L25.44,65Z" style="fill:#d375b4"/><polygon points="31.39 60.19 32.4 63.57 32.81 64.97 29.13 64.97 25.44 64.97 25.86 63.57 26.87 60.19 29.13 60.19 31.39 60.19" style="fill:#c5479b"/><path d="M30.11,55.91l1.28,4.28H26.87l1.28-4.28C28.58,54.44,29.67,54.44,30.11,55.91Z" style="fill:#d375b4"/><path d="M34.68,71.23l-.51-1.7L32.81,65l-.41-1.4-1-3.38-1.28-4.28c-.44-1.47-1.53-1.47-2,0l-.28.92.84,2.82.42,1.4,1.36,4.56.51,1.7c.43,1.47-.11,3.3-1,3.3H23.76l-.18.62c-.44,1.47.11,3.3,1,3.3H33.7C34.57,74.53,35.12,72.7,34.68,71.23Z" style="fill:#ab3081;opacity:0.39;mix-blend-mode:multiply"/><rect y="71.07" width="59.05" height="26.15" rx="10.1" style="fill:#f6ce2e"/><path d="M53.57,72.21c0,.26,0,.53,0,.81V79a10.13,10.13,0,0,1-10.1,10.1H4.66A10,10,0,0,1,0,87.93,10.13,10.13,0,0,0,10.1,97.22H49a10.14,10.14,0,0,0,10.1-10.1v-6A10.12,10.12,0,0,0,53.57,72.21Z" style="fill:#e8b423"/><circle cx="17.67" cy="62.28" r="5.24" style="fill:#f1f841"/><circle cx="17.67" cy="62.28" r="2.62" style="fill:#0e393a"/><circle cx="15.31" cy="62.73" r="1.36" style="fill:#fff"/><path d="M17.67,65.29a5.24,5.24,0,0,0,5.12-4.13,5.13,5.13,0,0,1,.12,1.12,5.24,5.24,0,1,1-10.48,0,5.82,5.82,0,0,1,.12-1.12A5.25,5.25,0,0,0,17.67,65.29Z" style="fill:#dbe329"/><path d="M22.91,62.28a5.24,5.24,0,1,0-10.48,0Z" style="fill:#b61982"/><path d="M22.21,59.66a5.26,5.26,0,0,1,.7,2.62H12.43a5.16,5.16,0,0,1,.71-2.62Z" style="fill:#a61776"/><path d="M28.25,27.73a2.28,2.28,0,0,0,0,3.95l2.64,1.53L37,36.71v-14l-6.06,3.5Z" style="fill:#b61982"/><path d="M89.09,129.77a1.14,1.14,0,0,0,0,2l1.32.76,3,1.75v-7l-3,1.75Z" style="fill:#b61982"/><path d="M145.1,138.34a.91.91,0,0,0,0,1.59l1.06.61L148.6,142v-5.64l-2.44,1.41Z" style="fill:#b61982"/><path d="M141.09,143.6a.93.93,0,0,0-1.13,1.13l.32,1.19.72,2.72,2-2,2-2-2.73-.74Z" style="fill:#b61982"/><path d="M134.52,144.49a.92.92,0,0,0-1.59,0l-.61,1.07L130.9,148h5.64l-1.4-2.45Z" style="fill:#b61982"/><path d="M145.1,128.68a.91.91,0,0,0,0,1.59l1.06.61,2.44,1.41v-5.64l-2.44,1.41Z" style="fill:#b61982"/><path d="M85,132.29a5.69,5.69,0,1,1-5.68-5.68A5.68,5.68,0,0,1,85,132.29Z" style="fill:#eb9915"/><path d="M145.1,119a.91.91,0,0,0,0,1.59l1.06.62,2.44,1.41V117l-2.44,1.41Z" style="fill:#b61982"/><path d="M145.1,109.36a.91.91,0,0,0,0,1.59l1.06.62L148.6,113v-5.64l-2.44,1.41Z" style="fill:#b61982"/><path d="M89.09,106.83a1.14,1.14,0,0,0,0,2l1.32.76,3,1.75v-7l-3,1.74Z" style="fill:#b61982"/><path d="M89.09,118.1a1.14,1.14,0,0,0,0,2l1.32.76,3,1.75v-7l-3,1.75Z" style="fill:#b61982"/><path d="M89.09,94.65a1.14,1.14,0,0,0,0,2l1.32.77,3,1.75v-7l-3,1.75Z" style="fill:#b61982"/><path d="M89.09,80.9a1.14,1.14,0,0,0,0,2l1.32.76,3,1.75v-7l-3,1.75Z" style="fill:#b61982"/><path d="M89.09,67.93a1.14,1.14,0,0,0,0,2l1.32.76,3,1.75v-7l-3,1.75Z" style="fill:#b61982"/><path d="M97.59,53.49a1.14,1.14,0,0,0-1.48,1.31l.31,1.49.7,3.43,2.62-2.32,2.61-2.33L99,54Z" style="fill:#b61982"/><path d="M39.75,6.88a2.28,2.28,0,0,0-2.91,2.66l.65,3L39,19.35l5.17-4.71,5.17-4.72L42.66,7.8Z" style="fill:#b61982"/><path d="M26.26,78.17H7.8A1.83,1.83,0,0,1,6,76.35H6A1.83,1.83,0,0,1,7.8,74.53H26.26a1.82,1.82,0,0,1,1.82,1.82h0A1.82,1.82,0,0,1,26.26,78.17Z" style="fill:#f6e291"/><path d="M31.19,78.17h0a1.83,1.83,0,0,1-1.82-1.82h0a1.83,1.83,0,0,1,1.82-1.82h0A1.82,1.82,0,0,1,33,76.35h0A1.82,1.82,0,0,1,31.19,78.17Z" style="fill:#f6e291"/><path d="M93.44,181.54H82.81a3.23,3.23,0,0,1,0-6.46h7.4V146a3.23,3.23,0,0,1,6.46,0v32.3A3.23,3.23,0,0,1,93.44,181.54Z" style="fill:#f6ce2e"/><path d="M93.07,148.35v29.07h-7.4a3.24,3.24,0,0,0-3.24,3.23,3.17,3.17,0,0,0,.14.87l.24,0H93.44a3.23,3.23,0,0,0,3.23-3.23V146a3.16,3.16,0,0,0-.13-.87l-.24,0A3.22,3.22,0,0,0,93.07,148.35Z" style="fill:#eb9915"/><path d="M79.34,133.5a3.23,3.23,0,0,1-.12-6.46c3.59-.14,9.48-1.32,11.31-3.5a2,2,0,0,0,.47-1.68c-.76-5.54-9.59-12.38-12.63-14.33a3.23,3.23,0,0,1,3.5-5.43c1.45.93,14.24,9.42,15.53,18.89a8.37,8.37,0,0,1-1.93,6.71c-4.39,5.23-14.84,5.76-16,5.8Z" style="fill:#f6ba16"/><path d="M97.4,121c-1.29-9.47-14.08-18-15.53-18.89a3.16,3.16,0,0,0-1.89-.51c4.07,3,12.4,9.9,13.43,17.44a8.39,8.39,0,0,1-1.93,6.72c-3.82,4.55-12.24,5.53-15.12,5.74a3.21,3.21,0,0,0,3,2h.12c1.17,0,11.62-.57,16-5.8A8.37,8.37,0,0,0,97.4,121Z" style="fill:#eb9915"/></g></g></g></svg>