<svg xmlns="http://www.w3.org/2000/svg" viewBox="0 0 80.99 99.25"><g style="isolation:isolate"><g id="Layer_2" data-name="Layer 2"><g id="OBJECTS"><path d="M37.26.15C34.52,1.89,42,18.5,53.88,37.26S77.69,69.81,80.42,68.07,75.71,49.72,63.79,31,40-1.59,37.26.15Z" style="fill:#30c2c9;opacity:0.47000000000000003;mix-blend-mode:screen"/><ellipse cx="48.57" cy="43.49" rx="5.87" ry="40.24" transform="translate(-15.53 55.37) rotate(-52.34)" style="fill:#30c2c9;opacity:0.47000000000000003;mix-blend-mode:screen"/><ellipse cx="42.1" cy="55.8" rx="5.87" ry="40.24" transform="translate(-23.88 78.88) rotate(-72.25)" style="fill:#30c2c9;opacity:0.47000000000000003;mix-blend-mode:screen"/><ellipse cx="40.21" cy="69.58" rx="40.24" ry="5.87" transform="translate(-2.58 1.56) rotate(-2.15)" style="fill:#30c2c9;opacity:0.47000000000000003;mix-blend-mode:screen"/><path d="M5.83,98.29c1.22,3,18.91-1.32,39.5-9.67S81.64,71.08,80.42,68.07s-18.9,1.32-39.5,9.67S4.62,95.29,5.83,98.29Z" style="fill:#30c2c9;opacity:0.47000000000000003;mix-blend-mode:screen"/></g></g></g></svg>