<svg xmlns="http://www.w3.org/2000/svg" viewBox="0 0 80.99 99.25"><g style="isolation:isolate"><g id="Layer_2" data-name="Layer 2"><g id="OBJECTS"><path d="M43.73.15C46.47,1.89,39,18.5,27.1,37.26S3.3,69.81.57,68.07,5.27,49.72,17.19,31,41-1.59,43.73.15Z" style="fill:#30c2c9;opacity:0.47000000000000003;mix-blend-mode:screen"/><path d="M64.28,18.9c2,2.57-10.68,15.66-28.27,29.23S2.55,70.64.57,68.07,11.24,52.42,28.84,38.84,62.3,16.34,64.28,18.9Z" style="fill:#30c2c9;opacity:0.47000000000000003;mix-blend-mode:screen"/><path d="M77.21,43.53c1,3.09-15.37,11.09-36.53,17.86S1.56,71.16.57,68.07,15.93,57,37.1,50.21,76.22,40.44,77.21,43.53Z" style="fill:#30c2c9;opacity:0.47000000000000003;mix-blend-mode:screen"/><ellipse cx="40.78" cy="69.58" rx="5.87" ry="40.24" transform="translate(-30.29 107.72) rotate(-87.85)" style="fill:#30c2c9;opacity:0.47000000000000003;mix-blend-mode:screen"/><path d="M75.15,98.29c-1.21,3-18.9-1.32-39.49-9.67S-.65,71.08.57,68.07s18.9,1.32,39.5,9.67S76.37,95.29,75.15,98.29Z" style="fill:#30c2c9;opacity:0.47000000000000003;mix-blend-mode:screen"/></g></g></g></svg>