<svg xmlns="http://www.w3.org/2000/svg" xmlns:xlink="http://www.w3.org/1999/xlink" viewBox="0 0 93.29 181.63"><defs><linearGradient id="Degradado_sin_nombre_66" x1="123.3" y1="56.45" x2="75.53" y2="56.45" gradientTransform="translate(120.01 55.64) rotate(90)" gradientUnits="userSpaceOnUse"><stop offset="0.12" stop-color="#30c2c9"/><stop offset="0.23" stop-color="#39a8cd"/><stop offset="0.49" stop-color="#4c6dd6"/><stop offset="0.72" stop-color="#5943dd"/><stop offset="0.89" stop-color="#6229e1"/><stop offset="1" stop-color="#651fe3"/></linearGradient><linearGradient id="Degradado_sin_nombre_66-2" x1="6.91" y1="110.49" x2="6.91" y2="161.94" gradientTransform="matrix(1, 0, 0, 1, 0, 0)" xlink:href="#Degradado_sin_nombre_66"/><linearGradient id="Degradado_sin_nombre_66-3" x1="11.94" y1="157.11" x2="11.94" y2="169.63" gradientTransform="matrix(1, 0, 0, 1, 0, 0)" xlink:href="#Degradado_sin_nombre_66"/><linearGradient id="Degradado_sin_nombre_66-4" x1="2.11" y1="158.88" x2="2.11" y2="171.9" gradientTransform="matrix(1, 0, 0, 1, 0, 0)" xlink:href="#Degradado_sin_nombre_66"/><linearGradient id="Degradado_sin_nombre_66-5" x1="7.08" y1="160.37" x2="7.08" y2="175.01" gradientTransform="matrix(1, 0, 0, 1, 0, 0)" xlink:href="#Degradado_sin_nombre_66"/><linearGradient id="Degradado_sin_nombre_66-6" x1="72.75" y1="157.11" x2="72.75" y2="169.63" gradientTransform="translate(145.51 326.74) rotate(-180)" xlink:href="#Degradado_sin_nombre_66"/><linearGradient id="Degradado_sin_nombre_66-7" x1="82.59" y1="158.88" x2="82.59" y2="171.9" gradientTransform="translate(165.18 330.77) rotate(-180)" xlink:href="#Degradado_sin_nombre_66"/><linearGradient id="Degradado_sin_nombre_66-8" x1="77.62" y1="160.37" x2="77.62" y2="175.01" gradientTransform="matrix(1, 0, 0, 1, 0, 0)" xlink:href="#Degradado_sin_nombre_66"/><linearGradient id="Degradado_sin_nombre_66-9" x1="77.79" y1="110.49" x2="77.79" y2="161.94" gradientTransform="matrix(1, 0, 0, 1, 0, 0)" xlink:href="#Degradado_sin_nombre_66"/><linearGradient id="Degradado_sin_nombre_66-10" x1="29.7" y1="133.51" x2="29.7" y2="180.05" gradientTransform="matrix(1, 0, 0, 1, 0, 0)" xlink:href="#Degradado_sin_nombre_66"/><linearGradient id="Degradado_sin_nombre_66-11" x1="53.94" y1="133.51" x2="53.94" y2="180.05" gradientTransform="matrix(1, 0, 0, 1, 0, 0)" xlink:href="#Degradado_sin_nombre_66"/><linearGradient id="Degradado_sin_nombre_66-12" x1="42.35" y1="144.76" x2="42.35" y2="91.54" gradientTransform="matrix(1, 0, 0, 1, 0, 0)" xlink:href="#Degradado_sin_nombre_66"/><linearGradient id="Degradado_sin_nombre_65" x1="42.79" y1="11.08" x2="42.79" y2="52.46" gradientUnits="userSpaceOnUse"><stop offset="0.12" stop-color="#30c2c9"/><stop offset="0.24" stop-color="#32bdca"/><stop offset="0.38" stop-color="#36b0cc"/><stop offset="0.53" stop-color="#3d99d0"/><stop offset="0.68" stop-color="#487ad5"/><stop offset="0.84" stop-color="#5551db"/><stop offset="1" stop-color="#6520e3"/><stop offset="1" stop-color="#651fe3"/></linearGradient></defs><g style="isolation:isolate"><g id="Layer_2" data-name="Layer 2"><g id="OBJECTS"><path d="M45.54,135.27a8.52,8.52,0,0,0,1.88,6.32,9.32,9.32,0,0,0,6.32,3.35,18.3,18.3,0,0,1,6.92,1.74,17.91,17.91,0,0,1,5.61,4.18,17.68,17.68,0,0,1,3.5,5.89,17.2,17.2,0,0,1,1,6.64,11.47,11.47,0,0,0,2.74,8.39A12.25,12.25,0,0,0,81.86,176a13,13,0,0,0,9.42-3.18c2.65-2.28,2.32-.42,1,1a15.16,15.16,0,0,1-10.46,5.06,15.64,15.64,0,0,1-6.08-.84,16.17,16.17,0,0,1-5.42-3.18,16.51,16.51,0,0,1-3.86-5.14,16.71,16.71,0,0,1-1.63-6.36A10.75,10.75,0,0,0,61.09,156a10.06,10.06,0,0,0-7.35-2.32,18.7,18.7,0,0,1-7.2-1.06,19.13,19.13,0,0,1-6.37-3.82,19.35,19.35,0,0,1-4.49-6.08,19.91,19.91,0,0,1-1.86-7.49Z" style="fill:url(#Degradado_sin_nombre_66)"/><g style="opacity:0.54;mix-blend-mode:multiply"><path d="M93.23,172.35c.23-.75-.24-1-2,.46A11.74,11.74,0,0,1,89.59,174,13,13,0,0,0,93.23,172.35Z" style="fill:#249297"/><path d="M85.12,177.46a15.88,15.88,0,0,1-6.09-.84,16.15,16.15,0,0,1-5.41-3.19,16.36,16.36,0,0,1-3.86-5.13,16.71,16.71,0,0,1-1.63-6.36,10.75,10.75,0,0,0-3.78-7.35A10,10,0,0,0,57,152.27a18.6,18.6,0,0,1-7.21-1.07,19,19,0,0,1-10.85-9.9,19.52,19.52,0,0,1-1.72-6h-3.4a19.91,19.91,0,0,0,1.86,7.49,19.35,19.35,0,0,0,4.49,6.08,19.13,19.13,0,0,0,6.37,3.82,18.7,18.7,0,0,0,7.2,1.06A10.06,10.06,0,0,1,61.09,156a10.75,10.75,0,0,1,3.78,7.35,16.71,16.71,0,0,0,1.63,6.36,16.51,16.51,0,0,0,3.86,5.14,16.17,16.17,0,0,0,5.42,3.18,15.64,15.64,0,0,0,6.08.84,15.2,15.2,0,0,0,5.8-1.52,12.66,12.66,0,0,0,1.14-.63A15.25,15.25,0,0,1,85.12,177.46Z" style="fill:#249297"/></g><rect x="10.06" y="157.11" width="3.76" height="12.52" rx="1.87" style="fill:#f84441"/><path d="M6.91,161.94h0a3.41,3.41,0,0,0,3.4-3.4V113.9a3.42,3.42,0,0,0-3.4-3.41h0a3.42,3.42,0,0,0-3.4,3.41v44.64A3.41,3.41,0,0,0,6.91,161.94Z" style="fill:url(#Degradado_sin_nombre_66-2)"/><path d="M6.91,110.49a3.31,3.31,0,0,0-1.22.24v36.71a3.4,3.4,0,0,1-2.18,3.16v7.94a3.4,3.4,0,1,0,6.8,0V113.9A3.42,3.42,0,0,0,6.91,110.49Z" style="fill:#249297;opacity:0.54;mix-blend-mode:multiply"/><rect y="158.88" width="4.21" height="13.02" rx="1.99" style="fill:#f84441"/><path d="M7.08,175h0A2.12,2.12,0,0,1,5,172.9V162.47a2.11,2.11,0,0,1,2.11-2.1h0a2.11,2.11,0,0,1,2.1,2.1V172.9A2.11,2.11,0,0,1,7.08,175Z" style="fill:#f84441"/><rect x="10.06" y="157.11" width="3.76" height="12.52" rx="1.87" style="fill:url(#Degradado_sin_nombre_66-3)"/><rect y="158.88" width="4.21" height="13.02" rx="1.99" style="fill:url(#Degradado_sin_nombre_66-4)"/><path d="M7.08,175h0A2.12,2.12,0,0,1,5,172.9V162.47a2.11,2.11,0,0,1,2.11-2.1h0a2.11,2.11,0,0,1,2.1,2.1V172.9A2.11,2.11,0,0,1,7.08,175Z" style="fill:url(#Degradado_sin_nombre_66-5)"/><path d="M6.91,166.71h0A6.9,6.9,0,0,1,0,159.83H0A6.9,6.9,0,0,1,6.91,153h0a6.9,6.9,0,0,1,6.88,6.87h0A6.9,6.9,0,0,1,6.91,166.71Z" style="fill:#651fe3"/><path d="M6.91,166.71h0A6.9,6.9,0,0,1,0,159.83H0A6.9,6.9,0,0,1,6.91,153h0a6.9,6.9,0,0,1,6.88,6.87h0A6.9,6.9,0,0,1,6.91,166.71Z" style="fill:#249297;opacity:0.54;mix-blend-mode:multiply"/><rect x="70.88" y="157.11" width="3.76" height="12.52" rx="1.87" transform="translate(145.51 326.74) rotate(180)" style="fill:#f84441"/><rect x="80.48" y="158.88" width="4.21" height="13.02" rx="1.99" transform="translate(165.18 330.77) rotate(180)" style="fill:#f84441"/><path d="M77.62,175h0a2.12,2.12,0,0,0,2.11-2.11V162.47a2.11,2.11,0,0,0-2.11-2.1h0a2.11,2.11,0,0,0-2.11,2.1V172.9A2.12,2.12,0,0,0,77.62,175Z" style="fill:#f84441"/><rect x="70.88" y="157.11" width="3.76" height="12.52" rx="1.87" transform="translate(145.51 326.74) rotate(180)" style="fill:url(#Degradado_sin_nombre_66-6)"/><rect x="80.48" y="158.88" width="4.21" height="13.02" rx="1.99" transform="translate(165.18 330.77) rotate(180)" style="fill:url(#Degradado_sin_nombre_66-7)"/><path d="M77.62,175h0a2.12,2.12,0,0,0,2.11-2.11V162.47a2.11,2.11,0,0,0-2.11-2.1h0a2.11,2.11,0,0,0-2.11,2.1V172.9A2.12,2.12,0,0,0,77.62,175Z" style="fill:url(#Degradado_sin_nombre_66-8)"/><path d="M77.79,161.94h0a3.41,3.41,0,0,1-3.41-3.4V113.9a3.42,3.42,0,0,1,3.41-3.41h0a3.42,3.42,0,0,1,3.4,3.41v44.64A3.41,3.41,0,0,1,77.79,161.94Z" style="fill:url(#Degradado_sin_nombre_66-9)"/><path d="M79.19,146.93V110.81a3.3,3.3,0,0,0-1.4-.32,3.42,3.42,0,0,0-3.41,3.41v44.64a3.41,3.41,0,0,0,6.81,0V150A3.4,3.4,0,0,1,79.19,146.93Z" style="fill:#249297;opacity:0.54;mix-blend-mode:multiply"/><path d="M77.62,166.71h0a6.9,6.9,0,0,1-6.88-6.88h0A6.9,6.9,0,0,1,77.62,153h0a6.9,6.9,0,0,1,6.88,6.87h0A6.9,6.9,0,0,1,77.62,166.71Z" style="fill:#651fe3"/><path d="M77.62,166.71h0a6.9,6.9,0,0,1-6.88-6.88h0A6.9,6.9,0,0,1,77.62,153h0a6.9,6.9,0,0,1,6.88,6.87h0A6.9,6.9,0,0,1,77.62,166.71Z" style="fill:#249297;opacity:0.54;mix-blend-mode:multiply"/><path d="M29.69,180.05h0A3.08,3.08,0,0,1,26.62,177V136.59a3.09,3.09,0,0,1,3.07-3.08h0a3.09,3.09,0,0,1,3.08,3.08V177A3.08,3.08,0,0,1,29.69,180.05Z" style="fill:url(#Degradado_sin_nombre_66-10)"/><path d="M53.94,180.05h0A3.09,3.09,0,0,1,50.86,177V136.59a3.09,3.09,0,0,1,3.08-3.08h0A3.09,3.09,0,0,1,57,136.59V177A3.09,3.09,0,0,1,53.94,180.05Z" style="fill:url(#Degradado_sin_nombre_66-11)"/><path d="M29.69,169.57h0a3.09,3.09,0,0,1-3.07-3.08V126.11A3.08,3.08,0,0,1,29.69,123h0a3.08,3.08,0,0,1,3.08,3.08v40.38A3.09,3.09,0,0,1,29.69,169.57Z" style="fill:#249297;opacity:0.54;mix-blend-mode:multiply"/><path d="M53.94,169.57h0a3.09,3.09,0,0,1-3.08-3.08V126.11A3.09,3.09,0,0,1,53.94,123h0A3.09,3.09,0,0,1,57,126.11v40.38A3.09,3.09,0,0,1,53.94,169.57Z" style="fill:#249297;opacity:0.54;mix-blend-mode:multiply"/><path d="M30.61,181.63H21.66a2.83,2.83,0,0,1-2.82-2.81h0A2.83,2.83,0,0,1,21.66,176h9a2.83,2.83,0,0,1,2.82,2.82h0A2.83,2.83,0,0,1,30.61,181.63Z" style="fill:#30c2c9"/><path d="M32.93,179H24a2.82,2.82,0,0,1-2.81-2.81c0-.05,0-.09,0-.13a2.81,2.81,0,0,0,.49,5.58h9a2.82,2.82,0,0,0,2.81-2.69A2.63,2.63,0,0,1,32.93,179Z" style="fill:#249297;opacity:0.54;mix-blend-mode:multiply"/><path d="M29.05,181.63h-2.2a2.38,2.38,0,0,1-2.37-2.37h0a2.38,2.38,0,0,1,2.37-2.38h2.2a2.38,2.38,0,0,1,2.37,2.38h0A2.38,2.38,0,0,1,29.05,181.63Z" style="fill:#30c2c9"/><path d="M29.55,180.05h-2.2A2.38,2.38,0,0,1,25,177.8a2.42,2.42,0,0,0-.51,1.46,2.38,2.38,0,0,0,2.37,2.37h2.2a2.38,2.38,0,0,0,2.37-2.37s0-.09,0-.13A2.34,2.34,0,0,1,29.55,180.05Z" style="fill:#249297;opacity:0.54;mix-blend-mode:multiply"/><rect x="17.54" y="178.11" width="6.94" height="3.52" rx="1.76" style="fill:#30c2c9"/><path d="M23.14,179.87H19.71A1.77,1.77,0,0,1,18,178.64a1.76,1.76,0,0,0,1.25,3h3.43a1.76,1.76,0,0,0,1.76-1.76,1.9,1.9,0,0,0-.09-.53A1.73,1.73,0,0,1,23.14,179.87Z" style="fill:#249297;opacity:0.54;mix-blend-mode:multiply"/><path d="M51.83,181.63h9a2.83,2.83,0,0,0,2.81-2.81h0A2.83,2.83,0,0,0,60.79,176h-9A2.83,2.83,0,0,0,49,178.82h0A2.83,2.83,0,0,0,51.83,181.63Z" style="fill:#30c2c9"/><path d="M51.83,181.63h9a2.83,2.83,0,0,0,2.81-2.81h0A2.83,2.83,0,0,0,60.79,176h-9A2.83,2.83,0,0,0,49,178.82h0A2.83,2.83,0,0,0,51.83,181.63Z" style="fill:#249297;opacity:0.54;mix-blend-mode:multiply"/><path d="M61.73,176.18a2.9,2.9,0,0,1,.17.94h0a2.82,2.82,0,0,1-2.81,2.81h-9a2.9,2.9,0,0,1-.94-.17,2.82,2.82,0,0,0,2.64,1.87h9a2.81,2.81,0,0,0,.94-5.45Z" style="fill:#249297;opacity:0.54;mix-blend-mode:multiply"/><path d="M53.39,181.63h2.2A2.38,2.38,0,0,0,58,179.26h0a2.38,2.38,0,0,0-2.37-2.38h-2.2A2.38,2.38,0,0,0,51,179.26h0A2.38,2.38,0,0,0,53.39,181.63Z" style="fill:#30c2c9"/><path d="M57,177.36a.68.68,0,0,1,0,.14,2.38,2.38,0,0,1-2.38,2.37H52.45a2.36,2.36,0,0,1-1.42-.48,2.38,2.38,0,0,0,2.36,2.24h2.2A2.37,2.37,0,0,0,57,177.36Z" style="fill:#249297;opacity:0.54;mix-blend-mode:multiply"/><rect x="57.96" y="178.11" width="6.94" height="3.52" rx="1.76" transform="translate(122.87 359.74) rotate(-180)" style="fill:#30c2c9"/><path d="M64.11,178.4a1.76,1.76,0,0,1-1.76,1.74H58.93a1.71,1.71,0,0,1-1-.3v0a1.76,1.76,0,0,0,1.76,1.76h3.43a1.76,1.76,0,0,0,1-3.23Z" style="fill:#249297;opacity:0.54;mix-blend-mode:multiply"/><ellipse cx="42.35" cy="118.15" rx="39.99" ry="26.61" style="fill:url(#Degradado_sin_nombre_66-12)"/><path d="M61.29,38.28l-2.84,0c.69.27,1.36.56,2,.86C60.74,38.87,61,38.57,61.29,38.28Z" style="fill:#30c2c9"/><path d="M22.2,38.66c.46.45.9.92,1.34,1.38,1-.51,2-1,3-1.42Z" style="fill:#30c2c9"/><path d="M42.49,35.54a43.39,43.39,0,0,0-15.91,3.08l31.87-.31A43.46,43.46,0,0,0,42.49,35.54Z" style="fill:#30c2c9"/><path d="M54.34,47.83a40.49,40.49,0,0,1,6.13-8.66c-.66-.3-1.33-.59-2-.86l-31.87.31c-1.06.44-2.07.91-3,1.42a40.54,40.54,0,0,1,6,8.42,44.09,44.09,0,0,1,13-2A44.79,44.79,0,0,1,54.34,47.83Z" style="fill:#30c2c9"/><path d="M42.7,57.29a46,46,0,0,1,8,.61,40.31,40.31,0,0,1,3.66-10.07,44.79,44.79,0,0,0-11.75-1.41,44.09,44.09,0,0,0-13,2,39.92,39.92,0,0,1,3.71,9.9A45.47,45.47,0,0,1,42.7,57.29Z" style="fill:#651fe3"/><path d="M54.77,86.13A45.67,45.67,0,0,1,29.86,86,40.79,40.79,0,0,1,24,94.5c.92.46,1.87.89,2.86,1.28A43.13,43.13,0,0,0,43.1,98.66a43.13,43.13,0,0,0,16.2-3.2c.61-.25,1.2-.52,1.78-.81A40.42,40.42,0,0,1,54.77,86.13Z" style="fill:#651fe3"/><path d="M33.41,76a40.32,40.32,0,0,1-3.55,10,45.67,45.67,0,0,0,24.91.14,40,40,0,0,1-3.89-10A46,46,0,0,1,33.41,76Z" style="fill:#30c2c9"/><path d="M49.75,65.44a45.07,45.07,0,0,1-7,.6,45.36,45.36,0,0,1-8.52-.71A41,41,0,0,1,33.41,76a46,46,0,0,0,17.47.11A40.62,40.62,0,0,1,49.75,65.44Z" style="fill:#651fe3"/><path d="M33.26,58.36a41.23,41.23,0,0,1,1,7,45.36,45.36,0,0,0,8.52.71,45.07,45.07,0,0,0,7-.6,40.06,40.06,0,0,1,.93-7.54,46,46,0,0,0-8-.61A45.47,45.47,0,0,0,33.26,58.36Z" style="fill:#30c2c9"/><path d="M30.61,181.63H21.66a2.83,2.83,0,0,1-2.82-2.81h0A2.83,2.83,0,0,1,21.66,176h9a2.83,2.83,0,0,1,2.82,2.82h0A2.83,2.83,0,0,1,30.61,181.63Z" style="fill:#249297;opacity:0.54;mix-blend-mode:multiply"/><path d="M63.55,138.89c-22.08,0-40-11.91-40-26.6,0-6,3-11.54,8-16,2.31-.4,8-8.36,9-10.42a40.15,40.15,0,0,0,3.54-10A40.49,40.49,0,0,0,45,65.23a40.84,40.84,0,0,0-4.71-16.88,40.11,40.11,0,0,0-6-8.41c-.43-.47-.88-.93-1.33-1.38l4.38,0a41.61,41.61,0,0,1,10.52-2.71,50,50,0,0,0-5.38-.27,43.39,43.39,0,0,0-15.91,3.08l-4.38,0c.46.45.9.92,1.34,1.38a40.54,40.54,0,0,1,6,8.42,39.92,39.92,0,0,1,3.71,9.9,41.23,41.23,0,0,1,1,7A41,41,0,0,1,33.41,76a40.32,40.32,0,0,1-3.55,10A40.79,40.79,0,0,1,24,94.5h0C11.15,98.93,2.36,107.86,2.36,118.15c0,14.7,17.9,26.61,40,26.61a53.35,53.35,0,0,0,25.29-6C66.3,138.85,64.93,138.89,63.55,138.89Z" style="fill:#249297;opacity:0.54;mix-blend-mode:multiply"/><path d="M67.58,16.93A15.13,15.13,0,0,0,70,11.46a14.13,14.13,0,0,0,.09-5.64,13.19,13.19,0,0,0-2-4.9C68,.71,67.82.5,67.67.3A.79.79,0,0,0,66.31,1a6.23,6.23,0,0,1,.15.62,10.51,10.51,0,0,1,0,4.25A9.6,9.6,0,0,1,65,9.51a8.86,8.86,0,0,1-2.55,2.42A3.8,3.8,0,0,0,61.12,17a3.72,3.72,0,0,0,5.12,1.26,3.91,3.91,0,0,0,1.09-1Z" style="fill:#fcedb6"/><path d="M70.1,5.82a13.19,13.19,0,0,0-2-4.9C68,.71,67.82.5,67.67.3a.87.87,0,0,0-.29-.23,13.42,13.42,0,0,1,1.14,3.41,14.08,14.08,0,0,1-.1,5.63A15,15,0,0,1,66,14.58l-.25.36a3.64,3.64,0,0,1-1.09,1,3.72,3.72,0,0,1-4-.07A3.65,3.65,0,0,0,61.12,17a3.72,3.72,0,0,0,5.12,1.26,3.91,3.91,0,0,0,1.09-1l.25-.36A15.13,15.13,0,0,0,70,11.46,14.13,14.13,0,0,0,70.1,5.82Z" style="fill:#fada81"/><path d="M70.19,21.09C69.1,22.88,65,22.4,61.12,20S54.9,14.23,56,12.44s5.15-1.31,9.07,1.08S71.28,19.3,70.19,21.09Z" style="fill:#651fe3"/><path d="M17.13,16.93a15.13,15.13,0,0,1-2.43-5.47,14.13,14.13,0,0,1-.09-5.64,13.19,13.19,0,0,1,2-4.9c.14-.21.29-.42.44-.62A.79.79,0,0,1,18.4,1a6.23,6.23,0,0,0-.15.62,10.51,10.51,0,0,0,0,4.25,9.6,9.6,0,0,0,1.53,3.61,8.86,8.86,0,0,0,2.55,2.42A3.8,3.8,0,0,1,23.59,17a3.72,3.72,0,0,1-5.12,1.26,3.91,3.91,0,0,1-1.09-1Z" style="fill:#fcedb6"/><path d="M14.61,5.82a13.19,13.19,0,0,1,2-4.9c.14-.21.29-.42.44-.62a.87.87,0,0,1,.29-.23,13.42,13.42,0,0,0-1.14,3.41,14.08,14.08,0,0,0,.1,5.63,15,15,0,0,0,2.43,5.47l.25.36a3.64,3.64,0,0,0,1.09,1,3.72,3.72,0,0,0,4-.07A3.65,3.65,0,0,1,23.59,17a3.72,3.72,0,0,1-5.12,1.26,3.91,3.91,0,0,1-1.09-1l-.25-.36a15.13,15.13,0,0,1-2.43-5.47A14.13,14.13,0,0,1,14.61,5.82Z" style="fill:#fada81"/><path d="M14.52,21.09c1.09,1.79,5.16,1.31,9.07-1.08s6.22-5.78,5.12-7.57-5.15-1.31-9.07,1.08S13.43,19.3,14.52,21.09Z" style="fill:#651fe3"/><ellipse cx="42.79" cy="31.77" rx="31.09" ry="20.69" style="fill:url(#Degradado_sin_nombre_65)"/><path d="M42.79,46.57c-15.66,0-28.62-7.71-30.77-17.74a14.39,14.39,0,0,0-.32,2.94c0,11.43,13.92,20.69,31.09,20.69s31.1-9.26,31.1-20.69a14.39,14.39,0,0,0-.32-2.94C71.42,38.86,58.46,46.57,42.79,46.57Z" style="fill:#d2e7e8;mix-blend-mode:multiply"/></g></g></g></svg>