<svg xmlns="http://www.w3.org/2000/svg" xmlns:xlink="http://www.w3.org/1999/xlink" viewBox="0 0 190.36 181.63"><defs><linearGradient id="Degradado_sin_nombre_66" x1="175.61" y1="56.45" x2="127.84" y2="56.45" gradientTransform="translate(172.32 3.33) rotate(90)" gradientUnits="userSpaceOnUse"><stop offset="0.12" stop-color="#30c2c9"/><stop offset="0.23" stop-color="#39a8cd"/><stop offset="0.49" stop-color="#4c6dd6"/><stop offset="0.72" stop-color="#5943dd"/><stop offset="0.89" stop-color="#6229e1"/><stop offset="1" stop-color="#651fe3"/></linearGradient><linearGradient id="Degradado_sin_nombre_66-2" x1="59.22" y1="110.49" x2="59.22" y2="161.94" gradientTransform="matrix(1, 0, 0, 1, 0, 0)" xlink:href="#Degradado_sin_nombre_66"/><linearGradient id="Degradado_sin_nombre_66-3" x1="64.25" y1="157.11" x2="64.25" y2="169.63" gradientTransform="matrix(1, 0, 0, 1, 0, 0)" xlink:href="#Degradado_sin_nombre_66"/><linearGradient id="Degradado_sin_nombre_66-4" x1="54.41" y1="158.88" x2="54.41" y2="171.9" gradientTransform="matrix(1, 0, 0, 1, 0, 0)" xlink:href="#Degradado_sin_nombre_66"/><linearGradient id="Degradado_sin_nombre_66-5" x1="59.38" y1="160.37" x2="59.38" y2="175.01" gradientTransform="matrix(1, 0, 0, 1, 0, 0)" xlink:href="#Degradado_sin_nombre_66"/><linearGradient id="Degradado_sin_nombre_66-6" x1="125.06" y1="157.11" x2="125.06" y2="169.63" gradientTransform="translate(250.13 326.74) rotate(-180)" xlink:href="#Degradado_sin_nombre_66"/><linearGradient id="Degradado_sin_nombre_66-7" x1="134.9" y1="158.88" x2="134.9" y2="171.9" gradientTransform="translate(269.8 330.77) rotate(-180)" xlink:href="#Degradado_sin_nombre_66"/><linearGradient id="Degradado_sin_nombre_66-8" x1="129.93" y1="160.37" x2="129.93" y2="175.01" gradientTransform="matrix(1, 0, 0, 1, 0, 0)" xlink:href="#Degradado_sin_nombre_66"/><linearGradient id="Degradado_sin_nombre_66-9" x1="130.09" y1="110.49" x2="130.09" y2="161.94" gradientTransform="matrix(1, 0, 0, 1, 0, 0)" xlink:href="#Degradado_sin_nombre_66"/><linearGradient id="Degradado_sin_nombre_66-10" x1="82" y1="133.51" x2="82" y2="180.05" gradientTransform="matrix(1, 0, 0, 1, 0, 0)" xlink:href="#Degradado_sin_nombre_66"/><linearGradient id="Degradado_sin_nombre_66-11" x1="106.25" y1="133.51" x2="106.25" y2="180.05" gradientTransform="matrix(1, 0, 0, 1, 0, 0)" xlink:href="#Degradado_sin_nombre_66"/><linearGradient id="Degradado_sin_nombre_66-12" x1="94.66" y1="144.76" x2="94.66" y2="91.54" gradientTransform="matrix(1, 0, 0, 1, 0, 0)" xlink:href="#Degradado_sin_nombre_66"/><linearGradient id="Degradado_sin_nombre_65" x1="95.1" y1="11.08" x2="95.1" y2="52.46" gradientUnits="userSpaceOnUse"><stop offset="0.12" stop-color="#30c2c9"/><stop offset="0.24" stop-color="#32bdca"/><stop offset="0.38" stop-color="#36b0cc"/><stop offset="0.53" stop-color="#3d99d0"/><stop offset="0.68" stop-color="#487ad5"/><stop offset="0.84" stop-color="#5551db"/><stop offset="1" stop-color="#6520e3"/><stop offset="1" stop-color="#651fe3"/></linearGradient></defs><g style="isolation:isolate"><g id="Layer_2" data-name="Layer 2"><g id="OBJECTS"><path d="M97.85,135.27a8.52,8.52,0,0,0,1.88,6.32,9.3,9.3,0,0,0,6.32,3.35,18.3,18.3,0,0,1,6.92,1.74,17.91,17.91,0,0,1,5.61,4.18,17.68,17.68,0,0,1,3.5,5.89,17.2,17.2,0,0,1,1,6.64,11.47,11.47,0,0,0,2.74,8.39,12.23,12.23,0,0,0,8.39,4.21,13,13,0,0,0,9.42-3.18c2.65-2.28,2.32-.42,1,1a15.16,15.16,0,0,1-10.46,5.06,15.64,15.64,0,0,1-6.08-.84,16.17,16.17,0,0,1-5.42-3.18,16.51,16.51,0,0,1-3.86-5.14,16.71,16.71,0,0,1-1.63-6.36A10.75,10.75,0,0,0,113.4,156a10.06,10.06,0,0,0-7.35-2.32,18.78,18.78,0,0,1-7.21-1.06A19.14,19.14,0,0,1,88,142.76a19.73,19.73,0,0,1-1.86-7.49Z" style="fill:url(#Degradado_sin_nombre_66)"/><g style="opacity:0.54;mix-blend-mode:multiply"><path d="M145.54,172.35c.23-.75-.24-1-1.95.46A11.74,11.74,0,0,1,141.9,174,13,13,0,0,0,145.54,172.35Z" style="fill:#249297"/><path d="M137.43,177.46a15.88,15.88,0,0,1-6.09-.84,16.15,16.15,0,0,1-5.41-3.19,16.36,16.36,0,0,1-3.86-5.13,16.71,16.71,0,0,1-1.63-6.36,10.75,10.75,0,0,0-3.78-7.35,10,10,0,0,0-7.35-2.32,18.6,18.6,0,0,1-7.21-1.07,19.16,19.16,0,0,1-6.36-3.81,19.33,19.33,0,0,1-6.21-12.12h-3.4A19.73,19.73,0,0,0,88,142.76a19.14,19.14,0,0,0,10.85,9.9,18.78,18.78,0,0,0,7.21,1.06A10.06,10.06,0,0,1,113.4,156a10.75,10.75,0,0,1,3.78,7.35,16.71,16.71,0,0,0,1.63,6.36,16.51,16.51,0,0,0,3.86,5.14,16.17,16.17,0,0,0,5.42,3.18,15.64,15.64,0,0,0,6.08.84,15.2,15.2,0,0,0,5.8-1.52,12.66,12.66,0,0,0,1.14-.63A15.25,15.25,0,0,1,137.43,177.46Z" style="fill:#249297"/></g><path d="M37.26,26.84C34.52,28.58,42,45.19,53.88,64S77.69,96.5,80.42,94.76,75.71,76.41,63.79,57.65,40,25.1,37.26,26.84Z" style="fill:#30c2c9;opacity:0.47000000000000003;mix-blend-mode:screen"/><ellipse cx="48.57" cy="70.18" rx="5.87" ry="40.24" transform="translate(-36.66 65.75) rotate(-52.34)" style="fill:#30c2c9;opacity:0.47000000000000003;mix-blend-mode:screen"/><ellipse cx="42.1" cy="82.49" rx="5.87" ry="40.24" transform="translate(-49.3 97.43) rotate(-72.25)" style="fill:#30c2c9;opacity:0.47000000000000003;mix-blend-mode:screen"/><ellipse cx="40.21" cy="96.27" rx="40.24" ry="5.87" transform="translate(-3.59 1.58) rotate(-2.15)" style="fill:#30c2c9;opacity:0.47000000000000003;mix-blend-mode:screen"/><path d="M5.83,125c1.22,3,18.91-1.32,39.5-9.67S81.64,97.77,80.42,94.76s-18.9,1.32-39.5,9.67S4.62,122,5.83,125Z" style="fill:#30c2c9;opacity:0.47000000000000003;mix-blend-mode:screen"/><path d="M153.1,26.84c2.74,1.74-4.71,18.35-16.63,37.11s-23.8,32.55-26.54,30.81,4.71-18.35,16.63-37.11S150.36,25.1,153.1,26.84Z" style="fill:#30c2c9;opacity:0.47000000000000003;mix-blend-mode:screen"/><path d="M173.65,45.59c2,2.57-10.68,15.66-28.27,29.23s-33.46,22.51-35.45,19.94S120.61,79.1,138.2,65.53,171.67,43,173.65,45.59Z" style="fill:#30c2c9;opacity:0.47000000000000003;mix-blend-mode:screen"/><path d="M186.58,70.22c1,3.09-15.37,11.09-36.53,17.86s-39.13,9.77-40.12,6.68S125.3,83.67,146.47,76.9,185.59,67.13,186.58,70.22Z" style="fill:#30c2c9;opacity:0.47000000000000003;mix-blend-mode:screen"/><ellipse cx="150.15" cy="96.27" rx="5.87" ry="40.24" transform="translate(48.3 242.69) rotate(-87.85)" style="fill:#30c2c9;opacity:0.47000000000000003;mix-blend-mode:screen"/><path d="M184.52,125c-1.22,3-18.9-1.32-39.5-9.67s-36.3-17.54-35.09-20.55,18.91,1.32,39.5,9.67S185.74,122,184.52,125Z" style="fill:#30c2c9;opacity:0.47000000000000003;mix-blend-mode:screen"/><rect x="62.37" y="157.11" width="3.76" height="12.52" rx="1.87" style="fill:#f84441"/><path d="M59.22,161.94h0a3.41,3.41,0,0,0,3.4-3.4V113.9a3.42,3.42,0,0,0-3.4-3.41h0a3.42,3.42,0,0,0-3.4,3.41v44.64A3.41,3.41,0,0,0,59.22,161.94Z" style="fill:url(#Degradado_sin_nombre_66-2)"/><path d="M59.22,110.49a3.31,3.31,0,0,0-1.22.24v36.71a3.4,3.4,0,0,1-2.18,3.16v7.94a3.4,3.4,0,1,0,6.8,0V113.9A3.42,3.42,0,0,0,59.22,110.49Z" style="fill:#249297;opacity:0.54;mix-blend-mode:multiply"/><rect x="52.31" y="158.88" width="4.21" height="13.02" rx="1.99" style="fill:#f84441"/><path d="M59.38,175h0a2.11,2.11,0,0,1-2.1-2.11V162.47a2.11,2.11,0,0,1,2.1-2.1h0a2.11,2.11,0,0,1,2.11,2.1V172.9A2.12,2.12,0,0,1,59.38,175Z" style="fill:#f84441"/><rect x="62.37" y="157.11" width="3.76" height="12.52" rx="1.87" style="fill:url(#Degradado_sin_nombre_66-3)"/><rect x="52.31" y="158.88" width="4.21" height="13.02" rx="1.99" style="fill:url(#Degradado_sin_nombre_66-4)"/><path d="M59.38,175h0a2.11,2.11,0,0,1-2.1-2.11V162.47a2.11,2.11,0,0,1,2.1-2.1h0a2.11,2.11,0,0,1,2.11,2.1V172.9A2.12,2.12,0,0,1,59.38,175Z" style="fill:url(#Degradado_sin_nombre_66-5)"/><path d="M59.22,166.71h0a6.9,6.9,0,0,1-6.88-6.88h0A6.9,6.9,0,0,1,59.22,153h0a6.9,6.9,0,0,1,6.88,6.87h0A6.9,6.9,0,0,1,59.22,166.71Z" style="fill:#651fe3"/><path d="M59.22,166.71h0a6.9,6.9,0,0,1-6.88-6.88h0A6.9,6.9,0,0,1,59.22,153h0a6.9,6.9,0,0,1,6.88,6.87h0A6.9,6.9,0,0,1,59.22,166.71Z" style="fill:#249297;opacity:0.54;mix-blend-mode:multiply"/><rect x="123.19" y="157.11" width="3.76" height="12.52" rx="1.87" transform="translate(250.13 326.74) rotate(180)" style="fill:#f84441"/><rect x="132.79" y="158.88" width="4.21" height="13.02" rx="1.99" transform="translate(269.8 330.77) rotate(180)" style="fill:#f84441"/><path d="M129.93,175h0a2.11,2.11,0,0,0,2.1-2.11V162.47a2.1,2.1,0,0,0-2.1-2.1h0a2.11,2.11,0,0,0-2.11,2.1V172.9A2.12,2.12,0,0,0,129.93,175Z" style="fill:#f84441"/><rect x="123.19" y="157.11" width="3.76" height="12.52" rx="1.87" transform="translate(250.13 326.74) rotate(180)" style="fill:url(#Degradado_sin_nombre_66-6)"/><rect x="132.79" y="158.88" width="4.21" height="13.02" rx="1.99" transform="translate(269.8 330.77) rotate(180)" style="fill:url(#Degradado_sin_nombre_66-7)"/><path d="M129.93,175h0a2.11,2.11,0,0,0,2.1-2.11V162.47a2.1,2.1,0,0,0-2.1-2.1h0a2.11,2.11,0,0,0-2.11,2.1V172.9A2.12,2.12,0,0,0,129.93,175Z" style="fill:url(#Degradado_sin_nombre_66-8)"/><path d="M130.09,161.94h0a3.41,3.41,0,0,1-3.4-3.4V113.9a3.42,3.42,0,0,1,3.4-3.41h0a3.42,3.42,0,0,1,3.41,3.41v44.64A3.41,3.41,0,0,1,130.09,161.94Z" style="fill:url(#Degradado_sin_nombre_66-9)"/><path d="M131.5,146.93V110.81a3.35,3.35,0,0,0-1.41-.32,3.42,3.42,0,0,0-3.4,3.41v44.64a3.41,3.41,0,0,0,6.81,0V150A3.4,3.4,0,0,1,131.5,146.93Z" style="fill:#249297;opacity:0.54;mix-blend-mode:multiply"/><path d="M129.93,166.71h0a6.9,6.9,0,0,1-6.88-6.88h0a6.9,6.9,0,0,1,6.88-6.87h0a6.9,6.9,0,0,1,6.88,6.87h0A6.9,6.9,0,0,1,129.93,166.71Z" style="fill:#651fe3"/><path d="M129.93,166.71h0a6.9,6.9,0,0,1-6.88-6.88h0a6.9,6.9,0,0,1,6.88-6.87h0a6.9,6.9,0,0,1,6.88,6.87h0A6.9,6.9,0,0,1,129.93,166.71Z" style="fill:#249297;opacity:0.54;mix-blend-mode:multiply"/><path d="M82,180.05h0A3.08,3.08,0,0,1,78.93,177V136.59A3.09,3.09,0,0,1,82,133.51h0a3.09,3.09,0,0,1,3.08,3.08V177A3.08,3.08,0,0,1,82,180.05Z" style="fill:url(#Degradado_sin_nombre_66-10)"/><path d="M106.25,180.05h0a3.09,3.09,0,0,1-3.08-3.08V136.59a3.09,3.09,0,0,1,3.08-3.08h0a3.09,3.09,0,0,1,3.08,3.08V177A3.09,3.09,0,0,1,106.25,180.05Z" style="fill:url(#Degradado_sin_nombre_66-11)"/><path d="M82,169.57h0a3.09,3.09,0,0,1-3.07-3.08V126.11A3.08,3.08,0,0,1,82,123h0a3.08,3.08,0,0,1,3.08,3.08v40.38A3.09,3.09,0,0,1,82,169.57Z" style="fill:#249297;opacity:0.54;mix-blend-mode:multiply"/><path d="M106.25,169.57h0a3.09,3.09,0,0,1-3.08-3.08V126.11a3.09,3.09,0,0,1,3.08-3.08h0a3.09,3.09,0,0,1,3.08,3.08v40.38A3.09,3.09,0,0,1,106.25,169.57Z" style="fill:#249297;opacity:0.54;mix-blend-mode:multiply"/><path d="M82.92,181.63H74a2.83,2.83,0,0,1-2.82-2.81h0A2.83,2.83,0,0,1,74,176h9a2.83,2.83,0,0,1,2.82,2.82h0A2.83,2.83,0,0,1,82.92,181.63Z" style="fill:#30c2c9"/><path d="M85.24,179h-9a2.82,2.82,0,0,1-2.81-2.81c0-.05,0-.09,0-.13a2.81,2.81,0,0,0,.49,5.58h9a2.81,2.81,0,0,0,2.8-2.69A2.44,2.44,0,0,1,85.24,179Z" style="fill:#249297;opacity:0.54;mix-blend-mode:multiply"/><path d="M81.36,181.63h-2.2a2.38,2.38,0,0,1-2.37-2.37h0a2.38,2.38,0,0,1,2.37-2.38h2.2a2.38,2.38,0,0,1,2.37,2.38h0A2.38,2.38,0,0,1,81.36,181.63Z" style="fill:#30c2c9"/><path d="M81.86,180.05h-2.2a2.38,2.38,0,0,1-2.36-2.25,2.42,2.42,0,0,0-.51,1.46,2.38,2.38,0,0,0,2.37,2.37h2.2a2.38,2.38,0,0,0,2.37-2.37s0-.09,0-.13A2.34,2.34,0,0,1,81.86,180.05Z" style="fill:#249297;opacity:0.54;mix-blend-mode:multiply"/><rect x="69.84" y="178.11" width="6.94" height="3.52" rx="1.76" style="fill:#30c2c9"/><path d="M75.45,179.87H72a1.77,1.77,0,0,1-1.67-1.23,1.75,1.75,0,0,0,1.25,3H75a1.76,1.76,0,0,0,1.76-1.76,1.9,1.9,0,0,0-.09-.53A1.73,1.73,0,0,1,75.45,179.87Z" style="fill:#249297;opacity:0.54;mix-blend-mode:multiply"/><path d="M104.14,181.63h9a2.83,2.83,0,0,0,2.82-2.81h0a2.83,2.83,0,0,0-2.82-2.82h-9a2.83,2.83,0,0,0-2.82,2.82h0A2.83,2.83,0,0,0,104.14,181.63Z" style="fill:#30c2c9"/><path d="M104.14,181.63h9a2.83,2.83,0,0,0,2.82-2.81h0a2.83,2.83,0,0,0-2.82-2.82h-9a2.83,2.83,0,0,0-2.82,2.82h0A2.83,2.83,0,0,0,104.14,181.63Z" style="fill:#249297;opacity:0.54;mix-blend-mode:multiply"/><path d="M114,176.18a2.9,2.9,0,0,1,.17.94h0a2.82,2.82,0,0,1-2.81,2.81h-9a2.9,2.9,0,0,1-.94-.17,2.82,2.82,0,0,0,2.64,1.87h9a2.81,2.81,0,0,0,1-5.45Z" style="fill:#249297;opacity:0.54;mix-blend-mode:multiply"/><path d="M105.7,181.63h2.2a2.38,2.38,0,0,0,2.37-2.37h0a2.38,2.38,0,0,0-2.37-2.38h-2.2a2.38,2.38,0,0,0-2.37,2.38h0A2.38,2.38,0,0,0,105.7,181.63Z" style="fill:#30c2c9"/><path d="M109.31,177.36a.68.68,0,0,1,0,.14,2.38,2.38,0,0,1-2.38,2.37h-2.19a2.34,2.34,0,0,1-1.42-.48,2.38,2.38,0,0,0,2.36,2.24h2.2a2.37,2.37,0,0,0,1.41-4.27Z" style="fill:#249297;opacity:0.54;mix-blend-mode:multiply"/><rect x="110.27" y="178.11" width="6.94" height="3.52" rx="1.76" transform="translate(227.49 359.74) rotate(-180)" style="fill:#30c2c9"/><path d="M116.42,178.4a1.77,1.77,0,0,1-1.76,1.74h-3.42a1.71,1.71,0,0,1-1-.3v0a1.76,1.76,0,0,0,1.76,1.76h3.43a1.76,1.76,0,0,0,1-3.23Z" style="fill:#249297;opacity:0.54;mix-blend-mode:multiply"/><ellipse cx="94.66" cy="118.15" rx="39.99" ry="26.61" style="fill:url(#Degradado_sin_nombre_66-12)"/><path d="M113.6,38.28l-2.84,0c.69.27,1.36.56,2,.86C113.05,38.87,113.32,38.57,113.6,38.28Z" style="fill:#30c2c9"/><path d="M74.51,38.66c.46.45.9.92,1.34,1.38,1-.51,2-1,3-1.42Z" style="fill:#30c2c9"/><path d="M94.8,35.54a43.39,43.39,0,0,0-15.91,3.08l31.87-.31A43.46,43.46,0,0,0,94.8,35.54Z" style="fill:#30c2c9"/><path d="M106.65,47.83a40.14,40.14,0,0,1,6.13-8.66c-.66-.3-1.33-.59-2-.86l-31.87.31c-1.06.44-2.07.91-3,1.42a40.54,40.54,0,0,1,6,8.42,44.09,44.09,0,0,1,13-2A44.85,44.85,0,0,1,106.65,47.83Z" style="fill:#30c2c9"/><path d="M95,57.29a46.1,46.1,0,0,1,8,.61,40.31,40.31,0,0,1,3.66-10.07A44.85,44.85,0,0,0,94.9,46.42a44.09,44.09,0,0,0-13,2,39.92,39.92,0,0,1,3.71,9.9A45.47,45.47,0,0,1,95,57.29Z" style="fill:#651fe3"/><path d="M107.08,86.13A45.67,45.67,0,0,1,82.17,86,40.79,40.79,0,0,1,76.3,94.5c.92.46,1.86.89,2.85,1.28a44.85,44.85,0,0,0,32.46-.32c.61-.25,1.2-.52,1.78-.81A40.42,40.42,0,0,1,107.08,86.13Z" style="fill:#651fe3"/><path d="M85.72,76a40.32,40.32,0,0,1-3.55,10,45.67,45.67,0,0,0,24.91.14,40,40,0,0,1-3.89-10A46,46,0,0,1,85.72,76Z" style="fill:#30c2c9"/><path d="M102.06,65.44a45.07,45.07,0,0,1-7,.6,45.36,45.36,0,0,1-8.52-.71A41,41,0,0,1,85.72,76a46,46,0,0,0,17.47.11A40.62,40.62,0,0,1,102.06,65.44Z" style="fill:#651fe3"/><path d="M85.57,58.36a41.23,41.23,0,0,1,1,7,45.36,45.36,0,0,0,8.52.71,45.07,45.07,0,0,0,7-.6A40.06,40.06,0,0,1,103,57.9a46.1,46.1,0,0,0-8-.61A45.47,45.47,0,0,0,85.57,58.36Z" style="fill:#30c2c9"/><path d="M82.92,181.63H74a2.83,2.83,0,0,1-2.82-2.81h0A2.83,2.83,0,0,1,74,176h9a2.83,2.83,0,0,1,2.82,2.82h0A2.83,2.83,0,0,1,82.92,181.63Z" style="fill:#249297;opacity:0.54;mix-blend-mode:multiply"/><path d="M115.86,138.89c-22.08,0-40-11.91-40-26.6,0-6,3-11.54,8-16,2.31-.4,8-8.36,9-10.42a40.15,40.15,0,0,0,3.54-10,40.91,40.91,0,0,0,.85-10.69A40.23,40.23,0,0,0,86.61,39.94c-.43-.47-.88-.93-1.34-1.38l4.38,0a41.8,41.8,0,0,1,10.53-2.71,50,50,0,0,0-5.38-.27,43.39,43.39,0,0,0-15.91,3.08l-4.38,0c.46.45.9.92,1.34,1.38a40.54,40.54,0,0,1,6,8.42,39.92,39.92,0,0,1,3.71,9.9A40.17,40.17,0,0,1,85.72,76a40.32,40.32,0,0,1-3.55,10A40.79,40.79,0,0,1,76.3,94.5h0c-12.86,4.43-21.65,13.36-21.65,23.65,0,14.7,17.9,26.61,40,26.61a53.38,53.38,0,0,0,25.29-6C118.61,138.85,117.24,138.89,115.86,138.89Z" style="fill:#249297;opacity:0.54;mix-blend-mode:multiply"/><path d="M119.89,16.93a15.13,15.13,0,0,0,2.43-5.47,14.13,14.13,0,0,0,.09-5.64,13.19,13.19,0,0,0-2-4.9c-.14-.21-.29-.42-.44-.62a.79.79,0,0,0-1.36.73c0,.2.11.41.15.62a10.51,10.51,0,0,1,0,4.25,9.6,9.6,0,0,1-1.53,3.61,8.86,8.86,0,0,1-2.55,2.42,3.8,3.8,0,0,0-1.3,5.11,3.72,3.72,0,0,0,5.12,1.26,3.91,3.91,0,0,0,1.09-1Z" style="fill:#fcedb6"/><path d="M122.41,5.82a13.19,13.19,0,0,0-2-4.9c-.14-.21-.29-.42-.44-.62a.87.87,0,0,0-.29-.23,13.42,13.42,0,0,1,1.14,3.41,14.08,14.08,0,0,1-.1,5.63,15,15,0,0,1-2.43,5.47l-.25.36A3.64,3.64,0,0,1,117,16a3.72,3.72,0,0,1-4-.07,3.65,3.65,0,0,0,.44,1.16,3.72,3.72,0,0,0,5.12,1.26,3.91,3.91,0,0,0,1.09-1l.25-.36a15.13,15.13,0,0,0,2.43-5.47A14.13,14.13,0,0,0,122.41,5.82Z" style="fill:#fada81"/><path d="M122.5,21.09c-1.09,1.79-5.16,1.31-9.08-1.08s-6.21-5.78-5.11-7.57,5.15-1.31,9.07,1.08S123.59,19.3,122.5,21.09Z" style="fill:#651fe3"/><path d="M69.44,16.93A15,15,0,0,1,67,11.46a14.13,14.13,0,0,1-.09-5.64,13.19,13.19,0,0,1,2-4.9c.14-.21.29-.42.44-.62A.79.79,0,0,1,70.71,1a6.23,6.23,0,0,0-.15.62,10.51,10.51,0,0,0,0,4.25,9.44,9.44,0,0,0,1.53,3.61,8.86,8.86,0,0,0,2.55,2.42A3.8,3.8,0,0,1,75.9,17a3.72,3.72,0,0,1-5.12,1.26,3.91,3.91,0,0,1-1.09-1Z" style="fill:#fcedb6"/><path d="M66.92,5.82a13.19,13.19,0,0,1,2-4.9c.14-.21.29-.42.44-.62a.87.87,0,0,1,.29-.23A13.42,13.42,0,0,0,68.5,3.48a14.08,14.08,0,0,0,.1,5.63A15,15,0,0,0,71,14.58l.25.36a3.64,3.64,0,0,0,1.09,1,3.72,3.72,0,0,0,4-.07A3.65,3.65,0,0,1,75.9,17a3.72,3.72,0,0,1-5.12,1.26,3.91,3.91,0,0,1-1.09-1l-.25-.36A15,15,0,0,1,67,11.46,14.13,14.13,0,0,1,66.92,5.82Z" style="fill:#fada81"/><path d="M66.83,21.09C67.92,22.88,72,22.4,75.9,20s6.21-5.78,5.12-7.57S75.87,11.13,72,13.52,65.74,19.3,66.83,21.09Z" style="fill:#651fe3"/><ellipse cx="95.1" cy="31.77" rx="31.09" ry="20.69" style="fill:url(#Degradado_sin_nombre_65)"/><path d="M95.1,46.57c-15.67,0-28.62-7.71-30.77-17.74A13.72,13.72,0,0,0,64,31.77C64,43.2,77.93,52.46,95.1,52.46s31.1-9.26,31.1-20.69a14.39,14.39,0,0,0-.32-2.94C123.73,38.86,110.77,46.57,95.1,46.57Z" style="fill:#d2e7e8;mix-blend-mode:multiply"/></g></g></g></svg>