<svg xmlns="http://www.w3.org/2000/svg" xmlns:xlink="http://www.w3.org/1999/xlink" viewBox="0 0 238.91 148.75"><defs><linearGradient id="Degradado_sin_nombre_4" x1="133.52" y1="59.03" x2="238.91" y2="59.03" gradientUnits="userSpaceOnUse"><stop offset="0.12" stop-color="#30c2c9"/><stop offset="0.23" stop-color="#39a8cd"/><stop offset="0.49" stop-color="#4c6dd6"/><stop offset="0.72" stop-color="#5943dd"/><stop offset="0.89" stop-color="#6229e1"/><stop offset="1" stop-color="#651fe3"/></linearGradient><linearGradient id="Degradado_sin_nombre_4-2" x1="212.98" y1="59.03" x2="318.37" y2="59.03" gradientTransform="matrix(-1, 0, 0, 1, 318.37, 0)" xlink:href="#Degradado_sin_nombre_4"/><linearGradient id="Degradado_sin_nombre_4-3" x1="145.04" y1="28.37" x2="169.98" y2="28.37" xlink:href="#Degradado_sin_nombre_4"/><linearGradient id="Degradado_sin_nombre_4-4" x1="69.96" y1="28.37" x2="94.9" y2="28.37" xlink:href="#Degradado_sin_nombre_4"/><linearGradient id="Degradado_sin_nombre_61" x1="-260.36" y1="103.74" x2="-260.36" y2="146.43" gradientTransform="matrix(1, 0, 0, -1, 354.05, 250.16)" gradientUnits="userSpaceOnUse"><stop offset="0.12" stop-color="#30c2c9"/><stop offset="0.31" stop-color="#31bfc9"/><stop offset="0.45" stop-color="#34b6cb"/><stop offset="0.57" stop-color="#39a6cd"/><stop offset="0.68" stop-color="#4090d1"/><stop offset="0.79" stop-color="#4a73d6"/><stop offset="0.89" stop-color="#5550db"/><stop offset="0.98" stop-color="#6227e2"/><stop offset="1" stop-color="#651fe3"/></linearGradient><linearGradient id="Degradado_sin_nombre_61-2" x1="-279.14" y1="103.74" x2="-279.14" y2="146.43" gradientTransform="matrix(1, 0, 0, -1, 391.61, 250.16)" xlink:href="#Degradado_sin_nombre_61"/><linearGradient id="Degradado_sin_nombre_61-3" x1="-313.5" y1="103.74" x2="-313.5" y2="146.43" gradientTransform="matrix(1, 0, 0, -1, 460.34, 250.16)" xlink:href="#Degradado_sin_nombre_61"/><linearGradient id="Degradado_sin_nombre_61-4" x1="-294.29" y1="103.74" x2="-294.29" y2="146.43" gradientTransform="matrix(1, 0, 0, -1, 421.91, 250.16)" xlink:href="#Degradado_sin_nombre_61"/><linearGradient id="Degradado_sin_nombre_4-5" x1="135.64" y1="-1071.73" x2="135.64" y2="-1072.33" gradientTransform="translate(259.91 -976.85) rotate(180)" xlink:href="#Degradado_sin_nombre_4"/><linearGradient id="Degradado_sin_nombre_4-6" x1="125.8" y1="-1071.73" x2="125.8" y2="-1072.33" gradientTransform="translate(259.91 -976.85) rotate(180)" xlink:href="#Degradado_sin_nombre_4"/><linearGradient id="Degradado_sin_nombre_4-7" x1="96.4" y1="-1055.27" x2="96.4" y2="-1055.88" gradientTransform="translate(259.91 -976.85) rotate(180)" xlink:href="#Degradado_sin_nombre_4"/><linearGradient id="Degradado_sin_nombre_4-8" x1="125.8" y1="-1088.19" x2="125.8" y2="-1088.79" gradientTransform="translate(259.91 -976.85) rotate(180)" xlink:href="#Degradado_sin_nombre_4"/><linearGradient id="Degradado_sin_nombre_4-9" x1="106.23" y1="-1055.27" x2="106.23" y2="-1055.88" gradientTransform="translate(259.91 -976.85) rotate(180)" xlink:href="#Degradado_sin_nombre_4"/><linearGradient id="Degradado_sin_nombre_4-10" x1="106.23" y1="-1071.73" x2="106.23" y2="-1072.33" gradientTransform="translate(259.91 -976.85) rotate(180)" xlink:href="#Degradado_sin_nombre_4"/><linearGradient id="Degradado_sin_nombre_4-11" x1="145.47" y1="-1038.82" x2="145.47" y2="-1039.42" gradientTransform="translate(259.91 -976.85) rotate(180)" xlink:href="#Degradado_sin_nombre_4"/><linearGradient id="Degradado_sin_nombre_4-12" x1="125.8" y1="-1022.36" x2="125.8" y2="-1022.96" gradientTransform="translate(259.91 -976.85) rotate(180)" xlink:href="#Degradado_sin_nombre_4"/><linearGradient id="Degradado_sin_nombre_4-13" x1="145.47" y1="-1022.36" x2="145.47" y2="-1022.96" gradientTransform="translate(259.91 -976.85) rotate(180)" xlink:href="#Degradado_sin_nombre_4"/><linearGradient id="Degradado_sin_nombre_4-14" x1="106.23" y1="-1022.36" x2="106.23" y2="-1022.96" gradientTransform="translate(259.91 -976.85) rotate(180)" xlink:href="#Degradado_sin_nombre_4"/><linearGradient id="Degradado_sin_nombre_4-15" x1="96.4" y1="-1022.36" x2="96.4" y2="-1022.96" gradientTransform="translate(259.91 -976.85) rotate(180)" xlink:href="#Degradado_sin_nombre_4"/><linearGradient id="Degradado_sin_nombre_4-16" x1="86.6" y1="-1022.36" x2="86.6" y2="-1022.96" gradientTransform="translate(259.91 -976.85) rotate(180)" xlink:href="#Degradado_sin_nombre_4"/><linearGradient id="Degradado_sin_nombre_4-17" x1="106.23" y1="-1005.9" x2="106.23" y2="-1006.51" gradientTransform="translate(259.91 -976.85) rotate(180)" xlink:href="#Degradado_sin_nombre_4"/><linearGradient id="Degradado_sin_nombre_4-18" x1="125.8" y1="-1055.27" x2="125.8" y2="-1055.88" gradientTransform="translate(259.91 -976.85) rotate(180)" xlink:href="#Degradado_sin_nombre_4"/><linearGradient id="Degradado_sin_nombre_4-19" x1="125.8" y1="-1005.9" x2="125.8" y2="-1006.51" gradientTransform="translate(259.91 -976.85) rotate(180)" xlink:href="#Degradado_sin_nombre_4"/><linearGradient id="Degradado_sin_nombre_4-20" x1="135.64" y1="-1038.82" x2="135.64" y2="-1039.42" gradientTransform="translate(259.91 -976.85) rotate(180)" xlink:href="#Degradado_sin_nombre_4"/><linearGradient id="Degradado_sin_nombre_4-21" x1="135.64" y1="-1022.36" x2="135.64" y2="-1022.96" gradientTransform="translate(259.91 -976.85) rotate(180)" xlink:href="#Degradado_sin_nombre_4"/><linearGradient id="Degradado_sin_nombre_4-22" x1="135.64" y1="-1005.9" x2="135.64" y2="-1006.51" gradientTransform="translate(259.91 -976.85) rotate(180)" xlink:href="#Degradado_sin_nombre_4"/><linearGradient id="Degradado_sin_nombre_4-23" x1="86.6" y1="-1038.82" x2="86.6" y2="-1039.42" gradientTransform="translate(259.91 -976.85) rotate(180)" xlink:href="#Degradado_sin_nombre_4"/><linearGradient id="Degradado_sin_nombre_4-24" x1="106.23" y1="-1038.82" x2="106.23" y2="-1039.42" gradientTransform="translate(259.91 -976.85) rotate(180)" xlink:href="#Degradado_sin_nombre_4"/><linearGradient id="Degradado_sin_nombre_4-25" x1="96.4" y1="-1038.82" x2="96.4" y2="-1039.42" gradientTransform="translate(259.91 -976.85) rotate(180)" xlink:href="#Degradado_sin_nombre_4"/><linearGradient id="Degradado_sin_nombre_4-26" x1="135.64" y1="-1055.27" x2="135.64" y2="-1055.88" gradientTransform="translate(259.91 -976.85) rotate(180)" xlink:href="#Degradado_sin_nombre_4"/><linearGradient id="Degradado_sin_nombre_4-27" x1="145.47" y1="-1055.27" x2="145.47" y2="-1055.88" gradientTransform="translate(259.91 -976.85) rotate(180)" xlink:href="#Degradado_sin_nombre_4"/><linearGradient id="Degradado_sin_nombre_4-28" x1="125.8" y1="-1038.82" x2="125.8" y2="-1039.42" gradientTransform="translate(259.91 -976.85) rotate(180)" xlink:href="#Degradado_sin_nombre_4"/><linearGradient id="Degradado_sin_nombre_4-29" x1="120.93" y1="-997.82" x2="120.93" y2="-1005.9" gradientTransform="translate(259.91 -976.85) rotate(180)" xlink:href="#Degradado_sin_nombre_4"/><linearGradient id="Degradado_sin_nombre_4-30" x1="120" y1="-999.8" x2="120" y2="-1014.03" gradientTransform="translate(259.91 -976.85) rotate(180)" xlink:href="#Degradado_sin_nombre_4"/><linearGradient id="Degradado_sin_nombre_4-31" x1="86.54" y1="-1021.02" x2="86.54" y2="-1022.36" gradientTransform="translate(259.91 -976.85) rotate(180)" xlink:href="#Degradado_sin_nombre_4"/><linearGradient id="Degradado_sin_nombre_4-32" x1="120.93" y1="-1007.32" x2="120.93" y2="-1022.36" gradientTransform="translate(259.91 -976.85) rotate(180)" xlink:href="#Degradado_sin_nombre_4"/><linearGradient id="Degradado_sin_nombre_4-33" x1="120.6" y1="-1016.26" x2="120.6" y2="-1030.48" gradientTransform="translate(259.91 -976.85) rotate(180)" xlink:href="#Degradado_sin_nombre_4"/><linearGradient id="Degradado_sin_nombre_4-34" x1="120.9" y1="-1023.78" x2="120.9" y2="-1038.82" gradientTransform="translate(259.91 -976.85) rotate(180)" xlink:href="#Degradado_sin_nombre_4"/><linearGradient id="Degradado_sin_nombre_4-35" x1="120.93" y1="-1032.72" x2="120.93" y2="-1046.94" gradientTransform="translate(259.91 -976.85) rotate(180)" xlink:href="#Degradado_sin_nombre_4"/><linearGradient id="Degradado_sin_nombre_4-36" x1="121.11" y1="-1040.24" x2="121.11" y2="-1055.27" gradientTransform="translate(259.91 -976.85) rotate(180)" xlink:href="#Degradado_sin_nombre_4"/><linearGradient id="Degradado_sin_nombre_4-37" x1="120.93" y1="-1049.17" x2="120.93" y2="-1063.4" gradientTransform="translate(259.91 -976.85) rotate(180)" xlink:href="#Degradado_sin_nombre_4"/><linearGradient id="Degradado_sin_nombre_4-38" x1="120.85" y1="-1056.69" x2="120.85" y2="-1071.73" gradientTransform="translate(259.91 -976.85) rotate(180)" xlink:href="#Degradado_sin_nombre_4"/><linearGradient id="Degradado_sin_nombre_4-39" x1="120.93" y1="-1065.63" x2="120.93" y2="-1079.85" gradientTransform="translate(259.91 -976.85) rotate(180)" xlink:href="#Degradado_sin_nombre_4"/><linearGradient id="Degradado_sin_nombre_4-40" x1="121.05" y1="-1073.15" x2="121.05" y2="-1088.19" gradientTransform="translate(259.91 -976.85) rotate(180)" xlink:href="#Degradado_sin_nombre_4"/><linearGradient id="Degradado_sin_nombre_4-41" x1="120.93" y1="-1082.09" x2="120.93" y2="-1093.53" gradientTransform="translate(259.91 -976.85) rotate(180)" xlink:href="#Degradado_sin_nombre_4"/><linearGradient id="Degradado_sin_nombre_4-79" x1="172.66" y1="-1071.73" x2="172.66" y2="-1072.33" gradientTransform="translate(259.91 -976.85) rotate(180)" xlink:href="#Degradado_sin_nombre_4"/><linearGradient id="Degradado_sin_nombre_4-80" x1="162.82" y1="-1071.73" x2="162.82" y2="-1072.33" gradientTransform="translate(259.91 -976.85) rotate(180)" xlink:href="#Degradado_sin_nombre_4"/><linearGradient id="Degradado_sin_nombre_4-81" x1="133.42" y1="-1055.27" x2="133.42" y2="-1055.88" gradientTransform="translate(259.91 -976.85) rotate(180)" xlink:href="#Degradado_sin_nombre_4"/><linearGradient id="Degradado_sin_nombre_4-82" x1="162.82" y1="-1088.19" x2="162.82" y2="-1088.79" gradientTransform="translate(259.91 -976.85) rotate(180)" xlink:href="#Degradado_sin_nombre_4"/><linearGradient id="Degradado_sin_nombre_4-83" x1="143.25" y1="-1055.27" x2="143.25" y2="-1055.88" gradientTransform="translate(259.91 -976.85) rotate(180)" xlink:href="#Degradado_sin_nombre_4"/><linearGradient id="Degradado_sin_nombre_4-84" x1="143.25" y1="-1071.73" x2="143.25" y2="-1072.33" gradientTransform="translate(259.91 -976.85) rotate(180)" xlink:href="#Degradado_sin_nombre_4"/><linearGradient id="Degradado_sin_nombre_4-85" x1="182.49" y1="-1038.82" x2="182.49" y2="-1039.42" gradientTransform="translate(259.91 -976.85) rotate(180)" xlink:href="#Degradado_sin_nombre_4"/><linearGradient id="Degradado_sin_nombre_4-86" x1="162.82" y1="-1022.36" x2="162.82" y2="-1022.96" gradientTransform="translate(259.91 -976.85) rotate(180)" xlink:href="#Degradado_sin_nombre_4"/><linearGradient id="Degradado_sin_nombre_4-87" x1="182.49" y1="-1022.36" x2="182.49" y2="-1022.96" gradientTransform="translate(259.91 -976.85) rotate(180)" xlink:href="#Degradado_sin_nombre_4"/><linearGradient id="Degradado_sin_nombre_4-88" x1="143.25" y1="-1022.36" x2="143.25" y2="-1022.96" gradientTransform="translate(259.91 -976.85) rotate(180)" xlink:href="#Degradado_sin_nombre_4"/><linearGradient id="Degradado_sin_nombre_4-89" x1="133.42" y1="-1022.36" x2="133.42" y2="-1022.96" gradientTransform="translate(259.91 -976.85) rotate(180)" xlink:href="#Degradado_sin_nombre_4"/><linearGradient id="Degradado_sin_nombre_4-90" x1="123.62" y1="-1022.36" x2="123.62" y2="-1022.96" gradientTransform="translate(259.91 -976.85) rotate(180)" xlink:href="#Degradado_sin_nombre_4"/><linearGradient id="Degradado_sin_nombre_4-91" x1="143.25" y1="-1005.9" x2="143.25" y2="-1006.51" gradientTransform="translate(259.91 -976.85) rotate(180)" xlink:href="#Degradado_sin_nombre_4"/><linearGradient id="Degradado_sin_nombre_4-92" x1="162.82" y1="-1055.27" x2="162.82" y2="-1055.88" gradientTransform="translate(259.91 -976.85) rotate(180)" xlink:href="#Degradado_sin_nombre_4"/><linearGradient id="Degradado_sin_nombre_4-93" x1="162.82" y1="-1005.9" x2="162.82" y2="-1006.51" gradientTransform="translate(259.91 -976.85) rotate(180)" xlink:href="#Degradado_sin_nombre_4"/><linearGradient id="Degradado_sin_nombre_4-94" x1="172.66" y1="-1038.82" x2="172.66" y2="-1039.42" gradientTransform="translate(259.91 -976.85) rotate(180)" xlink:href="#Degradado_sin_nombre_4"/><linearGradient id="Degradado_sin_nombre_4-95" x1="172.66" y1="-1022.36" x2="172.66" y2="-1022.96" gradientTransform="translate(259.91 -976.85) rotate(180)" xlink:href="#Degradado_sin_nombre_4"/><linearGradient id="Degradado_sin_nombre_4-96" x1="172.66" y1="-1005.9" x2="172.66" y2="-1006.51" gradientTransform="translate(259.91 -976.85) rotate(180)" xlink:href="#Degradado_sin_nombre_4"/><linearGradient id="Degradado_sin_nombre_4-97" x1="123.62" y1="-1038.82" x2="123.62" y2="-1039.42" gradientTransform="translate(259.91 -976.85) rotate(180)" xlink:href="#Degradado_sin_nombre_4"/><linearGradient id="Degradado_sin_nombre_4-98" x1="143.25" y1="-1038.82" x2="143.25" y2="-1039.42" gradientTransform="translate(259.91 -976.85) rotate(180)" xlink:href="#Degradado_sin_nombre_4"/><linearGradient id="Degradado_sin_nombre_4-99" x1="133.42" y1="-1038.82" x2="133.42" y2="-1039.42" gradientTransform="translate(259.91 -976.85) rotate(180)" xlink:href="#Degradado_sin_nombre_4"/><linearGradient id="Degradado_sin_nombre_4-100" x1="172.66" y1="-1055.27" x2="172.66" y2="-1055.88" gradientTransform="translate(259.91 -976.85) rotate(180)" xlink:href="#Degradado_sin_nombre_4"/><linearGradient id="Degradado_sin_nombre_4-101" x1="182.49" y1="-1055.27" x2="182.49" y2="-1055.88" gradientTransform="translate(259.91 -976.85) rotate(180)" xlink:href="#Degradado_sin_nombre_4"/><linearGradient id="Degradado_sin_nombre_4-102" x1="162.82" y1="-1038.82" x2="162.82" y2="-1039.42" gradientTransform="translate(259.91 -976.85) rotate(180)" xlink:href="#Degradado_sin_nombre_4"/><linearGradient id="Degradado_sin_nombre_4-103" x1="157.95" y1="-997.82" x2="157.95" y2="-1005.9" gradientTransform="translate(259.91 -976.85) rotate(180)" xlink:href="#Degradado_sin_nombre_4"/><linearGradient id="Degradado_sin_nombre_4-104" x1="157.02" y1="-999.8" x2="157.02" y2="-1014.03" gradientTransform="translate(259.91 -976.85) rotate(180)" xlink:href="#Degradado_sin_nombre_4"/><linearGradient id="Degradado_sin_nombre_4-105" x1="123.56" y1="-1021.02" x2="123.56" y2="-1022.36" gradientTransform="translate(259.91 -976.85) rotate(180)" xlink:href="#Degradado_sin_nombre_4"/><linearGradient id="Degradado_sin_nombre_4-106" x1="157.95" y1="-1007.32" x2="157.95" y2="-1022.36" gradientTransform="translate(259.91 -976.85) rotate(180)" xlink:href="#Degradado_sin_nombre_4"/><linearGradient id="Degradado_sin_nombre_4-107" x1="157.62" y1="-1016.26" x2="157.62" y2="-1030.48" gradientTransform="translate(259.91 -976.85) rotate(180)" xlink:href="#Degradado_sin_nombre_4"/><linearGradient id="Degradado_sin_nombre_4-108" x1="157.92" y1="-1023.78" x2="157.92" y2="-1038.82" gradientTransform="translate(259.91 -976.85) rotate(180)" xlink:href="#Degradado_sin_nombre_4"/><linearGradient id="Degradado_sin_nombre_4-109" x1="157.95" y1="-1032.72" x2="157.95" y2="-1046.94" gradientTransform="translate(259.91 -976.85) rotate(180)" xlink:href="#Degradado_sin_nombre_4"/><linearGradient id="Degradado_sin_nombre_4-110" x1="158.13" y1="-1040.24" x2="158.13" y2="-1055.27" gradientTransform="translate(259.91 -976.85) rotate(180)" xlink:href="#Degradado_sin_nombre_4"/><linearGradient id="Degradado_sin_nombre_4-111" x1="157.95" y1="-1049.17" x2="157.95" y2="-1063.4" gradientTransform="translate(259.91 -976.85) rotate(180)" xlink:href="#Degradado_sin_nombre_4"/><linearGradient id="Degradado_sin_nombre_4-112" x1="157.87" y1="-1056.69" x2="157.87" y2="-1071.73" gradientTransform="translate(259.91 -976.85) rotate(180)" xlink:href="#Degradado_sin_nombre_4"/><linearGradient id="Degradado_sin_nombre_4-113" x1="157.95" y1="-1065.63" x2="157.95" y2="-1079.85" gradientTransform="translate(259.91 -976.85) rotate(180)" xlink:href="#Degradado_sin_nombre_4"/><linearGradient id="Degradado_sin_nombre_4-114" x1="158.07" y1="-1073.15" x2="158.07" y2="-1088.19" gradientTransform="translate(259.91 -976.85) rotate(180)" xlink:href="#Degradado_sin_nombre_4"/><linearGradient id="Degradado_sin_nombre_4-115" x1="157.95" y1="-1082.09" x2="157.95" y2="-1093.53" gradientTransform="translate(259.91 -976.85) rotate(180)" xlink:href="#Degradado_sin_nombre_4"/><linearGradient id="Degradado_sin_nombre_4-116" x1="155.67" y1="-1071.73" x2="155.67" y2="-1072.33" gradientTransform="translate(259.91 -976.85) rotate(180)" xlink:href="#Degradado_sin_nombre_4"/><linearGradient id="Degradado_sin_nombre_4-117" x1="145.84" y1="-1071.73" x2="145.84" y2="-1072.33" gradientTransform="translate(259.91 -976.85) rotate(180)" xlink:href="#Degradado_sin_nombre_4"/><linearGradient id="Degradado_sin_nombre_4-118" x1="116.44" y1="-1055.27" x2="116.44" y2="-1055.88" gradientTransform="translate(259.91 -976.85) rotate(180)" xlink:href="#Degradado_sin_nombre_4"/><linearGradient id="Degradado_sin_nombre_4-119" x1="145.84" y1="-1088.19" x2="145.84" y2="-1088.79" gradientTransform="translate(259.91 -976.85) rotate(180)" xlink:href="#Degradado_sin_nombre_4"/><linearGradient id="Degradado_sin_nombre_4-120" x1="126.27" y1="-1055.27" x2="126.27" y2="-1055.88" gradientTransform="translate(259.91 -976.85) rotate(180)" xlink:href="#Degradado_sin_nombre_4"/><linearGradient id="Degradado_sin_nombre_4-121" x1="126.27" y1="-1071.73" x2="126.27" y2="-1072.33" gradientTransform="translate(259.91 -976.85) rotate(180)" xlink:href="#Degradado_sin_nombre_4"/><linearGradient id="Degradado_sin_nombre_4-122" x1="165.51" y1="-1038.82" x2="165.51" y2="-1039.42" gradientTransform="translate(259.91 -976.85) rotate(180)" xlink:href="#Degradado_sin_nombre_4"/><linearGradient id="Degradado_sin_nombre_4-123" x1="145.84" y1="-1022.36" x2="145.84" y2="-1022.96" gradientTransform="translate(259.91 -976.85) rotate(180)" xlink:href="#Degradado_sin_nombre_4"/><linearGradient id="Degradado_sin_nombre_4-124" x1="165.51" y1="-1022.36" x2="165.51" y2="-1022.96" gradientTransform="translate(259.91 -976.85) rotate(180)" xlink:href="#Degradado_sin_nombre_4"/><linearGradient id="Degradado_sin_nombre_4-125" x1="126.27" y1="-1022.36" x2="126.27" y2="-1022.96" gradientTransform="translate(259.91 -976.85) rotate(180)" xlink:href="#Degradado_sin_nombre_4"/><linearGradient id="Degradado_sin_nombre_4-126" x1="116.44" y1="-1022.36" x2="116.44" y2="-1022.96" gradientTransform="translate(259.91 -976.85) rotate(180)" xlink:href="#Degradado_sin_nombre_4"/><linearGradient id="Degradado_sin_nombre_4-127" x1="106.63" y1="-1022.36" x2="106.63" y2="-1022.96" gradientTransform="translate(259.91 -976.85) rotate(180)" xlink:href="#Degradado_sin_nombre_4"/><linearGradient id="Degradado_sin_nombre_4-128" x1="126.27" y1="-1005.9" x2="126.27" y2="-1006.51" gradientTransform="translate(259.91 -976.85) rotate(180)" xlink:href="#Degradado_sin_nombre_4"/><linearGradient id="Degradado_sin_nombre_4-129" x1="145.84" y1="-1055.27" x2="145.84" y2="-1055.88" gradientTransform="translate(259.91 -976.85) rotate(180)" xlink:href="#Degradado_sin_nombre_4"/><linearGradient id="Degradado_sin_nombre_4-130" x1="145.84" y1="-1005.9" x2="145.84" y2="-1006.51" gradientTransform="translate(259.91 -976.85) rotate(180)" xlink:href="#Degradado_sin_nombre_4"/><linearGradient id="Degradado_sin_nombre_4-131" x1="155.67" y1="-1038.82" x2="155.67" y2="-1039.42" gradientTransform="translate(259.91 -976.85) rotate(180)" xlink:href="#Degradado_sin_nombre_4"/><linearGradient id="Degradado_sin_nombre_4-132" x1="155.67" y1="-1022.36" x2="155.67" y2="-1022.96" gradientTransform="translate(259.91 -976.85) rotate(180)" xlink:href="#Degradado_sin_nombre_4"/><linearGradient id="Degradado_sin_nombre_4-133" x1="155.67" y1="-1005.9" x2="155.67" y2="-1006.51" gradientTransform="translate(259.91 -976.85) rotate(180)" xlink:href="#Degradado_sin_nombre_4"/><linearGradient id="Degradado_sin_nombre_4-134" x1="106.63" y1="-1038.82" x2="106.63" y2="-1039.42" gradientTransform="translate(259.91 -976.85) rotate(180)" xlink:href="#Degradado_sin_nombre_4"/><linearGradient id="Degradado_sin_nombre_4-135" x1="126.27" y1="-1038.82" x2="126.27" y2="-1039.42" gradientTransform="translate(259.91 -976.85) rotate(180)" xlink:href="#Degradado_sin_nombre_4"/><linearGradient id="Degradado_sin_nombre_4-136" x1="116.44" y1="-1038.82" x2="116.44" y2="-1039.42" gradientTransform="translate(259.91 -976.85) rotate(180)" xlink:href="#Degradado_sin_nombre_4"/><linearGradient id="Degradado_sin_nombre_4-137" x1="155.67" y1="-1055.27" x2="155.67" y2="-1055.88" gradientTransform="translate(259.91 -976.85) rotate(180)" xlink:href="#Degradado_sin_nombre_4"/><linearGradient id="Degradado_sin_nombre_4-138" x1="165.51" y1="-1055.27" x2="165.51" y2="-1055.88" gradientTransform="translate(259.91 -976.85) rotate(180)" xlink:href="#Degradado_sin_nombre_4"/><linearGradient id="Degradado_sin_nombre_4-139" x1="145.84" y1="-1038.82" x2="145.84" y2="-1039.42" gradientTransform="translate(259.91 -976.85) rotate(180)" xlink:href="#Degradado_sin_nombre_4"/><linearGradient id="Degradado_sin_nombre_4-140" x1="140.97" y1="-997.82" x2="140.97" y2="-1005.9" gradientTransform="translate(259.91 -976.85) rotate(180)" xlink:href="#Degradado_sin_nombre_4"/><linearGradient id="Degradado_sin_nombre_4-141" x1="140.04" y1="-999.8" x2="140.04" y2="-1014.03" gradientTransform="translate(259.91 -976.85) rotate(180)" xlink:href="#Degradado_sin_nombre_4"/><linearGradient id="Degradado_sin_nombre_4-142" x1="106.57" y1="-1021.02" x2="106.57" y2="-1022.36" gradientTransform="translate(259.91 -976.85) rotate(180)" xlink:href="#Degradado_sin_nombre_4"/><linearGradient id="Degradado_sin_nombre_4-143" x1="140.97" y1="-1007.32" x2="140.97" y2="-1022.36" gradientTransform="translate(259.91 -976.85) rotate(180)" xlink:href="#Degradado_sin_nombre_4"/><linearGradient id="Degradado_sin_nombre_4-144" x1="140.64" y1="-1016.26" x2="140.64" y2="-1030.48" gradientTransform="translate(259.91 -976.85) rotate(180)" xlink:href="#Degradado_sin_nombre_4"/><linearGradient id="Degradado_sin_nombre_4-145" x1="140.94" y1="-1023.78" x2="140.94" y2="-1038.82" gradientTransform="translate(259.91 -976.85) rotate(180)" xlink:href="#Degradado_sin_nombre_4"/><linearGradient id="Degradado_sin_nombre_4-146" x1="140.96" y1="-1032.72" x2="140.96" y2="-1046.94" gradientTransform="translate(259.91 -976.85) rotate(180)" xlink:href="#Degradado_sin_nombre_4"/><linearGradient id="Degradado_sin_nombre_4-147" x1="141.15" y1="-1040.24" x2="141.15" y2="-1055.27" gradientTransform="translate(259.91 -976.85) rotate(180)" xlink:href="#Degradado_sin_nombre_4"/><linearGradient id="Degradado_sin_nombre_4-148" x1="140.97" y1="-1049.17" x2="140.97" y2="-1063.4" gradientTransform="translate(259.91 -976.85) rotate(180)" xlink:href="#Degradado_sin_nombre_4"/><linearGradient id="Degradado_sin_nombre_4-149" x1="140.89" y1="-1056.69" x2="140.89" y2="-1071.73" gradientTransform="translate(259.91 -976.85) rotate(180)" xlink:href="#Degradado_sin_nombre_4"/><linearGradient id="Degradado_sin_nombre_4-150" x1="140.97" y1="-1065.63" x2="140.97" y2="-1079.85" gradientTransform="translate(259.91 -976.85) rotate(180)" xlink:href="#Degradado_sin_nombre_4"/><linearGradient id="Degradado_sin_nombre_4-151" x1="141.08" y1="-1073.15" x2="141.08" y2="-1088.19" gradientTransform="translate(259.91 -976.85) rotate(180)" xlink:href="#Degradado_sin_nombre_4"/><linearGradient id="Degradado_sin_nombre_4-152" x1="140.97" y1="-1082.09" x2="140.97" y2="-1093.53" gradientTransform="translate(259.91 -976.85) rotate(180)" xlink:href="#Degradado_sin_nombre_4"/></defs><g style="isolation:isolate"><g id="Layer_2" data-name="Layer 2"><g id="OBJECTS"><path d="M238.91,49.15a53.55,53.55,0,0,0-25.25,34.34s-24-8.34-42.13,6.43c0,0-17.94-20.58-38-22.9,0,0,39.2-.84,46.75-23.56,0,0,11.87-17.72,22.71-15S225.53,30.56,238.91,49.15Z" style="fill:url(#Degradado_sin_nombre_4)"/><path d="M229.06,38.35A54.07,54.07,0,0,0,210.62,68s-24-8.34-42.13,6.43a90.23,90.23,0,0,0-12.41-11.29A91.27,91.27,0,0,1,133.52,67c20.07,2.32,38,22.9,38,22.9,18.12-14.77,42.13-6.43,42.13-6.43a53.55,53.55,0,0,1,25.25-34.34A56.64,56.64,0,0,0,229.06,38.35Z" style="fill:#c5479b;opacity:0.39;mix-blend-mode:multiply"/><path d="M214,33.84a37.38,37.38,0,0,1,13.76,5,38.69,38.69,0,0,1,11.15,10.29,39.88,39.88,0,0,0-9.59-12.4,41.26,41.26,0,0,0-14.07-8,42.44,42.44,0,0,0-16.56-2,43.63,43.63,0,0,0-14,3.44,5.25,5.25,0,0,0-3.26,1,5.49,5.49,0,0,0-1,1.06A5.32,5.32,0,0,0,179.13,35a5.25,5.25,0,0,0,0,1.68,34.16,34.16,0,0,1-40.71,22.93,5.25,5.25,0,1,0-2.51,10.2,44.7,44.7,0,0,0,49.5-21.38c.27.82.53,1.65.74,2.49A36.19,36.19,0,0,1,186.83,65a37.45,37.45,0,0,1-5,13.76,38.78,38.78,0,0,1-10.28,11.15,40.27,40.27,0,0,0,12.4-9.59,41.36,41.36,0,0,0,8-14.07,42.75,42.75,0,0,0,1.17-22.48,34,34,0,0,1,3.32,1.75,36.1,36.1,0,0,1,10.45,9.52,37.42,37.42,0,0,1,6.18,13.29,38.7,38.7,0,0,1,.61,15.15,40.21,40.21,0,0,0,2-15.55,41.44,41.44,0,0,0-4.29-15.61,42.57,42.57,0,0,0-10.28-13.15,44.45,44.45,0,0,0-4.79-3.57A35.42,35.42,0,0,1,214,33.84Z" style="fill:#fdb536"/><path d="M185.44,48.39c-.21-.85-1.51-2.57-1.79-3.39a44.7,44.7,0,0,1-49.5,21.38A5.23,5.23,0,0,1,132,65.26a5.24,5.24,0,0,0,4,4.51,44.68,44.68,0,0,0,48.87-20.32C184.69,48.79,185.6,49,185.44,48.39Z" style="fill:#bd7a03"/><path d="M206.87,55.05c.7,1,1.36,2,2,3a37.17,37.17,0,0,0-3.76-6.37,36.1,36.1,0,0,0-10.45-9.52,34,34,0,0,0-3.32-1.75,42.78,42.78,0,0,1-1.17,22.48A41.09,41.09,0,0,1,184,74.66a36.52,36.52,0,0,1-2.15,4.11,38.78,38.78,0,0,1-10.28,11.15,40.27,40.27,0,0,0,12.4-9.59,41.36,41.36,0,0,0,8-14.07,42.75,42.75,0,0,0,1.17-22.48,34,34,0,0,1,3.32,1.75A36.1,36.1,0,0,1,206.87,55.05Z" style="fill:#bd7a03"/><path d="M211.36,52.33c-.41-.82-.87-1.63-1.34-2.44a41.27,41.27,0,0,1,3.84,14.66,39.77,39.77,0,0,1-.15,7.16,39.11,39.11,0,0,1-.05,11.78,40.21,40.21,0,0,0,2-15.55A41.44,41.44,0,0,0,211.36,52.33Z" style="fill:#eb9915"/><path d="M236.35,44.76A38.58,38.58,0,0,0,226,35.48a37.32,37.32,0,0,0-13.77-5,35.32,35.32,0,0,0-17.71,1.76c-1.4,1.29-.26,3.41,1.79,3.39.53-.16,3-1,3.58-1.11A36.2,36.2,0,0,1,214,33.84a37.38,37.38,0,0,1,13.76,5,38.69,38.69,0,0,1,11.15,10.29A38.62,38.62,0,0,0,236.35,44.76Z" style="fill:#bd7a03"/><path d="M0,49.15A53.51,53.51,0,0,1,25.24,83.49s24-8.34,42.14,6.43c0,0,17.94-20.58,38-22.9,0,0-39.2-.84-46.76-23.56,0,0-11.87-17.72-22.7-15S13.38,30.56,0,49.15Z" style="fill:url(#Degradado_sin_nombre_4-2)"/><path d="M9.85,38.35A54.07,54.07,0,0,1,28.29,68s24-8.34,42.13,6.43A90.23,90.23,0,0,1,82.83,63.16,91.2,91.2,0,0,0,105.39,67c-20.07,2.32-38,22.9-38,22.9-18.12-14.77-42.14-6.43-42.14-6.43A53.51,53.51,0,0,0,0,49.15,56.64,56.64,0,0,1,9.85,38.35Z" style="fill:#c5479b;opacity:0.39;mix-blend-mode:multiply"/><path d="M24.91,33.84a37.5,37.5,0,0,0-13.77,5A38.78,38.78,0,0,0,0,49.15a39.88,39.88,0,0,1,9.59-12.4,41.31,41.31,0,0,1,14.06-8,42.52,42.52,0,0,1,16.57-2,43.63,43.63,0,0,1,14,3.44,5.25,5.25,0,0,1,3.26,1,5.16,5.16,0,0,1,1,1.06,5.2,5.2,0,0,1,1.24,4.4,34.15,34.15,0,0,0,40.71,22.93A5.25,5.25,0,1,1,103,69.77a44.7,44.7,0,0,1-49.5-21.38c-.27.82-.53,1.65-.74,2.49A36,36,0,0,0,52.08,65a37.27,37.27,0,0,0,5,13.76A38.78,38.78,0,0,0,67.38,89.92,40.27,40.27,0,0,1,55,80.33a41.36,41.36,0,0,1-8-14.07,42.75,42.75,0,0,1-1.17-22.48,34,34,0,0,0-3.32,1.75A36.1,36.1,0,0,0,32,55.05a37.24,37.24,0,0,0-6.18,13.29,38.89,38.89,0,0,0-.62,15.15,40.2,40.2,0,0,1-2-15.55,41.44,41.44,0,0,1,4.29-15.61A42.57,42.57,0,0,1,37.83,39.18a43.48,43.48,0,0,1,4.79-3.57,35.42,35.42,0,0,0-17.71-1.77Z" style="fill:#fdb536"/><path d="M53.47,48.39c.21-.85,1.51-2.57,1.78-3.39a44.71,44.71,0,0,0,49.51,21.38,5.23,5.23,0,0,0,2.17-1.12,5.24,5.24,0,0,1-4,4.51A44.7,44.7,0,0,1,54.09,49.45C54.22,48.79,53.3,49,53.47,48.39Z" style="fill:#bd7a03"/><path d="M32,55.05c-.7,1-1.36,2-2,3a36.53,36.53,0,0,1,3.76-6.37,36.1,36.1,0,0,1,10.45-9.52,34,34,0,0,1,3.32-1.75,44.25,44.25,0,0,0-.87,5.92,42.82,42.82,0,0,0,2,16.56A41.37,41.37,0,0,0,55,74.66a36.52,36.52,0,0,0,2.15,4.11A38.78,38.78,0,0,0,67.38,89.92,40.27,40.27,0,0,1,55,80.33a41.36,41.36,0,0,1-8-14.07,42.75,42.75,0,0,1-1.17-22.48,34,34,0,0,0-3.32,1.75A36.1,36.1,0,0,0,32,55.05Z" style="fill:#bd7a03"/><path d="M27.55,52.33c.41-.82.87-1.63,1.34-2.44a41.27,41.27,0,0,0-3.84,14.66,39.77,39.77,0,0,0,.15,7.16,39.43,39.43,0,0,0,0,11.78,40.2,40.2,0,0,1-2-15.55A41.44,41.44,0,0,1,27.55,52.33Z" style="fill:#eb9915"/><path d="M2.56,44.76a38.43,38.43,0,0,1,10.37-9.28,37.25,37.25,0,0,1,13.77-5,36,36,0,0,1,14.12.65,35.58,35.58,0,0,1,3.59,1.11c1.39,1.29.26,3.41-1.79,3.39-.54-.16-3-1-3.58-1.11a36.2,36.2,0,0,0-14.13-.66,37.5,37.5,0,0,0-13.77,5A38.78,38.78,0,0,0,0,49.15,38.62,38.62,0,0,1,2.56,44.76Z" style="fill:#bd7a03"/><path d="M165.1,28.66a25.49,25.49,0,0,0,4.12-9.26,24,24,0,0,0,.16-9.54A22.51,22.51,0,0,0,166,1.56q-.36-.54-.75-1A1.33,1.33,0,0,0,163,1.74c.1.35.19.7.26,1.05a17.67,17.67,0,0,1,.07,7.2,16,16,0,0,1-2.59,6.1,14.56,14.56,0,0,1-4.32,4.09,6.44,6.44,0,0,0-2.2,8.66A6.29,6.29,0,0,0,162.83,31a6.2,6.2,0,0,0,1.85-1.71Z" style="fill:#fcedb6"/><path d="M169.38,9.86A22.51,22.51,0,0,0,166,1.56q-.36-.54-.75-1a1.34,1.34,0,0,0-.48-.39,23,23,0,0,1,1.92,5.76,23.82,23.82,0,0,1-.16,9.54,25.34,25.34,0,0,1-4.12,9.26l-.42.61a6.29,6.29,0,0,1-8.56,1.59,6,6,0,0,0,.74,2A6.29,6.29,0,0,0,162.83,31a6.2,6.2,0,0,0,1.85-1.71l.42-.6a25.49,25.49,0,0,0,4.12-9.26A24,24,0,0,0,169.38,9.86Z" style="fill:#fada81"/><path d="M169.52,35.69c-1.85,3-8.72,2.21-15.36-1.83s-10.51-9.77-8.66-12.8,8.72-2.22,15.36,1.82S171.37,32.66,169.52,35.69Z" style="fill:url(#Degradado_sin_nombre_4-3)"/><path d="M74.84,28.66a25.83,25.83,0,0,1-4.12-9.26,24,24,0,0,1-.15-9.54,22.33,22.33,0,0,1,3.37-8.3q.36-.54.75-1A1.33,1.33,0,0,1,77,1.74c-.1.35-.18.7-.26,1.05a17.67,17.67,0,0,0-.07,7.2,16.17,16.17,0,0,0,2.59,6.1,14.47,14.47,0,0,0,4.33,4.09,6.45,6.45,0,0,1,2.19,8.66A6.29,6.29,0,0,1,77.11,31a6.16,6.16,0,0,1-1.84-1.71Z" style="fill:#fcedb6"/><path d="M70.57,9.86a22.33,22.33,0,0,1,3.37-8.3q.36-.54.75-1a1.29,1.29,0,0,1,.49-.39,22.58,22.58,0,0,0-1.93,5.76,24,24,0,0,0,.16,9.54,25.68,25.68,0,0,0,4.12,9.26l.42.61a6.29,6.29,0,0,0,8.56,1.59,6,6,0,0,1-.74,2A6.29,6.29,0,0,1,77.11,31a6.16,6.16,0,0,1-1.84-1.71l-.43-.6a25.83,25.83,0,0,1-4.12-9.26A24,24,0,0,1,70.57,9.86Z" style="fill:#fada81"/><path d="M70.42,35.69c1.85,3,8.73,2.21,15.36-1.83s10.51-9.77,8.66-12.8-8.72-2.22-15.35,1.82S68.58,32.66,70.42,35.69Z" style="fill:url(#Degradado_sin_nombre_4-4)"/><rect x="88.55" y="103.74" width="10.28" height="42.69" rx="4.41" transform="translate(187.39 250.16) rotate(180)" style="fill:url(#Degradado_sin_nombre_61)"/><rect x="88.55" y="84.61" width="10.28" height="42.69" rx="4.41" transform="translate(187.39 211.92) rotate(180)" style="fill:#249297;opacity:0.54;mix-blend-mode:multiply"/><rect x="80.76" y="142.02" width="19.68" height="6.73" rx="3.37" style="fill:#249297"/><path d="M99.14,142.74c0,.11,0,.21,0,.32h0a3.38,3.38,0,0,1-3.36,3.37h-13a3.33,3.33,0,0,1-2.07-.72,3.38,3.38,0,0,0,3.35,3H97.07a3.38,3.38,0,0,0,3.37-3.36h0A3.36,3.36,0,0,0,99.14,142.74Z" style="fill:#249297;opacity:0.75;mix-blend-mode:multiply"/><path d="M94.06,148.75H89.73a3,3,0,0,1-3-3h0a3,3,0,0,1,3-3h4.33a3,3,0,0,1,3,3h0A3,3,0,0,1,94.06,148.75Z" style="fill:#30c2c9"/><path d="M95.29,143a3,3,0,0,1,.27,1.23,3,3,0,0,1-3,3H88.22A3,3,0,0,1,87,147a3,3,0,0,0,2.74,1.78h4.33A3,3,0,0,0,95.29,143Z" style="fill:#249297;opacity:0.54;mix-blend-mode:multiply"/><rect x="88.19" y="142.73" width="7.13" height="1.77" rx="0.88" style="fill:#fcedb6"/><rect x="79.47" y="143.59" width="6.61" height="5.16" rx="2.58" style="fill:#30c2c9"/><path d="M84.55,143.82a2.64,2.64,0,0,1,.23,1.05h0a2.59,2.59,0,0,1-2.58,2.58H80.75a2.48,2.48,0,0,1-1-.23,2.59,2.59,0,0,0,2.35,1.53H83.5a2.59,2.59,0,0,0,2.58-2.58h0A2.59,2.59,0,0,0,84.55,143.82Z" style="fill:#249297;opacity:0.54;mix-blend-mode:multiply"/><path d="M81.44,145h2.38a.61.61,0,0,0,.61-.61h0a.61.61,0,0,0-.61-.61H81.44a.61.61,0,0,0-.61.61h0A.61.61,0,0,0,81.44,145Z" style="fill:#fcedb6"/><rect x="107.33" y="103.74" width="10.28" height="42.69" rx="4.41" transform="translate(224.95 250.16) rotate(180)" style="fill:url(#Degradado_sin_nombre_61-2)"/><rect x="107.33" y="84.61" width="10.28" height="42.69" rx="4.41" transform="translate(224.95 211.92) rotate(-180)" style="fill:#249297;opacity:0.54;mix-blend-mode:multiply"/><rect x="99.54" y="142.02" width="19.68" height="6.73" rx="3.37" style="fill:#249297"/><path d="M117.92,142.74c0,.11,0,.21,0,.32h0a3.38,3.38,0,0,1-3.36,3.37H101.62a3.33,3.33,0,0,1-2.07-.72,3.38,3.38,0,0,0,3.35,3h12.95a3.38,3.38,0,0,0,3.37-3.36h0A3.36,3.36,0,0,0,117.92,142.74Z" style="fill:#249297;opacity:0.75;mix-blend-mode:multiply"/><path d="M112.84,148.75h-4.33a3,3,0,0,1-3-3h0a3,3,0,0,1,3-3h4.33a3,3,0,0,1,3,3h0A3,3,0,0,1,112.84,148.75Z" style="fill:#30c2c9"/><path d="M114.07,143a3,3,0,0,1,.27,1.23,3,3,0,0,1-3,3H107a3,3,0,0,1-1.23-.27,3,3,0,0,0,2.74,1.78h4.33a3,3,0,0,0,1.23-5.75Z" style="fill:#249297;opacity:0.54;mix-blend-mode:multiply"/><rect x="106.97" y="142.73" width="7.13" height="1.77" rx="0.88" style="fill:#fcedb6"/><rect x="98.25" y="143.59" width="6.61" height="5.16" rx="2.58" style="fill:#30c2c9"/><path d="M103.33,143.82a2.64,2.64,0,0,1,.23,1.05h0a2.59,2.59,0,0,1-2.58,2.58H99.53a2.48,2.48,0,0,1-1-.23,2.59,2.59,0,0,0,2.35,1.53h1.45a2.59,2.59,0,0,0,2.58-2.58h0A2.59,2.59,0,0,0,103.33,143.82Z" style="fill:#249297;opacity:0.54;mix-blend-mode:multiply"/><path d="M100.22,145h2.38a.61.61,0,0,0,.61-.61h0a.61.61,0,0,0-.61-.61h-2.38a.61.61,0,0,0-.61.61h0A.61.61,0,0,0,100.22,145Z" style="fill:#fcedb6"/><rect x="141.7" y="103.74" width="10.28" height="42.69" rx="4.41" transform="translate(293.68 250.16) rotate(180)" style="fill:url(#Degradado_sin_nombre_61-3)"/><rect x="141.7" y="84.61" width="10.28" height="42.69" rx="4.41" transform="translate(293.68 211.92) rotate(180)" style="fill:#249297;opacity:0.54;mix-blend-mode:multiply"/><rect x="140.51" y="142.02" width="19.68" height="6.73" rx="3.37" transform="translate(300.7 290.78) rotate(-180)" style="fill:#249297"/><path d="M141.81,142.74c0,.11,0,.21,0,.32h0a3.38,3.38,0,0,0,3.37,3.37h13a3.33,3.33,0,0,0,2.06-.72,3.37,3.37,0,0,1-3.35,3H143.87a3.37,3.37,0,0,1-3.36-3.36h0A3.36,3.36,0,0,1,141.81,142.74Z" style="fill:#249297;opacity:0.75;mix-blend-mode:multiply"/><path d="M146.88,148.75h4.33a3,3,0,0,0,3-3h0a3,3,0,0,0-3-3h-4.33a3,3,0,0,0-3,3h0A3,3,0,0,0,146.88,148.75Z" style="fill:#30c2c9"/><path d="M145.65,143a3,3,0,0,0-.26,1.23,3,3,0,0,0,3,3h4.33A3,3,0,0,0,154,147a3,3,0,0,1-2.75,1.78h-4.33a3,3,0,0,1-1.23-5.75Z" style="fill:#249297;opacity:0.54;mix-blend-mode:multiply"/><rect x="154.87" y="143.59" width="6.61" height="5.16" rx="2.58" transform="translate(316.34 292.35) rotate(180)" style="fill:#30c2c9"/><path d="M156.4,143.82a2.48,2.48,0,0,0-.23,1.05h0a2.59,2.59,0,0,0,2.58,2.58h1.44a2.45,2.45,0,0,0,1.05-.23,2.57,2.57,0,0,1-2.35,1.53h-1.44a2.59,2.59,0,0,1-2.58-2.58h0A2.59,2.59,0,0,1,156.4,143.82Z" style="fill:#249297;opacity:0.54;mix-blend-mode:multiply"/><rect x="145.63" y="142.73" width="7.13" height="1.77" rx="0.88" style="fill:#fcedb6"/><path d="M159.51,145h-2.39a.61.61,0,0,1-.61-.61h0a.62.62,0,0,1,.61-.61h2.39a.62.62,0,0,1,.61.61h0A.61.61,0,0,1,159.51,145Z" style="fill:#fcedb6"/><rect x="122.49" y="103.74" width="10.28" height="42.69" rx="4.41" transform="translate(255.25 250.16) rotate(180)" style="fill:url(#Degradado_sin_nombre_61-4)"/><rect x="122.49" y="84.61" width="10.28" height="42.69" rx="4.41" transform="translate(255.25 211.92) rotate(180)" style="fill:#249297;opacity:0.54;mix-blend-mode:multiply"/><rect x="121.29" y="142.02" width="19.68" height="6.73" rx="3.37" transform="translate(262.27 290.78) rotate(-180)" style="fill:#249297"/><path d="M122.59,142.74c0,.11,0,.21,0,.32h0a3.38,3.38,0,0,0,3.36,3.37h12.95a3.33,3.33,0,0,0,2.07-.72,3.38,3.38,0,0,1-3.35,3h-13a3.38,3.38,0,0,1-3.37-3.36h0A3.38,3.38,0,0,1,122.59,142.74Z" style="fill:#249297;opacity:0.75;mix-blend-mode:multiply"/><path d="M127.67,148.75H132a3,3,0,0,0,3-3h0a3,3,0,0,0-3-3h-4.33a3,3,0,0,0-3,3h0A3,3,0,0,0,127.67,148.75Z" style="fill:#30c2c9"/><path d="M126.44,143a3,3,0,0,0-.27,1.23,3,3,0,0,0,3,3h4.33a3,3,0,0,0,1.23-.27,3,3,0,0,1-2.74,1.78h-4.33a3,3,0,0,1-1.23-5.75Z" style="fill:#249297;opacity:0.54;mix-blend-mode:multiply"/><rect x="135.65" y="143.59" width="6.61" height="5.16" rx="2.58" transform="translate(277.91 292.35) rotate(180)" style="fill:#30c2c9"/><path d="M137.18,143.82a2.64,2.64,0,0,0-.23,1.05h0a2.59,2.59,0,0,0,2.58,2.58H141a2.48,2.48,0,0,0,1.05-.23,2.59,2.59,0,0,1-2.35,1.53h-1.45a2.59,2.59,0,0,1-2.58-2.58h0A2.59,2.59,0,0,1,137.18,143.82Z" style="fill:#249297;opacity:0.54;mix-blend-mode:multiply"/><rect x="126.41" y="142.73" width="7.13" height="1.77" rx="0.88" style="fill:#fcedb6"/><path d="M140.29,145h-2.38a.61.61,0,0,1-.61-.61h0a.61.61,0,0,1,.61-.61h2.38a.61.61,0,0,1,.61.61h0A.61.61,0,0,1,140.29,145Z" style="fill:#fcedb6"/><path d="M124.21,94.88c0,.2.06.4.06.6,0-.2,0-.4.06-.6h-.12Z" style="fill:url(#Degradado_sin_nombre_4-5)"/><path d="M134.08,95.48c0-.2,0-.4.06-.6h-.06Z" style="fill:url(#Degradado_sin_nombre_4-6)"/><path d="M163.48,79c0-.21,0-.4.06-.61h-.06Z" style="fill:url(#Degradado_sin_nombre_4-7)"/><path d="M134.08,111.94a5.8,5.8,0,0,1,.06-.6h-.06Z" style="fill:url(#Degradado_sin_nombre_4-8)"/><path d="M153.68,79c0-.21,0-.4.06-.61h-.12C153.64,78.63,153.68,78.82,153.68,79Z" style="fill:url(#Degradado_sin_nombre_4-9)"/><path d="M153.68,95.48c0-.2,0-.4.06-.6h-.12C153.64,95.08,153.68,95.28,153.68,95.48Z" style="fill:url(#Degradado_sin_nombre_4-10)"/><path d="M114.47,62.57V62h-.06A5.8,5.8,0,0,1,114.47,62.57Z" style="fill:url(#Degradado_sin_nombre_4-11)"/><path d="M134.08,46.11c0-.2,0-.4.06-.6h-.06Z" style="fill:url(#Degradado_sin_nombre_4-12)"/><path d="M114.47,46.11v-.6h-.06C114.43,45.71,114.47,45.91,114.47,46.11Z" style="fill:url(#Degradado_sin_nombre_4-13)"/><path d="M153.68,46.11c0-.2,0-.4.06-.6h-.12C153.64,45.71,153.68,45.91,153.68,46.11Z" style="fill:url(#Degradado_sin_nombre_4-14)"/><path d="M163.48,46.11c0-.2,0-.4.06-.6h-.06Z" style="fill:url(#Degradado_sin_nombre_4-15)"/><path d="M173.28,46.11c0-.2.05-.4.06-.6h-.06Z" style="fill:url(#Degradado_sin_nombre_4-16)"/><path d="M153.68,29.66c0-.21,0-.4.06-.61h-.12C153.64,29.26,153.68,29.45,153.68,29.66Z" style="fill:url(#Degradado_sin_nombre_4-17)"/><path d="M134.08,79c0-.21,0-.4.06-.61h-.06Z" style="fill:url(#Degradado_sin_nombre_4-18)"/><path d="M134.08,29.66c0-.21,0-.4.06-.61h-.06Z" style="fill:url(#Degradado_sin_nombre_4-19)"/><path d="M124.21,62a5.8,5.8,0,0,1,.06.6c0-.21,0-.4.06-.6h-.12Z" style="fill:url(#Degradado_sin_nombre_4-20)"/><path d="M124.21,45.51c0,.2.06.4.06.6,0-.2,0-.4.06-.6h-.12Z" style="fill:url(#Degradado_sin_nombre_4-21)"/><path d="M124.21,29.05c0,.21.06.4.06.61,0-.21,0-.4.06-.61h-.12Z" style="fill:url(#Degradado_sin_nombre_4-22)"/><path d="M173.28,62.57c0-.21.05-.4.06-.6h-.06Z" style="fill:url(#Degradado_sin_nombre_4-23)"/><path d="M153.68,62.57a5.8,5.8,0,0,1,.06-.6h-.12A5.8,5.8,0,0,1,153.68,62.57Z" style="fill:url(#Degradado_sin_nombre_4-24)"/><path d="M163.48,62.57a5.8,5.8,0,0,1,.06-.6h-.06Z" style="fill:url(#Degradado_sin_nombre_4-25)"/><path d="M124.21,78.42c0,.21.06.4.06.61,0-.21,0-.4.06-.61h-.12Z" style="fill:url(#Degradado_sin_nombre_4-26)"/><path d="M114.47,79v-.61h-.06C114.43,78.63,114.47,78.82,114.47,79Z" style="fill:url(#Degradado_sin_nombre_4-27)"/><path d="M134.08,62.57a5.8,5.8,0,0,1,.06-.6h-.06Z" style="fill:url(#Degradado_sin_nombre_4-28)"/><path d="M124.21,29.05h.12A6.72,6.72,0,0,1,131,23h3.1v6.1h.06a6.7,6.7,0,0,1,6.64-6.1H147a6.7,6.7,0,0,1,6.65,6.1h.12a6.65,6.65,0,0,1,1.94-4.15A36.84,36.84,0,0,0,139,21h0a36.81,36.81,0,0,0-16.7,3.93A6.69,6.69,0,0,1,124.21,29.05Z" style="fill:url(#Degradado_sin_nombre_4-29)"/><path d="M117.57,30.47a6.72,6.72,0,0,1,6.7,6.71V30.47h3.1a6.73,6.73,0,0,1,6.71,6.71,6.72,6.72,0,0,1,6.7-6.71h3.1v6.71a6.72,6.72,0,0,1,6.7-6.71h6.2a6.73,6.73,0,0,1,6.7,6.71,6.65,6.65,0,0,1,2.14-4.88,36.42,36.42,0,0,0-9.94-7.4,6.65,6.65,0,0,0-1.94,4.15c0,.21-.06.4-.06.61,0-.21,0-.4-.06-.61A6.7,6.7,0,0,0,147,23h-6.19a6.7,6.7,0,0,0-6.64,6.1c0,.21-.06.4-.06.61V23H131a6.72,6.72,0,0,0-6.65,6.1c0,.21-.06.4-.06.61,0-.21,0-.4-.06-.61a6.69,6.69,0,0,0-1.93-4.15,36.46,36.46,0,0,0-8.09,5.57h3.38Z" style="fill:url(#Degradado_sin_nombre_4-30)"/><path d="M173.34,45.51a8.47,8.47,0,0,1,.12-.88c-.06-.15-.11-.31-.18-.46v1.34Z" style="fill:url(#Degradado_sin_nombre_4-31)"/><path d="M114.41,45.51h.06v-6.1h3.1a6.7,6.7,0,0,1,6.64,6.1h.12a6.72,6.72,0,0,1,6.65-6.1h3.1v6.1h.06a6.7,6.7,0,0,1,6.64-6.1H147a6.7,6.7,0,0,1,6.65,6.1h.12a6.7,6.7,0,0,1,6.64-6.1h3.1v6.1h.06a6.7,6.7,0,0,1,6.65-6.1H171a37.41,37.41,0,0,0-5.35-7.11,6.65,6.65,0,0,0-2.14,4.88,6.73,6.73,0,0,0-6.7-6.71h-6.2a6.72,6.72,0,0,0-6.7,6.71V30.47h-3.1a6.72,6.72,0,0,0-6.7,6.71,6.73,6.73,0,0,0-6.71-6.71h-3.1v6.71a6.72,6.72,0,0,0-6.7-6.71h-3.38A37.61,37.61,0,0,0,107,39.41h.79A6.7,6.7,0,0,1,114.41,45.51Z" style="fill:url(#Degradado_sin_nombre_4-32)"/><path d="M104.67,53.63a6.73,6.73,0,0,1,6.7-6.7h6.2a6.72,6.72,0,0,1,6.7,6.7v-6.7h3.1a6.73,6.73,0,0,1,6.71,6.7,6.72,6.72,0,0,1,6.7-6.7h3.1v6.7a6.72,6.72,0,0,1,6.7-6.7h6.2a6.73,6.73,0,0,1,6.7,6.7,6.73,6.73,0,0,1,6.71-6.7h3.09v6.7a6.63,6.63,0,0,1,1.65-4.34,37.62,37.62,0,0,0-1.47-4.66,8.47,8.47,0,0,0-.12.88c0,.2-.06.4-.06.6V44.17A38,38,0,0,0,171,39.41h-.78a6.7,6.7,0,0,0-6.65,6.1c0,.2-.06.4-.06.6v-6.7h-3.1a6.7,6.7,0,0,0-6.64,6.1c0,.2-.06.4-.06.6,0-.2,0-.4-.06-.6a6.7,6.7,0,0,0-6.65-6.1h-6.19a6.7,6.7,0,0,0-6.64,6.1c0,.2-.06.4-.06.6v-6.7H131a6.72,6.72,0,0,0-6.65,6.1c0,.2-.06.4-.06.6,0-.2,0-.4-.06-.6a6.7,6.7,0,0,0-6.64-6.1h-3.1v6.7c0-.2,0-.4-.06-.6a6.7,6.7,0,0,0-6.64-6.1H107a37.9,37.9,0,0,0-3.3,7.52h1Z" style="fill:url(#Degradado_sin_nombre_4-33)"/><path d="M107.77,55.87a6.69,6.69,0,0,1,6.64,6.1h.06v-6.1h3.1a6.69,6.69,0,0,1,6.64,6.1h.12a6.71,6.71,0,0,1,6.65-6.1h3.1V62h.06a6.69,6.69,0,0,1,6.64-6.1H147a6.7,6.7,0,0,1,6.65,6.1h.12a6.69,6.69,0,0,1,6.64-6.1h3.1V62h.06a6.7,6.7,0,0,1,6.65-6.1h3.09V62h.06A6.67,6.67,0,0,1,176,57.22a36.23,36.23,0,0,0-1.07-7.93,6.63,6.63,0,0,0-1.65,4.34v-6.7h-3.09a6.73,6.73,0,0,0-6.71,6.7,6.73,6.73,0,0,0-6.7-6.7h-6.2a6.72,6.72,0,0,0-6.7,6.7v-6.7h-3.1a6.72,6.72,0,0,0-6.7,6.7,6.73,6.73,0,0,0-6.71-6.7h-3.1v6.7a6.72,6.72,0,0,0-6.7-6.7h-6.2a6.73,6.73,0,0,0-6.7,6.7v-6.7h-1A37.34,37.34,0,0,0,102,55.87h5.75Z" style="fill:url(#Degradado_sin_nombre_4-34)"/><path d="M104.67,70.09a6.72,6.72,0,0,1,6.7-6.7h6.2a6.71,6.71,0,0,1,6.7,6.7v-6.7h3.1a6.72,6.72,0,0,1,6.71,6.7,6.71,6.71,0,0,1,6.7-6.7h3.1v6.7a6.71,6.71,0,0,1,6.7-6.7h6.2a6.72,6.72,0,0,1,6.7,6.7,6.72,6.72,0,0,1,6.71-6.7h3.09v6.7a6.66,6.66,0,0,1,1.95-4.7,36.65,36.65,0,0,0,.77-8.17A6.67,6.67,0,0,0,173.34,62c0,.2-.06.39-.06.6v-6.7h-3.09a6.7,6.7,0,0,0-6.65,6.1,5.8,5.8,0,0,0-.06.6v-6.7h-3.1a6.69,6.69,0,0,0-6.64,6.1,5.8,5.8,0,0,0-.06.6,5.8,5.8,0,0,0-.06-.6,6.7,6.7,0,0,0-6.65-6.1h-6.19a6.69,6.69,0,0,0-6.64,6.1,5.8,5.8,0,0,0-.06.6v-6.7H131a6.71,6.71,0,0,0-6.65,6.1c0,.2-.06.39-.06.6a5.8,5.8,0,0,0-.06-.6,6.69,6.69,0,0,0-6.64-6.1h-3.1v6.7a5.8,5.8,0,0,0-.06-.6,6.69,6.69,0,0,0-6.64-6.1H102a36.63,36.63,0,0,0,.35,7.52h2.3Z" style="fill:url(#Degradado_sin_nombre_4-35)"/><path d="M114.41,78.42h.06v-6.1h3.1a6.7,6.7,0,0,1,6.64,6.1h.12a6.72,6.72,0,0,1,6.65-6.1h3.1v6.1h.06a6.7,6.7,0,0,1,6.64-6.1H147a6.7,6.7,0,0,1,6.65,6.1h.12a6.7,6.7,0,0,1,6.64-6.1h3.1v6.1h.06a6.7,6.7,0,0,1,6.65-6.1H173a37.05,37.05,0,0,0,2.19-6.93,6.66,6.66,0,0,0-1.95,4.7v-6.7h-3.09a6.72,6.72,0,0,0-6.71,6.7,6.72,6.72,0,0,0-6.7-6.7h-6.2a6.71,6.71,0,0,0-6.7,6.7v-6.7h-3.1a6.71,6.71,0,0,0-6.7,6.7,6.72,6.72,0,0,0-6.71-6.7h-3.1v6.7a6.71,6.71,0,0,0-6.7-6.7h-6.2a6.72,6.72,0,0,0-6.7,6.7v-6.7h-2.3a36.38,36.38,0,0,0,2.54,8.93h2.86A6.7,6.7,0,0,1,114.41,78.42Z" style="fill:url(#Degradado_sin_nombre_4-36)"/><path d="M114.47,79.84h3.1a6.72,6.72,0,0,1,6.7,6.71V79.84h3.1a6.73,6.73,0,0,1,6.71,6.71,6.72,6.72,0,0,1,6.7-6.71h3.1v6.71a6.72,6.72,0,0,1,6.7-6.71h6.2a6.73,6.73,0,0,1,6.7,6.71A6.72,6.72,0,0,1,169,80l2-3.53h0a38.41,38.41,0,0,0,2-4.12h-2.85a6.7,6.7,0,0,0-6.65,6.1c0,.21-.06.4-.06.61V72.32h-3.1a6.7,6.7,0,0,0-6.64,6.1c0,.21-.06.4-.06.61,0-.21,0-.4-.06-.61a6.7,6.7,0,0,0-6.65-6.1h-6.19a6.7,6.7,0,0,0-6.64,6.1c0,.21-.06.4-.06.61V72.32H131a6.72,6.72,0,0,0-6.65,6.1c0,.21-.06.4-.06.61,0-.21,0-.4-.06-.61a6.7,6.7,0,0,0-6.64-6.1h-3.1V79c0-.21,0-.4-.06-.61a6.7,6.7,0,0,0-6.64-6.1h-2.86a38.41,38.41,0,0,0,2,4.12h0l2.21,3.81a6.47,6.47,0,0,1,2.21-.41Z" style="fill:url(#Degradado_sin_nombre_4-37)"/><path d="M117.57,88.78a6.7,6.7,0,0,1,6.64,6.1h.12a6.72,6.72,0,0,1,6.65-6.1h3.1v6.1h.06a6.7,6.7,0,0,1,6.64-6.1H147a6.7,6.7,0,0,1,6.65,6.1h.12a6.7,6.7,0,0,1,6.64-6.1h3.1v.68L169,80a6.72,6.72,0,0,0-5.48,6.58,6.73,6.73,0,0,0-6.7-6.71h-6.2a6.72,6.72,0,0,0-6.7,6.71V79.84h-3.1a6.72,6.72,0,0,0-6.7,6.71,6.73,6.73,0,0,0-6.71-6.71h-3.1v6.71a6.72,6.72,0,0,0-6.7-6.71h-6.2a6.47,6.47,0,0,0-2.21.41l5.31,9.21v-.68Z" style="fill:url(#Degradado_sin_nombre_4-38)"/><path d="M124.27,103V96.3h3.1a6.73,6.73,0,0,1,6.71,6.7,6.72,6.72,0,0,1,6.7-6.7h3.1V103a6.72,6.72,0,0,1,6.7-6.7h6.2a6.59,6.59,0,0,1,2.47.49l4.23-7.33v-.68h-3.1a6.7,6.7,0,0,0-6.64,6.1c0,.2-.06.4-.06.6,0-.2,0-.4-.06-.6a6.7,6.7,0,0,0-6.65-6.1h-6.19a6.7,6.7,0,0,0-6.64,6.1c0,.2-.06.4-.06.6v-6.7H131a6.72,6.72,0,0,0-6.65,6.1c0,.2-.06.4-.06.6,0-.2,0-.4-.06-.6a6.7,6.7,0,0,0-6.64-6.1h-3.1v.68l4,6.93A6.71,6.71,0,0,1,124.27,103Z" style="fill:url(#Degradado_sin_nombre_4-39)"/><path d="M131,105.24h3.1v6.1h.06a6.69,6.69,0,0,1,6.64-6.1H147a6.69,6.69,0,0,1,5.62,3.07l3.85-6.66,2.81-4.86a6.59,6.59,0,0,0-2.47-.49h-6.2a6.72,6.72,0,0,0-6.7,6.7V96.3h-3.1a6.72,6.72,0,0,0-6.7,6.7,6.73,6.73,0,0,0-6.71-6.7h-3.1V103a6.71,6.71,0,0,0-5.8-6.61l3.48,6,3.41,5.89A6.72,6.72,0,0,1,131,105.24Z" style="fill:url(#Degradado_sin_nombre_4-40)"/><path d="M152.59,108.31a6.69,6.69,0,0,0-5.62-3.07h-6.19a6.69,6.69,0,0,0-6.64,6.1,5.8,5.8,0,0,0-.06.6v-6.7H131a6.72,6.72,0,0,0-5.62,3.07l3.29,5.71a6.59,6.59,0,0,0,1.4-4v6.7h3.1a6.71,6.71,0,0,0,6.7-6.7v6.7H143a6.72,6.72,0,0,0,6.71-6.7,6.54,6.54,0,0,0,.51,2.54Z" style="fill:url(#Degradado_sin_nombre_4-41)"/><path d="M124.21,94.88c0,.2.06.4.06.6,0-.2,0-.4.06-.6h-.12Z" style="fill:url(#Degradado_sin_nombre_4-5)"/><path d="M134.08,95.48c0-.2,0-.4.06-.6h-.06Z" style="fill:url(#Degradado_sin_nombre_4-6)"/><path d="M163.48,79c0-.21,0-.4.06-.61h-.06Z" style="fill:url(#Degradado_sin_nombre_4-7)"/><path d="M134.08,111.94a5.8,5.8,0,0,1,.06-.6h-.06Z" style="fill:url(#Degradado_sin_nombre_4-8)"/><path d="M153.68,79c0-.21,0-.4.06-.61h-.12C153.64,78.63,153.68,78.82,153.68,79Z" style="fill:url(#Degradado_sin_nombre_4-9)"/><path d="M153.68,95.48c0-.2,0-.4.06-.6h-.12C153.64,95.08,153.68,95.28,153.68,95.48Z" style="fill:url(#Degradado_sin_nombre_4-10)"/><path d="M114.47,62.57V62h-.06A5.8,5.8,0,0,1,114.47,62.57Z" style="fill:url(#Degradado_sin_nombre_4-11)"/><path d="M134.08,46.11c0-.2,0-.4.06-.6h-.06Z" style="fill:url(#Degradado_sin_nombre_4-12)"/><path d="M114.47,46.11v-.6h-.06C114.43,45.71,114.47,45.91,114.47,46.11Z" style="fill:url(#Degradado_sin_nombre_4-13)"/><path d="M153.68,46.11c0-.2,0-.4.06-.6h-.12C153.64,45.71,153.68,45.91,153.68,46.11Z" style="fill:url(#Degradado_sin_nombre_4-14)"/><path d="M163.48,46.11c0-.2,0-.4.06-.6h-.06Z" style="fill:url(#Degradado_sin_nombre_4-15)"/><path d="M173.28,46.11c0-.2.05-.4.06-.6h-.06Z" style="fill:url(#Degradado_sin_nombre_4-16)"/><path d="M153.68,29.66c0-.21,0-.4.06-.61h-.12C153.64,29.26,153.68,29.45,153.68,29.66Z" style="fill:url(#Degradado_sin_nombre_4-17)"/><path d="M134.08,79c0-.21,0-.4.06-.61h-.06Z" style="fill:url(#Degradado_sin_nombre_4-18)"/><path d="M134.08,29.66c0-.21,0-.4.06-.61h-.06Z" style="fill:url(#Degradado_sin_nombre_4-19)"/><path d="M124.21,62a5.8,5.8,0,0,1,.06.6c0-.21,0-.4.06-.6h-.12Z" style="fill:url(#Degradado_sin_nombre_4-20)"/><path d="M124.21,45.51c0,.2.06.4.06.6,0-.2,0-.4.06-.6h-.12Z" style="fill:url(#Degradado_sin_nombre_4-21)"/><path d="M124.21,29.05c0,.21.06.4.06.61,0-.21,0-.4.06-.61h-.12Z" style="fill:url(#Degradado_sin_nombre_4-22)"/><path d="M173.28,62.57c0-.21.05-.4.06-.6h-.06Z" style="fill:url(#Degradado_sin_nombre_4-23)"/><path d="M153.68,62.57a5.8,5.8,0,0,1,.06-.6h-.12A5.8,5.8,0,0,1,153.68,62.57Z" style="fill:url(#Degradado_sin_nombre_4-24)"/><path d="M163.48,62.57a5.8,5.8,0,0,1,.06-.6h-.06Z" style="fill:url(#Degradado_sin_nombre_4-25)"/><path d="M124.21,78.42c0,.21.06.4.06.61,0-.21,0-.4.06-.61h-.12Z" style="fill:url(#Degradado_sin_nombre_4-26)"/><path d="M114.47,79v-.61h-.06C114.43,78.63,114.47,78.82,114.47,79Z" style="fill:url(#Degradado_sin_nombre_4-27)"/><path d="M134.08,62.57a5.8,5.8,0,0,1,.06-.6h-.06Z" style="fill:url(#Degradado_sin_nombre_4-28)"/><path d="M124.21,29.05h.12A6.72,6.72,0,0,1,131,23h3.1v6.1h.06a6.7,6.7,0,0,1,6.64-6.1H147a6.7,6.7,0,0,1,6.65,6.1h.12a6.65,6.65,0,0,1,1.94-4.15A36.84,36.84,0,0,0,139,21h0a36.81,36.81,0,0,0-16.7,3.93A6.69,6.69,0,0,1,124.21,29.05Z" style="fill:url(#Degradado_sin_nombre_4-29)"/><path d="M117.57,30.47a6.72,6.72,0,0,1,6.7,6.71V30.47h3.1a6.73,6.73,0,0,1,6.71,6.71,6.72,6.72,0,0,1,6.7-6.71h3.1v6.71a6.72,6.72,0,0,1,6.7-6.71h6.2a6.73,6.73,0,0,1,6.7,6.71,6.65,6.65,0,0,1,2.14-4.88,36.42,36.42,0,0,0-9.94-7.4,6.65,6.65,0,0,0-1.94,4.15c0,.21-.06.4-.06.61,0-.21,0-.4-.06-.61A6.7,6.7,0,0,0,147,23h-6.19a6.7,6.7,0,0,0-6.64,6.1c0,.21-.06.4-.06.61V23H131a6.72,6.72,0,0,0-6.65,6.1c0,.21-.06.4-.06.61,0-.21,0-.4-.06-.61a6.69,6.69,0,0,0-1.93-4.15,36.46,36.46,0,0,0-8.09,5.57h3.38Z" style="fill:url(#Degradado_sin_nombre_4-30)"/><path d="M173.34,45.51a8.47,8.47,0,0,1,.12-.88c-.06-.15-.11-.31-.18-.46v1.34Z" style="fill:url(#Degradado_sin_nombre_4-31)"/><path d="M114.41,45.51h.06v-6.1h3.1a6.7,6.7,0,0,1,6.64,6.1h.12a6.72,6.72,0,0,1,6.65-6.1h3.1v6.1h.06a6.7,6.7,0,0,1,6.64-6.1H147a6.7,6.7,0,0,1,6.65,6.1h.12a6.7,6.7,0,0,1,6.64-6.1h3.1v6.1h.06a6.7,6.7,0,0,1,6.65-6.1H171a37.41,37.41,0,0,0-5.35-7.11,6.65,6.65,0,0,0-2.14,4.88,6.73,6.73,0,0,0-6.7-6.71h-6.2a6.72,6.72,0,0,0-6.7,6.71V30.47h-3.1a6.72,6.72,0,0,0-6.7,6.71,6.73,6.73,0,0,0-6.71-6.71h-3.1v6.71a6.72,6.72,0,0,0-6.7-6.71h-3.38A37.61,37.61,0,0,0,107,39.41h.79A6.7,6.7,0,0,1,114.41,45.51Z" style="fill:url(#Degradado_sin_nombre_4-32)"/><path d="M104.67,53.63a6.73,6.73,0,0,1,6.7-6.7h6.2a6.72,6.72,0,0,1,6.7,6.7v-6.7h3.1a6.73,6.73,0,0,1,6.71,6.7,6.72,6.72,0,0,1,6.7-6.7h3.1v6.7a6.72,6.72,0,0,1,6.7-6.7h6.2a6.73,6.73,0,0,1,6.7,6.7,6.73,6.73,0,0,1,6.71-6.7h3.09v6.7a6.63,6.63,0,0,1,1.65-4.34,37.62,37.62,0,0,0-1.47-4.66,8.47,8.47,0,0,0-.12.88c0,.2-.06.4-.06.6V44.17A38,38,0,0,0,171,39.41h-.78a6.7,6.7,0,0,0-6.65,6.1c0,.2-.06.4-.06.6v-6.7h-3.1a6.7,6.7,0,0,0-6.64,6.1c0,.2-.06.4-.06.6,0-.2,0-.4-.06-.6a6.7,6.7,0,0,0-6.65-6.1h-6.19a6.7,6.7,0,0,0-6.64,6.1c0,.2-.06.4-.06.6v-6.7H131a6.72,6.72,0,0,0-6.65,6.1c0,.2-.06.4-.06.6,0-.2,0-.4-.06-.6a6.7,6.7,0,0,0-6.64-6.1h-3.1v6.7c0-.2,0-.4-.06-.6a6.7,6.7,0,0,0-6.64-6.1H107a37.9,37.9,0,0,0-3.3,7.52h1Z" style="fill:url(#Degradado_sin_nombre_4-33)"/><path d="M107.77,55.87a6.69,6.69,0,0,1,6.64,6.1h.06v-6.1h3.1a6.69,6.69,0,0,1,6.64,6.1h.12a6.71,6.71,0,0,1,6.65-6.1h3.1V62h.06a6.69,6.69,0,0,1,6.64-6.1H147a6.7,6.7,0,0,1,6.65,6.1h.12a6.69,6.69,0,0,1,6.64-6.1h3.1V62h.06a6.7,6.7,0,0,1,6.65-6.1h3.09V62h.06A6.67,6.67,0,0,1,176,57.22a36.23,36.23,0,0,0-1.07-7.93,6.63,6.63,0,0,0-1.65,4.34v-6.7h-3.09a6.73,6.73,0,0,0-6.71,6.7,6.73,6.73,0,0,0-6.7-6.7h-6.2a6.72,6.72,0,0,0-6.7,6.7v-6.7h-3.1a6.72,6.72,0,0,0-6.7,6.7,6.73,6.73,0,0,0-6.71-6.7h-3.1v6.7a6.72,6.72,0,0,0-6.7-6.7h-6.2a6.73,6.73,0,0,0-6.7,6.7v-6.7h-1A37.34,37.34,0,0,0,102,55.87h5.75Z" style="fill:url(#Degradado_sin_nombre_4-34)"/><path d="M104.67,70.09a6.72,6.72,0,0,1,6.7-6.7h6.2a6.71,6.71,0,0,1,6.7,6.7v-6.7h3.1a6.72,6.72,0,0,1,6.71,6.7,6.71,6.71,0,0,1,6.7-6.7h3.1v6.7a6.71,6.71,0,0,1,6.7-6.7h6.2a6.72,6.72,0,0,1,6.7,6.7,6.72,6.72,0,0,1,6.71-6.7h3.09v6.7a6.66,6.66,0,0,1,1.95-4.7,36.65,36.65,0,0,0,.77-8.17A6.67,6.67,0,0,0,173.34,62c0,.2-.06.39-.06.6v-6.7h-3.09a6.7,6.7,0,0,0-6.65,6.1,5.8,5.8,0,0,0-.06.6v-6.7h-3.1a6.69,6.69,0,0,0-6.64,6.1,5.8,5.8,0,0,0-.06.6,5.8,5.8,0,0,0-.06-.6,6.7,6.7,0,0,0-6.65-6.1h-6.19a6.69,6.69,0,0,0-6.64,6.1,5.8,5.8,0,0,0-.06.6v-6.7H131a6.71,6.71,0,0,0-6.65,6.1c0,.2-.06.39-.06.6a5.8,5.8,0,0,0-.06-.6,6.69,6.69,0,0,0-6.64-6.1h-3.1v6.7a5.8,5.8,0,0,0-.06-.6,6.69,6.69,0,0,0-6.64-6.1H102a36.63,36.63,0,0,0,.35,7.52h2.3Z" style="fill:url(#Degradado_sin_nombre_4-35)"/><path d="M114.41,78.42h.06v-6.1h3.1a6.7,6.7,0,0,1,6.64,6.1h.12a6.72,6.72,0,0,1,6.65-6.1h3.1v6.1h.06a6.7,6.7,0,0,1,6.64-6.1H147a6.7,6.7,0,0,1,6.65,6.1h.12a6.7,6.7,0,0,1,6.64-6.1h3.1v6.1h.06a6.7,6.7,0,0,1,6.65-6.1H173a37.05,37.05,0,0,0,2.19-6.93,6.66,6.66,0,0,0-1.95,4.7v-6.7h-3.09a6.72,6.72,0,0,0-6.71,6.7,6.72,6.72,0,0,0-6.7-6.7h-6.2a6.71,6.71,0,0,0-6.7,6.7v-6.7h-3.1a6.71,6.71,0,0,0-6.7,6.7,6.72,6.72,0,0,0-6.71-6.7h-3.1v6.7a6.71,6.71,0,0,0-6.7-6.7h-6.2a6.72,6.72,0,0,0-6.7,6.7v-6.7h-2.3a36.38,36.38,0,0,0,2.54,8.93h2.86A6.7,6.7,0,0,1,114.41,78.42Z" style="fill:url(#Degradado_sin_nombre_4-36)"/><path d="M114.47,79.84h3.1a6.72,6.72,0,0,1,6.7,6.71V79.84h3.1a6.73,6.73,0,0,1,6.71,6.71,6.72,6.72,0,0,1,6.7-6.71h3.1v6.71a6.72,6.72,0,0,1,6.7-6.71h6.2a6.73,6.73,0,0,1,6.7,6.71A6.72,6.72,0,0,1,169,80l2-3.53h0a38.41,38.41,0,0,0,2-4.12h-2.85a6.7,6.7,0,0,0-6.65,6.1c0,.21-.06.4-.06.61V72.32h-3.1a6.7,6.7,0,0,0-6.64,6.1c0,.21-.06.4-.06.61,0-.21,0-.4-.06-.61a6.7,6.7,0,0,0-6.65-6.1h-6.19a6.7,6.7,0,0,0-6.64,6.1c0,.21-.06.4-.06.61V72.32H131a6.72,6.72,0,0,0-6.65,6.1c0,.21-.06.4-.06.61,0-.21,0-.4-.06-.61a6.7,6.7,0,0,0-6.64-6.1h-3.1V79c0-.21,0-.4-.06-.61a6.7,6.7,0,0,0-6.64-6.1h-2.86a38.41,38.41,0,0,0,2,4.12h0l2.21,3.81a6.47,6.47,0,0,1,2.21-.41Z" style="fill:url(#Degradado_sin_nombre_4-37)"/><path d="M117.57,88.78a6.7,6.7,0,0,1,6.64,6.1h.12a6.72,6.72,0,0,1,6.65-6.1h3.1v6.1h.06a6.7,6.7,0,0,1,6.64-6.1H147a6.7,6.7,0,0,1,6.65,6.1h.12a6.7,6.7,0,0,1,6.64-6.1h3.1v.68L169,80a6.72,6.72,0,0,0-5.48,6.58,6.73,6.73,0,0,0-6.7-6.71h-6.2a6.72,6.72,0,0,0-6.7,6.71V79.84h-3.1a6.72,6.72,0,0,0-6.7,6.71,6.73,6.73,0,0,0-6.71-6.71h-3.1v6.71a6.72,6.72,0,0,0-6.7-6.71h-6.2a6.47,6.47,0,0,0-2.21.41l5.31,9.21v-.68Z" style="fill:url(#Degradado_sin_nombre_4-38)"/><path d="M124.27,103V96.3h3.1a6.73,6.73,0,0,1,6.71,6.7,6.72,6.72,0,0,1,6.7-6.7h3.1V103a6.72,6.72,0,0,1,6.7-6.7h6.2a6.59,6.59,0,0,1,2.47.49l4.23-7.33v-.68h-3.1a6.7,6.7,0,0,0-6.64,6.1c0,.2-.06.4-.06.6,0-.2,0-.4-.06-.6a6.7,6.7,0,0,0-6.65-6.1h-6.19a6.7,6.7,0,0,0-6.64,6.1c0,.2-.06.4-.06.6v-6.7H131a6.72,6.72,0,0,0-6.65,6.1c0,.2-.06.4-.06.6,0-.2,0-.4-.06-.6a6.7,6.7,0,0,0-6.64-6.1h-3.1v.68l4,6.93A6.71,6.71,0,0,1,124.27,103Z" style="fill:url(#Degradado_sin_nombre_4-39)"/><path d="M131,105.24h3.1v6.1h.06a6.69,6.69,0,0,1,6.64-6.1H147a6.69,6.69,0,0,1,5.62,3.07l3.85-6.66,2.81-4.86a6.59,6.59,0,0,0-2.47-.49h-6.2a6.72,6.72,0,0,0-6.7,6.7V96.3h-3.1a6.72,6.72,0,0,0-6.7,6.7,6.73,6.73,0,0,0-6.71-6.7h-3.1V103a6.71,6.71,0,0,0-5.8-6.61l3.48,6,3.41,5.89A6.72,6.72,0,0,1,131,105.24Z" style="fill:url(#Degradado_sin_nombre_4-40)"/><path d="M152.59,108.31a6.69,6.69,0,0,0-5.62-3.07h-6.19a6.69,6.69,0,0,0-6.64,6.1,5.8,5.8,0,0,0-.06.6v-6.7H131a6.72,6.72,0,0,0-5.62,3.07l3.29,5.71a6.59,6.59,0,0,0,1.4-4v6.7h3.1a6.71,6.71,0,0,0,6.7-6.7v6.7H143a6.72,6.72,0,0,0,6.71-6.7,6.54,6.54,0,0,0,.51,2.54Z" style="fill:url(#Degradado_sin_nombre_4-41)"/><path d="M87.19,94.88c0,.2.06.4.06.6,0-.2,0-.4.06-.6h-.12Z" style="fill:url(#Degradado_sin_nombre_4-79)"/><path d="M97.05,95.48c0-.2,0-.4.07-.6h-.07Z" style="fill:url(#Degradado_sin_nombre_4-80)"/><path d="M126.46,79c0-.21,0-.4.06-.61h-.06Z" style="fill:url(#Degradado_sin_nombre_4-81)"/><path d="M97.05,111.94a5.79,5.79,0,0,1,.07-.6h-.07Z" style="fill:url(#Degradado_sin_nombre_4-82)"/><path d="M116.66,79c0-.21,0-.4.06-.61h-.12C116.62,78.63,116.66,78.82,116.66,79Z" style="fill:url(#Degradado_sin_nombre_4-83)"/><path d="M116.66,95.48c0-.2,0-.4.06-.6h-.12C116.62,95.08,116.66,95.28,116.66,95.48Z" style="fill:url(#Degradado_sin_nombre_4-84)"/><path d="M77.45,62.57V62h-.06A5.8,5.8,0,0,1,77.45,62.57Z" style="fill:url(#Degradado_sin_nombre_4-85)"/><path d="M97.05,46.11c0-.2,0-.4.07-.6h-.07Z" style="fill:url(#Degradado_sin_nombre_4-86)"/><path d="M77.45,46.11v-.6h-.06C77.41,45.71,77.45,45.91,77.45,46.11Z" style="fill:url(#Degradado_sin_nombre_4-87)"/><path d="M116.66,46.11c0-.2,0-.4.06-.6h-.12C116.62,45.71,116.66,45.91,116.66,46.11Z" style="fill:url(#Degradado_sin_nombre_4-88)"/><path d="M126.46,46.11c0-.2,0-.4.06-.6h-.06Z" style="fill:url(#Degradado_sin_nombre_4-89)"/><path d="M136.26,46.11c0-.2.05-.4.06-.6h-.06Z" style="fill:url(#Degradado_sin_nombre_4-90)"/><path d="M116.66,29.66c0-.21,0-.4.06-.61h-.12C116.62,29.26,116.66,29.45,116.66,29.66Z" style="fill:url(#Degradado_sin_nombre_4-91)"/><path d="M97.05,79c0-.21,0-.4.07-.61h-.07Z" style="fill:url(#Degradado_sin_nombre_4-92)"/><path d="M97.05,29.66c0-.21,0-.4.07-.61h-.07Z" style="fill:url(#Degradado_sin_nombre_4-93)"/><path d="M87.19,62a5.8,5.8,0,0,1,.06.6c0-.21,0-.4.06-.6h-.12Z" style="fill:url(#Degradado_sin_nombre_4-94)"/><path d="M87.19,45.51c0,.2.06.4.06.6,0-.2,0-.4.06-.6h-.12Z" style="fill:url(#Degradado_sin_nombre_4-95)"/><path d="M87.19,29.05c0,.21.06.4.06.61,0-.21,0-.4.06-.61h-.12Z" style="fill:url(#Degradado_sin_nombre_4-96)"/><path d="M136.26,62.57c0-.21.05-.4.06-.6h-.06Z" style="fill:url(#Degradado_sin_nombre_4-97)"/><path d="M116.66,62.57a5.8,5.8,0,0,1,.06-.6h-.12A5.8,5.8,0,0,1,116.66,62.57Z" style="fill:url(#Degradado_sin_nombre_4-98)"/><path d="M126.46,62.57a5.8,5.8,0,0,1,.06-.6h-.06Z" style="fill:url(#Degradado_sin_nombre_4-99)"/><path d="M87.19,78.42c0,.21.06.4.06.61,0-.21,0-.4.06-.61h-.12Z" style="fill:url(#Degradado_sin_nombre_4-100)"/><path d="M77.45,79v-.61h-.06C77.41,78.63,77.45,78.82,77.45,79Z" style="fill:url(#Degradado_sin_nombre_4-101)"/><path d="M97.05,62.57a5.79,5.79,0,0,1,.07-.6h-.07Z" style="fill:url(#Degradado_sin_nombre_4-102)"/><path d="M87.19,29.05h.12A6.72,6.72,0,0,1,94,23h3.09v6.1h.07a6.7,6.7,0,0,1,6.64-6.1H110a6.7,6.7,0,0,1,6.65,6.1h.12a6.65,6.65,0,0,1,1.94-4.15A36.84,36.84,0,0,0,102,21h0a36.81,36.81,0,0,0-16.7,3.93A6.69,6.69,0,0,1,87.19,29.05Z" style="fill:url(#Degradado_sin_nombre_4-103)"/><path d="M80.55,30.47a6.72,6.72,0,0,1,6.7,6.71V30.47h3.1a6.72,6.72,0,0,1,6.7,6.71,6.73,6.73,0,0,1,6.71-6.71h3.1v6.71a6.72,6.72,0,0,1,6.7-6.71h6.2a6.73,6.73,0,0,1,6.7,6.71,6.65,6.65,0,0,1,2.14-4.88,36.42,36.42,0,0,0-9.94-7.4,6.65,6.65,0,0,0-1.94,4.15c0,.21-.06.4-.06.61,0-.21,0-.4-.06-.61A6.7,6.7,0,0,0,110,23h-6.19a6.7,6.7,0,0,0-6.64,6.1c0,.21-.07.4-.07.61V23H94a6.72,6.72,0,0,0-6.65,6.1c0,.21-.06.4-.06.61,0-.21,0-.4-.06-.61a6.69,6.69,0,0,0-1.93-4.15,36.23,36.23,0,0,0-8.09,5.57h3.38Z" style="fill:url(#Degradado_sin_nombre_4-104)"/><path d="M136.32,45.51a8.47,8.47,0,0,1,.12-.88l-.18-.46v1.34Z" style="fill:url(#Degradado_sin_nombre_4-105)"/><path d="M77.39,45.51h.06v-6.1h3.1a6.7,6.7,0,0,1,6.64,6.1h.12A6.72,6.72,0,0,1,94,39.41h3.09v6.1h.07a6.7,6.7,0,0,1,6.64-6.1H110a6.7,6.7,0,0,1,6.65,6.1h.12a6.7,6.7,0,0,1,6.64-6.1h3.1v6.1h.06a6.7,6.7,0,0,1,6.64-6.1H134a37.41,37.41,0,0,0-5.35-7.11,6.65,6.65,0,0,0-2.14,4.88,6.73,6.73,0,0,0-6.7-6.71h-6.2a6.72,6.72,0,0,0-6.7,6.71V30.47h-3.1a6.73,6.73,0,0,0-6.71,6.71,6.72,6.72,0,0,0-6.7-6.71h-3.1v6.71a6.72,6.72,0,0,0-6.7-6.71H77.17A37.37,37.37,0,0,0,70,39.41h.79A6.7,6.7,0,0,1,77.39,45.51Z" style="fill:url(#Degradado_sin_nombre_4-106)"/><path d="M67.65,53.63a6.73,6.73,0,0,1,6.7-6.7h6.2a6.72,6.72,0,0,1,6.7,6.7v-6.7h3.1a6.72,6.72,0,0,1,6.7,6.7,6.73,6.73,0,0,1,6.71-6.7h3.1v6.7a6.72,6.72,0,0,1,6.7-6.7h6.2a6.73,6.73,0,0,1,6.7,6.7,6.73,6.73,0,0,1,6.7-6.7h3.1v6.7a6.63,6.63,0,0,1,1.65-4.34,37.62,37.62,0,0,0-1.47-4.66,8.47,8.47,0,0,0-.12.88c0,.2-.06.4-.06.6V44.17A38,38,0,0,0,134,39.41h-.79a6.7,6.7,0,0,0-6.64,6.1c0,.2-.06.4-.06.6v-6.7h-3.1a6.7,6.7,0,0,0-6.64,6.1c0,.2-.06.4-.06.6,0-.2,0-.4-.06-.6a6.7,6.7,0,0,0-6.65-6.1h-6.19a6.7,6.7,0,0,0-6.64,6.1c0,.2-.07.4-.07.6v-6.7H94a6.72,6.72,0,0,0-6.65,6.1c0,.2-.06.4-.06.6,0-.2,0-.4-.06-.6a6.7,6.7,0,0,0-6.64-6.1h-3.1v6.7c0-.2,0-.4-.06-.6a6.7,6.7,0,0,0-6.64-6.1H70a37.9,37.9,0,0,0-3.3,7.52h1Z" style="fill:url(#Degradado_sin_nombre_4-107)"/><path d="M70.75,55.87A6.69,6.69,0,0,1,77.39,62h.06v-6.1h3.1A6.69,6.69,0,0,1,87.19,62h.12A6.71,6.71,0,0,1,94,55.87h3.09V62h.07a6.69,6.69,0,0,1,6.64-6.1H110A6.7,6.7,0,0,1,116.6,62h.12a6.69,6.69,0,0,1,6.64-6.1h3.1V62h.06a6.69,6.69,0,0,1,6.64-6.1h3.1V62h.06A6.69,6.69,0,0,1,139,57.22a35.63,35.63,0,0,0-1.06-7.93,6.63,6.63,0,0,0-1.65,4.34v-6.7h-3.1a6.73,6.73,0,0,0-6.7,6.7,6.73,6.73,0,0,0-6.7-6.7h-6.2a6.72,6.72,0,0,0-6.7,6.7v-6.7h-3.1a6.73,6.73,0,0,0-6.71,6.7,6.72,6.72,0,0,0-6.7-6.7h-3.1v6.7a6.72,6.72,0,0,0-6.7-6.7h-6.2a6.73,6.73,0,0,0-6.7,6.7v-6.7h-1A37.34,37.34,0,0,0,65,55.87h5.75Z" style="fill:url(#Degradado_sin_nombre_4-108)"/><path d="M67.65,70.09a6.72,6.72,0,0,1,6.7-6.7h6.2a6.71,6.71,0,0,1,6.7,6.7v-6.7h3.1a6.71,6.71,0,0,1,6.7,6.7,6.72,6.72,0,0,1,6.71-6.7h3.1v6.7a6.71,6.71,0,0,1,6.7-6.7h6.2a6.72,6.72,0,0,1,6.7,6.7,6.72,6.72,0,0,1,6.7-6.7h3.1v6.7a6.66,6.66,0,0,1,2-4.7,36.05,36.05,0,0,0,.76-8.17A6.69,6.69,0,0,0,136.32,62c0,.2-.06.39-.06.6v-6.7h-3.1a6.69,6.69,0,0,0-6.64,6.1,5.8,5.8,0,0,0-.06.6v-6.7h-3.1a6.69,6.69,0,0,0-6.64,6.1,5.8,5.8,0,0,0-.06.6,5.8,5.8,0,0,0-.06-.6,6.7,6.7,0,0,0-6.65-6.1h-6.19A6.69,6.69,0,0,0,97.12,62a5.79,5.79,0,0,0-.07.6v-6.7H94A6.71,6.71,0,0,0,87.31,62c0,.2-.06.39-.06.6a5.8,5.8,0,0,0-.06-.6,6.69,6.69,0,0,0-6.64-6.1h-3.1v6.7a5.8,5.8,0,0,0-.06-.6,6.69,6.69,0,0,0-6.64-6.1H65a36.63,36.63,0,0,0,.35,7.52h2.3Z" style="fill:url(#Degradado_sin_nombre_4-109)"/><path d="M77.39,78.42h.06v-6.1h3.1a6.7,6.7,0,0,1,6.64,6.1h.12A6.72,6.72,0,0,1,94,72.32h3.09v6.1h.07a6.7,6.7,0,0,1,6.64-6.1H110a6.7,6.7,0,0,1,6.65,6.1h.12a6.7,6.7,0,0,1,6.64-6.1h3.1v6.1h.06a6.7,6.7,0,0,1,6.64-6.1H136a37.05,37.05,0,0,0,2.19-6.93,6.66,6.66,0,0,0-2,4.7v-6.7h-3.1a6.72,6.72,0,0,0-6.7,6.7,6.72,6.72,0,0,0-6.7-6.7h-6.2a6.71,6.71,0,0,0-6.7,6.7v-6.7h-3.1a6.72,6.72,0,0,0-6.71,6.7,6.71,6.71,0,0,0-6.7-6.7h-3.1v6.7a6.71,6.71,0,0,0-6.7-6.7h-6.2a6.72,6.72,0,0,0-6.7,6.7v-6.7h-2.3a36.38,36.38,0,0,0,2.54,8.93h2.86A6.7,6.7,0,0,1,77.39,78.42Z" style="fill:url(#Degradado_sin_nombre_4-110)"/><path d="M77.45,79.84h3.1a6.72,6.72,0,0,1,6.7,6.71V79.84h3.1a6.72,6.72,0,0,1,6.7,6.71,6.73,6.73,0,0,1,6.71-6.71h3.1v6.71a6.72,6.72,0,0,1,6.7-6.71h6.2a6.73,6.73,0,0,1,6.7,6.71A6.72,6.72,0,0,1,131.94,80l2-3.53h0a38.41,38.41,0,0,0,2-4.12h-2.86a6.7,6.7,0,0,0-6.64,6.1c0,.21-.06.4-.06.61V72.32h-3.1a6.7,6.7,0,0,0-6.64,6.1c0,.21-.06.4-.06.61,0-.21,0-.4-.06-.61a6.7,6.7,0,0,0-6.65-6.1h-6.19a6.7,6.7,0,0,0-6.64,6.1c0,.21-.07.4-.07.61V72.32H94a6.72,6.72,0,0,0-6.65,6.1c0,.21-.06.4-.06.61,0-.21,0-.4-.06-.61a6.7,6.7,0,0,0-6.64-6.1h-3.1V79c0-.21,0-.4-.06-.61a6.7,6.7,0,0,0-6.64-6.1H67.89a38.41,38.41,0,0,0,2,4.12h0l2.21,3.81a6.47,6.47,0,0,1,2.21-.41Z" style="fill:url(#Degradado_sin_nombre_4-111)"/><path d="M80.55,88.78a6.7,6.7,0,0,1,6.64,6.1h.12A6.72,6.72,0,0,1,94,88.78h3.09v6.1h.07a6.7,6.7,0,0,1,6.64-6.1H110a6.7,6.7,0,0,1,6.65,6.1h.12a6.7,6.7,0,0,1,6.64-6.1h3.1v.68L131.94,80a6.72,6.72,0,0,0-5.48,6.58,6.73,6.73,0,0,0-6.7-6.71h-6.2a6.72,6.72,0,0,0-6.7,6.71V79.84h-3.1a6.73,6.73,0,0,0-6.71,6.71,6.72,6.72,0,0,0-6.7-6.71h-3.1v6.71a6.72,6.72,0,0,0-6.7-6.71h-6.2a6.47,6.47,0,0,0-2.21.41l5.31,9.21v-.68Z" style="fill:url(#Degradado_sin_nombre_4-112)"/><path d="M87.25,103V96.3h3.1a6.72,6.72,0,0,1,6.7,6.7,6.73,6.73,0,0,1,6.71-6.7h3.1V103a6.72,6.72,0,0,1,6.7-6.7h6.2a6.59,6.59,0,0,1,2.47.49l4.23-7.33v-.68h-3.1a6.7,6.7,0,0,0-6.64,6.1c0,.2-.06.4-.06.6,0-.2,0-.4-.06-.6a6.7,6.7,0,0,0-6.65-6.1h-6.19a6.7,6.7,0,0,0-6.64,6.1c0,.2-.07.4-.07.6v-6.7H94a6.72,6.72,0,0,0-6.65,6.1c0,.2-.06.4-.06.6,0-.2,0-.4-.06-.6a6.7,6.7,0,0,0-6.64-6.1h-3.1v.68l4,6.93A6.71,6.71,0,0,1,87.25,103Z" style="fill:url(#Degradado_sin_nombre_4-113)"/><path d="M94,105.24h3.09v6.1h.07a6.69,6.69,0,0,1,6.64-6.1H110a6.69,6.69,0,0,1,5.62,3.07l3.85-6.66,2.81-4.86a6.59,6.59,0,0,0-2.47-.49h-6.2a6.72,6.72,0,0,0-6.7,6.7V96.3h-3.1a6.73,6.73,0,0,0-6.71,6.7,6.72,6.72,0,0,0-6.7-6.7h-3.1V103a6.71,6.71,0,0,0-5.8-6.61l3.48,6,3.41,5.89A6.72,6.72,0,0,1,94,105.24Z" style="fill:url(#Degradado_sin_nombre_4-114)"/><path d="M115.57,108.31a6.69,6.69,0,0,0-5.62-3.07h-6.19a6.69,6.69,0,0,0-6.64,6.1,5.79,5.79,0,0,0-.07.6v-6.7H94a6.72,6.72,0,0,0-5.62,3.07L91.63,114a6.59,6.59,0,0,0,1.4-4v6.7h3.1a6.71,6.71,0,0,0,6.7-6.7v6.7h3.1a6.72,6.72,0,0,0,6.71-6.7,6.54,6.54,0,0,0,.51,2.54Z" style="fill:url(#Degradado_sin_nombre_4-115)"/><path d="M174.93,49.29a37.62,37.62,0,0,0-1.47-4.66c-.06-.15-.11-.31-.18-.46s-.16-.37-.24-.56a38,38,0,0,1-3.49,8.16h0l-2,3.54L162,64.8l-4.23,7.33L155,77l-3.85,6.67-2.43,4.21a6.73,6.73,0,0,1-.51-2.54,6.71,6.71,0,0,1-6.7,6.7h-3.1v-6.7a6.71,6.71,0,0,1-6.7,6.7h-3.1V87.65c-.08-.22-.15-.45-.21-.68a6.88,6.88,0,0,1-1.19,2.39l-.18-.31a6.69,6.69,0,0,1-5.56,3h-3.1v-6.7a6.71,6.71,0,0,1-6.7,6.7h-3.1v-1.4a6.62,6.62,0,0,1-4.08,1.4h-3.1v-6.7a6.71,6.71,0,0,1-6.7,6.7h-3.1v-6.7a6.59,6.59,0,0,1-1.4,4l-3.29-5.71-3.41-5.89-3.48-6L76,64.8l-5.32-9.21-2.2-3.82h0a37,37,0,0,1-2-4.09,35.8,35.8,0,0,0-1.1,15.71,36.38,36.38,0,0,0,2.54,8.93,37.37,37.37,0,0,0,2,4.11h0l2.21,3.81,5.31,9.21,4,6.93,3.48,6,3.41,5.89L91.63,114a6.59,6.59,0,0,0,1.4-4v6.7h3.1a6.71,6.71,0,0,0,6.7-6.7v6.7h3.1a6.65,6.65,0,0,0,4.09-1.4v1.4h3.09a6.72,6.72,0,0,0,6.71-6.7v6.7h3.09a6.73,6.73,0,0,0,5.57-3l.17.31a6.71,6.71,0,0,0,1.19-2.39c.06.23.13.46.21.68v4.37h3.1a6.72,6.72,0,0,0,6.71-6.7v6.7H143a6.72,6.72,0,0,0,6.71-6.7,6.54,6.54,0,0,0,.51,2.54l2.42-4.21,3.85-6.66,2.81-4.86,4.23-7.33L169,80l2-3.53h0a38.38,38.38,0,0,0,4.23-11,36.65,36.65,0,0,0,.77-8.17A36.23,36.23,0,0,0,174.93,49.29Z" style="fill:#249297;opacity:0.54;mix-blend-mode:multiply"/><path d="M104.17,94.88c0,.2.07.4.07.6,0-.2,0-.4.06-.6h-.13Z" style="fill:url(#Degradado_sin_nombre_4-116)"/><path d="M114,95.48c0-.2,0-.4.06-.6H114Z" style="fill:url(#Degradado_sin_nombre_4-117)"/><path d="M143.44,79c0-.21.05-.4.06-.61h-.06Z" style="fill:url(#Degradado_sin_nombre_4-118)"/><path d="M114,111.94a5.8,5.8,0,0,1,.06-.6H114Z" style="fill:url(#Degradado_sin_nombre_4-119)"/><path d="M133.64,79c0-.21,0-.4.06-.61h-.12C133.6,78.63,133.64,78.82,133.64,79Z" style="fill:url(#Degradado_sin_nombre_4-120)"/><path d="M133.64,95.48c0-.2,0-.4.06-.6h-.12C133.6,95.08,133.64,95.28,133.64,95.48Z" style="fill:url(#Degradado_sin_nombre_4-121)"/><path d="M94.43,62.57V62h-.06A5.8,5.8,0,0,1,94.43,62.57Z" style="fill:url(#Degradado_sin_nombre_4-122)"/><path d="M114,46.11c0-.2,0-.4.06-.6H114Z" style="fill:url(#Degradado_sin_nombre_4-123)"/><path d="M94.43,46.11v-.6h-.06C94.39,45.71,94.43,45.91,94.43,46.11Z" style="fill:url(#Degradado_sin_nombre_4-124)"/><path d="M133.64,46.11c0-.2,0-.4.06-.6h-.12C133.6,45.71,133.64,45.91,133.64,46.11Z" style="fill:url(#Degradado_sin_nombre_4-125)"/><path d="M143.44,46.11c0-.2.05-.4.06-.6h-.06Z" style="fill:url(#Degradado_sin_nombre_4-126)"/><path d="M153.24,46.11c0-.2,0-.4.07-.6h-.07Z" style="fill:url(#Degradado_sin_nombre_4-127)"/><path d="M133.64,29.66c0-.21,0-.4.06-.61h-.12C133.6,29.26,133.64,29.45,133.64,29.66Z" style="fill:url(#Degradado_sin_nombre_4-128)"/><path d="M114,79c0-.21,0-.4.06-.61H114Z" style="fill:url(#Degradado_sin_nombre_4-129)"/><path d="M114,29.66c0-.21,0-.4.06-.61H114Z" style="fill:url(#Degradado_sin_nombre_4-130)"/><path d="M104.17,62a5.79,5.79,0,0,1,.07.6,5.8,5.8,0,0,1,.06-.6h-.13Z" style="fill:url(#Degradado_sin_nombre_4-131)"/><path d="M104.17,45.51c0,.2.07.4.07.6,0-.2,0-.4.06-.6h-.13Z" style="fill:url(#Degradado_sin_nombre_4-132)"/><path d="M104.17,29.05c0,.21.07.4.07.61,0-.21,0-.4.06-.61h-.13Z" style="fill:url(#Degradado_sin_nombre_4-133)"/><path d="M153.24,62.57a5.79,5.79,0,0,1,.07-.6h-.07Z" style="fill:url(#Degradado_sin_nombre_4-134)"/><path d="M133.64,62.57a5.8,5.8,0,0,1,.06-.6h-.12A5.8,5.8,0,0,1,133.64,62.57Z" style="fill:url(#Degradado_sin_nombre_4-135)"/><path d="M143.44,62.57c0-.21.05-.4.06-.6h-.06Z" style="fill:url(#Degradado_sin_nombre_4-136)"/><path d="M104.17,78.42c0,.21.07.4.07.61,0-.21,0-.4.06-.61h-.13Z" style="fill:url(#Degradado_sin_nombre_4-137)"/><path d="M94.43,79v-.61h-.06C94.39,78.63,94.43,78.82,94.43,79Z" style="fill:url(#Degradado_sin_nombre_4-138)"/><path d="M114,62.57a5.8,5.8,0,0,1,.06-.6H114Z" style="fill:url(#Degradado_sin_nombre_4-139)"/><path d="M104.17,29.05h.13a6.7,6.7,0,0,1,6.64-6.1H114v6.1h.06a6.7,6.7,0,0,1,6.64-6.1h6.2a6.7,6.7,0,0,1,6.64,6.1h.12a6.65,6.65,0,0,1,1.94-4.15A36.84,36.84,0,0,0,118.94,21h0a36.81,36.81,0,0,0-16.7,3.93A6.64,6.64,0,0,1,104.17,29.05Z" style="fill:url(#Degradado_sin_nombre_4-140)"/><path d="M97.53,30.47a6.73,6.73,0,0,1,6.71,6.71V30.47h3.09A6.73,6.73,0,0,1,114,37.18a6.72,6.72,0,0,1,6.7-6.71h3.1v6.71a6.73,6.73,0,0,1,6.7-6.71h6.2a6.72,6.72,0,0,1,6.7,6.71,6.66,6.66,0,0,1,2.15-4.88,36.47,36.47,0,0,0-10-7.4,6.65,6.65,0,0,0-1.94,4.15c0,.21-.06.4-.06.61,0-.21,0-.4-.06-.61a6.7,6.7,0,0,0-6.64-6.1h-6.2a6.7,6.7,0,0,0-6.64,6.1c0,.21-.06.4-.06.61V23h-3.1a6.7,6.7,0,0,0-6.64,6.1c0,.21-.06.4-.06.61,0-.21,0-.4-.07-.61a6.64,6.64,0,0,0-1.93-4.15,36.46,36.46,0,0,0-8.09,5.57h3.38Z" style="fill:url(#Degradado_sin_nombre_4-141)"/><path d="M153.31,45.51a6.41,6.41,0,0,1,.11-.88c-.06-.15-.11-.31-.18-.46v1.34Z" style="fill:url(#Degradado_sin_nombre_4-142)"/><path d="M94.37,45.51h.06v-6.1h3.1a6.7,6.7,0,0,1,6.64,6.1h.13a6.7,6.7,0,0,1,6.64-6.1H114v6.1h.06a6.7,6.7,0,0,1,6.64-6.1h6.2a6.7,6.7,0,0,1,6.64,6.1h.12a6.7,6.7,0,0,1,6.65-6.1h3.09v6.1h.06a6.72,6.72,0,0,1,6.65-6.1h.78a37.36,37.36,0,0,0-5.34-7.11,6.66,6.66,0,0,0-2.15,4.88,6.72,6.72,0,0,0-6.7-6.71h-6.2a6.73,6.73,0,0,0-6.7,6.71V30.47h-3.1a6.72,6.72,0,0,0-6.7,6.71,6.73,6.73,0,0,0-6.71-6.71h-3.09v6.71a6.73,6.73,0,0,0-6.71-6.71H94.15A37.57,37.57,0,0,0,87,39.41h.78A6.7,6.7,0,0,1,94.37,45.51Z" style="fill:url(#Degradado_sin_nombre_4-143)"/><path d="M84.63,53.63a6.73,6.73,0,0,1,6.71-6.7h6.19a6.73,6.73,0,0,1,6.71,6.7v-6.7h3.09a6.73,6.73,0,0,1,6.71,6.7,6.72,6.72,0,0,1,6.7-6.7h3.1v6.7a6.73,6.73,0,0,1,6.7-6.7h6.2a6.72,6.72,0,0,1,6.7,6.7,6.73,6.73,0,0,1,6.71-6.7h3.09v6.7a6.63,6.63,0,0,1,1.65-4.34,36,36,0,0,0-1.47-4.66,6.41,6.41,0,0,0-.11.88c0,.2-.07.4-.07.6V44.17a36.65,36.65,0,0,0-2.31-4.76h-.78a6.72,6.72,0,0,0-6.65,6.1c0,.2-.06.4-.06.6v-6.7h-3.09a6.7,6.7,0,0,0-6.65,6.1c0,.2-.06.4-.06.6,0-.2,0-.4-.06-.6a6.7,6.7,0,0,0-6.64-6.1h-6.2a6.7,6.7,0,0,0-6.64,6.1c0,.2-.06.4-.06.6v-6.7h-3.1a6.7,6.7,0,0,0-6.64,6.1c0,.2-.06.4-.06.6,0-.2,0-.4-.07-.6a6.7,6.7,0,0,0-6.64-6.1h-3.1v6.7c0-.2,0-.4-.06-.6a6.7,6.7,0,0,0-6.64-6.1H87a37.36,37.36,0,0,0-3.31,7.52h1Z" style="fill:url(#Degradado_sin_nombre_4-144)"/><path d="M87.73,55.87A6.69,6.69,0,0,1,94.37,62h.06v-6.1h3.1a6.69,6.69,0,0,1,6.64,6.1h.13a6.69,6.69,0,0,1,6.64-6.1H114V62h.06a6.69,6.69,0,0,1,6.64-6.1h6.2a6.69,6.69,0,0,1,6.64,6.1h.12a6.7,6.7,0,0,1,6.65-6.1h3.09V62h.06a6.71,6.71,0,0,1,6.65-6.1h3.09V62h.07A6.66,6.66,0,0,1,156,57.22a36.23,36.23,0,0,0-1.07-7.93,6.63,6.63,0,0,0-1.65,4.34v-6.7h-3.09a6.73,6.73,0,0,0-6.71,6.7,6.72,6.72,0,0,0-6.7-6.7h-6.2a6.73,6.73,0,0,0-6.7,6.7v-6.7h-3.1a6.72,6.72,0,0,0-6.7,6.7,6.73,6.73,0,0,0-6.71-6.7h-3.09v6.7a6.73,6.73,0,0,0-6.71-6.7H91.34a6.73,6.73,0,0,0-6.71,6.7v-6.7h-1A36.85,36.85,0,0,0,82,55.87h5.74Z" style="fill:url(#Degradado_sin_nombre_4-145)"/><path d="M84.63,70.09a6.72,6.72,0,0,1,6.71-6.7h6.19a6.72,6.72,0,0,1,6.71,6.7v-6.7h3.09a6.72,6.72,0,0,1,6.71,6.7,6.71,6.71,0,0,1,6.7-6.7h3.1v6.7a6.72,6.72,0,0,1,6.7-6.7h6.2a6.71,6.71,0,0,1,6.7,6.7,6.72,6.72,0,0,1,6.71-6.7h3.09v6.7a6.66,6.66,0,0,1,1.95-4.7,36.06,36.06,0,0,0,.77-8.17A6.66,6.66,0,0,0,153.31,62a5.79,5.79,0,0,0-.07.6v-6.7h-3.09A6.71,6.71,0,0,0,143.5,62c0,.2-.06.39-.06.6v-6.7h-3.09A6.7,6.7,0,0,0,133.7,62a5.8,5.8,0,0,0-.06.6,5.8,5.8,0,0,0-.06-.6,6.69,6.69,0,0,0-6.64-6.1h-6.2A6.69,6.69,0,0,0,114.1,62a5.8,5.8,0,0,0-.06.6v-6.7h-3.1A6.69,6.69,0,0,0,104.3,62a5.8,5.8,0,0,0-.06.6,5.79,5.79,0,0,0-.07-.6,6.69,6.69,0,0,0-6.64-6.1h-3.1v6.7a5.8,5.8,0,0,0-.06-.6,6.69,6.69,0,0,0-6.64-6.1H82a35.93,35.93,0,0,0,.34,7.52h2.3Z" style="fill:url(#Degradado_sin_nombre_4-146)"/><path d="M94.37,78.42h.06v-6.1h3.1a6.7,6.7,0,0,1,6.64,6.1h.13a6.7,6.7,0,0,1,6.64-6.1H114v6.1h.06a6.7,6.7,0,0,1,6.64-6.1h6.2a6.7,6.7,0,0,1,6.64,6.1h.12a6.7,6.7,0,0,1,6.65-6.1h3.09v6.1h.06a6.72,6.72,0,0,1,6.65-6.1H153a37.05,37.05,0,0,0,2.19-6.93,6.66,6.66,0,0,0-1.95,4.7v-6.7h-3.09a6.72,6.72,0,0,0-6.71,6.7,6.71,6.71,0,0,0-6.7-6.7h-6.2a6.72,6.72,0,0,0-6.7,6.7v-6.7h-3.1a6.71,6.71,0,0,0-6.7,6.7,6.72,6.72,0,0,0-6.71-6.7h-3.09v6.7a6.72,6.72,0,0,0-6.71-6.7H91.34a6.72,6.72,0,0,0-6.71,6.7v-6.7h-2.3a36.83,36.83,0,0,0,2.54,8.93h2.86A6.7,6.7,0,0,1,94.37,78.42Z" style="fill:url(#Degradado_sin_nombre_4-147)"/><path d="M94.43,79.84h3.1a6.73,6.73,0,0,1,6.71,6.71V79.84h3.09A6.73,6.73,0,0,1,114,86.55a6.72,6.72,0,0,1,6.7-6.71h3.1v6.71a6.73,6.73,0,0,1,6.7-6.71h6.2a6.72,6.72,0,0,1,6.7,6.71A6.73,6.73,0,0,1,148.92,80l2-3.53h0a38.41,38.41,0,0,0,2-4.12h-2.85a6.72,6.72,0,0,0-6.65,6.1c0,.21-.06.4-.06.61V72.32h-3.09a6.7,6.7,0,0,0-6.65,6.1c0,.21-.06.4-.06.61,0-.21,0-.4-.06-.61a6.7,6.7,0,0,0-6.64-6.1h-6.2a6.7,6.7,0,0,0-6.64,6.1c0,.21-.06.4-.06.61V72.32h-3.1a6.7,6.7,0,0,0-6.64,6.1c0,.21-.06.4-.06.61,0-.21,0-.4-.07-.61a6.7,6.7,0,0,0-6.64-6.1h-3.1V79c0-.21,0-.4-.06-.61a6.7,6.7,0,0,0-6.64-6.1H84.87a38.51,38.51,0,0,0,2,4.12h0l2.2,3.81a6.57,6.57,0,0,1,2.22-.41Z" style="fill:url(#Degradado_sin_nombre_4-148)"/><path d="M97.53,88.78a6.7,6.7,0,0,1,6.64,6.1h.13a6.7,6.7,0,0,1,6.64-6.1H114v6.1h.06a6.7,6.7,0,0,1,6.64-6.1h6.2a6.7,6.7,0,0,1,6.64,6.1h.12a6.7,6.7,0,0,1,6.65-6.1h3.09v.68L148.92,80a6.73,6.73,0,0,0-5.48,6.58,6.72,6.72,0,0,0-6.7-6.71h-6.2a6.73,6.73,0,0,0-6.7,6.71V79.84h-3.1a6.72,6.72,0,0,0-6.7,6.71,6.73,6.73,0,0,0-6.71-6.71h-3.09v6.71a6.73,6.73,0,0,0-6.71-6.71H91.34a6.57,6.57,0,0,0-2.22.41l5.31,9.21v-.68Z" style="fill:url(#Degradado_sin_nombre_4-149)"/><path d="M104.24,103V96.3h3.09A6.73,6.73,0,0,1,114,103a6.72,6.72,0,0,1,6.7-6.7h3.1V103a6.73,6.73,0,0,1,6.7-6.7h6.2a6.59,6.59,0,0,1,2.47.49l4.23-7.33v-.68h-3.09a6.7,6.7,0,0,0-6.65,6.1c0,.2-.06.4-.06.6,0-.2,0-.4-.06-.6a6.7,6.7,0,0,0-6.64-6.1h-6.2a6.7,6.7,0,0,0-6.64,6.1c0,.2-.06.4-.06.6v-6.7h-3.1a6.7,6.7,0,0,0-6.64,6.1c0,.2-.06.4-.06.6,0-.2,0-.4-.07-.6a6.7,6.7,0,0,0-6.64-6.1h-3.1v.68l4,6.93A6.71,6.71,0,0,1,104.24,103Z" style="fill:url(#Degradado_sin_nombre_4-150)"/><path d="M110.94,105.24H114v6.1h.06a6.69,6.69,0,0,1,6.64-6.1h6.2a6.72,6.72,0,0,1,5.62,3.07l3.85-6.66,2.8-4.86a6.59,6.59,0,0,0-2.47-.49h-6.2a6.73,6.73,0,0,0-6.7,6.7V96.3h-3.1A6.72,6.72,0,0,0,114,103a6.73,6.73,0,0,0-6.71-6.7h-3.09V103a6.71,6.71,0,0,0-5.8-6.61l3.48,6,3.4,5.89A6.72,6.72,0,0,1,110.94,105.24Z" style="fill:url(#Degradado_sin_nombre_4-151)"/><path d="M132.56,108.31a6.72,6.72,0,0,0-5.62-3.07h-6.2a6.69,6.69,0,0,0-6.64,6.1,5.8,5.8,0,0,0-.06.6v-6.7h-3.1a6.72,6.72,0,0,0-5.62,3.07l3.3,5.71a6.66,6.66,0,0,0,1.4-4v6.7h3.09a6.72,6.72,0,0,0,6.71-6.7v6.7h3.09a6.72,6.72,0,0,0,6.71-6.7,6.54,6.54,0,0,0,.51,2.54Z" style="fill:url(#Degradado_sin_nombre_4-152)"/><path d="M65,58.11a37.34,37.34,0,0,1,1.66-8.94A37.9,37.9,0,0,1,70,41.65a37.37,37.37,0,0,1,7.21-8.94,36.23,36.23,0,0,1,8.09-5.57A36.81,36.81,0,0,1,102,23.21h0a37.89,37.89,0,0,1,8.49,1,37.82,37.82,0,0,1,8.49-1h0a37.54,37.54,0,0,1,10,1.36,37.54,37.54,0,0,1,10-1.36h0a36.84,36.84,0,0,1,16.7,3.93,36.42,36.42,0,0,1,9.94,7.4A37.41,37.41,0,0,1,171,41.65a38,38,0,0,1,2.31,4.76c.07.15.12.31.18.46a37.62,37.62,0,0,1,1.47,4.66,36.72,36.72,0,0,1,1,7.64c0-.65,0-1.3,0-2a36.23,36.23,0,0,0-1.07-7.93,37.62,37.62,0,0,0-1.47-4.66c-.06-.15-.11-.31-.18-.46A38,38,0,0,0,171,39.41a37.41,37.41,0,0,0-5.35-7.11,36.42,36.42,0,0,0-9.94-7.4A36.84,36.84,0,0,0,139,21h0a37.54,37.54,0,0,0-10,1.36,37.54,37.54,0,0,0-10-1.36h0a37.25,37.25,0,0,0-8.49,1A37.31,37.31,0,0,0,102,21h0a36.81,36.81,0,0,0-16.7,3.93,36.23,36.23,0,0,0-8.09,5.57A37.37,37.37,0,0,0,70,39.41a37.9,37.9,0,0,0-3.3,7.52A37.34,37.34,0,0,0,65,55.87c-.06,1.09-.07,2.18,0,3.29C65,58.81,65,58.45,65,58.11Z" style="fill:#a6e5e8"/></g></g></g></svg>