<svg xmlns="http://www.w3.org/2000/svg" xmlns:xlink="http://www.w3.org/1999/xlink" viewBox="0 0 201.86 179.27"><defs><linearGradient id="Degradado_sin_nombre_5" x1="48.85" y1="172.72" x2="91.63" y2="172.72" gradientUnits="userSpaceOnUse"><stop offset="0" stop-color="#ff8410"/><stop offset="1" stop-color="#bf0f00"/></linearGradient><linearGradient id="Degradado_sin_nombre_5-2" x1="-280.68" y1="131.07" x2="-280.68" y2="174.21" gradientTransform="matrix(1, 0, 0, -1, 357.64, 305.28)" xlink:href="#Degradado_sin_nombre_5"/><linearGradient id="Degradado_sin_nombre_5-3" x1="111.64" y1="172.72" x2="154.42" y2="172.72" xlink:href="#Degradado_sin_nombre_5"/><linearGradient id="Degradado_sin_nombre_5-4" x1="-329.13" y1="131.07" x2="-329.13" y2="174.21" gradientTransform="matrix(1, 0, 0, -1, 454.54, 305.28)" xlink:href="#Degradado_sin_nombre_5"/><linearGradient id="Degradado_sin_nombre_5-5" x1="114.23" y1="139.21" x2="136.6" y2="139.21" gradientTransform="translate(250.83 278.42) rotate(-180)" xlink:href="#Degradado_sin_nombre_5"/><linearGradient id="Degradado_sin_nombre_5-6" x1="65.78" y1="139.21" x2="88.14" y2="139.21" gradientTransform="translate(153.92 278.42) rotate(-180)" xlink:href="#Degradado_sin_nombre_5"/><linearGradient id="Degradado_sin_nombre_5-7" x1="-29.47" y1="-407.28" x2="21.48" y2="-495.54" gradientTransform="translate(107.69 574.54)" xlink:href="#Degradado_sin_nombre_5"/><linearGradient id="Degradado_sin_nombre_5-8" x1="-243.73" y1="102.74" x2="-243.73" y2="89.18" gradientTransform="matrix(0.83, -0.56, 0.56, 0.83, 167.12, -156.49)" xlink:href="#Degradado_sin_nombre_5"/><linearGradient id="Degradado_sin_nombre_5-9" x1="109.58" y1="63.7" x2="109.58" y2="74.01" gradientTransform="translate(-66.25 -34.76) rotate(15.78)" xlink:href="#Degradado_sin_nombre_5"/><linearGradient id="Degradado_sin_nombre_5-10" x1="25.87" y1="86.41" x2="25.87" y2="72.84" gradientTransform="translate(14.95 -25.2) rotate(5.42)" xlink:href="#Degradado_sin_nombre_5"/><linearGradient id="Degradado_sin_nombre_5-11" x1="269.73" y1="-153.8" x2="269.73" y2="-143.48" gradientTransform="translate(-242.25 -81.13) rotate(55.59)" xlink:href="#Degradado_sin_nombre_5"/><linearGradient id="Degradado_sin_nombre_5-12" x1="-322.7" y1="109.18" x2="-322.7" y2="125.06" gradientTransform="matrix(-0.98, -0.21, -0.21, 0.98, -266.17, -33.34)" xlink:href="#Degradado_sin_nombre_5"/><linearGradient id="Degradado_sin_nombre_5-13" x1="-306.86" y1="109.18" x2="-306.86" y2="125.06" gradientTransform="matrix(-0.98, -0.21, -0.21, 0.98, -266.17, -33.34)" xlink:href="#Degradado_sin_nombre_5"/><linearGradient id="Degradado_sin_nombre_5-14" x1="-871.51" y1="29.98" x2="-871.51" y2="107.43" gradientTransform="matrix(1, 0, 0, -1, 897.4, 167.84)" xlink:href="#Degradado_sin_nombre_5"/><linearGradient id="Degradado_sin_nombre_5-15" x1="84.82" y1="29.98" x2="84.82" y2="107.43" gradientTransform="translate(-42.75 14.26) rotate(12.03)" xlink:href="#Degradado_sin_nombre_5"/><linearGradient id="Degradado_sin_nombre_5-16" x1="97.23" y1="107.87" x2="111.01" y2="107.87" gradientTransform="translate(-42.75 14.26) rotate(12.03)" xlink:href="#Degradado_sin_nombre_5"/><linearGradient id="Degradado_sin_nombre_5-17" x1="-314.88" y1="121.97" x2="-314.88" y2="92" gradientTransform="matrix(1, 0, 0, -1, 334.39, 243.9)" xlink:href="#Degradado_sin_nombre_5"/><linearGradient id="Degradado_sin_nombre_5-18" x1="19.51" y1="153.84" x2="19.51" y2="123.87" xlink:href="#Degradado_sin_nombre_5"/><linearGradient id="Degradado_sin_nombre_5-19" x1="79.06" y1="34.69" x2="89.88" y2="34.69" gradientTransform="translate(-42.75 14.26) rotate(12.03)" xlink:href="#Degradado_sin_nombre_5"/><linearGradient id="Degradado_sin_nombre_5-20" x1="72.08" y1="42.15" x2="80.22" y2="42.15" gradientTransform="translate(-42.75 14.26) rotate(12.03)" xlink:href="#Degradado_sin_nombre_5"/><linearGradient id="Degradado_sin_nombre_5-21" x1="82.9" y1="39.19" x2="87.64" y2="39.19" gradientTransform="translate(-42.75 14.26) rotate(12.03)" xlink:href="#Degradado_sin_nombre_5"/><linearGradient id="Degradado_sin_nombre_5-22" x1="81.39" y1="46.45" x2="87.64" y2="46.45" gradientTransform="translate(-42.75 14.26) rotate(12.03)" xlink:href="#Degradado_sin_nombre_5"/><linearGradient id="Degradado_sin_nombre_5-23" x1="74.64" y1="52.77" x2="81.39" y2="52.77" gradientTransform="translate(-42.75 14.26) rotate(12.03)" xlink:href="#Degradado_sin_nombre_5"/><linearGradient id="Degradado_sin_nombre_5-24" x1="-186.25" y1="113.16" x2="-186.25" y2="102.79" gradientTransform="translate(145.02 -119.4) rotate(-26.29)" xlink:href="#Degradado_sin_nombre_5"/><linearGradient id="Degradado_sin_nombre_5-25" x1="155.51" y1="28.27" x2="155.51" y2="36.17" gradientTransform="translate(-103.17 -31.76) rotate(23.88)" xlink:href="#Degradado_sin_nombre_5"/><linearGradient id="Degradado_sin_nombre_5-26" x1="-362.6" y1="41.39" x2="-362.6" y2="31.01" gradientTransform="translate(182.96 -259.08) rotate(-57.1)" xlink:href="#Degradado_sin_nombre_5"/><linearGradient id="Degradado_sin_nombre_5-27" x1="-12.57" y1="117.72" x2="-12.57" y2="125.61" gradientTransform="translate(14.66 -56.7) rotate(-6.93)" xlink:href="#Degradado_sin_nombre_5"/><linearGradient id="Degradado_sin_nombre_5-28" x1="85.48" y1="37" x2="85.48" y2="26.62" gradientTransform="translate(-31.34 1.06) rotate(19.57)" xlink:href="#Degradado_sin_nombre_5"/><linearGradient id="Degradado_sin_nombre_5-29" x1="271.07" y1="-229.18" x2="271.07" y2="-221.29" gradientTransform="translate(-267.06 -116.05) rotate(69.74)" xlink:href="#Degradado_sin_nombre_5"/><linearGradient id="Degradado_sin_nombre_5-30" x1="-187.92" y1="118.72" x2="-187.92" y2="110.7" gradientTransform="translate(145.02 -119.4) rotate(-26.29)" xlink:href="#Degradado_sin_nombre_5"/><linearGradient id="Degradado_sin_nombre_5-31" x1="159.52" y1="34.62" x2="159.52" y2="40.72" gradientTransform="translate(-103.17 -31.76) rotate(23.88)" xlink:href="#Degradado_sin_nombre_5"/><linearGradient id="Degradado_sin_nombre_5-32" x1="-365.33" y1="46.32" x2="-365.33" y2="38.3" gradientTransform="translate(182.96 -259.08) rotate(-57.1)" xlink:href="#Degradado_sin_nombre_5"/><linearGradient id="Degradado_sin_nombre_5-33" x1="-9.72" y1="124.49" x2="-9.72" y2="130.59" gradientTransform="translate(14.66 -56.7) rotate(-6.93)" xlink:href="#Degradado_sin_nombre_5"/><linearGradient id="Degradado_sin_nombre_5-34" x1="86.46" y1="42.72" x2="86.46" y2="34.71" gradientTransform="translate(-31.34 1.06) rotate(19.57)" xlink:href="#Degradado_sin_nombre_5"/><linearGradient id="Degradado_sin_nombre_5-35" x1="276.91" y1="-224.75" x2="276.91" y2="-218.65" gradientTransform="translate(-267.06 -116.05) rotate(69.74)" xlink:href="#Degradado_sin_nombre_5"/><linearGradient id="Degradado_sin_nombre_5-39" x1="-49.16" y1="235.92" x2="-49.16" y2="222.36" gradientTransform="matrix(-0.83, -0.56, -0.56, 0.83, 270.52, -156.49)" xlink:href="#Degradado_sin_nombre_5"/><linearGradient id="Degradado_sin_nombre_5-40" x1="336.49" y1="-0.41" x2="336.49" y2="9.9" gradientTransform="matrix(-0.96, 0.27, 0.27, 0.96, 503.9, -34.76)" xlink:href="#Degradado_sin_nombre_5"/><linearGradient id="Degradado_sin_nombre_5-41" x1="260.6" y1="64.12" x2="260.6" y2="50.55" gradientTransform="matrix(-1, 0.09, 0.09, 1, 422.69, -25.2)" xlink:href="#Degradado_sin_nombre_5"/><linearGradient id="Degradado_sin_nombre_5-42" x1="402.97" y1="-348.33" x2="402.97" y2="-338.01" gradientTransform="matrix(-0.57, 0.83, 0.83, 0.57, 679.89, -81.13)" xlink:href="#Degradado_sin_nombre_5"/><linearGradient id="Degradado_sin_nombre_5-43" x1="-553.31" y1="60.05" x2="-553.31" y2="75.92" gradientTransform="translate(703.82 -33.34) rotate(-12.03)" xlink:href="#Degradado_sin_nombre_5"/><linearGradient id="Degradado_sin_nombre_5-44" x1="-537.47" y1="60.05" x2="-537.47" y2="75.92" gradientTransform="translate(703.82 -33.34) rotate(-12.03)" xlink:href="#Degradado_sin_nombre_5"/><linearGradient id="Degradado_sin_nombre_5-45" x1="-1102.12" y1="-19.15" x2="-1102.12" y2="58.29" gradientTransform="translate(1278.09 79.56)" xlink:href="#Degradado_sin_nombre_5"/><linearGradient id="Degradado_sin_nombre_5-46" x1="315.43" y1="-19.15" x2="315.43" y2="58.29" gradientTransform="matrix(-0.98, 0.21, 0.21, 0.98, 480.4, 14.26)" xlink:href="#Degradado_sin_nombre_5"/><linearGradient id="Degradado_sin_nombre_5-47" x1="327.84" y1="58.74" x2="341.62" y2="58.74" gradientTransform="matrix(-0.98, 0.21, 0.21, 0.98, 480.4, 14.26)" xlink:href="#Degradado_sin_nombre_5"/><linearGradient id="Degradado_sin_nombre_5-48" x1="-545.5" y1="72.84" x2="-545.5" y2="42.87" gradientTransform="translate(727.85 79.06)" xlink:href="#Degradado_sin_nombre_5"/><linearGradient id="Degradado_sin_nombre_5-49" x1="255.3" y1="153.84" x2="255.3" y2="123.87" gradientTransform="matrix(-1, 0, 0, 1, 437.65, 0)" xlink:href="#Degradado_sin_nombre_5"/><linearGradient id="Degradado_sin_nombre_5-50" x1="309.67" y1="-14.44" x2="320.49" y2="-14.44" gradientTransform="matrix(-0.98, 0.21, 0.21, 0.98, 480.4, 14.26)" xlink:href="#Degradado_sin_nombre_5"/><linearGradient id="Degradado_sin_nombre_5-51" x1="302.7" y1="-6.99" x2="310.84" y2="-6.99" gradientTransform="matrix(-0.98, 0.21, 0.21, 0.98, 480.4, 14.26)" xlink:href="#Degradado_sin_nombre_5"/><linearGradient id="Degradado_sin_nombre_5-52" x1="313.51" y1="-9.94" x2="318.25" y2="-9.94" gradientTransform="matrix(-0.98, 0.21, 0.21, 0.98, 480.4, 14.26)" xlink:href="#Degradado_sin_nombre_5"/><linearGradient id="Degradado_sin_nombre_5-53" x1="312" y1="-2.69" x2="318.25" y2="-2.69" gradientTransform="matrix(-0.98, 0.21, 0.21, 0.98, 480.4, 14.26)" xlink:href="#Degradado_sin_nombre_5"/><linearGradient id="Degradado_sin_nombre_5-54" x1="305.25" y1="3.64" x2="312" y2="3.64" gradientTransform="matrix(-0.98, 0.21, 0.21, 0.98, 480.4, 14.26)" xlink:href="#Degradado_sin_nombre_5"/><linearGradient id="Degradado_sin_nombre_5-55" x1="25.14" y1="217.61" x2="25.14" y2="207.23" gradientTransform="matrix(-0.9, -0.44, -0.44, 0.9, 292.62, -119.4)" xlink:href="#Degradado_sin_nombre_5"/><linearGradient id="Degradado_sin_nombre_5-56" x1="371.12" y1="-67.16" x2="371.12" y2="-59.27" gradientTransform="matrix(-0.91, 0.4, 0.4, 0.91, 540.82, -31.76)" xlink:href="#Degradado_sin_nombre_5"/><linearGradient id="Degradado_sin_nombre_5-57" x1="-234.52" y1="239.36" x2="-234.52" y2="228.98" gradientTransform="matrix(-0.54, -0.84, -0.84, 0.54, 254.69, -259.08)" xlink:href="#Degradado_sin_nombre_5"/><linearGradient id="Degradado_sin_nombre_5-58" x1="221.5" y1="146.18" x2="221.5" y2="154.07" gradientTransform="matrix(-0.99, -0.12, -0.12, 0.99, 422.99, -56.7)" xlink:href="#Degradado_sin_nombre_5"/><linearGradient id="Degradado_sin_nombre_5-59" x1="307.64" y1="-42" x2="307.64" y2="-52.37" gradientTransform="matrix(-0.94, 0.34, 0.34, 0.94, 468.99, 1.06)" xlink:href="#Degradado_sin_nombre_5"/><linearGradient id="Degradado_sin_nombre_5-60" x1="352.71" y1="-450.38" x2="352.71" y2="-442.49" gradientTransform="matrix(-0.35, 0.94, 0.94, 0.35, 704.71, -116.05)" xlink:href="#Degradado_sin_nombre_5"/><linearGradient id="Degradado_sin_nombre_5-61" x1="23.48" y1="223.16" x2="23.48" y2="215.15" gradientTransform="matrix(-0.9, -0.44, -0.44, 0.9, 292.62, -119.4)" xlink:href="#Degradado_sin_nombre_5"/><linearGradient id="Degradado_sin_nombre_5-62" x1="375.13" y1="-60.81" x2="375.13" y2="-54.71" gradientTransform="matrix(-0.91, 0.4, 0.4, 0.91, 540.82, -31.76)" xlink:href="#Degradado_sin_nombre_5"/><linearGradient id="Degradado_sin_nombre_5-63" x1="-237.25" y1="244.29" x2="-237.25" y2="236.27" gradientTransform="matrix(-0.54, -0.84, -0.84, 0.54, 254.69, -259.08)" xlink:href="#Degradado_sin_nombre_5"/><linearGradient id="Degradado_sin_nombre_5-64" x1="224.35" y1="152.94" x2="224.35" y2="159.04" gradientTransform="matrix(-0.99, -0.12, -0.12, 0.99, 422.99, -56.7)" xlink:href="#Degradado_sin_nombre_5"/><linearGradient id="Degradado_sin_nombre_5-65" x1="308.62" y1="-36.27" x2="308.62" y2="-44.29" gradientTransform="matrix(-0.94, 0.34, 0.34, 0.94, 468.99, 1.06)" xlink:href="#Degradado_sin_nombre_5"/><linearGradient id="Degradado_sin_nombre_5-66" x1="358.55" y1="-445.95" x2="358.55" y2="-439.86" gradientTransform="matrix(-0.35, 0.94, 0.94, 0.35, 704.71, -116.05)" xlink:href="#Degradado_sin_nombre_5"/><linearGradient id="Degradado_sin_nombre_5-70" x1="17" y1="118.91" x2="17" y2="95.95" gradientTransform="translate(80.48 -95.24) rotate(-2.15)" xlink:href="#Degradado_sin_nombre_5"/><linearGradient id="Degradado_sin_nombre_5-71" x1="101.63" y1="0" x2="101.63" y2="22.95" xlink:href="#Degradado_sin_nombre_5"/><linearGradient id="Degradado_sin_nombre_5-72" x1="123.67" y1="86.01" x2="123.67" y2="63.05" gradientTransform="matrix(0.95, 0.3, -0.3, 0.95, 28.81, -92.6)" xlink:href="#Degradado_sin_nombre_5"/><linearGradient id="Degradado_sin_nombre_5-73" x1="123.21" y1="4.7" x2="123.21" y2="26.96" xlink:href="#Degradado_sin_nombre_5"/><linearGradient id="Degradado_sin_nombre_5-74" x1="213.08" y1="19.17" x2="213.08" y2="-3.79" gradientTransform="matrix(0.8, 0.6, -0.6, 0.8, -20.74, -107.48)" xlink:href="#Degradado_sin_nombre_5"/><linearGradient id="Degradado_sin_nombre_5-75" x1="142.98" y1="18.12" x2="142.98" y2="37.98" xlink:href="#Degradado_sin_nombre_5"/><linearGradient id="Degradado_sin_nombre_5-76" x1="274.82" y1="-73.83" x2="274.82" y2="-96.79" gradientTransform="translate(-62.4 -138.15) rotate(56.77)" xlink:href="#Degradado_sin_nombre_5"/><linearGradient id="Degradado_sin_nombre_5-77" x1="158.93" y1="38.69" x2="158.93" y2="54.73" xlink:href="#Degradado_sin_nombre_5"/><linearGradient id="Degradado_sin_nombre_5-78" x1="-131.47" y1="166.41" x2="-131.47" y2="143.45" gradientTransform="matrix(-0.95, 0.3, 0.3, 0.95, -94.83, -92.6)" xlink:href="#Degradado_sin_nombre_5"/><linearGradient id="Degradado_sin_nombre_5-79" x1="78.27" y1="4.7" x2="78.27" y2="26.96" xlink:href="#Degradado_sin_nombre_5"/><linearGradient id="Degradado_sin_nombre_5-80" x1="-0.19" y1="180.64" x2="-0.19" y2="157.69" gradientTransform="matrix(-0.8, 0.6, 0.6, 0.8, -45.28, -107.48)" xlink:href="#Degradado_sin_nombre_5"/><linearGradient id="Degradado_sin_nombre_5-81" x1="58.5" y1="18.12" x2="58.5" y2="37.98" xlink:href="#Degradado_sin_nombre_5"/><linearGradient id="Degradado_sin_nombre_5-82" x1="128.23" y1="149.93" x2="128.23" y2="126.97" gradientTransform="matrix(-0.55, 0.84, 0.84, 0.55, -3.62, -138.15)" xlink:href="#Degradado_sin_nombre_5"/><linearGradient id="Degradado_sin_nombre_5-83" x1="42.56" y1="38.69" x2="42.56" y2="54.73" xlink:href="#Degradado_sin_nombre_5"/><linearGradient id="Degradado_sin_nombre_5-84" x1="74.29" y1="132.22" x2="134.07" y2="28.68" xlink:href="#Degradado_sin_nombre_5"/><linearGradient id="Degradado_sin_nombre_5-85" x1="70.71" y1="99.74" x2="70.71" y2="77.25" gradientTransform="translate(60.92 -86.34) rotate(11.35)" xlink:href="#Degradado_sin_nombre_5"/><linearGradient id="Degradado_sin_nombre_5-86" x1="170.49" y1="39.62" x2="170.49" y2="17.13" gradientTransform="matrix(0.85, 0.53, -0.53, 0.85, 5.1, -91.4)" xlink:href="#Degradado_sin_nombre_5"/><linearGradient id="Degradado_sin_nombre_5-87" x1="242.89" y1="-51.64" x2="242.89" y2="-74.13" gradientTransform="matrix(0.61, 0.79, -0.79, 0.61, -45.4, -115.7)" xlink:href="#Degradado_sin_nombre_5"/><linearGradient id="Degradado_sin_nombre_5-88" x1="-258.98" y1="41.96" x2="-258.98" y2="19.48" gradientTransform="matrix(0.64, -0.77, 0.77, 0.64, 191.49, -180.59)" xlink:href="#Degradado_sin_nombre_5"/><linearGradient id="Degradado_sin_nombre_5-89" x1="50.07" y1="30.76" x2="50.07" y2="47.86" xlink:href="#Degradado_sin_nombre_5"/><linearGradient id="Degradado_sin_nombre_5-90" x1="-158.55" y1="100.99" x2="-158.55" y2="78.5" gradientTransform="translate(160.42 -133.95) rotate(-29.66)" xlink:href="#Degradado_sin_nombre_5"/><linearGradient id="Degradado_sin_nombre_5-91" x1="68.91" y1="12.73" x2="68.91" y2="33.26" xlink:href="#Degradado_sin_nombre_5"/><linearGradient id="Degradado_sin_nombre_5-92" x1="-43.8" y1="121.1" x2="-43.8" y2="98.61" gradientTransform="translate(114.97 -101.15) rotate(-9.16)" xlink:href="#Degradado_sin_nombre_5"/><linearGradient id="Degradado_sin_nombre_5-93" x1="89.81" y1="3.18" x2="89.81" y2="25.48" xlink:href="#Degradado_sin_nombre_5"/><linearGradient id="Degradado_sin_nombre_5-94" x1="112.1" y1="3.32" x2="112.1" y2="25.52" xlink:href="#Degradado_sin_nombre_5"/><linearGradient id="Degradado_sin_nombre_5-95" x1="133.18" y1="13.12" x2="133.18" y2="33.36" xlink:href="#Degradado_sin_nombre_5"/><linearGradient id="Degradado_sin_nombre_5-96" x1="151.95" y1="31.36" x2="151.95" y2="48.01" xlink:href="#Degradado_sin_nombre_5"/><linearGradient id="Degradado_sin_nombre_5-97" x1="-216.97" y1="60.94" x2="-216.97" y2="50.57" gradientTransform="translate(180.76 -156.89) rotate(-45.71)" xlink:href="#Degradado_sin_nombre_5"/><linearGradient id="Degradado_sin_nombre_5-98" x1="95.73" y1="18.42" x2="95.73" y2="26.31" gradientTransform="translate(-24.18 8.27) rotate(4.46)" xlink:href="#Degradado_sin_nombre_5"/><linearGradient id="Degradado_sin_nombre_5-99" x1="-121.73" y1="109.81" x2="-121.73" y2="99.43" gradientTransform="translate(145.02 -119.4) rotate(-26.29)" xlink:href="#Degradado_sin_nombre_5"/><linearGradient id="Degradado_sin_nombre_5-100" x1="194.26" y1="-23.42" x2="194.26" y2="-15.53" gradientTransform="translate(-103.17 -31.76) rotate(23.88)" xlink:href="#Degradado_sin_nombre_5"/><linearGradient id="Degradado_sin_nombre_5-101" x1="-15.66" y1="124.23" x2="-15.66" y2="113.85" gradientTransform="translate(98.85 -95.92) rotate(-6.87)" xlink:href="#Degradado_sin_nombre_5"/><linearGradient id="Degradado_sin_nombre_5-102" x1="273.27" y1="-95.64" x2="273.27" y2="-87.74" gradientTransform="translate(-164.36 -95.78) rotate(43.29)" xlink:href="#Degradado_sin_nombre_5"/><linearGradient id="Degradado_sin_nombre_5-103" x1="89.17" y1="102.57" x2="89.17" y2="92.19" gradientTransform="translate(47.5 -89.12) rotate(12.54)" xlink:href="#Degradado_sin_nombre_5"/><linearGradient id="Degradado_sin_nombre_5-104" x1="323.79" y1="-190.01" x2="323.79" y2="-182.12" gradientTransform="translate(-200.79 -176.5) rotate(62.71)" xlink:href="#Degradado_sin_nombre_5"/><linearGradient id="Degradado_sin_nombre_5-105" x1="180.83" y1="47.28" x2="180.83" y2="36.91" gradientTransform="matrix(0.85, 0.53, -0.53, 0.85, -3.19, -99.79)" xlink:href="#Degradado_sin_nombre_5"/><linearGradient id="Degradado_sin_nombre_5-106" x1="340.05" y1="-295.81" x2="340.05" y2="-287.92" gradientTransform="translate(-208.3 -264.74) rotate(82.13)" xlink:href="#Degradado_sin_nombre_5"/><linearGradient id="Degradado_sin_nombre_5-107" x1="248.9" y1="-35.33" x2="248.9" y2="-45.7" gradientTransform="translate(-47.45 -126.7) rotate(51.38)" xlink:href="#Degradado_sin_nombre_5"/><linearGradient id="Degradado_sin_nombre_5-108" x1="320.21" y1="-401" x2="320.21" y2="-393.11" gradientTransform="translate(-186.05 -350.46) rotate(101.55)" xlink:href="#Degradado_sin_nombre_5"/></defs><g style="isolation:isolate"><g id="Layer_2" data-name="Layer 2"><g id="OBJECTS"><rect x="48.81" y="164.62" width="42.82" height="14.64" rx="7.32" style="fill:#fe9d23"/><path d="M88.8,166.18c0,.23,0,.47,0,.71h0a7.35,7.35,0,0,1-7.32,7.32H53.34a7.28,7.28,0,0,1-4.49-1.56,7.34,7.34,0,0,0,7.28,6.62H84.31a7.34,7.34,0,0,0,7.32-7.33h0A7.3,7.3,0,0,0,88.8,166.18Z" style="opacity:0.65;mix-blend-mode:multiply;fill:url(#Degradado_sin_nombre_5)"/><rect x="111.64" y="164.62" width="42.82" height="14.64" rx="7.32" style="fill:#fe9d23"/><rect x="65.78" y="131.07" width="22.37" height="43.13" rx="9.59" transform="translate(153.92 305.28) rotate(180)" style="fill:url(#Degradado_sin_nombre_5-2)"/><path d="M114.47,166.18a5.53,5.53,0,0,0,0,.71h0a7.35,7.35,0,0,0,7.32,7.32h28.18a7.28,7.28,0,0,0,4.49-1.56,7.35,7.35,0,0,1-7.28,6.62H119a7.34,7.34,0,0,1-7.32-7.33h0A7.3,7.3,0,0,1,114.47,166.18Z" style="opacity:0.65;mix-blend-mode:multiply;fill:url(#Degradado_sin_nombre_5-3)"/><rect x="114.23" y="131.07" width="22.37" height="43.13" rx="9.59" transform="translate(250.83 305.28) rotate(180)" style="fill:url(#Degradado_sin_nombre_5-4)"/><rect x="114.23" y="117.64" width="22.37" height="43.13" rx="9.59" transform="translate(250.83 278.42) rotate(180)" style="opacity:0.65;mix-blend-mode:multiply;fill:url(#Degradado_sin_nombre_5-5)"/><rect x="65.78" y="117.64" width="22.37" height="43.13" rx="9.59" transform="translate(153.92 278.42) rotate(180)" style="opacity:0.65;mix-blend-mode:multiply;fill:url(#Degradado_sin_nombre_5-6)"/><path d="M100.86,71.41h0a56.94,56.94,0,0,1,56.94,56.94V139a14.75,14.75,0,0,1-14.75,14.75H58.67A14.75,14.75,0,0,1,43.92,139v-10.6a56.94,56.94,0,0,1,56.94-56.94Z" transform="translate(201.72 225.12) rotate(180)" style="fill:url(#Degradado_sin_nombre_5-7)"/><ellipse cx="23.01" cy="65.32" rx="5.06" ry="2.08" transform="translate(-30.46 21.31) rotate(-31.14)" style="fill:#bf630c;opacity:0.4;mix-blend-mode:multiply"/><path d="M24,66h0A4.52,4.52,0,0,1,17,62.58h0l-.6-7.81,7.07,3.39h0A4.51,4.51,0,0,1,24,66Z" style="fill:url(#Degradado_sin_nombre_5-8)"/><path d="M23.43,58.16h0l-7.07-3.39.08.93,6.22,3h0a4.53,4.53,0,0,1,1,7.53L24,66h0A4.51,4.51,0,0,0,23.43,58.16Z" style="fill:#ff8410"/><path d="M24.49,58.86a4.52,4.52,0,0,1-1.67,5.34h0a4.51,4.51,0,0,1-5.58-.37A4.52,4.52,0,0,0,24,66h0A4.52,4.52,0,0,0,24.49,58.86Z" style="fill:#bf630c;opacity:0.4;mix-blend-mode:multiply"/><path d="M24,66h0A4.52,4.52,0,0,1,17,62.58h0l-.6-7.81,7.07,3.39h0A4.51,4.51,0,0,1,24,66Z" style="fill:url(#Degradado_sin_nombre_5-9)"/><path d="M23.43,58.16h0l-7.07-3.39.08.93,6.22,3h0a4.53,4.53,0,0,1,1,7.53L24,66h0A4.51,4.51,0,0,0,23.43,58.16Z" style="fill:#ff8410"/><path d="M24.49,58.86a4.52,4.52,0,0,1-1.67,5.34h0a4.51,4.51,0,0,1-5.58-.37A4.52,4.52,0,0,0,24,66h0A4.52,4.52,0,0,0,24.49,58.86Z" style="fill:#bf630c;opacity:0.4;mix-blend-mode:multiply"/><ellipse cx="32.17" cy="62.12" rx="2.08" ry="5.06" transform="translate(-34.1 84.55) rotate(-81.32)" style="fill:#bf630c;opacity:0.4;mix-blend-mode:multiply"/><path d="M32.54,63.27h0a4.53,4.53,0,0,1-3.26-7.13h0l4.54-6.38,3.26,7.12h0a4.53,4.53,0,0,1-4.54,6.39Z" style="fill:url(#Degradado_sin_nombre_5-10)"/><path d="M37.08,56.88h0l-3.26-7.12-.54.76,2.87,6.27h0a4.53,4.53,0,0,1-4.08,6.41l.47.07h0A4.53,4.53,0,0,0,37.08,56.88Z" style="fill:#ff8410"/><path d="M37.44,58.11a4.5,4.5,0,0,1-4.7,3h0a4.5,4.5,0,0,1-4.05-3.86,4.53,4.53,0,0,0,3.85,6h0A4.53,4.53,0,0,0,37.44,58.11Z" style="fill:#bf630c;opacity:0.4;mix-blend-mode:multiply"/><path d="M32.54,63.27h0a4.53,4.53,0,0,1-3.26-7.13h0l4.54-6.38,3.26,7.12h0a4.53,4.53,0,0,1-4.54,6.39Z" style="fill:url(#Degradado_sin_nombre_5-11)"/><path d="M37.08,56.88h0l-3.26-7.12-.54.76,2.87,6.27h0a4.53,4.53,0,0,1-4.08,6.41l.47.07h0A4.53,4.53,0,0,0,37.08,56.88Z" style="fill:#ff8410"/><path d="M37.44,58.11a4.5,4.5,0,0,1-4.7,3h0a4.5,4.5,0,0,1-4.05-3.86,4.53,4.53,0,0,0,3.85,6h0A4.53,4.53,0,0,0,37.44,58.11Z" style="fill:#bf630c;opacity:0.4;mix-blend-mode:multiply"/><path d="M21.94,155.91l2.9.62a8,8,0,0,0,9.41-6.11h0A8,8,0,0,0,28.14,141l-2.9-.62a8,8,0,0,0-9.41,6.11h0A8,8,0,0,0,21.94,155.91Z" style="fill:url(#Degradado_sin_nombre_5-12)"/><path d="M6.44,152.61l2.9.61a8,8,0,0,0,9.42-6.1h0a8,8,0,0,0-6.11-9.42l-2.9-.62a8,8,0,0,0-9.42,6.11h0A8,8,0,0,0,6.44,152.61Z" style="fill:url(#Degradado_sin_nombre_5-13)"/><rect x="10.89" y="60.41" width="30" height="77.45" rx="15" transform="translate(30.55 201.48) rotate(-167.97)" style="fill:url(#Degradado_sin_nombre_5-14)"/><path d="M34,61.26h0l-.8-.15L25.44,97.33A15,15,0,0,1,8.44,109L6.27,119.21A15,15,0,0,0,17.82,137h0a15,15,0,0,0,17.8-11.55l9.88-46.4A15,15,0,0,0,34,61.26Z" style="opacity:0.65;mix-blend-mode:multiply;fill:url(#Degradado_sin_nombre_5-15)"/><path d="M34,153.66h0a6.9,6.9,0,0,0,8.17-5.3l2.33-10.92a6.91,6.91,0,0,0-5.31-8.17h0a6.91,6.91,0,0,0-8.17,5.3L28.7,145.49A6.91,6.91,0,0,0,34,153.66Z" style="fill:url(#Degradado_sin_nombre_5-16)"/><rect x="1.16" y="121.93" width="36.69" height="29.97" rx="8.37" transform="translate(10.05 274.89) rotate(-167.97)" style="fill:url(#Degradado_sin_nombre_5-17)"/><path d="M32.38,124.34l-2.19-.47c0,.1,0,.2-.05.31l-2.76,12.93a8.38,8.38,0,0,1-9.93,6.45L.13,139.87a8.41,8.41,0,0,0,6.5,9.63l19.5,4.15a8.4,8.4,0,0,0,9.94-6.44l2.75-12.94A8.4,8.4,0,0,0,32.38,124.34Z" style="opacity:0.65;mix-blend-mode:multiply;fill:url(#Degradado_sin_nombre_5-18)"/><path d="M27.34,64.67c-.26,1.22,1.9,2.72,4.82,3.34s5.5.14,5.76-1.09S36,64.2,33.11,63.58,27.61,63.44,27.34,64.67Z" style="opacity:0.36;mix-blend-mode:multiply;fill:url(#Degradado_sin_nombre_5-19)"/><path d="M19,70.51c-.21,1,1.4,2.15,3.6,2.62s4.15.05,4.36-.93-1.41-2.15-3.6-2.62S19.18,69.52,19,70.51Z" style="opacity:0.36;mix-blend-mode:multiply;fill:url(#Degradado_sin_nombre_5-20)"/><path d="M30.16,69.87c-.13.62.8,1.33,2.08,1.61s2.42,0,2.55-.62-.8-1.33-2.08-1.6S30.29,69.26,30.16,69.87Z" style="opacity:0.36;mix-blend-mode:multiply;fill:url(#Degradado_sin_nombre_5-21)"/><path d="M27.17,76.65c-.17.79,1.06,1.72,2.75,2.08s3.2,0,3.36-.78-1.06-1.72-2.75-2.08S27.34,75.86,27.17,76.65Z" style="opacity:0.36;mix-blend-mode:multiply;fill:url(#Degradado_sin_nombre_5-22)"/><path d="M19.26,81.43c-.21.94,1.11,2,2.93,2.41s3.46-.06,3.66-1-1.11-2-2.93-2.41S19.46,80.49,19.26,81.43Z" style="opacity:0.36;mix-blend-mode:multiply;fill:url(#Degradado_sin_nombre_5-23)"/><ellipse cx="27.47" cy="63.96" rx="3.87" ry="1.59" transform="translate(-22.84 15.85) rotate(-23.04)" style="fill:#bf630c;opacity:0.4;mix-blend-mode:multiply"/><path d="M28.17,64.56h0a3.46,3.46,0,0,1-5-3.33h0l.39-6,5,3.32h0a3.46,3.46,0,0,1-.38,6Z" style="fill:url(#Degradado_sin_nombre_5-24)"/><path d="M28.55,58.58h0l-5-3.32-.05.71,4.39,2.93h0a3.45,3.45,0,0,1-.07,5.8l.33-.14h0A3.46,3.46,0,0,0,28.55,58.58Z" style="fill:#ff8410"/><path d="M29.28,59.23a3.44,3.44,0,0,1-1.84,3.86h0a3.45,3.45,0,0,1-4.19-.88,3.47,3.47,0,0,0,4.92,2.35h0A3.46,3.46,0,0,0,29.28,59.23Z" style="fill:#bf630c;opacity:0.4;mix-blend-mode:multiply"/><path d="M28.17,64.56h0a3.46,3.46,0,0,1-5-3.33h0l.39-6,5,3.32h0a3.46,3.46,0,0,1-.38,6Z" style="fill:url(#Degradado_sin_nombre_5-25)"/><path d="M28.55,58.58h0l-5-3.32-.05.71,4.39,2.93h0a3.45,3.45,0,0,1-.07,5.8l.33-.14h0A3.46,3.46,0,0,0,28.55,58.58Z" style="fill:#ff8410"/><path d="M29.28,59.23a3.44,3.44,0,0,1-1.84,3.86h0a3.45,3.45,0,0,1-4.19-.88,3.47,3.47,0,0,0,4.92,2.35h0A3.46,3.46,0,0,0,29.28,59.23Z" style="fill:#bf630c;opacity:0.4;mix-blend-mode:multiply"/><ellipse cx="19.84" cy="67.69" rx="3.87" ry="1.59" transform="translate(-46.52 43.78) rotate(-53.85)" style="fill:#bf630c;opacity:0.4;mix-blend-mode:multiply"/><path d="M20.75,67.85h0a3.47,3.47,0,0,1-6-.31h0L12,62.21l6,.3h0a3.47,3.47,0,0,1,2.73,5.34Z" style="fill:url(#Degradado_sin_nombre_5-26)"/><path d="M18,62.51h0l-6-.3.33.63,5.27.27h0a3.46,3.46,0,0,1,2.91,5l.21-.28h0A3.47,3.47,0,0,0,18,62.51Z" style="fill:#ff8410"/><path d="M19,62.7A3.44,3.44,0,0,1,19.37,67h0a3.44,3.44,0,0,1-4.05,1.38,3.47,3.47,0,0,0,5.43-.49h0A3.46,3.46,0,0,0,19,62.7Z" style="fill:#bf630c;opacity:0.4;mix-blend-mode:multiply"/><path d="M20.75,67.85h0a3.47,3.47,0,0,1-6-.31h0L12,62.21l6,.3h0a3.47,3.47,0,0,1,2.73,5.34Z" style="fill:url(#Degradado_sin_nombre_5-27)"/><path d="M18,62.51h0l-6-.3.33.63,5.27.27h0a3.46,3.46,0,0,1,2.91,5l.21-.28h0A3.47,3.47,0,0,0,18,62.51Z" style="fill:#ff8410"/><path d="M19,62.7A3.44,3.44,0,0,1,19.37,67h0a3.44,3.44,0,0,1-4.05,1.38,3.47,3.47,0,0,0,5.43-.49h0A3.46,3.46,0,0,0,19,62.7Z" style="fill:#bf630c;opacity:0.4;mix-blend-mode:multiply"/><ellipse cx="36.74" cy="63.64" rx="1.59" ry="3.87" transform="translate(-36.17 72.82) rotate(-67.17)" style="fill:#bf630c;opacity:0.4;mix-blend-mode:multiply"/><path d="M36.8,64.56h0a3.46,3.46,0,0,1-1.08-5.89h0l4.56-3.89,1.08,5.89h0a3.46,3.46,0,0,1-4.56,3.89Z" style="fill:url(#Degradado_sin_nombre_5-28)"/><path d="M41.36,60.67h0l-1.08-5.89-.54.47.95,5.19h0a3.46,3.46,0,0,1-4.22,4l.33.14h0A3.46,3.46,0,0,0,41.36,60.67Z" style="fill:#ff8410"/><path d="M41.41,61.65A3.46,3.46,0,0,1,37.35,63h0a3.45,3.45,0,0,1-2.28-3.62,3.47,3.47,0,0,0,1.73,5.16h0A3.47,3.47,0,0,0,41.41,61.65Z" style="fill:#bf630c;opacity:0.4;mix-blend-mode:multiply"/><path d="M36.8,64.56h0a3.46,3.46,0,0,1-1.08-5.89h0l4.56-3.89,1.08,5.89h0a3.46,3.46,0,0,1-4.56,3.89Z" style="fill:url(#Degradado_sin_nombre_5-29)"/><path d="M41.36,60.67h0l-1.08-5.89-.54.47.95,5.19h0a3.46,3.46,0,0,1-4.22,4l.33.14h0A3.46,3.46,0,0,0,41.36,60.67Z" style="fill:#ff8410"/><path d="M41.41,61.65A3.46,3.46,0,0,1,37.35,63h0a3.45,3.45,0,0,1-2.28-3.62,3.47,3.47,0,0,0,1.73,5.16h0A3.47,3.47,0,0,0,41.41,61.65Z" style="fill:#bf630c;opacity:0.4;mix-blend-mode:multiply"/><ellipse cx="28.59" cy="69.82" rx="2.99" ry="1.23" transform="translate(-25.04 16.76) rotate(-23.04)" style="fill:#bf630c;opacity:0.4;mix-blend-mode:multiply"/><path d="M29.13,70.28h0a2.68,2.68,0,0,1-3.85-2.57h0l.3-4.62,3.85,2.57h0a2.67,2.67,0,0,1-.3,4.62Z" style="fill:url(#Degradado_sin_nombre_5-30)"/><path d="M29.43,65.66h0l-3.85-2.57,0,.55,3.39,2.26h0a2.68,2.68,0,0,1-.06,4.49l.25-.11h0A2.67,2.67,0,0,0,29.43,65.66Z" style="fill:#ff8410"/><path d="M30,66.16a2.67,2.67,0,0,1-1.43,3h0a2.67,2.67,0,0,1-3.23-.69,2.67,2.67,0,0,0,3.79,1.82h0A2.68,2.68,0,0,0,30,66.16Z" style="fill:#bf630c;opacity:0.4;mix-blend-mode:multiply"/><path d="M29.13,70.28h0a2.68,2.68,0,0,1-3.85-2.57h0l.3-4.62,3.85,2.57h0a2.67,2.67,0,0,1-.3,4.62Z" style="fill:url(#Degradado_sin_nombre_5-31)"/><path d="M29.43,65.66h0l-3.85-2.57,0,.55,3.39,2.26h0a2.68,2.68,0,0,1-.06,4.49l.25-.11h0A2.67,2.67,0,0,0,29.43,65.66Z" style="fill:#ff8410"/><path d="M30,66.16a2.67,2.67,0,0,1-1.43,3h0a2.67,2.67,0,0,1-3.23-.69,2.67,2.67,0,0,0,3.79,1.82h0A2.68,2.68,0,0,0,30,66.16Z" style="fill:#bf630c;opacity:0.4;mix-blend-mode:multiply"/><ellipse cx="22.7" cy="72.7" rx="2.99" ry="1.23" transform="translate(-49.39 48.14) rotate(-53.85)" style="fill:#bf630c;opacity:0.4;mix-blend-mode:multiply"/><path d="M23.4,72.82h0a2.67,2.67,0,0,1-4.62-.24h0l-2.11-4.12,4.62.24h0a2.67,2.67,0,0,1,2.11,4.12Z" style="fill:url(#Degradado_sin_nombre_5-32)"/><path d="M21.29,68.7h0l-4.62-.24.25.49,4.07.21h0A2.67,2.67,0,0,1,23.24,73a1.77,1.77,0,0,0,.16-.22h0A2.67,2.67,0,0,0,21.29,68.7Z" style="fill:#ff8410"/><path d="M22,68.84a2.67,2.67,0,0,1,.3,3.29h0a2.67,2.67,0,0,1-3.13,1.07,2.68,2.68,0,0,0,4.19-.38h0A2.67,2.67,0,0,0,22,68.84Z" style="fill:#bf630c;opacity:0.4;mix-blend-mode:multiply"/><path d="M23.4,72.82h0a2.67,2.67,0,0,1-4.62-.24h0l-2.11-4.12,4.62.24h0a2.67,2.67,0,0,1,2.11,4.12Z" style="fill:url(#Degradado_sin_nombre_5-33)"/><path d="M21.29,68.7h0l-4.62-.24.25.49,4.07.21h0A2.67,2.67,0,0,1,23.24,73a1.77,1.77,0,0,0,.16-.22h0A2.67,2.67,0,0,0,21.29,68.7Z" style="fill:#ff8410"/><path d="M22,68.84a2.67,2.67,0,0,1,.3,3.29h0a2.67,2.67,0,0,1-3.13,1.07,2.68,2.68,0,0,0,4.19-.38h0A2.67,2.67,0,0,0,22,68.84Z" style="fill:#bf630c;opacity:0.4;mix-blend-mode:multiply"/><ellipse cx="35.76" cy="69.57" rx="1.23" ry="2.99" transform="translate(-42.24 75.54) rotate(-67.17)" style="fill:#bf630c;opacity:0.4;mix-blend-mode:multiply"/><path d="M35.81,70.28h0A2.67,2.67,0,0,1,35,65.73h0l3.52-3,.84,4.56h0a2.67,2.67,0,0,1-3.52,3Z" style="fill:url(#Degradado_sin_nombre_5-34)"/><path d="M39.33,67.28h0l-.84-4.56-.42.36.74,4h0a2.67,2.67,0,0,1-3.26,3.08l.26.11h0A2.67,2.67,0,0,0,39.33,67.28Z" style="fill:#ff8410"/><path d="M39.36,68a2.67,2.67,0,0,1-3.13,1.06h0a2.66,2.66,0,0,1-1.76-2.8,2.68,2.68,0,0,0,1.34,4h0A2.67,2.67,0,0,0,39.36,68Z" style="fill:#bf630c;opacity:0.4;mix-blend-mode:multiply"/><path d="M35.81,70.28h0A2.67,2.67,0,0,1,35,65.73h0l3.52-3,.84,4.56h0a2.67,2.67,0,0,1-3.52,3Z" style="fill:url(#Degradado_sin_nombre_5-35)"/><path d="M39.33,67.28h0l-.84-4.56-.42.36.74,4h0a2.67,2.67,0,0,1-3.26,3.08l.26.11h0A2.67,2.67,0,0,0,39.33,67.28Z" style="fill:#ff8410"/><path d="M39.36,68a2.67,2.67,0,0,1-3.13,1.06h0a2.66,2.66,0,0,1-1.76-2.8,2.68,2.68,0,0,0,1.34,4h0A2.67,2.67,0,0,0,39.36,68Z" style="fill:#bf630c;opacity:0.4;mix-blend-mode:multiply"/><path d="M21.94,155.91l2.9.62a8,8,0,0,0,9.41-6.11h0A8,8,0,0,0,28.14,141l-2.9-.62a8,8,0,0,0-9.41,6.11h0A8,8,0,0,0,21.94,155.91Z" style="opacity:0.65;mix-blend-mode:multiply;fill:url(#Degradado_sin_nombre_5-12)"/><path d="M6.44,152.61l2.9.61a8,8,0,0,0,9.42-6.1h0a8,8,0,0,0-6.11-9.42l-2.9-.62a8,8,0,0,0-9.42,6.11h0A8,8,0,0,0,6.44,152.61Z" style="opacity:0.65;mix-blend-mode:multiply;fill:url(#Degradado_sin_nombre_5-13)"/><path d="M34,153.66h0a6.9,6.9,0,0,0,8.17-5.3l2.33-10.92a6.91,6.91,0,0,0-5.31-8.17h0a6.91,6.91,0,0,0-8.17,5.3L28.7,145.49A6.91,6.91,0,0,0,34,153.66Z" style="opacity:0.65;mix-blend-mode:multiply;fill:url(#Degradado_sin_nombre_5-16)"/><ellipse cx="178.85" cy="65.32" rx="2.08" ry="5.06" transform="translate(30.45 184.62) rotate(-58.86)" style="fill:#bf630c;opacity:0.4;mix-blend-mode:multiply"/><path d="M177.83,66h0a4.52,4.52,0,0,0,7.06-3.38h0l.6-7.81-7.06,3.39h0a4.51,4.51,0,0,0-.6,7.8Z" style="fill:url(#Degradado_sin_nombre_5-39)"/><path d="M178.43,58.16h0l7.06-3.39-.07.93-6.22,3h0a4.53,4.53,0,0,0-1,7.53l-.4-.25h0A4.51,4.51,0,0,1,178.43,58.16Z" style="fill:#ff8410"/><path d="M177.36,58.86A4.51,4.51,0,0,0,179,64.2h0a4.51,4.51,0,0,0,5.58-.37A4.52,4.52,0,0,1,177.83,66h0A4.53,4.53,0,0,1,177.36,58.86Z" style="fill:#bf630c;opacity:0.4;mix-blend-mode:multiply"/><path d="M177.83,66h0a4.52,4.52,0,0,0,7.06-3.38h0l.6-7.81-7.06,3.39h0a4.51,4.51,0,0,0-.6,7.8Z" style="fill:url(#Degradado_sin_nombre_5-40)"/><path d="M178.43,58.16h0l7.06-3.39-.07.93-6.22,3h0a4.53,4.53,0,0,0-1,7.53l-.4-.25h0A4.51,4.51,0,0,1,178.43,58.16Z" style="fill:#ff8410"/><path d="M177.36,58.86A4.51,4.51,0,0,0,179,64.2h0a4.51,4.51,0,0,0,5.58-.37A4.52,4.52,0,0,1,177.83,66h0A4.53,4.53,0,0,1,177.36,58.86Z" style="fill:#bf630c;opacity:0.4;mix-blend-mode:multiply"/><ellipse cx="169.69" cy="62.12" rx="5.06" ry="2.08" transform="translate(-7.43 26.31) rotate(-8.68)" style="fill:#bf630c;opacity:0.4;mix-blend-mode:multiply"/><path d="M169.32,63.27h0a4.53,4.53,0,0,0,3.26-7.13h0L168,49.76l-3.26,7.12h0a4.53,4.53,0,0,0,4.54,6.39Z" style="fill:url(#Degradado_sin_nombre_5-41)"/><path d="M164.78,56.88h0L168,49.76l.54.76-2.87,6.27h0a4.53,4.53,0,0,0,4.07,6.41l-.46.07h0A4.53,4.53,0,0,1,164.78,56.88Z" style="fill:#ff8410"/><path d="M164.41,58.11a4.52,4.52,0,0,0,4.71,3h0a4.52,4.52,0,0,0,4-3.86,4.54,4.54,0,0,1-3.85,6h0A4.54,4.54,0,0,1,164.41,58.11Z" style="fill:#bf630c;opacity:0.4;mix-blend-mode:multiply"/><path d="M169.32,63.27h0a4.53,4.53,0,0,0,3.26-7.13h0L168,49.76l-3.26,7.12h0a4.53,4.53,0,0,0,4.54,6.39Z" style="fill:url(#Degradado_sin_nombre_5-42)"/><path d="M164.78,56.88h0L168,49.76l.54.76-2.87,6.27h0a4.53,4.53,0,0,0,4.07,6.41l-.46.07h0A4.53,4.53,0,0,1,164.78,56.88Z" style="fill:#ff8410"/><path d="M164.41,58.11a4.52,4.52,0,0,0,4.71,3h0a4.52,4.52,0,0,0,4-3.86,4.54,4.54,0,0,1-3.85,6h0A4.54,4.54,0,0,1,164.41,58.11Z" style="fill:#bf630c;opacity:0.4;mix-blend-mode:multiply"/><path d="M179.92,155.91l-2.9.62a8,8,0,0,1-9.41-6.11h0a8,8,0,0,1,6.1-9.42l2.9-.62a8,8,0,0,1,9.42,6.11h0A8,8,0,0,1,179.92,155.91Z" style="fill:url(#Degradado_sin_nombre_5-43)"/><path d="M195.42,152.61l-2.9.61a8,8,0,0,1-9.42-6.1h0a8,8,0,0,1,6.11-9.42l2.9-.62a8,8,0,0,1,9.41,6.11h0A8,8,0,0,1,195.42,152.61Z" style="fill:url(#Degradado_sin_nombre_5-44)"/><rect x="160.97" y="60.41" width="30" height="77.45" rx="15" transform="translate(-16.79 38.84) rotate(-12.03)" style="fill:url(#Degradado_sin_nombre_5-45)"/><path d="M167.9,61.26h0l.8-.15,7.72,36.22a15,15,0,0,0,17,11.69l2.17,10.19A15.06,15.06,0,0,1,184,137h0a15,15,0,0,1-17.8-11.55l-9.88-46.4A15,15,0,0,1,167.9,61.26Z" style="opacity:0.65;mix-blend-mode:multiply;fill:url(#Degradado_sin_nombre_5-46)"/><path d="M167.85,153.66h0a6.9,6.9,0,0,1-8.17-5.3l-2.33-10.92a6.91,6.91,0,0,1,5.3-8.17h0a6.92,6.92,0,0,1,8.18,5.3l2.32,10.92A6.9,6.9,0,0,1,167.85,153.66Z" style="fill:url(#Degradado_sin_nombre_5-47)"/><rect x="164.01" y="121.93" width="36.69" height="29.97" rx="8.37" transform="translate(-24.53 41) rotate(-12.03)" style="fill:url(#Degradado_sin_nombre_5-48)"/><path d="M169.48,124.34l2.19-.47c0,.1,0,.2.05.31l2.75,12.93a8.4,8.4,0,0,0,9.94,6.45l17.31-3.69a8.39,8.39,0,0,1-6.49,9.63l-19.51,4.15a8.4,8.4,0,0,1-9.93-6.44L163,134.27A8.39,8.39,0,0,1,169.48,124.34Z" style="opacity:0.65;mix-blend-mode:multiply;fill:url(#Degradado_sin_nombre_5-49)"/><path d="M174.51,64.67c.26,1.22-1.89,2.72-4.81,3.34s-5.5.14-5.76-1.09,1.89-2.72,4.81-3.34S174.25,63.44,174.51,64.67Z" style="opacity:0.36;mix-blend-mode:multiply;fill:url(#Degradado_sin_nombre_5-50)"/><path d="M182.89,70.51c.21,1-1.4,2.15-3.6,2.62s-4.15.05-4.36-.93,1.4-2.15,3.6-2.62S182.68,69.52,182.89,70.51Z" style="opacity:0.36;mix-blend-mode:multiply;fill:url(#Degradado_sin_nombre_5-51)"/><path d="M171.7,69.87c.13.62-.8,1.33-2.08,1.61s-2.43,0-2.56-.62.8-1.33,2.08-1.6S171.57,69.26,171.7,69.87Z" style="opacity:0.36;mix-blend-mode:multiply;fill:url(#Degradado_sin_nombre_5-52)"/><path d="M174.69,76.65c.17.79-1.07,1.72-2.75,2.08s-3.2,0-3.37-.78,1.07-1.72,2.76-2.08S174.52,75.86,174.69,76.65Z" style="opacity:0.36;mix-blend-mode:multiply;fill:url(#Degradado_sin_nombre_5-53)"/><path d="M182.6,81.43c.2.94-1.11,2-2.93,2.41s-3.46-.06-3.66-1,1.11-2,2.93-2.41S182.4,80.49,182.6,81.43Z" style="opacity:0.36;mix-blend-mode:multiply;fill:url(#Degradado_sin_nombre_5-54)"/><ellipse cx="174.39" cy="63.96" rx="1.59" ry="3.87" transform="translate(47.28 199.41) rotate(-66.96)" style="fill:#bf630c;opacity:0.4;mix-blend-mode:multiply"/><path d="M173.69,64.56h0a3.46,3.46,0,0,0,5-3.33h0l-.39-6-5,3.32h0a3.46,3.46,0,0,0,.39,6Z" style="fill:url(#Degradado_sin_nombre_5-55)"/><path d="M173.3,58.58h0l5-3.32,0,.71-4.39,2.93h0a3.46,3.46,0,0,0,.08,5.8l-.33-.14h0A3.46,3.46,0,0,1,173.3,58.58Z" style="fill:#ff8410"/><path d="M172.57,59.23a3.44,3.44,0,0,0,1.85,3.86h0a3.43,3.43,0,0,0,4.18-.88,3.46,3.46,0,0,1-4.91,2.35h0A3.47,3.47,0,0,1,172.57,59.23Z" style="fill:#bf630c;opacity:0.4;mix-blend-mode:multiply"/><path d="M173.69,64.56h0a3.46,3.46,0,0,0,5-3.33h0l-.39-6-5,3.32h0a3.46,3.46,0,0,0,.39,6Z" style="fill:url(#Degradado_sin_nombre_5-56)"/><path d="M173.3,58.58h0l5-3.32,0,.71-4.39,2.93h0a3.46,3.46,0,0,0,.08,5.8l-.33-.14h0A3.46,3.46,0,0,1,173.3,58.58Z" style="fill:#ff8410"/><path d="M172.57,59.23a3.44,3.44,0,0,0,1.85,3.86h0a3.43,3.43,0,0,0,4.18-.88,3.46,3.46,0,0,1-4.91,2.35h0A3.47,3.47,0,0,1,172.57,59.23Z" style="fill:#bf630c;opacity:0.4;mix-blend-mode:multiply"/><ellipse cx="182.02" cy="67.69" rx="1.59" ry="3.87" transform="translate(-4.89 120.42) rotate(-36.15)" style="fill:#bf630c;opacity:0.4;mix-blend-mode:multiply"/><path d="M181.11,67.85h0a3.46,3.46,0,0,0,6-.31h0l2.73-5.33-6,.3h0a3.47,3.47,0,0,0-2.73,5.34Z" style="fill:url(#Degradado_sin_nombre_5-57)"/><path d="M183.84,62.51h0l6-.3-.32.63-5.27.27h0a3.46,3.46,0,0,0-2.91,5l-.21-.28h0A3.47,3.47,0,0,1,183.84,62.51Z" style="fill:#ff8410"/><path d="M182.88,62.7a3.46,3.46,0,0,0-.4,4.26h0a3.44,3.44,0,0,0,4.05,1.38,3.46,3.46,0,0,1-5.42-.49h0A3.46,3.46,0,0,1,182.88,62.7Z" style="fill:#bf630c;opacity:0.4;mix-blend-mode:multiply"/><path d="M181.11,67.85h0a3.46,3.46,0,0,0,6-.31h0l2.73-5.33-6,.3h0a3.47,3.47,0,0,0-2.73,5.34Z" style="fill:url(#Degradado_sin_nombre_5-58)"/><path d="M183.84,62.51h0l6-.3-.32.63-5.27.27h0a3.46,3.46,0,0,0-2.91,5l-.21-.28h0A3.47,3.47,0,0,1,183.84,62.51Z" style="fill:#ff8410"/><path d="M182.88,62.7a3.46,3.46,0,0,0-.4,4.26h0a3.44,3.44,0,0,0,4.05,1.38,3.46,3.46,0,0,1-5.42-.49h0A3.46,3.46,0,0,1,182.88,62.7Z" style="fill:#bf630c;opacity:0.4;mix-blend-mode:multiply"/><ellipse cx="165.12" cy="63.64" rx="3.87" ry="1.59" transform="translate(-11.76 69.04) rotate(-22.83)" style="fill:#bf630c;opacity:0.4;mix-blend-mode:multiply"/><path d="M165.06,64.56h0a3.46,3.46,0,0,0,1.08-5.89h0l-4.56-3.89-1.09,5.89h0a3.47,3.47,0,0,0,4.57,3.89Z" style="fill:url(#Degradado_sin_nombre_5-59)"/><path d="M160.49,60.67h0l1.09-5.89.54.47-1,5.19h0a3.46,3.46,0,0,0,4.22,4l-.33.14h0A3.47,3.47,0,0,1,160.49,60.67Z" style="fill:#ff8410"/><path d="M160.45,61.65A3.46,3.46,0,0,0,164.51,63h0a3.45,3.45,0,0,0,2.28-3.62,3.47,3.47,0,0,1-1.73,5.16h0A3.47,3.47,0,0,1,160.45,61.65Z" style="fill:#bf630c;opacity:0.4;mix-blend-mode:multiply"/><path d="M165.06,64.56h0a3.46,3.46,0,0,0,1.08-5.89h0l-4.56-3.89-1.09,5.89h0a3.47,3.47,0,0,0,4.57,3.89Z" style="fill:url(#Degradado_sin_nombre_5-60)"/><path d="M160.49,60.67h0l1.09-5.89.54.47-1,5.19h0a3.46,3.46,0,0,0,4.22,4l-.33.14h0A3.47,3.47,0,0,1,160.49,60.67Z" style="fill:#ff8410"/><path d="M160.45,61.65A3.46,3.46,0,0,0,164.51,63h0a3.45,3.45,0,0,0,2.28-3.62,3.47,3.47,0,0,1-1.73,5.16h0A3.47,3.47,0,0,1,160.45,61.65Z" style="fill:#bf630c;opacity:0.4;mix-blend-mode:multiply"/><ellipse cx="173.26" cy="69.82" rx="1.23" ry="2.99" transform="translate(41.21 201.94) rotate(-66.96)" style="fill:#bf630c;opacity:0.4;mix-blend-mode:multiply"/><path d="M172.72,70.28h0a2.68,2.68,0,0,0,3.86-2.57h0l-.3-4.62-3.85,2.57h0a2.67,2.67,0,0,0,.29,4.62Z" style="fill:url(#Degradado_sin_nombre_5-61)"/><path d="M172.43,65.66h0l3.85-2.57,0,.55-3.39,2.26h0a2.68,2.68,0,0,0,.06,4.49l-.26-.11h0A2.67,2.67,0,0,1,172.43,65.66Z" style="fill:#ff8410"/><path d="M171.86,66.16a2.68,2.68,0,0,0,1.42,3h0a2.68,2.68,0,0,0,3.24-.69,2.68,2.68,0,0,1-3.8,1.82h0A2.68,2.68,0,0,1,171.86,66.16Z" style="fill:#bf630c;opacity:0.4;mix-blend-mode:multiply"/><path d="M172.72,70.28h0a2.68,2.68,0,0,0,3.86-2.57h0l-.3-4.62-3.85,2.57h0a2.67,2.67,0,0,0,.29,4.62Z" style="fill:url(#Degradado_sin_nombre_5-62)"/><path d="M172.43,65.66h0l3.85-2.57,0,.55-3.39,2.26h0a2.68,2.68,0,0,0,.06,4.49l-.26-.11h0A2.67,2.67,0,0,1,172.43,65.66Z" style="fill:#ff8410"/><path d="M171.86,66.16a2.68,2.68,0,0,0,1.42,3h0a2.68,2.68,0,0,0,3.24-.69,2.68,2.68,0,0,1-3.8,1.82h0A2.68,2.68,0,0,1,171.86,66.16Z" style="fill:#bf630c;opacity:0.4;mix-blend-mode:multiply"/><ellipse cx="179.16" cy="72.7" rx="1.23" ry="2.99" transform="translate(-8.39 119.69) rotate(-36.15)" style="fill:#bf630c;opacity:0.4;mix-blend-mode:multiply"/><path d="M178.46,72.82h0a2.67,2.67,0,0,0,4.62-.24h0l2.11-4.12-4.62.24h0a2.67,2.67,0,0,0-2.11,4.12Z" style="fill:url(#Degradado_sin_nombre_5-63)"/><path d="M180.57,68.7h0l4.62-.24-.25.49-4.08.21h0A2.67,2.67,0,0,0,178.62,73a1.77,1.77,0,0,1-.16-.22h0A2.67,2.67,0,0,1,180.57,68.7Z" style="fill:#ff8410"/><path d="M179.82,68.84a2.67,2.67,0,0,0-.3,3.29h0a2.66,2.66,0,0,0,3.13,1.07,2.68,2.68,0,0,1-4.19-.38h0A2.67,2.67,0,0,1,179.82,68.84Z" style="fill:#bf630c;opacity:0.4;mix-blend-mode:multiply"/><path d="M178.46,72.82h0a2.67,2.67,0,0,0,4.62-.24h0l2.11-4.12-4.62.24h0a2.67,2.67,0,0,0-2.11,4.12Z" style="fill:url(#Degradado_sin_nombre_5-64)"/><path d="M180.57,68.7h0l4.62-.24-.25.49-4.08.21h0A2.67,2.67,0,0,0,178.62,73a1.77,1.77,0,0,1-.16-.22h0A2.67,2.67,0,0,1,180.57,68.7Z" style="fill:#ff8410"/><path d="M179.82,68.84a2.67,2.67,0,0,0-.3,3.29h0a2.66,2.66,0,0,0,3.13,1.07,2.68,2.68,0,0,1-4.19-.38h0A2.67,2.67,0,0,1,179.82,68.84Z" style="fill:#bf630c;opacity:0.4;mix-blend-mode:multiply"/><ellipse cx="166.1" cy="69.57" rx="2.99" ry="1.23" transform="translate(-13.98 69.89) rotate(-22.83)" style="fill:#bf630c;opacity:0.4;mix-blend-mode:multiply"/><path d="M166.05,70.28h0a2.67,2.67,0,0,0,.84-4.55h0l-3.52-3-.84,4.56h0a2.67,2.67,0,0,0,3.52,3Z" style="fill:url(#Degradado_sin_nombre_5-65)"/><path d="M162.53,67.28h0l.84-4.56.42.36-.74,4h0a2.67,2.67,0,0,0,3.26,3.08l-.26.11h0A2.67,2.67,0,0,1,162.53,67.28Z" style="fill:#ff8410"/><path d="M162.5,68a2.66,2.66,0,0,0,3.13,1.06h0a2.66,2.66,0,0,0,1.76-2.8,2.68,2.68,0,0,1-1.34,4h0A2.67,2.67,0,0,1,162.5,68Z" style="fill:#bf630c;opacity:0.4;mix-blend-mode:multiply"/><path d="M166.05,70.28h0a2.67,2.67,0,0,0,.84-4.55h0l-3.52-3-.84,4.56h0a2.67,2.67,0,0,0,3.52,3Z" style="fill:url(#Degradado_sin_nombre_5-66)"/><path d="M162.53,67.28h0l.84-4.56.42.36-.74,4h0a2.67,2.67,0,0,0,3.26,3.08l-.26.11h0A2.67,2.67,0,0,1,162.53,67.28Z" style="fill:#ff8410"/><path d="M162.5,68a2.66,2.66,0,0,0,3.13,1.06h0a2.66,2.66,0,0,0,1.76-2.8,2.68,2.68,0,0,1-1.34,4h0A2.67,2.67,0,0,1,162.5,68Z" style="fill:#bf630c;opacity:0.4;mix-blend-mode:multiply"/><path d="M179.92,155.91l-2.9.62a8,8,0,0,1-9.41-6.11h0a8,8,0,0,1,6.1-9.42l2.9-.62a8,8,0,0,1,9.42,6.11h0A8,8,0,0,1,179.92,155.91Z" style="opacity:0.65;mix-blend-mode:multiply;fill:url(#Degradado_sin_nombre_5-43)"/><path d="M195.42,152.61l-2.9.61a8,8,0,0,1-9.42-6.1h0a8,8,0,0,1,6.11-9.42l2.9-.62a8,8,0,0,1,9.41,6.11h0A8,8,0,0,1,195.42,152.61Z" style="opacity:0.65;mix-blend-mode:multiply;fill:url(#Degradado_sin_nombre_5-44)"/><path d="M167.85,153.66h0a6.9,6.9,0,0,1-8.17-5.3l-2.33-10.92a6.91,6.91,0,0,1,5.3-8.17h0a6.92,6.92,0,0,1,8.18,5.3l2.32,10.92A6.9,6.9,0,0,1,167.85,153.66Z" style="opacity:0.65;mix-blend-mode:multiply;fill:url(#Degradado_sin_nombre_5-47)"/><path d="M101.92,22.94h0a7.65,7.65,0,0,1-7-11.22h0L101.06,0l7,11.22h0a7.65,7.65,0,0,1-6.19,11.72Z" style="fill:url(#Degradado_sin_nombre_5-70)"/><path d="M108.11,11.22h0L101.06,0l-.74,1.4,6.22,9.88h0a7.66,7.66,0,0,1-5.41,11.65c.26,0,.52,0,.79,0h0A7.65,7.65,0,0,0,108.11,11.22Z" style="fill:#ff8410"/><path d="M109,13.2a7.64,7.64,0,0,1-7.21,6.13h0a7.65,7.65,0,0,1-7.66-5.57,7.66,7.66,0,0,0,7.79,9.18h0A7.65,7.65,0,0,0,109,13.2Z" style="fill:#bf630c;opacity:0.4;mix-blend-mode:multiply"/><path d="M101.92,22.94h0a7.65,7.65,0,0,1-7-11.22h0L101.06,0l7,11.22h0a7.65,7.65,0,0,1-6.19,11.72Z" style="fill:url(#Degradado_sin_nombre_5-71)"/><path d="M101.92,28.66h0a7.66,7.66,0,0,1-7-11.23h0l6.19-11.71,7,11.22h0a7.65,7.65,0,0,1-6.19,11.72Z" style="fill:#bf630c;opacity:0.4;mix-blend-mode:multiply"/><path d="M108.11,11.22h0L101.06,0l-.74,1.4,6.22,9.88h0a7.66,7.66,0,0,1-5.41,11.65c.26,0,.52,0,.79,0h0A7.65,7.65,0,0,0,108.11,11.22Z" style="fill:#ff8410"/><path d="M120.91,26.6h0A7.65,7.65,0,0,1,118,13.66h0l9.77-9,2.87,12.94h0a7.65,7.65,0,0,1-9.77,9Z" style="fill:url(#Degradado_sin_nombre_5-72)"/><path d="M130.68,17.64h0L127.81,4.7l-1.16,1.07,2.53,11.4h0a7.66,7.66,0,0,1-9,9.15c.24.1.49.2.74.28h0A7.65,7.65,0,0,0,130.68,17.64Z" style="fill:#ff8410"/><path d="M130.86,19.8A7.64,7.64,0,0,1,122,23.15h0a7.64,7.64,0,0,1-5.34-7.82,7.66,7.66,0,0,0,4.25,11.27h0A7.67,7.67,0,0,0,130.86,19.8Z" style="fill:#bf630c;opacity:0.4;mix-blend-mode:multiply"/><path d="M120.91,26.6h0A7.65,7.65,0,0,1,118,13.66h0l9.77-9,2.87,12.94h0a7.65,7.65,0,0,1-9.77,9Z" style="fill:url(#Degradado_sin_nombre_5-73)"/><path d="M119,32h0A7.65,7.65,0,0,1,116.12,19h0l9.77-9L128.76,23h0A7.65,7.65,0,0,1,119,32Z" style="fill:#bf630c;opacity:0.4;mix-blend-mode:multiply"/><path d="M130.68,17.64h0L127.81,4.7l-1.16,1.07,2.53,11.4h0a7.66,7.66,0,0,1-9,9.15c.24.1.49.2.74.28h0A7.65,7.65,0,0,0,130.68,17.64Z" style="fill:#ff8410"/><path d="M137.57,36.42h0a7.65,7.65,0,0,1,1.65-13.15h0l12.21-5.15-1.65,13.15h0a7.65,7.65,0,0,1-12.21,5.15Z" style="fill:url(#Degradado_sin_nombre_5-74)"/><path d="M149.78,31.27h0l1.65-13.15-1.46.61-1.45,11.59h0A7.65,7.65,0,0,1,137,35.91a7.34,7.34,0,0,0,.6.51h0A7.65,7.65,0,0,0,149.78,31.27Z" style="fill:#ff8410"/><path d="M149.22,33.36a7.63,7.63,0,0,1-9.47.18h0a7.63,7.63,0,0,1-2.39-9.16,7.65,7.65,0,0,0,.21,12h0A7.66,7.66,0,0,0,149.22,33.36Z" style="fill:#bf630c;opacity:0.4;mix-blend-mode:multiply"/><path d="M137.57,36.42h0a7.65,7.65,0,0,1,1.65-13.15h0l12.21-5.15-1.65,13.15h0a7.65,7.65,0,0,1-12.21,5.15Z" style="fill:url(#Degradado_sin_nombre_5-75)"/><path d="M134,40.85h0a7.66,7.66,0,0,1,1.65-13.16h0l12.21-5.15-1.65,13.15h0A7.65,7.65,0,0,1,134,40.85Z" style="fill:#bf630c;opacity:0.4;mix-blend-mode:multiply"/><path d="M149.78,31.27h0l1.65-13.15-1.46.61-1.45,11.59h0A7.65,7.65,0,0,1,137,35.91a7.34,7.34,0,0,0,.6.51h0A7.65,7.65,0,0,0,149.78,31.27Z" style="fill:#ff8410"/><path d="M150,51.27h0a7.65,7.65,0,0,1,6-11.83h0l13.23-.75-6,11.84h0a7.65,7.65,0,0,1-13.23.74Z" style="fill:url(#Degradado_sin_nombre_5-76)"/><path d="M163.19,50.53h0l6-11.84-1.58.09-5.26,10.43h0a7.65,7.65,0,0,1-12.76,1.38,6.71,6.71,0,0,0,.4.68h0A7.65,7.65,0,0,0,163.19,50.53Z" style="fill:#ff8410"/><path d="M162,52.31a7.64,7.64,0,0,1-9-3h0a7.63,7.63,0,0,1,.82-9.43A7.65,7.65,0,0,0,150,51.27h0A7.66,7.66,0,0,0,162,52.31Z" style="fill:#bf630c;opacity:0.4;mix-blend-mode:multiply"/><path d="M150,51.27h0a7.65,7.65,0,0,1,6-11.83h0l13.23-.75-6,11.84h0a7.65,7.65,0,0,1-13.23.74Z" style="fill:url(#Degradado_sin_nombre_5-77)"/><path d="M145.06,54.22h0a7.65,7.65,0,0,1,6-11.83h0l13.23-.75-6,11.84h0a7.65,7.65,0,0,1-13.23.74Z" style="fill:#bf630c;opacity:0.4;mix-blend-mode:multiply"/><path d="M163.19,50.53h0l6-11.84-1.58.09-5.26,10.43h0a7.65,7.65,0,0,1-12.76,1.38,6.71,6.71,0,0,0,.4.68h0A7.65,7.65,0,0,0,163.19,50.53Z" style="fill:#ff8410"/><path d="M80.57,26.6h0a7.65,7.65,0,0,0,2.87-12.94h0l-9.77-9L70.8,17.64h0a7.66,7.66,0,0,0,9.77,9Z" style="fill:url(#Degradado_sin_nombre_5-78)"/><path d="M70.8,17.64h0L73.67,4.7l1.17,1.07-2.53,11.4h0a7.65,7.65,0,0,0,9,9.15c-.24.1-.48.2-.74.28h0A7.66,7.66,0,0,1,70.8,17.64Z" style="fill:#ff8410"/><path d="M70.63,19.8a7.63,7.63,0,0,0,8.86,3.35h0a7.63,7.63,0,0,0,5.33-7.82A7.66,7.66,0,0,1,80.57,26.6h0A7.66,7.66,0,0,1,70.63,19.8Z" style="fill:#bf630c;opacity:0.4;mix-blend-mode:multiply"/><path d="M80.57,26.6h0a7.65,7.65,0,0,0,2.87-12.94h0l-9.77-9L70.8,17.64h0a7.66,7.66,0,0,0,9.77,9Z" style="fill:url(#Degradado_sin_nombre_5-79)"/><path d="M82.49,32h0A7.65,7.65,0,0,0,85.36,19h0l-9.77-9L72.72,23h0a7.66,7.66,0,0,0,9.77,9Z" style="fill:#bf630c;opacity:0.4;mix-blend-mode:multiply"/><path d="M70.8,17.64h0L73.67,4.7l1.17,1.07-2.53,11.4h0a7.65,7.65,0,0,0,9,9.15c-.24.1-.48.2-.74.28h0A7.66,7.66,0,0,1,70.8,17.64Z" style="fill:#ff8410"/><path d="M63.92,36.42h0a7.65,7.65,0,0,0-1.65-13.15h0L50.06,18.12,51.7,31.27h0a7.65,7.65,0,0,0,12.22,5.15Z" style="fill:url(#Degradado_sin_nombre_5-80)"/><path d="M51.7,31.27h0L50.06,18.12l1.45.61L53,30.32h0a7.65,7.65,0,0,0,11.56,5.59,7.34,7.34,0,0,1-.6.51h0A7.65,7.65,0,0,1,51.7,31.27Z" style="fill:#ff8410"/><path d="M52.27,33.36a7.62,7.62,0,0,0,9.46.18h0a7.62,7.62,0,0,0,2.4-9.16,7.66,7.66,0,0,1-.21,12h0A7.66,7.66,0,0,1,52.27,33.36Z" style="fill:#bf630c;opacity:0.4;mix-blend-mode:multiply"/><path d="M63.92,36.42h0a7.65,7.65,0,0,0-1.65-13.15h0L50.06,18.12,51.7,31.27h0a7.65,7.65,0,0,0,12.22,5.15Z" style="fill:url(#Degradado_sin_nombre_5-81)"/><path d="M67.53,40.85h0a7.66,7.66,0,0,0-1.64-13.16h0L53.68,22.54l1.64,13.15h0a7.65,7.65,0,0,0,12.21,5.16Z" style="fill:#bf630c;opacity:0.4;mix-blend-mode:multiply"/><path d="M51.7,31.27h0L50.06,18.12l1.45.61L53,30.32h0a7.65,7.65,0,0,0,11.56,5.59,7.34,7.34,0,0,1-.6.51h0A7.65,7.65,0,0,1,51.7,31.27Z" style="fill:#ff8410"/><path d="M51.53,51.27h0a7.65,7.65,0,0,0-6-11.83h0l-13.23-.75,6,11.84h0a7.65,7.65,0,0,0,13.23.74Z" style="fill:url(#Degradado_sin_nombre_5-82)"/><path d="M38.3,50.53h0l-6-11.84,1.57.09,5.26,10.43h0a7.66,7.66,0,0,0,12.77,1.38,6.71,6.71,0,0,1-.4.68h0A7.65,7.65,0,0,1,38.3,50.53Z" style="fill:#ff8410"/><path d="M39.53,52.31a7.64,7.64,0,0,0,9-3h0a7.63,7.63,0,0,0-.83-9.43,7.66,7.66,0,0,1,3.85,11.41h0A7.66,7.66,0,0,1,39.53,52.31Z" style="fill:#bf630c;opacity:0.4;mix-blend-mode:multiply"/><path d="M51.53,51.27h0a7.65,7.65,0,0,0-6-11.83h0l-13.23-.75,6,11.84h0a7.65,7.65,0,0,0,13.23.74Z" style="fill:url(#Degradado_sin_nombre_5-83)"/><path d="M56.42,54.22h0a7.65,7.65,0,0,0-6-11.83h0l-13.23-.75,6,11.84h0a7.65,7.65,0,0,0,13.23.74Z" style="fill:#bf630c;opacity:0.4;mix-blend-mode:multiply"/><path d="M38.3,50.53h0l-6-11.84,1.57.09,5.26,10.43h0a7.66,7.66,0,0,0,12.77,1.38,6.71,6.71,0,0,1-.4.68h0A7.65,7.65,0,0,1,38.3,50.53Z" style="fill:#ff8410"/><path d="M100.86,19.77h0a66.8,66.8,0,0,1,66.8,66.8V99a17.3,17.3,0,0,1-17.3,17.3h-99A17.3,17.3,0,0,1,34.06,99V86.58A66.8,66.8,0,0,1,100.86,19.77Z" style="fill:url(#Degradado_sin_nombre_5-84)"/><ellipse cx="110.73" cy="23.93" rx="3.45" ry="8.38" transform="translate(69.12 129.3) rotate(-80.65)" style="fill:#bf630c;opacity:0.4;mix-blend-mode:multiply"/><path d="M110.63,25.36h0a7.5,7.5,0,0,1-4.16-12.3h0l8.58-9.74,4.15,12.3h0a7.49,7.49,0,0,1-8.57,9.74Z" style="fill:url(#Degradado_sin_nombre_5-85)"/><path d="M119.2,15.62h0l-4.15-12.3-1,1.16,3.65,10.83h0a7.49,7.49,0,0,1-7.8,9.86c.24.07.49.14.75.19h0A7.49,7.49,0,0,0,119.2,15.62Z" style="fill:#ff8410"/><path d="M119.6,17.7a7.48,7.48,0,0,1-8.28,4.19h0a7.47,7.47,0,0,1-6-7.06,7.5,7.5,0,0,0,5.32,10.53h0A7.51,7.51,0,0,0,119.6,17.7Z" style="fill:#bf630c;opacity:0.4;mix-blend-mode:multiply"/><ellipse cx="129.31" cy="30.26" rx="3.45" ry="8.38" transform="translate(38.45 127.11) rotate(-60)" style="fill:#bf630c;opacity:0.4;mix-blend-mode:multiply"/><path d="M129,32.22h0a7.49,7.49,0,0,1,.42-13h0l11.45-6.13-.42,13h0A7.5,7.5,0,0,1,129,32.22Z" style="fill:url(#Degradado_sin_nombre_5-86)"/><path d="M140.46,26.1h0l.42-13-1.36.73-.37,11.43h0a7.5,7.5,0,0,1-10.77,6.5c.2.15.41.3.63.44h0A7.5,7.5,0,0,0,140.46,26.1Z" style="fill:#ff8410"/><path d="M140.1,28.19a7.48,7.48,0,0,1-9.22,1h0a7.49,7.49,0,0,1-3.16-8.72A7.5,7.5,0,0,0,129,32.22h0A7.5,7.5,0,0,0,140.1,28.19Z" style="fill:#bf630c;opacity:0.4;mix-blend-mode:multiply"/><ellipse cx="144.8" cy="43.35" rx="3.45" ry="8.38" transform="translate(-0.2 86.04) rotate(-33.07)" style="fill:#bf630c;opacity:0.4;mix-blend-mode:multiply"/><path d="M143.84,45.09h0a7.5,7.5,0,0,1,4.93-12h0l12.87-1.72-4.94,12h0a7.49,7.49,0,0,1-12.86,1.73Z" style="fill:url(#Degradado_sin_nombre_5-87)"/><path d="M156.7,43.36h0l4.94-12-1.53.2-4.35,10.58h0a7.5,7.5,0,0,1-12.36,2.31,5.21,5.21,0,0,0,.44.64h0A7.49,7.49,0,0,0,156.7,43.36Z" style="fill:#ff8410"/><path d="M155.63,45.19a7.47,7.47,0,0,1-9-2.26h0a7.49,7.49,0,0,1,.09-9.28,7.5,7.5,0,0,0-2.89,11.44h0A7.5,7.5,0,0,0,155.63,45.19Z" style="fill:#bf630c;opacity:0.4;mix-blend-mode:multiply"/><ellipse cx="55.92" cy="44.6" rx="8.38" ry="3.45" transform="translate(-14.85 54.97) rotate(-46.91)" style="fill:#bf630c;opacity:0.4;mix-blend-mode:multiply"/><path d="M57.83,45.16h0A7.5,7.5,0,0,1,45,43h0L40.56,30.76,53.35,33h0a7.49,7.49,0,0,1,4.48,12.18Z" style="fill:url(#Degradado_sin_nombre_5-88)"/><path d="M53.35,33h0L40.56,30.76l.53,1.45,11.27,2h0A7.49,7.49,0,0,1,57.3,45.73c.18-.18.36-.37.53-.57h0A7.49,7.49,0,0,0,53.35,33Z" style="fill:#ff8410"/><path d="M55.37,33.62a7.48,7.48,0,0,1-.26,9.27h0A7.48,7.48,0,0,1,46,44.82a7.51,7.51,0,0,0,11.8.34h0A7.51,7.51,0,0,0,55.37,33.62Z" style="fill:#bf630c;opacity:0.4;mix-blend-mode:multiply"/><path d="M57.83,45.16h0A7.5,7.5,0,0,1,45,43h0L40.56,30.76,53.35,33h0a7.49,7.49,0,0,1,4.48,12.18Z" style="fill:url(#Degradado_sin_nombre_5-89)"/><path d="M53.35,33h0L40.56,30.76l.53,1.45,11.27,2h0A7.49,7.49,0,0,1,57.3,45.73c.18-.18.36-.37.53-.57h0A7.49,7.49,0,0,0,53.35,33Z" style="fill:#ff8410"/><path d="M55.37,33.62a7.48,7.48,0,0,1-.26,9.27h0A7.48,7.48,0,0,1,46,44.82a7.51,7.51,0,0,0,11.8.34h0A7.51,7.51,0,0,0,55.37,33.62Z" style="fill:#bf630c;opacity:0.4;mix-blend-mode:multiply"/><ellipse cx="71.04" cy="31.07" rx="8.38" ry="3.45" transform="translate(-6.02 39.68) rotate(-30)" style="fill:#bf630c;opacity:0.4;mix-blend-mode:multiply"/><path d="M72.62,32.27h0a7.49,7.49,0,0,1-11.2-6.56h0l.08-13,11.2,6.56h0a7.49,7.49,0,0,1-.08,13Z" style="fill:url(#Degradado_sin_nombre_5-90)"/><path d="M72.7,19.29h0L61.5,12.73v1.55l9.87,5.78h0a7.49,7.49,0,0,1,.57,12.56c.23-.11.47-.22.69-.35h0A7.49,7.49,0,0,0,72.7,19.29Z" style="fill:#ff8410"/><path d="M74.36,20.6a7.45,7.45,0,0,1-3.49,8.59h0a7.47,7.47,0,0,1-9.17-1.37,7.5,7.5,0,0,0,10.92,4.45h0A7.49,7.49,0,0,0,74.36,20.6Z" style="fill:#bf630c;opacity:0.4;mix-blend-mode:multiply"/><path d="M72.62,32.27h0a7.49,7.49,0,0,1-11.2-6.56h0l.08-13,11.2,6.56h0a7.49,7.49,0,0,1-.08,13Z" style="fill:url(#Degradado_sin_nombre_5-91)"/><path d="M72.7,19.29h0L61.5,12.73v1.55l9.87,5.78h0a7.49,7.49,0,0,1,.57,12.56c.23-.11.47-.22.69-.35h0A7.49,7.49,0,0,0,72.7,19.29Z" style="fill:#ff8410"/><path d="M74.36,20.6a7.45,7.45,0,0,1-3.49,8.59h0a7.47,7.47,0,0,1-9.17-1.37,7.5,7.5,0,0,0,10.92,4.45h0A7.49,7.49,0,0,0,74.36,20.6Z" style="fill:#bf630c;opacity:0.4;mix-blend-mode:multiply"/><ellipse cx="89.93" cy="23.7" rx="8.38" ry="3.45" transform="translate(-2.73 15.71) rotate(-9.83)" style="fill:#bf630c;opacity:0.4;mix-blend-mode:multiply"/><path d="M91,25.38h0a7.5,7.5,0,0,1-8.2-10.07h0L87.42,3.18l8.2,10.07h0A7.49,7.49,0,0,1,91,25.38Z" style="fill:url(#Degradado_sin_nombre_5-92)"/><path d="M95.62,13.25h0L87.42,3.18l-.55,1.45,7.22,8.86h0a7.49,7.49,0,0,1-3.86,12,6.94,6.94,0,0,0,.77-.08h0A7.49,7.49,0,0,0,95.62,13.25Z" style="fill:#ff8410"/><path d="M96.72,15.06a7.49,7.49,0,0,1-6.28,6.83h0a7.49,7.49,0,0,1-8.11-4.51,7.5,7.5,0,0,0,8.67,8h0A7.51,7.51,0,0,0,96.72,15.06Z" style="fill:#bf630c;opacity:0.4;mix-blend-mode:multiply"/><path d="M91,25.38h0a7.5,7.5,0,0,1-8.2-10.07h0L87.42,3.18l8.2,10.07h0A7.49,7.49,0,0,1,91,25.38Z" style="fill:url(#Degradado_sin_nombre_5-93)"/><path d="M95.62,13.25h0L87.42,3.18l-.55,1.45,7.22,8.86h0a7.49,7.49,0,0,1-3.86,12,6.94,6.94,0,0,0,.77-.08h0A7.49,7.49,0,0,0,95.62,13.25Z" style="fill:#ff8410"/><path d="M96.72,15.06a7.49,7.49,0,0,1-6.28,6.83h0a7.49,7.49,0,0,1-8.11-4.51,7.5,7.5,0,0,0,8.67,8h0A7.51,7.51,0,0,0,96.72,15.06Z" style="fill:#bf630c;opacity:0.4;mix-blend-mode:multiply"/><path d="M110.63,25.36h0a7.5,7.5,0,0,1-4.16-12.3h0l8.58-9.74,4.15,12.3h0a7.49,7.49,0,0,1-8.57,9.74Z" style="fill:url(#Degradado_sin_nombre_5-94)"/><path d="M119.2,15.62h0l-4.15-12.3-1,1.16,3.65,10.83h0a7.49,7.49,0,0,1-7.8,9.86c.24.07.49.14.75.19h0A7.49,7.49,0,0,0,119.2,15.62Z" style="fill:#ff8410"/><path d="M119.6,17.7a7.48,7.48,0,0,1-8.28,4.19h0a7.47,7.47,0,0,1-6-7.06,7.5,7.5,0,0,0,5.32,10.53h0A7.51,7.51,0,0,0,119.6,17.7Z" style="fill:#bf630c;opacity:0.4;mix-blend-mode:multiply"/><path d="M129,32.22h0a7.49,7.49,0,0,1,.42-13h0l11.45-6.13-.42,13h0A7.5,7.5,0,0,1,129,32.22Z" style="fill:url(#Degradado_sin_nombre_5-95)"/><path d="M140.46,26.1h0l.42-13-1.36.73-.37,11.43h0a7.5,7.5,0,0,1-10.77,6.5c.2.15.41.3.63.44h0A7.5,7.5,0,0,0,140.46,26.1Z" style="fill:#ff8410"/><path d="M140.1,28.19a7.48,7.48,0,0,1-9.22,1h0a7.49,7.49,0,0,1-3.16-8.72A7.5,7.5,0,0,0,129,32.22h0A7.5,7.5,0,0,0,140.1,28.19Z" style="fill:#bf630c;opacity:0.4;mix-blend-mode:multiply"/><path d="M143.84,45.09h0a7.5,7.5,0,0,1,4.93-12h0l12.87-1.72-4.94,12h0a7.49,7.49,0,0,1-12.86,1.73Z" style="fill:url(#Degradado_sin_nombre_5-96)"/><path d="M156.7,43.36h0l4.94-12-1.53.2-4.35,10.58h0a7.5,7.5,0,0,1-12.36,2.31,5.21,5.21,0,0,0,.44.64h0A7.49,7.49,0,0,0,156.7,43.36Z" style="fill:#ff8410"/><path d="M155.63,45.19a7.47,7.47,0,0,1-9-2.26h0a7.49,7.49,0,0,1,.09-9.28,7.5,7.5,0,0,0-2.89,11.44h0A7.5,7.5,0,0,0,155.63,45.19Z" style="fill:#bf630c;opacity:0.4;mix-blend-mode:multiply"/><ellipse cx="72.02" cy="40.65" rx="3.87" ry="1.59" transform="translate(-8.55 59.28) rotate(-42.46)" style="fill:#bf630c;opacity:0.4;mix-blend-mode:multiply"/><path d="M72.88,41h0a3.47,3.47,0,0,1-5.81-1.48h0l-1.62-5.77,5.81,1.48h0A3.46,3.46,0,0,1,72.88,41Z" style="fill:url(#Degradado_sin_nombre_5-97)"/><path d="M71.26,35.21h0l-5.81-1.48.19.69,5.12,1.3h0a3.46,3.46,0,0,1,1.86,5.5l.26-.24h0A3.46,3.46,0,0,0,71.26,35.21Z" style="fill:#ff8410"/><path d="M72.16,35.58a3.44,3.44,0,0,1-.45,4.25h0a3.43,3.43,0,0,1-4.24.56,3.46,3.46,0,0,0,5.41.59h0A3.47,3.47,0,0,0,72.16,35.58Z" style="fill:#bf630c;opacity:0.4;mix-blend-mode:multiply"/><path d="M72.88,41h0a3.47,3.47,0,0,1-5.81-1.48h0l-1.62-5.77,5.81,1.48h0A3.46,3.46,0,0,1,72.88,41Z" style="fill:url(#Degradado_sin_nombre_5-98)"/><path d="M71.26,35.21h0l-5.81-1.48.19.69,5.12,1.3h0a3.46,3.46,0,0,1,1.86,5.5l.26-.24h0A3.46,3.46,0,0,0,71.26,35.21Z" style="fill:#ff8410"/><path d="M72.16,35.58a3.44,3.44,0,0,1-.45,4.25h0a3.43,3.43,0,0,1-4.24.56,3.46,3.46,0,0,0,5.41.59h0A3.47,3.47,0,0,0,72.16,35.58Z" style="fill:#bf630c;opacity:0.4;mix-blend-mode:multiply"/><ellipse cx="83.83" cy="32.38" rx="3.87" ry="1.59" transform="translate(-5.98 35.39) rotate(-23.04)" style="fill:#bf630c;opacity:0.4;mix-blend-mode:multiply"/><path d="M84.53,33h0a3.46,3.46,0,0,1-5-3.32h0l.39-6,5,3.32h0a3.46,3.46,0,0,1-.38,6Z" style="fill:url(#Degradado_sin_nombre_5-99)"/><path d="M84.91,27h0l-5-3.32-.05.71,4.39,2.93h0a3.45,3.45,0,0,1-.07,5.8,2.33,2.33,0,0,0,.33-.14h0A3.46,3.46,0,0,0,84.91,27Z" style="fill:#ff8410"/><path d="M85.64,27.64a3.45,3.45,0,0,1-1.84,3.87h0a3.47,3.47,0,0,1-4.19-.89A3.47,3.47,0,0,0,84.53,33h0A3.46,3.46,0,0,0,85.64,27.64Z" style="fill:#bf630c;opacity:0.4;mix-blend-mode:multiply"/><path d="M84.53,33h0a3.46,3.46,0,0,1-5-3.32h0l.39-6,5,3.32h0a3.46,3.46,0,0,1-.38,6Z" style="fill:url(#Degradado_sin_nombre_5-100)"/><path d="M84.91,27h0l-5-3.32-.05.71,4.39,2.93h0a3.45,3.45,0,0,1-.07,5.8,2.33,2.33,0,0,0,.33-.14h0A3.46,3.46,0,0,0,84.91,27Z" style="fill:#ff8410"/><path d="M85.64,27.64a3.45,3.45,0,0,1-1.84,3.87h0a3.47,3.47,0,0,1-4.19-.89A3.47,3.47,0,0,0,84.53,33h0A3.46,3.46,0,0,0,85.64,27.64Z" style="fill:#bf630c;opacity:0.4;mix-blend-mode:multiply"/><ellipse cx="97.71" cy="28.5" rx="3.87" ry="1.59" transform="translate(-1.61 6.23) rotate(-3.62)" style="fill:#bf630c;opacity:0.4;mix-blend-mode:multiply"/><path d="M98.17,29.29h0a3.45,3.45,0,0,1-3.59-4.79h0L96.93,19l3.59,4.79h0a3.46,3.46,0,0,1-2.35,5.51Z" style="fill:url(#Degradado_sin_nombre_5-101)"/><path d="M100.52,23.78h0L96.93,19l-.28.66,3.16,4.22h0a3.46,3.46,0,0,1-2,5.45,2.19,2.19,0,0,0,.36,0h0A3.46,3.46,0,0,0,100.52,23.78Z" style="fill:#ff8410"/><path d="M101,24.64a3.45,3.45,0,0,1-3,3h0a3.44,3.44,0,0,1-3.65-2.22,3.46,3.46,0,0,0,3.85,3.84h0A3.46,3.46,0,0,0,101,24.64Z" style="fill:#bf630c;opacity:0.4;mix-blend-mode:multiply"/><path d="M98.17,29.29h0a3.45,3.45,0,0,1-3.59-4.79h0L96.93,19l3.59,4.79h0a3.46,3.46,0,0,1-2.35,5.51Z" style="fill:url(#Degradado_sin_nombre_5-102)"/><path d="M100.52,23.78h0L96.93,19l-.28.66,3.16,4.22h0a3.46,3.46,0,0,1-2,5.45,2.19,2.19,0,0,0,.36,0h0A3.46,3.46,0,0,0,100.52,23.78Z" style="fill:#ff8410"/><path d="M101,24.64a3.45,3.45,0,0,1-3,3h0a3.44,3.44,0,0,1-3.65-2.22,3.46,3.46,0,0,0,3.85,3.84h0A3.46,3.46,0,0,0,101,24.64Z" style="fill:#bf630c;opacity:0.4;mix-blend-mode:multiply"/><ellipse cx="112.09" cy="29.46" rx="1.59" ry="3.87" transform="matrix(0.27, -0.96, 0.96, 0.27, 53.23, 129.3)" style="fill:#bf630c;opacity:0.4;mix-blend-mode:multiply"/><path d="M112.26,30.36h0a3.46,3.46,0,0,1-1.8-5.71h0l4.06-4.42L116.31,26h0a3.45,3.45,0,0,1-4,4.41Z" style="fill:url(#Degradado_sin_nombre_5-103)"/><path d="M116.31,26h0l-1.79-5.72-.49.53,1.59,5h0a3.47,3.47,0,0,1-3.7,4.48,3.37,3.37,0,0,0,.34.09h0A3.45,3.45,0,0,0,116.31,26Z" style="fill:#ff8410"/><path d="M116.47,26.91a3.44,3.44,0,0,1-3.85,1.86h0a3.45,3.45,0,0,1-2.71-3.32,3.46,3.46,0,0,0,2.35,4.91h0A3.45,3.45,0,0,0,116.47,26.91Z" style="fill:#bf630c;opacity:0.4;mix-blend-mode:multiply"/><path d="M112.26,30.36h0a3.46,3.46,0,0,1-1.8-5.71h0l4.06-4.42L116.31,26h0a3.45,3.45,0,0,1-4,4.41Z" style="fill:url(#Degradado_sin_nombre_5-104)"/><path d="M116.31,26h0l-1.79-5.72-.49.53,1.59,5h0a3.47,3.47,0,0,1-3.7,4.48,3.37,3.37,0,0,0,.34.09h0A3.45,3.45,0,0,0,116.31,26Z" style="fill:#ff8410"/><path d="M116.47,26.91a3.44,3.44,0,0,1-3.85,1.86h0a3.45,3.45,0,0,1-2.71-3.32,3.46,3.46,0,0,0,2.35,4.91h0A3.45,3.45,0,0,0,116.47,26.91Z" style="fill:#bf630c;opacity:0.4;mix-blend-mode:multiply"/><ellipse cx="125.33" cy="35.15" rx="1.59" ry="3.87" transform="translate(24.34 117.28) rotate(-54.78)" style="fill:#bf630c;opacity:0.4;mix-blend-mode:multiply"/><path d="M125.2,36.06h0a3.46,3.46,0,0,1,.2-6h0l5.29-2.82-.21,6h0a3.45,3.45,0,0,1-5.28,2.82Z" style="fill:url(#Degradado_sin_nombre_5-105)"/><path d="M130.48,33.24h0l.21-6-.63.34-.18,5.27h0a3.46,3.46,0,0,1-5,3l.3.21h0A3.45,3.45,0,0,0,130.48,33.24Z" style="fill:#ff8410"/><path d="M130.32,34.2a3.46,3.46,0,0,1-4.26.47h0a3.45,3.45,0,0,1-1.45-4,3.47,3.47,0,0,0,.59,5.42h0A3.47,3.47,0,0,0,130.32,34.2Z" style="fill:#bf630c;opacity:0.4;mix-blend-mode:multiply"/><path d="M125.2,36.06h0a3.46,3.46,0,0,1,.2-6h0l5.29-2.82-.21,6h0a3.45,3.45,0,0,1-5.28,2.82Z" style="fill:url(#Degradado_sin_nombre_5-106)"/><path d="M130.48,33.24h0l.21-6-.63.34-.18,5.27h0a3.46,3.46,0,0,1-5,3l.3.21h0A3.45,3.45,0,0,0,130.48,33.24Z" style="fill:#ff8410"/><path d="M130.32,34.2a3.46,3.46,0,0,1-4.26.47h0a3.45,3.45,0,0,1-1.45-4,3.47,3.47,0,0,0,.59,5.42h0A3.47,3.47,0,0,0,130.32,34.2Z" style="fill:#bf630c;opacity:0.4;mix-blend-mode:multiply"/><ellipse cx="135.93" cy="44.91" rx="1.59" ry="3.87" transform="translate(-0.91 86.97) rotate(-35.37)" style="fill:#bf630c;opacity:0.4;mix-blend-mode:multiply"/><path d="M135.5,45.73h0a3.46,3.46,0,0,1,2.19-5.58h0l5.92-.9-2.18,5.58h0a3.46,3.46,0,0,1-5.93.9Z" style="fill:url(#Degradado_sin_nombre_5-107)"/><path d="M141.43,44.83h0l2.18-5.58-.71.11L141,44.27h0a3.45,3.45,0,0,1-5.68,1.16l.2.3h0A3.46,3.46,0,0,0,141.43,44.83Z" style="fill:#ff8410"/><path d="M141,45.68a3.46,3.46,0,0,1-4.17-1h0a3.44,3.44,0,0,1,0-4.28,3.46,3.46,0,0,0-1.25,5.3h0A3.47,3.47,0,0,0,141,45.68Z" style="fill:#bf630c;opacity:0.4;mix-blend-mode:multiply"/><path d="M135.5,45.73h0a3.46,3.46,0,0,1,2.19-5.58h0l5.92-.9-2.18,5.58h0a3.46,3.46,0,0,1-5.93.9Z" style="fill:url(#Degradado_sin_nombre_5-108)"/><path d="M141.43,44.83h0l2.18-5.58-.71.11L141,44.27h0a3.45,3.45,0,0,1-5.68,1.16l.2.3h0A3.46,3.46,0,0,0,141.43,44.83Z" style="fill:#ff8410"/><path d="M141,45.68a3.46,3.46,0,0,1-4.17-1h0a3.44,3.44,0,0,1,0-4.28,3.46,3.46,0,0,0-1.25,5.3h0A3.47,3.47,0,0,0,141,45.68Z" style="fill:#bf630c;opacity:0.4;mix-blend-mode:multiply"/></g></g></g></svg>