<svg xmlns="http://www.w3.org/2000/svg" viewBox="0 0 254.73 320"><g id="Layer_2" data-name="Layer 2"><g id="Layer_1-2" data-name="Layer 1"><path d="M254.73,122.74a38.14,38.14,0,0,0-.42-5.7A127.36,127.36,0,0,0,.42,117a38.14,38.14,0,0,0-.42,5.7q0,1.31,0,2.61c0,.67,0,1.34,0,2a129.34,129.34,0,0,0,1.53,19.8c9.09,72.19,57.92,142,125.84,172.83,67.91-30.86,116.74-100.64,125.83-172.83a129.34,129.34,0,0,0,1.53-19.8c0-.68,0-1.35,0-2Q254.73,124,254.73,122.74ZM112.62,217.16A72,72,0,0,1,30.26,134.8a72,72,0,0,1,82.36,82.36ZM204.27,197a71.9,71.9,0,0,1-62.15,20.2,72,72,0,0,1,82.36-82.36A72,72,0,0,1,204.27,197Z" style="fill:#4deeea"/></g></g></svg>