<svg xmlns="http://www.w3.org/2000/svg" viewBox="0 0 768 1024"><g id="Layer_2" data-name="Layer 2"><g id="Layer_1-2" data-name="Layer 1"><path d="M652.8,354.58H537.6V311.69c0-72.31-19.85-193.3-153.6-193.3-138.87,0-153.6,135.05-153.6,193.3v42.89H115.2V311.69C115.2,122.25,220.79,0,384,0S652.8,122.25,652.8,311.69v42.89Zm-192,314.84c0-43.52-34.58-78.65-76.8-78.65s-76.8,35.13-76.8,78.65c0,29.46,15.4,54.47,38.44,67.82v89.64c0,21.74,17.25,39.7,38.4,39.7s38.4-18,38.4-39.7V737.24c23-13.35,38.36-38.36,38.36-67.82ZM768,512V905.61C768,970.87,716.13,1024,652.8,1024H115.2C51.91,1024,0,970.87,0,905.61V512c0-65.22,51.87-118.39,115.2-118.39H652.8C716.13,393.61,768,446.78,768,512Z" style="fill:#4deeea"/></g></g></svg>