<svg xmlns="http://www.w3.org/2000/svg" xmlns:xlink="http://www.w3.org/1999/xlink" viewBox="0 0 177.2 159.52"><defs><linearGradient id="Degradado_sin_nombre_58" x1="96.97" y1="120.16" x2="96.97" y2="155.39" gradientTransform="matrix(1, 0, 0, -1, 27.66, 275.55)" gradientUnits="userSpaceOnUse"><stop offset="0.12" stop-color="#781f5b"/><stop offset="0.16" stop-color="#802a58"/><stop offset="0.46" stop-color="#b27046"/><stop offset="0.71" stop-color="#d7a339"/><stop offset="0.9" stop-color="#edc231"/><stop offset="1" stop-color="#f6ce2e"/></linearGradient><linearGradient id="Degradado_sin_nombre_58-2" x1="130.69" y1="120.16" x2="130.69" y2="155.39" gradientTransform="matrix(1, 0, 0, -1, -39.78, 275.55)" xlink:href="#Degradado_sin_nombre_58"/><linearGradient id="Degradado_sin_nombre_2" x1="85.4" y1="159.52" x2="85.4" y2="147.56" gradientUnits="userSpaceOnUse"><stop offset="0.12" stop-color="#781f5b"/><stop offset="0.16" stop-color="#863356"/><stop offset="0.25" stop-color="#a45c4b"/><stop offset="0.35" stop-color="#bd7f42"/><stop offset="0.45" stop-color="#d29c3b"/><stop offset="0.56" stop-color="#e2b235"/><stop offset="0.68" stop-color="#edc231"/><stop offset="0.81" stop-color="#f4cb2f"/><stop offset="1" stop-color="#f6ce2e"/></linearGradient><linearGradient id="Degradado_sin_nombre_58-3" x1="87.72" y1="159.52" x2="87.72" y2="148.82" gradientTransform="matrix(1, 0, 0, 1, 0, 0)" xlink:href="#Degradado_sin_nombre_58"/><linearGradient id="Degradado_sin_nombre_58-4" x1="71.51" y1="159.52" x2="71.51" y2="150.34" gradientTransform="matrix(1, 0, 0, 1, 0, 0)" xlink:href="#Degradado_sin_nombre_58"/><linearGradient id="Degradado_sin_nombre_2-2" x1="130.86" y1="159.52" x2="130.86" y2="147.56" gradientTransform="translate(261.72 307.08) rotate(180)" xlink:href="#Degradado_sin_nombre_2"/><linearGradient id="Degradado_sin_nombre_58-5" x1="128.55" y1="159.52" x2="128.55" y2="148.82" gradientTransform="matrix(1, 0, 0, 1, 0, 0)" xlink:href="#Degradado_sin_nombre_58"/><linearGradient id="Degradado_sin_nombre_58-6" x1="144.76" y1="159.52" x2="144.76" y2="150.34" gradientTransform="translate(289.52 309.86) rotate(180)" xlink:href="#Degradado_sin_nombre_58"/><linearGradient id="Degradado_sin_nombre_57" x1="-210.68" y1="101.61" x2="-210.68" y2="113.32" gradientTransform="translate(269.24 80.78) rotate(13.07)" gradientUnits="userSpaceOnUse"><stop offset="0" stop-color="#ff8410"/><stop offset="1" stop-color="#bf0f00"/></linearGradient><linearGradient id="Degradado_sin_nombre_57-2" x1="-199" y1="101.61" x2="-199" y2="113.32" xlink:href="#Degradado_sin_nombre_57"/><linearGradient id="Degradado_sin_nombre_2-3" x1="-694.1" y1="43" x2="-694.1" y2="100.11" gradientTransform="matrix(1, 0, 0, -1, 746.41, 176.51)" xlink:href="#Degradado_sin_nombre_2"/><linearGradient id="Degradado_sin_nombre_57-3" x1="409.74" y1="100.65" x2="419.9" y2="100.65" gradientTransform="matrix(-0.97, -0.23, -0.23, 0.97, 461.02, 125.3)" xlink:href="#Degradado_sin_nombre_57"/><linearGradient id="Degradado_sin_nombre_2-4" x1="-204.91" y1="111.04" x2="-204.91" y2="88.94" gradientTransform="translate(251.94 31.85)" xlink:href="#Degradado_sin_nombre_2"/><linearGradient id="Degradado_sin_nombre_2-5" x1="-211.95" y1="113.41" x2="-209.41" y2="101.52" gradientTransform="translate(269.24 80.78) rotate(13.07)" xlink:href="#Degradado_sin_nombre_2"/><linearGradient id="Degradado_sin_nombre_2-6" x1="-200.26" y1="113.41" x2="-197.73" y2="101.52" gradientTransform="translate(269.24 80.78) rotate(13.07)" xlink:href="#Degradado_sin_nombre_2"/><linearGradient id="Degradado_sin_nombre_2-7" x1="416.72" y1="109.55" x2="412.92" y2="91.74" gradientTransform="matrix(-0.97, -0.23, -0.23, 0.97, 461.02, 125.3)" xlink:href="#Degradado_sin_nombre_2"/><linearGradient id="Degradado_sin_nombre_2-8" x1="103.63" y1="130.11" x2="103.63" y2="69.06" xlink:href="#Degradado_sin_nombre_2"/><linearGradient id="Degradado_sin_nombre_2-9" x1="88.7" y1="102.74" x2="88.7" y2="10.21" xlink:href="#Degradado_sin_nombre_2"/><linearGradient id="Degradado_sin_nombre_57-4" x1="-102.44" y1="112.28" x2="-102.44" y2="123.98" gradientTransform="translate(234.31 6.67) rotate(-12.03)" xlink:href="#Degradado_sin_nombre_57"/><linearGradient id="Degradado_sin_nombre_57-5" x1="-90.76" y1="112.28" x2="-90.76" y2="123.98" gradientTransform="translate(234.31 6.67) rotate(-12.03)" xlink:href="#Degradado_sin_nombre_57"/><linearGradient id="Degradado_sin_nombre_2-10" x1="-653.73" y1="53.87" x2="-653.73" y2="110.98" gradientTransform="translate(811.84 24.75)" xlink:href="#Degradado_sin_nombre_2"/><linearGradient id="Degradado_sin_nombre_57-6" x1="301.5" y1="111.31" x2="311.66" y2="111.31" gradientTransform="matrix(-0.98, 0.21, 0.21, 0.98, 426.87, -34.35)" xlink:href="#Degradado_sin_nombre_57"/><linearGradient id="Degradado_sin_nombre_2-11" x1="-103.71" y1="124.07" x2="-101.17" y2="112.18" gradientTransform="translate(234.31 6.67) rotate(-12.03)" xlink:href="#Degradado_sin_nombre_2"/><linearGradient id="Degradado_sin_nombre_2-12" x1="-92.02" y1="124.07" x2="-89.49" y2="112.18" gradientTransform="translate(234.31 6.67) rotate(-12.03)" xlink:href="#Degradado_sin_nombre_2"/><linearGradient id="Degradado_sin_nombre_2-13" x1="308.48" y1="120.22" x2="304.69" y2="102.4" gradientTransform="matrix(-0.98, 0.21, 0.21, 0.98, 426.87, -34.35)" xlink:href="#Degradado_sin_nombre_2"/><linearGradient id="Degradado_sin_nombre_2-14" x1="-96.67" y1="121.71" x2="-96.67" y2="99.61" gradientTransform="translate(259.49 24.39)" xlink:href="#Degradado_sin_nombre_2"/></defs><g style="isolation:isolate"><g id="Layer_2" data-name="Layer 2"><g id="OBJECTS"><path d="M117,8A2.38,2.38,0,0,0,113,6.8L110.69,9l-5.36,5,7,2.15,7,2.15-1.62-7.12Z" style="fill:#b61982"/><path d="M138,17a2.37,2.37,0,0,0-3.2-2.59l-3,1.14-6.82,2.63,5.68,4.59,5.68,4.59,1.14-7.22Z" style="fill:#b61982"/><path d="M154.27,33.2a2.38,2.38,0,0,0-2-3.59l-3.18-.05-7.3-.09,3.57,6.37,3.56,6.37,3.74-6.27Z" style="fill:#b61982"/><path d="M163.31,54.27a2.38,2.38,0,0,0-.53-4.09L159.84,49l-6.74-2.81L154,53.4l.94,7.24,5.81-4.44Z" style="fill:#b61982"/><path d="M163.88,77.19a2.39,2.39,0,0,0,1-4L162.63,71l-5.22-5.12-1.81,7.08L153.78,80l7-2Z" style="fill:#b61982"/><rect x="115.5" y="120.16" width="18.26" height="35.22" rx="7.83" transform="translate(249.25 275.55) rotate(180)" style="fill:url(#Degradado_sin_nombre_58)"/><rect x="81.78" y="120.16" width="18.26" height="35.22" rx="7.83" transform="translate(181.82 275.55) rotate(180)" style="fill:url(#Degradado_sin_nombre_58-2)"/><rect x="115.5" y="109.2" width="18.26" height="35.22" rx="7.83" transform="translate(249.25 253.62) rotate(180)" style="fill:#63244e;opacity:0.30000000000000004;mix-blend-mode:multiply"/><rect x="81.78" y="109.2" width="18.26" height="35.22" rx="7.83" transform="translate(181.82 253.62) rotate(180)" style="fill:#63244e;opacity:0.30000000000000004;mix-blend-mode:multiply"/><rect x="67.92" y="147.56" width="34.97" height="11.96" rx="5.98" style="fill:url(#Degradado_sin_nombre_2)"/><path d="M100.58,148.83a5.49,5.49,0,0,1,0,.58h0a6,6,0,0,1-6,6h-23A5.9,5.9,0,0,1,68,154.11a6,6,0,0,0,6,5.41h23a6,6,0,0,0,6-6h0A6,6,0,0,0,100.58,148.83Z" style="fill:#63244e;opacity:0.30000000000000004;mix-blend-mode:multiply"/><path d="M91.56,159.52H83.87a5.37,5.37,0,0,1-5.35-5.35h0a5.37,5.37,0,0,1,5.35-5.35h7.69a5.37,5.37,0,0,1,5.35,5.35h0A5.37,5.37,0,0,1,91.56,159.52Z" style="fill:url(#Degradado_sin_nombre_58-3)"/><path d="M93.75,149.3a5.26,5.26,0,0,1,.47,2.18,5.37,5.37,0,0,1-5.35,5.35H81.18a5.35,5.35,0,0,1-2.19-.48,5.37,5.37,0,0,0,4.88,3.17h7.69a5.34,5.34,0,0,0,2.19-10.22Z" style="fill:#63244e;opacity:0.30000000000000004;mix-blend-mode:multiply"/><rect x="65.64" y="150.34" width="11.74" height="9.17" rx="4.59" style="fill:url(#Degradado_sin_nombre_58-4)"/><path d="M74.66,150.75a4.49,4.49,0,0,1,.41,1.87h0a4.61,4.61,0,0,1-4.59,4.59H67.91a4.64,4.64,0,0,1-1.86-.41,4.6,4.6,0,0,0,4.17,2.72h2.57a4.61,4.61,0,0,0,4.59-4.59h0A4.59,4.59,0,0,0,74.66,150.75Z" style="fill:#63244e;opacity:0.30000000000000004;mix-blend-mode:multiply"/><rect x="81.13" y="148.82" width="12.67" height="3.14" rx="1.57" style="fill:#fcedb6"/><path d="M69.13,152.78h4.24a1.08,1.08,0,0,0,1.08-1.09h0a1.08,1.08,0,0,0-1.08-1.08H69.13a1.09,1.09,0,0,0-1.08,1.08h0A1.09,1.09,0,0,0,69.13,152.78Z" style="fill:#fcedb6"/><rect x="113.38" y="147.56" width="34.97" height="11.96" rx="5.98" transform="translate(261.72 307.08) rotate(-180)" style="fill:url(#Degradado_sin_nombre_2-2)"/><path d="M115.69,148.83a5.49,5.49,0,0,0,0,.58h0a6,6,0,0,0,6,6h23a5.92,5.92,0,0,0,3.67-1.28,6,6,0,0,1-5.95,5.41h-23a6,6,0,0,1-6-6h0A6,6,0,0,1,115.69,148.83Z" style="fill:#63244e;opacity:0.30000000000000004;mix-blend-mode:multiply"/><path d="M124.7,159.52h7.7a5.37,5.37,0,0,0,5.35-5.35h0a5.37,5.37,0,0,0-5.35-5.35h-7.7a5.36,5.36,0,0,0-5.34,5.35h0A5.36,5.36,0,0,0,124.7,159.52Z" style="fill:url(#Degradado_sin_nombre_58-5)"/><path d="M122.52,149.3a5.26,5.26,0,0,0-.47,2.18,5.36,5.36,0,0,0,5.34,5.35h7.7a5.3,5.3,0,0,0,2.18-.48,5.37,5.37,0,0,1-4.87,3.17h-7.7a5.34,5.34,0,0,1-2.18-10.22Z" style="fill:#63244e;opacity:0.30000000000000004;mix-blend-mode:multiply"/><rect x="138.89" y="150.34" width="11.74" height="9.17" rx="4.59" transform="translate(289.52 309.86) rotate(-180)" style="fill:url(#Degradado_sin_nombre_58-6)"/><path d="M141.61,150.75a4.49,4.49,0,0,0-.41,1.87h0a4.6,4.6,0,0,0,4.59,4.59h2.56a4.65,4.65,0,0,0,1.87-.41,4.61,4.61,0,0,1-4.18,2.72h-2.57a4.6,4.6,0,0,1-4.58-4.59h0A4.59,4.59,0,0,1,141.61,150.75Z" style="fill:#63244e;opacity:0.30000000000000004;mix-blend-mode:multiply"/><rect x="122.47" y="148.82" width="12.67" height="3.14" rx="1.57" style="fill:#fcedb6"/><path d="M147.13,152.78h-4.24a1.09,1.09,0,0,1-1.08-1.09h0a1.09,1.09,0,0,1,1.08-1.08h4.24a1.09,1.09,0,0,1,1.09,1.08h0A1.09,1.09,0,0,1,147.13,152.78Z" style="fill:#fcedb6"/><path d="M39.46,143.76l-2.13-.49a5.89,5.89,0,0,1-4.38-7h0a5.87,5.87,0,0,1,7-4.37l2.13.49a5.88,5.88,0,0,1,4.38,7h0A5.87,5.87,0,0,1,39.46,143.76Z" style="fill:url(#Degradado_sin_nombre_57)"/><path d="M50.84,146.4l-2.13-.49a5.88,5.88,0,0,1-4.38-7h0a5.87,5.87,0,0,1,7-4.38l2.13.49a5.89,5.89,0,0,1,4.38,7h0A5.87,5.87,0,0,1,50.84,146.4Z" style="fill:url(#Degradado_sin_nombre_57-2)"/><rect x="41.26" y="76.4" width="22.12" height="57.11" rx="11.06" transform="translate(81.62 218.51) rotate(-167.97)" style="fill:url(#Degradado_sin_nombre_2-3)"/><path d="M58.27,77h0l-.59-.11L52,103.63a11.11,11.11,0,0,1-12.54,8.62l-1.6,7.51a11.11,11.11,0,0,0,8.52,13.13h0a11.1,11.1,0,0,0,13.12-8.52l7.29-34.22A11.09,11.09,0,0,0,58.27,77Z" style="fill:#63244e;opacity:0.30000000000000004;mix-blend-mode:multiply"/><path d="M32.1,138.49h0a5.1,5.1,0,0,1-3.8-6.1l1.86-8a5.11,5.11,0,0,1,6.1-3.8h0a5.1,5.1,0,0,1,3.8,6.1l-1.86,8A5.1,5.1,0,0,1,32.1,138.49Z" style="fill:url(#Degradado_sin_nombre_57-3)"/><rect x="33.5" y="120.79" width="27.06" height="22.1" rx="6.17" transform="translate(31.03 -7.22) rotate(13.07)" style="fill:url(#Degradado_sin_nombre_2-4)"/><path d="M42.36,119.41l1.61.38-.06.22-1.09,4.91a6.18,6.18,0,0,0,4.62,7.41l12.72,3c-.87,3.18-1,10-8.47,9l-14.33-3.33a6.19,6.19,0,0,1-4.61-7.41L35,124A6.19,6.19,0,0,1,42.36,119.41Z" style="fill:#63244e;opacity:0.30000000000000004;mix-blend-mode:multiply"/><path d="M53.39,79.54c-.19.9,1.4,2,3.55,2.47s4.06.1,4.25-.81-1.39-2-3.55-2.46S53.59,78.64,53.39,79.54Z" style="fill:#63244e;opacity:0.30000000000000004;mix-blend-mode:multiply"/><path d="M47.22,83.85c-.16.72,1,1.59,2.65,1.93s3.06,0,3.22-.68-1-1.59-2.66-1.94S47.37,83.12,47.22,83.85Z" style="fill:#63244e;opacity:0.30000000000000004;mix-blend-mode:multiply"/><path d="M55.47,83.38c-.1.45.59,1,1.53,1.18s1.79,0,1.89-.45-.59-1-1.54-1.19S55.56,82.93,55.47,83.38Z" style="fill:#63244e;opacity:0.30000000000000004;mix-blend-mode:multiply"/><path d="M53.26,88.38c-.12.58.79,1.27,2,1.53s2.36,0,2.48-.57-.78-1.27-2-1.54S53.39,87.79,53.26,88.38Z" style="fill:#63244e;opacity:0.30000000000000004;mix-blend-mode:multiply"/><path d="M47.43,91.9c-.15.7.82,1.49,2.16,1.78s2.55-.05,2.7-.74-.82-1.49-2.16-1.78S47.58,91.21,47.43,91.9Z" style="fill:#63244e;opacity:0.30000000000000004;mix-blend-mode:multiply"/><path d="M39.46,143.76l-2.13-.49a5.89,5.89,0,0,1-4.38-7h0a5.87,5.87,0,0,1,7-4.37l2.13.49a5.88,5.88,0,0,1,4.38,7h0A5.87,5.87,0,0,1,39.46,143.76Z" style="fill:url(#Degradado_sin_nombre_2-5)"/><path d="M50.84,146.4l-2.13-.49a5.88,5.88,0,0,1-4.38-7h0a5.87,5.87,0,0,1,7-4.38l2.13.49a5.89,5.89,0,0,1,4.38,7h0A5.87,5.87,0,0,1,50.84,146.4Z" style="fill:url(#Degradado_sin_nombre_2-6)"/><path d="M51.87,141.63l-2.13-.5a5.87,5.87,0,0,1-4.07-3.46A5.85,5.85,0,0,1,40.49,139l-2.13-.49A5.87,5.87,0,0,1,34,134.05a5.82,5.82,0,0,0-1,2.19,5.89,5.89,0,0,0,4.38,7l2.13.49a5.85,5.85,0,0,0,5.18-1.31,5.85,5.85,0,0,0,4.07,3.46l2.13.49a5.87,5.87,0,0,0,7-4.37,5.81,5.81,0,0,0,0-2.59A5.88,5.88,0,0,1,51.87,141.63Z" style="fill:#63244e;opacity:0.30000000000000004;mix-blend-mode:multiply"/><path d="M32.1,138.49h0a5.1,5.1,0,0,1-3.8-6.1l1.86-8a5.11,5.11,0,0,1,6.1-3.8h0a5.1,5.1,0,0,1,3.8,6.1l-1.86,8A5.1,5.1,0,0,1,32.1,138.49Z" style="fill:url(#Degradado_sin_nombre_2-7)"/><path d="M37.14,120.87a5,5,0,0,1-.09,1.54l-1.86,8a5.09,5.09,0,0,1-6.1,3.8,4.35,4.35,0,0,1-.88-.3,5.07,5.07,0,0,0,10,.77l1.86-8A5.09,5.09,0,0,0,37.14,120.87Z" style="fill:#63244e;opacity:0.30000000000000004;mix-blend-mode:multiply"/><path d="M65.56,69.06h42.15a43.16,43.16,0,0,1,43.16,43.16v0A17.89,17.89,0,0,1,133,130.11H92.23A35.85,35.85,0,0,1,56.38,94.26v-16a9.18,9.18,0,0,1,9.18-9.18Z" style="fill:url(#Degradado_sin_nombre_2-8)"/><path d="M133,125.17H92.23A36,36,0,0,1,56.38,89.32v4.94a36,36,0,0,0,35.85,35.85H133a17.94,17.94,0,0,0,17.89-17.89h0c0-1-.05-2-.12-3A17.94,17.94,0,0,1,133,125.17Z" style="fill:#63244e;opacity:0.30000000000000004;mix-blend-mode:multiply"/><path d="M60.59,55.18h42.15a43.16,43.16,0,0,1,43.16,43.16V107a9.18,9.18,0,0,1-9.18,9.18H87.26A35.85,35.85,0,0,1,51.41,80.38v-16A9.18,9.18,0,0,1,60.59,55.18Z" style="fill:#63244e;opacity:0.30000000000000004;mix-blend-mode:multiply"/><path d="M7.74,24.65s19.59,44.4-1.6,62.57" style="fill:none;stroke:#4a1b3b;stroke-linecap:round;stroke-miterlimit:10;stroke-width:11.1933414704359px"/><path d="M31,10.21H94.89A65.41,65.41,0,0,1,160.3,75.62v13.2a13.91,13.91,0,0,1-13.91,13.91h-75A54.34,54.34,0,0,1,17.09,48.4V24.12A13.91,13.91,0,0,1,31,10.21Z" style="fill:url(#Degradado_sin_nombre_2-9)"/><path d="M132.8,22.42a65,65,0,0,1,11,36.2v13.2A14,14,0,0,1,129.9,85.73h-75a53.9,53.9,0,0,1-29.79-9,54.43,54.43,0,0,0,46.29,26h75A14,14,0,0,0,160.3,88.82V75.62A65.43,65.43,0,0,0,132.8,22.42Z" style="fill:#63244e;opacity:0.30000000000000004;mix-blend-mode:multiply"/><path d="M8.54,88.82c17.06-24.94,1.65-65.68,1.65-65.68H48.31A41.56,41.56,0,0,1,89.75,64.57V84.62a4.65,4.65,0,0,1-4.64,4.63H20.93c-4,0-6.25,1.29-9.79,0Z" style="fill:#2e0621"/><path d="M68.56,89.25A21.25,21.25,0,0,0,89.75,68.07v-3.5a40.29,40.29,0,0,0-.47-6.15H49.16a31.11,31.11,0,0,0-31,31h0a23.25,23.25,0,0,1,2.79-.19Z" style="fill:#b0408a"/><path d="M89.28,58.42h-18A21.27,21.27,0,0,1,51.17,73H22.89a30.79,30.79,0,0,0-4.75,16.43h0a23.25,23.25,0,0,1,2.79-.19H68.56A21.25,21.25,0,0,0,89.75,68.07v-3.5A40.29,40.29,0,0,0,89.28,58.42Z" style="fill:#b0408a;opacity:0.44;mix-blend-mode:multiply"/><path d="M14,35a2.44,2.44,0,0,0,4.59,0l1.32-3.65,1.41-3.91a19.67,19.67,0,0,1-3.63-2.14,5.28,5.28,0,0,0-7,.56l2,5.49Z" style="fill:#fcedb6"/><path d="M19.27,29.19l.84-2.33a20.47,20.47,0,0,1-2.44-1.54,5.28,5.28,0,0,0-7,.56l2,5.49.06.19A4.53,4.53,0,0,0,19.27,29.19Z" style="fill:#e3cf88"/><path d="M23.41,35A2.43,2.43,0,0,0,28,35l1.32-3.65,1.41-3.91a20.36,20.36,0,0,1-3.63-2.14,5.27,5.27,0,0,0-7,.56l2,5.49Z" style="fill:#fcedb6"/><path d="M28.69,29.19l.84-2.33a20.47,20.47,0,0,1-2.44-1.54,5.27,5.27,0,0,0-7,.56l2,5.49.07.19A4.52,4.52,0,0,0,28.69,29.19Z" style="fill:#e3cf88"/><path d="M32.83,35a2.44,2.44,0,0,0,4.59,0l1.31-3.65,1.42-3.91a19.67,19.67,0,0,1-3.63-2.14,5.28,5.28,0,0,0-7,.56l2,5.49Z" style="fill:#fcedb6"/><path d="M38.12,29.19,39,26.86a20.47,20.47,0,0,1-2.44-1.54,5.28,5.28,0,0,0-7,.56l2,5.49.07.19A4.53,4.53,0,0,0,38.12,29.19Z" style="fill:#e3cf88"/><path d="M42.26,35a2.43,2.43,0,0,0,4.58,0l1.32-3.65,1.41-3.91a20.36,20.36,0,0,1-3.63-2.14,5.27,5.27,0,0,0-7,.56l2,5.49Z" style="fill:#fcedb6"/><path d="M47.54,29.19l.84-2.33a20.47,20.47,0,0,1-2.44-1.54,5.27,5.27,0,0,0-7,.56l2,5.49.07.19A4.52,4.52,0,0,0,47.54,29.19Z" style="fill:#e3cf88"/><path d="M43.87,77.52a2.44,2.44,0,0,0-4.58,0L38,81.17l-1.41,3.91a21.63,21.63,0,0,1,3.63,2.14,5.26,5.26,0,0,0,7-.56l-2-5.49Z" style="fill:#fcedb6"/><path d="M38.59,83.36l-.84,2.32a20.47,20.47,0,0,1,2.44,1.54,5.26,5.26,0,0,0,7-.56l-2-5.49L45.12,81A4.51,4.51,0,0,0,38.59,83.36Z" style="fill:#e3cf88"/><path d="M52.7,77.52a2.44,2.44,0,0,0-4.58,0L46.8,81.17l-1.41,3.91A21.63,21.63,0,0,1,49,87.22a5.26,5.26,0,0,0,7-.56l-2-5.49Z" style="fill:#fcedb6"/><path d="M47.42,83.36l-.84,2.32A20.47,20.47,0,0,1,49,87.22a5.26,5.26,0,0,0,7-.56l-2-5.49L54,81A4.51,4.51,0,0,0,47.42,83.36Z" style="fill:#e3cf88"/><path d="M61.53,77.52a2.44,2.44,0,0,0-4.59,0l-1.31,3.65-1.42,3.91a20.86,20.86,0,0,1,3.63,2.14,5.27,5.27,0,0,0,7-.56l-2-5.49Z" style="fill:#fcedb6"/><path d="M56.24,83.36l-.83,2.32a20.35,20.35,0,0,1,2.43,1.54,5.27,5.27,0,0,0,7-.56l-2-5.49L62.78,81A4.52,4.52,0,0,0,56.24,83.36Z" style="fill:#e3cf88"/><path d="M70.36,77.52a2.44,2.44,0,0,0-4.59,0l-1.31,3.65L63,85.08a20.86,20.86,0,0,1,3.63,2.14,5.27,5.27,0,0,0,7-.56l-2-5.49Z" style="fill:#fcedb6"/><path d="M65.07,83.36l-.84,2.32a20.47,20.47,0,0,1,2.44,1.54,5.27,5.27,0,0,0,7-.56l-2-5.49L71.61,81A4.52,4.52,0,0,0,65.07,83.36Z" style="fill:#e3cf88"/><path d="M34.45,77.52a2.44,2.44,0,0,0-4.59,0l-1.32,3.65-1.41,3.91a20.86,20.86,0,0,1,3.63,2.14,5.27,5.27,0,0,0,7-.56l-2-5.49Z" style="fill:#fcedb6"/><path d="M29.16,83.36l-.84,2.32a20.47,20.47,0,0,1,2.44,1.54,5.27,5.27,0,0,0,7-.56l-2-5.49L35.7,81A4.52,4.52,0,0,0,29.16,83.36Z" style="fill:#e3cf88"/><path d="M25,77.52a2.44,2.44,0,0,0-4.58,0l-1.32,3.65-1.41,3.91a21.63,21.63,0,0,1,3.63,2.14,5.26,5.26,0,0,0,7-.56l-2-5.49Z" style="fill:#fcedb6"/><path d="M19.74,83.36l-.84,2.32a20.47,20.47,0,0,1,2.44,1.54,5.26,5.26,0,0,0,7-.56l-2-5.49L26.27,81A4.51,4.51,0,0,0,19.74,83.36Z" style="fill:#e3cf88"/><path d="M15.6,77.52a2.44,2.44,0,0,0-4.58,0L9.7,81.17,8.29,85.08a21.63,21.63,0,0,1,3.63,2.14,5.26,5.26,0,0,0,7-.56l-2-5.49Z" style="fill:#fcedb6"/><path d="M10.32,83.36l-.84,2.32a21.31,21.31,0,0,1,2.44,1.54,5.26,5.26,0,0,0,7-.56l-2-5.49L16.85,81A4.51,4.51,0,0,0,10.32,83.36Z" style="fill:#e3cf88"/><path d="M51.68,35a2.43,2.43,0,0,0,4.58,0l1.32-3.65L59,27.46a20.36,20.36,0,0,1-3.63-2.14,5.27,5.27,0,0,0-7,.56l2,5.49Z" style="fill:#fcedb6"/><path d="M57,29.19l.84-2.33a21.31,21.31,0,0,1-2.44-1.54,5.27,5.27,0,0,0-7,.56l2,5.49.07.19A4.52,4.52,0,0,0,57,29.19Z" style="fill:#e3cf88"/><path d="M59.18,37a2.44,2.44,0,0,0,4.27,1.67L66,35.71l2.74-3.12a20.23,20.23,0,0,1-2.6-3.32,5.28,5.28,0,0,0-6.71-2l-.16,5.84Z" style="fill:#fcedb6"/><path d="M66.23,33.45l1.63-1.86a19.25,19.25,0,0,1-1.71-2.32,5.28,5.28,0,0,0-6.71-2l-.16,5.84v.19A4.51,4.51,0,0,0,66.23,33.45Z" style="fill:#e3cf88"/><path d="M65.45,41.49a2.44,2.44,0,0,0,3.36,3.12l3.45-1.78L76,40.92a20.62,20.62,0,0,1-1.21-4,5.26,5.26,0,0,0-5.5-4.33L67,37.92Z" style="fill:#fcedb6"/><path d="M73.3,40.81l2.19-1.14a20.46,20.46,0,0,1-.74-2.79,5.26,5.26,0,0,0-5.5-4.33L67,37.92l-.08.18A4.53,4.53,0,0,0,73.3,40.81Z" style="fill:#e3cf88"/><path d="M69.64,48a2.44,2.44,0,0,0,2,4.13l3.86-.4,4.14-.43a19.7,19.7,0,0,1,.35-4.2,5.27,5.27,0,0,0-3.54-6l-4.09,4.17Z" style="fill:#fcedb6"/><path d="M77.19,50.23,79.65,50A19.71,19.71,0,0,1,80,47.11a5.27,5.27,0,0,0-3.54-6l-4.09,4.17-.14.14A4.52,4.52,0,0,0,77.19,50.23Z" style="fill:#e3cf88"/><path d="M73.71,55.6a2.44,2.44,0,0,0,.67,4.54l3.8.76,4.08.83a20.78,20.78,0,0,1,1.58-3.91A5.27,5.27,0,0,0,82.27,51l-5.15,2.76Z" style="fill:#fcedb6"/><path d="M80.25,60l2.43.49a20,20,0,0,1,1.16-2.64A5.27,5.27,0,0,0,82.27,51l-5.15,2.76-.17.1A4.52,4.52,0,0,0,80.25,60Z" style="fill:#e3cf88"/><path d="M75.33,64.06a2.44,2.44,0,0,0-.71,4.53L78,70.46l3.64,2a20.58,20.58,0,0,1,2.68-3.26,5.26,5.26,0,0,0,.53-7l-5.73,1.1Z" style="fill:#fcedb6"/><path d="M80.27,70.18l2.17,1.19a18.68,18.68,0,0,1,1.9-2.17,5.26,5.26,0,0,0,.53-7l-5.73,1.1-.2,0A4.52,4.52,0,0,0,80.27,70.18Z" style="fill:#e3cf88"/><path d="M75.33,74.79a2.43,2.43,0,0,0-.71,4.52L78,81.18l3.64,2a21,21,0,0,1,2.68-3.25,5.27,5.27,0,0,0,.53-7l-5.73,1.11Z" style="fill:#fcedb6"/><path d="M80.27,80.91l2.17,1.19a18.68,18.68,0,0,1,1.9-2.17,5.27,5.27,0,0,0,.53-7l-5.73,1.11-.2,0A4.52,4.52,0,0,0,80.27,80.91Z" style="fill:#e3cf88"/><path d="M5.6,87.27a33.28,33.28,0,0,0,11.33,2H81.11a4.65,4.65,0,0,0,4.64-4.63V64.57A41.56,41.56,0,0,0,44.31,23.14H6.2" style="fill:none;stroke:#63244e;stroke-linecap:round;stroke-miterlimit:10;stroke-width:11.1933414704359px"/><g style="opacity:0.41000000000000003;mix-blend-mode:multiply"><path d="M6.2,28.73H44.31A35.65,35.65,0,0,1,67.15,37,35.73,35.73,0,0,0,40.5,25.07H2.39a5.81,5.81,0,0,1-1.52-.21A5.6,5.6,0,0,0,6.2,28.73Z" style="fill:#63244e"/><path d="M75,28.93a46.87,46.87,0,0,1,12.59,32V81A10.24,10.24,0,0,1,77.31,91.19H13.13A38.68,38.68,0,0,1,.28,89a5.61,5.61,0,0,0,3.41,3.53,38.73,38.73,0,0,0,13.24,2.32H81.11A10.24,10.24,0,0,0,91.35,84.62V64.57A47,47,0,0,0,75,28.93Z" style="fill:#63244e"/></g><path d="M99.07,70.62a14,14,0,1,0,14-14A14,14,0,0,0,99.07,70.62Z" style="fill:#4c275a"/><path d="M101,70.62a12,12,0,1,0,12-12A12,12,0,0,0,101,70.62Z" style="fill:#23f8ff"/><path d="M107,70.62a6,6,0,1,0,6-6A6,6,0,0,0,107,70.62Z" style="fill:#0e393a"/><path d="M104.48,71.66a3.12,3.12,0,1,0,3.12-3.12A3.12,3.12,0,0,0,104.48,71.66Z" style="fill:#fff"/><path d="M113,77.52a12,12,0,0,0,11.75-9.46,12,12,0,1,1-23.5,0A12,12,0,0,0,113,77.52Z" style="fill:#1ababf"/><path d="M125.05,70.62a12,12,0,0,0-24.06,0Z" style="fill:#63244e"/><path d="M103.92,60.06a14.11,14.11,0,0,0-.26,2.62,13.95,13.95,0,0,0,23.06,10.56,13.95,13.95,0,1,1-22.8-13.18Z" style="fill:#bf630c;opacity:0.4;mix-blend-mode:multiply"/><path d="M161,149.05l-2.14.45a5.87,5.87,0,0,1-6.95-4.5h0a5.88,5.88,0,0,1,4.51-6.95l2.14-.45a5.87,5.87,0,0,1,6.94,4.5h0A5.88,5.88,0,0,1,161,149.05Z" style="fill:url(#Degradado_sin_nombre_57-4)"/><path d="M172.45,146.61l-2.14.46a5.87,5.87,0,0,1-6.94-4.51h0a5.87,5.87,0,0,1,4.5-6.94l2.14-.46a5.88,5.88,0,0,1,7,4.51h0A5.87,5.87,0,0,1,172.45,146.61Z" style="fill:url(#Degradado_sin_nombre_57-5)"/><rect x="147.05" y="78.62" width="22.12" height="57.11" rx="11.06" transform="translate(-18.86 35.3) rotate(-12.03)" style="fill:url(#Degradado_sin_nombre_2-10)"/><path d="M152.16,79.25h0l.59-.11,5.69,26.71A11.09,11.09,0,0,0,171,114.47l1.6,7.51a11.11,11.11,0,0,1-8.52,13.13h0a11.09,11.09,0,0,1-13.12-8.52l-7.29-34.21A11.09,11.09,0,0,1,152.16,79.25Z" style="fill:#63244e;opacity:0.30000000000000004;mix-blend-mode:multiply"/><path d="M152.12,147.39h0a5.08,5.08,0,0,1-6-3.91l-1.72-8a5.1,5.1,0,0,1,3.91-6h0a5.1,5.1,0,0,1,6,3.91l1.71,8.05A5.08,5.08,0,0,1,152.12,147.39Z" style="fill:url(#Degradado_sin_nombre_57-6)"/><path d="M161,149.05l-2.14.45a5.87,5.87,0,0,1-6.95-4.5h0a5.88,5.88,0,0,1,4.51-6.95l2.14-.45a5.87,5.87,0,0,1,6.94,4.5h0A5.88,5.88,0,0,1,161,149.05Z" style="fill:url(#Degradado_sin_nombre_2-11)"/><path d="M172.45,146.61l-2.14.46a5.87,5.87,0,0,1-6.94-4.51h0a5.87,5.87,0,0,1,4.5-6.94l2.14-.46a5.88,5.88,0,0,1,7,4.51h0A5.87,5.87,0,0,1,172.45,146.61Z" style="fill:url(#Degradado_sin_nombre_2-12)"/><path d="M152.12,147.39h0a5.08,5.08,0,0,1-6-3.91l-1.72-8a5.1,5.1,0,0,1,3.91-6h0a5.1,5.1,0,0,1,6,3.91l1.71,8.05A5.08,5.08,0,0,1,152.12,147.39Z" style="fill:url(#Degradado_sin_nombre_2-13)"/><rect x="149.29" y="123.99" width="27.06" height="22.1" rx="6.17" transform="translate(-24.57 36.89) rotate(-12.03)" style="fill:url(#Degradado_sin_nombre_2-14)"/><path d="M153.32,125.77l1.62-.35a1.85,1.85,0,0,0,0,.23l2,9.54a6.19,6.19,0,0,0,7.32,4.75l12.77-2.72a6.18,6.18,0,0,1-4.79,7.1l-14.38,3.06a6.2,6.2,0,0,1-7.33-4.75l-2-9.54A6.18,6.18,0,0,1,153.32,125.77Z" style="fill:#63244e;opacity:0.30000000000000004;mix-blend-mode:multiply"/><path d="M157,81.76c.19.91-1.4,2-3.55,2.47s-4.06.1-4.25-.8,1.39-2,3.55-2.47S156.84,80.86,157,81.76Z" style="fill:#63244e;opacity:0.30000000000000004;mix-blend-mode:multiply"/><path d="M163.21,86.07c.16.72-1,1.59-2.65,1.93s-3.06,0-3.22-.68,1-1.59,2.66-1.94S163.06,85.35,163.21,86.07Z" style="fill:#63244e;opacity:0.30000000000000004;mix-blend-mode:multiply"/><path d="M155,85.6c.1.45-.59,1-1.53,1.18s-1.79,0-1.89-.45.59-1,1.54-1.18S154.87,85.15,155,85.6Z" style="fill:#63244e;opacity:0.30000000000000004;mix-blend-mode:multiply"/><path d="M157.17,90.6c.12.58-.79,1.27-2,1.54s-2.36,0-2.48-.58.78-1.27,2-1.54S157,90,157.17,90.6Z" style="fill:#63244e;opacity:0.30000000000000004;mix-blend-mode:multiply"/><path d="M163,94.13c.15.69-.82,1.49-2.16,1.77s-2.55,0-2.7-.74.82-1.49,2.16-1.77S162.85,93.43,163,94.13Z" style="fill:#63244e;opacity:0.30000000000000004;mix-blend-mode:multiply"/><path d="M133.34,25.65c0,1.91-3.66,3.5-8.21,3.54s-8.26-1.46-8.28-3.37,3.65-3.49,8.21-3.54S133.32,23.74,133.34,25.65Z" style="fill:#63244e;opacity:0.30000000000000004;mix-blend-mode:multiply"/><path d="M144.09,36.91c0,1.53-2.75,2.8-6.18,2.84s-6.22-1.18-6.23-2.71,2.75-2.8,6.18-2.83S144.07,35.38,144.09,36.91Z" style="fill:#63244e;opacity:0.30000000000000004;mix-blend-mode:multiply"/><path d="M127.56,32.58c0,1-1.6,1.75-3.6,1.77s-3.62-.74-3.63-1.7,1.6-1.74,3.59-1.76S127.55,31.62,127.56,32.58Z" style="fill:#63244e;opacity:0.30000000000000004;mix-blend-mode:multiply"/><path d="M103.92,19.18c0,1-1.6,1.75-3.6,1.77s-3.62-.74-3.63-1.69,1.6-1.75,3.6-1.77S103.91,18.23,103.92,19.18Z" style="fill:#63244e;opacity:0.30000000000000004;mix-blend-mode:multiply"/><path d="M113.05,32.88c0,1-1.6,1.75-3.6,1.77s-3.62-.74-3.63-1.69,1.6-1.75,3.6-1.77S113,31.93,113.05,32.88Z" style="fill:#63244e;opacity:0.30000000000000004;mix-blend-mode:multiply"/><path d="M130,43.61c0,1.24-2.11,2.26-4.74,2.29s-4.78-1-4.79-2.19,2.11-2.26,4.74-2.28S130,42.38,130,43.61Z" style="fill:#63244e;opacity:0.30000000000000004;mix-blend-mode:multiply"/><path d="M117.79,18.67c0,1.23-2.11,2.25-4.75,2.28s-4.77-.95-4.78-2.19,2.11-2.25,4.74-2.28S117.78,17.43,117.79,18.67Z" style="fill:#63244e;opacity:0.30000000000000004;mix-blend-mode:multiply"/><path d="M140.35,53.16c0,1.46-2.27,2.68-5.11,2.71s-5.16-1.14-5.17-2.61,2.27-2.68,5.11-2.71S140.34,51.69,140.35,53.16Z" style="fill:#63244e;opacity:0.30000000000000004;mix-blend-mode:multiply"/><path d="M54.53,1.2a2.38,2.38,0,0,0-4.12,0L48.8,3.92l-3.7,6.3,7.31,0,7.3.05L56.1,4Z" style="fill:#b61982"/><path d="M73.37,1.2a2.39,2.39,0,0,0-4.13,0L67.63,3.92l-3.69,6.3,7.3,0,7.31.05L74.94,4Z" style="fill:#b61982"/><path d="M92.2,1.2a2.38,2.38,0,0,0-4.12,0L86.47,3.92l-3.69,6.3,7.3,0,7.3.05L93.78,4Z" style="fill:#b61982"/></g></g></g></svg>