<svg xmlns="http://www.w3.org/2000/svg" xmlns:xlink="http://www.w3.org/1999/xlink" viewBox="0 0 132.26 170.39"><defs><linearGradient id="Degradado_sin_nombre_3" x1="-243.34" y1="45.17" x2="-166.82" y2="45.17" gradientTransform="matrix(0.82, 0.57, -0.57, 0.82, 272.04, 201.22)" gradientUnits="userSpaceOnUse"><stop offset="0.13" stop-color="#fe3070"/><stop offset="0.24" stop-color="#db4f85"/><stop offset="0.44" stop-color="#a183a9"/><stop offset="0.62" stop-color="#73acc4"/><stop offset="0.78" stop-color="#52cad8"/><stop offset="0.91" stop-color="#3edce5"/><stop offset="1" stop-color="#37e2e9"/></linearGradient><linearGradient id="Degradado_sin_nombre_3-2" x1="677.7" y1="817.04" x2="696.54" y2="784.42" gradientTransform="matrix(0.96, 0.29, 0.29, -0.96, -786.07, 723.06)" xlink:href="#Degradado_sin_nombre_3"/><linearGradient id="Degradado_sin_nombre_3-3" x1="686.84" y1="801.32" x2="699.38" y2="823.02" gradientTransform="matrix(0.96, 0.29, 0.29, -0.96, -786.07, 723.06)" xlink:href="#Degradado_sin_nombre_3"/><linearGradient id="Degradado_sin_nombre_3-4" x1="677.29" y1="806.97" x2="695.59" y2="838.66" gradientTransform="matrix(0.96, 0.29, 0.29, -0.96, -786.07, 723.06)" xlink:href="#Degradado_sin_nombre_3"/><linearGradient id="Degradado_sin_nombre_3-5" x1="-723.15" y1="139.05" x2="-701.58" y2="101.68" gradientTransform="matrix(0.08, 1, -1, 0.08, 209.49, 779.31)" xlink:href="#Degradado_sin_nombre_3"/><linearGradient id="Degradado_sin_nombre_3-6" x1="652.66" y1="838.24" x2="662.91" y2="820.49" gradientTransform="matrix(-0.83, -0.55, 0.55, -0.83, 102.29, 1127.73)" xlink:href="#Degradado_sin_nombre_3"/><linearGradient id="Degradado_sin_nombre_3-7" x1="657.64" y1="829.69" x2="664.46" y2="841.5" gradientTransform="matrix(-0.83, -0.55, 0.55, -0.83, 102.29, 1127.73)" xlink:href="#Degradado_sin_nombre_3"/><linearGradient id="Degradado_sin_nombre_3-8" x1="652.44" y1="832.76" x2="662.39" y2="850.01" gradientTransform="matrix(-0.83, -0.55, 0.55, -0.83, 102.29, 1127.73)" xlink:href="#Degradado_sin_nombre_3"/><linearGradient id="Degradado_sin_nombre_3-9" x1="-759.16" y1="593.08" x2="-737.58" y2="555.71" gradientTransform="matrix(-0.08, 1, 1, 0.08, -532.69, 779.31)" xlink:href="#Degradado_sin_nombre_3"/><linearGradient id="Degradado_sin_nombre_3-10" x1="1032.73" y1="587.27" x2="1042.98" y2="569.51" gradientTransform="matrix(0.83, -0.55, -0.55, -0.83, -425.48, 1127.73)" xlink:href="#Degradado_sin_nombre_3"/><linearGradient id="Degradado_sin_nombre_3-11" x1="1037.7" y1="578.71" x2="1044.52" y2="590.52" gradientTransform="matrix(0.83, -0.55, -0.55, -0.83, -425.48, 1127.73)" xlink:href="#Degradado_sin_nombre_3"/><linearGradient id="Degradado_sin_nombre_3-12" x1="1032.5" y1="581.78" x2="1042.46" y2="599.03" gradientTransform="matrix(0.83, -0.55, -0.55, -0.83, -425.48, 1127.73)" xlink:href="#Degradado_sin_nombre_3"/><linearGradient id="Degradado_sin_nombre_3-13" x1="65.69" y1="119.82" x2="65.69" y2="73.94" gradientTransform="matrix(1, 0, 0, 1, 0, 0)" xlink:href="#Degradado_sin_nombre_3"/><linearGradient id="Degradado_sin_nombre_3-14" x1="66.77" y1="32.27" x2="66.77" y2="9.09" gradientTransform="matrix(1, 0, 0, 1, 0, 0)" xlink:href="#Degradado_sin_nombre_3"/><linearGradient id="Degradado_sin_nombre_3-15" x1="110.79" y1="37.85" x2="110.79" y2="0" gradientTransform="matrix(1, 0, 0, 1, 0, 0)" xlink:href="#Degradado_sin_nombre_3"/><linearGradient id="Degradado_sin_nombre_3-16" x1="23.23" y1="37.85" x2="23.23" y2="0" gradientTransform="matrix(1, 0, 0, 1, 0, 0)" xlink:href="#Degradado_sin_nombre_3"/><linearGradient id="Degradado_sin_nombre_3-17" x1="65.52" y1="51.22" x2="65.52" y2="7" gradientTransform="matrix(1, 0, 0, 1, 0, 0)" xlink:href="#Degradado_sin_nombre_3"/></defs><g style="isolation:isolate"><g id="Layer_2" data-name="Layer 2"><g id="OBJECTS"><path d="M107.18,141.12l-.08,0-.79-.4,0,0c-.26-.13-.54-.25-.84-.38l-.24-.1c-.33-.14-.67-.28-1.05-.42l-.16-.07h0A36.59,36.59,0,0,1,83.7,120.53a34.68,34.68,0,0,1-3-14.09L54.32,88.13c-.11.53-.23,1.05-.33,1.58a45.18,45.18,0,0,0-.25,15.51,44.45,44.45,0,0,0,6,16.26,43.63,43.63,0,0,0,11.51,12.41c.65.47,1.31.91,2,1.34l.58.35c.5.31,1,.6,1.51.89l.61.34c.54.29,1.08.56,1.63.83l.48.24a41.77,41.77,0,0,0,8.24,2.88,13.25,13.25,0,0,0,4.62.34c1.34.46,2.7.86,4.08,1.19a14,14,0,0,0,4.3.37c1.22.4,2.44.76,3.68,1.05C107.52,144.79,111.93,143.71,107.18,141.12Z" style="fill:url(#Degradado_sin_nombre_3)"/><path d="M72.65,126.22l.68,0c.58,0,1.17,0,1.75-.08l.69-.05c.61,0,1.22-.12,1.82-.19l.54-.07a42.11,42.11,0,0,0,7.4-1.73,33.09,33.09,0,0,1-1.83-3.55A34.35,34.35,0,0,1,81.15,112,35,35,0,0,1,63.19,98l-10-.28a44.41,44.41,0,0,0,6.53,23.75c.75,1.21,1.56,2.39,2.42,3.52a43.11,43.11,0,0,0,8.12,1.18C71.07,126.21,71.86,126.22,72.65,126.22Z" style="fill:#249297;opacity:0.54;mix-blend-mode:multiply"/><path d="M109.35,168.28s2.37-11.91,20.42-19.1c0,0-10.43-10.05-7.42-27,0,0-25.3,11.53-27,16S109.35,168.28,109.35,168.28Z" style="fill:#f6ce2e"/><path d="M110.92,144.36c.74-2,6.08-5.29,11.81-8.41a32.88,32.88,0,0,1-.38-13.75s-25.3,11.53-27,16,14,30.13,14,30.13,1-4.85,6.35-10.22C112.66,152.05,110.2,146.25,110.92,144.36Z" style="fill:#f6ce2e;opacity:0.79;mix-blend-mode:multiply"/><path d="M112.59,164.9,97.51,137.42a3.73,3.73,0,0,0-5.05-1.51h0A3.73,3.73,0,0,0,91,141L106,168.44a3.74,3.74,0,0,0,5,1.51h0A3.74,3.74,0,0,0,112.59,164.9Z" style="fill:url(#Degradado_sin_nombre_3-2)"/><path d="M128.57,145l-33.42-9.75a3.74,3.74,0,0,0-4.64,2.5h0a3.74,3.74,0,0,0,2.5,4.64l33.42,9.74a3.74,3.74,0,0,0,4.64-2.5h0A3.73,3.73,0,0,0,128.57,145Z" style="fill:url(#Degradado_sin_nombre_3-3)"/><path d="M118.81,121,92.55,135.61a3.74,3.74,0,0,0-1.51,5h0a3.74,3.74,0,0,0,5,1.51l26.26-14.63a3.74,3.74,0,0,0,1.51-5.05h0A3.74,3.74,0,0,0,118.81,121Z" style="fill:url(#Degradado_sin_nombre_3-4)"/><path d="M50.54,86.68a5,5,0,0,0,4.55-5.34l0-.23a5,5,0,0,0-5.34-4.55l-16.41,1.3L21.47,67.76a5,5,0,0,0-7,.55l-.15.18a5,5,0,0,0,.55,7L28.33,86.94a4.9,4.9,0,0,0,3.88,1.13,4.21,4.21,0,0,0,.71,0Z" style="fill:url(#Degradado_sin_nombre_3-5)"/><path d="M50.54,86.68a5,5,0,0,0,4.55-5.34l0-.23a5,5,0,0,0-5.34-4.55L47,76.78a5,5,0,0,1-4.2,3.11l-17.61,1.4a5.61,5.61,0,0,1-.71,0,5,5,0,0,1-3.89-1.13l-6.46-5.51a5,5,0,0,0,.76.83L28.33,86.94a4.9,4.9,0,0,0,3.88,1.13,4.21,4.21,0,0,0,.71,0Z" style="fill:#30c2c9;opacity:0.43;mix-blend-mode:multiply"/><path d="M1.34,75.37s4.15-5.15.85-15.2a16.94,16.94,0,0,0,13.86-6.32s4,14.59,2.75,16.84S1.34,75.37,1.34,75.37Z" style="fill:#f6ce2e"/><path d="M16.05,53.85a18.49,18.49,0,0,1-4.77,4c.74,3.6,1.26,7.19.69,8.21s-4.57,2.18-8.58,3a12.2,12.2,0,0,1-2,6.21s16.2-2.43,17.46-4.68S16.05,53.85,16.05,53.85Z" style="fill:#f6ce2e;opacity:0.79;mix-blend-mode:multiply"/><path d="M1.62,72.84l16.74-3.3a2,2,0,0,1,2.4,1.58h0a2,2,0,0,1-1.58,2.39L2.43,76.81A2,2,0,0,1,0,75.23H0A2,2,0,0,1,1.62,72.84Z" style="fill:url(#Degradado_sin_nombre_3-6)"/><path d="M4.36,59.21,20.1,69.76a2,2,0,0,1,.57,2.81h0a2,2,0,0,1-2.81.58L2.12,62.59a2,2,0,0,1-.57-2.81h0A2,2,0,0,1,4.36,59.21Z" style="fill:url(#Degradado_sin_nombre_3-7)"/><path d="M17.79,54.9,20.85,71a2,2,0,0,1-1.58,2.39h0a2,2,0,0,1-2.39-1.58L13.81,55.71a2,2,0,0,1,1.58-2.39h0A2,2,0,0,1,17.79,54.9Z" style="fill:url(#Degradado_sin_nombre_3-8)"/><path d="M46.63,78h0a1,1,0,0,1,.93-1.09h0a1,1,0,0,1,1.08.93h0A1,1,0,0,1,47.72,79h0A1,1,0,0,1,46.63,78Z" style="fill:#30c2c9;opacity:0.43;mix-blend-mode:multiply"/><path d="M44.88,82.66l-.15-1.9a1.29,1.29,0,0,1,1.18-1.39h0a1.3,1.3,0,0,1,1.39,1.19l.15,1.9a1.3,1.3,0,0,1-1.18,1.39h0A1.3,1.3,0,0,1,44.88,82.66Z" style="fill:#30c2c9;opacity:0.43;mix-blend-mode:multiply"/><path d="M42.71,79.93l-.09-1.18a.51.51,0,0,1,.46-.54h0a.5.5,0,0,1,.53.46l.1,1.18a.52.52,0,0,1-.46.54h0A.5.5,0,0,1,42.71,79.93Z" style="fill:#30c2c9;opacity:0.43;mix-blend-mode:multiply"/><path d="M81.72,86.68a5,5,0,0,1-4.55-5.34l0-.23a5,5,0,0,1,5.34-4.55l16.41,1.3,11.85-10.1a5,5,0,0,1,7,.55l.15.18a5,5,0,0,1-.55,7L103.93,86.94a4.9,4.9,0,0,1-3.88,1.13,4.21,4.21,0,0,1-.71,0Z" style="fill:url(#Degradado_sin_nombre_3-9)"/><path d="M81.72,86.68a5,5,0,0,1-4.55-5.34l0-.23a5,5,0,0,1,5.34-4.55l2.74.22a5,5,0,0,0,4.2,3.11l17.62,1.4a5.45,5.45,0,0,0,.7,0,5,5,0,0,0,3.89-1.13l6.46-5.51a5,5,0,0,1-.76.83L103.93,86.94a4.9,4.9,0,0,1-3.88,1.13,4.21,4.21,0,0,1-.71,0Z" style="fill:#30c2c9;opacity:0.43;mix-blend-mode:multiply"/><path d="M130.92,75.37s-4.15-5.15-.85-15.2a16.94,16.94,0,0,1-13.86-6.32s-4,14.59-2.75,16.84S130.92,75.37,130.92,75.37Z" style="fill:#f6ce2e"/><path d="M122.31,65c-.47-.83-.21-3.36.3-6.22a17.74,17.74,0,0,1-6.4-4.88s-4,14.59-2.75,16.84,17.46,4.68,17.46,4.68-2.13-2.65-2.12-7.85C125.59,66.74,122.8,65.83,122.31,65Z" style="fill:#f6ce2e;opacity:0.79;mix-blend-mode:multiply"/><path d="M130.64,72.84l-16.74-3.3a2,2,0,0,0-2.4,1.58h0a2,2,0,0,0,1.58,2.39l16.75,3.3a2,2,0,0,0,2.39-1.58h0A2,2,0,0,0,130.64,72.84Z" style="fill:url(#Degradado_sin_nombre_3-10)"/><path d="M127.9,59.21,112.16,69.76a2,2,0,0,0-.57,2.81h0a2,2,0,0,0,2.81.58l15.74-10.56a2,2,0,0,0,.57-2.81h0A2,2,0,0,0,127.9,59.21Z" style="fill:url(#Degradado_sin_nombre_3-11)"/><path d="M114.47,54.9,111.41,71A2,2,0,0,0,113,73.37h0a2,2,0,0,0,2.39-1.58l3.07-16.08a2,2,0,0,0-1.58-2.39h0A2,2,0,0,0,114.47,54.9Z" style="fill:url(#Degradado_sin_nombre_3-12)"/><path d="M85.63,78h0a1,1,0,0,0-.93-1.09h0a1,1,0,0,0-1.08.93h0A1,1,0,0,0,84.54,79h0A1,1,0,0,0,85.63,78Z" style="fill:#30c2c9;opacity:0.43;mix-blend-mode:multiply"/><path d="M87.38,82.66l.15-1.9a1.29,1.29,0,0,0-1.18-1.39h0A1.3,1.3,0,0,0,85,80.56l-.15,1.9A1.3,1.3,0,0,0,86,83.85h0A1.3,1.3,0,0,0,87.38,82.66Z" style="fill:#30c2c9;opacity:0.43;mix-blend-mode:multiply"/><path d="M89.55,79.93l.09-1.18a.51.51,0,0,0-.46-.54h0a.5.5,0,0,0-.53.46l-.1,1.18a.52.52,0,0,0,.46.54h0A.5.5,0,0,0,89.55,79.93Z" style="fill:#30c2c9;opacity:0.43;mix-blend-mode:multiply"/><ellipse cx="65.69" cy="96.88" rx="34.48" ry="22.94" style="fill:url(#Degradado_sin_nombre_3-13)"/><path d="M48.32,28.34c.4.38.78.78,1.15,1.18A28.85,28.85,0,0,1,52.1,28.3Z" style="fill:#30c2c9"/><path d="M79.58,28a38.65,38.65,0,0,0-27.48.27,28.85,28.85,0,0,0-2.63,1.22,34.74,34.74,0,0,1,5.19,7.26A38.3,38.3,0,0,1,65.9,35,38.8,38.8,0,0,1,76,36.24a34.89,34.89,0,0,1,5.29-7.47c.23-.26.46-.51.71-.76Z" style="fill:#37e2e9"/><path d="M66,44.4a38.6,38.6,0,0,1,6.88.53A34.45,34.45,0,0,1,76,36.24,38.8,38.8,0,0,0,65.9,35a38.3,38.3,0,0,0-11.24,1.76,35.14,35.14,0,0,1,3.2,8.54A39.39,39.39,0,0,1,66,44.4Z" style="fill:#fe306e"/><path d="M76.4,69.27A39.11,39.11,0,0,1,66.25,70.7a38,38,0,0,1-11.32-1.56,34.63,34.63,0,0,1-5.07,7.34q1.19.6,2.46,1.11a38.76,38.76,0,0,0,28-.27c.53-.22,1-.46,1.54-.7A35.35,35.35,0,0,1,76.4,69.27Z" style="fill:#fe306e"/><path d="M58,60.55a34.4,34.4,0,0,1-3,8.59A38,38,0,0,0,66.25,70.7,39.11,39.11,0,0,0,76.4,69.27a34.86,34.86,0,0,1-3.35-8.61,39.46,39.46,0,0,1-6.89.66A38.7,38.7,0,0,1,58,60.55Z" style="fill:#37e2e9"/><path d="M72.08,51.43a40.36,40.36,0,0,1-6,.51,39.11,39.11,0,0,1-7.36-.61A34.83,34.83,0,0,1,58,60.55a38.7,38.7,0,0,0,8.18.77,39.46,39.46,0,0,0,6.89-.66A35,35,0,0,1,72.08,51.43Z" style="fill:#fe306e"/><path d="M57.86,45.32a34.94,34.94,0,0,1,.85,6,39.11,39.11,0,0,0,7.36.61,40.36,40.36,0,0,0,6-.51,34.79,34.79,0,0,1,.8-6.5A38.6,38.6,0,0,0,66,44.4,39.39,39.39,0,0,0,57.86,45.32Z" style="fill:#37e2e9"/><path d="M84,114.77c-19,0-34.48-10.28-34.48-23,0-5.17,2.58-9.95,6.93-13.78,2-.34,6.87-7.22,7.78-9a34.83,34.83,0,0,0,3.06-8.59,34.72,34.72,0,0,0-.13-15.23,34.52,34.52,0,0,0-8.39-15.8c-.37-.4-.75-.8-1.15-1.18l3.78,0a35.87,35.87,0,0,1,9.08-2.33,41.58,41.58,0,0,0-4.65-.24A37.32,37.32,0,0,0,52.1,28.3l-3.78,0c.4.38.78.78,1.15,1.18a34.74,34.74,0,0,1,5.19,7.26,34.91,34.91,0,0,1,4.05,14.55A34.83,34.83,0,0,1,58,60.55a34.35,34.35,0,0,1-8.12,15.93h0C38.79,80.3,31.21,88,31.21,96.88c0,12.67,15.44,22.94,34.48,22.94a46.12,46.12,0,0,0,21.82-5.17C86.35,114.73,85.17,114.77,84,114.77Z" style="fill:#249297;opacity:0.54;mix-blend-mode:multiply"/><rect x="23.25" y="9.09" width="87.05" height="23.18" rx="7.87" style="fill:url(#Degradado_sin_nombre_3-14)"/><path d="M24.47,25.62V18.19a7.9,7.9,0,0,1,7.87-7.88h71.3a7.86,7.86,0,0,1,4.92,1.74,7.89,7.89,0,0,0-6.14-3H31.12A7.89,7.89,0,0,0,23.25,17V24.4a7.85,7.85,0,0,0,3,6.13A7.81,7.81,0,0,1,24.47,25.62Z" style="fill:#aff3f6"/><path d="M102.42,24.92H31.12a7.89,7.89,0,0,1-7.87-7.87V24.4a7.89,7.89,0,0,0,7.87,7.87h71.3a7.89,7.89,0,0,0,7.87-7.87V17.05A7.89,7.89,0,0,1,102.42,24.92Z" style="fill:#30c2c9;opacity:0.43;mix-blend-mode:multiply"/><rect x="102.22" width="17.13" height="37.85" rx="7.87" style="fill:url(#Degradado_sin_nombre_3-15)"/><path d="M111.48,0H110.1a7.9,7.9,0,0,0-7.88,7.87v2.9A7.9,7.9,0,0,1,110.1,2.9h1.38a7.89,7.89,0,0,1,7.87,7.87V7.87A7.89,7.89,0,0,0,111.48,0Z" style="fill:#aff3f6"/><rect x="14.67" width="17.13" height="37.85" rx="7.87" style="fill:url(#Degradado_sin_nombre_3-16)"/><path d="M23.92,0H22.54a7.89,7.89,0,0,0-7.87,7.87V10a7.89,7.89,0,0,1,7.87-7.87h1.38A7.89,7.89,0,0,1,31.79,10V7.87A7.89,7.89,0,0,0,23.92,0Z" style="fill:#aff3f6"/><path d="M111.48,29.69H110.1a7.9,7.9,0,0,1-7.88-7.87V30a7.9,7.9,0,0,0,7.88,7.87h1.38A7.89,7.89,0,0,0,119.35,30V21.82A7.89,7.89,0,0,1,111.48,29.69Z" style="fill:#30c2c9;opacity:0.43;mix-blend-mode:multiply"/><path d="M23.92,29.69H22.54a7.89,7.89,0,0,1-7.87-7.87V30a7.89,7.89,0,0,0,7.87,7.87h1.38A7.89,7.89,0,0,0,31.79,30V21.82A7.89,7.89,0,0,1,23.92,29.69Z" style="fill:#30c2c9;opacity:0.43;mix-blend-mode:multiply"/><ellipse cx="16.6" cy="18.92" rx="7.53" ry="12.24" style="fill:#1c7175"/><path d="M16.6,24.74c-3.47,0-6.39-3.83-7.26-9a19.67,19.67,0,0,0-.27,3.21c0,6.76,3.37,12.24,7.53,12.24s7.52-5.48,7.52-12.24a19.67,19.67,0,0,0-.27-3.21C23,20.91,20.07,24.74,16.6,24.74Z" style="fill:#30c2c9;opacity:0.43;mix-blend-mode:multiply"/><ellipse cx="13.08" cy="19.36" rx="7.86" ry="9.3" style="fill:#f6ce2e"/><path d="M7.16,19.15c0,2.77.93,5.68,2.08,6.51s2.07-2.09,2.07-6.51-.93-7.34-2.07-6.51S7.16,16.38,7.16,19.15Z" style="fill:#37e2e9"/><path d="M7.56,19.15c0,2.24.75,4.59,1.68,5.26s1.67-1.69,1.67-5.26-.75-5.92-1.67-5.25S7.56,16.92,7.56,19.15Z" style="fill:#0e393a"/><path d="M9.54,18.15a.75.75,0,0,0,.68.8.82.82,0,0,0,0-1.61A.75.75,0,0,0,9.54,18.15Z" style="fill:#fff"/><path d="M7.45,25.84c-.12-.15-.24-.3-.36-.47l-.22-.32-.17-.27c-.07-.12-.14-.23-.2-.35s-.19-.35-.28-.53h0a10.57,10.57,0,0,1-1-4.54c0-4.09,2.22-7.55,5.32-8.8a10.12,10.12,0,0,0-2.49,6.78,10,10,0,0,0,3,7.27c3.64-.82,6.39-4.59,6.39-9.13a10.62,10.62,0,0,0-1-4.55,9.53,9.53,0,0,1,4.54,8.43,9.77,9.77,0,0,1-3.63,7.82h0c-.2.15-.4.29-.61.42l-.06,0c-.19.12-.39.23-.59.33L15.9,28l-.56.23-.23.07-.49.14-.39.07-.37.07a6.51,6.51,0,0,1-.77,0h0a5.79,5.79,0,0,1-.72,0l-.18,0q-.31,0-.63-.12h-.07a4.88,4.88,0,0,1-.65-.2l-.2-.07-.5-.22A.61.61,0,0,1,10,27.9a4,4,0,0,1-.57-.32l-.21-.14a3.28,3.28,0,0,1-.38-.27L8.63,27c-.16-.13-.31-.27-.46-.41s-.16-.15-.23-.23a3.45,3.45,0,0,1-.26-.28C7.6,26,7.53,25.93,7.45,25.84Z" style="fill:#f6ce2e;opacity:0.79;mix-blend-mode:multiply"/><circle cx="8.33" cy="15.14" r="1.32" style="fill:#fff"/><ellipse cx="116.38" cy="18.92" rx="7.53" ry="12.24" style="fill:#1c7175"/><path d="M116.38,24.74c3.48,0,6.39-3.83,7.26-9a19.67,19.67,0,0,1,.27,3.21c0,6.76-3.37,12.24-7.53,12.24s-7.52-5.48-7.52-12.24a19.67,19.67,0,0,1,.27-3.21C110,20.91,112.91,24.74,116.38,24.74Z" style="fill:#30c2c9;opacity:0.43;mix-blend-mode:multiply"/><ellipse cx="119.9" cy="19.36" rx="7.86" ry="9.3" style="fill:#f6ce2e"/><path d="M125.82,19.15c0,2.77-.93,5.68-2.07,6.51s-2.08-2.09-2.08-6.51.93-7.34,2.08-6.51S125.82,16.38,125.82,19.15Z" style="fill:#37e2e9"/><path d="M125.42,19.15c0,2.24-.75,4.59-1.67,5.26s-1.68-1.69-1.68-5.26.75-5.92,1.68-5.25S125.42,16.92,125.42,19.15Z" style="fill:#0e393a"/><path d="M123.44,18.15a.69.69,0,1,1-.68-.81A.75.75,0,0,1,123.44,18.15Z" style="fill:#fff"/><path d="M125.53,25.84c.12-.15.24-.3.36-.47a3.62,3.62,0,0,0,.22-.32c.06-.09.12-.18.17-.27l.21-.35.27-.53h0a10.58,10.58,0,0,0,1-4.54c0-4.09-2.23-7.55-5.33-8.8a10.13,10.13,0,0,1,2.5,6.78,10,10,0,0,1-3,7.27c-3.64-.82-6.39-4.59-6.39-9.13a10.76,10.76,0,0,1,1-4.55A9.53,9.53,0,0,0,112,19.36a9.77,9.77,0,0,0,3.63,7.82h0c.2.15.4.29.61.42l.06,0a5.76,5.76,0,0,0,.6.33l.13.06.56.23.24.07.48.14.39.07.37.07a6.51,6.51,0,0,0,.77,0h0a5.79,5.79,0,0,0,.72,0l.18,0q.32,0,.63-.12h.07a4.88,4.88,0,0,0,.65-.2l.2-.07.5-.22.15-.07a4.48,4.48,0,0,0,.56-.32l.22-.14a4.33,4.33,0,0,0,.37-.27l.2-.15.47-.41.23-.23c.08-.09.17-.18.25-.28A2.85,2.85,0,0,0,125.53,25.84Z" style="fill:#f6ce2e;opacity:0.79;mix-blend-mode:multiply"/><circle cx="124.66" cy="15.14" r="1.32" style="fill:#fff"/><path d="M79.32,43.42H67.92V43.3h-4.8v.12H51.72a1.49,1.49,0,0,1-1.41-1.08L57,17.4l.14-.56v-.58a1.49,1.49,0,0,1,1.47-1.46H72.48A1.48,1.48,0,0,1,74,16.26v.58l.15.56,6.64,24.94A1.49,1.49,0,0,1,79.32,43.42Z" style="fill:#155558"/><circle cx="65.52" cy="30.8" r="6.67" style="fill:#0e393b"/><path d="M58.55,14.18H61a.47.47,0,0,1,.45.59L60.1,20.14,59,24.36a.47.47,0,0,1-.9,0L57,20.14l-1.39-5.37a.47.47,0,0,1,.45-.59Z" style="fill:#fcedb6"/><ellipse cx="65.89" cy="38.8" rx="10.78" ry="8" style="fill:#1c7175"/><path d="M72.52,44.86H70a.47.47,0,0,1-.46-.58L71,38.91l1.1-4.22a.46.46,0,0,1,.9,0l1.09,4.22,1.4,5.37a.47.47,0,0,1-.45.58Z" style="fill:#fcedb6"/><path d="M77.16,44.86H74.67a.46.46,0,0,1-.45-.58l1.39-5.37,1.1-4.22a.46.46,0,0,1,.9,0l1.1,4.22,1.39,5.37a.46.46,0,0,1-.45.58Z" style="fill:#fcedb6"/><path d="M67.86,44.86H65.37a.46.46,0,0,1-.45-.58l1.39-5.37,1.1-4.22a.46.46,0,0,1,.9,0l1.1,4.22,1.39,5.37a.46.46,0,0,1-.45.58Z" style="fill:#fcedb6"/><path d="M63.2,44.86H60.71a.47.47,0,0,1-.45-.58l1.4-5.37,1.09-4.22a.47.47,0,0,1,.91,0l1.09,4.22,1.4,5.37a.47.47,0,0,1-.45.58Z" style="fill:#fcedb6"/><path d="M58.55,44.86H56.06a.46.46,0,0,1-.45-.58L57,38.91l1.1-4.22a.46.46,0,0,1,.9,0l1.1,4.22,1.39,5.37a.46.46,0,0,1-.45.58Z" style="fill:#fcedb6"/><path d="M53.79,44.86h-2.5a.47.47,0,0,1-.45-.58l1.4-5.37,1.09-4.22a.47.47,0,0,1,.91,0l1.09,4.22,1.4,5.37a.47.47,0,0,1-.45.58Z" style="fill:#fcedb6"/><path d="M74.54,44.56l-.48-1.83L73,38.51a.47.47,0,0,0-.9,0L71,42.73l-.47,1.83Z" style="fill:#eed473"/><path d="M79.18,44.56l-.47-1.83-1.1-4.22a.47.47,0,0,0-.9,0l-1.1,4.22-.47,1.83Z" style="fill:#eed473"/><path d="M69.88,44.56l-.47-1.83-1.1-4.22a.47.47,0,0,0-.9,0l-1.1,4.22-.47,1.83Z" style="fill:#eed473"/><path d="M65.23,44.56l-.48-1.83-1.09-4.22a.47.47,0,0,0-.91,0l-1.09,4.22-.48,1.83Z" style="fill:#eed473"/><path d="M60.57,44.56l-.47-1.83L59,38.51a.47.47,0,0,0-.9,0L57,42.73l-.47,1.83Z" style="fill:#eed473"/><path d="M55.81,44.56l-.48-1.83-1.09-4.22a.47.47,0,0,0-.91,0l-1.09,4.22-.48,1.83Z" style="fill:#eed473"/><path d="M63.2,14.18h2.5a.47.47,0,0,1,.45.59l-1.4,5.37-1.09,4.22a.47.47,0,0,1-.91,0l-1.09-4.22-1.4-5.37a.47.47,0,0,1,.45-.59Z" style="fill:#fcedb6"/><path d="M63.2,14.18h2.5a.47.47,0,0,1,.45.59l-1.4,5.37-1.09,4.22a.47.47,0,0,1-.91,0l-1.09-4.22-1.4-5.37a.47.47,0,0,1,.45-.59Z" style="fill:#fcedb6"/><path d="M61.33,14.18l.33,1.26,1.09,4.22a.47.47,0,0,0,.91,0l1.09-4.22.33-1.26H61.33Z" style="fill:#eed473"/><path d="M56.67,14.18,57,15.44l1.1,4.22a.46.46,0,0,0,.9,0l1.1-4.22.32-1.26H56.67Z" style="fill:#eed473"/><path d="M67.86,14.18h2.49a.47.47,0,0,1,.45.59l-1.39,5.37-1.1,4.22a.47.47,0,0,1-.9,0l-1.1-4.22-1.39-5.37a.47.47,0,0,1,.45-.59Z" style="fill:#fcedb6"/><path d="M66.09,14.18l.33,1.26,1.09,4.22a.47.47,0,0,0,.91,0l1.09-4.22.33-1.26H66.09Z" style="fill:#eed473"/><path d="M72.52,14.18H75a.47.47,0,0,1,.45.59l-1.4,5.37L73,24.36a.47.47,0,0,1-.9,0L71,20.14l-1.4-5.37a.48.48,0,0,1,.46-.59Z" style="fill:#fcedb6"/><path d="M80.68,13.93A7,7,0,0,0,73.75,7H57.3a7,7,0,0,0-6.93,6.93L42.29,44.29a6.94,6.94,0,0,0,6.92,6.93H81.83a7,7,0,0,0,6.93-6.93ZM81.83,46H68.36v-.14H62.68V46H49.21a1.77,1.77,0,0,1-1.67-1.28l7.85-29.47.17-.66v-.68A1.76,1.76,0,0,1,57.3,12.2H73.75a1.75,1.75,0,0,1,1.73,1.73v.68l.18.66L83.5,44.74A1.75,1.75,0,0,1,81.83,46Z" style="fill:url(#Degradado_sin_nombre_3-17)"/><path d="M50.37,14.65A6.94,6.94,0,0,1,57.3,7.73H73.75a6.94,6.94,0,0,1,6.93,6.92l8,30.25a6.08,6.08,0,0,0,0-.61L80.68,13.93A7,7,0,0,0,73.75,7H57.3a7,7,0,0,0-6.93,6.93L42.29,44.29a6.08,6.08,0,0,0,0,.61Z" style="fill:#aff3f6"/><path d="M49.21,46.75H62.68v-.14h5.68v.14H81.83a1.76,1.76,0,0,0,1.67-1.29L83.39,45a1.76,1.76,0,0,1-1.56,1H68.36v-.14H62.68V46H49.21a1.74,1.74,0,0,1-1.55-1l-.12.43A1.78,1.78,0,0,0,49.21,46.75Z" style="fill:#aff3f6"/><path d="M70.64,14.18,71,15.44l1.1,4.22a.46.46,0,0,0,.9,0l1.09-4.22.33-1.26H70.64Z" style="fill:#eed473"/><path d="M78.35,16.26a5.88,5.88,0,0,0-5.87-5.86H58.56a5.88,5.88,0,0,0-5.86,5.86L45.86,42a5.88,5.88,0,0,0,5.86,5.86h27.6A5.88,5.88,0,0,0,85.19,42Zm1,27.16H67.92V43.3h-4.8v.12H51.72a1.49,1.49,0,0,1-1.41-1.08L57,17.4l.14-.56v-.58a1.49,1.49,0,0,1,1.47-1.46H72.48A1.48,1.48,0,0,1,74,16.26v.58l.15.56,6.64,24.94A1.49,1.49,0,0,1,79.32,43.42Z" style="fill:#f6ce2e"/><path d="M72.48,13.78H58.56a5.88,5.88,0,0,0-5.86,5.86L46.22,44a5.88,5.88,0,0,0,5.5,3.85h27.6A5.87,5.87,0,0,0,84.82,44L78.35,19.64A5.88,5.88,0,0,0,72.48,13.78Zm8.26,31.93a1.49,1.49,0,0,1-1.42,1.09H67.92v-.12h-4.8v.12H51.72a1.49,1.49,0,0,1-1.41-1.09l.66-2.5a1.51,1.51,0,0,1-.66-.87L57,17.4l.14-.56v-.58a1.49,1.49,0,0,1,1.47-1.46H72.48A1.48,1.48,0,0,1,74,16.26v.58l.15.56,6.64,24.94a1.53,1.53,0,0,1-.67.87Z" style="fill:#f6ce2e;opacity:0.79;mix-blend-mode:multiply"/><path d="M66.4,12.55H57.75a.62.62,0,0,1-.62-.62h0a.62.62,0,0,1,.62-.62H66.4a.62.62,0,0,1,.62.62h0A.62.62,0,0,1,66.4,12.55Z" style="fill:#f3f69d"/><path d="M70.2,12.55H68.8a.62.62,0,0,1-.62-.62h0a.62.62,0,0,1,.62-.62h1.4a.62.62,0,0,1,.62.62h0A.62.62,0,0,1,70.2,12.55Z" style="fill:#f3f69d"/><path d="M61.28,45.48H52.62a.62.62,0,0,1-.61-.62h0a.62.62,0,0,1,.61-.62h8.66a.61.61,0,0,1,.61.62h0A.61.61,0,0,1,61.28,45.48Z" style="fill:#f3f69d"/><path d="M65.08,45.48H63.67a.62.62,0,0,1-.62-.62h0a.62.62,0,0,1,.62-.62h1.41a.62.62,0,0,1,.61.62h0A.62.62,0,0,1,65.08,45.48Z" style="fill:#f3f69d"/></g></g></g></svg>