<svg xmlns="http://www.w3.org/2000/svg" xmlns:xlink="http://www.w3.org/1999/xlink" viewBox="0 0 244.75 154.39"><defs><linearGradient id="Degradado_sin_nombre_64" x1="217.72" y1="47.69" x2="192.26" y2="91.79" gradientUnits="userSpaceOnUse"><stop offset="0.06" stop-color="#ff2a99"/><stop offset="0.07" stop-color="#fc2a97"/><stop offset="0.12" stop-color="#e6268a"/><stop offset="0.19" stop-color="#d42380"/><stop offset="0.26" stop-color="#c82178"/><stop offset="0.36" stop-color="#c12074"/><stop offset="0.62" stop-color="#bf2073"/><stop offset="0.81" stop-color="#80154d"/></linearGradient><linearGradient id="Degradado_sin_nombre_63" x1="22.13" y1="47.69" x2="47.59" y2="91.79" gradientUnits="userSpaceOnUse"><stop offset="0.06" stop-color="#ff2a99"/><stop offset="0.07" stop-color="#fc2a97"/><stop offset="0.12" stop-color="#e6268a"/><stop offset="0.17" stop-color="#d42380"/><stop offset="0.24" stop-color="#c82178"/><stop offset="0.34" stop-color="#c12074"/><stop offset="0.57" stop-color="#bf2073"/><stop offset="0.78" stop-color="#861651"/><stop offset="0.96" stop-color="#80154d"/></linearGradient><linearGradient id="Degradado_sin_nombre_62" x1="217.55" x2="217.55" y2="59.64" gradientUnits="userSpaceOnUse"><stop offset="0.06" stop-color="#ff2a99"/><stop offset="0.21" stop-color="#f62994"/><stop offset="0.44" stop-color="#df2586"/><stop offset="0.69" stop-color="#bf2073"/><stop offset="0.96" stop-color="#861651"/></linearGradient><linearGradient id="Degradado_sin_nombre_62-2" x1="24.27" y1="0" x2="24.27" y2="59.64" xlink:href="#Degradado_sin_nombre_62"/><linearGradient id="Degradado_sin_nombre_61" x1="13.16" y1="130.33" x2="52.61" y2="90.89" gradientUnits="userSpaceOnUse"><stop offset="0.06" stop-color="#ff2a99"/><stop offset="0.07" stop-color="#fc2a97"/><stop offset="0.14" stop-color="#e6268a"/><stop offset="0.21" stop-color="#d42380"/><stop offset="0.3" stop-color="#c82178"/><stop offset="0.43" stop-color="#c12074"/><stop offset="0.74" stop-color="#bf2073"/><stop offset="0.96" stop-color="#80154d"/></linearGradient><linearGradient id="Degradado_sin_nombre_61-2" x1="24.57" y1="129.81" x2="63.07" y2="91.31" xlink:href="#Degradado_sin_nombre_61"/><linearGradient id="Degradado_sin_nombre_61-3" x1="52.3" y1="135.12" x2="90.8" y2="96.62" xlink:href="#Degradado_sin_nombre_61"/><linearGradient id="Degradado_sin_nombre_61-4" x1="55.7" y1="130.33" x2="95.15" y2="90.89" gradientTransform="matrix(-1, 0, 0, 1, 287.29, 0)" xlink:href="#Degradado_sin_nombre_61"/><linearGradient id="Degradado_sin_nombre_61-5" x1="67.11" y1="129.81" x2="105.62" y2="91.31" gradientTransform="matrix(-1, 0, 0, 1, 287.29, 0)" xlink:href="#Degradado_sin_nombre_61"/><linearGradient id="Degradado_sin_nombre_61-6" x1="94.84" y1="135.12" x2="133.34" y2="96.62" gradientTransform="matrix(-1, 0, 0, 1, 287.29, 0)" xlink:href="#Degradado_sin_nombre_61"/></defs><g style="isolation:isolate"><g id="Layer_2" data-name="Layer 2"><g id="OBJECTS"><path d="M188.59,88.84a5.38,5.38,0,1,1,0-10.76,24,24,0,0,0,24-24,5.38,5.38,0,0,1,10.76,0A34.82,34.82,0,0,1,188.59,88.84Z" style="fill:url(#Degradado_sin_nombre_64)"/><path d="M51.27,88.84A34.83,34.83,0,0,1,16.48,54.06a5.38,5.38,0,0,1,10.76,0,24,24,0,0,0,24,24,5.38,5.38,0,0,1,0,10.76Z" style="fill:url(#Degradado_sin_nombre_63)"/><path d="M241.77,27.62A29.53,29.53,0,0,0,214.45,0l-.32,0a4.48,4.48,0,0,0-3.2,7.8,29.33,29.33,0,0,1,1.95,41.07A21,21,0,0,1,201.93,26.5a2.06,2.06,0,0,0-3.58-1.68l-.14.16a21.09,21.09,0,0,0,31,28.49l0,0h0A29.34,29.34,0,0,0,241.77,27.62Z" style="fill:url(#Degradado_sin_nombre_62)"/><g style="opacity:0.54;mix-blend-mode:multiply"><path d="M198.31,24.86a21,21,0,0,0,6.07,16.88,19.71,19.71,0,0,0,1.76,1.55,21,21,0,0,1-4.21-16.79,2.06,2.06,0,0,0-3.58-1.68Z" style="fill:#249297;opacity:0.61"/><path d="M241.77,27.62A29.37,29.37,0,0,0,231.4,7,29.29,29.29,0,0,1,225.92,50l0,0,0,0a21.06,21.06,0,0,1-28,1.55c.28.35.55.71.86,1a21.08,21.08,0,0,0,30.57.8l0,0h0A29.34,29.34,0,0,0,241.77,27.62Z" style="fill:#249297;opacity:0.61"/></g><path d="M43.61,25l-.14-.16a2.06,2.06,0,0,0-3.58,1.68A21,21,0,0,1,28.94,48.88,29.33,29.33,0,0,1,30.89,7.81,4.48,4.48,0,0,0,27.69,0l-.32,0A29.39,29.39,0,0,0,12.52,53.41h0l0,0A21.09,21.09,0,0,0,43.61,25Z" style="fill:url(#Degradado_sin_nombre_62-2)"/><g style="opacity:0.54;mix-blend-mode:multiply"><path d="M39.43,35.94A21.14,21.14,0,0,0,42,24.11a2,2,0,0,0-2.1,2.39A21.22,21.22,0,0,1,39.43,35.94Z" style="fill:#249297;opacity:0.61"/><path d="M30.89,7.81a4.5,4.5,0,0,0,1.4-4.06A29.28,29.28,0,0,0,24.69,16,29.29,29.29,0,0,1,30.89,7.81Z" style="fill:#249297"/><path d="M45,48.19a21.08,21.08,0,0,1-30.57.8l0,0,0,0A29.35,29.35,0,0,1,1.89,23.14,28.68,28.68,0,0,1,3.2,16.06,29,29,0,0,0,.05,27.62,29.34,29.34,0,0,0,12.52,53.41h0l0,0a21.08,21.08,0,0,0,30.57-.8,20.77,20.77,0,0,0,4.61-8.4A20.2,20.2,0,0,1,45,48.19Z" style="fill:#249297;opacity:0.61"/></g><path d="M152.63,79.62a6,6,0,0,1-4.24-10.25,26.83,26.83,0,0,0,0-37.9A6,6,0,0,1,156.87,23a38.85,38.85,0,0,1,0,54.88A6,6,0,0,1,152.63,79.62Z" style="fill:#ff2a99"/><path d="M156.87,23a6,6,0,0,0-4.58-1.74,6,6,0,0,1,3.9,1.74,38.85,38.85,0,0,1,0,54.88,6,6,0,0,1-3.9,1.74l.34,0a6,6,0,0,0,4.24-1.76A38.85,38.85,0,0,0,156.87,23Z" style="fill:#ff7fc2"/><path d="M151,23a5.92,5.92,0,0,0-1.28-1,5.92,5.92,0,0,0-1.28,1,6,6,0,0,0,0,8.49,26.83,26.83,0,0,1,0,37.9,6,6,0,0,0,0,8.49,5.92,5.92,0,0,0,1.28,1,5.92,5.92,0,0,0,1.28-1A38.85,38.85,0,0,0,151,23Z" style="fill:#30c2c9;opacity:0.43;mix-blend-mode:multiply"/><circle cx="150.2" cy="23.26" r="11.68" transform="translate(70.85 152.89) rotate(-67.33)" style="fill:#ff2a99"/><circle cx="150.2" cy="23.26" r="10.07" style="fill:#4dff1d"/><path d="M145.16,23.26a5,5,0,1,0,5-5A5,5,0,0,0,145.16,23.26Z" style="fill:#0e393a"/><path d="M143.05,24.13a2.61,2.61,0,1,0,2.61-2.61A2.61,2.61,0,0,0,143.05,24.13Z" style="fill:#fff"/><path d="M150.2,29A10.07,10.07,0,0,0,160,21.11a10.07,10.07,0,1,1-19.67,0A10.08,10.08,0,0,0,150.2,29Z" style="fill:#39bf16"/><path d="M160.27,23.26a10.07,10.07,0,0,0-20.14,0Z" style="fill:#bf2073"/><path d="M142.58,14.41a11.4,11.4,0,0,0-.21,2.2,11.67,11.67,0,0,0,19.3,8.84,11.68,11.68,0,1,1-19.09-11Z" style="fill:#30c2c9;opacity:0.43;mix-blend-mode:multiply"/><path d="M90.48,79.62a6,6,0,0,1-4.25-1.76,38.85,38.85,0,0,1,0-54.88,6,6,0,0,1,8.49,8.49,26.83,26.83,0,0,0,0,37.9,6,6,0,0,1-4.24,10.25Z" style="fill:#ff2a99"/><path d="M94.72,31.47a6,6,0,0,0-5-10.19,6,6,0,0,1,3.5,10.19,26.83,26.83,0,0,0,0,37.9,6,6,0,0,1-3.5,10.2,6.3,6.3,0,0,0,.75.05,6,6,0,0,0,4.24-10.25A26.83,26.83,0,0,1,94.72,31.47Z" style="fill:#ff7fc2"/><path d="M92.26,77.86a38.85,38.85,0,0,1,0-54.88A6.17,6.17,0,0,1,93.49,22a6,6,0,0,0-7.26.94,38.85,38.85,0,0,0,0,54.88,6,6,0,0,0,7.26.94A5.51,5.51,0,0,1,92.26,77.86Z" style="fill:#30c2c9;opacity:0.43;mix-blend-mode:multiply"/><path d="M79.84,23.26A11.68,11.68,0,1,0,91.52,11.57,11.68,11.68,0,0,0,79.84,23.26Z" style="fill:#ff2a99"/><path d="M81.45,23.26A10.07,10.07,0,1,0,91.52,13.19,10.06,10.06,0,0,0,81.45,23.26Z" style="fill:#4dff1d"/><path d="M86.49,23.26a5,5,0,1,0,5-5A5,5,0,0,0,86.49,23.26Z" style="fill:#0e393a"/><path d="M84.38,24.13A2.61,2.61,0,1,0,87,21.52,2.6,2.6,0,0,0,84.38,24.13Z" style="fill:#fff"/><path d="M91.52,29a10.08,10.08,0,0,0,9.84-7.93,10.08,10.08,0,1,1-19.67,0A10.07,10.07,0,0,0,91.52,29Z" style="fill:#39bf16"/><path d="M101.59,23.26a10.07,10.07,0,0,0-20.14,0Z" style="fill:#bf2073"/><path d="M83.9,14.41a12.25,12.25,0,0,0-.21,2.2A11.67,11.67,0,0,0,103,25.45a11.68,11.68,0,1,1-19.09-11Z" style="fill:#30c2c9;opacity:0.43;mix-blend-mode:multiply"/><ellipse cx="122.47" cy="83.14" rx="73.94" ry="40.86" style="fill:#ff2a99"/><path d="M122.47,43.66c40.42,0,73.24,17.92,73.91,40.17,0-.23,0-.46,0-.69,0-22.57-33.11-40.86-73.94-40.86S48.53,60.57,48.53,83.14c0,.23,0,.46,0,.69C49.23,61.58,82.05,43.66,122.47,43.66Z" style="fill:#ff7fc2"/><path d="M174.89,78.94a4,4,0,0,1,4.13,4v.24c0,17.26-25.32,31.25-56.55,31.25s-56.55-14-56.55-31.25v-.24a4,4,0,0,1,4.13-4,4.16,4.16,0,0,1,3,1.24c9.66,9.59,28.18,16.07,49.44,16.07s39.78-6.48,49.43-16.07a4.2,4.2,0,0,1,3-1.24m0-4.75a8.93,8.93,0,0,0-6.33,2.62c-9.13,9.06-26.79,14.69-46.09,14.69s-37-5.63-46.09-14.69a8.93,8.93,0,0,0-6.33-2.62,8.76,8.76,0,0,0-8.88,8.68v.3c0,20.19,26.92,36,61.3,36s61.3-15.81,61.3-36v-.3a8.77,8.77,0,0,0-8.88-8.68Z" style="fill:#30c2c9;opacity:0.43;mix-blend-mode:multiply"/><path d="M122.47,100.24c-33.36,0-61.55-12.21-70.75-29a24.46,24.46,0,0,0-3.19,11.88c0,22.56,33.1,40.86,73.94,40.86s73.94-18.3,73.94-40.86a24.46,24.46,0,0,0-3.19-11.88C184,88,155.83,100.24,122.47,100.24Z" style="fill:#bf2073"/><path d="M122.47,118.29c-39.13,0-71.15-16.8-73.75-38.06a23.44,23.44,0,0,0-.19,2.91c0,22.56,33.1,40.86,73.94,40.86s73.94-18.3,73.94-40.86a23.44,23.44,0,0,0-.19-2.91C193.62,101.49,161.6,118.29,122.47,118.29Z" style="fill:#80154d"/><path d="M174.89,77.86a4,4,0,0,1,4.13,4v.24c0,17.26-25.32,31.25-56.55,31.25s-56.55-14-56.55-31.25v-.24a4,4,0,0,1,4.13-4,4.2,4.2,0,0,1,3,1.24c9.66,9.59,28.18,16.07,49.44,16.07s39.78-6.48,49.43-16.07a4.24,4.24,0,0,1,3-1.24m0-4.75a8.93,8.93,0,0,0-6.33,2.62c-9.13,9.06-26.79,14.69-46.09,14.69s-37-5.63-46.09-14.69a8.93,8.93,0,0,0-6.33-2.62,8.77,8.77,0,0,0-8.88,8.68v.3c0,20.19,26.92,36,61.3,36s61.3-15.81,61.3-36v-.3a8.77,8.77,0,0,0-8.88-8.68Z" style="fill:#80154d"/><path d="M122.47,93.43c-21.26,0-39.78-6.49-49.44-16.07a4.14,4.14,0,0,0-7.11,2.75v.24c0,17.25,25.32,31.25,56.55,31.25S179,97.6,179,80.35v-.24a4.14,4.14,0,0,0-7.12-2.75C162.25,86.94,143.73,93.43,122.47,93.43Z" style="fill:#05252d"/><path d="M130.05,95.54a3.42,3.42,0,0,0,6.8-.73l-.34-2.37q-3.24.47-6.63.71Z" style="fill:#ffe2b8"/><path d="M157.58,102.22a3.22,3.22,0,1,0-6,2.38l.78,2.27c2.16-.75,4.24-1.57,6.19-2.47Z" style="fill:#ffe2b8"/><path d="M144,106.8a3.24,3.24,0,1,0-6.37,1.23l.37,2.37c2.24-.36,4.43-.78,6.55-1.27Z" style="fill:#ffe2b8"/><path d="M136.9,108.14a3.26,3.26,0,1,0-6.47.74l.19,2.39c2.26-.18,4.47-.44,6.63-.76Z" style="fill:#ffe2b8"/><path d="M150.92,104.84a3.24,3.24,0,1,0-6.23,1.78l.57,2.33c2.21-.54,4.36-1.15,6.41-1.84Z" style="fill:#ffe2b8"/><path d="M176.11,84.13c-1,.07-1.88.3-2.52.33a1.41,1.41,0,0,1-.73-.07c-.06-.11-.19.09-.27.2a2.86,2.86,0,0,0-.24.42h0a2.66,2.66,0,0,0,.13,2,4.25,4.25,0,0,0,1.64,1.88l2.06,1.22A19.9,19.9,0,0,0,178.63,84Z" style="fill:#ffe2b8"/><path d="M163.81,98.85a3.54,3.54,0,0,0-2-1.51,3,3,0,0,0-2.33.2,3.37,3.37,0,0,0-1.25,4.37l1,2.17a53.85,53.85,0,0,0,5.84-3.21Z" style="fill:#ffe2b8"/><path d="M173.77,89.48a4,4,0,0,0-2.42-.62,3,3,0,0,0-1.07.27,2.29,2.29,0,0,0-.86.64,2.8,2.8,0,0,0-.58,2.11,3.85,3.85,0,0,0,1,2.28l1.66,1.72a27.9,27.9,0,0,0,4.26-5.12Z" style="fill:#ffe2b8"/><path d="M169.37,94.64a3.75,3.75,0,0,0-2.23-1.17,3,3,0,0,0-2.2.53,3.39,3.39,0,0,0-.53,4.47l1.31,2A40.54,40.54,0,0,0,171,96.4Z" style="fill:#ffe2b8"/><path d="M166.37,84.72a3.37,3.37,0,0,0,4.89.7,4.06,4.06,0,0,0,1-1.12c.2-.27.06-.29,0-.41a3.52,3.52,0,0,1-.17-.38c-.23-.59-.43-1.53-.76-2.44l-.92-2.35a43.22,43.22,0,0,1-5.33,4Z" style="fill:#ffe2b8"/><path d="M126,99.09a3.35,3.35,0,0,0,3.3-3.51l-.15-2.38c-2.19.14-4.41.23-6.67.23v2.39A3.35,3.35,0,0,0,126,99.09Z" style="fill:#ffe2b8"/><path d="M129.71,108.93a3.26,3.26,0,1,0-6.51.26v2.4q3.39,0,6.67-.27Z" style="fill:#ffe2b8"/><path d="M159.57,88.39a3.13,3.13,0,0,0,1.94,1.69,3.56,3.56,0,0,0,1.35.15,4,4,0,0,0,1.38-.43h0a3.35,3.35,0,0,0,1.47-4.68l-1.25-2a56.36,56.36,0,0,1-5.89,3.13Z" style="fill:#ffe2b8"/><path d="M145.08,93.28a3.35,3.35,0,0,0,4.22,2.36h0a3.35,3.35,0,0,0,2.4-4.2L151,89.16q-3.09,1-6.42,1.79Z" style="fill:#ffe2b8"/><path d="M137.61,94.71a3.42,3.42,0,0,0,6.72-1.27l-.52-2.33c-2.13.48-4.31.89-6.56,1.23Z" style="fill:#ffe2b8"/><path d="M152.43,91.21a3.45,3.45,0,0,0,6.44-2.5l-1-2.18q-3,1.32-6.22,2.41Z" style="fill:#ffe2b8"/><path d="M73.94,96.4l1.63-1.76a3.4,3.4,0,0,0,.33-4.41,2.63,2.63,0,0,0-2-.87,4,4,0,0,0-2.41.68l-2,1.35A29.79,29.79,0,0,0,73.94,96.4Z" style="fill:#ffe2b8"/><path d="M108,108.14a3.25,3.25,0,1,0-6.38-1.19l-.53,2.34q3.18.72,6.56,1.22Z" style="fill:#ffe2b8"/><path d="M101,106.8a3.24,3.24,0,1,0-6.24-1.74L94,107.34c2.06.66,4.2,1.27,6.42,1.79Z" style="fill:#ffe2b8"/><path d="M81.13,98.85a3.55,3.55,0,0,0,.51-2.46,2.91,2.91,0,0,0-1.14-2h0a3.37,3.37,0,0,0-4.42.71L74.5,96.89a40.85,40.85,0,0,0,5.35,4Z" style="fill:#ffe2b8"/><path d="M87.36,102.22a3.38,3.38,0,0,0-1.3-4.37,3.12,3.12,0,0,0-2.34-.18,3.67,3.67,0,0,0-2,1.56l-1.25,2a55.54,55.54,0,0,0,5.9,3.13Z" style="fill:#ffe2b8"/><path d="M94,104.84a3.22,3.22,0,1,0-6-2.33l-1,2.19q3,1.32,6.22,2.41Z" style="fill:#ffe2b8"/><path d="M119.32,105.81A3.36,3.36,0,0,0,116,109l-.16,2.38q3.28.22,6.67.23v-2.4A3.35,3.35,0,0,0,119.32,105.81Z" style="fill:#ffe2b8"/><path d="M115.23,108.93a3.25,3.25,0,1,0-6.47-.67l-.34,2.36q3.26.47,6.64.7Z" style="fill:#ffe2b8"/><path d="M118.16,99.07a3.38,3.38,0,0,0,3.55-3.26v-2.4c-2.25,0-4.48-.1-6.66-.26l-.17,2.39a3.36,3.36,0,0,0,3.27,3.53Z" style="fill:#ffe2b8"/><path d="M102.57,97.28a3.37,3.37,0,0,0,4-2.68l.37-2.37c-2.24-.35-4.43-.78-6.55-1.28l-.54,2.33A3.36,3.36,0,0,0,102.57,97.28Z" style="fill:#ffe2b8"/><path d="M85.37,88.39a3.22,3.22,0,0,0,0,2.58,3.67,3.67,0,0,0,2,1.88A3.35,3.35,0,0,0,91.78,91l.78-2.26c-2.16-.75-4.23-1.58-6.19-2.48Z" style="fill:#ffe2b8"/><path d="M71.16,89.48a4,4,0,0,0,1.58-1.94,2.66,2.66,0,0,0,.06-2,1.9,1.9,0,0,0-.61-.77,1.39,1.39,0,0,0-.41-.27,2.91,2.91,0,0,1-.4.1c-.62.07-1.51-.07-2.46,0l-2.45.14a20.42,20.42,0,0,0,2.68,6.07Z" style="fill:#ffe2b8"/><path d="M110.35,98.47a3.36,3.36,0,0,0,3.77-3l.2-2.38c-2.26-.18-4.47-.44-6.63-.76l-.36,2.37A3.37,3.37,0,0,0,110.35,98.47Z" style="fill:#ffe2b8"/><path d="M157.58,104.62a3.22,3.22,0,1,0-6,2.38l.78,2.26c2.16-.75,4.24-1.57,6.19-2.47Z" style="fill:#ffe2b8;mix-blend-mode:multiply"/><path d="M144,109.19a3.24,3.24,0,1,0-6.37,1.24l.37,2.36c2.24-.35,4.43-.77,6.55-1.27Z" style="fill:#ffe2b8;mix-blend-mode:multiply"/><path d="M136.9,110.54a3.26,3.26,0,1,0-6.47.74l.19,2.38q3.39-.27,6.63-.75Z" style="fill:#ffe2b8;mix-blend-mode:multiply"/><path d="M150.92,107.24a3.24,3.24,0,1,0-6.23,1.78l.57,2.32c2.21-.54,4.36-1.15,6.41-1.83Z" style="fill:#ffe2b8;mix-blend-mode:multiply"/><path d="M176.11,86.52c-1,.08-1.88.3-2.52.33a1.31,1.31,0,0,1-.73-.07c-.06-.1-.19.09-.27.21a2.86,2.86,0,0,0-.24.42h0a2.63,2.63,0,0,0,.13,2,4.2,4.2,0,0,0,1.64,1.88l2.06,1.23a19.9,19.9,0,0,0,2.45-6.17Z" style="fill:#ffe2b8;mix-blend-mode:multiply"/><path d="M163.81,101.25a3.56,3.56,0,0,0-2-1.52,3,3,0,0,0-2.33.21,3.36,3.36,0,0,0-1.25,4.37l1,2.16a55.58,55.58,0,0,0,5.84-3.2Z" style="fill:#ffe2b8;mix-blend-mode:multiply"/><path d="M169.37,97a3.81,3.81,0,0,0-2.23-1.17,3,3,0,0,0-2.2.54,3.39,3.39,0,0,0-.53,4.47l1.31,2A40.58,40.58,0,0,0,171,98.79Z" style="fill:#ffe2b8;mix-blend-mode:multiply"/><path d="M129.71,111.33a3.26,3.26,0,1,0-6.51.26V114c2.26,0,4.48-.11,6.67-.26Z" style="fill:#ffe2b8;mix-blend-mode:multiply"/><path d="M73.94,98.79,75.57,97a3.39,3.39,0,0,0,.33-4.41,2.7,2.7,0,0,0-2-.87,4,4,0,0,0-2.41.68l-2,1.35A29.4,29.4,0,0,0,73.94,98.79Z" style="fill:#ffe2b8;mix-blend-mode:multiply"/><path d="M108,110.54a3.25,3.25,0,1,0-6.38-1.19l-.53,2.33q3.18.72,6.56,1.23Z" style="fill:#ffe2b8;mix-blend-mode:multiply"/><path d="M101,109.19a3.24,3.24,0,1,0-6.24-1.73L94,109.73q3.09,1,6.42,1.79Z" style="fill:#ffe2b8;mix-blend-mode:multiply"/><path d="M81.13,101.25a3.58,3.58,0,0,0,.51-2.47,2.91,2.91,0,0,0-1.14-2h0a3.37,3.37,0,0,0-4.42.71L74.5,99.29a42.73,42.73,0,0,0,5.35,4Z" style="fill:#ffe2b8;mix-blend-mode:multiply"/><path d="M87.36,104.62a3.38,3.38,0,0,0-1.3-4.37,3.07,3.07,0,0,0-2.34-.18,3.67,3.67,0,0,0-2,1.56l-1.25,2a55.51,55.51,0,0,0,5.9,3.12Z" style="fill:#ffe2b8;mix-blend-mode:multiply"/><path d="M94,107.24a3.22,3.22,0,1,0-6-2.33l-1,2.19c2,.87,4,1.68,6.22,2.41Z" style="fill:#ffe2b8;mix-blend-mode:multiply"/><path d="M119.32,108.21a3.35,3.35,0,0,0-3.36,3.17l-.16,2.39c2.19.14,4.41.22,6.67.22V111.6A3.34,3.34,0,0,0,119.32,108.21Z" style="fill:#ffe2b8;mix-blend-mode:multiply"/><path d="M115.23,111.33a3.25,3.25,0,1,0-6.47-.68l-.34,2.37c2.17.31,4.38.53,6.64.7Z" style="fill:#ffe2b8;mix-blend-mode:multiply"/><path d="M71.16,91.87a4,4,0,0,0,1.58-1.93,2.68,2.68,0,0,0,.06-2,1.94,1.94,0,0,0-.61-.76,1.39,1.39,0,0,0-.41-.27,2,2,0,0,1-.4.09c-.62.08-1.51-.06-2.46,0l-2.45.13a20.47,20.47,0,0,0,2.68,6.08Z" style="fill:#ffe2b8;mix-blend-mode:multiply"/><path d="M94.87,95.43a3.37,3.37,0,0,0,4.24-2.33l.57-2.32q-3.33-.81-6.41-1.84l-.76,2.27A3.35,3.35,0,0,0,94.87,95.43Z" style="fill:#ffe2b8"/><path d="M73.28,80.78c-.25,1-.36,2-.54,2.65a3.08,3.08,0,0,1-.25.71.86.86,0,0,1-.07.1s-.1,0,0,.13a4,4,0,0,0,.56.52,3.33,3.33,0,0,0,4.89-.59l1.32-2A41.23,41.23,0,0,1,74,78.22Z" style="fill:#ffe2b8"/><path d="M78.57,84.72a3,3,0,0,0-.35,2.54A3.5,3.5,0,0,0,80,89.41a3.34,3.34,0,0,0,4.7-1.35l1-2.16a54.76,54.76,0,0,1-5.85-3.2Z" style="fill:#ffe2b8"/><path d="M130.05,93.17a3.42,3.42,0,0,0,6.8-.73l-.34-2.37q-3.24.47-6.63.72Z" style="fill:#ffe2b8;mix-blend-mode:multiply"/><path d="M166.37,82.35a3.37,3.37,0,0,0,4.89.7,4.06,4.06,0,0,0,1-1.12c.2-.27.06-.29,0-.41a3.52,3.52,0,0,1-.17-.38c-.23-.58-.43-1.53-.76-2.44l-.92-2.35a43.22,43.22,0,0,1-5.33,4Z" style="fill:#ffe2b8;mix-blend-mode:multiply"/><path d="M126,96.72a3.35,3.35,0,0,0,3.3-3.5l-.15-2.39c-2.19.14-4.41.23-6.67.23v2.39A3.35,3.35,0,0,0,126,96.72Z" style="fill:#ffe2b8;mix-blend-mode:multiply"/><path d="M159.57,86a3.13,3.13,0,0,0,1.94,1.69,3.56,3.56,0,0,0,1.35.15,3.81,3.81,0,0,0,1.38-.43h0a3.35,3.35,0,0,0,1.47-4.68l-1.25-2a56.36,56.36,0,0,1-5.89,3.13Z" style="fill:#ffe2b8;mix-blend-mode:multiply"/><path d="M145.08,90.91a3.35,3.35,0,0,0,4.22,2.36h0a3.35,3.35,0,0,0,2.4-4.2L151,86.8c-2.06.66-4.2,1.26-6.42,1.78Z" style="fill:#ffe2b8;mix-blend-mode:multiply"/><path d="M137.61,92.34a3.42,3.42,0,0,0,6.72-1.27l-.52-2.33c-2.13.48-4.31.9-6.56,1.23Z" style="fill:#ffe2b8;mix-blend-mode:multiply"/><path d="M152.43,88.84a3.45,3.45,0,0,0,6.44-2.49l-1-2.19q-3,1.32-6.22,2.41Z" style="fill:#ffe2b8;mix-blend-mode:multiply"/><path d="M118.16,96.7a3.38,3.38,0,0,0,3.55-3.26V91c-2.25,0-4.48-.1-6.66-.25l-.17,2.38a3.36,3.36,0,0,0,3.27,3.53Z" style="fill:#ffe2b8;mix-blend-mode:multiply"/><path d="M102.57,94.91a3.37,3.37,0,0,0,4-2.68l.37-2.37c-2.24-.35-4.43-.78-6.55-1.28l-.54,2.33A3.36,3.36,0,0,0,102.57,94.91Z" style="fill:#ffe2b8;mix-blend-mode:multiply"/><path d="M85.37,86a3.22,3.22,0,0,0,0,2.58,3.67,3.67,0,0,0,2,1.88,3.35,3.35,0,0,0,4.47-1.9l.78-2.26c-2.16-.75-4.23-1.58-6.19-2.48Z" style="fill:#ffe2b8;mix-blend-mode:multiply"/><path d="M110.35,96.1a3.36,3.36,0,0,0,3.77-3l.2-2.38c-2.26-.18-4.47-.44-6.63-.76l-.36,2.37A3.36,3.36,0,0,0,110.35,96.1Z" style="fill:#ffe2b8;mix-blend-mode:multiply"/><path d="M94.87,93.06a3.36,3.36,0,0,0,4.24-2.33l.57-2.32q-3.33-.81-6.41-1.84l-.76,2.27A3.35,3.35,0,0,0,94.87,93.06Z" style="fill:#ffe2b8;mix-blend-mode:multiply"/><path d="M73.28,78.41c-.25,1-.36,2-.54,2.65a3.08,3.08,0,0,1-.25.71.86.86,0,0,1-.07.1s-.1,0,0,.13a4,4,0,0,0,.56.52,3.33,3.33,0,0,0,4.89-.59l1.32-2A40.35,40.35,0,0,1,74,75.85Z" style="fill:#ffe2b8;mix-blend-mode:multiply"/><path d="M78.57,82.35a3.06,3.06,0,0,0-.35,2.55A3.51,3.51,0,0,0,80,87a3.33,3.33,0,0,0,4.7-1.35l1-2.16a54.76,54.76,0,0,1-5.85-3.2Z" style="fill:#ffe2b8;mix-blend-mode:multiply"/><g style="opacity:0.43;mix-blend-mode:multiply"><path d="M136.72,77.78c.11-.16.23-.31.35-.47s.4-.61.59-.92a4.94,4.94,0,0,0,.3-.49c.19-.32.36-.65.53-1l.24-.5c.16-.35.32-.7.46-1.06.06-.15.11-.32.17-.48.14-.37.27-.75.38-1.14,0-.13.07-.27.1-.4a18.74,18.74,0,0,0-30.36-19h0c-.25.21-.49.44-.73.66l-.62.63-.42.47c-.27.3-.53.6-.77.92s-.3.39-.45.59-.39.56-.58.85-.32.51-.47.78l-.34.62c-.19.36-.37.72-.53,1.09-.07.16-.14.31-.2.47-.18.43-.34.88-.49,1.34,0,.13-.09.26-.13.4-.14.48-.27,1-.38,1.47l-.06.32c-.1.53-.19,1.06-.25,1.61,0,.07,0,.14,0,.2a17.53,17.53,0,0,0-.09,1.78,18.76,18.76,0,0,0,18.76,18.77,18.18,18.18,0,0,0,1.82-.09l.59-.08c.4-.05.79-.1,1.18-.18.23,0,.45-.1.68-.16s.69-.16,1-.26l.71-.23a9.33,9.33,0,0,0,.93-.34c.24-.09.48-.19.71-.3s.58-.26.86-.41.47-.23.7-.36.52-.32.78-.48.46-.28.68-.44.46-.34.69-.51.46-.34.68-.52l.29-.27a17.69,17.69,0,0,0,1.63-1.61c.12-.14.26-.27.38-.41S136.5,78.07,136.72,77.78Z" style="fill:#30c2c9;opacity:0.43;mix-blend-mode:multiply"/><path d="M159,75.52c.14,0,.26-.06.4-.09l.58-.15.4-.13L161,75l.41-.17q.24-.11.48-.24a3,3,0,0,0,.4-.21l.44-.26.39-.25.4-.3.38-.29.17-.16a11.43,11.43,0,0,0,.93-.91l.21-.24a5.85,5.85,0,0,0,.38-.49,2.69,2.69,0,0,0,.2-.27c.12-.17.23-.34.34-.52a2.61,2.61,0,0,0,.17-.28c.11-.18.21-.37.31-.56l.13-.28c.09-.2.18-.4.26-.6s.07-.19.1-.28.15-.43.22-.65l.06-.23A10.68,10.68,0,0,0,150,56.94h0c-.28.24-.54.49-.79.75l-.07.08c-.22.24-.43.48-.63.74a.91.91,0,0,0-.11.16,7.25,7.25,0,0,0-.5.73l-.14.22c-.14.23-.26.47-.38.72,0,.09-.1.19-.14.28-.11.24-.2.48-.29.72l-.12.33c-.08.24-.15.48-.21.73s-.07.24-.09.36a7,7,0,0,0-.13.78c0,.12,0,.23-.05.34a8.77,8.77,0,0,0-.07,1.15A10.7,10.7,0,0,0,157,75.72c.35,0,.7,0,1,0l.33,0Z" style="fill:#30c2c9;opacity:0.43;mix-blend-mode:multiply"/><path d="M96.23,71.44l.2-.27c.12-.17.23-.34.34-.52l.17-.28c.11-.18.2-.37.3-.56s.09-.19.14-.28.18-.4.26-.6.06-.19.1-.28.15-.43.21-.65l.06-.23A10.65,10.65,0,0,0,87.69,54.34a10.64,10.64,0,0,0-7,2.6h0q-.4.36-.78.75l-.08.08a8.67,8.67,0,0,0-.62.74l-.12.15c-.18.24-.34.49-.5.74,0,.07-.09.14-.13.22q-.21.35-.39.72l-.14.28c-.1.24-.2.48-.29.72l-.12.33c-.08.24-.14.48-.21.73l-.09.36c0,.26-.09.52-.13.78s0,.23,0,.34A10.93,10.93,0,0,0,77,65,10.69,10.69,0,0,0,87.69,75.72c.35,0,.69,0,1,0l.34,0,.67-.1c.13,0,.26-.06.39-.09a5.47,5.47,0,0,0,.58-.15l.41-.13.52-.19.41-.17c.16-.07.33-.15.49-.24a3.72,3.72,0,0,0,.39-.21c.16-.08.3-.17.45-.26l.39-.25.39-.3.39-.29.15-.14a10.42,10.42,0,0,0,.94-.94l.22-.23Z" style="fill:#30c2c9;opacity:0.43;mix-blend-mode:multiply"/></g><path d="M103,63.41a18.77,18.77,0,1,0,18.76-18.76A18.76,18.76,0,0,0,103,63.41Z" style="fill:#bf2073"/><path d="M105.55,63.41a16.18,16.18,0,1,0,16.17-16.17A16.17,16.17,0,0,0,105.55,63.41Z" style="fill:#4dff1d"/><path d="M113.64,63.41a8.09,8.09,0,1,0,8.08-8.08A8.09,8.09,0,0,0,113.64,63.41Z" style="fill:#0e393a"/><path d="M110.24,64.81a4.2,4.2,0,1,0,4.2-4.19A4.19,4.19,0,0,0,110.24,64.81Z" style="fill:#fff"/><path d="M121.72,72.7A16.18,16.18,0,0,0,137.52,60a16.18,16.18,0,1,1-31.59,0A16.17,16.17,0,0,0,121.72,72.7Z" style="fill:#39bf16"/><path d="M137.9,63.41a16.18,16.18,0,0,0-32.35,0Z" style="fill:#ff2a99"/><path d="M109.48,49.21a19.45,19.45,0,0,0-.34,3.52,18.75,18.75,0,0,0,31,14.21,18.76,18.76,0,1,1-30.67-17.73Z" style="fill:#30c2c9;opacity:0.43;mix-blend-mode:multiply"/><path d="M145.28,61.92A11.73,11.73,0,1,0,157,50.19,11.72,11.72,0,0,0,145.28,61.92Z" style="fill:#bf2073"/><circle cx="157" cy="61.92" r="9.21" style="fill:#4dff1d"/><circle cx="157" cy="61.92" r="4.61" style="fill:#0e393a"/><path d="M150.46,62.71a2.39,2.39,0,1,0,2.39-2.38A2.39,2.39,0,0,0,150.46,62.71Z" style="fill:#fff"/><path d="M157,67.21A9.21,9.21,0,0,0,166,60a9.21,9.21,0,1,1-18.21,2,9.82,9.82,0,0,1,.21-2A9.22,9.22,0,0,0,157,67.21Z" style="fill:#39bf16"/><path d="M166.22,61.92a9.22,9.22,0,1,0-18.43,0Z" style="fill:#ff2a99"/><path d="M150,53.82a11.23,11.23,0,0,0-.2,2,10.69,10.69,0,0,0,17.67,8.1A10.69,10.69,0,1,1,150,53.82Z" style="fill:#30c2c9;opacity:0.43;mix-blend-mode:multiply"/><circle cx="87.69" cy="61.92" r="11.5" style="fill:#bf2073"/><circle cx="87.69" cy="61.92" r="9.21" style="fill:#4dff1d"/><path d="M83.08,61.92a4.61,4.61,0,1,0,4.61-4.61A4.6,4.6,0,0,0,83.08,61.92Z" style="fill:#0e393a"/><path d="M81.15,62.71a2.39,2.39,0,1,0,2.39-2.38A2.39,2.39,0,0,0,81.15,62.71Z" style="fill:#fff"/><path d="M87.69,67.21a9.22,9.22,0,0,0,9-7.26,9.22,9.22,0,1,1-18,0A9.21,9.21,0,0,0,87.69,67.21Z" style="fill:#39bf16"/><path d="M96.9,61.92a9.22,9.22,0,1,0-18.43,0Z" style="fill:#ff2a99"/><path d="M80.71,53.82a11.22,11.22,0,0,0-.19,2,10.69,10.69,0,0,0,17.66,8.1A10.69,10.69,0,1,1,80.71,53.82Z" style="fill:#30c2c9;opacity:0.43;mix-blend-mode:multiply"/><path d="M174.89,76.11a4,4,0,0,1,4.13,4v.24c0,17.25-25.32,31.25-56.55,31.25s-56.55-14-56.55-31.25v-.24a4,4,0,0,1,4.13-4,4.17,4.17,0,0,1,3,1.25c9.66,9.58,28.18,16.07,49.44,16.07s39.78-6.49,49.43-16.07a4.21,4.21,0,0,1,3-1.25m0-4.75A8.9,8.9,0,0,0,168.56,74c-9.13,9.06-26.79,14.69-46.09,14.69S85.51,83.05,76.38,74a8.9,8.9,0,0,0-6.33-2.63A8.77,8.77,0,0,0,61.17,80v.31c0,20.18,26.92,36,61.3,36s61.3-15.82,61.3-36V80a8.77,8.77,0,0,0-8.88-8.68Z" style="fill:#0f6e86"/><path d="M174.89,73.9a8.94,8.94,0,0,0-6.33,2.63c-9.13,9.06-26.79,14.69-46.09,14.69s-37-5.63-46.09-14.69a8.94,8.94,0,0,0-6.33-2.63,8.78,8.78,0,0,0-8.83,7.81c1.19,19.53,27.66,34.64,61.25,34.64s60.06-15.11,61.25-34.64A8.78,8.78,0,0,0,174.89,73.9ZM179,82.65v.24c0,17.26-25.32,31.25-56.55,31.25s-56.55-14-56.55-31.25v-.24A3.51,3.51,0,0,1,66,82a15,15,0,0,1-.08-1.64v-.24a4,4,0,0,1,4.13-4,4.17,4.17,0,0,1,3,1.25c9.66,9.58,28.18,16.07,49.44,16.07s39.78-6.49,49.43-16.07a4.21,4.21,0,0,1,3-1.25,4,4,0,0,1,4.13,4v.24c0,.55,0,1.09-.08,1.64A3.51,3.51,0,0,1,179,82.65Z" style="fill:#0b5365"/><path d="M210.46,95a1.15,1.15,0,1,1-1.15-1.14A1.14,1.14,0,0,1,210.46,95Z" style="fill:#f5bece"/><path d="M207.27,96.23a2.18,2.18,0,1,1-2.18-2.18A2.18,2.18,0,0,1,207.27,96.23Z" style="fill:#f5bece"/><path d="M35.61,139.65a31.78,31.78,0,0,1,0-63.55,5.34,5.34,0,1,1,0,10.67,21.11,21.11,0,1,0,21.11,21.11,5.34,5.34,0,1,1,10.67,0A31.81,31.81,0,0,1,35.61,139.65Z" style="fill:url(#Degradado_sin_nombre_61)"/><g style="opacity:0.54;mix-blend-mode:multiply"><path d="M66,104.29a31.76,31.76,0,0,1-61.12,11.6,31.77,31.77,0,0,0,62.52-8A5.28,5.28,0,0,0,66,104.29Z" style="fill:#249297"/><path d="M34.23,82.67A21.11,21.11,0,0,0,15,112.51a21.47,21.47,0,0,1-.51-4.63,21.13,21.13,0,0,1,21.1-21.11,5.32,5.32,0,0,0,3.93-8.93A5.33,5.33,0,0,1,34.23,82.67Z" style="fill:#249297"/></g><path d="M32.55,79.11A1.15,1.15,0,1,1,31.4,78,1.15,1.15,0,0,1,32.55,79.11Z" style="fill:#ff2a99"/><path d="M38.78,80.14A2.18,2.18,0,1,1,36.6,78,2.17,2.17,0,0,1,38.78,80.14Z" style="fill:#ff2a99"/><path d="M19.9,84.38a2.06,2.06,0,1,1-2.06-2.06A2.06,2.06,0,0,1,19.9,84.38Z" style="fill:#bf2073;opacity:0.63;mix-blend-mode:multiply"/><path d="M26.1,82.32A2.06,2.06,0,1,1,24,80.26,2.06,2.06,0,0,1,26.1,82.32Z" style="fill:#bf2073;opacity:0.63;mix-blend-mode:multiply"/><circle cx="14.84" cy="87.38" r="0.94" style="fill:#bf2073;opacity:0.63;mix-blend-mode:multiply"/><path d="M55.06,124.45a2.06,2.06,0,1,1,2.5,1.5A2.06,2.06,0,0,1,55.06,124.45Z" style="fill:#bf2073;opacity:0.63;mix-blend-mode:multiply"/><path d="M49.54,128a2.06,2.06,0,0,1,4-1,2.06,2.06,0,1,1-4,1Z" style="fill:#bf2073;opacity:0.63;mix-blend-mode:multiply"/><path d="M58.33,120.54A1,1,0,0,1,59,119.4a.94.94,0,1,1-.68,1.14Z" style="fill:#bf2073;opacity:0.63;mix-blend-mode:multiply"/><path d="M56.65,149.08a31,31,0,0,1-31-31A20.35,20.35,0,0,0,5.33,97.76a5.34,5.34,0,0,1,0-10.67,31,31,0,0,1,31,31,20.33,20.33,0,0,0,40.66,0,5.33,5.33,0,1,1,10.66,0A31,31,0,0,1,56.65,149.08Z" style="fill:url(#Degradado_sin_nombre_61-2)"/><g style="opacity:0.54;mix-blend-mode:multiply"><path d="M58.92,145.11a31,31,0,0,1-31-31A20.34,20.34,0,0,0,7.6,93.79a5.34,5.34,0,0,1-5.34-5.33c0-.14,0-.27,0-.41a5.34,5.34,0,0,0,3.05,9.71,20.35,20.35,0,0,1,20.33,20.33,31,31,0,0,0,59,13.29A31,31,0,0,1,58.92,145.11Z" style="fill:#249297"/></g><path d="M75.06,135.14a2.06,2.06,0,1,1,2.51,1.5A2.06,2.06,0,0,1,75.06,135.14Z" style="fill:#bf2073;opacity:0.63;mix-blend-mode:multiply"/><path d="M69.55,138.64a2.06,2.06,0,1,1,2.5,1.5A2.06,2.06,0,0,1,69.55,138.64Z" style="fill:#bf2073;opacity:0.63;mix-blend-mode:multiply"/><path d="M78.34,131.23a.94.94,0,1,1,1.13.68A.94.94,0,0,1,78.34,131.23Z" style="fill:#bf2073;opacity:0.63;mix-blend-mode:multiply"/><path d="M10,89.82a1.13,1.13,0,1,1-1.13-1.13A1.13,1.13,0,0,1,10,89.82Z" style="fill:#ff2a99"/><path d="M6.84,91A2.14,2.14,0,1,1,4.7,88.85,2.13,2.13,0,0,1,6.84,91Z" style="fill:#ff2a99"/><path d="M84.38,154.39a31,31,0,0,1-31-31,20.35,20.35,0,0,0-20.33-20.32,5.34,5.34,0,0,1,0-10.67,31,31,0,0,1,31,31,20.33,20.33,0,1,0,40.66,0,5.33,5.33,0,0,1,10.66,0A31,31,0,0,1,84.38,154.39Z" style="fill:url(#Degradado_sin_nombre_61-3)"/><g style="opacity:0.43;mix-blend-mode:multiply"><path d="M86.64,150.42a31,31,0,0,1-31-31A20.35,20.35,0,0,0,35.32,99.1,5.33,5.33,0,0,1,30,93.77c0-.14,0-.27,0-.41a5.34,5.34,0,0,0,3.05,9.71,20.35,20.35,0,0,1,20.33,20.32,31,31,0,0,0,59,13.3A31,31,0,0,1,86.64,150.42Z" style="fill:#249297"/></g><path d="M102.79,140.45a2.06,2.06,0,1,1,2.5,1.5A2.06,2.06,0,0,1,102.79,140.45Z" style="fill:#bf2073;opacity:0.63;mix-blend-mode:multiply"/><path d="M106.06,136.54a.94.94,0,0,1,.69-1.14.93.93,0,0,1,1.13.68.94.94,0,0,1-1.82.46Z" style="fill:#bf2073;opacity:0.63;mix-blend-mode:multiply"/><path d="M37.69,95.13A1.13,1.13,0,1,1,36.56,94,1.12,1.12,0,0,1,37.69,95.13Z" style="fill:#ff2a99"/><path d="M34.56,96.3a2.14,2.14,0,1,1-2.13-2.14A2.13,2.13,0,0,1,34.56,96.3Z" style="fill:#ff2a99"/><path d="M209.13,139.65a31.78,31.78,0,1,0,0-63.55,5.34,5.34,0,0,0,0,10.67A21.11,21.11,0,1,1,188,107.88a5.34,5.34,0,1,0-10.67,0A31.8,31.8,0,0,0,209.13,139.65Z" style="fill:url(#Degradado_sin_nombre_61-4)"/><g style="opacity:0.54;mix-blend-mode:multiply"><path d="M178.75,104.29a31.77,31.77,0,0,0,61.13,11.6,31.77,31.77,0,0,1-62.52-8A5.32,5.32,0,0,1,178.75,104.29Z" style="fill:#249297"/><path d="M210.51,82.67a21.09,21.09,0,0,1,19.21,29.84,20.86,20.86,0,0,0,.52-4.63,21.13,21.13,0,0,0-21.11-21.11,5.32,5.32,0,0,1-3.92-8.93A5.33,5.33,0,0,0,210.51,82.67Z" style="fill:#249297"/></g><path d="M212.19,79.11a1.15,1.15,0,0,0,2.3,0,1.15,1.15,0,0,0-2.3,0Z" style="fill:#ff2a99"/><path d="M206,80.14A2.18,2.18,0,1,0,208.14,78,2.17,2.17,0,0,0,206,80.14Z" style="fill:#ff2a99"/><path d="M224.85,84.38a2.06,2.06,0,1,0,2.06-2.06A2.06,2.06,0,0,0,224.85,84.38Z" style="fill:#bf2073;opacity:0.63;mix-blend-mode:multiply"/><path d="M218.65,82.32a2.06,2.06,0,1,0,2.06-2.06A2.06,2.06,0,0,0,218.65,82.32Z" style="fill:#bf2073;opacity:0.63;mix-blend-mode:multiply"/><circle cx="229.91" cy="87.38" r="0.94" style="fill:#bf2073;opacity:0.63;mix-blend-mode:multiply"/><path d="M189.69,124.45a2.06,2.06,0,1,0-2.5,1.5A2.06,2.06,0,0,0,189.69,124.45Z" style="fill:#bf2073;opacity:0.63;mix-blend-mode:multiply"/><path d="M195.2,128a2.06,2.06,0,1,0-2.5,1.5A2.06,2.06,0,0,0,195.2,128Z" style="fill:#bf2073;opacity:0.63;mix-blend-mode:multiply"/><path d="M186.41,120.54a.93.93,0,1,0-1.13.68A.93.93,0,0,0,186.41,120.54Z" style="fill:#bf2073;opacity:0.63;mix-blend-mode:multiply"/><path d="M188.1,149.08a31,31,0,0,0,31-31,20.35,20.35,0,0,1,20.33-20.33,5.34,5.34,0,0,0,0-10.67,31,31,0,0,0-31,31,20.33,20.33,0,0,1-40.65,0,5.34,5.34,0,1,0-10.67,0A31,31,0,0,0,188.1,149.08Z" style="fill:url(#Degradado_sin_nombre_61-5)"/><g style="opacity:0.54;mix-blend-mode:multiply"><path d="M185.83,145.11a31,31,0,0,0,31-31,20.35,20.35,0,0,1,20.33-20.33,5.33,5.33,0,0,0,5.33-5.33c0-.14,0-.27,0-.41a5.33,5.33,0,0,1-3,9.71,20.35,20.35,0,0,0-20.33,20.33,31,31,0,0,1-59,13.29A31,31,0,0,0,185.83,145.11Z" style="fill:#249297"/></g><path d="M169.68,135.14a2.06,2.06,0,0,0-4-1,2.06,2.06,0,0,0,4,1Z" style="fill:#bf2073;opacity:0.63;mix-blend-mode:multiply"/><path d="M175.2,138.64a2.06,2.06,0,1,0-2.5,1.5A2.07,2.07,0,0,0,175.2,138.64Z" style="fill:#bf2073;opacity:0.63;mix-blend-mode:multiply"/><path d="M166.41,131.23a.94.94,0,1,0-1.14.68A.94.94,0,0,0,166.41,131.23Z" style="fill:#bf2073;opacity:0.63;mix-blend-mode:multiply"/><path d="M234.78,89.82a1.13,1.13,0,1,0,1.13-1.13A1.13,1.13,0,0,0,234.78,89.82Z" style="fill:#ff2a99"/><path d="M237.91,91a2.14,2.14,0,1,0,2.14-2.14A2.13,2.13,0,0,0,237.91,91Z" style="fill:#ff2a99"/><path d="M160.37,154.39a31,31,0,0,0,31-31,20.35,20.35,0,0,1,20.33-20.32,5.34,5.34,0,0,0,0-10.67,31,31,0,0,0-31,31,20.33,20.33,0,1,1-40.66,0,5.33,5.33,0,1,0-10.66,0A31,31,0,0,0,160.37,154.39Z" style="fill:url(#Degradado_sin_nombre_61-6)"/><g style="opacity:0.43;mix-blend-mode:multiply"><path d="M158.11,150.42a31,31,0,0,0,31-31A20.35,20.35,0,0,1,209.42,99.1a5.34,5.34,0,0,0,5.34-5.33c0-.14,0-.27,0-.41a5.34,5.34,0,0,1-3.05,9.71,20.35,20.35,0,0,0-20.33,20.32,31,31,0,0,1-59,13.3A31,31,0,0,0,158.11,150.42Z" style="fill:#249297"/></g><path d="M142,140.45a2.06,2.06,0,1,0-2.5,1.5A2.06,2.06,0,0,0,142,140.45Z" style="fill:#bf2073;opacity:0.63;mix-blend-mode:multiply"/><path d="M138.68,136.54a.94.94,0,0,0-.68-1.14.93.93,0,0,0-1.13.68.93.93,0,1,0,1.81.46Z" style="fill:#bf2073;opacity:0.63;mix-blend-mode:multiply"/><path d="M207.06,95.13A1.13,1.13,0,1,0,208.18,94,1.12,1.12,0,0,0,207.06,95.13Z" style="fill:#ff2a99"/><path d="M210.19,96.3a2.14,2.14,0,1,0,2.13-2.14A2.13,2.13,0,0,0,210.19,96.3Z" style="fill:#ff2a99"/></g></g></g></svg>